<svg width="124" height="124" viewBox="0 0 124 124" fill="none" xmlns="http://www.w3.org/2000/svg">
<g clip-path="url(#clip0_1691_178228)">
<path d="M85.526 108.736C84.8079 110.265 83.7041 112.076 82.0003 112.254C80.6127 112.379 79.3643 111.397 78.3268 110.379C70.0262 102.891 60.6906 96.3358 50.8121 91.0619C48.6675 89.9056 46.2416 88.3636 46.3787 85.9568C46.4991 84.0951 48.2005 82.617 49.9919 82.3159C51.7828 82.0148 53.7159 82.5567 55.4379 83.1337C59.9367 84.7607 64.0326 87.214 67.7954 90.265C67.9528 89.9134 67.6537 89.422 67.39 89.1416C56.996 79.5134 44.3059 72.9797 31.6687 66.762C23.6362 62.8037 15.4111 58.9862 6.90602 56.0825C4.83225 55.3477 2.54795 54.6483 1.07026 52.9465C-0.407438 51.2446 -0.587448 48.2417 1.27272 47.0621C2.83444 46.0414 4.78517 46.6882 6.50728 47.2656C31.725 56.7853 57.0153 68.0262 76.327 86.8806C74.3711 82.3343 72.3272 77.911 70.3714 73.3646C70.0014 72.4517 69.5081 71.4513 69.7702 70.4321C70.0667 68.9737 71.4356 68.0936 72.7341 67.4419C73.7346 66.9486 74.8403 66.4379 75.8772 66.8053C76.6854 67.1029 77.2663 67.9803 77.6013 68.6822C82.2143 76.7902 85.5461 85.6556 87.5262 94.8564C87.9503 96.7354 88.2514 98.5263 88.1487 100.494C87.9945 103.445 86.7162 106.152 85.5254 108.735L85.526 108.736Z" fill="#E6F5F5"/>
</g>
<defs>
<clipPath id="clip0_1691_178228">
<rect width="106.838" height="106.838" fill="white" transform="translate(105.359 0.919922) rotate(80.4578)"/>
</clipPath>
</defs>
</svg>
