<svg width="198" height="90" viewBox="0 0 198 90" fill="none" xmlns="http://www.w3.org/2000/svg">
<path d="M126.566 87.4223L121.396 87.746C120.52 88.1515 119.571 88.3721 118.607 88.3941C117.24 88.2864 115.866 88.4707 114.575 88.9333C114.054 89.0935 113.507 89.1519 112.965 89.1065L103.398 89.3874L101.896 89.9058L92.8867 89.9051C91.7068 89.5814 90.5701 89.0202 89.3258 89.6891H89.3252C88.4264 90.0511 87.4115 89.9713 86.5798 89.473C84.9195 90.1757 83.048 90.1757 81.3884 89.473L67.273 89.2142L65.814 88.5018H63.4116C62.7275 88.5608 62.0383 88.5025 61.3735 88.3292C59.2749 87.759 57.1118 87.4618 54.9377 87.4443C54.4561 87.2406 53.9616 87.0674 53.4581 86.9259C52.3395 86.8461 51.2325 86.6509 50.1544 86.3433C49.2433 86.0508 48.2988 85.8769 47.344 85.825C46.2931 85.6089 45.1989 85.3066 44.1906 85.0049C41.8309 84.3575 39.4285 83.904 37.1333 83.0626C34.838 82.2205 32.7143 81.6813 30.6975 80.7095C29.0308 80.0756 27.3984 79.3555 25.8065 78.551C24.3906 77.731 22.889 77.0614 21.5164 76.3926V76.3919C19.1475 75.0749 16.8492 73.6334 14.6299 72.075C11.3842 69.7771 8.41196 67.1119 5.77044 64.1315C4.82653 63.1382 3.9258 62.1021 2.85295 60.9149L0 55.4542V52.5399L0.536424 51.3526L0.751126 47.9206C0.880074 47.5755 0.965828 47.316 1.07285 47.0571C3.12892 42.565 5.82392 38.3979 9.07415 34.6882C10.0561 33.3732 11.1238 32.1262 12.2707 30.954C13.0335 30.0171 13.9645 29.2335 15.0161 28.6444C15.3713 28.4387 15.684 28.1682 15.9387 27.8457C16.7324 27.0899 17.4835 26.2699 18.3198 25.5576C19.0644 24.962 19.8452 24.4138 20.6582 23.9168C22.6105 22.6647 24.2404 20.9597 26.2785 19.8374C27.546 18.7994 28.9109 17.8886 30.3545 17.1178C33.014 15.4471 35.7722 13.9407 38.6136 12.6062C39.4221 12.097 40.3054 11.7181 41.2305 11.4839C41.9752 11.2399 42.6935 10.9214 43.3756 10.5341C44.2763 10.2103 45.07 9.62773 45.9714 9.3254C47.9017 8.69934 49.8115 7.98699 51.7631 7.38303V7.38238C52.5548 7.01907 53.3724 6.7161 54.2085 6.47541C55.4883 6.01479 56.8108 5.68197 58.1556 5.48278C59.3787 4.85672 60.7726 4.74902 62.0171 4.16577C62.5406 4.0211 63.0835 3.95558 63.6263 3.97179C64.3085 3.9108 64.979 3.75833 65.6212 3.51829C67.0157 2.9571 68.5387 2.91364 69.9112 2.41732C70.7365 2.24735 71.5798 2.18246 72.4212 2.22334L73.73 1.57587C74.5237 1.57587 75.6179 1.46817 76.6908 1.35983H76.6901C77.8861 1.04647 79.106 0.836922 80.3368 0.733766C81.4464 0.756473 82.5566 0.720142 83.6623 0.62607L87.309 0.474906L88.5747 0H97.5417C98.3141 0.193988 99.0865 0.453494 99.9015 0.582592C100.613 0.664985 101.33 0.708453 102.047 0.712346L104.02 1.87818L104.17 2.7417C103.076 3.13031 103.076 3.13031 96.8982 3.00056L95.3534 2.48219C93.719 2.29534 92.0639 2.47246 90.5049 3.00056L87.6307 3.13031L83.5334 3.36776V3.36712C81.966 3.9348 80.3077 4.20534 78.6423 4.16576C78.3316 4.3831 77.9821 4.53686 77.6127 4.61925C75.8106 4.61925 74.2233 5.61253 72.4426 5.74162C71.2414 5.74162 70.1473 6.62654 68.903 6.56167C65.7708 7.87868 62.4672 8.54756 59.3356 10.0158C58.5632 10.383 57.7696 10.4472 57.0191 10.7495C56.268 11.0518 55.582 11.5268 54.8741 11.8933V11.894C54.5014 12.0672 54.1139 12.2047 53.7155 12.304C51.976 12.7523 50.3421 13.5451 48.9103 14.635C47.4519 15.6464 45.9089 16.5275 44.2985 17.2683C41.5745 18.7825 38.9582 20.4849 36.4682 22.3631C34.0936 23.9935 31.888 25.8594 29.8829 27.9321C28.0183 29.3283 26.2808 30.8886 24.6915 32.5948C23.6831 33.5446 23.0828 34.7533 22.1389 35.7893C21.2363 36.8228 20.4587 37.9607 19.8217 39.1778C17.8797 42.3191 16.1455 45.5857 14.6303 48.9567C14.3337 49.5724 14.0758 50.2069 13.8585 50.8564C13.3434 52.4219 13.0971 54.0639 13.1287 55.7131V58.6274L14.8449 62.3402L16.282 63.7864C19.8404 67.4007 23.9732 70.3916 28.5095 72.6362C30.0575 73.5088 31.6629 74.2731 33.3147 74.9244C35.1168 75.529 36.8756 76.2628 38.7422 76.6942C39.9943 77.2463 41.3276 77.5895 42.6893 77.7089C43.951 78.2285 45.2953 78.514 46.6583 78.551C47.2205 78.6853 47.7673 78.8806 48.2882 79.1336L51.5061 79.3924C52.2521 79.6721 53.02 79.8887 53.8014 80.0399C55.303 80.1697 56.8045 80.1911 58.2636 80.2559L59.8084 80.8385L63.5407 80.9683H67.0372L68.9038 81.6158L85.2499 81.8746C86.3866 82.1984 87.5452 82.7809 88.7895 82.1335V82.1341C88.9133 82.0835 89.0513 82.0835 89.1757 82.1341C90.6212 82.5649 92.1389 82.6973 93.6373 82.5227H98.1634C99.2607 82.5759 100.358 82.43 101.403 82.0907C102.059 81.9109 102.741 81.8454 103.419 81.8967C106.165 81.8967 108.889 81.789 111.635 81.7455C112.475 81.7137 113.295 81.4925 114.038 81.098L120.13 80.7743L121.439 80.2131L124.957 79.8673C125.439 79.6162 125.951 79.4281 126.48 79.3061C127.946 79.2335 129.393 78.935 130.77 78.4212C132.396 78.2785 134.001 77.9528 135.554 77.45C137.023 77.1801 138.46 76.761 139.844 76.1979C141.177 75.9656 142.485 75.6042 143.748 75.1183C144.993 75.1183 146.001 74.1471 147.288 74.1471C147.829 74.0822 148.354 73.9135 148.833 73.6508C149.584 73.327 150.42 73.3056 151.171 72.917H151.17C152.392 72.3137 153.662 71.8154 154.968 71.4274C156.437 71.0083 157.871 70.4737 159.258 69.8301C160.588 69.1613 162.047 68.7506 163.398 68.1032H163.399C164.555 67.7691 165.694 67.3727 166.809 66.9159C167.388 66.5708 168.032 66.3333 168.633 65.9875C169.234 65.6424 170.005 65.0812 170.778 64.6277C172.477 64.1113 174.054 63.2523 175.411 62.1021C176.355 61.5409 177.278 60.9797 178.179 60.3537C180.535 58.9368 182.698 57.2168 184.614 55.2381C185.236 54.5257 185.643 53.6408 186.351 52.9499C187.059 52.259 187.445 51.7192 188.153 50.8991L191.436 44.1856V44.1862C191.493 42.5144 191.745 40.8554 192.186 39.2425C192.389 38.73 192.389 38.1584 192.186 37.6452C191.788 36.4307 191.557 35.1669 191.5 33.8896C190.744 32.1204 189.832 30.4225 188.776 28.8168C187.127 26.4586 185.114 24.3818 182.812 22.6645C179.883 20.423 176.726 18.4981 173.395 16.9229C171.074 15.7921 168.672 14.839 166.208 14.0736C164.178 13.2866 162.101 12.6307 159.987 12.1091C159.601 12.1091 159.236 11.6342 158.872 11.6342C157.477 11.6342 156.255 10.7921 154.925 10.7058C153.595 10.6195 152.586 9.92858 151.364 9.8423V9.84295C150.21 9.89874 149.062 9.66907 148.018 9.17342C147.631 9.04302 147.223 8.98463 146.816 9.00084C145.586 9.03198 144.361 8.81918 143.213 8.37478C142.688 8.20026 142.133 8.13409 141.582 8.18079L137.957 8.00821L136.434 7.44703L127.853 7.18817L126.63 6.64839L116.655 6.47516L115.153 5.89257C113.416 5.65511 111.507 5.7414 109.383 5.54742C109.748 5.22369 109.898 4.98624 110.048 4.98624C114.552 4.77019 119.079 4.98624 123.605 4.98624H132.057L133.795 5.6123L142.204 5.82834L143.577 6.41093L148.018 6.47516L149.154 6.97148C150.077 6.97148 151.042 7.20893 151.986 7.20893C152.93 7.20893 153.767 7.89988 154.732 7.9427V7.94334C155.688 8.00238 156.626 8.23659 157.499 8.63429C158.283 8.84125 159.078 9.0002 159.88 9.1092C160.803 9.36806 161.682 9.73526 162.562 10.0376V10.0369C162.941 10.179 163.328 10.301 163.72 10.4041C164.39 10.4885 165.05 10.6331 165.694 10.8356C166.809 11.3319 168.054 11.483 169.148 12.1091C170.693 12.9726 172.408 13.4904 173.996 14.2676V14.2682C177.287 15.9148 180.468 17.7754 183.52 19.8372C184.08 20.2297 184.611 20.6625 185.108 21.1322C185.676 21.7252 186.301 22.2598 186.974 22.7295C187.916 23.2984 188.751 24.0289 189.441 24.8879C192.401 28.1174 194.801 31.8246 196.542 35.854C197.416 37.7147 197.912 39.733 198 41.7896V46.7974L197.335 48.3519L197.078 51.1365C196.499 52.41 196.005 53.705 195.341 54.8922H195.34C194.217 57.0908 192.771 59.1066 191.05 60.8719C190.664 61.2605 190.277 61.6491 189.891 62.0592C188.49 63.5702 186.904 64.8976 185.172 66.0095C183.907 66.8081 182.727 67.7579 181.397 68.449C179.252 69.5927 177.235 71.0396 174.961 72.0535C173.963 72.4402 172.989 72.8872 172.043 73.3919C171.088 73.9103 170.099 74.3644 169.083 74.7518C168.204 75.1189 167.346 75.5076 166.445 75.8093H166.445C165.479 76.3257 164.447 76.7033 163.377 76.9316C161.036 78.0365 158.611 78.9532 156.126 79.6734C153.81 80.4292 151.536 81.3784 149.155 81.8318C147.717 82.6739 145.937 82.4144 144.499 83.2565C143.412 83.3337 142.346 83.5965 141.346 84.0338C140.488 84.3789 139.48 84.2926 138.579 84.6812C137.254 84.9427 135.944 85.2742 134.653 85.6739C132.508 85.6739 130.363 86.7748 128.217 86.7534H128.218C127.637 86.8916 127.08 87.1174 126.566 87.4223Z" fill="#E6F5F5"/>
</svg>
