<svg width="45" height="47" viewBox="0 0 45 47" fill="none" xmlns="http://www.w3.org/2000/svg">
<path fill-rule="evenodd" clip-rule="evenodd" d="M44.715 14.9525C44.715 18.1065 42.1584 20.6632 39.0047 20.6632C35.8511 20.6632 33.2944 18.1066 33.2944 14.9525C33.2944 11.7987 35.8511 9.24219 39.0047 9.24219C42.1584 9.24219 44.715 11.7988 44.715 14.9525Z" fill="#E6F5F5"/>
<path fill-rule="evenodd" clip-rule="evenodd" d="M32.6448 5.66543C32.6448 8.50745 30.341 10.8113 27.4989 10.8113C24.6569 10.8113 22.353 8.50736 22.353 5.66543C22.353 2.82341 24.657 0.519531 27.4989 0.519531C30.3409 0.519531 32.6448 2.82333 32.6448 5.66543Z" fill="#E6F5F5"/>
<path fill-rule="evenodd" clip-rule="evenodd" d="M15.712 6.82279C15.712 9.10219 13.8641 10.9501 11.5845 10.9501C9.30493 10.9501 7.45703 9.10219 7.45703 6.82279C7.45703 4.54321 9.30493 2.69531 11.5845 2.69531C13.8641 2.69531 15.712 4.54321 15.712 6.82279Z" fill="#E6F5F5"/>
<path fill-rule="evenodd" clip-rule="evenodd" d="M6.61634 19.877C6.61634 21.6255 5.19875 23.0429 3.45026 23.0429C1.7016 23.0429 0.28418 21.6255 0.28418 19.877C0.28418 18.1284 1.70164 16.7109 3.45026 16.7109C5.19875 16.7109 6.61634 18.1284 6.61634 19.877Z" fill="#E6F5F5"/>
<path fill-rule="evenodd" clip-rule="evenodd" d="M7.61109 34.9066C7.61109 36.3427 6.44698 37.5066 5.01111 37.5066C3.57525 37.5066 2.41113 36.3427 2.41113 34.9066C2.41113 33.4708 3.57525 32.3066 5.01111 32.3066C6.44698 32.3066 7.61109 33.4708 7.61109 34.9066Z" fill="#E6F5F5"/>
<path fill-rule="evenodd" clip-rule="evenodd" d="M19.6273 44.3874C19.6273 45.5418 18.6914 46.4779 17.5368 46.4779C16.3823 46.4779 15.4463 45.5419 15.4463 44.3874C15.4463 43.2329 16.3823 42.2969 17.5368 42.2969C18.6914 42.2969 19.6273 43.2329 19.6273 44.3874Z" fill="#E6F5F5"/>
<path fill-rule="evenodd" clip-rule="evenodd" d="M34.7856 43.9456C34.7856 44.8669 34.0389 45.6138 33.1175 45.6138C32.1961 45.6138 31.4492 44.8669 31.4492 43.9456C31.4492 43.0242 32.1961 42.2773 33.1175 42.2773C34.0389 42.2773 34.7856 43.0242 34.7856 43.9456Z" fill="#E6F5F5"/>
<path fill-rule="evenodd" clip-rule="evenodd" d="M42.3055 30.7618C42.3055 31.4285 41.7651 31.969 41.0984 31.969C40.4317 31.969 39.8911 31.4285 39.8911 30.7618C39.8911 30.0951 40.4317 29.5547 41.0984 29.5547C41.7651 29.5547 42.3055 30.0951 42.3055 30.7618Z" fill="#E6F5F5"/>
</svg>
