<svg width="124" height="124" viewBox="0 0 124 124" fill="none" xmlns="http://www.w3.org/2000/svg">
<g clip-path="url(#clip0_1691_178226)">
<path d="M4.75139 108.736C5.46945 110.265 6.5732 112.076 8.27707 112.254C9.66463 112.379 10.913 111.397 11.9505 110.379C20.2511 102.891 29.5867 96.3358 39.4652 91.0619C41.6098 89.9056 44.0358 88.3636 43.8987 85.9568C43.7782 84.0951 42.0768 82.617 40.2855 82.3159C38.4945 82.0148 36.5614 82.5567 34.8394 83.1337C30.3407 84.7607 26.2447 87.214 22.4819 90.265C22.3245 89.9134 22.6236 89.422 22.8873 89.1416C33.2814 79.5134 45.9714 72.9797 58.6087 66.762C66.6412 62.8037 74.8663 58.9862 83.3713 56.0825C85.4451 55.3477 87.7294 54.6483 89.2071 52.9465C90.6848 51.2446 90.8648 48.2417 89.0046 47.0621C87.4429 46.0414 85.4922 46.6882 83.7701 47.2656C58.5524 56.7853 33.262 68.0262 13.9504 86.8806C15.9062 82.3343 17.9501 77.911 19.906 73.3646C20.276 72.4517 20.7693 71.4513 20.5072 70.4321C20.2107 68.9737 18.8418 68.0936 17.5432 67.4419C16.5428 66.9486 15.437 66.4379 14.4001 66.8053C13.5919 67.1029 13.011 67.9803 12.6761 68.6822C8.06301 76.7902 4.7312 85.6556 2.75111 94.8564C2.327 96.7354 2.02594 98.5263 2.12863 100.494C2.28283 103.445 3.56111 106.152 4.7519 108.735L4.75139 108.736Z" fill="#E6F5F5"/>
</g>
<defs>
<clipPath id="clip0_1691_178226">
<rect width="106.838" height="106.838" fill="white" transform="matrix(-0.165773 0.986164 0.986164 0.165773 17.7109 0.919922)"/>
</clipPath>
</defs>
</svg>
