<svg width="20" height="20" viewBox="0 0 20 20" fill="none" xmlns="http://www.w3.org/2000/svg">
<g id="notifications / bell">
<path id="icon" fill-rule="evenodd" clip-rule="evenodd" d="M15.8334 8.3335C15.8334 4.95085 13.9681 2.60308 11.5546 1.89826C11.4672 1.67213 11.3291 1.46191 11.1413 1.28552C10.4999 0.682821 9.50031 0.682821 8.85884 1.28552C8.67152 1.46153 8.53359 1.67121 8.44617 1.89677C6.02954 2.59852 4.16675 4.94116 4.16675 8.3335C4.16675 10.5284 3.72423 11.7583 2.90505 12.6496C2.76808 12.7986 2.397 13.14 2.14564 13.3712C2.02671 13.4806 1.93458 13.5654 1.90672 13.5934L1.66675 13.8368V16.6786H6.74006C6.91161 17.5636 7.39182 18.1557 8.26025 18.6857C9.32854 19.3376 10.6716 19.3376 11.7399 18.6857C12.5063 18.218 13.0202 17.4992 13.2287 16.6786H18.3334V13.8368L18.0934 13.5934C18.0682 13.5678 17.9798 13.4863 17.8643 13.3797L17.8642 13.3797C17.6136 13.1485 17.2353 12.7995 17.0962 12.6476C16.2765 11.7522 15.8334 10.5207 15.8334 8.3335ZM11.4474 16.6786H8.48226C8.6 16.8976 8.80067 17.063 9.12843 17.263C9.66364 17.5896 10.3365 17.5896 10.8717 17.263C11.1196 17.1117 11.3132 16.9116 11.4474 16.6786ZM15.8669 13.773C16.0423 13.9646 16.4181 14.3147 16.6667 14.5434V15.0119H3.33341V14.5438C3.58014 14.3177 3.95711 13.9679 4.13215 13.7774C5.24527 12.5663 5.83341 10.9317 5.83341 8.3335C5.83341 5.18341 7.77739 3.34381 10.0001 3.34381C12.2165 3.34381 14.1667 5.1929 14.1667 8.3335C14.1667 10.9233 14.7551 12.5585 15.8669 13.773Z" fill="#434343"/>
</g>
</svg>
