<svg width="18" height="18" viewBox="0 0 18 18" fill="none" xmlns="http://www.w3.org/2000/svg">
<path d="M9.00033 15.668H3.16699C2.94598 15.668 2.73402 15.5802 2.57774 15.4239C2.42146 15.2676 2.33366 15.0556 2.33366 14.8346V3.16797C2.33366 2.94696 2.42146 2.73499 2.57774 2.57871C2.73402 2.42243 2.94598 2.33464 3.16699 2.33464H7.33366V4.83464C7.33366 5.49768 7.59705 6.13356 8.06589 6.6024C8.53473 7.07124 9.17062 7.33464 9.83366 7.33464H12.3337V8.16797C12.3337 8.38898 12.4215 8.60094 12.5777 8.75723C12.734 8.9135 12.946 9.0013 13.167 9.0013C13.388 9.0013 13.6 8.9135 13.7562 8.75723C13.9125 8.60094 14.0003 8.38898 14.0003 8.16797V6.5013C14.0003 6.5013 14.0003 6.5013 14.0003 6.4513C13.9916 6.37475 13.9749 6.29933 13.9503 6.2263V6.1513C13.9103 6.06562 13.8568 5.98686 13.792 5.91797L8.79199 0.917969C8.72311 0.853149 8.64434 0.799703 8.55866 0.759635C8.53378 0.756102 8.50853 0.756102 8.48366 0.759635C8.399 0.711086 8.30551 0.679922 8.20866 0.667969H3.16699C2.50395 0.667969 1.86807 0.931361 1.39923 1.4002C0.930384 1.86904 0.666992 2.50493 0.666992 3.16797V14.8346C0.666992 15.4977 0.930384 16.1336 1.39923 16.6024C1.86807 17.0712 2.50395 17.3346 3.16699 17.3346H9.00033C9.22134 17.3346 9.4333 17.2468 9.58958 17.0906C9.74586 16.9343 9.83366 16.7223 9.83366 16.5013C9.83366 16.2803 9.74586 16.0683 9.58958 15.912C9.4333 15.7558 9.22134 15.668 9.00033 15.668ZM9.00033 3.50964L11.1587 5.66797H9.83366C9.61265 5.66797 9.40068 5.58017 9.2444 5.42389C9.08812 5.26761 9.00033 5.05565 9.00033 4.83464V3.50964ZM4.83366 5.66797C4.61265 5.66797 4.40068 5.75577 4.2444 5.91205C4.08812 6.06833 4.00033 6.28029 4.00033 6.5013C4.00033 6.72232 4.08812 6.93428 4.2444 7.09056C4.40068 7.24684 4.61265 7.33464 4.83366 7.33464H5.66699C5.88801 7.33464 6.09997 7.24684 6.25625 7.09056C6.41253 6.93428 6.50033 6.72232 6.50033 6.5013C6.50033 6.28029 6.41253 6.06833 6.25625 5.91205C6.09997 5.75577 5.88801 5.66797 5.66699 5.66797H4.83366ZM17.092 15.9096L16.117 14.943C16.4286 14.399 16.5534 13.7679 16.4721 13.1463C16.3908 12.5247 16.108 11.9468 15.667 11.5013C15.2612 11.081 14.7382 10.7927 14.1662 10.6739C13.5942 10.5551 12.9996 10.6114 12.46 10.8353C11.9204 11.0592 11.4608 11.4405 11.141 11.9294C10.8211 12.4183 10.656 12.9922 10.667 13.5763C10.6641 14.079 10.7927 14.5736 11.04 15.0113C11.2873 15.4489 11.6447 15.8143 12.0768 16.0711C12.5088 16.328 13.0006 16.4675 13.5032 16.4757C14.0057 16.4839 14.5018 16.3606 14.942 16.118L15.9087 17.093C15.9861 17.1711 16.0783 17.2331 16.1798 17.2754C16.2814 17.3177 16.3903 17.3395 16.5003 17.3395C16.6103 17.3395 16.7193 17.3177 16.8208 17.2754C16.9224 17.2331 17.0145 17.1711 17.092 17.093C17.1701 17.0155 17.2321 16.9233 17.2744 16.8218C17.3167 16.7202 17.3385 16.6113 17.3385 16.5013C17.3385 16.3913 17.3167 16.2824 17.2744 16.1808C17.2321 16.0793 17.1701 15.9871 17.092 15.9096ZM14.4503 14.4513C14.2123 14.6751 13.8979 14.7998 13.5712 14.7998C13.2444 14.7998 12.93 14.6751 12.692 14.4513C12.4626 14.2178 12.3339 13.9036 12.3337 13.5763C12.3319 13.4119 12.3635 13.2489 12.4266 13.0971C12.4896 12.9453 12.5827 12.8078 12.7003 12.693C12.9225 12.472 13.2204 12.3439 13.5337 12.3346C13.7021 12.3243 13.8709 12.3489 14.0295 12.4068C14.188 12.4648 14.3328 12.5549 14.4549 12.6715C14.577 12.7881 14.6736 12.9286 14.7388 13.0843C14.804 13.24 14.8363 13.4075 14.8337 13.5763C14.8268 13.9072 14.6889 14.2219 14.4503 14.4513ZM9.83366 9.0013H4.83366C4.61265 9.0013 4.40068 9.0891 4.2444 9.24538C4.08812 9.40166 4.00033 9.61362 4.00033 9.83464C4.00033 10.0556 4.08812 10.2676 4.2444 10.4239C4.40068 10.5802 4.61265 10.668 4.83366 10.668H9.83366C10.0547 10.668 10.2666 10.5802 10.4229 10.4239C10.5792 10.2676 10.667 10.0556 10.667 9.83464C10.667 9.61362 10.5792 9.40166 10.4229 9.24538C10.2666 9.0891 10.0547 9.0013 9.83366 9.0013ZM8.16699 14.0013C8.38801 14.0013 8.59997 13.9135 8.75625 13.7572C8.91253 13.6009 9.00033 13.389 9.00033 13.168C9.00033 12.947 8.91253 12.735 8.75625 12.5787C8.59997 12.4224 8.38801 12.3346 8.16699 12.3346H4.83366C4.61265 12.3346 4.40068 12.4224 4.2444 12.5787C4.08812 12.735 4.00033 12.947 4.00033 13.168C4.00033 13.389 4.08812 13.6009 4.2444 13.7572C4.40068 13.9135 4.61265 14.0013 4.83366 14.0013H8.16699Z" fill="#1A1A1A"/>
</svg>
