<svg width="18" height="18" viewBox="0 0 18 18" fill="none" xmlns="http://www.w3.org/2000/svg">
<path d="M16.3804 1.80039H9.72039V1.62039C9.72039 1.22277 9.39801 0.900391 9.00039 0.900391C8.60277 0.900391 8.28039 1.22277 8.28039 1.62039V1.80039H1.62039C1.22277 1.80039 0.900391 2.12277 0.900391 2.52039C0.900391 2.91801 1.22277 3.24039 1.62039 3.24039H1.80039V9.81039C1.80039 11.5472 3.2135 12.9604 4.95039 12.9604H6.49014L5.83436 16.2391C5.75631 16.629 6.00908 17.0084 6.39914 17.0864C6.44677 17.0958 6.49423 17.1005 6.54099 17.1005C6.87726 17.1005 7.17785 16.8638 7.24623 16.5216L7.95849 12.9604H10.0421L10.7544 16.5217C10.8228 16.864 11.1234 17.1006 11.4596 17.1006C11.5064 17.1006 11.5539 17.0959 11.6015 17.0865C11.9916 17.0086 12.2443 16.6292 12.1663 16.2392L11.5105 12.9604H13.0502C14.7871 12.9604 16.2002 11.5473 16.2002 9.81039V3.24039H16.3802C16.7779 3.24039 17.1002 2.91801 17.1002 2.52039C17.1002 2.12277 16.7779 1.80039 16.3802 1.80039H16.3804ZM14.7604 9.81039C14.7604 10.7533 13.9933 11.5204 13.0504 11.5204H4.95039C4.00751 11.5204 3.24039 10.7533 3.24039 9.81039V3.24039H14.7604V9.81039Z" fill="#B3B3B3"/>
<path d="M5.76004 6.48102H7.38004C7.77766 6.48102 8.10004 6.15864 8.10004 5.76102C8.10004 5.3634 7.77766 5.04102 7.38004 5.04102H5.76004C5.36242 5.04102 5.04004 5.3634 5.04004 5.76102C5.04004 6.15864 5.36242 6.48102 5.76004 6.48102Z" fill="#B3B3B3"/>
<path d="M5.76004 9.72125H9.82009C10.2177 9.72125 10.5401 9.39887 10.5401 9.00125C10.5401 8.60363 10.2177 8.28125 9.82009 8.28125H5.76004C5.36242 8.28125 5.04004 8.60363 5.04004 9.00125C5.04004 9.39887 5.36242 9.72125 5.76004 9.72125Z" fill="#B3B3B3"/>
</svg>
