<svg width="18" height="19" viewBox="0 0 18 19" fill="none" xmlns="http://www.w3.org/2000/svg">
<path d="M16.5003 7.33423C16.6098 7.33426 16.7181 7.31272 16.8193 7.27085C16.9204 7.22898 17.0123 7.1676 17.0896 7.09021C17.167 7.01282 17.2284 6.92095 17.2703 6.81983C17.3122 6.71871 17.3337 6.61034 17.3337 6.50089V4.00089C17.3337 3.82604 17.2787 3.6556 17.1765 3.51376C17.0742 3.37193 16.9299 3.26589 16.764 3.21069L9.264 0.710693C9.09283 0.653727 8.90782 0.653727 8.73665 0.710693L1.23665 3.21069C1.07074 3.26589 0.926416 3.37193 0.824164 3.51376C0.721912 3.6556 0.66692 3.82604 0.666992 4.00089V6.50089C0.666964 6.61034 0.688499 6.71871 0.730368 6.81983C0.772237 6.92095 0.833619 7.01282 0.911007 7.09021C0.988394 7.1676 1.08027 7.22898 1.18139 7.27085C1.28251 7.31272 1.39088 7.33426 1.50033 7.33423H2.33366V13.3211C1.84761 13.4923 1.42646 13.8098 1.12805 14.2299C0.829633 14.65 0.668578 15.1522 0.666992 15.6676V17.3342C0.666964 17.4437 0.688499 17.552 0.730368 17.6532C0.772237 17.7543 0.833619 17.8462 0.911007 17.9235C0.988394 18.0009 1.08027 18.0623 1.18139 18.1042C1.28251 18.1461 1.39088 18.1676 1.50033 18.1676H16.5003C16.6098 18.1676 16.7181 18.1461 16.8193 18.1042C16.9204 18.0623 17.0123 18.0009 17.0896 17.9235C17.167 17.8462 17.2284 17.7543 17.2703 17.6532C17.3122 17.552 17.3337 17.4437 17.3337 17.3342V15.6676C17.3321 15.1522 17.171 14.65 16.8726 14.2299C16.5742 13.8098 16.153 13.4923 15.667 13.3211V7.33423H16.5003ZM15.667 16.5009H2.33366V15.6676C2.33388 15.4466 2.42175 15.2348 2.57798 15.0785C2.73421 14.9223 2.94605 14.8344 3.16699 14.8342H14.8337C15.0546 14.8344 15.2664 14.9223 15.4227 15.0785C15.5789 15.2348 15.6668 15.4466 15.667 15.6676V16.5009ZM4.00033 13.1676V7.33423H5.66699V13.1676H4.00033ZM7.33366 13.1676V7.33423H10.667V13.1676H7.33366ZM12.3337 13.1676V7.33423H14.0003V13.1676H12.3337ZM2.33366 5.66756V4.60148L9.00033 2.37898L15.667 4.60148V5.66756H2.33366Z" fill="#B3B3B3"/>
</svg>
