<svg width="20" height="20" viewBox="0 0 20 20" fill="none" xmlns="http://www.w3.org/2000/svg">
<path fill-rule="evenodd" clip-rule="evenodd" d="M9.99992 0.833008C15.0625 0.833008 19.1666 4.93706 19.1666 9.99967C19.1666 15.0623 15.0625 19.1663 9.99992 19.1663C4.93731 19.1663 0.833252 15.0623 0.833252 9.99967C0.833252 4.93706 4.93731 0.833008 9.99992 0.833008ZM2.55463 9.08917C2.79758 9.40012 3.4731 9.79799 4.5068 10.1226C4.91382 10.2504 5.35958 10.3628 5.83788 10.4582C5.8348 10.3062 5.83325 10.1534 5.83325 9.99967C5.83325 7.22664 6.33789 4.72243 7.21204 3.03493C4.72002 4.03336 2.88848 6.3305 2.55463 9.08917ZM5.94087 12.1754C4.6027 11.9428 3.45529 11.5907 2.58572 11.1378C2.99023 13.7948 4.78889 15.9936 7.21205 16.9644C6.57381 15.7324 6.13256 14.0649 5.94087 12.1754ZM7.64901 12.3975C8.39659 12.4648 9.18399 12.4997 9.99992 12.4997C10.8027 12.4997 11.5936 12.4542 12.3543 12.3698C11.9784 15.3678 10.9391 17.4997 9.99992 17.4997C9.06364 17.4997 8.02781 15.3809 7.64901 12.3975ZM12.4885 10.6701C11.6972 10.7726 10.8566 10.833 9.99992 10.833C9.12973 10.833 8.29442 10.7899 7.51268 10.7082C7.50427 10.4751 7.49992 10.2388 7.49992 9.99967C7.49992 5.81967 8.82792 2.49967 9.99992 2.49967C11.1719 2.49967 12.4999 5.81967 12.4999 9.99967C12.4999 10.2258 12.496 10.4494 12.4885 10.6701ZM14.0659 12.1054C13.8781 14.0238 13.4339 15.7172 12.7878 16.9644C15.2537 15.9764 17.0729 13.7168 17.4342 10.9967C16.5508 11.4562 15.3872 11.8405 14.0659 12.1054ZM17.4403 9.04978C17.0482 9.48994 15.8113 10.0128 14.1634 10.3781C14.1655 10.2526 14.1666 10.1264 14.1666 9.99967C14.1666 7.22664 13.6619 4.72243 12.7878 3.03493C15.2679 4.0286 17.0939 6.30865 17.4403 9.04978Z" fill="#434343"/>
</svg>
