<svg width="232" height="37" viewBox="0 0 232 37" fill="none" xmlns="http://www.w3.org/2000/svg">
<path fill-rule="evenodd" clip-rule="evenodd" d="M91.8958 0.156157C91.0099 0.552397 90.8346 1.02015 90.8346 2.99105C90.8346 4.9497 90.8939 5.12945 91.7295 5.69708C92.3094 6.09203 95.2686 6.10363 95.9091 5.71318L96.322 5.46126L96.6262 5.81305C96.793 6.00634 97.6725 7.14223 98.579 8.33675L100.228 10.5087L98.3136 13.0768L96.3987 15.645L95.9606 15.3473C95.3163 14.9105 92.3609 14.8924 91.7186 15.3215C90.4158 16.1913 90.5086 20.0519 91.8507 20.8405C92.4821 21.2116 95.2925 21.2065 95.9239 20.8328L96.3517 20.5796L98.1454 22.8649C99.1325 24.1213 100.009 25.2617 100.094 25.3976C100.223 25.6044 97.4947 29.6983 96.5727 30.6808C96.3995 30.6197 96.2378 30.5297 96.0946 30.4147C95.5077 30.0159 95.1037 29.9528 93.473 30.005C91.2283 30.0765 90.8958 30.4759 90.8958 33.0827C90.8958 35.8461 91.1645 36.1109 93.9053 36.0574C96.2248 36.0123 96.6758 35.6979 96.8516 33.9957C96.9373 33.1652 96.9541 33.1388 101.727 26.567L102.458 25.56L102.516 26.4659C102.623 28.1359 103.092 28.4773 105.351 28.5276C107.949 28.5882 108.573 28.0882 108.584 25.9408V25.3055L111.363 21.7322L114.143 18.1583L114.207 19.1055C114.317 20.7342 114.838 21.0789 117.191 21.0789C119.504 21.0789 120.035 20.6988 120.173 18.9425L120.238 18.1049L121.071 19.233C121.529 19.8535 122.763 21.5177 123.814 22.9313L125.724 25.5014L125.819 26.3737C126.012 28.1359 126.432 28.4715 128.519 28.5315C131.14 28.6068 131.688 28.2686 131.876 26.4575L131.951 25.7397L134.73 29.4973L137.509 33.2548V33.9545C137.509 35.6135 138.163 36.0806 140.497 36.0806C143.178 36.0806 143.525 35.7095 143.464 32.9307C143.405 30.3593 143.134 30.1035 140.479 30.1055C139.022 30.1055 138.84 30.1312 138.389 30.3896L137.895 30.6724L136.027 28.1249L134.158 25.578L135.829 23.5086C136.748 22.3707 137.651 21.2613 137.835 21.0435L138.17 20.6479L138.58 20.8534C139.623 21.3779 142.326 21.1756 142.993 20.5242C144.064 19.4772 143.845 16.1237 142.654 15.3131C142.087 14.9266 139.116 14.906 138.496 15.2835C138.355 15.3768 138.206 15.4566 138.05 15.5219C137.978 15.5219 134.411 10.776 134.336 10.5789C135.355 8.97504 136.484 7.44316 137.713 5.99409L138.119 5.4909L138.506 5.72478C139.118 6.09847 142.093 6.07399 142.656 5.69128C143.453 5.14878 143.547 4.9046 143.593 3.25263C143.672 0.490545 143.287 0.0640229 140.664 0.00474798C138.122 -0.0525941 137.519 0.391324 137.511 2.33065L137.507 3.27067L135.344 6.02373C134.157 7.53589 132.895 9.14018 132.539 9.58925C132.297 9.87192 132.08 10.1757 131.892 10.4971C131.892 10.5467 133.154 12.2502 134.697 14.2823C135.725 15.537 136.663 16.8621 137.506 18.2479C137.506 18.427 136.562 19.6963 134.73 21.9732L131.951 25.4266L131.873 24.5832C131.888 24.2363 131.81 23.8916 131.645 23.5859C131.48 23.2803 131.235 23.0251 130.937 22.8475C130.31 22.4216 127.348 22.4403 126.708 22.8752L126.271 23.1716L124.364 20.6054L122.456 18.0392L124.389 15.5451L126.322 13.051L126.686 13.2727C127.282 13.6361 130.381 13.6006 130.946 13.2237C131.676 12.7366 131.783 12.3533 131.745 10.3888C131.693 7.78136 131.358 7.47404 128.614 7.54104C126.333 7.59645 125.795 8.03393 125.793 9.83859V10.805L122.985 14.4311L120.178 18.0578V17.3001C120.171 15.4723 119.606 15.0451 117.178 15.049C114.768 15.049 114.32 15.3518 114.204 17.0521L114.144 17.9328L111.363 14.464L108.584 10.9957V9.94297C108.584 7.89476 108.123 7.51914 105.608 7.51978C102.881 7.51978 102.609 7.78587 102.608 10.4494C102.608 12.4196 102.733 12.783 103.566 13.2237C104.833 13.573 106.167 13.6035 107.449 13.3126C107.712 13.2179 107.935 13.1399 107.945 13.1387C107.986 13.1348 111.811 17.9303 111.811 17.9863C111.811 18.0198 110.96 19.1686 109.92 20.5371L108.029 23.0266L107.682 22.7728C107.131 22.3707 103.925 22.3862 103.353 22.7979C103.072 23.0141 102.848 23.2946 102.699 23.6156C102.55 23.9367 102.481 24.2889 102.496 24.6425L102.429 25.4511L101.701 24.5233C101.301 24.013 100.051 22.4268 98.9224 20.9977C98.1847 20.114 97.4995 19.1876 96.8703 18.2234C96.8703 18.1261 98.1364 16.3472 99.684 14.2707L102.497 10.4945L101.319 8.97717C100.67 8.13959 99.4121 6.51533 98.5217 5.36075L96.9032 3.261L96.8465 2.31261C96.7337 0.408075 96.2943 0.0614459 93.9414 0.0202111" fill="#CCE4EC"/>
<path fill-rule="evenodd" clip-rule="evenodd" d="M4.2107 8.59279C2.00528 9.18747 0.492487 10.9715 0.492487 12.974C0.492487 14.8141 1.27853 15.6684 4.48195 17.3114C7.27109 18.7417 7.74272 19.3054 7.60226 21.036C7.35163 24.1202 2.6077 23.9173 1.01694 20.7538C0.0537207 18.8377 -0.101554 18.9189 0.0504993 21.2577C0.191599 23.4483 0.189027 23.4482 1.88545 23.9695C6.74213 25.47 10.9861 22.5939 9.87983 18.5523C9.59505 17.5117 8.33353 16.4171 6.01407 15.1923C3.48844 13.8586 2.97559 13.3142 2.97559 11.9624C2.97559 8.86984 7.06878 8.80541 8.49267 11.8793C9.34185 13.7123 9.62404 13.7059 9.47972 11.8581C9.41529 11.0501 9.36504 10.1668 9.36439 9.8949C9.36439 9.27831 8.44499 8.83632 6.56173 8.54188C5.09209 8.3138 5.2377 8.31059 4.20941 8.58764M12.7353 11.2498C12.7353 11.3832 13.0942 11.6293 13.5336 11.7969L14.3319 12.1016V15.6658C14.3319 22.7447 15.3125 24.2272 19.9972 24.2272C24.6438 24.2272 25.4911 23.034 25.5033 16.4673L25.511 12.2556L26.3989 11.8046C27.7699 11.1094 27.5496 11.0063 24.6979 11.0063C21.8463 11.0063 21.5035 11.1777 23.1735 11.7827L24.0916 12.1158L24.0884 16.3082C24.0826 22.1919 23.274 23.4598 19.8245 22.9831C17.257 22.63 16.92 21.8839 16.853 16.3926L16.7995 12.108L17.6068 11.7994C19.1789 11.1989 18.6867 11.007 15.5747 11.007C13.2952 11.007 12.736 11.0546 12.736 11.2492M29.9476 11.1848C29.9476 11.3001 30.3471 11.5623 30.8355 11.7691L31.7227 12.1441V23.0043L30.8355 23.3793C29.3272 24.0165 29.6757 24.1396 32.9616 24.1396C36.301 24.1396 36.7172 23.9791 35.0466 23.3342L34.1156 22.9747L34.0653 20.8234L34.0157 18.6715L35.5736 18.5561C38.0934 18.3699 39.5946 17.7578 40.3948 16.5897C41.6699 14.729 41.13 12.6763 39.0914 11.6332L38.0451 11.0978L33.9951 11.0366C30.9669 10.9908 29.9457 11.0276 29.9457 11.1848M43.6092 11.2428C43.6092 11.3974 43.9475 11.6403 44.4075 11.8168L45.2058 12.1216V23.0456L44.4075 23.3503C42.8193 23.9566 43.3354 24.1389 46.64 24.1389C49.9555 24.1389 50.3356 23.9895 48.6076 23.3626L47.6895 23.0301V18.6901L49.527 18.5046C52.5861 18.1947 54.2426 17.0987 54.5274 15.1955C54.6635 14.4364 54.5293 13.6536 54.148 12.9832C53.7667 12.3128 53.1626 11.7973 52.4405 11.5263C51.2305 10.9876 43.6086 10.7428 43.6086 11.2428M57.0943 11.2505C57.0943 11.3839 57.4531 11.63 57.8925 11.7975L58.6902 12.1022V23.0191L57.9473 23.3593C56.3656 24.0848 56.7057 24.1441 62.4902 24.1441H67.9171V21.8375C67.9171 18.9627 67.7193 18.8525 66.7219 21.172L66.0164 22.813L63.5952 22.8626L61.1739 22.9116V12.1068L62.0611 11.8117C63.8104 11.2318 63.2537 11.0134 60.0206 11.0134C57.6657 11.0134 57.093 11.0611 57.093 11.2556M70.0433 11.1874C70.0433 11.2834 70.3989 11.543 70.8344 11.7672C71.4787 12.0965 72.0167 12.6982 73.7627 15.0583L75.8992 17.946V22.9277L75.0159 23.3142C73.4438 24.0049 73.8027 24.1454 77.1421 24.1454C80.4595 24.1454 80.7321 24.0397 79.1826 23.3542L78.2064 22.9232L78.2116 20.4748L78.2174 18.0265L80.2978 15.0989C82.067 12.6093 82.4884 12.1196 83.1327 11.8297C84.5063 11.2073 84.1391 11.0173 81.5639 11.0173C79.0846 11.0173 78.7831 11.1564 79.9621 11.7556C80.7804 12.1718 80.7959 12.2066 80.3996 12.7498C80.2063 13.0171 79.5421 13.9778 78.928 14.8843C78.5843 15.4724 78.1607 16.0099 77.6691 16.4815C77.548 16.4364 74.7395 12.8213 74.4019 12.2756C74.3375 12.166 74.5862 11.9657 75.0043 11.7988C76.4797 11.2086 75.9611 11.0173 72.8839 11.0173C71.1444 11.0173 70.0452 11.0817 70.0452 11.1912M37.1296 12.5932C39.9142 13.8721 38.7003 17.1877 35.4138 17.2804L34.113 17.3171L34.0634 14.7883L34.0144 12.2601L35.2166 12.2633C35.8699 12.242 36.5206 12.3543 37.1289 12.5932M51.0192 12.7085C53.376 14.1008 52.0211 17.0936 48.915 17.3539L47.6863 17.457V12.2144L49.0696 12.2949C49.7415 12.2908 50.4064 12.4321 51.0186 12.7092" fill="black"/>
<path fill-rule="evenodd" clip-rule="evenodd" d="M150.564 8.58946C150.564 8.68868 151.004 8.98442 151.542 9.24858L152.52 9.72793L152.474 16.1219L152.428 22.5165L151.552 22.9598C149.842 23.8257 150.085 23.8856 155.024 23.8096C160.712 23.7226 162.215 23.2143 163.346 20.996C164.523 18.6888 162.444 15.524 159.738 15.506C159.619 15.506 159.907 15.2837 160.376 15.0137C163.415 13.2664 162.975 9.79494 159.579 8.74088C158.363 8.36268 150.559 8.23125 150.559 8.58883M158.281 10.1113C161.228 11.5732 159.813 15.1522 156.288 15.1522H154.995V9.60488L156.297 9.68799C156.977 9.71702 157.648 9.8601 158.281 10.1113ZM211.357 10.5623C206.289 11.2594 203.509 17.1921 206.332 21.2891C208.136 23.9082 212.111 24.7967 215.59 23.358C217.215 22.6866 217.276 22.5925 217.278 20.7711V19.1424L217.986 18.7377C219.14 18.0786 218.896 17.9884 215.944 17.9884C212.936 17.9884 212.608 18.1173 214.081 18.7319L214.968 19.1011V22.5867L214.303 22.7201C210.404 23.501 207.754 21.3465 207.553 17.234C207.295 11.9398 213.366 9.28917 215.882 13.5969C216.569 14.774 217.263 15.256 217.032 14.3958C216.95 13.8468 216.913 13.2919 216.923 12.7368V11.4772L216.257 11.1956C214.714 10.5364 213.018 10.3172 211.357 10.5623ZM166.174 10.8909C166.174 11.0049 166.573 11.2672 167.061 11.4707L167.949 11.8457V22.7059L167.061 23.0809C165.568 23.7117 165.901 23.8412 169.027 23.8412C172.106 23.8412 172.313 23.76 171.046 23.0493L170.344 22.6563L170.295 20.3208L170.244 17.9852H171.764L173.537 20.9064L175.312 23.827L177.219 23.8341C179.346 23.8418 179.543 23.7052 178.315 23.0815C177.261 22.5461 173.805 17.4981 174.28 17.1863C175.584 16.3281 175.999 15.9235 176.32 15.1961C176.993 13.6736 176.428 12.2046 174.825 11.3168L173.888 10.8013L170.029 10.742C167.166 10.6976 166.17 10.7363 166.17 10.8902M180.365 10.8761C180.365 10.9669 180.704 11.2278 181.119 11.4559L181.874 11.8721L181.92 17.2881L181.967 22.704L181.166 23.0906C179.85 23.7304 180.135 23.8392 183.115 23.8392C186.165 23.8392 186.508 23.6904 185.067 22.9901L184.269 22.6035V11.9546L185.067 11.568C186.508 10.8677 186.162 10.7182 183.115 10.7182C182.195 10.6595 181.271 10.7147 180.365 10.8825M188.882 10.9701C188.882 11.108 189.241 11.3567 189.68 11.5268L190.478 11.8316V22.7555L189.68 23.0603C189.241 23.2278 188.882 23.4739 188.882 23.6066C188.882 23.903 195.177 23.9584 196.668 23.6756C202.732 22.5262 204.301 14.0724 198.923 11.5326C197.216 10.7266 188.882 10.2595 188.882 10.9701M221.09 10.8935C221.031 10.9895 221.365 11.2504 221.833 11.4733L222.685 11.8779L222.732 17.2952L222.779 22.7124L221.889 23.0886C220.243 23.7845 220.642 23.8502 226.499 23.8502H232V21.8986C232 19.565 231.872 19.4858 230.984 21.2775L230.325 22.608H225.079V17.6399H228.54L228.897 18.3795C229.548 19.7325 229.693 19.4851 229.693 17.0336C229.693 14.582 229.564 14.3275 228.946 15.5994L228.559 16.3977H225.08V11.9617H229.866L230.404 13.0261C231.207 14.6188 231.468 14.4667 231.468 12.405V10.7189H226.333C223.15 10.7189 221.157 10.7833 221.089 10.8941M173.037 12.3115C175.446 13.7805 173.99 16.7043 170.827 16.7469L170.248 16.7546V11.9643H171.357C171.937 11.9191 172.518 12.0393 173.032 12.3109M196.52 12.2465C198.69 12.8908 199.835 14.8881 199.658 17.723C199.455 20.9696 197.646 22.6048 194.258 22.6048H192.96V11.9591H194.258C195.02 11.9651 195.78 12.0611 196.52 12.2452M159.523 17.0129C160.01 17.1957 160.422 17.536 160.693 17.9796C160.964 18.4233 161.078 18.9448 161.019 19.4613C161.019 21.4586 159.769 22.3722 156.788 22.5539L154.984 22.6634V16.5768H156.811C158.401 16.5768 158.755 16.6341 159.521 17.0162" fill="black"/>
</svg>
