<svg width="32" height="20" viewBox="0 0 32 20" fill="none" xmlns="http://www.w3.org/2000/svg">
<path fill-rule="evenodd" clip-rule="evenodd" d="M0.668358 0.084633C0.132395 0.299385 0.02637 0.552897 0.02637 1.62107C0.02637 2.68261 0.0622337 2.78003 0.567793 3.08767C0.918606 3.30172 2.70892 3.30801 3.09637 3.0964L3.34622 2.95986L3.53021 3.15052C3.63117 3.25528 4.16322 3.8709 4.71166 4.5183L5.70953 5.69542L4.55107 7.08729L3.3926 8.47916L3.12755 8.31783C2.73776 8.08108 0.94979 8.07131 0.561168 8.30387C-0.226991 8.77527 -0.170866 10.8676 0.64107 11.295C1.02307 11.4962 2.72333 11.4934 3.10533 11.2908L3.36415 11.1536L4.44934 12.3922C5.0465 13.0731 5.57661 13.6912 5.62807 13.7648C5.70602 13.8769 4.05565 16.0957 3.49786 16.6282C3.39306 16.5951 3.29527 16.5463 3.20863 16.484C2.85353 16.2678 2.60913 16.2336 1.62257 16.2619C0.264533 16.3007 0.0634007 16.5172 0.0634007 17.93C0.0634007 19.4277 0.22594 19.5712 1.88411 19.5422C3.28736 19.5178 3.56022 19.3474 3.66663 18.4248C3.71847 17.9747 3.72861 17.9604 6.61619 14.3986L7.05861 13.8528L7.09369 14.3438C7.15839 15.2489 7.44216 15.434 8.80877 15.4612C10.3804 15.494 10.7577 15.2231 10.7647 14.0592V13.7149L12.4459 11.7783L14.1275 9.84135L14.1664 10.3547C14.2327 11.2374 14.5484 11.4242 15.9716 11.4242C17.3713 11.4242 17.6925 11.2182 17.7759 10.2663L17.8149 9.81237L18.3189 10.4238C18.596 10.7601 19.3429 11.662 19.9786 12.4282L21.134 13.8211L21.1917 14.2939C21.3086 15.2489 21.5623 15.4308 22.8253 15.4633C24.4106 15.5042 24.7423 15.3208 24.8561 14.3393L24.9013 13.9503L26.5825 15.9867L28.264 18.0232V18.4024C28.264 19.3016 28.6597 19.5548 30.0715 19.5548C31.6934 19.5548 31.9035 19.3536 31.8665 17.8476C31.831 16.454 31.6673 16.3153 30.0606 16.3164C29.1793 16.3164 29.0693 16.3303 28.7965 16.4704L28.4975 16.6237L27.3671 15.243L26.2367 13.8626L27.2475 12.741C27.8033 12.1244 28.3498 11.523 28.4613 11.405L28.664 11.1906L28.9119 11.302C29.543 11.5863 31.1781 11.4766 31.5816 11.1236C32.2294 10.5561 32.0973 8.73861 31.3765 8.29933C31.0335 8.08981 29.2362 8.07864 28.8612 8.28327C28.776 8.33383 28.6857 8.37708 28.5915 8.41247C28.5474 8.41247 26.3899 5.84033 26.3443 5.73348C26.9611 4.86424 27.6438 4.034 28.3876 3.24864L28.6332 2.97593L28.867 3.10268C29.2373 3.30521 31.0374 3.29194 31.3777 3.08452C31.8599 2.79051 31.9168 2.65816 31.9448 1.76284C31.9924 0.265863 31.7597 0.0346988 30.1728 0.00257328C28.6351 -0.0285046 28.2699 0.212087 28.2652 1.26315L28.2625 1.77262L26.954 3.26471C26.236 4.08426 25.4727 4.95374 25.2572 5.19712C25.1105 5.35032 24.9794 5.51499 24.8654 5.68913C24.8654 5.71602 25.6291 6.63928 26.5626 7.74062C27.1844 8.42063 27.7523 9.13881 28.2621 9.88989C28.2621 9.98696 27.691 10.6749 26.5829 11.9089L24.9017 13.7806L24.8541 13.3235C24.8636 13.1354 24.8159 12.9486 24.7161 12.783C24.6164 12.6173 24.4684 12.479 24.2878 12.3828C23.9089 12.1519 22.1166 12.1621 21.7292 12.3978L21.4653 12.5584L20.3111 11.1676L19.1573 9.77675L20.3267 8.42504L21.4961 7.07332L21.7159 7.19344C22.0769 7.39039 23.9518 7.37118 24.2932 7.1669C24.7349 6.90292 24.8 6.69515 24.7766 5.63047C24.7454 4.2173 24.5427 4.05073 22.8826 4.08705C21.5023 4.11708 21.1772 4.35418 21.1761 5.33226V5.85605L19.4774 7.82129L17.7786 9.78688V9.37623C17.7747 8.38558 17.4329 8.15407 15.9638 8.15616C14.506 8.15616 14.2347 8.32028 14.1645 9.24179L14.1286 9.71913L12.4459 7.8391L10.7647 5.95941V5.38883C10.7647 4.27875 10.4856 4.07518 8.96429 4.07553C7.3143 4.07553 7.14981 4.21974 7.14942 5.66329C7.14942 6.73112 7.22504 6.92806 7.72866 7.1669C8.49534 7.35621 9.30237 7.37277 10.0779 7.21509C10.237 7.16376 10.3722 7.12151 10.3781 7.12081C10.403 7.11872 12.7168 9.71774 12.7168 9.74812C12.7168 9.76627 12.2023 10.3889 11.5728 11.1306L10.4291 12.4798L10.2186 12.3422C9.88537 12.1244 7.94577 12.1327 7.59964 12.3559C7.43007 12.473 7.29447 12.625 7.2043 12.799C7.11414 12.9731 7.07205 13.1639 7.0816 13.3556L7.04067 13.7938L6.60059 13.291C6.35853 13.0144 5.60195 12.1547 4.91943 11.3802C4.47309 10.9012 4.05855 10.3992 3.67794 9.87662C3.67794 9.82389 4.44388 8.85978 5.38016 7.73434L7.08199 5.68774L6.36906 4.86539C5.97693 4.41145 5.21567 3.53114 4.67697 2.90539L3.69782 1.76738L3.66351 1.25337C3.5953 0.221166 3.32946 0.0333021 1.90594 0.0109539" fill="#CCE4EC"/>
</svg>
