<svg width="20" height="20" viewBox="0 0 20 20" fill="none" xmlns="http://www.w3.org/2000/svg">
<path d="M10.0001 1.66699C8.38385 1.67006 6.80336 2.14308 5.45115 3.02844C4.09893 3.9138 3.03337 5.17328 2.38424 6.65347C1.73511 8.13366 1.53044 9.77067 1.79514 11.3651C2.05985 12.9596 2.78252 14.4426 3.87512 15.6337C4.65547 16.4795 5.60257 17.1546 6.65674 17.6163C7.7109 18.0781 8.84927 18.3164 10.0001 18.3164C11.151 18.3164 12.2893 18.0781 13.3435 17.6163C14.3977 17.1546 15.3448 16.4795 16.1251 15.6337C17.2177 14.4426 17.9404 12.9596 18.2051 11.3651C18.4698 9.77067 18.2651 8.13366 17.616 6.65347C16.9669 5.17328 15.9013 3.9138 14.5491 3.02844C13.1969 2.14308 11.6164 1.67006 10.0001 1.66699ZM10.0001 16.667C8.27384 16.6644 6.61588 15.9922 5.37512 14.792C5.75183 13.8749 6.39265 13.0906 7.21617 12.5386C8.03968 11.9866 9.00871 11.6918 10.0001 11.6918C10.9915 11.6918 11.9606 11.9866 12.7841 12.5386C13.6076 13.0906 14.2484 13.8749 14.6251 14.792C13.3844 15.9922 11.7264 16.6644 10.0001 16.667ZM8.33346 8.33366C8.33346 8.00402 8.4312 7.68179 8.61434 7.40771C8.79748 7.13363 9.05777 6.92001 9.36232 6.79386C9.66686 6.66771 10.002 6.63471 10.3253 6.69902C10.6486 6.76333 10.9455 6.92206 11.1786 7.15515C11.4117 7.38824 11.5705 7.68521 11.6348 8.00851C11.6991 8.33181 11.6661 8.66692 11.5399 8.97146C11.4138 9.27601 11.2002 9.53631 10.9261 9.71944C10.652 9.90258 10.3298 10.0003 10.0001 10.0003C9.55809 10.0003 9.13417 9.82473 8.82161 9.51217C8.50905 9.19961 8.33346 8.77569 8.33346 8.33366ZM15.7585 13.3337C15.0139 12.0601 13.868 11.0695 12.5001 10.517C12.9244 10.0359 13.2009 9.44254 13.2963 8.80819C13.3918 8.17384 13.3022 7.52542 13.0382 6.94074C12.7743 6.35606 12.3473 5.85996 11.8084 5.51196C11.2695 5.16397 10.6416 4.97887 10.0001 4.97887C9.35863 4.97887 8.73076 5.16397 8.19187 5.51196C7.65297 5.85996 7.22593 6.35606 6.962 6.94074C6.69806 7.52542 6.60844 8.17384 6.7039 8.80819C6.79935 9.44254 7.07582 10.0359 7.50012 10.517C6.13229 11.0695 4.98635 12.0601 4.24179 13.3337C3.64841 12.3229 3.33489 11.1724 3.33346 10.0003C3.33346 8.23222 4.03583 6.53652 5.28608 5.28628C6.53632 4.03604 8.23201 3.33366 10.0001 3.33366C11.7682 3.33366 13.4639 4.03604 14.7142 5.28628C15.9644 6.53652 16.6668 8.23222 16.6668 10.0003C16.6654 11.1724 16.3518 12.3229 15.7585 13.3337Z" fill="#08979C"/>
</svg>
