<svg width="16" height="18" viewBox="0 0 16 18" fill="none" xmlns="http://www.w3.org/2000/svg">
<path d="M15.0586 5.14073C15.0586 5.14073 15.0586 5.14073 15.0586 5.07406L15.0086 4.94906C14.9912 4.92254 14.9717 4.89746 14.9503 4.87406C14.928 4.83879 14.9029 4.80535 14.8753 4.77406L14.8003 4.71573L14.667 4.64907L8.41695 0.790731C8.28451 0.707954 8.13147 0.664063 7.97528 0.664062C7.8191 0.664062 7.66606 0.707954 7.53362 0.790731L1.33362 4.64907L1.25862 4.71573L1.18362 4.77406C1.15599 4.80535 1.13091 4.83879 1.10862 4.87406C1.08719 4.89746 1.06769 4.92254 1.05028 4.94906L1.00028 5.07406C1.00028 5.07406 1.00028 5.07406 1.00028 5.14073C0.992093 5.21272 0.992093 5.28541 1.00028 5.3574V12.6407C1 12.7824 1.03581 12.9217 1.10434 13.0456C1.17287 13.1696 1.27186 13.274 1.39195 13.3491L7.64195 17.2074C7.68042 17.2312 7.72271 17.2481 7.76695 17.2574C7.76695 17.2574 7.80862 17.2574 7.83362 17.2574C7.9746 17.3021 8.12597 17.3021 8.26695 17.2574C8.26695 17.2574 8.30862 17.2574 8.33362 17.2574C8.37786 17.2481 8.42015 17.2312 8.45862 17.2074L14.667 13.3491C14.787 13.274 14.886 13.1696 14.9546 13.0456C15.0231 12.9217 15.0589 12.7824 15.0586 12.6407V5.3574C15.0668 5.28541 15.0668 5.21272 15.0586 5.14073ZM7.16695 15.0074L2.58362 12.1741V6.8574L7.16695 9.6824V15.0074ZM8.00028 8.24073L3.33362 5.3574L8.00028 2.4824L12.667 5.3574L8.00028 8.24073ZM13.417 12.1741L8.83362 15.0074V9.6824L13.417 6.8574V12.1741Z" fill="#1A1A1A"/>
</svg>
