<svg width="18" height="18" viewBox="0 0 18 18" fill="none" xmlns="http://www.w3.org/2000/svg">
<path d="M8.99935 0.667969C7.35118 0.667969 5.74001 1.15671 4.3696 2.07239C2.99919 2.98807 1.93109 4.28956 1.30036 5.81227C0.669626 7.33499 0.504599 9.01055 0.826142 10.6271C1.14769 12.2436 1.94136 13.7284 3.1068 14.8939C4.27223 16.0593 5.75709 16.853 7.3736 17.1745C8.99011 17.4961 10.6657 17.331 12.1884 16.7003C13.7111 16.0696 15.0126 15.0015 15.9283 13.6311C16.8439 12.2606 17.3327 10.6495 17.3327 9.0013C17.3327 7.90695 17.1171 6.82332 16.6984 5.81227C16.2796 4.80123 15.6657 3.88257 14.8919 3.10875C14.1181 2.33492 13.1994 1.7211 12.1884 1.30231C11.1773 0.883517 10.0937 0.667969 8.99935 0.667969ZM9.83269 15.6096V14.8346C9.83269 14.6136 9.74489 14.4017 9.58861 14.2454C9.43233 14.0891 9.22037 14.0013 8.99935 14.0013C8.77834 14.0013 8.56638 14.0891 8.4101 14.2454C8.25382 14.4017 8.16602 14.6136 8.16602 14.8346V15.6096C6.69934 15.4236 5.33608 14.7554 4.29067 13.71C3.24527 12.6646 2.57701 11.3013 2.39102 9.83464H3.16602C3.38703 9.83464 3.59899 9.74684 3.75528 9.59056C3.91156 9.43428 3.99935 9.22232 3.99935 9.0013C3.99935 8.78029 3.91156 8.56833 3.75528 8.41205C3.59899 8.25577 3.38703 8.16797 3.16602 8.16797H2.39102C2.57701 6.70128 3.24527 5.33803 4.29067 4.29262C5.33608 3.24722 6.69934 2.57896 8.16602 2.39297V3.16797C8.16602 3.38898 8.25382 3.60094 8.4101 3.75722C8.56638 3.9135 8.77834 4.0013 8.99935 4.0013C9.22037 4.0013 9.43233 3.9135 9.58861 3.75722C9.74489 3.60094 9.83269 3.38898 9.83269 3.16797V2.39297C11.2994 2.57896 12.6626 3.24722 13.708 4.29262C14.7534 5.33803 15.4217 6.70128 15.6077 8.16797H14.8327C14.6117 8.16797 14.3997 8.25577 14.2434 8.41205C14.0872 8.56833 13.9994 8.78029 13.9994 9.0013C13.9994 9.22232 14.0872 9.43428 14.2434 9.59056C14.3997 9.74684 14.6117 9.83464 14.8327 9.83464H15.6077C15.4217 11.3013 14.7534 12.6646 13.708 13.71C12.6626 14.7554 11.2994 15.4236 9.83269 15.6096ZM11.616 5.29297L7.44935 7.05964C7.25511 7.1438 7.10018 7.29873 7.01602 7.49297L5.24935 11.6596C5.18372 11.8124 5.16532 11.9814 5.1965 12.1448C5.22769 12.3081 5.30704 12.4584 5.42435 12.5763C5.57821 12.7333 5.78788 12.8232 6.00769 12.8263C6.12299 12.8264 6.23687 12.8008 6.34102 12.7513L10.5077 10.9846C10.7019 10.9005 10.8569 10.7455 10.941 10.5513L12.7077 6.38464C12.7721 6.23193 12.7895 6.0635 12.7577 5.90085C12.7259 5.73821 12.6463 5.58874 12.5291 5.47156C12.4119 5.35437 12.2624 5.27479 12.0998 5.24297C11.9372 5.21116 11.7687 5.22857 11.616 5.29297ZM9.54102 9.54297L7.64102 10.3763L8.47435 8.4763L10.3744 7.64297L9.54102 9.54297Z" fill="#1A1A1A"/>
</svg>
