<svg width="20" height="18" viewBox="0 0 20 18" fill="none" xmlns="http://www.w3.org/2000/svg">
<path d="M18.334 12.3346H16.5173C16.6143 12.0674 16.6651 11.7856 16.6673 11.5013V7.33464C16.6673 6.67159 16.4039 6.03571 15.9351 5.56687C15.4662 5.09803 14.8304 4.83464 14.1673 4.83464H9.16732C8.50428 4.83464 7.86839 5.09803 7.39955 5.56687C6.93071 6.03571 6.66732 6.67159 6.66732 7.33464V11.5013C6.66957 11.7856 6.7203 12.0674 6.81732 12.3346H5.83398C5.61297 12.3346 5.40101 12.2468 5.24473 12.0906C5.08845 11.9343 5.00065 11.7223 5.00065 11.5013V3.16797C5.00065 2.50493 4.73726 1.86904 4.26842 1.4002C3.79958 0.931361 3.16369 0.667969 2.50065 0.667969H1.66732C1.4463 0.667969 1.23434 0.755766 1.07806 0.912046C0.921782 1.06833 0.833984 1.28029 0.833984 1.5013C0.833984 1.72232 0.921782 1.93428 1.07806 2.09056C1.23434 2.24684 1.4463 2.33464 1.66732 2.33464H2.50065C2.72167 2.33464 2.93363 2.42243 3.08991 2.57871C3.24619 2.73499 3.33398 2.94696 3.33398 3.16797V11.5013C3.33706 12.0487 3.51972 12.58 3.85392 13.0135C4.18812 13.4471 4.65539 13.759 5.18398 13.9013C5.03051 14.2768 4.9707 14.6839 5.00971 15.0876C5.04871 15.4914 5.18537 15.8796 5.40788 16.2187C5.63039 16.5578 5.93207 16.8377 6.2869 17.0342C6.64173 17.2307 7.03904 17.338 7.44456 17.3467C7.85008 17.3553 8.25162 17.2652 8.61454 17.0841C8.97746 16.903 9.29086 16.6363 9.52769 16.307C9.76453 15.9777 9.91768 15.5957 9.97395 15.194C10.0302 14.7923 9.9879 14.383 9.85065 14.0013H12.6507C12.5136 14.3789 12.4696 14.784 12.5223 15.1822C12.575 15.5805 12.7229 15.9601 12.9534 16.2891C13.184 16.6181 13.4904 16.8866 13.8468 17.072C14.2031 17.2574 14.5989 17.3542 15.0007 17.3542C15.4024 17.3542 15.7982 17.2574 16.1545 17.072C16.5109 16.8866 16.8173 16.6181 17.0479 16.2891C17.2784 15.9601 17.4263 15.5805 17.479 15.1822C17.5317 14.784 17.4877 14.3789 17.3507 14.0013H18.334C18.555 14.0013 18.767 13.9135 18.9232 13.7572C19.0795 13.6009 19.1673 13.389 19.1673 13.168C19.1673 12.947 19.0795 12.735 18.9232 12.5787C18.767 12.4224 18.555 12.3346 18.334 12.3346ZM7.50065 15.668C7.33583 15.668 7.17472 15.6191 7.03768 15.5275C6.90064 15.436 6.79383 15.3058 6.73075 15.1535C6.66768 15.0013 6.65118 14.8337 6.68333 14.6721C6.71549 14.5104 6.79485 14.3619 6.9114 14.2454C7.02794 14.1288 7.17643 14.0495 7.33808 14.0173C7.49973 13.9852 7.66728 14.0017 7.81955 14.0647C7.97183 14.1278 8.10198 14.2346 8.19354 14.3717C8.28511 14.5087 8.33399 14.6698 8.33399 14.8346C8.33399 15.0556 8.24619 15.2676 8.08991 15.4239C7.93363 15.5802 7.72167 15.668 7.50065 15.668ZM9.16732 12.3346C8.94631 12.3346 8.73434 12.2468 8.57806 12.0906C8.42178 11.9343 8.33399 11.7223 8.33399 11.5013V7.33464C8.33399 7.11362 8.42178 6.90166 8.57806 6.74538C8.73434 6.5891 8.94631 6.5013 9.16732 6.5013H14.1673C14.3883 6.5013 14.6003 6.5891 14.7566 6.74538C14.9129 6.90166 15.0007 7.11362 15.0007 7.33464V11.5013C15.0007 11.7223 14.9129 11.9343 14.7566 12.0906C14.6003 12.2468 14.3883 12.3346 14.1673 12.3346H9.16732ZM15.0007 15.668C14.8358 15.668 14.6747 15.6191 14.5377 15.5275C14.4006 15.436 14.2938 15.3058 14.2308 15.1535C14.1677 15.0013 14.1512 14.8337 14.1833 14.6721C14.2155 14.5104 14.2949 14.3619 14.4114 14.2454C14.5279 14.1288 14.6764 14.0495 14.8381 14.0173C14.9997 13.9852 15.1673 14.0017 15.3196 14.0647C15.4718 14.1278 15.602 14.2346 15.6935 14.3717C15.7851 14.5087 15.834 14.6698 15.834 14.8346C15.834 15.0556 15.7462 15.2676 15.5899 15.4239C15.4336 15.5802 15.2217 15.668 15.0007 15.668Z" fill="#1A1A1A"/>
</svg>
