<svg width="18" height="16" viewBox="0 0 18 16" fill="none" xmlns="http://www.w3.org/2000/svg">
<path d="M17.3332 6.05772C17.2806 5.90529 17.1849 5.77141 17.0577 5.67231C16.9305 5.5732 16.7772 5.51313 16.6166 5.49939L11.8749 4.80772L9.7499 0.499389C9.68166 0.358496 9.57512 0.239674 9.44247 0.156533C9.30983 0.0733927 9.15645 0.0292969 8.9999 0.0292969C8.84335 0.0292969 8.68997 0.0733927 8.55733 0.156533C8.42468 0.239674 8.31814 0.358496 8.2499 0.499389L6.1249 4.79939L1.38323 5.49939C1.229 5.52131 1.084 5.58602 0.964692 5.68619C0.84538 5.78635 0.756533 5.91795 0.708233 6.06606C0.664021 6.21078 0.660053 6.36482 0.696756 6.51163C0.733459 6.65845 0.809448 6.79249 0.916567 6.89939L4.35823 10.2327L3.5249 14.9661C3.49126 15.1231 3.50369 15.2865 3.56072 15.4366C3.61775 15.5867 3.71693 15.7171 3.84634 15.8122C3.97575 15.9073 4.12988 15.963 4.29017 15.9725C4.45047 15.9821 4.61012 15.9451 4.7499 15.8661L8.9999 13.6411L13.2499 15.8661C13.3669 15.932 13.499 15.9665 13.6332 15.9661C13.8098 15.9667 13.9819 15.9112 14.1249 15.8077C14.2542 15.7151 14.3543 15.5874 14.4133 15.4398C14.4724 15.2921 14.488 15.1306 14.4582 14.9744L13.6249 10.2411L17.0666 6.90772C17.1869 6.80579 17.2758 6.67181 17.323 6.52135C17.3702 6.37088 17.3738 6.21012 17.3332 6.05772ZM8.16657 12.1661L5.4749 13.5827L6.0749 10.0827C6.09677 9.95006 6.08621 9.81408 6.04412 9.68638C6.00204 9.55868 5.92969 9.44306 5.83323 9.34939L3.33323 6.84939L6.84157 6.34106C6.97657 6.32228 7.1049 6.27067 7.21532 6.19077C7.32573 6.11086 7.41487 6.00509 7.4749 5.88272L8.16657 4.44106V12.1661ZM12.1666 9.34939C12.0701 9.44306 11.9978 9.55868 11.9557 9.68638C11.9136 9.81408 11.903 9.95006 11.9249 10.0827L12.5249 13.5827L9.83323 12.1661V4.44106L10.5666 5.93272C10.6266 6.05509 10.7157 6.16086 10.8262 6.24077C10.9366 6.32067 11.0649 6.37228 11.1999 6.39106L14.7082 6.89939L12.1666 9.34939Z" fill="#1A1A1A"/>
</svg>
