<svg width="20" height="21" viewBox="0 0 20 21" fill="none" xmlns="http://www.w3.org/2000/svg">
<path d="M5.82646 12.1657C5.71702 12.1657 5.60864 12.1872 5.50752 12.2291C5.40641 12.2709 5.31453 12.3323 5.23714 12.4097C5.15975 12.4871 5.09837 12.579 5.0565 12.6801C5.01463 12.7812 4.9931 12.8896 4.99313 12.999V14.4843C3.919 13.2695 3.32621 11.7039 3.32646 10.0824C3.32631 9.83729 3.34098 9.59243 3.3704 9.34913C3.38389 9.24033 3.37578 9.12994 3.34653 9.02428C3.31728 8.91862 3.26747 8.81977 3.19995 8.7334C3.13243 8.64703 3.04853 8.57483 2.95305 8.52094C2.85758 8.46705 2.75241 8.43253 2.64357 8.41936C2.53473 8.40619 2.42436 8.41463 2.31879 8.44419C2.21321 8.47375 2.11451 8.52386 2.02834 8.59163C1.94216 8.65941 1.87021 8.74352 1.81661 8.83916C1.763 8.93479 1.72879 9.04006 1.71594 9.14894C1.6782 9.45865 1.65945 9.77037 1.65979 10.0824C1.66093 12.0708 2.37559 13.9929 3.67385 15.499H2.49313C2.27211 15.499 2.06015 15.5868 1.90387 15.7431C1.74759 15.8994 1.65979 16.1114 1.65979 16.3324C1.65979 16.5534 1.74759 16.7653 1.90387 16.9216C2.06015 17.0779 2.27211 17.1657 2.49313 17.1657H5.82646C5.95679 17.1641 6.08485 17.1313 6.19996 17.0702C6.31507 17.009 6.41391 16.9213 6.48824 16.8142C6.49795 16.8014 6.51036 16.7919 6.51941 16.7784C6.52496 16.7701 6.52511 16.7602 6.53029 16.7518C6.57001 16.6847 6.59977 16.6122 6.61863 16.5366C6.63096 16.4941 6.63973 16.4506 6.64482 16.4067C6.64721 16.3809 6.65982 16.3587 6.65982 16.3324V12.9991C6.65985 12.8896 6.63832 12.7812 6.59645 12.6801C6.55458 12.579 6.4932 12.4871 6.41581 12.4097C6.33841 12.3323 6.24653 12.2709 6.14541 12.2291C6.04429 12.1872 5.93591 12.1657 5.82646 12.1657V12.1657ZM7.07646 5.08237H5.59107C6.8059 4.00829 8.37157 3.41551 9.99313 3.4157C10.2381 3.41511 10.4828 3.42979 10.726 3.45965C10.8346 3.47285 10.9449 3.46451 11.0503 3.43511C11.1558 3.40571 11.2544 3.35583 11.3406 3.28831C11.4268 3.22079 11.4988 3.13695 11.5526 3.04159C11.6064 2.94623 11.6409 2.8412 11.6541 2.73252C11.6673 2.62383 11.659 2.51361 11.6296 2.40814C11.6002 2.30268 11.5503 2.20404 11.4828 2.11785C11.4152 2.03167 11.3314 1.95962 11.236 1.90584C11.1407 1.85205 11.0356 1.81757 10.927 1.80438C10.6171 1.76699 10.3052 1.74851 9.99313 1.74903C8.00468 1.75012 6.08264 2.46473 4.57646 3.76294V2.58237C4.57646 2.36135 4.48866 2.14939 4.33238 1.99311C4.1761 1.83683 3.96414 1.74903 3.74313 1.74903C3.52211 1.74903 3.31015 1.83683 3.15387 1.99311C2.99759 2.14939 2.90979 2.36135 2.90979 2.58237V5.9157C2.91504 5.97078 2.92601 6.02516 2.94255 6.07796L2.94275 6.07898C2.96299 6.18152 3.00294 6.27916 3.06039 6.36648L3.06991 6.38056C3.12497 6.46065 3.19399 6.53018 3.27366 6.58584C3.28277 6.59251 3.28729 6.60273 3.29675 6.60908C3.30866 6.61697 3.32214 6.61947 3.33429 6.62668C3.38155 6.65512 3.43163 6.67857 3.48373 6.69668C3.55413 6.72118 3.62754 6.73599 3.70193 6.74073C3.71637 6.74149 3.72853 6.74906 3.74313 6.74906H7.07646C7.29748 6.74906 7.50944 6.66126 7.66572 6.50498C7.822 6.3487 7.90979 6.13674 7.90979 5.91573C7.90979 5.69471 7.822 5.48275 7.66572 5.32647C7.50944 5.17019 7.29748 5.08239 7.07646 5.08239V5.08237ZM17.0435 14.0858C17.0233 13.9832 16.9833 13.8855 16.9258 13.7982L16.9164 13.7842C16.8613 13.7041 16.7922 13.6345 16.7125 13.5788C16.7034 13.5722 16.6989 13.5619 16.6895 13.5556C16.6805 13.5497 16.6698 13.5495 16.6607 13.5439C16.555 13.4851 16.4391 13.4468 16.3192 13.431C16.2929 13.4285 16.2701 13.4157 16.2431 13.4157H12.9098C12.6888 13.4157 12.4768 13.5035 12.3205 13.6597C12.1643 13.816 12.0765 14.028 12.0765 14.249C12.0765 14.47 12.1643 14.682 12.3205 14.8382C12.4768 14.9945 12.6888 15.0823 12.9098 15.0823H14.3951C13.1803 16.1564 11.6147 16.7492 9.99313 16.749C9.74816 16.7493 9.50341 16.7344 9.26029 16.7042C9.04079 16.6776 8.81969 16.7392 8.64563 16.8756C8.47157 17.0119 8.35881 17.2119 8.33215 17.4314C8.3055 17.6509 8.36713 17.872 8.5035 18.046C8.63986 18.2201 8.83978 18.3329 9.05929 18.3595C9.36916 18.3969 9.681 18.4156 9.99313 18.4157C11.9816 18.4146 13.9036 17.7 15.4098 16.4018V17.5824C15.4098 17.8034 15.4976 18.0153 15.6539 18.1716C15.8102 18.3279 16.0221 18.4157 16.2431 18.4157C16.4641 18.4157 16.6761 18.3279 16.8324 18.1716C16.9887 18.0153 17.0765 17.8034 17.0765 17.5824V14.249C17.0712 14.194 17.0602 14.1396 17.0437 14.0868L17.0435 14.0858ZM17.4931 4.6657C17.7141 4.6657 17.9261 4.5779 18.0824 4.42162C18.2387 4.26534 18.3265 4.05338 18.3265 3.83237C18.3265 3.61135 18.2387 3.39939 18.0824 3.24311C17.9261 3.08683 17.7141 2.99903 17.4931 2.99903H14.1598C14.1055 3.00426 14.052 3.01507 13.9999 3.03128L13.9944 3.0324C13.8932 3.05265 13.7968 3.09212 13.7105 3.14868L13.6941 3.15971C13.6144 3.21469 13.5452 3.28349 13.4897 3.36286C13.4832 3.37186 13.4731 3.37628 13.4668 3.38559C13.4609 3.39454 13.4607 3.40513 13.4551 3.41423C13.3956 3.52055 13.3571 3.63728 13.3415 3.75811C13.3391 3.78385 13.3265 3.80603 13.3265 3.83237V7.1657C13.3265 7.38671 13.4143 7.59868 13.5705 7.75496C13.7268 7.91124 13.9388 7.99903 14.1598 7.99903C14.3808 7.99903 14.5928 7.91124 14.749 7.75496C14.9053 7.59868 14.9931 7.38671 14.9931 7.1657V5.67997C16.0672 6.89494 16.6599 8.46068 16.6598 10.0823C16.66 10.3274 16.6453 10.5723 16.6158 10.8156C16.5894 11.0349 16.6511 11.2558 16.7874 11.4297C16.9236 11.6036 17.1233 11.7164 17.3426 11.7433C17.3763 11.7472 17.4103 11.7491 17.4443 11.749C17.6478 11.7487 17.8441 11.674 17.9963 11.5389C18.1485 11.4039 18.2459 11.2178 18.2703 11.0158C18.3081 10.7061 18.3268 10.3944 18.3265 10.0824C18.3253 8.09388 17.6106 6.17184 16.3123 4.6657H17.4931Z" fill="#1F1F1F"/>
</svg>
