<svg width="20" height="14" viewBox="0 0 20 14" fill="none" xmlns="http://www.w3.org/2000/svg">
<g clip-path="url(#clip0_898_3010)">
<path d="M18.3981 0.158203C18.0091 0.158203 17.7116 0.478569 17.7116 0.844702V1.3939L15.5605 4.1399L17.7116 6.97743V7.18338L15.5605 9.86072L17.7116 12.7669V13.1559C17.7116 13.5449 18.0319 13.8424 18.3981 13.8424H19.2905C19.6795 13.8424 19.977 13.5221 19.977 13.1559V12.2635C19.977 11.8745 19.6567 11.577 19.2905 11.577H18.3981C18.1692 11.577 17.9862 11.6914 17.8718 11.8287L16.4301 9.86072L17.9633 7.96141C18.0777 8.07583 18.2379 8.14448 18.421 8.14448H19.3134C19.7024 8.14448 19.9999 7.82411 19.9999 7.45798V6.54265C19.9999 6.15363 19.6795 5.85615 19.3134 5.85615H18.421C18.215 5.85615 18.0319 5.94768 17.9175 6.08498L16.453 4.1399L17.9404 2.2177C18.0548 2.33212 18.2379 2.42365 18.421 2.42365H19.3134C19.7024 2.42365 19.9999 2.10328 19.9999 1.73715V0.844702C19.9999 0.455686 19.6795 0.158203 19.3134 0.158203H18.3981Z" fill="#1A1A1A"/>
<path d="M13.4786 5.07903C13.593 5.21633 13.7761 5.28498 13.9592 5.28498H14.8516C15.2406 5.28498 15.5381 4.96461 15.5381 4.59848V3.70603C15.5381 3.31701 15.2178 3.01953 14.8516 3.01953H13.9592C13.5702 3.01953 13.2727 3.3399 13.2727 3.70603V4.25523L11.1445 7.00123L13.2956 9.90741V10.2964C13.2956 10.6854 13.6159 10.9829 13.9821 10.9829H14.8745C15.2635 10.9829 15.561 10.6626 15.561 10.2964V9.40397C15.561 9.01496 15.2406 8.71747 14.8745 8.71747H13.9821C13.7532 8.71747 13.5702 8.80901 13.4557 8.96919L11.9912 7.00123L13.4786 5.07903Z" fill="#1A1A1A"/>
<path d="M5.12595 10.9824H6.0184C6.40742 10.9824 6.7049 10.662 6.7049 10.2959V9.79243L8.85593 7.02356V7.45834C8.85593 7.84735 9.1763 8.14484 9.54243 8.14484H10.4349C10.8239 8.14484 11.1214 7.82447 11.1214 7.45834V6.54301C11.1214 6.15399 10.801 5.85651 10.4349 5.85651H9.54243C9.15341 5.85651 8.85593 6.17687 8.85593 6.54301V6.97779L6.72778 4.32333V3.68259C6.72778 3.29358 6.40742 2.99609 6.04128 2.99609H5.14884C4.75982 2.99609 4.46234 3.31646 4.46234 3.68259V4.57504C4.46234 4.96406 4.7827 5.26154 5.14884 5.26154H6.04128C6.20147 5.26154 6.36165 5.19289 6.47607 5.10136L7.98636 6.97779L6.52183 8.89999C6.40742 8.76269 6.22435 8.69404 6.0184 8.69404H5.12595C4.73694 8.69404 4.43945 9.0144 4.43945 9.38054V10.273C4.43945 10.6849 4.73694 10.9824 5.12595 10.9824Z" fill="#1A1A1A"/>
<path d="M0.686499 13.8424H1.57895C1.96796 13.8424 2.26545 13.5221 2.26545 13.1559V12.8127L4.41648 9.83784L2.26545 7.11473V7.02319L4.41648 4.1399L2.26545 1.34814V0.844702C2.26545 0.455686 1.94508 0.158203 1.57895 0.158203H0.686499C0.297483 0.158203 0 0.478569 0 0.844702V1.73715C0 2.12617 0.320366 2.42365 0.686499 2.42365H1.57895C1.7849 2.42365 1.96796 2.33212 2.08238 2.19482L3.56979 4.1399L2.10526 6.10786C1.99085 5.97056 1.80778 5.85615 1.60183 5.85615H0.709382C0.320366 5.85615 0.0228834 6.17651 0.0228834 6.54265V7.45798C0.0228834 7.84699 0.34325 8.14448 0.709382 8.14448H1.60183C1.7849 8.14448 1.96796 8.07583 2.08238 7.93853L3.59268 9.86072L2.15103 11.8516C2.03661 11.6685 1.83066 11.5541 1.60183 11.5541H0.709382C0.320366 11.5541 0.0228834 11.8745 0.0228834 12.2406V13.133C8.69519e-08 13.5449 0.297483 13.8424 0.686499 13.8424Z" fill="#1A1A1A"/>
</g>
<defs>
<clipPath id="clip0_898_3010">
<rect width="20" height="13.6842" fill="white" transform="translate(0 0.158203)"/>
</clipPath>
</defs>
</svg>
