<svg width="20" height="16" viewBox="0 0 20 16" fill="none" xmlns="http://www.w3.org/2000/svg">
<path d="M19.166 8.41537V12.582C19.166 12.803 19.0782 13.015 18.9219 13.1713C18.7657 13.3276 18.5537 13.4154 18.3327 13.4154H17.4993C17.4993 14.0784 17.236 14.7143 16.7671 15.1831C16.2983 15.652 15.6624 15.9154 14.9993 15.9154C14.3363 15.9154 13.7004 15.652 13.2316 15.1831C12.7627 14.7143 12.4993 14.0784 12.4993 13.4154H7.49935C7.49935 14.0784 7.23596 14.7143 6.76711 15.1831C6.29827 15.652 5.66239 15.9154 4.99935 15.9154C4.33631 15.9154 3.70042 15.652 3.23158 15.1831C2.76274 14.7143 2.49935 14.0784 2.49935 13.4154H1.66601C1.445 13.4154 1.23304 13.3276 1.07676 13.1713C0.920477 13.015 0.83268 12.803 0.83268 12.582V2.58203C0.83268 1.91899 1.09607 1.28311 1.56491 0.814264C2.03375 0.345423 2.66964 0.0820313 3.33268 0.0820312H10.8327C11.4957 0.0820313 12.1316 0.345423 12.6004 0.814264C13.0693 1.28311 13.3327 1.91899 13.3327 2.58203V4.2487H14.9993C15.3875 4.2487 15.7702 4.33906 16.1174 4.51263C16.4645 4.6862 16.7665 4.93821 16.9993 5.2487L18.9993 7.91536C19.0237 7.95159 19.0433 7.9908 19.0577 8.03203L19.1077 8.1237C19.1445 8.21664 19.1642 8.31543 19.166 8.41537ZM5.83268 13.4154C5.83268 13.2505 5.78381 13.0894 5.69224 12.9524C5.60067 12.8153 5.47052 12.7085 5.31825 12.6455C5.16598 12.5824 4.99842 12.5659 4.83677 12.598C4.67512 12.6302 4.52663 12.7096 4.41009 12.8261C4.29355 12.9427 4.21418 13.0911 4.18203 13.2528C4.14987 13.4144 4.16637 13.582 4.22945 13.7343C4.29252 13.8865 4.39933 14.0167 4.53637 14.1083C4.67341 14.1998 4.83453 14.2487 4.99935 14.2487C5.22036 14.2487 5.43232 14.1609 5.5886 14.0046C5.74488 13.8483 5.83268 13.6364 5.83268 13.4154ZM11.666 2.58203C11.666 2.36102 11.5782 2.14906 11.4219 1.99278C11.2657 1.8365 11.0537 1.7487 10.8327 1.7487H3.33268C3.11167 1.7487 2.8997 1.8365 2.74342 1.99278C2.58714 2.14906 2.49935 2.36102 2.49935 2.58203V11.7487H3.14935C3.38367 11.4909 3.66928 11.2849 3.98786 11.144C4.30645 11.003 4.65097 10.9302 4.99935 10.9302C5.34772 10.9302 5.69225 11.003 6.01083 11.144C6.32942 11.2849 6.61503 11.4909 6.84935 11.7487H11.666V2.58203ZM13.3327 7.58203H16.666L15.666 6.2487C15.5884 6.1452 15.4877 6.0612 15.372 6.00334C15.2563 5.94549 15.1287 5.91536 14.9993 5.91536H13.3327V7.58203ZM15.8327 13.4154C15.8327 13.2505 15.7838 13.0894 15.6922 12.9524C15.6007 12.8153 15.4705 12.7085 15.3183 12.6455C15.166 12.5824 14.9984 12.5659 14.8368 12.598C14.6751 12.6302 14.5266 12.7096 14.4101 12.8261C14.2935 12.9427 14.2142 13.0911 14.182 13.2528C14.1499 13.4144 14.1664 13.582 14.2294 13.7343C14.2925 13.8865 14.3993 14.0167 14.5364 14.1083C14.6734 14.1998 14.8345 14.2487 14.9993 14.2487C15.2204 14.2487 15.4323 14.1609 15.5886 14.0046C15.7449 13.8483 15.8327 13.6364 15.8327 13.4154ZM17.4993 9.2487H13.3327V11.5654C13.8245 11.1258 14.4701 10.8985 15.1288 10.9328C15.7875 10.9671 16.4059 11.2604 16.8493 11.7487H17.4993V9.2487Z" fill="#B3B3B3"/>
</svg>
