<?xml version="1.0" encoding="UTF-8" standalone="no"?>
<svg
   width="297mm"
   height="210mm"
   viewBox="0 0 297 210"
   xmlns="http://www.w3.org/2000/svg"
   xmlns:svg="http://www.w3.org/2000/svg">
  <g>
    <rect
       style="fill:#08979c;stroke:none;stroke-width:1;stroke-opacity:1;fill-opacity:1"
       width="297.65625"
       height="211.66666"
       x="-0.26458332"
       y="-0.26458332" />
    <path
       style="opacity:0.8;fill:#b3d0d9;fill-opacity:1;stroke:none;stroke-width:1"
       d="m 0.26458335,195.28032 c 0,-15.12571 0.02861,-16.13018 0.463021,-16.25813 1.17152505,-0.34505 13.33777465,-0.7432 17.79322965,-0.58231 9.35761,0.33793 15.43206,1.01903 29.63333,3.32266 15.28644,2.47965 17.83603,2.771 23.94479,2.7362 11.07992,-0.0631 20.78265,-1.4889 39.555216,-5.81248 18.16955,-4.18471 27.4632,-5.87453 39.6875,-7.2162 12.56117,-1.37864 24.32916,-1.90661 30.42708,-1.36512 7.56529,0.67179 12.86659,1.82646 26.87498,5.85362 21.30981,6.12619 33.27048,8.38934 52.50002,9.93383 13.67505,1.09837 25.60995,-0.57422 33.27136,-4.66272 l 2.44739,-1.30606 v 15.73923 15.73923 H 148.56355 0.26458335 Z" />
    <path
       style="opacity:0.6;fill:#b3d0d9;fill-opacity:1;stroke:none;stroke-width:1"
       d="m 258.7625,185.58333 c -18.14188,-1.67713 -28.25155,-3.62585 -49.08356,-9.46128 -20.63034,-5.77893 -24.65598,-6.44551 -37.3029,-6.17674 -7.33137,0.1558 -10.15474,0.33149 -18.12396,1.1278 -13.32591,1.33155 -20.51982,2.58952 -41.5638,7.26808 -17.86244,3.97122 -25.11238,5.20085 -34.371614,5.8296 -8.707192,0.59127 -12.805315,0.24176 -30.95625,-2.64012 -15.303934,-2.42984 -19.846851,-2.90433 -29.765625,-3.10891 -8.3030695,-0.17125 -16.75466466,0.2038 -17.10706156,0.75914 -0.11827372,0.18639 -0.21686628,-7.77583 -0.2190946,-17.69381 l -0.004052,-18.03269 1.38906246,0.36197 c 2.3863853,0.62188 7.6427607,1.39427 11.7414977,1.72535 4.792726,0.38713 16.819204,0.18813 24.043398,-0.39785 2.764896,-0.22427 6.5908,-0.52496 8.50201,-0.6682 5.962517,-0.44686 8.203266,-1.05412 19.808407,-5.36821 3.929062,-1.46058 9.048749,-3.30002 11.377083,-4.08764 13.023162,-4.4054 23.837479,-6.01634 36.075759,-5.37397 10.95244,0.57487 19.7656,1.78195 39.85966,5.45929 28.46786,5.2098 27.62095,5.09084 32.94062,4.62705 4.76871,-0.41575 10.25966,-1.37247 20.63336,-3.59508 20.9612,-4.49102 30.90019,-5.95213 40.53798,-5.95938 8.58059,-0.006 14.61635,1.37696 35.0047,8.02324 5.52979,1.80263 11.09596,3.55022 12.36927,3.88355 l 2.31511,0.60604 v 18.57559 18.5756 l -2.71198,1.35327 c -4.71787,2.35419 -10.49941,3.89526 -16.97929,4.52581 -3.85811,0.37543 -13.65152,0.30228 -18.40873,-0.1375 z" />
    <path
       style="opacity:0.4;fill:#b3d0d9;fill-opacity:1;stroke:none;stroke-width:3.77953"
       d="M 46,549.38164 C 32.714095,547.80206 12.492966,544.64189 7.25,543.32577 L 1,541.75685 v -73.50759 -73.50759 l 6.25,0.70535 c 3.4375,0.38794 24.7,3.78766 47.25,7.55493 60.11926,10.0437 81.18915,12.29841 127,13.59041 26.81837,0.75636 41.30806,-0.22469 61.5,-4.16397 26.64436,-5.1981 46.29914,-12.43071 93.42687,-34.37942 12.05977,-5.61658 28.20417,-12.897 35.87644,-16.17871 45.30801,-19.3799 89.79088,-28.9998 126.9757,-27.45987 42.75672,1.77068 73.40174,7.85971 153.72099,30.54372 109.16634,30.83109 176.84485,39.03831 289.03739,35.05088 46.63751,-1.65754 67.77471,-4.84738 136.20251,-20.55452 21.367,-4.90466 42.2287,-9.45047 43.3702,-9.45047 0.2144,0 0.3899,38.05532 0.3899,84.56739 0,80.08076 -0.093,84.53855 -1.75,84.02386 -0.9625,-0.29893 -6.475,-1.93438 -12.25,-3.63432 -5.775,-1.69994 -23.775,-7.36101 -40,-12.58016 -54.2847,-17.46194 -77.85839,-24.15363 -99,-28.10239 -13.53708,-2.52841 -59.55417,-2.49127 -79.5,0.0642 -21.77115,2.78929 -51.06617,7.95749 -86,15.17204 -82.05241,16.94549 -88.28512,17.94295 -112,17.92412 -14.2878,-0.0113 -20.57792,-0.48029 -30.5,-2.27388 -6.875,-1.24278 -33.425,-6.04862 -59,-10.67965 -116.06905,-21.01739 -145.42405,-24.82177 -192,-24.88302 -33.56778,-0.0441 -52.485,2.22711 -83.5,10.02522 -18.38017,4.62134 -32.27443,9.16289 -71.5,23.37086 -56.87415,20.6005 -57.14133,20.66618 -98,24.09177 -19.41517,1.62777 -35.28345,2.20638 -66.5,2.42483 -22.55,0.15781 -42.575,0.0997 -44.5,-0.1292 z"
       transform="scale(0.26458333)" />
    <path
       style="opacity:0.2;fill:#b3d0d9;fill-opacity:1;stroke:none;stroke-width:3.77953"
       d="M 155.5,415.30354 C 129.55046,413.92697 106.46708,410.98886 51,402.0025 30.925,398.7501 11.575,395.73097 8,395.29332 L 1.5,394.49759 1.2438679,316.74879 C 1.1029953,273.98696 1.2059816,239 1.4727264,239 c 0.2667448,0 10.9570046,-1.77853 23.7561316,-3.95229 58.672981,-9.96482 96.592232,-12.80643 147.824632,-11.07777 42.88834,1.44712 50.43337,2.23248 96.44651,10.03905 62.89339,10.67048 87.98641,12.72628 166.5,13.64087 42.74538,0.49794 53.18724,0.33196 68,-1.0809 20.96295,-1.99948 45.52737,-5.47338 72,-10.18223 10.725,-1.90773 31.875,-5.66805 47,-8.35626 73.71842,-13.10222 115.54722,-16.73376 161.28865,-14.00293 37.73104,2.2526 64.92287,5.59094 138.21135,16.96823 94.6044,14.68637 128.5238,18.52807 181.75,20.58495 l 17.75,0.68594 v 58.86667 c 0,55.3921 -0.1033,58.8674 -1.75,58.87909 -0.9625,0.007 -14.8,2.95815 -30.75,6.55847 -94.21028,21.26571 -112.38293,23.48489 -192.21217,23.47229 -57.14172,-0.009 -89.44244,-2.35477 -132.11671,-9.5946 C 728.12258,384.16319 698.41667,377.18544 642.5,361.63386 578.43669,343.81653 548.32684,337.57033 513.61998,334.89805 478.36593,332.18364 444.22215,336.57861 406.5,348.68649 c -16.97885,5.44979 -31.21906,11.30717 -66.61356,27.39996 -39.269,17.85439 -53.38393,23.72002 -69.40311,28.84125 -12.882,4.1183 -32.44082,8.34762 -46.4571,10.0457 -7.59923,0.92065 -53.24884,1.14058 -68.52623,0.33014 z"
       transform="scale(0.26458333)" />
    <path
       style="opacity:0.1;fill:#b3d0d9;fill-opacity:1;stroke:none;stroke-width:3.77953"
       d="m 1095,250.92236 c -49.2575,-2.47385 -76.2618,-5.72284 -190,-22.85957 -74.29256,-11.19353 -99.15511,-13.86136 -137.5,-14.7542 -47.06398,-1.09585 -73.25737,1.86206 -174.2781,19.68049 C 518.11608,246.23654 506.74093,247.36226 450,247.16265 363.39979,246.858 339.03919,244.96168 262.85249,232.5944 225.87706,226.59222 213.5402,225.2932 180.5,223.92301 140.19271,222.25144 101.22617,223.82292 66,228.54065 51.882928,230.43131 5.1566151,237.86187 2.75,238.59886 1.0965621,239.1052 1,235.75874 1,177.95076 v -61.18402 l 2.25,0.59506 c 5.3097713,1.40428 47.201404,1.82314 73.25,0.7324 43.68388,-1.8292 70.25461,-4.67336 127,-13.59423 83.34409,-13.102428 88.51534,-13.664247 131,-14.232206 82.48141,-1.102657 144.80658,3.450522 304.5,22.245316 130.3264,15.33849 174.42375,19.28996 241.81455,21.66847 57.63453,2.03418 95.34755,-1.18905 137.68545,-11.76757 19.4146,-4.85091 41.1667,-12.26413 74.2121,-25.291777 C 1108.2288,91.004991 1121.1663,86 1121.4621,86 c 0.2958,0 0.5379,37.35 0.5379,83 v 83 l -5.75,-0.14959 c -3.1625,-0.0823 -12.725,-0.4999 -21.25,-0.92805 z"
       transform="scale(0.26458333)" />
  </g>
</svg>

