<svg width="1062" height="730" viewBox="0 0 1062 730" fill="none" xmlns="http://www.w3.org/2000/svg">
<g filter="url(#filter0_d_1005_171387)">
<rect x="3" y="2" width="1056" height="724" rx="16" fill="#F9FAFB"/>
</g>
<g filter="url(#filter1_dd_1005_171387)">
<rect x="543" y="266" width="290" height="196" rx="16" fill="white"/>
<path d="M688 383C710.644 383 729 364.644 729 342C729 319.356 710.644 301 688 301C665.356 301 647 319.356 647 342C647 364.644 665.356 383 688 383Z" fill="#E6F5F5"/>
<path d="M629.275 411.897V409.909H639.72V411.897H635.674V423H633.322V411.897H629.275ZM640.612 423V413.182H642.855V414.818H642.958C643.137 414.251 643.443 413.815 643.878 413.508C644.317 413.197 644.818 413.041 645.38 413.041C645.508 413.041 645.651 413.048 645.809 413.06C645.97 413.069 646.105 413.084 646.211 413.105V415.234C646.113 415.2 645.958 415.17 645.745 415.144C645.536 415.114 645.333 415.099 645.137 415.099C644.715 415.099 644.336 415.191 644 415.374C643.667 415.553 643.405 415.803 643.213 416.122C643.022 416.442 642.926 416.81 642.926 417.228V423H640.612ZM650.398 423.198C649.776 423.198 649.215 423.087 648.717 422.866C648.223 422.64 647.831 422.308 647.541 421.869C647.255 421.43 647.112 420.888 647.112 420.245C647.112 419.691 647.215 419.233 647.419 418.871C647.624 418.509 647.903 418.219 648.257 418.001C648.61 417.784 649.009 417.62 649.452 417.509C649.899 417.394 650.362 417.311 650.839 417.26C651.414 417.2 651.881 417.147 652.239 417.1C652.597 417.049 652.857 416.972 653.019 416.87C653.185 416.763 653.268 416.599 653.268 416.378V416.339C653.268 415.858 653.125 415.485 652.84 415.221C652.554 414.957 652.143 414.825 651.606 414.825C651.039 414.825 650.59 414.948 650.257 415.195C649.929 415.442 649.708 415.734 649.593 416.071L647.432 415.764C647.603 415.168 647.884 414.669 648.276 414.268C648.668 413.864 649.147 413.561 649.714 413.361C650.281 413.156 650.907 413.054 651.593 413.054C652.066 413.054 652.537 413.109 653.006 413.22C653.475 413.331 653.903 413.514 654.291 413.77C654.679 414.021 654.99 414.364 655.224 414.799C655.463 415.234 655.582 415.777 655.582 416.429V423H653.358V421.651H653.281C653.14 421.924 652.942 422.18 652.686 422.418C652.435 422.653 652.117 422.842 651.734 422.987C651.355 423.128 650.909 423.198 650.398 423.198ZM650.999 421.498C651.463 421.498 651.866 421.406 652.207 421.223C652.548 421.036 652.81 420.788 652.993 420.482C653.181 420.175 653.274 419.84 653.274 419.478V418.321C653.202 418.381 653.078 418.436 652.904 418.487C652.733 418.538 652.541 418.583 652.328 418.621C652.115 418.66 651.904 418.694 651.696 418.724C651.487 418.754 651.306 418.779 651.152 418.8C650.807 418.847 650.498 418.924 650.225 419.031C649.953 419.137 649.737 419.286 649.58 419.478C649.422 419.665 649.343 419.908 649.343 420.207C649.343 420.633 649.499 420.955 649.81 421.172C650.121 421.389 650.517 421.498 650.999 421.498ZM662.191 423.192C661.211 423.192 660.37 422.977 659.666 422.546C658.968 422.116 658.429 421.521 658.049 420.763C657.674 420 657.487 419.122 657.487 418.129C657.487 417.132 657.679 416.252 658.062 415.489C658.446 414.722 658.987 414.126 659.686 413.7C660.389 413.269 661.22 413.054 662.179 413.054C662.975 413.054 663.681 413.201 664.294 413.495C664.912 413.785 665.404 414.196 665.771 414.729C666.137 415.257 666.346 415.875 666.397 416.582H664.186C664.096 416.109 663.883 415.715 663.546 415.4C663.214 415.08 662.769 414.92 662.21 414.92C661.737 414.92 661.322 415.048 660.964 415.304C660.606 415.555 660.327 415.918 660.127 416.391C659.931 416.864 659.833 417.43 659.833 418.091C659.833 418.76 659.931 419.335 660.127 419.817C660.323 420.294 660.598 420.663 660.951 420.923C661.309 421.178 661.729 421.306 662.21 421.306C662.551 421.306 662.856 421.242 663.125 421.114C663.397 420.982 663.625 420.793 663.809 420.545C663.992 420.298 664.117 419.998 664.186 419.644H666.397C666.342 420.339 666.137 420.955 665.784 421.491C665.43 422.024 664.948 422.442 664.339 422.744C663.73 423.043 663.014 423.192 662.191 423.192ZM670.407 419.919L670.4 417.126H670.771L674.299 413.182H677.003L672.663 418.014H672.184L670.407 419.919ZM668.297 423V409.909H670.611V423H668.297ZM674.459 423L671.263 418.532L672.823 416.902L677.227 423H674.459ZM686.922 423.192C686.027 423.192 685.258 423.03 684.615 422.706C683.971 422.382 683.475 421.945 683.125 421.396C682.78 420.842 682.608 420.217 682.608 419.523C682.608 418.999 682.714 418.534 682.927 418.129C683.144 417.724 683.443 417.349 683.822 417.004C684.206 416.659 684.649 416.316 685.152 415.975L687.472 414.396C687.813 414.175 688.071 413.94 688.245 413.693C688.424 413.446 688.514 413.156 688.514 412.824C688.514 412.543 688.394 412.276 688.156 412.025C687.921 411.773 687.598 411.648 687.184 411.648C686.907 411.648 686.662 411.714 686.449 411.846C686.24 411.974 686.076 412.142 685.957 412.351C685.842 412.56 685.784 412.781 685.784 413.016C685.784 413.301 685.863 413.591 686.021 413.885C686.183 414.179 686.392 414.484 686.647 414.799C686.907 415.114 687.184 415.449 687.478 415.803L693.621 423H691.115L686.014 417.158C685.635 416.714 685.269 416.278 684.915 415.847C684.566 415.417 684.278 414.969 684.052 414.505C683.831 414.036 683.72 413.529 683.72 412.984C683.72 412.366 683.862 411.814 684.148 411.328C684.434 410.838 684.832 410.452 685.343 410.171C685.859 409.89 686.462 409.749 687.152 409.749C687.843 409.749 688.435 409.886 688.929 410.158C689.424 410.431 689.805 410.793 690.073 411.245C690.342 411.697 690.476 412.189 690.476 412.722C690.476 413.339 690.323 413.893 690.016 414.384C689.709 414.869 689.283 415.31 688.737 415.707L686.091 417.643C685.657 417.959 685.345 418.278 685.158 418.602C684.97 418.922 684.877 419.195 684.877 419.42C684.877 419.766 684.964 420.079 685.139 420.36C685.313 420.641 685.559 420.867 685.874 421.038C686.193 421.204 686.566 421.287 686.992 421.287C687.461 421.287 687.924 421.183 688.38 420.974C688.835 420.761 689.251 420.458 689.626 420.066C690.001 419.674 690.299 419.205 690.521 418.66C690.742 418.11 690.853 417.501 690.853 416.832H692.841C692.841 417.658 692.75 418.379 692.566 418.992C692.383 419.602 692.147 420.117 691.857 420.539C691.567 420.957 691.26 421.291 690.936 421.543C690.834 421.615 690.736 421.688 690.642 421.76C690.549 421.832 690.451 421.905 690.348 421.977C689.888 422.395 689.349 422.702 688.731 422.898C688.117 423.094 687.514 423.192 686.922 423.192ZM698.938 411.897V409.909H709.382V411.897H705.336V423H702.984V411.897H698.938ZM710.274 423V413.182H712.517V414.818H712.62C712.799 414.251 713.106 413.815 713.54 413.508C713.979 413.197 714.48 413.041 715.042 413.041C715.17 413.041 715.313 413.048 715.471 413.06C715.633 413.069 715.767 413.084 715.873 413.105V415.234C715.775 415.2 715.62 415.17 715.407 415.144C715.198 415.114 714.995 415.099 714.799 415.099C714.378 415.099 713.998 415.191 713.662 415.374C713.329 415.553 713.067 415.803 712.875 416.122C712.684 416.442 712.588 416.81 712.588 417.228V423H710.274ZM720.06 423.198C719.438 423.198 718.878 423.087 718.379 422.866C717.885 422.64 717.493 422.308 717.203 421.869C716.917 421.43 716.775 420.888 716.775 420.245C716.775 419.691 716.877 419.233 717.081 418.871C717.286 418.509 717.565 418.219 717.919 418.001C718.272 417.784 718.671 417.62 719.114 417.509C719.562 417.394 720.024 417.311 720.501 417.26C721.076 417.2 721.543 417.147 721.901 417.1C722.259 417.049 722.519 416.972 722.681 416.87C722.847 416.763 722.93 416.599 722.93 416.378V416.339C722.93 415.858 722.787 415.485 722.502 415.221C722.216 414.957 721.805 414.825 721.268 414.825C720.701 414.825 720.252 414.948 719.919 415.195C719.591 415.442 719.37 415.734 719.255 416.071L717.094 415.764C717.265 415.168 717.546 414.669 717.938 414.268C718.33 413.864 718.809 413.561 719.376 413.361C719.943 413.156 720.569 413.054 721.255 413.054C721.728 413.054 722.199 413.109 722.668 413.22C723.137 413.331 723.565 413.514 723.953 413.77C724.341 414.021 724.652 414.364 724.886 414.799C725.125 415.234 725.244 415.777 725.244 416.429V423H723.02V421.651H722.943C722.802 421.924 722.604 422.18 722.348 422.418C722.097 422.653 721.78 422.842 721.396 422.987C721.017 423.128 720.571 423.198 720.06 423.198ZM720.661 421.498C721.125 421.498 721.528 421.406 721.869 421.223C722.21 421.036 722.472 420.788 722.655 420.482C722.843 420.175 722.937 419.84 722.937 419.478V418.321C722.864 418.381 722.741 418.436 722.566 418.487C722.395 418.538 722.204 418.583 721.991 418.621C721.777 418.66 721.566 418.694 721.358 418.724C721.149 418.754 720.968 418.779 720.814 418.8C720.469 418.847 720.16 418.924 719.888 419.031C719.615 419.137 719.4 419.286 719.242 419.478C719.084 419.665 719.005 419.908 719.005 420.207C719.005 420.633 719.161 420.955 719.472 421.172C719.783 421.389 720.179 421.498 720.661 421.498ZM731.853 423.192C730.873 423.192 730.032 422.977 729.329 422.546C728.63 422.116 728.091 421.521 727.711 420.763C727.336 420 727.149 419.122 727.149 418.129C727.149 417.132 727.341 416.252 727.724 415.489C728.108 414.722 728.649 414.126 729.348 413.7C730.051 413.269 730.882 413.054 731.841 413.054C732.638 413.054 733.343 413.201 733.956 413.495C734.574 413.785 735.066 414.196 735.433 414.729C735.799 415.257 736.008 415.875 736.059 416.582H733.848C733.758 416.109 733.545 415.715 733.209 415.4C732.876 415.08 732.431 414.92 731.873 414.92C731.4 414.92 730.984 415.048 730.626 415.304C730.268 415.555 729.989 415.918 729.789 416.391C729.593 416.864 729.495 417.43 729.495 418.091C729.495 418.76 729.593 419.335 729.789 419.817C729.985 420.294 730.26 420.663 730.613 420.923C730.971 421.178 731.391 421.306 731.873 421.306C732.214 421.306 732.518 421.242 732.787 421.114C733.059 420.982 733.287 420.793 733.471 420.545C733.654 420.298 733.78 419.998 733.848 419.644H736.059C736.004 420.339 735.799 420.955 735.446 421.491C735.092 422.024 734.611 422.442 734.001 422.744C733.392 423.043 732.676 423.192 731.853 423.192ZM742.306 423.192C741.322 423.192 740.472 422.987 739.756 422.578C739.044 422.165 738.496 421.581 738.113 420.827C737.729 420.068 737.538 419.175 737.538 418.148C737.538 417.138 737.729 416.252 738.113 415.489C738.501 414.722 739.042 414.126 739.736 413.7C740.431 413.269 741.247 413.054 742.185 413.054C742.79 413.054 743.361 413.152 743.898 413.348C744.439 413.54 744.916 413.838 745.329 414.243C745.747 414.648 746.075 415.163 746.314 415.79C746.552 416.412 746.672 417.153 746.672 418.014V418.724H738.624V417.164H744.454C744.449 416.721 744.354 416.327 744.166 415.982C743.979 415.632 743.717 415.357 743.38 415.157C743.047 414.957 742.66 414.857 742.217 414.857C741.744 414.857 741.328 414.972 740.97 415.202C740.612 415.428 740.333 415.726 740.133 416.097C739.937 416.463 739.837 416.866 739.832 417.305V418.666C739.832 419.237 739.937 419.727 740.146 420.136C740.354 420.541 740.646 420.852 741.021 421.07C741.396 421.283 741.835 421.389 742.338 421.389C742.675 421.389 742.979 421.342 743.252 421.249C743.525 421.151 743.761 421.008 743.962 420.82C744.162 420.633 744.313 420.401 744.415 420.124L746.576 420.366C746.44 420.937 746.18 421.436 745.796 421.862C745.417 422.284 744.931 422.612 744.339 422.847C743.746 423.077 743.069 423.192 742.306 423.192Z" fill="#111827"/>
<rect x="545" y="268" width="286" height="192" rx="14" stroke="#08979C" stroke-width="4"/>
</g>
<path d="M671.246 347.18C671.337 348.737 670.621 350.232 669.352 351.138C668.578 351.829 667.582 352.219 666.545 352.236C666.5 352.236 666.455 352.235 666.41 352.234C665.331 352.192 664.299 351.779 663.489 351.064C662.679 350.35 662.14 349.378 661.962 348.312L661.666 346.641C661.614 346.35 661.684 346.05 661.858 345.811C662.032 345.573 662.295 345.415 662.588 345.375L669.843 344.376H669.843C670.135 344.332 670.432 344.412 670.662 344.597C670.894 344.781 671.042 345.05 671.072 345.345L671.245 347.098L671.245 347.098C671.247 347.125 671.247 347.152 671.246 347.18L671.246 347.18ZM665.886 327.15H665.816C664.131 327.148 662.514 327.816 661.321 329.007C660.128 330.198 659.457 331.814 659.456 333.499C659.457 333.86 659.49 334.22 659.553 334.575L660.795 341.596C660.838 341.848 660.969 342.075 661.164 342.24C661.36 342.404 661.606 342.494 661.862 342.494C661.913 342.494 661.963 342.491 662.014 342.484L669.752 341.406C670 341.372 670.228 341.253 670.398 341.07C670.569 340.886 670.67 340.649 670.684 340.399C670.734 339.739 670.849 339.085 671.029 338.448L671.86 335.449V335.449C672.137 334.589 672.227 333.681 672.125 332.784C671.931 331.254 671.195 329.844 670.05 328.81C668.906 327.776 667.428 327.187 665.886 327.15L665.886 327.15ZM682.211 323.256H682.211C682.391 323.893 682.507 324.547 682.555 325.207C682.571 325.456 682.672 325.692 682.842 325.875C683.012 326.058 683.239 326.178 683.486 326.213L691.225 327.289L691.225 327.289C691.504 327.33 691.788 327.26 692.016 327.095C692.244 326.929 692.398 326.681 692.446 326.403L693.688 319.378C694.048 317.337 693.38 315.249 691.902 313.796C690.766 312.67 689.248 312.014 687.65 311.959C686.052 311.904 684.492 312.453 683.281 313.496C682.069 314.54 681.296 316.002 681.115 317.591C681.013 318.488 681.104 319.396 681.381 320.255L682.211 323.256ZM694.849 350.349L694.849 350.349C693.877 351.326 692.721 352.1 691.447 352.627C690.174 353.154 688.808 353.423 687.43 353.418H687.429C684.648 353.418 681.98 352.313 680.013 350.346C678.046 348.379 676.941 345.711 676.941 342.929C676.941 340.147 678.046 337.479 680.013 335.512C681.98 333.545 684.648 332.44 687.429 332.44H687.43C689.506 332.439 691.535 333.053 693.261 334.206C694.987 335.358 696.332 336.997 697.127 338.915C697.921 340.832 698.128 342.942 697.723 344.977C697.318 347.013 696.318 348.882 694.849 350.349L694.849 350.349ZM693.48 336.879C693.442 336.841 693.4 336.809 693.362 336.772V336.772C692.978 338.18 692.157 339.429 691.016 340.339C689.876 341.249 688.476 341.772 687.018 341.834C686.957 341.836 686.896 341.836 686.835 341.836C685.313 341.809 683.85 341.237 682.713 340.224C681.883 339.531 681.171 338.709 680.602 337.789C679.28 339.546 678.686 341.745 678.943 343.929C679.2 346.112 680.289 348.113 681.983 349.515C683.676 350.918 685.845 351.614 688.038 351.459C690.232 351.304 692.281 350.31 693.761 348.684C695.241 347.057 696.037 344.923 695.985 342.725C695.933 340.527 695.036 338.433 693.48 336.879L693.48 336.879ZM713.854 365.161L709.66 369.356C709.215 369.796 708.615 370.043 707.989 370.043C707.363 370.043 706.762 369.796 706.317 369.356L697.153 360.182C696.711 359.738 696.463 359.137 696.463 358.511C696.463 357.884 696.711 357.283 697.153 356.84L697.531 356.462L695.717 354.648H695.717C692.779 356.728 689.166 357.628 685.595 357.171C682.024 356.714 678.755 354.934 676.434 352.181C674.113 349.429 672.91 345.906 673.063 342.309C673.215 338.712 674.713 335.304 677.259 332.758C679.805 330.212 683.213 328.715 686.81 328.563C690.407 328.41 693.93 329.614 696.682 331.935C699.434 334.256 701.214 337.526 701.671 341.096C702.127 344.668 701.226 348.28 699.147 351.218L700.96 353.032L701.338 352.644C701.788 352.215 702.387 351.976 703.009 351.976C703.631 351.976 704.229 352.215 704.68 352.644L713.854 361.818C714.296 362.262 714.544 362.863 714.544 363.489C714.544 364.115 714.296 364.716 713.854 365.16L713.854 365.161ZM696.22 351.719C697.959 349.98 699.143 347.765 699.623 345.354C700.102 342.943 699.856 340.443 698.915 338.171C697.975 335.9 696.381 333.958 694.337 332.592C692.293 331.226 689.889 330.497 687.431 330.497C684.972 330.497 682.568 331.226 680.524 332.592C678.48 333.958 676.887 335.9 675.946 338.171C675.005 340.443 674.759 342.942 675.239 345.354C675.718 347.766 676.902 349.98 678.641 351.719C680.974 354.046 684.135 355.353 687.43 355.353C690.726 355.353 693.887 354.046 696.22 351.719H696.22Z" fill="#08979C"/>
<g filter="url(#filter2_dd_1005_171387)">
<rect x="229" y="266" width="290" height="196" rx="16" fill="white"/>
<path d="M374 383C396.644 383 415 364.644 415 342C415 319.356 396.644 301 374 301C351.356 301 333 319.356 333 342C333 364.644 351.356 383 374 383Z" fill="#E6F5F5"/>
<path d="M309.926 414.326H307.536C307.467 413.934 307.342 413.587 307.158 413.284C306.975 412.977 306.747 412.717 306.474 412.504C306.202 412.291 305.891 412.131 305.541 412.025C305.196 411.914 304.823 411.859 304.423 411.859C303.711 411.859 303.08 412.038 302.531 412.396C301.981 412.749 301.55 413.269 301.239 413.955C300.928 414.637 300.773 415.47 300.773 416.455C300.773 417.456 300.928 418.3 301.239 418.986C301.555 419.668 301.985 420.183 302.531 420.533C303.08 420.878 303.709 421.05 304.416 421.05C304.808 421.05 305.175 420.999 305.516 420.897C305.861 420.79 306.17 420.635 306.442 420.43C306.719 420.226 306.952 419.974 307.139 419.676C307.331 419.378 307.463 419.037 307.536 418.653L309.926 418.666C309.837 419.288 309.643 419.872 309.344 420.418C309.05 420.963 308.665 421.445 308.188 421.862C307.71 422.276 307.152 422.599 306.513 422.834C305.874 423.064 305.164 423.179 304.384 423.179C303.234 423.179 302.207 422.913 301.303 422.38C300.4 421.847 299.688 421.078 299.168 420.072C298.648 419.067 298.388 417.861 298.388 416.455C298.388 415.044 298.651 413.838 299.175 412.837C299.699 411.831 300.413 411.062 301.316 410.529C302.219 409.996 303.242 409.73 304.384 409.73C305.113 409.73 305.79 409.832 306.417 410.037C307.043 410.241 307.602 410.542 308.092 410.938C308.582 411.33 308.984 411.812 309.3 412.383C309.619 412.95 309.828 413.597 309.926 414.326ZM311.996 423V413.182H314.309V423H311.996ZM313.159 411.788C312.792 411.788 312.477 411.667 312.213 411.424C311.949 411.177 311.817 410.881 311.817 410.536C311.817 410.186 311.949 409.89 312.213 409.647C312.477 409.4 312.792 409.276 313.159 409.276C313.53 409.276 313.845 409.4 314.105 409.647C314.369 409.89 314.501 410.186 314.501 410.536C314.501 410.881 314.369 411.177 314.105 411.424C313.845 411.667 313.53 411.788 313.159 411.788ZM316.689 423V413.182H318.933V414.818H319.035C319.214 414.251 319.521 413.815 319.955 413.508C320.394 413.197 320.895 413.041 321.457 413.041C321.585 413.041 321.728 413.048 321.886 413.06C322.048 413.069 322.182 413.084 322.288 413.105V415.234C322.19 415.2 322.035 415.17 321.822 415.144C321.613 415.114 321.411 415.099 321.214 415.099C320.793 415.099 320.413 415.191 320.077 415.374C319.744 415.553 319.482 415.803 319.29 416.122C319.099 416.442 319.003 416.81 319.003 417.228V423H316.689ZM327.704 423.192C326.724 423.192 325.882 422.977 325.179 422.546C324.48 422.116 323.941 421.521 323.562 420.763C323.187 420 322.999 419.122 322.999 418.129C322.999 417.132 323.191 416.252 323.575 415.489C323.958 414.722 324.499 414.126 325.198 413.7C325.901 413.269 326.732 413.054 327.691 413.054C328.488 413.054 329.193 413.201 329.807 413.495C330.425 413.785 330.917 414.196 331.284 414.729C331.65 415.257 331.859 415.875 331.91 416.582H329.698C329.609 416.109 329.396 415.715 329.059 415.4C328.727 415.08 328.281 414.92 327.723 414.92C327.25 414.92 326.835 415.048 326.477 415.304C326.119 415.555 325.84 415.918 325.639 416.391C325.443 416.864 325.345 417.43 325.345 418.091C325.345 418.76 325.443 419.335 325.639 419.817C325.835 420.294 326.11 420.663 326.464 420.923C326.822 421.178 327.242 421.306 327.723 421.306C328.064 421.306 328.369 421.242 328.637 421.114C328.91 420.982 329.138 420.793 329.321 420.545C329.504 420.298 329.63 419.998 329.698 419.644H331.91C331.855 420.339 331.65 420.955 331.296 421.491C330.943 422.024 330.461 422.442 329.852 422.744C329.242 423.043 328.526 423.192 327.704 423.192ZM340.068 418.871V413.182H342.382V423H340.138V421.255H340.036C339.814 421.805 339.45 422.254 338.943 422.604C338.44 422.953 337.82 423.128 337.083 423.128C336.439 423.128 335.87 422.985 335.376 422.7C334.886 422.41 334.502 421.99 334.225 421.44C333.949 420.886 333.81 420.217 333.81 419.433V413.182H336.124V419.075C336.124 419.697 336.294 420.192 336.635 420.558C336.976 420.925 337.424 421.108 337.978 421.108C338.319 421.108 338.649 421.025 338.968 420.859C339.288 420.692 339.55 420.445 339.755 420.117C339.963 419.785 340.068 419.369 340.068 418.871ZM347.075 409.909V423H344.761V409.909H347.075ZM352.28 423.198C351.658 423.198 351.097 423.087 350.599 422.866C350.104 422.64 349.712 422.308 349.423 421.869C349.137 421.43 348.994 420.888 348.994 420.245C348.994 419.691 349.097 419.233 349.301 418.871C349.506 418.509 349.785 418.219 350.138 418.001C350.492 417.784 350.891 417.62 351.334 417.509C351.781 417.394 352.244 417.311 352.721 417.26C353.296 417.2 353.763 417.147 354.121 417.1C354.479 417.049 354.739 416.972 354.901 416.87C355.067 416.763 355.15 416.599 355.15 416.378V416.339C355.15 415.858 355.007 415.485 354.722 415.221C354.436 414.957 354.025 414.825 353.488 414.825C352.921 414.825 352.472 414.948 352.139 415.195C351.811 415.442 351.589 415.734 351.474 416.071L349.314 415.764C349.484 415.168 349.766 414.669 350.158 414.268C350.55 413.864 351.029 413.561 351.596 413.361C352.163 413.156 352.789 413.054 353.475 413.054C353.948 413.054 354.419 413.109 354.888 413.22C355.357 413.331 355.785 413.514 356.173 413.77C356.56 414.021 356.871 414.364 357.106 414.799C357.344 415.234 357.464 415.777 357.464 416.429V423H355.239V421.651H355.163C355.022 421.924 354.824 422.18 354.568 422.418C354.317 422.653 353.999 422.842 353.616 422.987C353.237 423.128 352.791 423.198 352.28 423.198ZM352.881 421.498C353.345 421.498 353.748 421.406 354.089 421.223C354.43 421.036 354.692 420.788 354.875 420.482C355.062 420.175 355.156 419.84 355.156 419.478V418.321C355.084 418.381 354.96 418.436 354.786 418.487C354.615 418.538 354.423 418.583 354.21 418.621C353.997 418.66 353.786 418.694 353.577 418.724C353.369 418.754 353.188 418.779 353.034 418.8C352.689 418.847 352.38 418.924 352.107 419.031C351.835 419.137 351.619 419.286 351.462 419.478C351.304 419.665 351.225 419.908 351.225 420.207C351.225 420.633 351.381 420.955 351.692 421.172C352.003 421.389 352.399 421.498 352.881 421.498ZM359.79 423V413.182H362.034V414.818H362.136C362.315 414.251 362.622 413.815 363.057 413.508C363.496 413.197 363.996 413.041 364.559 413.041C364.687 413.041 364.83 413.048 364.987 413.06C365.149 413.069 365.283 413.084 365.39 413.105V415.234C365.292 415.2 365.136 415.17 364.923 415.144C364.714 415.114 364.512 415.099 364.316 415.099C363.894 415.099 363.515 415.191 363.178 415.374C362.846 415.553 362.584 415.803 362.392 416.122C362.2 416.442 362.104 416.81 362.104 417.228V423H359.79ZM371.494 423V409.909H380.009V411.897H373.866V415.451H379.567V417.439H373.866V421.012H380.06V423H371.494ZM386.608 423.192C385.628 423.192 384.787 422.977 384.083 422.546C383.385 422.116 382.846 421.521 382.466 420.763C382.091 420 381.904 419.122 381.904 418.129C381.904 417.132 382.096 416.252 382.479 415.489C382.863 414.722 383.404 414.126 384.103 413.7C384.806 413.269 385.637 413.054 386.596 413.054C387.392 413.054 388.098 413.201 388.711 413.495C389.329 413.785 389.821 414.196 390.188 414.729C390.554 415.257 390.763 415.875 390.814 416.582H388.603C388.513 416.109 388.3 415.715 387.963 415.4C387.631 415.08 387.186 414.92 386.627 414.92C386.154 414.92 385.739 415.048 385.381 415.304C385.023 415.555 384.744 415.918 384.544 416.391C384.348 416.864 384.25 417.43 384.25 418.091C384.25 418.76 384.348 419.335 384.544 419.817C384.74 420.294 385.015 420.663 385.368 420.923C385.726 421.178 386.146 421.306 386.627 421.306C386.968 421.306 387.273 421.242 387.542 421.114C387.814 420.982 388.042 420.793 388.225 420.545C388.409 420.298 388.534 419.998 388.603 419.644H390.814C390.759 420.339 390.554 420.955 390.201 421.491C389.847 422.024 389.365 422.442 388.756 422.744C388.147 423.043 387.431 423.192 386.608 423.192ZM396.997 423.192C396.038 423.192 395.207 422.981 394.504 422.559C393.801 422.137 393.256 421.547 392.868 420.788C392.484 420.03 392.292 419.143 392.292 418.129C392.292 417.115 392.484 416.227 392.868 415.464C393.256 414.701 393.801 414.109 394.504 413.687C395.207 413.265 396.038 413.054 396.997 413.054C397.956 413.054 398.787 413.265 399.49 413.687C400.193 414.109 400.736 414.701 401.12 415.464C401.508 416.227 401.702 417.115 401.702 418.129C401.702 419.143 401.508 420.03 401.12 420.788C400.736 421.547 400.193 422.137 399.49 422.559C398.787 422.981 397.956 423.192 396.997 423.192ZM397.01 421.338C397.53 421.338 397.964 421.195 398.314 420.91C398.663 420.62 398.923 420.232 399.094 419.746C399.268 419.261 399.356 418.719 399.356 418.123C399.356 417.522 399.268 416.979 399.094 416.493C398.923 416.003 398.663 415.613 398.314 415.323C397.964 415.033 397.53 414.888 397.01 414.888C396.477 414.888 396.034 415.033 395.68 415.323C395.331 415.613 395.069 416.003 394.894 416.493C394.724 416.979 394.638 417.522 394.638 418.123C394.638 418.719 394.724 419.261 394.894 419.746C395.069 420.232 395.331 420.62 395.68 420.91C396.034 421.195 396.477 421.338 397.01 421.338ZM405.979 417.247V423H403.665V413.182H405.877V414.85H405.992C406.218 414.3 406.578 413.864 407.072 413.54C407.571 413.216 408.187 413.054 408.92 413.054C409.597 413.054 410.188 413.199 410.69 413.489C411.197 413.778 411.589 414.198 411.866 414.748C412.148 415.298 412.286 415.964 412.282 416.749V423H409.968V417.107C409.968 416.45 409.798 415.937 409.457 415.566C409.12 415.195 408.653 415.01 408.057 415.01C407.652 415.01 407.292 415.099 406.977 415.278C406.665 415.453 406.42 415.707 406.241 416.039C406.067 416.371 405.979 416.774 405.979 417.247ZM418.917 423.192C417.958 423.192 417.127 422.981 416.424 422.559C415.721 422.137 415.175 421.547 414.788 420.788C414.404 420.03 414.212 419.143 414.212 418.129C414.212 417.115 414.404 416.227 414.788 415.464C415.175 414.701 415.721 414.109 416.424 413.687C417.127 413.265 417.958 413.054 418.917 413.054C419.876 413.054 420.707 413.265 421.41 413.687C422.113 414.109 422.656 414.701 423.04 415.464C423.428 416.227 423.621 417.115 423.621 418.129C423.621 419.143 423.428 420.03 423.04 420.788C422.656 421.547 422.113 422.137 421.41 422.559C420.707 422.981 419.876 423.192 418.917 423.192ZM418.93 421.338C419.45 421.338 419.884 421.195 420.234 420.91C420.583 420.62 420.843 420.232 421.013 419.746C421.188 419.261 421.276 418.719 421.276 418.123C421.276 417.522 421.188 416.979 421.013 416.493C420.843 416.003 420.583 415.613 420.234 415.323C419.884 415.033 419.45 414.888 418.93 414.888C418.397 414.888 417.954 415.033 417.6 415.323C417.251 415.613 416.989 416.003 416.814 416.493C416.643 416.979 416.558 417.522 416.558 418.123C416.558 418.719 416.643 419.261 416.814 419.746C416.989 420.232 417.251 420.62 417.6 420.91C417.954 421.195 418.397 421.338 418.93 421.338ZM425.585 423V413.182H427.797V414.85H427.912C428.117 414.288 428.455 413.849 428.928 413.533C429.401 413.214 429.966 413.054 430.622 413.054C431.287 413.054 431.847 413.216 432.303 413.54C432.764 413.859 433.088 414.296 433.275 414.85H433.377C433.595 414.305 433.961 413.87 434.477 413.546C434.997 413.218 435.612 413.054 436.324 413.054C437.227 413.054 437.965 413.339 438.536 413.911C439.107 414.482 439.392 415.315 439.392 416.41V423H437.072V416.768C437.072 416.158 436.91 415.713 436.586 415.432C436.262 415.146 435.866 415.004 435.397 415.004C434.839 415.004 434.402 415.178 434.087 415.528C433.776 415.873 433.62 416.322 433.62 416.876V423H431.351V416.672C431.351 416.165 431.198 415.76 430.891 415.457C430.588 415.155 430.192 415.004 429.702 415.004C429.369 415.004 429.067 415.089 428.794 415.259C428.521 415.425 428.304 415.662 428.142 415.969C427.98 416.271 427.899 416.625 427.899 417.03V423H425.585ZM442.826 426.682C442.511 426.682 442.219 426.656 441.951 426.605C441.686 426.558 441.475 426.503 441.318 426.439L441.855 424.636C442.191 424.734 442.492 424.781 442.756 424.777C443.02 424.773 443.252 424.69 443.453 424.528C443.657 424.37 443.83 424.106 443.971 423.735L444.169 423.205L440.608 413.182H443.063L445.326 420.597H445.428L447.697 413.182H450.158L446.227 424.189C446.044 424.709 445.801 425.154 445.498 425.525C445.196 425.9 444.825 426.185 444.386 426.381C443.951 426.582 443.431 426.682 442.826 426.682Z" fill="#111827"/>
</g>
<path fill-rule="evenodd" clip-rule="evenodd" d="M351.904 358.466C348.475 353.873 346.444 348.174 346.444 342.001C346.444 335.932 348.408 330.322 351.732 325.77L349.064 323.102C348.901 322.938 348.854 322.705 348.943 322.491C349.031 322.278 349.229 322.146 349.46 322.146H361.416C362.034 322.146 362.537 322.649 362.537 323.266V335.222C362.537 335.453 362.404 335.651 362.191 335.739C361.977 335.828 361.744 335.781 361.581 335.618L358.399 332.436C356.688 335.219 355.701 338.494 355.701 342.001C355.701 345.364 356.61 348.515 358.194 351.224H355.264C353.411 351.224 351.904 352.73 351.904 354.584L351.904 358.466ZM370.037 348.236C369.587 347.813 369.566 347.107 369.989 346.657C370.412 346.207 371.118 346.186 371.568 346.609C371.989 347.005 372.354 347.315 372.73 347.505C373.069 347.676 373.465 347.769 374 347.769C374.775 347.769 375.467 347.497 375.959 347.058C376.418 346.648 376.702 346.088 376.702 345.476C376.702 344.864 376.418 344.304 375.959 343.894C375.467 343.456 374.775 343.183 374 343.183C372.664 343.183 371.445 342.691 370.554 341.895C369.63 341.07 369.058 339.923 369.058 338.65H369.062C369.062 337.375 369.632 336.228 370.554 335.406C371.185 334.842 371.98 334.431 372.865 334.239L372.839 333.16C372.825 332.544 373.313 332.032 373.929 332.018C374.545 332.003 375.057 332.491 375.071 333.108L375.099 334.27C375.546 334.377 376.014 334.539 376.446 334.74C377.218 335.099 377.932 335.608 378.323 336.202C378.661 336.717 378.518 337.408 378.003 337.747C377.489 338.085 376.797 337.942 376.459 337.427C376.316 337.209 375.946 336.973 375.509 336.77C374.96 336.514 374.379 336.353 374 336.353V336.357C373.225 336.357 372.533 336.628 372.041 337.068C371.58 337.481 371.294 338.04 371.294 338.65H371.298C371.298 339.262 371.582 339.822 372.041 340.231C372.533 340.67 373.225 340.942 374 340.942C375.335 340.942 376.555 341.435 377.446 342.231C378.37 343.056 378.942 344.203 378.942 345.475C378.942 346.748 378.37 347.895 377.446 348.72C376.816 349.283 376.022 349.694 375.138 349.886L375.161 350.84C375.175 351.456 374.687 351.968 374.071 351.983C373.455 351.997 372.943 351.509 372.929 350.893L372.905 349.908C372.477 349.823 372.09 349.685 371.724 349.499C371.107 349.188 370.596 348.764 370.037 348.237L370.037 348.236ZM364.777 326.195C367.485 324.61 370.636 323.703 374 323.703C377.507 323.703 380.783 324.689 383.565 326.4L380.383 329.582C380.22 329.745 380.173 329.978 380.262 330.192C380.35 330.405 380.548 330.538 380.779 330.538H392.735C393.352 330.538 393.855 330.035 393.855 329.417V317.461C393.855 317.23 393.723 317.032 393.509 316.944C393.296 316.856 393.063 316.902 392.899 317.065L390.231 319.733C385.679 316.409 380.069 314.445 374 314.445C367.827 314.445 362.128 316.476 357.535 319.905H361.417C363.27 319.905 364.777 321.413 364.777 323.266L364.777 326.195ZM396.095 325.536C399.525 330.129 401.556 335.828 401.556 342.001C401.556 348.07 399.592 353.68 396.385 358.35L398.935 360.9C399.098 361.063 399.145 361.297 399.056 361.51C398.968 361.724 398.77 361.856 398.539 361.856L386.583 361.856C385.966 361.856 385.463 361.353 385.463 360.736V348.78C385.463 348.548 385.595 348.351 385.809 348.263C386.022 348.174 386.255 348.221 386.419 348.384L389.601 351.566C391.312 348.783 392.298 345.507 392.298 342.001C392.298 338.638 391.39 335.487 389.806 332.778H392.736C394.589 332.778 396.096 331.271 396.096 329.418L396.095 325.536ZM390.465 364.096H386.583C384.73 364.096 383.223 362.59 383.223 360.736V357.806C380.515 359.391 377.364 360.298 374 360.298C370.494 360.298 367.218 359.312 364.436 357.601L367.618 354.419C367.781 354.256 367.828 354.023 367.739 353.809C367.651 353.596 367.453 353.463 367.222 353.463L355.265 353.463C354.648 353.463 354.145 353.966 354.145 354.583V366.539C354.145 366.771 354.277 366.969 354.491 367.057C354.704 367.145 354.937 367.099 355.101 366.935L357.769 364.267C362.322 367.593 367.931 369.556 374 369.556C380.174 369.556 385.872 367.525 390.466 364.096L390.465 364.096Z" fill="#08979C"/>
<defs>
<filter id="filter0_d_1005_171387" x="0" y="0" width="1062" height="730" filterUnits="userSpaceOnUse" color-interpolation-filters="sRGB">
<feFlood flood-opacity="0" result="BackgroundImageFix"/>
<feColorMatrix in="SourceAlpha" type="matrix" values="0 0 0 0 0 0 0 0 0 0 0 0 0 0 0 0 0 0 127 0" result="hardAlpha"/>
<feOffset dy="1"/>
<feGaussianBlur stdDeviation="1.5"/>
<feColorMatrix type="matrix" values="0 0 0 0 0 0 0 0 0 0 0 0 0 0 0 0 0 0 0.1 0"/>
<feBlend mode="normal" in2="BackgroundImageFix" result="effect1_dropShadow_1005_171387"/>
<feBlend mode="normal" in="SourceGraphic" in2="effect1_dropShadow_1005_171387" result="shape"/>
</filter>
<filter id="filter1_dd_1005_171387" x="540" y="264" width="296" height="202" filterUnits="userSpaceOnUse" color-interpolation-filters="sRGB">
<feFlood flood-opacity="0" result="BackgroundImageFix"/>
<feColorMatrix in="SourceAlpha" type="matrix" values="0 0 0 0 0 0 0 0 0 0 0 0 0 0 0 0 0 0 127 0" result="hardAlpha"/>
<feOffset dy="1"/>
<feGaussianBlur stdDeviation="1"/>
<feColorMatrix type="matrix" values="0 0 0 0 0 0 0 0 0 0 0 0 0 0 0 0 0 0 0.06 0"/>
<feBlend mode="normal" in2="BackgroundImageFix" result="effect1_dropShadow_1005_171387"/>
<feColorMatrix in="SourceAlpha" type="matrix" values="0 0 0 0 0 0 0 0 0 0 0 0 0 0 0 0 0 0 127 0" result="hardAlpha"/>
<feOffset dy="1"/>
<feGaussianBlur stdDeviation="1.5"/>
<feColorMatrix type="matrix" values="0 0 0 0 0 0 0 0 0 0 0 0 0 0 0 0 0 0 0.1 0"/>
<feBlend mode="normal" in2="effect1_dropShadow_1005_171387" result="effect2_dropShadow_1005_171387"/>
<feBlend mode="normal" in="SourceGraphic" in2="effect2_dropShadow_1005_171387" result="shape"/>
</filter>
<filter id="filter2_dd_1005_171387" x="226" y="264" width="296" height="202" filterUnits="userSpaceOnUse" color-interpolation-filters="sRGB">
<feFlood flood-opacity="0" result="BackgroundImageFix"/>
<feColorMatrix in="SourceAlpha" type="matrix" values="0 0 0 0 0 0 0 0 0 0 0 0 0 0 0 0 0 0 127 0" result="hardAlpha"/>
<feOffset dy="1"/>
<feGaussianBlur stdDeviation="1"/>
<feColorMatrix type="matrix" values="0 0 0 0 0 0 0 0 0 0 0 0 0 0 0 0 0 0 0.06 0"/>
<feBlend mode="normal" in2="BackgroundImageFix" result="effect1_dropShadow_1005_171387"/>
<feColorMatrix in="SourceAlpha" type="matrix" values="0 0 0 0 0 0 0 0 0 0 0 0 0 0 0 0 0 0 127 0" result="hardAlpha"/>
<feOffset dy="1"/>
<feGaussianBlur stdDeviation="1.5"/>
<feColorMatrix type="matrix" values="0 0 0 0 0 0 0 0 0 0 0 0 0 0 0 0 0 0 0.1 0"/>
<feBlend mode="normal" in2="effect1_dropShadow_1005_171387" result="effect2_dropShadow_1005_171387"/>
<feBlend mode="normal" in="SourceGraphic" in2="effect2_dropShadow_1005_171387" result="shape"/>
</filter>
</defs>
</svg>
