<svg width="16" height="16" viewBox="0 0 16 16" fill="none" xmlns="http://www.w3.org/2000/svg">
<path d="M8.70538 8.7041L14.9962 8.7091C15.1843 8.7091 15.3648 8.63434 15.4979 8.50128C15.6309 8.36822 15.7057 8.18775 15.7057 7.99957C15.7057 7.8114 15.6309 7.63093 15.4979 7.49786C15.3648 7.3648 15.1843 7.29005 14.9962 7.29005L8.70538 7.29505L8.71038 1.00427C8.71038 0.816093 8.63562 0.635623 8.50256 0.502562C8.3695 0.3695 8.18903 0.294747 8.00085 0.294747C7.81268 0.294747 7.63221 0.3695 7.49914 0.502562C7.36608 0.635623 7.29133 0.816093 7.29133 1.00427L7.29633 7.29505L1.00555 7.29005C0.912267 7.28967 0.819832 7.30776 0.733576 7.34328C0.64732 7.3788 0.56895 7.43105 0.502989 7.49701C0.437027 7.56297 0.384779 7.64134 0.349257 7.7276C0.313736 7.81385 0.295645 7.90629 0.296028 7.99957C0.295645 8.09286 0.313736 8.18529 0.349257 8.27155C0.384778 8.3578 0.437027 8.43617 0.502989 8.50213C0.568951 8.5681 0.64732 8.62035 0.733575 8.65587C0.819832 8.69139 0.912268 8.70948 1.00555 8.7091L7.29633 8.7041L7.29133 14.9949C7.29095 15.0882 7.30904 15.1806 7.34456 15.2669C7.38008 15.3531 7.43233 15.4315 7.49829 15.4974C7.56425 15.5634 7.64262 15.6156 7.72888 15.6512C7.81513 15.6867 7.90757 15.7048 8.00085 15.7044C8.09414 15.7048 8.18657 15.6867 8.27283 15.6512C8.35909 15.6156 8.43745 15.5634 8.50342 15.4974C8.56938 15.4315 8.62163 15.3531 8.65715 15.2669C8.69267 15.1806 8.71076 15.0882 8.71038 14.9949L8.70538 8.7041Z" fill="#434343"/>
</svg>
