<svg width="92" height="41" viewBox="0 0 92 41" fill="none" xmlns="http://www.w3.org/2000/svg">
<path d="M90.956 22.8303H89.7917C89.6623 22.8303 89.5976 22.8303 89.5329 22.895L88.5627 23.4772C87.7865 23.9299 86.8809 24.1887 85.9754 24.1887H57.9029C57.7089 22.4422 57.3208 20.8252 56.674 19.3375L62.9482 18.1732C63.1423 18.1085 63.3363 18.0438 63.4657 17.9144L64.5006 17.0735C64.7593 16.8795 64.63 16.4914 64.3066 16.4914H55.1216C53.3751 13.9688 50.9172 12.1576 48.1358 11.5108L46.7775 1.67898C46.7128 1.2262 46.454 0.967468 46.1306 0.967468H45.9366H45.7425C45.4191 0.967468 45.1604 1.29088 45.0957 1.67898L43.7373 11.5108C40.956 12.1576 38.498 13.9688 36.7516 16.4914H27.6959C27.3725 16.4914 27.2432 16.8795 27.5019 17.0735L28.5368 17.9144C28.6662 18.0438 28.8602 18.1085 29.0543 18.1732L35.1992 19.3375C34.5524 20.8252 34.1642 22.5069 33.9702 24.1887H6.02713C5.12156 24.1887 4.216 23.9299 3.4398 23.4772L2.46956 22.895C2.40487 22.8303 2.27551 22.8303 2.21083 22.8303H1.04653C0.723117 22.8303 0.593749 23.2184 0.852482 23.4125L3.82791 25.9998C4.6041 26.7113 5.57435 27.0994 6.60927 27.2935L16.9586 28.6518C15.9236 29.4927 15.2768 30.7864 15.2768 32.2094C15.2768 34.732 17.3467 36.8019 19.8693 36.8019C22.3919 36.8019 24.4618 34.732 24.4618 32.2094C24.4618 31.2391 24.1384 30.3336 23.6209 29.5574L34.5524 30.9804C36.2341 36.6725 40.6326 40.8122 45.8719 40.8122C51.1112 40.8122 55.5743 36.7372 57.1914 31.0451L68.2522 29.5574C67.7348 30.3336 67.4113 31.2391 67.4113 32.2094C67.4113 34.732 69.4812 36.8019 72.0038 36.8019C74.5265 36.8019 76.5963 34.732 76.5963 32.2094C76.5963 30.7864 75.9495 29.4927 74.9146 28.6518L85.2639 27.2935C86.2988 27.1641 87.269 26.7113 88.0452 25.9998L91.0207 23.4125C91.4088 23.1538 91.2794 22.8303 90.956 22.8303ZM19.8693 34.538C18.5756 34.538 17.476 33.4384 17.476 32.1447C17.476 30.851 18.5756 29.7514 19.8693 29.7514C21.163 29.7514 22.2626 30.851 22.2626 32.1447C22.2626 33.4384 21.2276 34.538 19.8693 34.538ZM52.1461 22.3129H45.8719H39.5976C38.8861 22.3129 38.4333 21.6014 38.6921 20.9545C39.4036 19.2728 41.2794 16.4914 45.8719 16.4914C50.4644 16.4914 52.3402 19.2081 53.0517 20.9545C53.3751 21.6014 52.8577 22.3129 52.1461 22.3129ZM72.1332 34.538C70.8395 34.538 69.7399 33.4384 69.7399 32.1447C69.7399 30.851 70.8395 29.7514 72.1332 29.7514C73.4269 29.7514 74.5265 30.851 74.5265 32.1447C74.5265 33.4384 73.4269 34.538 72.1332 34.538Z" fill="#08979C"/>
</svg>
