<svg width="82" height="82" viewBox="0 0 82 82" fill="none" xmlns="http://www.w3.org/2000/svg">
<rect width="82" height="82" rx="41" fill="#E6F5F5"/>
<path d="M54.6401 52.1875C53.8836 53.0669 53.0606 53.8868 52.1787 54.6403L62.31 64.7629C62.6377 65.079 63.075 65.2564 63.5303 65.2579C63.9857 65.2596 64.4239 65.0854 64.754 64.7715C65.0807 64.4477 65.265 64.0071 65.2667 63.547C65.2684 63.087 65.0869 62.6452 64.7626 62.319L54.6401 52.1875Z" fill="#08979C"/>
<path d="M37.5324 58.3422C43.0488 58.3422 48.3393 56.1508 52.2402 52.25C56.1411 48.3493 58.3324 43.0585 58.3324 37.5422C58.3324 32.0259 56.1411 26.7353 52.2402 22.8344C48.3395 18.9336 43.0488 16.7422 37.5324 16.7422C32.0161 16.7422 26.7255 18.9336 22.8247 22.8344C18.9238 26.7351 16.7324 32.0259 16.7324 37.5422C16.7397 43.0564 18.9336 48.3426 22.8329 52.2417C26.732 56.1409 32.0183 58.3348 37.5324 58.3422ZM32.9998 19.0215C33.2227 18.9692 33.457 19.0063 33.6528 19.1244C33.8488 19.2426 33.9908 19.4327 34.0485 19.6541C34.1032 19.8782 34.0663 20.115 33.946 20.3119C33.8254 20.5088 33.6316 20.6494 33.4072 20.7027C29.6918 21.6078 26.3815 23.7195 23.9947 26.707C21.6078 29.6945 20.2791 33.3894 20.2164 37.2127L23.1631 35.1067V35.1068C23.3045 35.0027 23.4746 34.9452 23.6501 34.9421C23.8255 34.9391 23.9976 34.9905 24.1425 35.0894L25.5119 35.9994C25.8828 33.0732 27.3084 30.383 29.5214 28.4325C31.7344 26.4824 34.5827 25.4065 37.5324 25.4065C40.4821 25.4065 43.3304 26.4824 45.5435 28.4325C47.7565 30.3829 49.1821 33.0731 49.553 35.9994L50.9224 35.0894C51.0681 34.9926 51.2398 34.9423 51.4148 34.9453C51.5897 34.9486 51.7596 35.0048 51.9018 35.1068L54.8484 37.2041C54.7582 32.6697 52.8949 28.3506 49.6575 25.1734C46.4206 21.9964 42.0677 20.2139 37.532 20.2087C37.2224 20.2087 36.9364 20.0435 36.7815 19.7754C36.6266 19.5073 36.6266 19.1769 36.7815 18.9087C36.9364 18.6406 37.2224 18.4754 37.532 18.4754C42.391 18.4761 47.0662 20.3316 50.6031 23.6633C54.14 26.9949 56.2715 31.5508 56.5623 36.4011C56.8529 41.2514 55.2811 46.0293 52.1674 49.7595C49.054 53.4897 44.6339 55.8907 39.81 56.4718C34.9862 57.0527 30.122 55.7703 26.212 52.8862C22.3019 50.0019 19.6401 45.734 18.7708 40.953C17.9015 36.1725 18.89 31.2407 21.5345 27.1643C24.179 23.0883 28.2798 20.1755 32.9997 19.0211L32.9998 19.0215Z" fill="#08979C"/>
<path d="M37.5324 54.8774C41.8267 54.8726 45.9668 53.2761 49.1523 50.3963C52.3378 47.5165 54.3427 43.5583 54.7791 39.286L51.3819 36.8594L49.6399 38.0208H49.6397C49.5213 41.1526 48.1938 44.1165 45.9363 46.2905C43.6787 48.4643 40.6665 49.6788 37.5326 49.6788C34.3988 49.6788 31.3862 48.4643 29.129 46.2905C26.8714 44.1167 25.544 41.1529 25.4255 38.0208L23.6836 36.8594L20.2861 39.286C20.7227 43.5581 22.7275 47.5163 25.913 50.3963C29.0985 53.2761 33.2385 54.8726 37.5328 54.8774H37.5324Z" fill="#08979C"/>
<path d="M37.532 47.9409C40.2902 47.9409 42.9356 46.8452 44.8861 44.8949C46.8364 42.9443 47.9321 40.2994 47.9321 37.5408C47.9321 34.7822 46.8364 32.1371 44.8861 30.1867C42.9355 28.2363 40.2906 27.1406 37.532 27.1406C34.7734 27.1406 32.1283 28.2363 30.1779 30.1867C28.2275 32.1372 27.1318 34.7822 27.1318 37.5408C27.1342 40.2984 28.2306 42.9423 30.1804 44.8923C32.1304 46.8421 34.7742 47.9385 37.5319 47.9408L37.532 47.9409ZM33.1986 34.0742C33.2012 33.076 33.5472 32.109 34.1784 31.3358C34.8097 30.5624 35.6877 30.0298 36.6653 29.8276V29.7409C36.6653 29.4313 36.8305 29.1452 37.0986 28.9904C37.3668 28.8355 37.6972 28.8355 37.9653 28.9904C38.2334 29.1452 38.3986 29.4313 38.3986 29.7409V29.8276C39.3762 30.0298 40.2542 30.5624 40.8856 31.3358C41.5168 32.109 41.8628 33.076 41.8653 34.0742C41.8653 34.3838 41.7001 34.6699 41.432 34.8248C41.1638 34.9796 40.8334 34.9796 40.5653 34.8248C40.2972 34.6699 40.132 34.3838 40.132 34.0742C40.1293 33.5381 39.9613 33.0159 39.6512 32.5785C39.341 32.1413 38.9037 31.8101 38.3986 31.6303V36.7609C39.7149 37.0282 40.8329 37.8908 41.4254 39.0962C42.0178 40.3016 42.0178 41.7136 41.4254 42.919C40.8329 44.1244 39.7149 44.987 38.3986 45.2543V45.341C38.3986 45.6506 38.2334 45.9366 37.9653 46.0915C37.6972 46.2464 37.3668 46.2464 37.0986 46.0915C36.8305 45.9366 36.6653 45.6505 36.6653 45.341V45.2543C35.6877 45.052 34.8098 44.5195 34.1784 43.7461C33.5472 42.9729 33.2011 42.0058 33.1986 41.0076C33.1986 40.698 33.3638 40.412 33.632 40.2571C33.9001 40.1022 34.2305 40.1022 34.4986 40.2571C34.7668 40.412 34.932 40.6981 34.932 41.0076C34.9347 41.5437 35.1026 42.0659 35.4127 42.5033C35.723 42.9406 36.1602 43.2718 36.6653 43.4516V38.3209C35.6877 38.1186 34.8098 37.5861 34.1784 36.8127C33.5472 36.0395 33.2011 35.0724 33.1986 34.0743V34.0742Z" fill="#08979C"/>
<path d="M40.1327 41.0104C40.13 40.4743 39.9621 39.9521 39.652 39.5147C39.3417 39.0774 38.9045 38.7462 38.3994 38.5664V43.4544V43.4542C38.9045 43.2745 39.3417 42.9432 39.652 42.506C39.9621 42.0686 40.13 41.5464 40.1327 41.0103V41.0104Z" fill="#08979C"/>
<path d="M36.6661 31.6328C35.9863 31.8708 35.4365 32.3813 35.1486 33.0415C34.8606 33.7017 34.8606 34.4519 35.1486 35.112C35.4365 35.7721 35.9863 36.2827 36.6661 36.5207V31.6328Z" fill="#08979C"/>
</svg>
