<svg width="11" height="7" viewBox="0 0 11 7" fill="none" xmlns="http://www.w3.org/2000/svg">
<path d="M5.53145 4.30222L9.5387 0.297222C9.6486 0.188763 9.7968 0.127953 9.9512 0.127953C10.1056 0.127953 10.2538 0.188763 10.3637 0.297222L10.7147 0.648224C10.8233 0.758029 10.8843 0.906255 10.8843 1.06072C10.8843 1.21519 10.8233 1.36342 10.7147 1.47322L5.9447 6.24322C5.83404 6.35282 5.68458 6.41431 5.52883 6.41431C5.37307 6.41431 5.22362 6.35282 5.11295 6.24322L0.350453 1.47772C0.241994 1.36782 0.181181 1.21963 0.181181 1.06522C0.181181 0.910817 0.241994 0.762621 0.350453 0.652721L0.701452 0.30172C0.811257 0.19308 0.959487 0.132147 1.11395 0.132147C1.26842 0.132147 1.41665 0.19308 1.52645 0.30172L5.53145 4.30222Z" fill="black"/>
</svg>
