<svg width="82" height="82" viewBox="0 0 82 82" fill="none" xmlns="http://www.w3.org/2000/svg">
<rect width="82" height="82" rx="41" fill="#E6F5F5"/>
<g clip-path="url(#clip0_964_183958)">
<path d="M65.8483 56.2158L51.5406 27.6004C50.9346 26.3884 48.947 26.3884 48.3409 27.6004L34.0332 56.2158C33.7564 56.7704 33.786 57.4288 34.1119 57.9562C34.4375 58.4827 35.013 58.804 35.633 58.804H64.2484C64.8684 58.804 65.4438 58.4827 65.7697 57.956C66.0953 57.4288 66.125 56.7703 65.8483 56.2158ZM49.9939 55.3067C49.0062 55.3067 48.1967 54.506 48.1967 53.5183C48.1967 52.5305 48.9888 51.7298 49.9764 51.7298H49.9939C50.9824 51.7298 51.7824 52.5305 51.7824 53.5183C51.7824 54.506 50.9825 55.3067 49.9939 55.3067ZM51.6943 48.5063C51.5257 49.3413 50.792 49.9411 49.9406 49.9411C49.0892 49.9411 48.3556 49.3413 48.187 48.5063L46.3985 39.6436C46.2929 39.1179 46.4281 38.572 46.768 38.1573C47.1078 37.7424 47.616 37.5016 48.1521 37.5016H51.729C52.2652 37.5016 52.7734 37.7426 53.1132 38.1573C53.4528 38.5722 53.5883 39.1179 53.4827 39.6436L51.6943 48.5063Z" fill="#08979C"/>
<path d="M36.8711 21.3263L39.5537 15.9609H26.3516L29.0343 21.3263H36.8711Z" fill="#08979C"/>
<path d="M32.5926 58.8971C31.9369 57.8343 31.8775 56.5341 32.4354 55.417L46.7431 26.8007C47.3283 25.6307 48.5543 24.9032 49.9428 24.9032V17.7494C49.9428 16.7616 49.1421 15.9609 48.1543 15.9609H41.5532L38.2233 22.6207C38.0713 22.9238 37.7623 23.1151 37.4234 23.1151H28.4811C28.1422 23.1151 27.8331 22.9238 27.6812 22.6209L24.3515 15.9611H17.7504C16.7626 15.9611 15.9619 16.7618 15.9619 17.7496V64.2496C15.9619 65.2374 16.7626 66.0381 17.7504 66.0381H48.1542C49.142 66.0381 49.9427 65.2374 49.9427 64.2496V60.5931H35.635C34.3872 60.5931 33.2493 59.9591 32.5926 58.8972L32.5926 58.8971ZM27.9574 52.9947L24.3805 56.5716C24.0312 56.9209 23.5734 57.0955 23.1159 57.0955C22.6583 57.0955 22.2006 56.9207 21.8512 56.5714L20.0628 54.783C19.3642 54.0844 19.3642 52.9526 20.0628 52.254C20.7614 51.5554 21.8932 51.5554 22.5918 52.254L23.1158 52.778L25.4283 50.4655C26.1269 49.7669 27.2587 49.7669 27.9573 50.4655C28.6559 51.1641 28.6559 52.2961 27.9573 52.9947H27.9574ZM27.9574 42.2639L24.3805 45.8408C24.0312 46.1901 23.5734 46.3647 23.1159 46.3647C22.6583 46.3647 22.2006 46.1899 21.8512 45.8406L20.0628 44.0522C19.3642 43.3536 19.3642 42.2218 20.0628 41.5232C20.7614 40.8246 21.8932 40.8246 22.5918 41.5232L23.1158 42.0472L25.4283 39.7347C26.1269 39.0361 27.2587 39.0361 27.9573 39.7347C28.6559 40.4333 28.6559 41.5653 27.9573 42.2639H27.9574ZM27.9574 31.5331L24.3805 35.1101C24.0312 35.4594 23.5734 35.6339 23.1159 35.6339C22.6583 35.6339 22.2006 35.4592 21.8512 35.1099L20.0628 33.3214C19.3642 32.6228 19.3642 31.491 20.0628 30.7924C20.7614 30.0938 21.8932 30.0938 22.5918 30.7924L23.1158 31.3165L25.4283 29.004C26.1269 28.3054 27.2587 28.3054 27.9573 29.004C28.6559 29.7026 28.6559 30.8345 27.9573 31.5331H27.9574Z" fill="#08979C"/>
</g>
<defs>
<clipPath id="clip0_964_183958">
<rect width="57.2308" height="57.2308" fill="white" transform="translate(12.3848 12.3828)"/>
</clipPath>
</defs>
</svg>
