<svg width="60" height="42" viewBox="0 0 60 42" fill="none" xmlns="http://www.w3.org/2000/svg">
<path d="M45.3755 23.4187H43.0194L40.5394 16.4747C40.2294 15.4828 39.2994 14.8008 38.3075 14.6766C35.5794 14.4286 32.7895 14.3047 30.0615 14.3047C27.3335 14.3047 24.5435 14.4286 21.8155 14.6766C20.6996 14.8006 19.8316 15.4825 19.4596 16.4745L16.9796 23.4185H14.6235C14.1896 23.4185 13.8174 23.7905 13.8174 24.2246V26.0846C13.8174 26.5185 14.1893 26.8907 14.6235 26.8907H15.7396C15.4915 27.5726 15.3676 28.3168 15.3676 28.9987V35.6947C15.3676 36.2528 15.7396 36.7486 16.2357 36.9347V40.6547C16.2357 41.3367 16.7937 41.9567 17.5376 41.9567H20.2037C20.8857 41.9567 21.5057 41.3986 21.5057 40.6547V36.9967H38.4317V40.6547C38.4317 41.3367 38.9897 41.9567 39.7336 41.9567H42.3997C43.0817 41.9567 43.7017 41.3986 43.7017 40.6547V36.9347C44.0117 36.8108 44.2597 36.6247 44.4456 36.3147C44.5695 36.1287 44.6317 35.9428 44.6317 35.6947L44.6315 28.9987C44.6315 28.2549 44.5075 27.5726 44.2595 26.8907H45.3756C45.8095 26.8907 46.1817 26.5187 46.1817 26.0846V24.2246C46.1195 23.7907 45.8095 23.4187 45.3756 23.4187H45.3755ZM22.4355 17.9007C24.9155 17.6527 27.5194 17.5907 29.9995 17.5907C32.4796 17.5907 35.0834 17.7146 37.5635 17.9007L39.9816 24.6587H20.0176L22.4355 17.9007ZM24.6675 31.6647C24.6675 32.3466 24.1094 32.9047 23.4275 32.9047H20.3894C19.7075 32.9047 19.1494 32.3466 19.1494 31.6647V30.7966C19.1494 30.1147 19.7075 29.5566 20.3894 29.5566H23.4275C24.1094 29.5566 24.6675 30.1147 24.6675 30.7966V31.6647ZM40.8495 31.6647C40.8495 32.3466 40.2914 32.9047 39.6095 32.9047H36.5714C35.8895 32.9047 35.3314 32.3466 35.3314 31.6647V30.7966C35.3314 30.1147 35.8895 29.5566 36.5714 29.5566H39.6095C40.2914 29.5566 40.8495 30.1147 40.8495 30.7966V31.6647Z" fill="#08979C"/>
<path d="M23.242 4.44576C25.04 2.64771 27.4581 1.65576 30 1.65576C32.5419 1.65576 34.96 2.64771 36.758 4.44576C36.8819 4.56968 37.068 4.6938 37.316 4.6938C37.5641 4.6938 37.688 4.63185 37.8741 4.44576C38.1841 4.13576 38.1841 3.70187 37.8741 3.39187C35.766 1.28381 32.976 0.167969 30.0621 0.167969C27.086 0.167969 24.2961 1.34602 22.2501 3.39187C21.9401 3.70187 21.9401 4.13576 22.2501 4.44576C22.436 4.75576 22.9318 4.75576 23.2418 4.44576H23.242Z" fill="#08979C"/>
<path d="M34.9595 6.987C35.1456 6.987 35.3314 6.92504 35.5175 6.80092C35.8275 6.49092 35.8275 6.05702 35.5175 5.74702C34.0914 4.25897 32.0456 3.45312 29.9995 3.45312C27.8915 3.45312 25.9695 4.25923 24.4815 5.74702C24.1715 6.05702 24.1715 6.49092 24.4815 6.80092C24.7915 7.11092 25.2254 7.11092 25.5354 6.80092C26.7135 5.62287 28.3254 4.94092 29.9993 4.94092C31.6732 4.94092 33.2854 5.62287 34.4013 6.80092C34.5875 6.92504 34.7734 6.987 34.9595 6.987Z" fill="#08979C"/>
<path d="M32.6659 9.28175C32.852 9.28175 33.0379 9.21979 33.224 9.03371C33.534 8.72371 33.534 8.28981 33.224 7.97981C31.4879 6.24371 28.574 6.24371 26.838 7.97981C26.528 8.28981 26.528 8.72371 26.838 9.03371C27.148 9.34371 27.5819 9.34371 27.8919 9.03371C29.008 7.91761 30.9919 7.91761 32.1699 9.03371C32.2938 9.21979 32.4799 9.28175 32.666 9.28175H32.6659Z" fill="#08979C"/>
<path d="M31.2398 11.2029C31.2398 11.8879 30.6846 12.4429 29.9998 12.4429C29.315 12.4429 28.7598 11.8879 28.7598 11.2029C28.7598 10.5181 29.315 9.96289 29.9998 9.96289C30.6846 9.96289 31.2398 10.5181 31.2398 11.2029Z" fill="#08979C"/>
<path d="M2.0378 30.3614C2.0378 27.8194 3.02975 25.4014 4.82781 23.6034C5.1378 23.2934 5.1378 22.8595 4.82781 22.5495C4.57976 22.2395 4.0837 22.2395 3.7737 22.4875C1.66565 24.5956 0.549805 27.3856 0.549805 30.2995C0.549805 33.2756 1.72786 36.0655 3.7737 38.1115C3.89762 38.2354 4.0837 38.3596 4.33175 38.3596C4.51784 38.3596 4.70371 38.2976 4.8898 38.1115C5.1998 37.8015 5.1998 37.3676 4.8898 37.0576C3.0298 35.3215 2.03786 32.9035 2.03786 30.3616L2.0378 30.3614Z" fill="#08979C"/>
<path d="M5.32373 30.3616C5.32373 28.6877 6.00568 27.0755 7.18373 25.8977C7.49373 25.5877 7.49373 25.1538 7.18373 24.8438C6.87373 24.5338 6.43983 24.5338 6.12983 24.8438C4.64178 26.2699 3.83594 28.3158 3.83594 30.3618C3.83594 32.4699 4.64204 34.3918 6.12983 35.8798C6.25375 36.0037 6.43983 36.1279 6.68789 36.1279C6.93594 36.1279 7.05984 36.0659 7.24594 35.8798C7.55594 35.5698 7.55594 35.1359 7.24594 34.8259C6.00594 33.5857 5.32373 32.0357 5.32373 30.3616Z" fill="#08979C"/>
<path d="M9.47792 27.1368C9.16792 26.8268 8.73402 26.8268 8.42402 27.1368C7.55597 28.0048 7.12207 29.1207 7.12207 30.3607C7.12207 31.5387 7.61815 32.7168 8.42402 33.5846C8.54794 33.7085 8.73402 33.8326 8.98207 33.8326C9.16815 33.8326 9.35403 33.7707 9.54012 33.5846C9.85012 33.2746 9.85012 32.8407 9.54012 32.5307C8.98207 31.9726 8.67207 31.2287 8.67207 30.4226C8.67207 29.6165 8.98207 28.8726 9.54012 28.3146C9.78796 27.9426 9.78796 27.4467 9.47796 27.1367L9.47792 27.1368Z" fill="#08979C"/>
<path d="M12.8882 30.3611C12.8882 31.0459 12.333 31.6011 11.6482 31.6011C10.9634 31.6011 10.4082 31.0459 10.4082 30.3611C10.4082 29.6763 10.9634 29.1211 11.6482 29.1211C12.333 29.1211 12.8882 29.6763 12.8882 30.3611Z" fill="#08979C"/>
<path d="M56.2258 22.4884C55.9158 22.1784 55.482 22.1784 55.172 22.4884C54.862 22.7984 54.862 23.2323 55.172 23.5423C56.97 25.3403 57.962 27.7584 57.962 30.3003C57.962 32.8422 56.97 35.2603 55.172 37.0583C54.862 37.3683 54.862 37.8022 55.172 38.1122C55.2959 38.2361 55.482 38.3602 55.73 38.3602C55.9161 38.3602 56.102 38.2982 56.2881 38.1122C58.3961 36.0041 59.512 33.276 59.512 30.3002C59.4498 27.3863 58.2717 24.5962 56.2258 22.4882V22.4884Z" fill="#08979C"/>
<path d="M53.8694 24.8438C53.5594 24.5338 53.0633 24.5338 52.8155 24.8438C52.5055 25.1538 52.5055 25.5877 52.8155 25.8977C53.9936 27.0758 54.6755 28.6877 54.6755 30.3616C54.6755 32.0355 53.9936 33.6477 52.8155 34.8255C52.5055 35.1355 52.5055 35.5694 52.8155 35.8794C52.9394 36.0033 53.1255 36.1275 53.3736 36.1275C53.6216 36.1275 53.7455 36.0655 53.9316 35.8794C55.4197 34.3914 56.2255 32.4694 56.2255 30.3614C56.1633 28.2538 55.3575 26.2699 53.8694 24.8439V24.8438Z" fill="#08979C"/>
<path d="M51.5755 27.1368C51.2655 26.8268 50.8316 26.8268 50.5216 27.1368C50.2116 27.4468 50.2116 27.8807 50.5216 28.1907C51.0796 28.7487 51.3896 29.4926 51.3896 30.2987C51.3896 31.1049 51.0796 31.8487 50.5216 32.4068C50.2116 32.7168 50.2116 33.1507 50.5216 33.4607C50.6455 33.5846 50.8316 33.7087 51.0796 33.7087C51.3277 33.7087 51.4516 33.6468 51.6377 33.4607C52.5057 32.5926 52.9396 31.4768 52.9396 30.2368C52.8775 29.1207 52.4433 28.0048 51.5755 27.1368H51.5755Z" fill="#08979C"/>
<path d="M49.5913 30.3611C49.5913 31.0459 49.0361 31.6011 48.3513 31.6011C47.6665 31.6011 47.1113 31.0459 47.1113 30.3611C47.1113 29.6763 47.6665 29.1211 48.3513 29.1211C49.0361 29.1211 49.5913 29.6763 49.5913 30.3611Z" fill="#08979C"/>
</svg>
