<svg width="66" height="45" viewBox="0 0 66 45" fill="none" xmlns="http://www.w3.org/2000/svg">
<path d="M52.8572 28.861C51.5635 28.861 50.5286 27.8261 50.5286 26.5324C50.5286 26.5324 50.5286 26.5324 50.5286 26.4677C50.5286 26.209 50.3346 26.015 50.0758 26.015C49.8171 26.015 49.623 26.209 49.623 26.4677C49.623 26.4677 49.623 26.4677 49.623 26.5324C49.623 28.3435 51.1108 29.7666 52.8572 29.7666C53.1159 29.7666 53.31 29.5725 53.31 29.3138C53.31 29.0551 53.1159 28.861 52.8572 28.861Z" fill="#08979C"/>
<path d="M13.0759 29.7666C11.2648 29.7666 9.8418 28.2789 9.8418 26.5324C9.8418 26.5324 9.8418 26.5324 9.8418 26.4677C9.8418 26.209 10.0358 26.015 10.2946 26.015C10.5533 26.015 10.7474 26.209 10.7474 26.4677C10.7474 26.4677 10.7474 26.4677 10.7474 26.5324C10.7474 27.8261 11.7823 28.861 13.0759 28.861C13.3347 28.861 13.5287 29.0551 13.5287 29.3138C13.5287 29.5725 13.27 29.7666 13.0759 29.7666Z" fill="#08979C"/>
<path d="M62.818 14.631H59.5192C58.3549 14.631 57.32 15.3425 56.8672 16.3774L52.3394 2.6646C51.8866 1.30626 50.6576 0.400696 49.2346 0.400696H32.9992H16.699C15.276 0.400696 14.047 1.30626 13.5942 2.6646L9.06643 16.3774C8.61364 15.3425 7.6434 14.631 6.41442 14.631H3.11559C1.56319 14.631 0.269531 15.9246 0.269531 17.477C0.269531 19.0294 1.56319 20.3231 3.11559 20.3231H5.96164L5.18544 21.0993C5.18544 21.0993 3.18027 23.0398 3.18027 26.0799V39.4046C3.18027 39.9867 3.439 40.4395 3.89178 40.7629V41.7978C3.89178 43.4796 5.25012 44.7733 6.8672 44.7733H12.818C14.4998 44.7733 15.7935 43.4149 15.7935 41.7978V41.0863H32.9992H50.1402V42.4447C50.1402 43.7383 51.1751 44.8379 52.5334 44.8379H59.7133C61.0069 44.8379 62.1065 43.803 62.1065 42.4447V40.8276C62.5593 40.5042 62.818 40.0514 62.818 39.4693V26.1445C62.818 23.1044 60.8129 21.164 60.8129 21.164L60.0367 20.3878H62.8827C64.4351 20.3878 65.7288 19.0941 65.7288 17.5417C65.6641 15.8599 64.4351 14.631 62.818 14.631ZM15.9875 4.66978C16.1816 4.02295 16.8284 3.57016 17.5399 3.57016H33.0638H48.5878C49.2993 3.57016 49.8814 4.02295 50.1402 4.66978L54.4739 17.6064L33.2579 16.5715C33.1285 16.5715 33.0638 16.5715 32.9345 16.5715L11.7184 17.6064L15.9875 4.66978ZM13.0768 30.2843C10.9422 30.2843 9.26048 28.6025 9.26048 26.468C9.26048 24.3334 10.9422 22.6517 13.0768 22.6517C15.2113 22.6517 16.8931 24.3334 16.8931 26.468C16.8931 28.6025 15.2113 30.2843 13.0768 30.2843ZM42.5076 29.1847H23.5554C23.232 29.1847 23.038 28.9259 23.038 28.6672C23.038 28.4085 23.2967 28.1497 23.5554 28.1497H42.5076C42.831 28.1497 43.025 28.4085 43.025 28.6672C43.025 28.9259 42.7663 29.1847 42.5076 29.1847ZM42.5076 27.5029H23.5554C23.232 27.5029 23.038 27.2442 23.038 26.9854C23.038 26.7267 23.2967 26.468 23.5554 26.468H42.5076C42.831 26.468 43.025 26.7267 43.025 26.9854C43.025 27.2442 42.7663 27.5029 42.5076 27.5029ZM42.5076 25.7565H23.5554C23.232 25.7565 23.038 25.4977 23.038 25.239C23.038 24.9803 23.2967 24.7215 23.5554 24.7215H42.5076C42.831 24.7215 43.025 24.9803 43.025 25.239C43.025 25.4977 42.7663 25.7565 42.5076 25.7565ZM52.9215 30.2843C50.787 30.2843 49.1052 28.6025 49.1052 26.468C49.1052 24.3334 50.787 22.6517 52.9215 22.6517C55.0561 22.6517 56.7378 24.3334 56.7378 26.468C56.7378 28.6025 54.9914 30.2843 52.9215 30.2843Z" fill="#08979C"/>
</svg>
