<svg width="48" height="48" viewBox="0 0 48 48" fill="none" xmlns="http://www.w3.org/2000/svg">
<g clip-path="url(#clip0_157342_200265)">
<path d="M23.8474 46.777C36.4268 46.777 46.6245 36.5794 46.6245 24C46.6245 11.4205 36.4268 1.2229 23.8474 1.2229C11.268 1.2229 1.07031 11.4205 1.07031 24C1.07031 36.5794 11.268 46.777 23.8474 46.777Z" fill="white"/>
<path d="M23.847 47.6332C36.8992 47.6332 47.4801 37.0523 47.4801 24.0001C47.4801 10.9479 36.8992 0.366943 23.847 0.366943C10.7948 0.366943 0.213867 10.9479 0.213867 24.0001C0.213867 37.0523 10.7948 47.6332 23.847 47.6332Z" stroke="#006D75" stroke-width="0.305733" stroke-miterlimit="10" stroke-dasharray="0.61 0.61"/>
<path d="M34.4253 27.3324C33.7221 27.3324 33.1718 26.7821 33.1718 26.0789C33.1718 26.0789 33.1718 26.0789 33.1718 26.0483C33.1718 25.926 33.0801 25.8037 32.9272 25.8037C32.8049 25.8037 32.6826 25.8954 32.6826 26.0483C32.6826 26.0483 32.6826 26.0483 32.6826 26.0789C32.6826 27.0266 33.447 27.8215 34.4253 27.8215C34.5476 27.8215 34.6699 27.7298 34.6699 27.577C34.6393 27.4547 34.5476 27.3324 34.4253 27.3324Z" fill="#006D75"/>
<path d="M13.2378 27.8215C12.29 27.8215 11.4951 27.0572 11.4951 26.0789C11.4951 26.0789 11.4951 26.0789 11.4951 26.0483C11.4951 25.926 11.5868 25.8037 11.7397 25.8037C11.862 25.8037 11.9843 25.8954 11.9843 26.0483C11.9843 26.0483 11.9843 26.0483 11.9843 26.0789C11.9843 26.7821 12.5346 27.3324 13.2378 27.3324C13.3601 27.3324 13.4824 27.4241 13.4824 27.577C13.4824 27.6993 13.3601 27.8215 13.2378 27.8215Z" fill="#006D75"/>
<path d="M39.7139 19.7503H37.9712C37.3292 19.7503 36.8094 20.1477 36.5648 20.698L34.1496 13.4216C33.905 12.7184 33.2629 12.2292 32.4986 12.2292H23.8464H15.1636C14.4298 12.2292 13.7572 12.7184 13.5126 13.4216L11.0973 20.698C10.8833 20.1477 10.333 19.7503 9.69096 19.7503H7.94828C7.12281 19.7503 6.4502 20.4229 6.4502 21.2484C6.4502 22.0738 7.12281 22.7464 7.94828 22.7464H9.47695L9.04892 23.1745C9.04892 23.1745 7.97886 24.1834 7.97886 25.8038V32.8968C7.97886 33.2025 8.13173 33.4471 8.34574 33.5999V34.1503C8.34574 35.0369 9.04892 35.7401 9.93555 35.7401H13.1457C14.0324 35.7401 14.7355 35.0369 14.7355 34.1503V33.7528H23.8464H32.9572V34.4866C32.9572 35.1898 33.5381 35.7401 34.2107 35.7401H38.0324C38.7355 35.7401 39.2859 35.1592 39.2859 34.4866V33.6305C39.4999 33.4777 39.6527 33.2025 39.6527 32.9273V25.8343C39.6527 24.214 38.5827 23.205 38.5827 23.205L38.1547 22.777H39.6833C40.5088 22.777 41.1814 22.1044 41.1814 21.2789C41.212 20.4229 40.5394 19.7503 39.7139 19.7503ZM14.7967 14.4611C14.919 14.0942 15.2553 13.8802 15.6222 13.8802H23.8464H32.0706C32.4375 13.8802 32.7738 14.1248 32.8961 14.4611L35.2196 21.3095L23.9381 20.7898C23.8769 20.7898 23.8158 20.7898 23.7547 20.7898L12.4731 21.3401L14.7967 14.4611ZM13.268 28.0968C12.1368 28.0968 11.2502 27.1796 11.2502 26.0789C11.2502 24.9477 12.1674 24.0611 13.268 24.0611C14.3992 24.0611 15.2859 24.9783 15.2859 26.0789C15.2859 27.2101 14.3687 28.0968 13.268 28.0968ZM28.891 27.5159H18.8018C18.6489 27.5159 18.5266 27.3936 18.5266 27.2407C18.5266 27.0878 18.6489 26.9656 18.8018 26.9656H28.891C29.0438 26.9656 29.1661 27.0878 29.1661 27.2407C29.1661 27.3936 29.0438 27.5159 28.891 27.5159ZM28.891 26.5987H18.8018C18.6489 26.5987 18.5266 26.4764 18.5266 26.3235C18.5266 26.1706 18.6489 26.0484 18.8018 26.0484H28.891C29.0438 26.0484 29.1661 26.1706 29.1661 26.3235C29.1661 26.4764 29.0438 26.5987 28.891 26.5987ZM28.891 25.6815H18.8018C18.6489 25.6815 18.5266 25.5592 18.5266 25.4063C18.5266 25.2535 18.6489 25.1312 18.8018 25.1312H28.891C29.0438 25.1312 29.1661 25.2535 29.1661 25.4063C29.1661 25.5592 29.0438 25.6815 28.891 25.6815ZM34.4247 28.0968C33.2935 28.0968 32.4069 27.1796 32.4069 26.0789C32.4069 24.9477 33.3241 24.0611 34.4247 24.0611C35.5559 24.0611 36.4426 24.9783 36.4426 26.0789C36.4426 27.2101 35.5559 28.0968 34.4247 28.0968Z" fill="#006D75"/>
</g>
<defs>
<clipPath id="clip0_157342_200265">
<rect width="48" height="48" fill="white"/>
</clipPath>
</defs>
</svg>
