<svg width="83" height="83" viewBox="0 0 83 83" fill="none" xmlns="http://www.w3.org/2000/svg">
<path d="M41.501 82.9531C64.1447 82.9531 82.501 64.5968 82.501 41.9531C82.501 19.3095 64.1447 0.953125 41.501 0.953125C18.8573 0.953125 0.500977 19.3095 0.500977 41.9531C0.500977 64.5968 18.8573 82.9531 41.501 82.9531Z" fill="#E6F5F5"/>
<g clip-path="url(#clip0_1057_174029)">
<g clip-path="url(#clip1_1057_174029)">
<path d="M58.5567 37.2831C57.9779 37.0132 57.313 37.2834 57.059 37.8282L56.678 38.6453L51.5726 41.2384L52.8043 46.9525L52.6614 47.2589L47.6036 49.7499L48.7877 55.5661L48.5178 56.1449C48.2479 56.7237 48.5181 57.3885 49.0629 57.6425L50.3907 58.2617C50.9694 58.5316 51.6343 58.2613 51.8883 57.7166L52.5075 56.3888C52.7774 55.81 52.5071 55.1452 51.9624 54.8911L50.6346 54.272C50.2941 54.1132 49.9424 54.1565 49.6769 54.2813L48.8973 50.3532L52.4961 48.5911C52.587 48.8407 52.7777 49.054 53.05 49.181L54.3778 49.8001C54.9566 50.07 55.6214 49.7998 55.8755 49.255L56.5105 47.8932C56.7804 47.3144 56.5101 46.6496 55.9654 46.3955L54.6376 45.7764C54.3312 45.6335 53.9953 45.6427 53.7298 45.7676L52.9003 41.8576L56.4469 40.0297C56.5378 40.2793 56.7466 40.5425 57.019 40.6695L58.3468 41.2886C58.9256 41.5585 59.5904 41.2883 59.8444 40.7435L60.4636 39.4158C60.7335 38.837 60.4632 38.1721 59.9185 37.9181L58.5567 37.2831Z" fill="#08979C"/>
<path d="M47.8232 41.1913C47.8981 41.4749 48.1229 41.7041 48.3952 41.8311L49.723 42.4503C50.3018 42.7201 50.9667 42.4499 51.2207 41.9052L51.8398 40.5774C52.1097 39.9986 51.8395 39.3337 51.2947 39.0797L49.9669 38.4605C49.3882 38.1907 48.7233 38.4609 48.4693 39.0056L48.0883 39.8228L43.0169 42.4318L44.201 48.248L43.9311 48.8268C43.6612 49.4055 43.9315 50.0704 44.4762 50.3244L45.804 50.9436C46.3828 51.2135 47.0476 50.9432 47.3016 50.3985L47.9208 49.0707C48.1907 48.4919 47.9204 47.827 47.3757 47.573L46.0479 46.9539C45.7074 46.7951 45.3716 46.8043 45.0902 46.9632L44.2766 43.0192L47.8232 41.1913Z" fill="#08979C"/>
<path d="M31.3 44.1786L32.6278 44.7978C33.2066 45.0677 33.8715 44.7974 34.1255 44.2527L34.4747 43.5037L39.596 40.8764L39.2944 41.5233C39.0245 42.1021 39.2948 42.767 39.8395 43.021L41.1673 43.6401C41.7461 43.91 42.4109 43.6398 42.665 43.095L43.3 41.7332C43.5699 41.1544 43.2996 40.4895 42.7549 40.2355L41.4271 39.6164C40.8483 39.3465 40.1835 39.6167 39.9294 40.1615L39.6278 40.8084L38.3031 35.3826L38.7477 34.4293C39.0175 33.8505 38.7473 33.1856 38.2026 32.9316L36.8748 32.3125C36.296 32.0426 35.6311 32.3128 35.3771 32.8576L34.7579 34.1854C34.4881 34.7641 34.7583 35.429 35.303 35.683L36.6308 36.3022C36.8692 36.4133 37.1551 36.4223 37.3888 36.3655L38.3341 40.2051L34.8215 42.0489C34.7466 41.7652 34.5218 41.5361 34.2154 41.3932L32.8876 40.774C32.3088 40.5041 31.644 40.7744 31.39 41.3191L30.7708 42.6469C30.485 43.2598 30.7212 43.9087 31.3 44.1786Z" fill="#08979C"/>
<path d="M22.7112 45.3553L24.039 45.9744C24.6178 46.2443 25.2826 45.9741 25.5366 45.4293L25.7748 44.9187L31.039 41.985L29.7279 36.4412L29.7914 36.305L34.9921 33.5076L33.7286 27.8616L34.0779 27.1126C34.3478 26.5338 34.0775 25.869 33.5328 25.615L32.205 24.9958C31.6262 24.7259 30.9613 24.9962 30.7073 25.5409L30.0882 26.8687C29.8183 27.4475 30.0885 28.1123 30.6333 28.3664L31.9611 28.9855C32.2675 29.1284 32.6033 29.1192 32.8688 28.9943L33.7324 32.9202L30.1881 34.8321C30.1131 34.5484 29.9201 34.2512 29.6137 34.1083L28.2859 33.4891C27.7071 33.2192 27.0423 33.4895 26.7883 34.0342L26.1532 35.3961C25.8833 35.9748 26.1536 36.6397 26.6983 36.8937L28.0261 37.5129C28.2985 37.6399 28.6185 37.6648 28.884 37.5399L29.7974 41.4475L26.2713 43.4093C26.2281 43.0576 26.0011 42.7445 25.6606 42.5857L24.3328 41.9666C23.754 41.6967 23.0892 41.9669 22.8352 42.5117L22.216 43.8395C21.8962 44.4364 22.1324 45.0854 22.7112 45.3553Z" fill="#08979C"/>
</g>
</g>
<defs>
<clipPath id="clip0_1057_174029">
<rect width="35.2" height="24.64" fill="white" transform="translate(30.7578 23.3496) rotate(25)"/>
</clipPath>
<clipPath id="clip1_1057_174029">
<rect width="32.8323" height="22.4642" fill="white" transform="translate(31.1836 24.5195) rotate(25)"/>
</clipPath>
</defs>
</svg>
