<svg width="83" height="83" viewBox="0 0 83 83" fill="none" xmlns="http://www.w3.org/2000/svg">
<path d="M41.5015 82.9531C64.1451 82.9531 82.5015 64.5968 82.5015 41.9531C82.5015 19.3095 64.1451 0.953125 41.5015 0.953125C18.8578 0.953125 0.501465 19.3095 0.501465 41.9531C0.501465 64.5968 18.8578 82.9531 41.5015 82.9531Z" fill="#E6F5F5"/>
<g clip-path="url(#clip0_1057_174029)">
<path d="M54.9858 30.5137C54.3471 30.5137 53.8588 31.0396 53.8588 31.6406V32.5422L50.3276 37.0501L53.8588 41.7082V42.0463L50.3276 46.4415L53.8588 51.2123V51.8509C53.8588 52.4895 54.3847 52.9779 54.9858 52.9779H56.4508C57.0894 52.9779 57.5778 52.4519 57.5778 51.8509V50.3858C57.5778 49.7472 57.0519 49.2589 56.4508 49.2589H54.9858C54.6101 49.2589 54.3096 49.4467 54.1218 49.6721L51.7551 46.4415L54.272 43.3235C54.4598 43.5113 54.7228 43.624 55.0233 43.624H56.4884C57.127 43.624 57.6153 43.0981 57.6153 42.4971V40.9945C57.6153 40.3558 57.0894 39.8675 56.4884 39.8675H55.0233C54.6852 39.8675 54.3847 40.0178 54.1969 40.2431L51.7927 37.0501L54.2345 33.8946C54.4223 34.0824 54.7228 34.2327 55.0233 34.2327H56.4884C57.127 34.2327 57.6153 33.7067 57.6153 33.1057V31.6406C57.6153 31.002 57.0894 30.5137 56.4884 30.5137H54.9858Z" fill="#08979C"/>
<path d="M46.9088 38.5899C47.0967 38.8153 47.3972 38.928 47.6977 38.928H49.1628C49.8014 38.928 50.2897 38.4021 50.2897 37.801V36.336C50.2897 35.6973 49.7638 35.209 49.1628 35.209H47.6977C47.0591 35.209 46.5707 35.7349 46.5707 36.336V37.2375L43.0771 41.7454L46.6083 46.5162V47.1548C46.6083 47.7934 47.1342 48.2818 47.7353 48.2818H49.2003C49.8389 48.2818 50.3273 47.7559 50.3273 47.1548V45.6898C50.3273 45.0512 49.8014 44.5628 49.2003 44.5628H47.7353C47.3596 44.5628 47.0591 44.7131 46.8713 44.976L44.4671 41.7454L46.9088 38.5899Z" fill="#08979C"/>
<path d="M33.1973 48.2822H34.6623C35.3009 48.2822 35.7893 47.7563 35.7893 47.1553V46.3288L39.3205 41.7834V42.4972C39.3205 43.1358 39.8464 43.6241 40.4474 43.6241H41.9125C42.5511 43.6241 43.0394 43.0982 43.0394 42.4972V40.9945C43.0394 40.3559 42.5135 39.8676 41.9125 39.8676H40.4474C39.8088 39.8676 39.3205 40.3935 39.3205 40.9945V41.7083L35.8269 37.3507V36.2988C35.8269 35.6602 35.3009 35.1719 34.6999 35.1719H33.2348C32.5962 35.1719 32.1079 35.6978 32.1079 36.2988V37.7639C32.1079 38.4025 32.6338 38.8909 33.2348 38.8909H34.6999C34.9629 38.8909 35.2258 38.7782 35.4136 38.6279L37.893 41.7083L35.4888 44.8638C35.3009 44.6384 35.0004 44.5257 34.6623 44.5257H33.1973C32.5587 44.5257 32.0703 45.0516 32.0703 45.6527V47.1177C32.0703 47.7939 32.5587 48.2822 33.1973 48.2822Z" fill="#08979C"/>
<path d="M25.9097 52.9779H27.3747C28.0134 52.9779 28.5017 52.4519 28.5017 51.8509V51.2874L32.0329 46.4039L28.5017 41.9336V41.7833L32.0329 37.0501L28.5017 32.4671V31.6406C28.5017 31.002 27.9758 30.5137 27.3747 30.5137H25.9097C25.2711 30.5137 24.7827 31.0396 24.7827 31.6406V33.1057C24.7827 33.7443 25.3086 34.2327 25.9097 34.2327H27.3747C27.7128 34.2327 28.0134 34.0824 28.2012 33.857L30.6429 37.0501L28.2387 40.2807C28.0509 40.0553 27.7504 39.8675 27.4123 39.8675H25.9472C25.3086 39.8675 24.8203 40.3934 24.8203 40.9945V42.4971C24.8203 43.1357 25.3462 43.624 25.9472 43.624H27.4123C27.7128 43.624 28.0134 43.5113 28.2012 43.286L30.6805 46.4415L28.3139 49.7097C28.126 49.4091 27.788 49.2213 27.4123 49.2213H25.9472C25.3086 49.2213 24.8203 49.7472 24.8203 50.3483V51.8133C24.7827 52.4895 25.2711 52.9779 25.9097 52.9779Z" fill="#08979C"/>
</g>
<defs>
<clipPath id="clip0_1057_174029">
<rect width="32.8323" height="22.4642" fill="white" transform="translate(24.7827 30.5137)"/>
</clipPath>
</defs>
</svg>
