<svg width="14" height="15" viewBox="0 0 14 15" fill="none" xmlns="http://www.w3.org/2000/svg">
<path d="M8.33398 4.83331H9.00065C9.17746 4.83331 9.34703 4.76308 9.47206 4.63805C9.59708 4.51303 9.66732 4.34346 9.66732 4.16665C9.66732 3.98984 9.59708 3.82027 9.47206 3.69524C9.34703 3.57022 9.17746 3.49998 9.00065 3.49998H8.33398C8.15717 3.49998 7.9876 3.57022 7.86258 3.69524C7.73756 3.82027 7.66732 3.98984 7.66732 4.16665C7.66732 4.34346 7.73756 4.51303 7.86258 4.63805C7.9876 4.76308 8.15717 4.83331 8.33398 4.83331ZM8.33398 7.49998H9.00065C9.17746 7.49998 9.34703 7.42974 9.47206 7.30472C9.59708 7.17969 9.66732 7.01012 9.66732 6.83331C9.66732 6.6565 9.59708 6.48693 9.47206 6.36191C9.34703 6.23688 9.17746 6.16665 9.00065 6.16665H8.33398C8.15717 6.16665 7.9876 6.23688 7.86258 6.36191C7.73756 6.48693 7.66732 6.6565 7.66732 6.83331C7.66732 7.01012 7.73756 7.17969 7.86258 7.30472C7.9876 7.42974 8.15717 7.49998 8.33398 7.49998ZM5.00065 4.83331H5.66732C5.84413 4.83331 6.0137 4.76308 6.13872 4.63805C6.26375 4.51303 6.33398 4.34346 6.33398 4.16665C6.33398 3.98984 6.26375 3.82027 6.13872 3.69524C6.0137 3.57022 5.84413 3.49998 5.66732 3.49998H5.00065C4.82384 3.49998 4.65427 3.57022 4.52925 3.69524C4.40422 3.82027 4.33398 3.98984 4.33398 4.16665C4.33398 4.34346 4.40422 4.51303 4.52925 4.63805C4.65427 4.76308 4.82384 4.83331 5.00065 4.83331ZM5.00065 7.49998H5.66732C5.84413 7.49998 6.0137 7.42974 6.13872 7.30472C6.26375 7.17969 6.33398 7.01012 6.33398 6.83331C6.33398 6.6565 6.26375 6.48693 6.13872 6.36191C6.0137 6.23688 5.84413 6.16665 5.66732 6.16665H5.00065C4.82384 6.16665 4.65427 6.23688 4.52925 6.36191C4.40422 6.48693 4.33398 6.6565 4.33398 6.83331C4.33398 7.01012 4.40422 7.17969 4.52925 7.30472C4.65427 7.42974 4.82384 7.49998 5.00065 7.49998ZM13.0007 12.8333H12.334V1.49998C12.334 1.32317 12.2637 1.1536 12.1387 1.02858C12.0137 0.903551 11.8441 0.833313 11.6673 0.833313H2.33398C2.15717 0.833313 1.9876 0.903551 1.86258 1.02858C1.73756 1.1536 1.66732 1.32317 1.66732 1.49998V12.8333H1.00065C0.82384 12.8333 0.654271 12.9036 0.529246 13.0286C0.404222 13.1536 0.333984 13.3232 0.333984 13.5C0.333984 13.6768 0.404222 13.8464 0.529246 13.9714C0.654271 14.0964 0.82384 14.1666 1.00065 14.1666H13.0007C13.1775 14.1666 13.347 14.0964 13.4721 13.9714C13.5971 13.8464 13.6673 13.6768 13.6673 13.5C13.6673 13.3232 13.5971 13.1536 13.4721 13.0286C13.347 12.9036 13.1775 12.8333 13.0007 12.8333ZM7.66732 12.8333H6.33398V10.1666H7.66732V12.8333ZM11.0007 12.8333H9.00065V9.49998C9.00065 9.32317 8.93041 9.1536 8.80539 9.02858C8.68036 8.90355 8.5108 8.83331 8.33398 8.83331H5.66732C5.49051 8.83331 5.32094 8.90355 5.19591 9.02858C5.07089 9.1536 5.00065 9.32317 5.00065 9.49998V12.8333H3.00065V2.16665H11.0007V12.8333Z" fill="#6B7280"/>
</svg>
