<svg width="16" height="17" viewBox="0 0 16 17" fill="none" xmlns="http://www.w3.org/2000/svg">
<g clip-path="url(#clip0_681_6078)">
<path d="M7.99967 13.4878C8.13153 13.4878 8.26042 13.4487 8.37006 13.3754C8.47969 13.3022 8.56514 13.1981 8.61559 13.0762C8.66605 12.9544 8.67926 12.8204 8.65353 12.6911C8.62781 12.5617 8.56431 12.443 8.47108 12.3497C8.37784 12.2565 8.25906 12.193 8.12973 12.1673C8.00041 12.1415 7.86637 12.1547 7.74455 12.2052C7.62273 12.2557 7.51862 12.3411 7.44536 12.4507C7.37211 12.5604 7.33301 12.6893 7.33301 12.8211C7.33301 12.9979 7.40325 13.1675 7.52827 13.2925C7.65329 13.4176 7.82286 13.4878 7.99967 13.4878ZM11.333 13.4878C11.4649 13.4878 11.5938 13.4487 11.7034 13.3754C11.813 13.3022 11.8985 13.1981 11.9489 13.0762C11.9994 12.9544 12.0126 12.8204 11.9869 12.6911C11.9611 12.5617 11.8976 12.443 11.8044 12.3497C11.7112 12.2565 11.5924 12.193 11.4631 12.1673C11.3337 12.1415 11.1997 12.1547 11.0779 12.2052C10.9561 12.2557 10.8519 12.3411 10.7787 12.4507C10.7054 12.5604 10.6663 12.6893 10.6663 12.8211C10.6663 12.9979 10.7366 13.1675 10.8616 13.2925C10.9866 13.4176 11.1562 13.4878 11.333 13.4878ZM11.333 10.8211C11.4649 10.8211 11.5938 10.782 11.7034 10.7088C11.813 10.6355 11.8985 10.5314 11.9489 10.4096C11.9994 10.2878 12.0126 10.1537 11.9869 10.0244C11.9611 9.89508 11.8976 9.77629 11.8044 9.68305C11.7112 9.58982 11.5924 9.52633 11.4631 9.5006C11.3337 9.47488 11.1997 9.48808 11.0779 9.53854C10.9561 9.589 10.8519 9.67445 10.7787 9.78408C10.7054 9.89371 10.6663 10.0226 10.6663 10.1545C10.6663 10.3313 10.7366 10.5008 10.8616 10.6259C10.9866 10.7509 11.1562 10.8211 11.333 10.8211ZM7.99967 10.8211C8.13153 10.8211 8.26042 10.782 8.37006 10.7088C8.47969 10.6355 8.56514 10.5314 8.61559 10.4096C8.66605 10.2878 8.67926 10.1537 8.65353 10.0244C8.62781 9.89508 8.56431 9.77629 8.47108 9.68305C8.37784 9.58982 8.25906 9.52633 8.12973 9.5006C8.00041 9.47488 7.86637 9.48808 7.74455 9.53854C7.62273 9.589 7.51862 9.67445 7.44536 9.78408C7.37211 9.89371 7.33301 10.0226 7.33301 10.1545C7.33301 10.3313 7.40325 10.5008 7.52827 10.6259C7.65329 10.7509 7.82286 10.8211 7.99967 10.8211ZM12.6663 2.82113H11.9997V2.15446C11.9997 1.97765 11.9294 1.80808 11.8044 1.68306C11.6794 1.55803 11.5098 1.48779 11.333 1.48779C11.1562 1.48779 10.9866 1.55803 10.8616 1.68306C10.7366 1.80808 10.6663 1.97765 10.6663 2.15446V2.82113H5.33301V2.15446C5.33301 1.97765 5.26277 1.80808 5.13775 1.68306C5.01272 1.55803 4.84315 1.48779 4.66634 1.48779C4.48953 1.48779 4.31996 1.55803 4.19494 1.68306C4.06991 1.80808 3.99967 1.97765 3.99967 2.15446V2.82113H3.33301C2.80257 2.82113 2.29387 3.03184 1.91879 3.40691C1.54372 3.78199 1.33301 4.29069 1.33301 4.82113V14.1545C1.33301 14.6849 1.54372 15.1936 1.91879 15.5687C2.29387 15.9437 2.80257 16.1545 3.33301 16.1545H12.6663C13.1968 16.1545 13.7055 15.9437 14.0806 15.5687C14.4556 15.1936 14.6663 14.6849 14.6663 14.1545V4.82113C14.6663 4.29069 14.4556 3.78199 14.0806 3.40691C13.7055 3.03184 13.1968 2.82113 12.6663 2.82113ZM13.333 14.1545C13.333 14.3313 13.2628 14.5008 13.1377 14.6259C13.0127 14.7509 12.8432 14.8211 12.6663 14.8211H3.33301C3.1562 14.8211 2.98663 14.7509 2.8616 14.6259C2.73658 14.5008 2.66634 14.3313 2.66634 14.1545V8.15446H13.333V14.1545ZM13.333 6.82113H2.66634V4.82113C2.66634 4.64432 2.73658 4.47475 2.8616 4.34972C2.98663 4.2247 3.1562 4.15446 3.33301 4.15446H3.99967V4.82113C3.99967 4.99794 4.06991 5.16751 4.19494 5.29253C4.31996 5.41755 4.48953 5.48779 4.66634 5.48779C4.84315 5.48779 5.01272 5.41755 5.13775 5.29253C5.26277 5.16751 5.33301 4.99794 5.33301 4.82113V4.15446H10.6663V4.82113C10.6663 4.99794 10.7366 5.16751 10.8616 5.29253C10.9866 5.41755 11.1562 5.48779 11.333 5.48779C11.5098 5.48779 11.6794 5.41755 11.8044 5.29253C11.9294 5.16751 11.9997 4.99794 11.9997 4.82113V4.15446H12.6663C12.8432 4.15446 13.0127 4.2247 13.1377 4.34972C13.2628 4.47475 13.333 4.64432 13.333 4.82113V6.82113ZM4.66634 10.8211C4.7982 10.8211 4.92709 10.782 5.03672 10.7088C5.14635 10.6355 5.2318 10.5314 5.28226 10.4096C5.33272 10.2878 5.34592 10.1537 5.3202 10.0244C5.29447 9.89508 5.23098 9.77629 5.13775 9.68305C5.04451 9.58982 4.92572 9.52633 4.7964 9.5006C4.66708 9.47488 4.53304 9.48808 4.41122 9.53854C4.2894 9.589 4.18528 9.67445 4.11203 9.78408C4.03877 9.89371 3.99967 10.0226 3.99967 10.1545C3.99967 10.3313 4.06991 10.5008 4.19494 10.6259C4.31996 10.7509 4.48953 10.8211 4.66634 10.8211ZM4.66634 13.4878C4.7982 13.4878 4.92709 13.4487 5.03672 13.3754C5.14635 13.3022 5.2318 13.1981 5.28226 13.0762C5.33272 12.9544 5.34592 12.8204 5.3202 12.6911C5.29447 12.5617 5.23098 12.443 5.13775 12.3497C5.04451 12.2565 4.92572 12.193 4.7964 12.1673C4.66708 12.1415 4.53304 12.1547 4.41122 12.2052C4.2894 12.2557 4.18528 12.3411 4.11203 12.4507C4.03877 12.5604 3.99967 12.6893 3.99967 12.8211C3.99967 12.9979 4.06991 13.1675 4.19494 13.2925C4.31996 13.4176 4.48953 13.4878 4.66634 13.4878Z" fill="#9CA3AF"/>
</g>
<defs>
<clipPath id="clip0_681_6078">
<rect width="16" height="16" fill="white" transform="translate(0 0.821289)"/>
</clipPath>
</defs>
</svg>
