<svg width="56" height="46" viewBox="0 0 56 46" fill="none" xmlns="http://www.w3.org/2000/svg">
<path d="M45.1078 9.57453L43.1703 6.22266L17.9538 20.7828L16.2779 21.7516H8.625C4.34313 21.7516 0.875 25.2197 0.875 29.5016V45.0016C0.875 45.5344 1.31094 45.9703 1.84375 45.9703H7.63662C8.1694 45.9703 8.60537 45.5344 8.60537 45.0016V26.7405C8.60537 27.0408 8.74099 27.3508 9.0413 27.5446L11.3469 29.0752L15.0282 33.9383C15.6191 34.7133 16.6944 34.9264 17.5372 34.4421L26.3237 29.3755C27.1664 28.8815 27.5152 27.8449 27.1374 26.944L24.7639 21.3252L34.2386 15.8517L45.1078 9.57453ZM7.75276 24.7645C7.09401 25.0939 6.66776 25.7623 6.66776 26.5083V44.0331H5.71839V39.1894C5.71839 38.6566 5.28245 38.2206 4.74964 38.2206C4.21683 38.2206 3.78089 38.6565 3.78089 39.1894V44.0331H2.81214V29.5019C2.81214 26.2953 5.4181 23.6893 8.62464 23.6893H9.94214L7.75276 24.7645Z" fill="#08979C"/>
<path d="M55.0013 3.87802L53.0638 0.526145C52.7925 0.0611447 52.2016 -0.0938553 51.7366 0.167707L44.3643 4.42049L47.2705 9.45799L54.6428 5.20521C55.1078 4.93396 55.2629 4.34302 55.0013 3.87802Z" fill="#08979C"/>
</svg>
