<svg width="50" height="51" viewBox="0 0 50 51" fill="none" xmlns="http://www.w3.org/2000/svg">
<path d="M42.3602 20.7475L43.3819 19.7257C43.5581 19.5496 43.5581 19.2677 43.3819 19.0915L41.741 17.435C40.571 16.2538 40.7234 13.8832 39.5768 12.6793L37.8152 10.9177C36.6396 9.74207 34.2277 9.90211 33.0521 8.72651L31.4382 7.11259C31.262 6.93643 30.9802 6.93643 30.804 7.11259L29.7823 8.13432C29.6061 8.31049 29.6061 8.59234 29.7823 8.7685L32.5304 11.5166C33.0363 12.0225 33.0363 12.8428 32.5304 13.3487C32.1428 13.7362 32.1428 14.3704 32.5304 14.758C32.8223 15.0499 32.8223 15.5231 32.5304 15.8149L22.8063 25.539C22.4187 25.9266 22.4187 26.5608 22.8063 26.9483L23.5109 27.653C23.8985 28.0405 24.5327 28.0405 24.9202 27.653L34.6082 17.9984C34.9007 17.7069 35.374 17.7073 35.666 17.9993C36.0536 18.3869 36.6878 18.3869 37.0753 17.9993C37.5813 17.4934 38.4015 17.4934 38.9074 17.9993L41.6908 20.7827C41.8669 20.9236 42.184 20.9236 42.3602 20.7475Z" fill="#08979C"/>
<path d="M9.98267 25.3649L8.1506 23.5329C7.76304 23.1453 7.12886 23.1453 6.74131 23.5329L0.646134 29.628C0.25858 30.0156 0.25858 30.6498 0.646134 31.0373L2.47821 32.8694C2.86577 33.2569 3.49994 33.2569 3.8875 32.8694L9.98267 26.7742C10.3702 26.3867 10.3702 25.7525 9.98267 25.3649Z" fill="#08979C"/>
<path d="M25.132 40.5094C24.7445 40.1219 24.1103 40.1219 23.7228 40.5094L17.6276 46.6046C17.24 46.9921 17.24 47.6263 17.6276 48.0139L19.4597 49.846C19.8472 50.2335 20.4814 50.2335 20.8689 49.846L26.9641 43.7508C27.3517 43.3632 27.3517 42.729 26.9641 42.3415L25.132 40.5094Z" fill="#08979C"/>
<path d="M25.0632 10.2835C25.4507 10.671 26.0849 10.671 26.4725 10.2835L32.5676 4.18828C32.9552 3.80072 32.9552 3.16654 32.5676 2.77899L30.7356 0.946916C30.348 0.559361 29.7138 0.559361 29.3263 0.946916L23.2311 7.04209C22.8435 7.42964 22.8435 8.06382 23.2311 8.45138L25.0632 10.2835Z" fill="#08979C"/>
<path d="M49.5481 19.7595L47.716 17.9274C47.3285 17.5398 46.6943 17.5398 46.3067 17.9274L40.2116 24.0226C39.824 24.4101 39.824 25.0443 40.2116 25.4318L42.0436 27.2639C42.4312 27.6515 43.0654 27.6515 43.4529 27.2639L49.5481 21.1687C49.9357 20.7812 49.9357 20.147 49.5481 19.7595Z" fill="#08979C"/>
<path d="M28.5147 26.7744C28.2329 26.4926 27.7396 26.4926 27.4578 26.7744L25.8019 28.4303C24.8154 29.4168 23.2299 29.4168 22.2434 28.4303L22.032 28.2189C21.0455 27.2324 21.0455 25.647 22.032 24.6605L23.6879 23.0046C23.9698 22.7227 23.9698 22.2295 23.6879 21.9476L23.3708 21.6305C22.9833 21.243 22.3139 21.243 21.9263 21.6305L20.0942 23.4626C19.1539 24.4029 18.6745 25.666 18.6933 26.9161C18.6998 27.3506 18.2876 27.7708 17.9803 28.078L14.2281 31.8302C13.5373 32.521 12.4174 32.521 11.7266 31.8302L11.2324 31.3361C10.8146 30.9182 10.8146 30.2408 11.2324 29.8229C11.2682 29.7871 11.3075 29.755 11.3441 29.7199C11.4551 29.6133 11.5328 29.4622 11.5328 29.3111C11.5328 28.994 11.2862 28.7474 10.9691 28.7474C10.6107 28.7474 10.3839 29.1212 10.1305 29.3746L6.45239 33.0527C6.199 33.3061 5.8252 33.533 5.8252 33.8913C5.8252 34.2084 6.07182 34.455 6.38891 34.455C6.53998 34.455 6.69105 34.3773 6.79768 34.2663C6.83275 34.2298 6.8649 34.1904 6.9007 34.1546C7.31854 33.7368 7.996 33.7368 8.41384 34.1546L8.97197 34.7128C9.66084 35.4016 9.58159 36.5805 9.72623 37.5439C9.78705 37.949 9.97563 38.3383 10.2997 38.6477L11.9204 40.2683C12.2288 40.5768 12.617 40.7628 13.0208 40.8263C13.9832 40.9776 15.1664 40.9072 15.8553 41.5961L16.4134 42.1542C16.8312 42.572 16.8312 43.2495 16.4134 43.6673C16.3776 43.7031 16.3383 43.7353 16.3018 43.7704C16.1907 43.877 16.113 44.0281 16.113 44.1791C16.113 44.4962 16.3596 44.7428 16.6767 44.7428C17.0351 44.7428 17.2619 44.369 17.5153 44.1156L21.2287 40.4023C21.482 40.1489 21.8559 39.9221 21.8559 39.5637C21.8559 39.2466 21.6092 39 21.2921 39C21.1411 39 20.99 39.0777 20.8834 39.1887C20.8483 39.2253 20.8161 39.2646 20.7803 39.3004C20.3625 39.7182 19.685 39.7182 19.2672 39.3004L18.773 38.8062C18.0823 38.1154 18.0823 36.9955 18.773 36.3047L22.5253 32.5525C22.8606 32.2172 23.2848 31.7661 23.759 31.7689C25.0457 31.7765 26.3284 31.2861 27.3168 30.2976L29.008 28.6065C29.3955 28.2189 29.3955 27.5495 29.008 27.162L28.5147 26.7744Z" fill="#08979C"/>
</svg>
