<svg width="24" height="24" viewBox="0 0 24 24" fill="none" xmlns="http://www.w3.org/2000/svg">
<path d="M12.7105 8.45929L18.3605 14.1193C18.4542 14.2122 18.5286 14.3228 18.5793 14.4447C18.6301 14.5666 18.6562 14.6973 18.6562 14.8293C18.6562 14.9613 18.6301 15.092 18.5793 15.2139C18.5286 15.3357 18.4542 15.4463 18.3605 15.5393C18.1731 15.7255 17.9196 15.8301 17.6555 15.8301C17.3913 15.8301 17.1378 15.7255 16.9505 15.5393L11.9505 10.5893L7.00045 15.5393C6.81309 15.7255 6.55964 15.8301 6.29545 15.8301C6.03127 15.8301 5.77781 15.7255 5.59045 15.5393C5.49596 15.4467 5.42079 15.3362 5.3693 15.2144C5.3178 15.0925 5.291 14.9616 5.29045 14.8293C5.291 14.697 5.3178 14.5661 5.3693 14.4442C5.42079 14.3223 5.49596 14.2119 5.59045 14.1193L11.2405 8.45929C11.3341 8.35778 11.4477 8.27677 11.5742 8.22137C11.7007 8.16596 11.8373 8.13735 11.9755 8.13735C12.1136 8.13735 12.2502 8.16596 12.3767 8.22137C12.5032 8.27677 12.6168 8.35778 12.7105 8.45929Z" fill="#1F1F1F"/>
</svg>
