<svg width="17" height="17" viewBox="0 0 17 17" fill="none" xmlns="http://www.w3.org/2000/svg">
<path d="M10.4041 8.00409L16.7041 1.71409C16.8924 1.52579 16.9982 1.27039 16.9982 1.00409C16.9982 0.73779 16.8924 0.482395 16.7041 0.294092C16.5158 0.105788 16.2604 0 15.9941 0C15.7278 0 15.4724 0.105788 15.2841 0.294092L8.99408 6.59409L2.70408 0.294092C2.51578 0.105788 2.26038 2.36434e-07 1.99408 2.38419e-07C1.72778 2.40403e-07 1.47238 0.105788 1.28408 0.294092C1.09578 0.482395 0.989988 0.73779 0.989988 1.00409C0.989988 1.27039 1.09578 1.52579 1.28408 1.71409L7.58408 8.00409L1.28408 14.2941C1.19035 14.3871 1.11596 14.4977 1.06519 14.6195C1.01442 14.7414 0.988281 14.8721 0.988281 15.0041C0.988281 15.1361 1.01442 15.2668 1.06519 15.3887C1.11596 15.5105 1.19035 15.6211 1.28408 15.7141C1.37704 15.8078 1.48764 15.8822 1.6095 15.933C1.73136 15.9838 1.86207 16.0099 1.99408 16.0099C2.12609 16.0099 2.2568 15.9838 2.37866 15.933C2.50052 15.8822 2.61112 15.8078 2.70408 15.7141L8.99408 9.41409L15.2841 15.7141C15.377 15.8078 15.4876 15.8822 15.6095 15.933C15.7314 15.9838 15.8621 16.0099 15.9941 16.0099C16.1261 16.0099 16.2568 15.9838 16.3787 15.933C16.5005 15.8822 16.6111 15.8078 16.7041 15.7141C16.7978 15.6211 16.8722 15.5105 16.923 15.3887C16.9737 15.2668 16.9999 15.1361 16.9999 15.0041C16.9999 14.8721 16.9737 14.7414 16.923 14.6195C16.8722 14.4977 16.7978 14.3871 16.7041 14.2941L10.4041 8.00409Z" fill="#1F1F1F"/>
</svg>
