<svg width="80" height="54" viewBox="0 0 80 54" fill="none" xmlns="http://www.w3.org/2000/svg">
<path d="M17.0036 54C17.0016 54 17 53.9984 17 53.9964C17 53.9945 16.9984 53.9929 16.9965 53.9929C7.56436 53.7264 0 45.9966 0 36.5C0 26.835 7.83502 19 17.5 19C17.8628 19 18.1734 18.7324 18.2257 18.3734C19.7397 7.98116 28.6878 0 39.5 0C48.9356 0 56.9516 6.07814 59.846 14.5327C59.9416 14.8118 60.205 15 60.5 15C71.2695 15 80 23.7305 80 34.5C80 45.1013 71.5401 53.7268 61.0031 53.9936C61.0014 53.9937 61 53.9951 61 53.9968C61 53.9986 60.9986 54 60.9968 54H17.0036Z" fill="white"/>
<rect x="28" y="22" width="24" height="24" rx="8" fill="white"/>
<path d="M45.7102 33.2909L40.7102 28.2909C40.6151 28.1998 40.5029 28.1285 40.3802 28.0809C40.1367 27.9809 39.8636 27.9809 39.6202 28.0809C39.4974 28.1285 39.3853 28.1998 39.2902 28.2909L34.2902 33.2909C34.1969 33.3841 34.123 33.4948 34.0725 33.6166C34.0221 33.7384 33.9961 33.869 33.9961 34.0009C33.9961 34.2672 34.1019 34.5226 34.2902 34.7109C34.4785 34.8992 34.7339 35.005 35.0002 35.005C35.2665 35.005 35.5219 34.8992 35.7102 34.7109L39.0002 31.4109V39.0009C39.0002 39.2661 39.1055 39.5204 39.2931 39.708C39.4806 39.8955 39.735 40.0009 40.0002 40.0009C40.2654 40.0009 40.5198 39.8955 40.7073 39.708C40.8948 39.5204 41.0002 39.2661 41.0002 39.0009V31.4109L44.2902 34.7109C44.3831 34.8046 44.4937 34.879 44.6156 34.9298C44.7375 34.9805 44.8682 35.0067 45.0002 35.0067C45.1322 35.0067 45.2629 34.9805 45.3848 34.9298C45.5066 34.879 45.6172 34.8046 45.7102 34.7109C45.8039 34.6179 45.8783 34.5073 45.9291 34.3854C45.9798 34.2636 46.006 34.1329 46.006 34.0009C46.006 33.8689 45.9798 33.7382 45.9291 33.6163C45.8783 33.4944 45.8039 33.3838 45.7102 33.2909Z" fill="#B3D0D9"/>
</svg>
