<svg width="34" height="44" viewBox="0 0 34 44" fill="none" xmlns="http://www.w3.org/2000/svg">
<path d="M23.3229 22.1812L17.0699 20.5996L10.817 22.1812C10.2653 22.3284 9.89746 22.8065 9.89746 23.3583V35.4595H17.0699H24.2424V23.395C24.2424 22.8065 23.8378 22.3284 23.3229 22.1812ZM12.5825 32.7744C12.5825 32.8848 12.4722 32.9951 12.3619 32.9951C12.2515 32.9951 12.1412 32.8848 12.1412 32.7744V23.91C12.1412 23.7996 12.2515 23.6893 12.3619 23.6893C12.4722 23.6893 12.5825 23.7996 12.5825 23.91V32.7744ZM14.9366 33.2894C14.9366 33.3997 14.8262 33.5101 14.7159 33.5101C14.6056 33.5101 14.4952 33.3997 14.4952 33.2894V23.3583C14.4952 23.2479 14.6056 23.1376 14.7159 23.1376C14.8262 23.1376 14.9366 23.2479 14.9366 23.3583V33.2894ZM17.2906 34.2089C17.2906 34.3193 17.1803 34.4296 17.0699 34.4296C16.9596 34.4296 16.8492 34.3193 16.8492 34.2089V22.4755C16.8492 22.3651 16.9596 22.2548 17.0699 22.2548C17.1803 22.2548 17.2906 22.3651 17.2906 22.4755V34.2089ZM19.6815 33.2894C19.6815 33.3997 19.5711 33.5101 19.4608 33.5101C19.3504 33.5101 19.2401 33.3997 19.2401 33.2894V23.3583C19.2401 23.2479 19.3504 23.1376 19.4608 23.1376C19.5711 23.1376 19.6815 23.2479 19.6815 23.3583V33.2894ZM22.0355 32.7744C22.0355 32.8848 21.9252 32.9951 21.8148 32.9951C21.7045 32.9951 21.5941 32.8848 21.5941 32.7744V23.91C21.5941 23.7996 21.7045 23.6893 21.8148 23.6893C21.9252 23.6893 22.0355 23.7996 22.0355 23.91V32.7744Z" fill="#08979C"/>
<path d="M8.16547 43.7364H5.37004C4.59762 43.7364 3.93555 43.1111 3.93555 42.3019V40.1318C3.93555 39.3593 4.56084 38.6973 5.37004 38.6973H8.45973C9.08502 38.6973 9.59997 39.2122 9.59997 39.8375V42.3019C9.59997 43.1111 8.93789 43.7364 8.16547 43.7364Z" fill="#08979C"/>
<path d="M29.0574 43.7364H25.6734C25.0481 43.7364 24.5332 43.2214 24.5332 42.5962V39.8375C24.5332 39.2122 25.0481 38.6973 25.6734 38.6973H29.0574C29.6827 38.6973 30.1976 39.2122 30.1976 39.8375V42.5962C30.1976 43.2214 29.6827 43.7364 29.0574 43.7364Z" fill="#08979C"/>
<path d="M30.7144 40.2771H3.45894C3.01756 40.2771 2.68652 39.9093 2.68652 39.5047V36.8564C2.68652 36.415 3.01756 36.084 3.45894 36.084H30.7144C31.1558 36.084 31.4868 36.4518 31.4868 36.8564V39.5047C31.4868 39.9093 31.119 40.2771 30.7144 40.2771Z" fill="#08979C"/>
<path d="M24.8287 27.8112H27.2563C28.2126 27.8112 29.0586 28.2157 29.6471 28.8778V21.8893C29.6471 21.5214 29.3529 21.264 29.0218 21.264H27.3299V20.8961V20.8594V9.05235C27.3299 8.42706 26.8149 7.91211 26.1896 7.91211H7.94578C7.32049 7.91211 6.80555 8.42706 6.80555 9.05235V20.8961V21.264H5.11357C4.74575 21.264 4.48828 21.5582 4.48828 21.8893V28.8778C5.07679 28.2157 5.92278 27.8112 6.87911 27.8112H9.30671V23.0663C9.30671 22.3674 9.78488 21.7789 10.447 21.6318L17.0677 20.0134L23.6885 21.6318C24.3505 21.7789 24.8287 22.4042 24.8287 23.0663V27.8112ZM16.847 19.903H8.09291V10.8914H16.847V19.903ZM17.3252 19.903V10.8914H26.0793V19.903H17.3252Z" fill="#08979C"/>
<path d="M6.69554 34.8677C5.66565 34.8677 4.85645 34.0217 4.85645 33.0286C4.85645 33.0286 4.85645 33.0286 4.85645 32.9919C4.85645 32.8447 4.96679 32.7344 5.11392 32.7344C5.26105 32.7344 5.37139 32.8447 5.37139 32.9919C5.37139 32.9919 5.37139 32.9918 5.37139 33.0286C5.37139 33.7643 5.9599 34.3528 6.69554 34.3528C6.84267 34.3528 6.95302 34.4631 6.95302 34.6103C6.91623 34.7574 6.80589 34.8677 6.69554 34.8677Z" fill="#08979C"/>
<path d="M27.4036 34.8677C26.3737 34.8677 25.5645 34.0217 25.5645 33.0286C25.5645 33.0286 25.5645 33.0286 25.5645 32.9919C25.5645 32.8447 25.6748 32.7344 25.8219 32.7344C25.9691 32.7344 26.0794 32.8447 26.0794 32.9919C26.0794 32.9919 26.0794 32.9918 26.0794 33.0286C26.0794 33.7643 26.6679 34.3528 27.4036 34.3528C27.5507 34.3528 27.661 34.4631 27.661 34.6103C27.661 34.7574 27.5507 34.8677 27.4036 34.8677Z" fill="#08979C"/>
<path d="M4.0459 35.6425H9.3425V28.1758H7.06202C5.40683 28.1758 4.0459 29.5367 4.0459 31.1919V35.6425ZM6.6942 30.8241C7.90801 30.8241 8.86434 31.7804 8.86434 32.9942C8.86434 34.208 7.90801 35.1644 6.6942 35.1644C5.4804 35.1644 4.52407 34.208 4.52407 32.9942C4.52407 31.8172 5.51718 30.8241 6.6942 30.8241Z" fill="#08979C"/>
<path d="M27.0725 28.2148H24.792V35.6816H30.0886V31.231C30.0886 29.539 28.7277 28.2148 27.0725 28.2148ZM27.4403 35.1666C26.2265 35.1666 25.2702 34.2103 25.2702 32.9965C25.2702 31.7827 26.2265 30.8264 27.4403 30.8264C28.6541 30.8264 29.6104 31.7827 29.6104 32.9965C29.6104 34.2103 28.6541 35.1666 27.4403 35.1666Z" fill="#08979C"/>
<path d="M31.3034 0H2.79741C1.62039 0 0.664062 0.956331 0.664062 2.13335V34.6854C0.664062 35.6785 1.32614 36.4877 2.24569 36.7452V36.6348C2.24569 36.6348 2.24569 35.8992 2.24569 36.6348C2.24569 36.1199 2.65029 35.7153 3.16523 35.7153H3.60662V31.1175C3.60662 30.4922 3.79053 29.9405 4.048 29.4624V21.7381C4.048 21.4807 4.19513 21.2232 4.37904 21.0761V8.5702C4.37904 7.87134 3.05489 7.09892 3.05489 7.09892L2.6135 6.84144L3.20202 5.33338L3.68018 5.59086C5.96066 6.65754 5.77676 8.5702 5.77676 8.5702V20.9289H6.36526V8.79089C6.36526 8.09203 6.95377 7.50352 7.65263 7.50352H26.3379C27.0367 7.50352 27.6252 8.09203 27.6252 8.79089V20.8554H28.2138V8.49663C28.2138 8.49663 28.0298 6.58397 30.3103 5.51729L30.7885 5.25982L31.377 6.76788L30.9356 7.02535C30.9356 7.02535 29.5747 7.79778 29.6115 8.49663V21.0025C29.7954 21.1496 29.9425 21.3703 29.9425 21.6646V29.3888C30.2368 29.8669 30.3839 30.4555 30.3839 31.044V35.6417H30.8253C31.3402 35.6417 31.7448 36.0463 31.7448 36.5613V36.7084C32.6276 36.4509 33.3264 35.6417 33.3264 34.6486V2.09657C33.4368 0.919549 32.4805 0 31.3034 0Z" fill="#08979C"/>
</svg>
