<svg width="50" height="55" viewBox="0 0 50 55" fill="none" xmlns="http://www.w3.org/2000/svg">
<path d="M5.62467 49.8333H8.20801V55H5.62467V49.8333ZM8.20801 2.04167C8.20801 1.32862 7.63058 0.75 6.91634 0.75C6.2021 0.75 5.62467 1.32862 5.62467 2.04167V7.20833H8.20801V2.04167ZM12.083 11.0833C12.083 10.3703 11.5056 9.79167 10.7913 9.79167H3.04134C2.3271 9.79167 1.74967 10.3703 1.74967 11.0833V12.375H12.083V11.0833ZM4.33301 45.9583C4.33301 46.6714 4.91043 47.25 5.62467 47.25H8.20801C8.92225 47.25 9.49967 46.6714 9.49967 45.9583V44.6667H4.33301V45.9583ZM4.33301 42.0833H9.49967V39.5H4.33301V42.0833ZM12.083 14.9583H1.74967C1.03543 14.9583 0.458008 15.5369 0.458008 16.25V33.0417C0.458008 33.384 0.593633 33.7133 0.836425 33.9549L3.41976 36.5383C3.66255 36.7811 3.99073 36.9167 4.33302 36.9167H9.49969C9.84319 36.9167 10.1714 36.7811 10.4129 36.5383L12.9963 33.9549C13.2391 33.7133 13.3747 33.384 13.3747 33.0417V16.25C13.3747 15.5369 12.7972 14.9583 12.083 14.9583ZM23.708 55H26.2913V49.8333H23.708V55ZM26.2913 2.04167C26.2913 1.32862 25.7139 0.75 24.9997 0.75C24.2854 0.75 23.708 1.32862 23.708 2.04167V7.20833H26.2913V2.04167ZM30.1663 11.0833C30.1663 10.3703 29.5889 9.79167 28.8747 9.79167H21.1247C20.4104 9.79167 19.833 10.3703 19.833 11.0833V12.375H30.1663V11.0833ZM22.4163 45.9583C22.4163 46.6714 22.9938 47.25 23.708 47.25H26.2913C27.0056 47.25 27.583 46.6714 27.583 45.9583V44.6667H22.4163V45.9583ZM22.4163 42.0833H27.583V39.5H22.4163V42.0833ZM30.1663 14.9583H19.833C19.1188 14.9583 18.5413 15.5369 18.5413 16.25V33.0417C18.5413 33.384 18.677 33.7133 18.9198 33.9549L21.5031 36.5383C21.7459 36.7811 22.0741 36.9167 22.4164 36.9167H27.583C27.9265 36.9167 28.2547 36.7811 28.4963 36.5383L31.0796 33.9549C31.3224 33.7133 31.458 33.384 31.458 33.0417V16.25C31.458 15.5369 30.8806 14.9583 30.1663 14.9583ZM41.7913 55H44.3747V49.8333H41.7913V55ZM44.3747 2.04167C44.3747 1.32862 43.7972 0.75 43.083 0.75C42.3688 0.75 41.7913 1.32862 41.7913 2.04167V7.20833H44.3747V2.04167ZM48.2497 11.0833C48.2497 10.3703 47.6722 9.79167 46.958 9.79167H39.208C38.4938 9.79167 37.9163 10.3703 37.9163 11.0833V12.375H48.2497V11.0833ZM40.4997 45.9583C40.4997 46.6714 41.0771 47.25 41.7913 47.25H44.3747C45.0889 47.25 45.6663 46.6714 45.6663 45.9583V44.6667H40.4997V45.9583ZM40.4997 42.0833H45.6663V39.5H40.4997V42.0833ZM48.2497 14.9583H37.9163C37.2021 14.9583 36.6247 15.5369 36.6247 16.25V33.0417C36.6247 33.384 36.7603 33.7133 37.0031 33.9549L39.5864 36.5383C39.8292 36.7811 40.1574 36.9167 40.4997 36.9167H45.6664C46.0099 36.9167 46.338 36.7811 46.5796 36.5383L49.1629 33.9549C49.4057 33.7133 49.5414 33.384 49.5414 33.0417V16.25C49.5414 15.5369 48.9639 14.9583 48.2497 14.9583Z" fill="#08979C"/>
</svg>
