<svg width="50" height="44" viewBox="0 0 50 44" fill="none" xmlns="http://www.w3.org/2000/svg">
<path d="M8.5821 20.4684C4.0748 20.4684 0.404297 16.798 0.404297 12.2906C0.404297 7.78327 4.07465 4.11276 8.5821 4.11276C13.0894 4.11276 16.7599 7.78311 16.7599 12.2906C16.7599 16.7979 13.0895 20.4684 8.5821 20.4684ZM34.3493 18.6518H49.5951L49.5953 3.40596H34.3495V18.6518H34.3493ZM25.1795 29.3282L17.0203 43.4642H33.3387L25.1795 29.3282ZM44.2135 20.5118C44.2383 20.9334 44.2631 21.3612 44.2631 21.7889C44.2631 29.5389 39.6937 36.2349 33.1093 39.3411L34.0456 40.9593C41.188 37.5308 46.1294 30.2271 46.1294 21.7889C46.1294 21.3611 46.1108 20.9334 46.086 20.5118H44.2135ZM15.353 4.90016C18.1678 3.30676 21.4104 2.39536 24.87 2.39536C27.5732 2.39536 30.1524 2.95341 32.4898 3.95766V1.95496C30.1214 1.0435 27.5546 0.535156 24.87 0.535156C20.7904 0.535156 16.9774 1.69461 13.741 3.69085C14.3176 4.03799 14.8571 4.44105 15.353 4.89975L15.353 4.90016ZM17.12 39.5644C10.2814 36.576 5.48876 29.7498 5.47016 21.8262C4.82536 21.6155 4.21161 21.3426 3.62871 21.0078C3.6164 21.2681 3.61014 21.5224 3.61014 21.789C3.61014 30.4194 8.78094 37.8532 16.1837 41.1826L17.12 39.5644Z" fill="#08979C"/>
</svg>
