<svg width="22" height="22" viewBox="0 0 22 22" fill="none" xmlns="http://www.w3.org/2000/svg">
<rect x="0.5" y="0.5" width="21" height="21" rx="10.5" fill="white"/>
<path d="M11.9393 10.9996L16.1393 6.8063C16.2648 6.68077 16.3354 6.5105 16.3354 6.33297C16.3354 6.15543 16.2648 5.98517 16.1393 5.85964C16.0138 5.7341 15.8435 5.66357 15.666 5.66357C15.4884 5.66357 15.3182 5.7341 15.1926 5.85964L10.9993 10.0596L6.80597 5.85964C6.68044 5.7341 6.51018 5.66357 6.33264 5.66357C6.15511 5.66357 5.98484 5.7341 5.85931 5.85964C5.73377 5.98517 5.66325 6.15543 5.66325 6.33297C5.66325 6.5105 5.73377 6.68077 5.85931 6.8063L10.0593 10.9996L5.85931 15.193C5.79682 15.2549 5.74723 15.3287 5.71338 15.4099C5.67954 15.4912 5.66211 15.5783 5.66211 15.6663C5.66211 15.7543 5.67954 15.8414 5.71338 15.9227C5.74723 16.0039 5.79682 16.0777 5.85931 16.1396C5.92128 16.2021 5.99502 16.2517 6.07626 16.2856C6.1575 16.3194 6.24463 16.3368 6.33264 16.3368C6.42065 16.3368 6.50779 16.3194 6.58903 16.2856C6.67027 16.2517 6.744 16.2021 6.80597 16.1396L10.9993 11.9396L15.1926 16.1396C15.2546 16.2021 15.3284 16.2517 15.4096 16.2856C15.4908 16.3194 15.578 16.3368 15.666 16.3368C15.754 16.3368 15.8411 16.3194 15.9224 16.2856C16.0036 16.2517 16.0773 16.2021 16.1393 16.1396C16.2018 16.0777 16.2514 16.0039 16.2852 15.9227C16.3191 15.8414 16.3365 15.7543 16.3365 15.6663C16.3365 15.5783 16.3191 15.4912 16.2852 15.4099C16.2514 15.3287 16.2018 15.2549 16.1393 15.193L11.9393 10.9996Z" fill="#9CA3AF"/>
<rect x="0.5" y="0.5" width="21" height="21" rx="10.5" stroke="#E5E7EB"/>
</svg>
