<svg width="82" height="82" viewBox="0 0 82 82" fill="none" xmlns="http://www.w3.org/2000/svg">
<rect width="82" height="82" rx="41" fill="#E6E6E6"/>
<path d="M70.8196 29.555C70.8168 29.2826 70.6903 29.0265 70.4759 28.8584C70.2614 28.6905 69.9825 28.6291 69.7172 28.6915L64.6579 29.8832H64.6581C63.0668 30.3038 61.653 31.2257 60.6265 32.5124C59.5999 33.799 59.0148 35.3819 58.9581 37.027L58.9633 37.5047C58.6709 36.9499 58.356 36.4061 58.0184 35.8731L58.0125 35.8641H58.0123C55.9578 32.6244 53.1296 29.9467 49.7824 28.0722L51.3782 23.3144C51.9071 21.585 51.8654 19.7312 51.2587 18.0274C50.652 16.3236 49.5129 14.8606 48.01 13.8547L42.9448 10.7839C42.7119 10.643 42.4277 10.6154 42.172 10.7088C41.9165 10.8025 41.7171 11.0069 41.6304 11.2651L39.7906 16.7474H39.7908C39.3332 18.2678 39.309 19.8858 39.7209 21.4192C40.1329 22.9527 40.9646 24.3408 42.1224 25.4274C41.6243 25.3491 41.1225 25.2876 40.6174 25.2428L34.4655 23.3912C30.6488 22.2427 25.9864 24.0706 24.0711 27.4656L20.7943 33.274L20.7945 33.2738C20.6605 33.5109 20.6418 33.7961 20.7433 34.0488C20.8448 34.3013 21.0559 34.4942 21.3167 34.5725L25.4556 35.8184C24.3868 36.9397 23.4673 38.1942 22.7197 39.5509C21.9995 39.9473 21.3552 40.468 20.8168 41.0891C19.0801 39.1312 16.8586 38.4461 14.7015 39.2619V39.2616C13.5307 39.7262 12.5482 40.568 11.9097 41.6537C11.2711 42.7395 11.013 44.0071 11.1761 45.2562C11.6185 48.706 14.3132 50.9091 16.691 52.8528H16.6908C17.9615 53.7878 19.1013 54.8887 20.08 56.1263C20.2471 56.3689 20.523 56.5138 20.8176 56.5138C21.1125 56.5138 21.3882 56.3689 21.5555 56.1263C21.6992 55.919 21.8536 55.7192 22.0177 55.5279C23.3325 58.5143 25.4337 61.0878 28.0968 62.9736C30.7596 64.8594 33.8845 65.9872 37.1379 66.2365C40.3915 66.4857 43.6515 65.8469 46.5707 64.3885C49.4897 62.9304 51.958 60.7069 53.7126 57.9555C55.4672 55.2043 56.442 52.0283 56.5331 48.7666C56.6243 45.5047 55.8283 42.2793 54.2301 39.4346L56.971 37.6149V37.6151C59.6363 42.2558 60.4577 47.7299 59.2718 52.9482C58.0861 58.1671 54.9799 62.7484 50.5706 65.7817C46.1616 68.8151 40.7726 70.0781 35.4747 69.3199C30.1768 68.5616 25.3583 65.8378 21.9773 61.6897C21.7728 61.4492 21.4568 61.3339 21.1455 61.3864C20.8341 61.4389 20.5734 61.651 20.4587 61.9452C20.3441 62.2395 20.3927 62.5721 20.5865 62.8213C23.8827 66.8729 28.4543 69.6883 33.5558 70.8074C38.6575 71.9272 43.9879 71.285 48.6777 68.9858C53.3674 66.6866 57.1396 62.8664 59.3794 58.1477C61.619 53.4293 62.1936 48.0913 61.0097 43.0036L65.1721 42.0246V42.0248C66.7637 41.604 68.1772 40.6821 69.2039 39.3951C70.2303 38.1083 70.8151 36.525 70.8715 34.8797L70.8196 29.555ZM40.9361 27.0803C44.0811 27.4329 47.1072 28.4858 49.7923 30.1614C48.0891 29.9684 46.371 30.3638 44.9236 31.2819L44.8099 31.357H44.8101C42.9974 30.6805 41.0869 30.3023 39.1532 30.2371L40.9361 27.0803ZM20.8177 54.1764C19.8917 53.1967 18.8913 52.2903 17.8252 51.4653C15.6062 49.6483 13.3058 47.7701 12.954 45.0281C12.8398 44.1788 13.012 43.3158 13.4435 42.5754C13.8748 41.8351 14.541 41.2599 15.3362 40.9408C15.7043 40.7991 16.0951 40.726 16.4894 40.7246C17.7808 40.7246 19.0438 41.5319 20.0756 43.0565C20.2425 43.3027 20.5206 43.4503 20.8178 43.4503C21.1153 43.4503 21.3935 43.3027 21.5604 43.0565C22.8983 41.0796 24.6276 40.3089 26.2992 40.9406V40.9408C27.0944 41.2599 27.7604 41.8351 28.1919 42.5754C28.6234 43.3159 28.7955 44.1788 28.6813 45.0281C28.3301 47.7691 26.0322 49.6481 23.8107 51.4653C22.7446 52.2906 21.744 53.1969 20.8177 54.1764ZM29.8893 54.3651C29.7228 55.906 29.2112 57.0677 28.4489 57.6354C28.18 57.8364 27.3185 58.4036 26.3546 59.006V59.0058C25.0869 57.5773 24.0824 55.9352 23.3884 54.156C23.8772 53.7233 24.4039 53.292 24.943 52.8508C26.2551 51.8486 27.4624 50.7159 28.5462 49.4702C28.7884 49.5576 29.0499 49.666 29.3327 49.803C29.9103 51.2497 30.1026 52.8215 29.8913 54.3649L29.8893 54.3651ZM32.941 42.4218C32.6331 39.1886 31.1652 38.5499 29.4658 37.8097L29.4656 37.8093C28.6699 37.4874 27.9078 37.0876 27.1907 36.6157C27.2625 36.5459 27.3376 36.4781 27.4107 36.4095L27.5503 36.4512C28.3274 36.6819 29.134 36.7976 29.9448 36.7945C33.1427 36.7945 36.4176 35.0841 37.9438 32.3768L38.1442 32.0218C38.2663 32.0218 38.3876 32.0172 38.5091 32.0172C39.9947 32.0158 41.4735 32.2184 42.9038 32.6196L40.5915 34.1547C40.3647 34.3051 40.2184 34.5505 40.1942 34.8217C40.1699 35.0928 40.2702 35.3604 40.467 35.5487L44.3124 39.2321H44.3122C45.2809 40.1284 46.484 40.7319 47.7817 40.9721C47.7569 41.0159 47.7326 41.0594 47.7072 41.1026V41.1024C47.2376 41.9596 46.687 42.7701 46.0632 43.5225C44.8591 45.0235 40.9191 46.5416 39.315 46.5702C36.9492 46.6132 35.328 46.6009 34.398 46.0703C33.7893 45.7244 33.1921 45.0418 32.9426 42.4215L32.941 42.4218ZM38.5092 64.4809V64.4805C37.9354 64.4797 37.3624 64.4486 36.7921 64.3873C36.6015 62.896 36.9337 62.1279 37.9225 61.6527C39.5344 60.8767 40.4208 58.603 41.1335 56.7757C41.3246 56.2848 41.5629 55.6741 41.7666 55.2575H41.7664C41.9763 55.7058 42.1555 56.1678 42.3028 56.6405C42.4142 57.0007 42.48 57.3733 42.4986 57.7499C42.4661 58.3191 42.7018 58.8706 43.1356 59.2406C43.7763 59.6975 44.6633 59.5766 46.8418 59.0121C49.1103 58.4248 49.5319 58.4841 50.2224 59.469H50.2226C48.7107 61.0529 46.8935 62.3136 44.8802 63.1747C42.8672 64.0359 40.7005 64.4797 38.5108 64.4793L38.5092 64.4809Z" fill="#B3B3B3"/>
</svg>
