<svg width="82" height="82" viewBox="0 0 82 82" fill="none" xmlns="http://www.w3.org/2000/svg">
<rect width="82" height="82" rx="41" fill="#E6E6E6"/>
<path d="M54.6401 52.1895C53.8836 53.0688 53.0606 53.8888 52.1787 54.6422L62.31 64.7649C62.6377 65.0809 63.075 65.2583 63.5303 65.2598C63.9857 65.2615 64.4239 65.0873 64.754 64.7735C65.0807 64.4497 65.265 64.0091 65.2667 63.549C65.2684 63.0889 65.0869 62.6471 64.7626 62.3209L54.6401 52.1895Z" fill="#B3B3B3"/>
<path d="M37.5324 58.3422C43.0488 58.3422 48.3393 56.1508 52.2402 52.25C56.1411 48.3493 58.3324 43.0585 58.3324 37.5422C58.3324 32.0259 56.1411 26.7353 52.2402 22.8344C48.3395 18.9336 43.0488 16.7422 37.5324 16.7422C32.0161 16.7422 26.7255 18.9336 22.8247 22.8344C18.9238 26.7351 16.7324 32.0259 16.7324 37.5422C16.7397 43.0564 18.9336 48.3426 22.8329 52.2417C26.732 56.1409 32.0183 58.3348 37.5324 58.3422ZM32.9998 19.0215C33.2227 18.9692 33.457 19.0063 33.6528 19.1244C33.8488 19.2426 33.9908 19.4327 34.0485 19.6541C34.1032 19.8782 34.0663 20.115 33.946 20.3119C33.8254 20.5088 33.6316 20.6494 33.4072 20.7027C29.6918 21.6078 26.3815 23.7195 23.9947 26.707C21.6078 29.6945 20.2791 33.3894 20.2164 37.2127L23.1631 35.1067V35.1068C23.3045 35.0027 23.4746 34.9452 23.6501 34.9421C23.8255 34.9391 23.9976 34.9905 24.1425 35.0894L25.5119 35.9994C25.8828 33.0732 27.3084 30.383 29.5214 28.4325C31.7344 26.4824 34.5827 25.4065 37.5324 25.4065C40.4821 25.4065 43.3304 26.4824 45.5435 28.4325C47.7565 30.3829 49.1821 33.0731 49.553 35.9994L50.9224 35.0894C51.0681 34.9926 51.2398 34.9423 51.4148 34.9453C51.5897 34.9486 51.7596 35.0048 51.9018 35.1068L54.8484 37.2041C54.7582 32.6697 52.8949 28.3506 49.6575 25.1734C46.4206 21.9964 42.0677 20.2139 37.532 20.2087C37.2224 20.2087 36.9364 20.0435 36.7815 19.7754C36.6266 19.5073 36.6266 19.1769 36.7815 18.9087C36.9364 18.6406 37.2224 18.4754 37.532 18.4754C42.391 18.4761 47.0662 20.3316 50.6031 23.6633C54.14 26.9949 56.2715 31.5508 56.5623 36.4011C56.8529 41.2514 55.2811 46.0293 52.1674 49.7595C49.054 53.4897 44.6339 55.8907 39.81 56.4718C34.9862 57.0527 30.122 55.7703 26.212 52.8862C22.3019 50.0019 19.6401 45.734 18.7708 40.953C17.9015 36.1725 18.89 31.2407 21.5345 27.1643C24.179 23.0883 28.2798 20.1755 32.9997 19.0211L32.9998 19.0215Z" fill="#B3B3B3"/>
<path d="M37.5324 54.8754C41.8267 54.8707 45.9668 53.2741 49.1523 50.3943C52.3378 47.5145 54.3427 43.5563 54.7791 39.2841L51.3819 36.8574L49.6399 38.0188H49.6397C49.5213 41.1506 48.1938 44.1145 45.9363 46.2885C43.6787 48.4623 40.6665 49.6768 37.5326 49.6768C34.3988 49.6768 31.3862 48.4623 29.129 46.2885C26.8714 44.1148 25.544 41.1509 25.4255 38.0188L23.6836 36.8574L20.2861 39.2841C20.7227 43.5561 22.7275 47.5144 25.913 50.3943C29.0985 53.2741 33.2385 54.8707 37.5328 54.8754H37.5324Z" fill="#B3B3B3"/>
<path d="M37.532 47.9428C40.2902 47.9428 42.9356 46.8472 44.8861 44.8968C46.8364 42.9463 47.9321 40.3013 47.9321 37.5427C47.9321 34.7841 46.8364 32.139 44.8861 30.1886C42.9355 28.2383 40.2906 27.1426 37.532 27.1426C34.7734 27.1426 32.1283 28.2383 30.1779 30.1886C28.2275 32.1391 27.1318 34.7841 27.1318 37.5427C27.1342 40.3003 28.2306 42.9442 30.1804 44.8942C32.1304 46.844 34.7742 47.9404 37.5319 47.9428L37.532 47.9428ZM33.1986 34.0762C33.2012 33.078 33.5472 32.1109 34.1784 31.3377C34.8097 30.5643 35.6877 30.0318 36.6653 29.8295V29.7428C36.6653 29.4332 36.8305 29.1472 37.0986 28.9923C37.3668 28.8374 37.6972 28.8374 37.9653 28.9923C38.2334 29.1472 38.3986 29.4333 38.3986 29.7428V29.8295C39.3762 30.0318 40.2542 30.5643 40.8856 31.3377C41.5168 32.111 41.8628 33.078 41.8653 34.0762C41.8653 34.3858 41.7001 34.6718 41.432 34.8267C41.1638 34.9816 40.8334 34.9816 40.5653 34.8267C40.2972 34.6718 40.132 34.3857 40.132 34.0762C40.1293 33.5401 39.9613 33.0179 39.6512 32.5805C39.341 32.1432 38.9037 31.812 38.3986 31.6322V36.7629C39.7149 37.0302 40.8329 37.8928 41.4254 39.0982C42.0178 40.3036 42.0178 41.7156 41.4254 42.921C40.8329 44.1264 39.7149 44.989 38.3986 45.2563V45.3429C38.3986 45.6525 38.2334 45.9386 37.9653 46.0935C37.6972 46.2483 37.3668 46.2483 37.0986 46.0935C36.8305 45.9386 36.6653 45.6525 36.6653 45.3429V45.2563C35.6877 45.054 34.8098 44.5215 34.1784 43.748C33.5472 42.9748 33.2011 42.0078 33.1986 41.0096C33.1986 40.7 33.3638 40.4139 33.632 40.2591C33.9001 40.1042 34.2305 40.1042 34.4986 40.2591C34.7668 40.4139 34.932 40.7 34.932 41.0096C34.9347 41.5457 35.1026 42.0679 35.4127 42.5053C35.723 42.9425 36.1602 43.2738 36.6653 43.4536V38.3229C35.6877 38.1206 34.8098 37.5881 34.1784 36.8147C33.5472 36.0414 33.2011 35.0744 33.1986 34.0762V34.0762Z" fill="#B3B3B3"/>
<path d="M40.1327 41.0084C40.13 40.4723 39.9621 39.9501 39.652 39.5127C39.3417 39.0755 38.9045 38.7442 38.3994 38.5645V43.4525V43.4523C38.9045 43.2725 39.3417 42.9413 39.652 42.504C39.9621 42.0666 40.13 41.5444 40.1327 41.0083V41.0084Z" fill="#B3B3B3"/>
<path d="M36.6661 31.6309C35.9863 31.8689 35.4365 32.3794 35.1486 33.0395C34.8606 33.6997 34.8606 34.4499 35.1486 35.11C35.4365 35.7702 35.9863 36.2807 36.6661 36.5187V31.6309Z" fill="#B3B3B3"/>
</svg>
