<svg width="16" height="15" viewBox="0 0 16 15" fill="none" xmlns="http://www.w3.org/2000/svg">
<path d="M7.33269 5.50002H9.99935C10.1762 5.50002 10.3457 5.42978 10.4708 5.30476C10.5958 5.17973 10.666 5.01016 10.666 4.83335C10.666 4.65654 10.5958 4.48697 10.4708 4.36195C10.3457 4.23692 10.1762 4.16669 9.99935 4.16669H8.66602V3.50002C8.66602 3.32321 8.59578 3.15364 8.47076 3.02862C8.34573 2.90359 8.17616 2.83335 7.99935 2.83335C7.82254 2.83335 7.65297 2.90359 7.52795 3.02862C7.40292 3.15364 7.33269 3.32321 7.33269 3.50002V4.16669C6.80225 4.16669 6.29354 4.3774 5.91847 4.75247C5.5434 5.12755 5.33269 5.63625 5.33269 6.16669C5.33269 6.69712 5.5434 7.20583 5.91847 7.5809C6.29354 7.95597 6.80225 8.16669 7.33269 8.16669H8.66602C8.84283 8.16669 9.0124 8.23692 9.13742 8.36195C9.26245 8.48697 9.33269 8.65654 9.33269 8.83335C9.33269 9.01016 9.26245 9.17973 9.13742 9.30476C9.0124 9.42978 8.84283 9.50002 8.66602 9.50002H5.99935C5.82254 9.50002 5.65297 9.57026 5.52795 9.69528C5.40292 9.82031 5.33269 9.98988 5.33269 10.1667C5.33269 10.3435 5.40292 10.5131 5.52795 10.6381C5.65297 10.7631 5.82254 10.8334 5.99935 10.8334H7.33269V11.5C7.33269 11.6768 7.40292 11.8464 7.52795 11.9714C7.65297 12.0964 7.82254 12.1667 7.99935 12.1667C8.17616 12.1667 8.34573 12.0964 8.47076 11.9714C8.59578 11.8464 8.66602 11.6768 8.66602 11.5V10.8334C9.19645 10.8334 9.70516 10.6226 10.0802 10.2476C10.4553 9.87249 10.666 9.36379 10.666 8.83335C10.666 8.30292 10.4553 7.79421 10.0802 7.41914C9.70516 7.04407 9.19645 6.83335 8.66602 6.83335H7.33269C7.15587 6.83335 6.98631 6.76312 6.86128 6.63809C6.73626 6.51307 6.66602 6.3435 6.66602 6.16669C6.66602 5.98988 6.73626 5.82031 6.86128 5.69528C6.98631 5.57026 7.15587 5.50002 7.33269 5.50002ZM7.99935 0.166687C6.54896 0.166687 5.13113 0.596779 3.92517 1.40258C2.71921 2.20837 1.77928 3.35368 1.22424 4.69367C0.669193 6.03367 0.523969 7.50815 0.806927 8.93068C1.08989 10.3532 1.78832 11.6599 2.8139 12.6855C3.83949 13.7111 5.14616 14.4095 6.56869 14.6924C7.99122 14.9754 9.46571 14.8302 10.8057 14.2751C12.1457 13.7201 13.291 12.7802 14.0968 11.5742C14.9026 10.3682 15.3327 8.95042 15.3327 7.50002C15.3327 5.5551 14.5601 3.68984 13.1848 2.31457C11.8095 0.939304 9.94427 0.166687 7.99935 0.166687ZM7.99935 13.5C6.81266 13.5 5.65263 13.1481 4.66593 12.4888C3.67924 11.8295 2.9102 10.8925 2.45608 9.79612C2.00195 8.69976 1.88313 7.49336 2.11464 6.32948C2.34615 5.16559 2.9176 4.09649 3.75671 3.25738C4.59583 2.41826 5.66492 1.84682 6.82881 1.61531C7.9927 1.3838 9.1991 1.50262 10.2955 1.95674C11.3918 2.41087 12.3289 3.1799 12.9882 4.1666C13.6475 5.15329 13.9994 6.31333 13.9994 7.50002C13.9994 9.09132 13.3672 10.6174 12.242 11.7427C11.1168 12.8679 9.59065 13.5 7.99935 13.5Z" fill="#6B7280"/>
</svg>
