<svg width="77" height="31" viewBox="0 0 77 31" fill="none" xmlns="http://www.w3.org/2000/svg">
<path d="M34.0244 4.1484C34.0244 3.97805 33.8783 3.83203 33.708 3.83203C33.5376 3.83203 33.3916 3.97805 33.3916 4.1484V6.99577C33.3916 7.1705 33.5332 7.31214 33.708 7.31214C33.8827 7.31214 34.0244 7.1705 34.0244 6.99577V4.1484Z" fill="#08979C"/>
<path d="M37.2138 4.63278C37.2138 4.46242 37.0678 4.31641 36.8974 4.31641C36.7271 4.31641 36.5811 4.46242 36.5811 4.63278V6.99342C36.5811 7.16814 36.7227 7.30979 36.8974 7.30979C37.0722 7.30979 37.2138 7.16814 37.2138 6.99342V4.63278Z" fill="#08979C"/>
<path d="M40.4013 4.1484C40.4013 3.97805 40.2553 3.83203 40.0849 3.83203C39.9146 3.83203 39.7686 3.97805 39.7686 4.1484V6.99577C39.7686 7.1705 39.9102 7.31214 40.0849 7.31214C40.2597 7.31214 40.4013 7.1705 40.4013 6.99577V4.1484Z" fill="#08979C"/>
<path d="M43.6083 4.63278C43.6083 4.46242 43.4623 4.31641 43.292 4.31641C43.1216 4.31641 42.9756 4.46242 42.9756 4.63278V6.99341C42.9756 7.16814 43.1172 7.30979 43.292 7.30979C43.4667 7.30979 43.6083 7.16814 43.6083 6.99341V4.63278Z" fill="#08979C"/>
<path d="M42.9756 29.8512C42.9756 30.0216 43.1216 30.1676 43.292 30.1676C43.4623 30.1676 43.6083 30.0216 43.6083 29.8512V27.0039C43.6083 26.8291 43.4667 26.6875 43.292 26.6875C43.1172 26.6875 42.9756 26.8291 42.9756 27.0039V29.8512Z" fill="#08979C"/>
<path d="M39.792 29.3645C39.792 29.5349 39.938 29.6809 40.1084 29.6809C40.2787 29.6809 40.4247 29.5349 40.4247 29.3645V27.0039C40.4247 26.8291 40.2831 26.6875 40.1084 26.6875C39.9336 26.6875 39.792 26.8291 39.792 27.0039V29.3645Z" fill="#08979C"/>
<path d="M36.6064 29.8512C36.6064 30.0216 36.7525 30.1676 36.9228 30.1676C37.0932 30.1676 37.2392 30.0216 37.2392 29.8512V27.0039C37.2392 26.8291 37.0975 26.6875 36.9228 26.6875C36.7481 26.6875 36.6064 26.8291 36.6064 27.0039V29.8512Z" fill="#08979C"/>
<path d="M33.3916 29.3645C33.3916 29.5349 33.5376 29.6809 33.708 29.6809C33.8783 29.6809 34.0244 29.5349 34.0244 29.3645V27.0039C34.0244 26.8291 33.8827 26.6875 33.708 26.6875C33.5332 26.6875 33.3916 26.8291 33.3916 27.0039V29.3645Z" fill="#08979C"/>
<path d="M51.3385 12.5253C51.5089 12.5253 51.6549 12.3793 51.6549 12.209C51.6549 12.0386 51.5089 11.8926 51.3385 11.8926H48.4912C48.3165 11.8926 48.1748 12.0342 48.1748 12.209C48.1748 12.3837 48.3164 12.5253 48.4912 12.5253H51.3385Z" fill="#08979C"/>
<path d="M50.8518 15.7109C51.0222 15.7109 51.1682 15.5649 51.1682 15.3945C51.1682 15.2241 51.0222 15.0781 50.8518 15.0781H48.4912C48.3164 15.0781 48.1748 15.2198 48.1748 15.3945C48.1748 15.5692 48.3164 15.7109 48.4912 15.7109H50.8518Z" fill="#08979C"/>
<path d="M51.3385 18.9023C51.5089 18.9023 51.6549 18.7563 51.6549 18.5859C51.6549 18.4156 51.5089 18.2695 51.3385 18.2695H48.4912C48.3165 18.2695 48.1748 18.4112 48.1748 18.5859C48.1748 18.7606 48.3164 18.9023 48.4912 18.9023H51.3385Z" fill="#08979C"/>
<path d="M50.8518 22.1152C51.0222 22.1152 51.1682 21.9691 51.1682 21.7988C51.1682 21.6284 51.0222 21.4824 50.8518 21.4824H48.4912C48.3164 21.4824 48.1748 21.6241 48.1748 21.7988C48.1748 21.9735 48.3164 22.1152 48.4912 22.1152H50.8518Z" fill="#08979C"/>
<path d="M25.6504 21.4824C25.48 21.4824 25.334 21.6284 25.334 21.7988C25.334 21.9691 25.48 22.1152 25.6504 22.1152H28.4977C28.6724 22.1152 28.8141 21.9735 28.8141 21.7988C28.8141 21.6241 28.6724 21.4824 28.4977 21.4824H25.6504Z" fill="#08979C"/>
<path d="M26.1377 18.293C25.9673 18.293 25.8213 18.439 25.8213 18.6093C25.8213 18.7797 25.9673 18.9257 26.1377 18.9257H28.4983C28.673 18.9257 28.8147 18.7841 28.8147 18.6093C28.8147 18.4346 28.673 18.293 28.4983 18.293H26.1377Z" fill="#08979C"/>
<path d="M25.6504 15.1055C25.48 15.1055 25.334 15.2515 25.334 15.4218C25.334 15.5922 25.48 15.7382 25.6504 15.7382H28.4977C28.6724 15.7382 28.8141 15.5966 28.8141 15.4218C28.8141 15.2471 28.6724 15.1055 28.4977 15.1055H25.6504Z" fill="#08979C"/>
<path d="M26.1377 11.8926C25.9673 11.8926 25.8213 12.0386 25.8213 12.209C25.8213 12.3793 25.9673 12.5253 26.1377 12.5253H28.4983C28.673 12.5253 28.8147 12.3837 28.8147 12.209C28.8147 12.0342 28.673 11.8926 28.4983 11.8926H26.1377Z" fill="#08979C"/>
<path d="M44.8761 8.09766H32.1238C30.7366 8.09766 29.5928 9.24147 29.5928 10.6286V23.3809C29.5928 24.7681 30.7366 25.9119 32.1238 25.9119H44.8761C46.2632 25.9119 47.407 24.7681 47.407 23.3809V10.6286C47.407 9.24147 46.2632 8.09766 44.8761 8.09766ZM43.8053 20.5822C43.8053 21.5314 43.0265 22.3101 42.0774 22.3101H34.8981C33.949 22.3101 33.1702 21.5314 33.1702 20.5822V13.403C33.1702 12.4539 33.949 11.6751 34.8981 11.6751H42.0774C43.0265 11.6751 43.8053 12.4539 43.8053 13.403V20.5822ZM45.3628 10.726C45.0464 10.726 44.7787 10.4583 44.7787 10.1419C44.7787 9.82554 45.0464 9.55784 45.3628 9.55784C45.6792 9.55784 45.9469 9.82554 45.9469 10.1419C45.9469 10.4583 45.6792 10.726 45.3628 10.726Z" fill="#08979C"/>
<path d="M41.9055 12.207H35.0913C34.3125 12.207 33.7041 12.8398 33.7041 13.5942V20.4084C33.7041 21.1872 34.3368 21.7956 35.0913 21.7956H41.9055C42.6842 21.7956 43.2927 21.1628 43.2927 20.4084V13.5942C43.2927 12.8398 42.6599 12.207 41.9055 12.207ZM43.0493 20.165C43.0493 20.9438 42.4165 21.5522 41.6621 21.5522H35.3346C34.5559 21.5522 33.9475 20.9195 33.9475 20.165V13.8376C33.9475 13.0588 34.5802 12.4504 35.3346 12.4504H41.6621C42.4409 12.4504 43.0493 13.0831 43.0493 13.8376V20.165Z" fill="#08979C"/>
<path d="M35.8933 20.2368C35.5282 20.2368 35.2119 19.9204 35.2119 19.5554V16.416C35.2119 16.2456 35.0658 16.0996 34.8955 16.0996C34.7251 16.0996 34.5791 16.2456 34.5791 16.416V19.5554C34.5791 20.2855 35.1632 20.8696 35.8933 20.8696C36.0636 20.8696 36.2096 20.7235 36.2096 20.5532C36.2096 20.3828 36.0636 20.2368 35.8933 20.2368Z" fill="#08979C"/>
<path d="M15.5753 0.0338039C14.6262 0.179823 13.8718 0.934252 13.6771 1.85904C13.4789 2.88973 13.4616 4.11745 12.7186 4.85872L3.86949 13.6865C3.69914 13.8569 3.62613 14.0759 3.6748 14.3193L4.50224 18.3348C4.52658 18.4808 4.47791 18.6025 4.38056 18.6999L0.151207 22.9292C0.0543906 23.026 0 23.1573 0 23.2943C0 23.7542 0.556078 23.9845 0.8813 23.6593L5.42703 19.1136C5.59738 18.9432 5.67039 18.7242 5.62172 18.4808L4.79428 14.4653C4.76994 14.3193 4.81862 14.1976 4.91596 14.1003L13.4746 5.54168C14.2169 4.79931 15.4448 4.78298 16.4758 4.58472C17.4006 4.39003 18.155 3.6356 18.301 2.68648C18.52 1.12894 17.1815 -0.233897 15.5753 0.0338039ZM16.2567 3.61126C15.3076 3.83029 14.4802 3.00285 14.6992 2.05373C14.7966 1.567 15.1859 1.17762 15.6727 1.08027C16.6218 0.861243 17.4492 1.68868 17.2302 2.6378C17.1329 3.1002 16.7435 3.48958 16.2567 3.61126Z" fill="#08979C"/>
<path d="M61.4241 29.1405C62.3732 28.9945 63.1276 28.2401 63.3223 27.3153C63.5206 26.2843 63.5369 25.0564 64.2793 24.314L73.1299 15.4634C73.3002 15.2931 73.3732 15.074 73.3246 14.8307L72.4971 10.8152C72.4728 10.6691 72.5215 10.5475 72.6188 10.4501L76.8482 6.22077C76.945 6.12395 76.9994 5.99264 76.9994 5.85572C76.9994 5.39579 76.4433 5.16545 76.1181 5.49068L71.5723 10.0364C71.402 10.2068 71.329 10.4258 71.3777 10.6691L72.2051 14.6847C72.2294 14.8307 72.1808 14.9524 72.0834 15.0497L63.5248 23.6083C62.7825 24.3507 61.5546 24.367 60.5236 24.5653C59.5988 24.7599 58.8444 25.5144 58.6984 26.4635C58.4793 28.0454 59.8178 29.4082 61.4241 29.1405ZM60.7426 25.563C61.6918 25.344 62.5192 26.1715 62.3002 27.1206C62.2028 27.6073 61.8134 27.9967 61.3267 28.094C60.3776 28.3131 59.5501 27.4856 59.7692 26.5365C59.8665 26.0498 60.2559 25.6604 60.7426 25.563Z" fill="#08979C"/>
</svg>
