<svg width="48" height="48" viewBox="0 0 48 48" fill="none" xmlns="http://www.w3.org/2000/svg">
<g clip-path="url(#clip0_157282_201008)">
<path d="M24 0C23.8947 0 23.7895 0.000678503 23.6845 0.00203139L23.6885 0.309698C23.7922 0.308362 23.896 0.307692 24 0.307692C24.104 0.307692 24.2078 0.308362 24.3115 0.309698L24.3155 0.002031C24.2105 0.000678365 24.1053 0 24 0Z" fill="#006D75"/>
<path d="M25.571 0.0506013C25.3625 0.0371304 25.1534 0.0263213 24.9435 0.0182074L24.9316 0.32567C25.1388 0.333681 25.3453 0.344353 25.5512 0.357653L25.571 0.0506013Z" fill="#006D75"/>
<path d="M23.0565 0.0182086C22.8466 0.0263227 22.6374 0.0371321 22.429 0.0506032L22.4488 0.357655C22.6546 0.344355 22.8612 0.333683 23.0684 0.325671L23.0565 0.0182086Z" fill="#006D75"/>
<path d="M26.8224 0.164222C26.6148 0.139902 26.4064 0.118231 26.1973 0.0992451L26.1694 0.405678C26.3759 0.424422 26.5817 0.445815 26.7866 0.469824L26.8224 0.164222Z" fill="#006D75"/>
<path d="M21.8027 0.0992477C21.5935 0.118234 21.3852 0.139905 21.1776 0.164225L21.2134 0.469828C21.4183 0.445819 21.624 0.424425 21.8305 0.40568L21.8027 0.0992477Z" fill="#006D75"/>
<path d="M28.0662 0.343066C27.8601 0.307884 27.653 0.275331 27.4451 0.245444L27.4014 0.550005C27.6066 0.579509 27.811 0.611643 28.0145 0.646372L28.0662 0.343066Z" fill="#006D75"/>
<path d="M20.5548 0.245448C20.3469 0.275335 20.1399 0.307888 19.9337 0.34307L19.9855 0.646377C20.189 0.611648 20.3934 0.579513 20.5986 0.550009L20.5548 0.245448Z" fill="#006D75"/>
<path d="M29.299 0.586972C29.0948 0.540971 28.8897 0.497571 28.6837 0.456809L28.624 0.758651C28.8274 0.798888 29.0298 0.841728 29.2313 0.887136L29.299 0.586972Z" fill="#006D75"/>
<path d="M19.3163 0.456814C19.1102 0.497576 18.9051 0.540976 18.701 0.586977L18.7687 0.887141C18.9701 0.841734 19.1726 0.798893 19.376 0.758656L19.3163 0.456814Z" fill="#006D75"/>
<path d="M30.5171 0.895464C30.3156 0.83874 30.1131 0.784581 29.9094 0.733024L29.8339 1.0313C30.0349 1.08219 30.2349 1.13565 30.4338 1.19164L30.5171 0.895464Z" fill="#006D75"/>
<path d="M18.0905 0.73303C17.8869 0.784586 17.6843 0.838746 17.4828 0.89547L17.5662 1.19165C17.7651 1.13566 17.9651 1.0822 18.1661 1.03131L18.0905 0.73303Z" fill="#006D75"/>
<path d="M31.7173 1.26777C31.519 1.20047 31.3195 1.13569 31.1189 1.07347L31.0278 1.36735C31.2258 1.42877 31.4227 1.49271 31.6184 1.55914L31.7173 1.26777Z" fill="#006D75"/>
<path d="M16.881 1.07348C16.6804 1.1357 16.481 1.20048 16.2827 1.26778L16.3815 1.55915C16.5773 1.49271 16.7742 1.42877 16.9722 1.36736L16.881 1.07348Z" fill="#006D75"/>
<path d="M32.8962 1.70286C32.7017 1.6252 32.506 1.55002 32.3091 1.47734L32.2026 1.76601C32.3969 1.83774 32.5901 1.91196 32.7821 1.98861L32.8962 1.70286Z" fill="#006D75"/>
<path d="M15.6909 1.47735C15.494 1.55003 15.2983 1.62521 15.1038 1.70286L15.2179 1.98862C15.4099 1.91196 15.603 1.83775 15.7974 1.76601L15.6909 1.47735Z" fill="#006D75"/>
<path d="M34.0505 2.19945C33.8604 2.11168 33.669 2.02633 33.4763 1.94343L33.3547 2.22608C33.5449 2.30791 33.7339 2.39216 33.9215 2.47879L34.0505 2.19945Z" fill="#006D75"/>
<path d="M14.5237 1.94344C14.331 2.02634 14.1396 2.11169 13.9495 2.19946L14.0785 2.4788C14.2661 2.39217 14.455 2.30792 14.6453 2.22608L14.5237 1.94344Z" fill="#006D75"/>
<path d="M35.177 2.75606C34.9919 2.65844 34.8053 2.56318 34.6173 2.4703L34.481 2.74616C34.6666 2.83784 34.8508 2.93188 35.0335 3.02824L35.177 2.75606Z" fill="#006D75"/>
<path d="M13.3827 2.47031C13.1947 2.56318 13.0081 2.65845 12.823 2.75606L12.9665 3.02825C13.1492 2.93189 13.3334 2.83785 13.519 2.74617L13.3827 2.47031Z" fill="#006D75"/>
<path d="M36.2728 3.37102C36.093 3.26384 35.9118 3.15895 35.729 3.05637L35.5784 3.3247C35.7588 3.42595 35.9378 3.5295 36.1152 3.63531L36.2728 3.37102Z" fill="#006D75"/>
<path d="M12.271 3.05638C12.0882 3.15895 11.907 3.26385 11.7272 3.37103L11.8848 3.63531C12.0622 3.52951 12.2412 3.42596 12.4216 3.3247L12.271 3.05638Z" fill="#006D75"/>
<path d="M37.3349 4.04252C37.161 3.92608 36.9854 3.81186 36.8083 3.69989L36.6439 3.95996C36.8187 4.0705 36.992 4.18326 37.1637 4.2982L37.3349 4.04252Z" fill="#006D75"/>
<path d="M11.1916 3.6999C11.0146 3.81187 10.839 3.92609 10.6651 4.04252L10.8363 4.29821C11.008 4.18326 11.1813 4.0705 11.3561 3.95997L11.1916 3.6999Z" fill="#006D75"/>
<path d="M38.3604 4.76859C38.1928 4.64323 38.0235 4.52001 37.8525 4.39896L37.6747 4.65009C37.8435 4.76958 38.0107 4.89123 38.1761 5.01499L38.3604 4.76859Z" fill="#006D75"/>
<path d="M10.1475 4.39897C9.97649 4.52001 9.80719 4.64323 9.63957 4.7686L9.82386 5.015C9.98933 4.89123 10.1565 4.76959 10.3253 4.65009L10.1475 4.39897Z" fill="#006D75"/>
<path d="M39.3468 5.54722C39.1859 5.41326 39.0232 5.28136 38.8588 5.15157L38.6681 5.39308C38.8305 5.52121 38.9911 5.65143 39.1499 5.78369L39.3468 5.54722Z" fill="#006D75"/>
<path d="M9.1412 5.15157C8.97678 5.28136 8.8141 5.41326 8.6532 5.54723L8.85007 5.78369C9.00892 5.65143 9.16953 5.52122 9.33185 5.39308L9.1412 5.15157Z" fill="#006D75"/>
<path d="M40.2912 6.37613C40.1375 6.23394 39.9819 6.09374 39.8245 5.95557L39.6215 6.18682C39.7769 6.32324 39.9305 6.46165 40.0823 6.60203L40.2912 6.37613Z" fill="#006D75"/>
<path d="M8.17554 5.95557C8.01811 6.09374 7.8625 6.23394 7.70875 6.37613L7.91767 6.60203C8.06945 6.46165 8.22308 6.32324 8.3785 6.18683L8.17554 5.95557Z" fill="#006D75"/>
<path d="M41.1913 7.25303C41.0451 7.10301 40.897 6.9549 40.747 6.80874L40.5323 7.02912C40.6804 7.17342 40.8266 7.31964 40.9709 7.46775L41.1913 7.25303Z" fill="#006D75"/>
<path d="M7.25303 6.80874C7.10301 6.9549 6.9549 7.10301 6.80874 7.25303L7.02912 7.46775C7.17342 7.31965 7.31964 7.17342 7.46775 7.02912L7.25303 6.80874Z" fill="#006D75"/>
<path d="M42.0444 8.17554C41.9063 8.01811 41.7661 7.8625 41.6239 7.70875L41.398 7.91767C41.5383 8.06945 41.6768 8.22308 41.8132 8.3785L42.0444 8.17554Z" fill="#006D75"/>
<path d="M6.37613 7.70875C6.23394 7.8625 6.09374 8.01811 5.95557 8.17554L6.18682 8.37851C6.32324 8.22308 6.46165 8.06946 6.60203 7.91767L6.37613 7.70875Z" fill="#006D75"/>
<path d="M42.8484 9.1412C42.7186 8.97678 42.5867 8.8141 42.4528 8.6532L42.2163 8.85007C42.3486 9.00892 42.4788 9.16953 42.6069 9.33185L42.8484 9.1412Z" fill="#006D75"/>
<path d="M5.54722 8.6532C5.41326 8.8141 5.28136 8.97679 5.15157 9.14121L5.39308 9.33186C5.52121 9.16953 5.65143 9.00893 5.78369 8.85008L5.54722 8.6532Z" fill="#006D75"/>
<path d="M43.601 10.1475C43.48 9.97649 43.3568 9.80719 43.2314 9.63957L42.985 9.82386C43.1088 9.98933 43.2304 10.1565 43.3499 10.3253L43.601 10.1475Z" fill="#006D75"/>
<path d="M4.76859 9.63958C4.64323 9.80719 4.52001 9.9765 4.39896 10.1475L4.65009 10.3253C4.76958 10.1565 4.89123 9.98934 5.01499 9.82386L4.76859 9.63958Z" fill="#006D75"/>
<path d="M44.3001 11.1916C44.1881 11.0146 44.0739 10.839 43.9575 10.6651L43.7018 10.8363C43.8167 11.008 43.9295 11.1813 44.04 11.3561L44.3001 11.1916Z" fill="#006D75"/>
<path d="M4.04252 10.6651C3.92608 10.839 3.81186 11.0146 3.69989 11.1917L3.95996 11.3561C4.0705 11.1813 4.18326 11.008 4.2982 10.8363L4.04252 10.6651Z" fill="#006D75"/>
<path d="M44.9436 12.271C44.8411 12.0882 44.7362 11.907 44.629 11.7272L44.3647 11.8848C44.4705 12.0622 44.574 12.2412 44.6753 12.4216L44.9436 12.271Z" fill="#006D75"/>
<path d="M3.37102 11.7272C3.26384 11.907 3.15895 12.0883 3.05637 12.271L3.3247 12.4216C3.42595 12.2412 3.5295 12.0622 3.63531 11.8848L3.37102 11.7272Z" fill="#006D75"/>
<path d="M45.5297 13.3827C45.4368 13.1947 45.3416 13.0081 45.2439 12.823L44.9718 12.9665C45.0681 13.1492 45.1622 13.3334 45.2538 13.519L45.5297 13.3827Z" fill="#006D75"/>
<path d="M2.75606 12.823C2.65844 13.0081 2.56318 13.1947 2.4703 13.3827L2.74616 13.519C2.83784 13.3334 2.93188 13.1492 3.02824 12.9665L2.75606 12.823Z" fill="#006D75"/>
<path d="M46.0566 14.5237C45.9737 14.331 45.8883 14.1396 45.8005 13.9495L45.5212 14.0785C45.6078 14.2661 45.6921 14.455 45.7739 14.6453L46.0566 14.5237Z" fill="#006D75"/>
<path d="M2.19945 13.9495C2.11168 14.1396 2.02633 14.331 1.94343 14.5237L2.22608 14.6453C2.30791 14.4551 2.39216 14.2661 2.47879 14.0785L2.19945 13.9495Z" fill="#006D75"/>
<path d="M46.5227 15.6909C46.45 15.494 46.3748 15.2983 46.2971 15.1038L46.0114 15.2179C46.088 15.4099 46.1623 15.603 46.234 15.7974L46.5227 15.6909Z" fill="#006D75"/>
<path d="M1.70286 15.1038C1.6252 15.2983 1.55002 15.494 1.47734 15.6909L1.76601 15.7974C1.83774 15.6031 1.91196 15.4099 1.98861 15.2179L1.70286 15.1038Z" fill="#006D75"/>
<path d="M46.9265 16.881C46.8643 16.6804 46.7995 16.481 46.7322 16.2827L46.4409 16.3815C46.5073 16.5773 46.5712 16.7742 46.6326 16.9722L46.9265 16.881Z" fill="#006D75"/>
<path d="M1.26777 16.2827C1.20047 16.481 1.13569 16.6805 1.07347 16.8811L1.36735 16.9722C1.42877 16.7742 1.49271 16.5773 1.55914 16.3816L1.26777 16.2827Z" fill="#006D75"/>
<path d="M47.267 18.0905C47.2154 17.8869 47.1613 17.6843 47.1045 17.4828L46.8083 17.5662C46.8643 17.7651 46.9178 17.9651 46.9687 18.1661L47.267 18.0905Z" fill="#006D75"/>
<path d="M0.895464 17.4829C0.83874 17.6844 0.784581 17.8869 0.733024 18.0906L1.0313 18.1661C1.08219 17.9651 1.13565 17.7651 1.19164 17.5662L0.895464 17.4829Z" fill="#006D75"/>
<path d="M47.5432 19.3163C47.5024 19.1102 47.459 18.9051 47.413 18.701L47.1129 18.7687C47.1583 18.9701 47.2011 19.1726 47.2413 19.376L47.5432 19.3163Z" fill="#006D75"/>
<path d="M0.586972 18.701C0.540971 18.9052 0.497571 19.1103 0.456809 19.3163L0.758651 19.376C0.798888 19.1726 0.841728 18.9702 0.887136 18.7687L0.586972 18.701Z" fill="#006D75"/>
<path d="M47.7546 20.5548C47.7247 20.3469 47.6921 20.1399 47.6569 19.9337L47.3536 19.9855C47.3884 20.189 47.4205 20.3934 47.45 20.5986L47.7546 20.5548Z" fill="#006D75"/>
<path d="M0.343066 19.9338C0.307884 20.1399 0.275331 20.347 0.245444 20.5549L0.550005 20.5986C0.579509 20.3934 0.611643 20.189 0.646372 19.9855L0.343066 19.9338Z" fill="#006D75"/>
<path d="M47.9008 21.8027C47.8818 21.5935 47.8601 21.3852 47.8358 21.1776L47.5302 21.2134C47.5542 21.4183 47.5756 21.624 47.5943 21.8305L47.9008 21.8027Z" fill="#006D75"/>
<path d="M0.164222 21.1776C0.139902 21.3852 0.118231 21.5936 0.0992451 21.8027L0.405678 21.8306C0.424422 21.6241 0.445815 21.4183 0.469824 21.2134L0.164222 21.1776Z" fill="#006D75"/>
<path d="M47.9818 23.0565C47.9737 22.8466 47.9629 22.6374 47.9494 22.429L47.6423 22.4488C47.6556 22.6546 47.6663 22.8612 47.6743 23.0684L47.9818 23.0565Z" fill="#006D75"/>
<path d="M0.0506013 22.429C0.0371304 22.6375 0.0263213 22.8466 0.0182074 23.0565L0.32567 23.0684C0.333681 22.8612 0.344353 22.6547 0.357653 22.4488L0.0506013 22.429Z" fill="#006D75"/>
<path d="M48 24C48 23.8947 47.9993 23.7895 47.998 23.6845L47.6903 23.6885C47.6916 23.7922 47.6923 23.896 47.6923 24C47.6923 24.104 47.6916 24.2078 47.6903 24.3115L47.998 24.3155C47.9993 24.2105 48 24.1053 48 24Z" fill="#006D75"/>
<path d="M0.002031 23.6845C0.000678365 23.7895 0 23.8947 0 24C0 24.1053 0.000678503 24.2105 0.00203139 24.3155L0.309698 24.3115C0.308362 24.2078 0.307692 24.104 0.307692 24C0.307692 23.896 0.308362 23.7922 0.309698 23.6885L0.002031 23.6845Z" fill="#006D75"/>
<path d="M47.9494 25.571C47.9629 25.3625 47.9737 25.1534 47.9818 24.9435L47.6743 24.9316C47.6663 25.1388 47.6557 25.3453 47.6423 25.5512L47.9494 25.571Z" fill="#006D75"/>
<path d="M0.0182086 24.9435C0.0263227 25.1534 0.0371321 25.3626 0.0506032 25.571L0.357655 25.5512C0.344355 25.3454 0.333683 25.1388 0.325671 24.9316L0.0182086 24.9435Z" fill="#006D75"/>
<path d="M47.8358 26.8224C47.8601 26.6148 47.8818 26.4064 47.9008 26.1973L47.5943 26.1694C47.5756 26.3759 47.5542 26.5817 47.5302 26.7866L47.8358 26.8224Z" fill="#006D75"/>
<path d="M0.0992477 26.1973C0.118234 26.4065 0.139905 26.6149 0.164225 26.8224L0.469828 26.7866C0.445819 26.5817 0.424425 26.376 0.40568 26.1695L0.0992477 26.1973Z" fill="#006D75"/>
<path d="M47.6569 28.0662C47.6921 27.8601 47.7247 27.653 47.7546 27.4451L47.45 27.4014C47.4205 27.6066 47.3884 27.811 47.3536 28.0145L47.6569 28.0662Z" fill="#006D75"/>
<path d="M0.245448 27.4452C0.275335 27.6531 0.307888 27.8601 0.34307 28.0663L0.646377 28.0145C0.611648 27.811 0.579513 27.6066 0.550009 27.4014L0.245448 27.4452Z" fill="#006D75"/>
<path d="M47.413 29.299C47.459 29.0948 47.5024 28.8897 47.5432 28.6837L47.2414 28.624C47.2011 28.8274 47.1583 29.0298 47.1129 29.2313L47.413 29.299Z" fill="#006D75"/>
<path d="M0.456814 28.6837C0.497576 28.8898 0.540976 29.0949 0.586977 29.299L0.887141 29.2313C0.841734 29.0299 0.798893 28.8274 0.758656 28.624L0.456814 28.6837Z" fill="#006D75"/>
<path d="M47.1045 30.5171C47.1613 30.3156 47.2154 30.1131 47.267 29.9094L46.9687 29.8339C46.9178 30.0349 46.8643 30.2349 46.8084 30.4338L47.1045 30.5171Z" fill="#006D75"/>
<path d="M0.73303 29.9095C0.784586 30.1131 0.838746 30.3157 0.89547 30.5172L1.19165 30.4338C1.13566 30.2349 1.0822 30.0349 1.03131 29.8339L0.73303 29.9095Z" fill="#006D75"/>
<path d="M46.7322 31.7173C46.7995 31.519 46.8643 31.3195 46.9265 31.1189L46.6327 31.0278C46.5712 31.2258 46.5073 31.4227 46.4409 31.6184L46.7322 31.7173Z" fill="#006D75"/>
<path d="M1.07348 31.119C1.1357 31.3196 1.20048 31.519 1.26778 31.7173L1.55915 31.6185C1.49271 31.4227 1.42877 31.2258 1.36736 31.0278L1.07348 31.119Z" fill="#006D75"/>
<path d="M46.2971 32.8962C46.3748 32.7017 46.45 32.506 46.5227 32.3091L46.234 32.2026C46.1623 32.3969 46.088 32.5901 46.0114 32.7821L46.2971 32.8962Z" fill="#006D75"/>
<path d="M1.47735 32.3091C1.55003 32.506 1.62521 32.7018 1.70286 32.8962L1.98862 32.7821C1.91196 32.5902 1.83775 32.397 1.76601 32.2026L1.47735 32.3091Z" fill="#006D75"/>
<path d="M45.8006 34.0505C45.8883 33.8604 45.9737 33.669 46.0566 33.4763L45.7739 33.3547C45.6921 33.5449 45.6078 33.7339 45.5212 33.9215L45.8006 34.0505Z" fill="#006D75"/>
<path d="M1.94344 33.4763C2.02634 33.669 2.11169 33.8604 2.19946 34.0505L2.4788 33.9215C2.39217 33.7339 2.30792 33.545 2.22608 33.3547L1.94344 33.4763Z" fill="#006D75"/>
<path d="M45.2439 35.177C45.3416 34.9919 45.4368 34.8053 45.5297 34.6173L45.2538 34.481C45.1622 34.6666 45.0681 34.8508 44.9718 35.0335L45.2439 35.177Z" fill="#006D75"/>
<path d="M2.47031 34.6173C2.56318 34.8053 2.65845 34.9919 2.75606 35.177L3.02825 35.0335C2.93189 34.8508 2.83785 34.6666 2.74617 34.481L2.47031 34.6173Z" fill="#006D75"/>
<path d="M44.629 36.2728C44.7362 36.093 44.8411 35.9118 44.9436 35.729L44.6753 35.5784C44.5741 35.7588 44.4705 35.9378 44.3647 36.1152L44.629 36.2728Z" fill="#006D75"/>
<path d="M3.05638 35.729C3.15895 35.9118 3.26385 36.0931 3.37103 36.2728L3.63531 36.1153C3.52951 35.9378 3.42596 35.7588 3.3247 35.5784L3.05638 35.729Z" fill="#006D75"/>
<path d="M43.9575 37.3349C44.0739 37.161 44.1881 36.9854 44.3001 36.8083L44.04 36.6439C43.9295 36.8187 43.8167 36.992 43.7018 37.1637L43.9575 37.3349Z" fill="#006D75"/>
<path d="M3.6999 36.8084C3.81187 36.9855 3.92609 37.161 4.04252 37.3349L4.29821 37.1637C4.18326 36.992 4.0705 36.8187 3.95997 36.6439L3.6999 36.8084Z" fill="#006D75"/>
<path d="M43.2314 38.3604C43.3568 38.1928 43.48 38.0235 43.601 37.8525L43.3499 37.6747C43.2304 37.8435 43.1088 38.0107 42.985 38.1761L43.2314 38.3604Z" fill="#006D75"/>
<path d="M4.39897 37.8525C4.52001 38.0235 4.64323 38.1928 4.7686 38.3604L5.015 38.1761C4.89123 38.0107 4.76959 37.8435 4.65009 37.6748L4.39897 37.8525Z" fill="#006D75"/>
<path d="M42.4528 39.3468C42.5867 39.1859 42.7186 39.0232 42.8484 38.8588L42.6069 38.6681C42.4788 38.8305 42.3486 38.9911 42.2163 39.1499L42.4528 39.3468Z" fill="#006D75"/>
<path d="M5.15157 38.8588C5.28136 39.0232 5.41326 39.1859 5.54723 39.3468L5.78369 39.1499C5.65143 38.9911 5.52122 38.8305 5.39308 38.6682L5.15157 38.8588Z" fill="#006D75"/>
<path d="M41.6239 40.2912C41.7661 40.1375 41.9063 39.9819 42.0444 39.8245L41.8132 39.6215C41.6768 39.7769 41.5384 39.9305 41.398 40.0823L41.6239 40.2912Z" fill="#006D75"/>
<path d="M5.95557 39.8245C6.09374 39.9819 6.23394 40.1375 6.37613 40.2913L6.60203 40.0823C6.46165 39.9305 6.32324 39.7769 6.18683 39.6215L5.95557 39.8245Z" fill="#006D75"/>
<path d="M40.747 41.1913C40.897 41.0451 41.0451 40.897 41.1913 40.747L40.9709 40.5323C40.8266 40.6804 40.6804 40.8266 40.5323 40.9709L40.747 41.1913Z" fill="#006D75"/>
<path d="M6.80874 40.747C6.9549 40.897 7.10301 41.0451 7.25303 41.1913L7.46775 40.9709C7.31965 40.8266 7.17342 40.6804 7.02912 40.5323L6.80874 40.747Z" fill="#006D75"/>
<path d="M7.70875 41.6239C7.8625 41.7661 8.01811 41.9063 8.17554 42.0444L8.37851 41.8132C8.22308 41.6768 8.06946 41.5384 7.91767 41.398L7.70875 41.6239Z" fill="#006D75"/>
<path d="M39.8245 42.0444C39.9819 41.9063 40.1375 41.7661 40.2913 41.6239L40.0823 41.398C39.9305 41.5383 39.7769 41.6768 39.6215 41.8132L39.8245 42.0444Z" fill="#006D75"/>
<path d="M8.6532 42.4528C8.8141 42.5867 8.97679 42.7186 9.14121 42.8484L9.33186 42.6069C9.16953 42.4788 9.00893 42.3486 8.85008 42.2163L8.6532 42.4528Z" fill="#006D75"/>
<path d="M38.8588 42.8484C39.0232 42.7186 39.1859 42.5867 39.3468 42.4528L39.1499 42.2163C38.9911 42.3486 38.8305 42.4788 38.6682 42.6069L38.8588 42.8484Z" fill="#006D75"/>
<path d="M37.8525 43.601C38.0235 43.48 38.1928 43.3568 38.3604 43.2314L38.1761 42.985C38.0107 43.1088 37.8435 43.2304 37.6748 43.3499L37.8525 43.601Z" fill="#006D75"/>
<path d="M9.63958 43.2314C9.80719 43.3568 9.9765 43.48 10.1475 43.601L10.3253 43.3499C10.1565 43.2304 9.98934 43.1088 9.82386 42.985L9.63958 43.2314Z" fill="#006D75"/>
<path d="M36.8084 44.3001C36.9855 44.1881 37.161 44.0739 37.3349 43.9575L37.1637 43.7018C36.992 43.8167 36.8187 43.9295 36.6439 44.04L36.8084 44.3001Z" fill="#006D75"/>
<path d="M10.6651 43.9575C10.839 44.0739 11.0146 44.1881 11.1917 44.3001L11.3561 44.04C11.1813 43.9295 11.008 43.8167 10.8363 43.7018L10.6651 43.9575Z" fill="#006D75"/>
<path d="M35.729 44.9436C35.9118 44.8411 36.0931 44.7362 36.2728 44.629L36.1153 44.3647C35.9378 44.4705 35.7588 44.574 35.5784 44.6753L35.729 44.9436Z" fill="#006D75"/>
<path d="M11.7272 44.629C11.907 44.7362 12.0883 44.8411 12.271 44.9436L12.4216 44.6753C12.2412 44.5741 12.0622 44.4705 11.8848 44.3647L11.7272 44.629Z" fill="#006D75"/>
<path d="M34.6173 45.5297C34.8053 45.4368 34.9919 45.3416 35.177 45.2439L35.0335 44.9718C34.8508 45.0681 34.6666 45.1622 34.481 45.2538L34.6173 45.5297Z" fill="#006D75"/>
<path d="M12.823 45.2439C13.0081 45.3416 13.1947 45.4368 13.3827 45.5297L13.519 45.2538C13.3334 45.1622 13.1492 45.0681 12.9665 44.9718L12.823 45.2439Z" fill="#006D75"/>
<path d="M33.4763 46.0566C33.669 45.9737 33.8604 45.8883 34.0505 45.8005L33.9215 45.5212C33.7339 45.6078 33.545 45.6921 33.3547 45.7739L33.4763 46.0566Z" fill="#006D75"/>
<path d="M13.9495 45.8006C14.1396 45.8883 14.331 45.9737 14.5237 46.0566L14.6453 45.7739C14.4551 45.6921 14.2661 45.6078 14.0785 45.5212L13.9495 45.8006Z" fill="#006D75"/>
<path d="M32.3091 46.5227C32.506 46.45 32.7018 46.3748 32.8962 46.2971L32.7821 46.0114C32.5902 46.088 32.397 46.1623 32.2026 46.234L32.3091 46.5227Z" fill="#006D75"/>
<path d="M15.1038 46.2971C15.2983 46.3748 15.494 46.45 15.6909 46.5227L15.7974 46.234C15.6031 46.1623 15.4099 46.088 15.2179 46.0114L15.1038 46.2971Z" fill="#006D75"/>
<path d="M31.119 46.9265C31.3196 46.8643 31.519 46.7995 31.7173 46.7322L31.6185 46.4409C31.4227 46.5073 31.2258 46.5712 31.0278 46.6326L31.119 46.9265Z" fill="#006D75"/>
<path d="M16.2827 46.7322C16.481 46.7995 16.6805 46.8643 16.8811 46.9265L16.9722 46.6327C16.7742 46.5712 16.5773 46.5073 16.3816 46.4409L16.2827 46.7322Z" fill="#006D75"/>
<path d="M29.9095 47.267C30.1131 47.2154 30.3157 47.1613 30.5172 47.1045L30.4338 46.8083C30.2349 46.8643 30.0349 46.9178 29.8339 46.9687L29.9095 47.267Z" fill="#006D75"/>
<path d="M17.4829 47.1045C17.6844 47.1613 17.8869 47.2154 18.0906 47.267L18.1661 46.9687C17.9651 46.9178 17.7651 46.8643 17.5662 46.8084L17.4829 47.1045Z" fill="#006D75"/>
<path d="M28.6837 47.5432C28.8898 47.5024 29.0949 47.459 29.299 47.413L29.2313 47.1129C29.0299 47.1583 28.8274 47.2011 28.624 47.2413L28.6837 47.5432Z" fill="#006D75"/>
<path d="M18.701 47.413C18.9052 47.459 19.1103 47.5024 19.3163 47.5432L19.376 47.2414C19.1726 47.2011 18.9702 47.1583 18.7687 47.1129L18.701 47.413Z" fill="#006D75"/>
<path d="M27.4452 47.7546C27.6531 47.7247 27.8601 47.6921 28.0663 47.6569L28.0145 47.3536C27.811 47.3884 27.6066 47.4205 27.4014 47.45L27.4452 47.7546Z" fill="#006D75"/>
<path d="M19.9338 47.6569C20.1399 47.6921 20.347 47.7247 20.5549 47.7546L20.5986 47.45C20.3934 47.4205 20.189 47.3884 19.9855 47.3536L19.9338 47.6569Z" fill="#006D75"/>
<path d="M26.1973 47.9008C26.4065 47.8818 26.6149 47.8601 26.8224 47.8358L26.7866 47.5302C26.5817 47.5542 26.376 47.5756 26.1695 47.5943L26.1973 47.9008Z" fill="#006D75"/>
<path d="M21.1776 47.8358C21.3852 47.8601 21.5936 47.8818 21.8027 47.9008L21.8306 47.5943C21.6241 47.5756 21.4183 47.5542 21.2134 47.5302L21.1776 47.8358Z" fill="#006D75"/>
<path d="M22.429 47.9494C22.6375 47.9629 22.8466 47.9737 23.0565 47.9818L23.0684 47.6743C22.8612 47.6663 22.6547 47.6557 22.4488 47.6423L22.429 47.9494Z" fill="#006D75"/>
<path d="M24.9435 47.9818C25.1534 47.9737 25.3626 47.9629 25.571 47.9494L25.5512 47.6423C25.3454 47.6556 25.1388 47.6663 24.9316 47.6743L24.9435 47.9818Z" fill="#006D75"/>
<path d="M23.6845 47.998C23.7895 47.9993 23.8947 48 24 48C24.1053 48 24.2105 47.9993 24.3155 47.998L24.3115 47.6903C24.2078 47.6916 24.104 47.6923 24 47.6923C23.896 47.6923 23.7922 47.6916 23.6885 47.6903L23.6845 47.998Z" fill="#006D75"/>
<path d="M5.18485 37.3647C5.71917 38.1156 6.29731 38.8331 6.91554 39.5135C7.02779 39.303 7.13347 39.0863 7.23168 38.8653C8.01249 37.1085 8.46959 34.7264 7.58711 32.7326C5.94786 29.0292 6.0265 27.1989 6.72582 26.0396C7.09805 25.4226 7.72443 24.8526 8.69974 24.2711C9.61955 23.7227 10.7753 23.2066 12.1827 22.6378C12.7274 22.9924 13.4258 23.0959 14.0925 22.8616L15.2925 22.4308C16.8617 24.4001 19.5387 25.2616 22.0617 24.4001L24.4617 23.5693C24.6771 24.1539 25.3233 24.4616 25.9079 24.2462C26.4925 24.0308 26.8002 23.3847 26.6156 22.8001L26.031 21.077L29.9387 19.7232C30.4002 19.5385 30.6464 18.9847 30.4925 18.4616C30.3079 17.9693 29.754 17.6924 29.2617 17.877L25.354 19.2308L23.7233 14.5539L27.631 13.2001C28.1233 13.0155 28.4002 12.4616 28.2156 11.9693C28.031 11.477 27.4771 11.2001 26.9848 11.3847L23.0771 12.7078L22.4925 10.9847C22.2771 10.4001 21.631 10.0924 21.0464 10.277C20.4617 10.4924 20.154 11.1078 20.3387 11.7231L17.9387 12.5539C15.3848 13.4462 13.8464 15.8155 13.8464 18.3385L12.6464 18.7693C11.9017 19.031 11.3939 19.6481 11.2438 20.3623C9.81743 20.939 8.52169 21.5114 7.43914 22.1568C6.27764 22.8494 5.27836 23.6736 4.6181 24.7681C3.25242 27.032 3.63876 29.894 5.33621 33.729C5.76132 34.6894 5.66489 36.0501 5.18485 37.3647Z" fill="#006D75"/>
<path d="M39.9387 25.8462L37.1695 25.6924C36.9849 25.6924 36.8926 25.5078 36.9233 25.3539L39.231 18.5847C39.3233 18.3078 38.9849 18.1232 38.8003 18.3078L30.831 26.8309C30.6772 26.9847 30.7695 27.2616 31.0157 27.2616L33.7849 27.4155C33.9695 27.4155 34.0618 27.6001 34.031 27.7539L31.7233 34.5232C31.631 34.8001 31.9695 34.9847 32.1541 34.8001L40.1233 26.277C40.2772 26.1232 40.1541 25.8462 39.9387 25.8462Z" fill="#006D75"/>
</g>
<defs>
<clipPath id="clip0_157282_201008">
<rect width="48" height="48" fill="white"/>
</clipPath>
</defs>
</svg>
