<svg width="60" height="62" viewBox="0 0 60 62" fill="none" xmlns="http://www.w3.org/2000/svg">
<path d="M59.8172 19.555C59.8144 19.2826 59.6878 19.0265 59.4735 18.8584C59.2589 18.6905 58.98 18.6291 58.7148 18.6915L53.6555 19.8832H53.6557C52.0643 20.3038 50.6506 21.2257 49.6241 22.5124C48.5974 23.799 48.0124 25.3819 47.9556 27.027L47.9609 27.5047C47.6684 26.9499 47.3536 26.4061 47.016 25.8731L47.0101 25.8641H47.0099C44.9553 22.6244 42.1272 19.9467 38.7799 18.0722L40.3757 13.3144C40.9047 11.585 40.8629 9.73124 40.2563 8.02738C39.6496 6.32357 38.5105 4.86057 37.0075 3.85467L31.9424 0.783916C31.7095 0.643042 31.4253 0.615395 31.1696 0.70884C30.9141 0.802485 30.7147 1.00693 30.6279 1.26508L28.7881 6.74743H28.7883C28.3308 8.26778 28.3066 9.88577 28.7185 11.4192C29.1304 12.9527 29.9621 14.3408 31.12 15.4274C30.6219 15.3491 30.1201 15.2876 29.615 15.2428L23.463 13.3912C19.6463 12.2427 14.984 14.0706 13.0687 17.4656L9.7919 23.274L9.79211 23.2738C9.65809 23.5109 9.63933 23.7961 9.74084 24.0488C9.84236 24.3013 10.0535 24.4942 10.3142 24.5725L14.4532 25.8184C13.3843 26.9397 12.4649 28.1942 11.7173 29.5509C10.997 29.9473 10.3528 30.468 9.81431 31.0891C8.07764 29.1312 5.85618 28.4461 3.69905 29.2619V29.2616C2.52828 29.7262 1.54579 30.568 0.907237 31.6537C0.268689 32.7395 0.0105623 34.0071 0.173622 35.2562C0.616018 38.706 3.31077 40.9091 5.68852 42.8528H5.68832C6.95901 43.7878 8.09888 44.8887 9.07755 46.1263C9.24466 46.3689 9.52055 46.5138 9.8152 46.5138C10.1101 46.5138 10.3858 46.3689 10.553 46.1263C10.6967 45.919 10.8511 45.7192 11.0152 45.5279C12.3301 48.5143 14.4313 51.0878 17.0943 52.9736C19.7572 54.8594 22.882 55.9872 26.1355 56.2365C29.3891 56.4857 32.6491 55.8469 35.5683 54.3885C38.4872 52.9304 40.9555 50.7069 42.7101 47.9555C44.4648 45.2043 45.4396 42.0283 45.5306 38.7666C45.6218 35.5047 44.8258 32.2793 43.2276 29.4346L45.9686 27.6149V27.6151C48.6339 32.2558 49.4553 37.7299 48.2694 42.9482C47.0837 48.1671 43.9774 52.7484 39.5682 55.7817C35.1592 58.8151 29.7701 60.0781 24.4722 59.3199C19.1743 58.5616 14.3559 55.8378 10.9748 51.6897C10.7704 51.4492 10.4543 51.3339 10.1431 51.3864C9.83168 51.4389 9.57093 51.651 9.45628 51.9452C9.34165 52.2395 9.39029 52.5721 9.58404 52.8213C12.8802 56.8729 17.4518 59.6883 22.5534 60.8074C27.6551 61.9272 32.9854 61.285 37.6752 58.9858C42.365 56.6866 46.1372 52.8664 48.3769 48.1477C50.6166 43.4293 51.1912 38.0913 50.0073 33.0036L54.1696 32.0246V32.0248C55.7612 31.604 57.1748 30.6821 58.2014 29.3951C59.2279 28.1083 59.8126 26.525 59.8691 24.8797L59.8172 19.555ZM29.9337 17.0803C33.0787 17.4329 36.1048 18.4858 38.7899 20.1614C37.0867 19.9684 35.3686 20.3638 33.9211 21.2819L33.8075 21.357H33.8077C31.9949 20.6805 30.0845 20.3023 28.1507 20.2371L29.9337 17.0803ZM9.81522 44.1764C8.88925 43.1967 7.88882 42.2903 6.82279 41.4653C4.60375 39.6483 2.30335 37.7701 1.9516 35.0281C1.83737 34.1788 2.00952 33.3158 2.44102 32.5754C2.87232 31.8351 3.53853 31.2599 4.33373 30.9408C4.70185 30.7991 5.09261 30.726 5.48693 30.7246C6.77839 30.7246 8.04138 31.5319 9.07311 33.0565C9.24002 33.3027 9.51813 33.4503 9.81541 33.4503C10.1129 33.4503 10.391 33.3027 10.5579 33.0565C11.8958 31.0796 13.6252 30.3089 15.2967 30.9406V30.9408C16.0919 31.2599 16.7579 31.8351 17.1894 32.5754C17.6209 33.3159 17.7931 34.1788 17.6789 35.0281C17.3277 37.7691 15.0297 39.6481 12.8082 41.4653C11.7422 42.2906 10.7416 43.1969 9.81522 44.1764ZM18.8869 44.3651C18.7203 45.906 18.2087 47.0677 17.4464 47.6354C17.1776 47.8364 16.316 48.4036 15.3521 49.006V49.0058C14.0845 47.5773 13.08 45.9352 12.3859 44.156C12.8748 43.7233 13.4015 43.292 13.9406 42.8508C15.2527 41.8486 16.46 40.7159 17.5437 39.4702C17.7859 39.5576 18.0475 39.666 18.3302 39.803C18.9079 41.2497 19.1002 42.8215 18.8889 44.3649L18.8869 44.3651ZM21.9386 32.4218C21.6306 29.1886 20.1628 28.5499 18.4634 27.8097L18.4632 27.8093C17.6674 27.4874 16.9053 27.0876 16.1883 26.6157C16.2601 26.5459 16.3352 26.4781 16.4082 26.4095L16.5479 26.4512C17.3249 26.6819 18.1316 26.7976 18.9423 26.7945C22.1402 26.7945 25.4151 25.0841 26.9414 22.3768L27.1418 22.0218C27.2639 22.0218 27.3852 22.0172 27.5067 22.0172C28.9923 22.0158 30.4711 22.2184 31.9014 22.6196L29.5891 24.1547C29.3623 24.3051 29.2159 24.5505 29.1917 24.8217C29.1675 25.0928 29.2678 25.3604 29.4646 25.5487L33.3099 29.2321H33.3097C34.2785 30.1284 35.4815 30.7319 36.7792 30.9721C36.7544 31.0159 36.7302 31.0594 36.7048 31.1026V31.1024C36.2351 31.9596 35.6846 32.7701 35.0607 33.5225C33.8566 35.0235 29.9167 36.5416 28.3126 36.5702C25.9468 36.6132 24.3255 36.6009 23.3955 36.0703C22.7869 35.7244 22.1896 35.0418 21.9402 32.4215L21.9386 32.4218ZM27.5067 54.4809V54.4805C26.933 54.4797 26.36 54.4486 25.7896 54.3873C25.5991 52.896 25.9313 52.1279 26.92 51.6527C28.532 50.8767 29.4184 48.603 30.131 46.7757C30.3221 46.2848 30.5605 45.6741 30.7641 45.2575H30.7639C30.9738 45.7058 31.1531 46.1678 31.3004 46.6405C31.4118 47.0007 31.4776 47.3733 31.4962 47.7499C31.4637 48.3191 31.6994 48.8706 32.1331 49.2406C32.7739 49.6975 33.6609 49.5766 35.8394 49.0121C38.1078 48.4248 38.5294 48.4841 39.2199 49.469H39.2201C37.7082 51.0529 35.891 52.3136 33.8778 53.1747C31.8648 54.0359 29.6981 54.4797 27.5083 54.4793L27.5067 54.4809Z" fill="#08979C"/>
</svg>
