<svg width="62" height="47" viewBox="0 0 62 47" fill="none" xmlns="http://www.w3.org/2000/svg">
<path d="M59.8764 22.3122L58.7139 21.731C58.1811 21.4597 57.7258 21.0044 57.4546 20.4716L55.3621 16.2672C55.3233 16.1703 55.3233 16.0638 55.3621 15.9475L55.4977 15.531C55.7399 14.7947 55.6139 13.981 55.1586 13.3513C54.6936 12.7119 53.9767 12.3438 53.1921 12.3438H52.3105V9.4375C52.3105 8.17813 51.4968 7.1125 50.373 6.70563V3.625C50.373 2.02654 49.0653 0.71875 47.4668 0.71875H35.8418C34.2433 0.71875 32.9355 2.02654 32.9355 3.625V6.53125C31.3371 6.53125 30.0293 7.83904 30.0293 9.4375V12.4697C26.9874 13.1769 22.5604 16.8 19.2279 19.8999C18.4529 20.6264 17.4163 21.0624 16.3216 21.1302C11.2551 21.4692 6.83768 23.0096 4.02805 24.2302C2.58458 24.8696 1.42208 25.9836 0.714922 27.4077C0.240234 28.3571 -0.00195312 29.3742 -0.00195312 30.4399V36.1651C-0.00195312 37.2888 0.453359 38.3932 1.24776 39.1876C2.0518 39.982 3.14651 40.4373 4.27026 40.4373H7.82555C8.30023 43.7213 11.1193 46.2498 14.5293 46.2498C17.9393 46.2498 20.7582 43.7213 21.233 40.4373H40.763C41.2377 43.7213 44.0568 46.2498 47.4668 46.2498C50.8768 46.2498 53.6957 43.7213 54.1705 40.4373H60.0605C61.1262 40.4373 61.998 39.5654 61.998 38.4998V25.7412C61.998 24.2687 61.1843 22.9512 59.8765 22.3119L59.8764 22.3122ZM44.5604 2.65615H47.4666C47.9994 2.65615 48.4354 3.09208 48.4354 3.6249V6.53115H44.5604V2.65615ZM34.8729 3.6249C34.8729 3.09211 35.3088 2.65615 35.8416 2.65615H38.7479V6.53115H34.8729V3.6249ZM1.93537 30.4399C1.93537 29.878 2.03224 29.3355 2.2163 28.8124H6.77909L5.80063 30.1105C5.50031 30.5174 5.03534 30.7499 4.53159 30.7499H1.93534L1.93537 30.4399ZM14.5291 44.3124C11.8554 44.3124 9.68537 42.1424 9.68537 39.4686C9.68537 38.2771 10.131 37.1243 10.9351 36.233C11.836 35.2158 13.1535 34.6249 14.5291 34.6249C17.2029 34.6249 19.3729 36.7949 19.3729 39.4686C19.3729 42.1424 17.2029 44.3124 14.5291 44.3124ZM47.4666 44.3124C44.7929 44.3124 42.6229 42.1424 42.6229 39.4686C42.6229 37.0952 44.3182 35.0899 46.6722 34.6927C46.9241 34.6539 47.1954 34.6249 47.4666 34.6249C48.8422 34.6249 50.1597 35.2158 51.0801 36.2427C51.8745 37.1242 52.3104 38.277 52.3104 39.4686C52.3104 42.1424 50.1404 44.3124 47.4666 44.3124ZM45.5291 21.0624V17.1874H50.6441L50.6538 17.1971L51.9326 21.0624L45.5291 21.0624ZM60.0604 34.6249H52.1941C50.9347 33.3946 49.2394 32.6874 47.4666 32.6874V22.9999H51.9326C52.5623 22.9999 53.1435 22.6996 53.5116 22.1959C53.8701 21.6824 53.9669 21.0334 53.7732 20.4424L52.4847 16.5674C52.4847 16.5674 52.4847 16.5577 52.475 16.5577C52.2038 15.773 51.4675 15.2499 50.6441 15.2499H45.5291C44.4634 15.2499 43.5916 16.1218 43.5916 17.1874V21.0624C43.5916 22.128 44.4634 22.9999 45.5291 22.9999V32.9778C42.9909 33.7238 41.1309 35.884 40.7628 38.4999H23.6642V26.0028C23.6642 25.7412 23.7902 25.47 23.9936 25.2859L26.5317 22.9997H39.7166C40.7822 22.9997 41.6541 22.1278 41.6541 21.0622V17.1872C41.6541 16.1215 40.7822 15.2497 39.7166 15.2497H31.3176C30.9108 15.2497 30.5136 15.3756 30.1551 15.6372L24.9917 19.5122C24.3135 20.0256 24.052 20.8781 24.3135 21.6725C24.3717 21.8565 24.4685 22.0115 24.5654 22.1568L22.6957 23.8521C22.0757 24.4043 21.727 25.189 21.727 26.0027V38.4999H21.2329C20.7582 35.2158 17.9391 32.6874 14.5291 32.6874C12.7466 32.6874 11.0514 33.3946 9.80164 34.6249H1.93539V32.6874H4.53164C5.63602 32.6874 6.69193 32.1546 7.35068 31.273L8.94914 29.1515C9.27852 28.7155 9.32695 28.144 9.08477 27.6596C8.84258 27.1752 8.34852 26.8749 7.81573 26.8749H3.49511C3.88261 26.5164 4.31857 26.2258 4.80289 26.0127C7.47664 24.8404 11.6616 23.3874 16.4568 23.0677C17.9874 22.9611 19.4406 22.3508 20.545 21.3239C25.2143 16.9839 29.225 14.2812 30.9976 14.2812H53.1916C53.4047 14.2812 53.5306 14.4072 53.5888 14.4847C53.6275 14.5428 53.7244 14.7075 53.6566 14.9303L53.5209 15.3275C53.3466 15.8603 53.3466 16.4319 53.5597 16.984C53.5984 17.0809 53.6372 17.1778 53.6566 17.1971L55.7297 21.3434C56.185 22.2443 56.9309 22.9999 57.8416 23.4553L59.0138 24.0462C59.4013 24.24 59.6919 24.5597 59.8663 24.9375H54.7416C54.1991 24.9375 53.7147 25.2378 53.4628 25.7222C53.2206 26.2066 53.2691 26.7782 53.5984 27.2141L55.1969 29.3356C55.8654 30.2366 56.9019 30.75 58.0257 30.75H60.06L60.0604 34.6249ZM26.1541 21.0624L31.3176 17.1874H39.7165V21.0624H26.1541ZM60.0604 28.8124H58.026C57.5126 28.8124 57.0475 28.5799 56.7472 28.173L55.7688 26.8749H60.0603L60.0604 28.8124Z" fill="#08979C"/>
<path d="M17.4375 39.4688C17.4375 41.0738 16.1363 42.375 14.5312 42.375C12.9262 42.375 11.625 41.0738 11.625 39.4688C11.625 37.8637 12.9262 36.5625 14.5312 36.5625C16.1363 36.5625 17.4375 37.8637 17.4375 39.4688Z" fill="#08979C"/>
<path d="M50.375 39.4688C50.375 41.0738 49.0738 42.375 47.4688 42.375C45.8637 42.375 44.5625 41.0738 44.5625 39.4688C44.5625 37.8637 45.8637 36.5625 47.4688 36.5625C49.0738 36.5625 50.375 37.8637 50.375 39.4688Z" fill="#08979C"/>
<path d="M33.8185 28.9195H33.4503V25.1113C33.4503 24.6968 33.1878 24.3287 32.7954 24.1949C32.4031 24.0613 31.9699 24.189 31.7163 24.5174L27.7949 29.5617C27.4035 30.0617 27.3337 30.7263 27.6118 31.2968C27.8899 31.8674 28.4567 32.222 29.0901 32.222H29.4583V36.0388C29.4583 36.4534 29.7208 36.8215 30.1132 36.9553C30.2159 36.9902 30.3225 37.0076 30.427 37.0076C30.7205 37.0076 31.0045 36.874 31.1923 36.6326L35.1061 31.5989C35.5053 31.102 35.5828 30.4354 35.3067 29.859C35.0286 29.2788 34.459 28.9183 33.8186 28.9183L33.8185 28.9195Z" fill="#08979C"/>
</svg>
