<svg width="53" height="66" viewBox="0 0 53 66" fill="none" xmlns="http://www.w3.org/2000/svg">
<path d="M16.8016 45.5604C16.8016 36.989 23.7471 30.0659 32.3463 30.0659C36.3813 30.0659 40.0195 31.5824 42.7977 34.0879V15.0329H29.8327C28.7082 15.0329 27.716 14.1098 27.716 12.923V-6.10352e-05H0V56.5054H21.2996C18.5214 53.6703 16.8016 49.8461 16.8016 45.5604ZM6.41634 16.0219H23.4163C23.8794 16.0219 24.2763 16.4175 24.2763 16.8791C24.2763 17.3406 23.8794 17.7362 23.4163 17.7362H6.41634C5.95331 17.7362 5.55642 17.3406 5.55642 16.8791C5.55642 16.4175 5.95331 16.0219 6.41634 16.0219ZM6.41634 21.0329H36.3813C36.8444 21.0329 37.2412 21.4285 37.2412 21.8901C37.2412 22.3516 36.8444 22.7472 36.3813 22.7472H6.41634C5.95331 22.7472 5.55642 22.3516 5.55642 21.8901C5.55642 21.4285 5.95331 21.0329 6.41634 21.0329ZM5.62257 26.8351C5.62257 26.3736 6.01945 25.978 6.48249 25.978H36.4475C36.9105 25.978 37.3074 26.3736 37.3074 26.8351C37.3074 27.2966 36.9105 27.6922 36.4475 27.6922H6.41634C5.95331 27.6263 5.62257 27.2966 5.62257 26.8351Z" fill="white"/>
<path d="M42.9285 13.2527L29.6328 -6.10352e-05V12.0659C29.6328 12.7252 30.162 13.2527 30.8235 13.2527H42.9285Z" fill="white"/>
<path d="M32.7435 38.6371C32.4128 38.6371 32.082 38.9009 32.082 39.2965C32.082 39.6262 32.3466 39.9558 32.7435 39.9558C32.7435 39.9558 32.7435 39.9558 32.8097 39.9558C35.7202 39.9558 38.1015 42.3295 38.1015 45.2306C38.1015 45.2306 38.1015 45.2306 38.1015 45.2965C38.1015 45.6262 38.3661 45.9558 38.763 45.9558C39.0937 45.9558 39.4244 45.6921 39.4244 45.2965C39.4244 41.6042 36.4478 38.6371 32.7435 38.6371Z" fill="white"/>
<path d="M51.9261 61.978L42.9962 53.0769C42.93 53.0109 42.8639 52.945 42.7977 52.8791C44.253 50.7692 45.179 48.2637 45.179 45.4945C45.179 38.4395 39.4242 32.7032 32.3464 32.7032C25.2685 32.7032 19.5137 38.4395 19.5137 45.4945C19.5137 52.5494 25.2685 58.2857 32.3464 58.2857C35.1246 58.2857 37.7043 57.3626 39.8211 55.8461C39.8872 55.912 39.9534 55.978 39.9534 56.0439L48.8833 64.945C49.7432 65.8022 51.0662 65.8022 51.9261 64.945C52.786 64.1538 52.786 62.8351 51.9261 61.978ZM32.3464 54.5274C27.3853 54.5274 23.3502 50.5054 23.3502 45.5604C23.3502 40.6153 27.3853 36.5934 32.3464 36.5934C37.3074 36.5934 41.3425 40.6153 41.3425 45.5604C41.3425 50.5054 37.3074 54.5274 32.3464 54.5274Z" fill="white"/>
</svg>
