<svg width="32" height="32" viewBox="0 0 32 32" fill="none" xmlns="http://www.w3.org/2000/svg">
<path d="M16.1571 31.4444L12.7281 28.9574L8.51311 29.4021L6.78811 25.5276L2.91586 23.8026L3.36061 19.5899L0.870605 16.1571L3.35761 12.7281L2.91286 8.51311L6.78736 6.78811L8.51236 2.91586L12.7206 3.36061L16.1571 0.870605L19.5861 3.35761L23.8011 2.91286L25.5261 6.78736L29.3984 8.51236L28.9529 12.7206L31.4399 16.1511L28.9574 19.5846L29.4021 23.7996L25.5276 25.5246L23.8026 29.3969L19.5899 28.9521L16.1594 31.4391L16.1571 31.4444ZM10.3821 16.0146C10.3172 16.0145 10.2529 16.0272 10.1929 16.052C10.1329 16.0769 10.0784 16.1134 10.0326 16.1594L8.63086 17.5521C8.58484 17.598 8.54834 17.6525 8.52343 17.7126C8.49853 17.7726 8.48571 17.837 8.48571 17.902C8.48571 17.967 8.49853 18.0313 8.52343 18.0914C8.54834 18.1514 8.58484 18.2059 8.63086 18.2519L12.8309 22.4571C12.9237 22.5498 13.0495 22.6019 13.1807 22.6019C13.3119 22.6019 13.4378 22.5498 13.5306 22.4571L23.3249 12.6651C23.4174 12.5723 23.4693 12.4466 23.4693 12.3156C23.4693 12.1846 23.4174 12.0589 23.3249 11.9661L21.9276 10.5606C21.8817 10.5146 21.8272 10.4781 21.7671 10.4532C21.7071 10.4283 21.6427 10.4155 21.5777 10.4155C21.5127 10.4155 21.4484 10.4283 21.3883 10.4532C21.3283 10.4781 21.2738 10.5146 21.2279 10.5606L13.1841 18.6036L10.7361 16.1556C10.6899 16.1101 10.6352 16.0743 10.5751 16.0501C10.515 16.0259 10.4507 16.0138 10.3859 16.0146H10.3821Z" fill="#C851C8"/>
</svg>
