<svg width="34" height="33" viewBox="0 0 34 33" fill="none" xmlns="http://www.w3.org/2000/svg">
<path d="M17.2504 33.001C13.4331 33.0011 9.7336 31.6776 6.78266 29.256C3.83172 26.8343 1.81205 23.4645 1.0672 19.7205C0.322362 15.9765 0.898541 12.09 2.69794 8.72335C4.49734 5.35668 7.40837 2.71808 10.9351 1.25714C14.4619 -0.203797 18.3863 -0.39669 22.0394 0.711339C25.6924 1.81937 28.8482 4.15976 30.9691 7.33374C33.09 10.5077 34.0447 14.3189 33.6706 18.1179C33.2965 21.9169 31.6168 25.4686 28.9175 28.168C27.389 29.705 25.5706 30.9235 23.5679 31.7531C21.5653 32.5827 19.4181 33.0068 17.2504 33.001V33.001ZM13.9278 14.32C13.8518 14.32 13.779 14.3502 13.7253 14.4039C13.6716 14.4576 13.6414 14.5305 13.6414 14.6065V16.9412C13.6414 17.0172 13.6716 17.0901 13.7253 17.1438C13.779 17.1975 13.8518 17.2277 13.9278 17.2277H15.7797V23.1167C15.7797 23.1927 15.8099 23.2656 15.8636 23.3193C15.9173 23.3731 15.9901 23.4032 16.0661 23.4032H18.4835C18.5594 23.4032 18.6322 23.3731 18.686 23.3193C18.7397 23.2656 18.7698 23.1927 18.7698 23.1167V17.2337H20.9374C21.0134 17.2337 21.0862 17.2035 21.14 17.1498C21.1937 17.0961 21.2238 17.0232 21.2238 16.9472V14.6095C21.2239 14.5718 21.2166 14.5344 21.2022 14.4995C21.1879 14.4646 21.1669 14.4329 21.1403 14.4061C21.1137 14.3794 21.0821 14.3582 21.0473 14.3436C21.0125 14.3291 20.9752 14.3216 20.9374 14.3215H18.7728V12.9587C18.7728 12.3025 18.9289 11.9695 19.7846 11.9695H21.0235C21.0612 11.9696 21.0988 11.9622 21.1337 11.9479C21.1686 11.9336 21.2004 11.9125 21.2271 11.8859C21.2539 11.8593 21.2748 11.8277 21.2894 11.7929C21.3039 11.758 21.3116 11.7207 21.3117 11.683V9.50798C21.3122 9.46974 21.3051 9.43179 21.2908 9.39628C21.2766 9.36078 21.2557 9.32844 21.2289 9.30111C21.2022 9.27379 21.17 9.25203 21.1348 9.23707C21.0996 9.22212 21.0617 9.21427 21.0235 9.21398H19.184C19.1233 9.21398 19.0609 9.20874 19.0002 9.20874C18.5534 9.20909 18.1117 9.30202 17.7027 9.48168C17.2937 9.66134 16.926 9.92381 16.6235 10.2526C16.321 10.5813 16.09 10.9692 15.9449 11.3917C15.7998 11.8142 15.7438 12.2622 15.7805 12.7075V14.3185L13.9278 14.32Z" fill="white"/>
</svg>
