<svg width="59" height="55" viewBox="0 0 59 55" fill="none" xmlns="http://www.w3.org/2000/svg">
<path d="M57.3502 14.5714L30.0311 0.197741C29.5019 -0.0659951 28.8405 -0.0659951 28.2451 0.197741L0.992218 14.5714C0.396887 14.901 0 15.5604 0 16.2197V21.0329C0 21.6922 0.529183 22.1538 1.12451 22.1538H29.1712H57.2179C57.8794 22.1538 58.3424 21.6263 58.3424 21.0329V16.2857C58.3424 15.5604 57.9455 14.901 57.3502 14.5714ZM30.3619 19.2527C25.5331 20.0439 21.4319 15.956 22.2257 11.1428C22.6887 8.2417 25.07 5.86807 27.9805 5.40653C32.8093 4.61532 36.9105 8.70323 36.1167 13.5164C35.6537 16.4175 33.2724 18.7911 30.3619 19.2527Z" fill="white"/>
<path d="M16.6017 23.3408H3.70287C3.63672 23.3408 3.63672 23.4067 3.63672 23.4067V25.121C3.63672 25.8463 4.23205 26.4397 4.95968 26.4397H6.28263V46.7474H4.95968C4.23205 46.7474 3.63672 47.3408 3.63672 48.066V49.7803C3.63672 49.8463 3.70287 49.8463 3.70287 49.8463H16.6017C16.6678 49.8463 16.6678 49.7803 16.6678 49.7803V48.066C16.6678 47.3408 16.0725 46.7474 15.3449 46.7474H14.0219V26.4397H15.3449C16.0725 26.4397 16.6678 25.8463 16.6678 25.121V23.4067C16.6678 23.3408 16.6678 23.3408 16.6017 23.3408Z" fill="white"/>
<path d="M35.6522 23.3408H22.6872C22.6211 23.3408 22.6211 23.4067 22.6211 23.4067V25.121C22.6211 25.8463 23.2164 26.4397 23.9441 26.4397H25.267V46.7474H23.9441C23.2164 46.7474 22.6211 47.3408 22.6211 48.066V49.7803C22.6211 49.8463 22.6872 49.8463 22.6872 49.8463H35.5861C35.6522 49.8463 35.6522 49.7803 35.6522 49.7803V48.066C35.6522 47.3408 35.0569 46.7474 34.3293 46.7474H33.0063V26.4397H34.3293C35.0569 26.4397 35.6522 25.8463 35.6522 25.121V23.4067C35.7184 23.3408 35.6522 23.3408 35.6522 23.3408Z" fill="white"/>
<path d="M53.4462 26.4397C54.1738 26.4397 54.7692 25.8463 54.7692 25.121V23.4067C54.7692 23.3408 54.703 23.3408 54.703 23.3408H41.738C41.6719 23.3408 41.6719 23.4067 41.6719 23.4067V25.121C41.6719 25.8463 42.2672 26.4397 42.9948 26.4397H44.3178V46.7474H42.9948C42.2672 46.7474 41.6719 47.3408 41.6719 48.066V49.7803C41.6719 49.8463 41.738 49.8463 41.738 49.8463H54.6369C54.703 49.8463 54.703 49.7803 54.703 49.7803V48.066C54.703 47.3408 54.1077 46.7474 53.38 46.7474H52.0571V26.4397H53.4462Z" fill="white"/>
<path d="M57.4163 54.7912H0.926071C0.396888 54.7912 0 54.3956 0 53.8681V52.0879C0 51.5604 0.396888 51.1648 0.926071 51.1648H57.3502C57.8794 51.1648 58.2763 51.5604 58.2763 52.0879V53.8681C58.3424 54.3956 57.9455 54.7912 57.4163 54.7912Z" fill="white"/>
</svg>
