<svg width="34" height="34" viewBox="0 0 34 34" fill="none" xmlns="http://www.w3.org/2000/svg">
<path fill-rule="evenodd" clip-rule="evenodd" d="M14.8773 0.701236C10.8999 1.16024 7.23236 3.07292 4.57948 6.07175C1.9266 9.07058 0.475524 12.944 0.505066 16.9477C0.446092 19.1564 0.857324 21.3524 1.7115 23.3901C2.56567 25.4278 3.84326 27.2606 5.45957 28.767C7.45005 30.685 9.89346 32.0683 12.5623 32.7879C15.2312 33.5076 18.0388 33.5403 20.7237 32.883C23.4087 32.2257 25.8837 30.8998 27.9183 29.0287C29.9529 27.1575 31.4811 24.802 32.3605 22.1814C33.2399 19.5608 33.4419 16.7603 32.9478 14.0407C32.4537 11.321 31.2795 8.77048 29.5346 6.62666C27.7896 4.48283 25.5306 2.81535 22.9678 1.77945C20.4051 0.74354 17.6219 0.372885 14.8773 0.701986M17.4018 7.00949C17.7086 7.24199 17.8016 7.49249 17.8421 8.22074C17.8796 8.86424 17.8886 8.90324 18.0408 8.97524C19.5048 9.67199 19.4658 9.64499 20.0231 10.2082C21.6356 11.8335 21.8643 14.364 20.3981 14.3647C19.7981 14.3647 19.4913 13.9942 19.3856 13.1512C19.3262 12.5934 19.087 12.07 18.7041 11.6599C18.3212 11.2499 17.8154 10.9755 17.2629 10.8782C16.7104 10.7808 16.1412 10.8658 15.6412 11.1202C15.1412 11.3746 14.7376 11.7848 14.4911 12.2887C14.2802 12.7756 14.2162 13.3134 14.3069 13.8362C14.3976 14.3589 14.6392 14.8437 15.0018 15.231C15.2543 15.4821 15.5551 15.6792 15.886 15.8106C16.217 15.942 16.5711 16.0048 16.9271 15.9952C21.0828 16.4107 22.8708 20.8972 20.0223 23.76C19.4628 24.3232 19.5071 24.2955 18.0401 24.993C17.8901 25.068 17.8788 25.1092 17.8383 25.755C17.7768 26.748 17.4903 27.141 16.8273 27.141C16.1643 27.141 15.8681 26.7367 15.8126 25.7475C15.7751 25.104 15.7661 25.065 15.6138 24.993C14.1498 24.2962 14.1888 24.3232 13.6316 23.76C12.0191 22.1347 11.7903 19.6042 13.2566 19.6035C13.8498 19.6035 14.1633 19.9785 14.2668 20.8035C14.3228 21.3632 14.5598 21.8894 14.9419 22.3023C15.3239 22.7151 15.8301 22.9922 16.3838 23.0914C16.9375 23.1906 17.5084 23.1066 18.0101 22.8521C18.5117 22.5976 18.9167 22.1864 19.1636 21.681C19.4443 20.9619 19.4443 20.1636 19.1636 19.4445C18.9429 18.9898 18.5951 18.6088 18.1624 18.3476C17.7296 18.0865 17.2305 17.9563 16.7253 17.973C12.5696 17.5575 10.7816 13.071 13.6301 10.2082C14.1896 9.64499 14.1453 9.67274 15.6123 8.97524C15.7623 8.90024 15.7736 8.85899 15.8141 8.21324C15.8891 6.97424 16.6143 6.42524 17.4003 7.00949" fill="#6ADAC2"/>
</svg>
