<svg width="14" height="21" viewBox="0 0 14 21" fill="none" xmlns="http://www.w3.org/2000/svg">
<path d="M11 0.996033H3.00001C2.20436 0.996033 1.4413 1.3121 0.878688 1.87471C0.316078 2.43732 7.88292e-06 3.20038 7.88292e-06 3.99603V19.996C-0.000691684 20.1722 0.0451825 20.3455 0.132986 20.4983C0.220789 20.6511 0.347404 20.7779 0.500008 20.866C0.652027 20.9538 0.824471 21 1.00001 21C1.17554 21 1.34799 20.9538 1.50001 20.866L7.00001 17.686L12.5 20.866C12.6524 20.9524 12.8248 20.9972 13 20.996C13.1752 20.9972 13.3476 20.9524 13.5 20.866C13.6526 20.7779 13.7792 20.6511 13.867 20.4983C13.9548 20.3455 14.0007 20.1722 14 19.996V3.99603C14 3.20038 13.6839 2.43732 13.1213 1.87471C12.5587 1.3121 11.7957 0.996033 11 0.996033ZM12 18.266L7.50001 15.666C7.34799 15.5783 7.17554 15.5321 7.00001 15.5321C6.82447 15.5321 6.65203 15.5783 6.50001 15.666L2.00001 18.266V3.99603C2.00001 3.73082 2.10536 3.47646 2.2929 3.28893C2.48044 3.10139 2.73479 2.99603 3.00001 2.99603H11C11.2652 2.99603 11.5196 3.10139 11.7071 3.28893C11.8947 3.47646 12 3.73082 12 3.99603V18.266Z" fill="#08979C"/>
</svg>
