<svg width="42" height="30" viewBox="0 0 42 30" fill="none" xmlns="http://www.w3.org/2000/svg">
<path fill-rule="evenodd" clip-rule="evenodd" d="M0.870291 0.851893C0.172791 1.16389 0.0347805 1.53139 0.0347805 3.08164C0.0347805 4.63189 0.0812771 4.76539 0.739027 5.21314C1.81276 5.52668 2.95316 5.5311 4.02929 5.22589L4.35403 5.02789L4.59328 5.30464C4.72453 5.45464 5.41827 6.35464 6.13077 7.29139L7.42904 9.00139L5.92153 11.0264L4.41402 13.0514L4.06903 12.8174C2.98419 12.47 1.81901 12.4629 0.730032 12.7971C-0.295218 13.4819 -0.222462 16.5209 0.834288 17.1419C1.88353 17.4327 2.99239 17.4307 4.04053 17.1359L4.37729 16.9364L5.78953 18.7364C6.56653 19.7256 7.25654 20.6226 7.32329 20.7306C7.42454 20.8934 5.27728 24.1154 4.54828 24.8916C4.41241 24.8435 4.28564 24.7727 4.17328 24.6824C3.71128 24.3689 3.39327 24.3186 2.10927 24.3599C0.342274 24.4161 0.0790234 24.7304 0.0790234 26.7824C0.0790234 28.9574 0.290538 29.1659 2.44754 29.1239C4.27454 29.0886 4.62852 28.8411 4.76652 27.5024C4.83402 26.8484 4.84753 26.8274 8.60428 21.6524L9.18028 20.8596L9.22603 21.5729C9.31003 22.8869 9.67603 23.1561 11.4565 23.1974C13.5018 23.2454 13.9938 22.8516 14.0013 21.1611V20.6609L16.1958 17.8409L18.3835 15.0276L18.4338 15.7731C18.52 17.0549 18.9303 17.3264 20.7828 17.3264C22.6038 17.3264 23.0215 17.0264 23.1303 15.6441L23.182 14.9849L23.8375 15.8729C24.1983 16.3611 25.1703 17.6729 25.9968 18.7844L27.4968 20.8094L27.5718 21.4964C27.7218 22.8839 28.054 23.1464 29.6973 23.1951C31.7598 23.2544 32.1918 22.9881 32.3395 21.5624L32.3988 20.9976L34.5865 23.9556L36.7743 26.9136V27.4641C36.7743 28.7699 37.2888 29.1359 39.1263 29.1359C41.2368 29.1359 41.512 28.8441 41.4618 26.6564C41.416 24.6314 41.203 24.4304 39.112 24.4326C37.9653 24.4326 37.822 24.4529 37.4673 24.6576L37.0788 24.8826L35.6058 22.8771L34.135 20.8641L35.4505 19.2351C36.1735 18.3389 36.8845 17.4659 37.03 17.2949L37.294 16.9836L37.6165 17.1456C38.4378 17.5581 40.5655 17.3999 41.0898 16.8869C41.9328 16.0619 41.761 13.4234 40.8228 12.7851C39.7547 12.4766 38.6222 12.4686 37.5498 12.7619C37.4389 12.8353 37.3214 12.8981 37.1988 12.9494C37.141 12.9494 34.3345 9.21364 34.2738 9.05839C35.0763 7.79588 35.9646 6.59004 36.9325 5.44939L37.252 5.05339L37.552 5.23789C38.623 5.52729 39.7528 5.51821 40.819 5.21164C41.4468 4.78489 41.5203 4.59214 41.557 3.29239C41.6185 1.11739 41.3163 0.782143 39.2515 0.735643C37.2505 0.690643 36.7765 1.04089 36.7698 2.56639V3.30589L35.0718 5.46964C34.1373 6.65989 33.1443 7.92289 32.8638 8.27614C32.6728 8.4987 32.5021 8.7379 32.3538 8.99089C32.3538 9.02989 33.3475 10.3709 34.5618 11.9706C35.3707 12.9583 36.1095 14.0013 36.7728 15.0921C36.1319 16.1318 35.4008 17.1131 34.588 18.0246L32.4003 20.7426L32.338 20.0789C32.3503 19.8057 32.2882 19.5344 32.1583 19.2937C32.0285 19.0531 31.8358 18.8522 31.6008 18.7124C30.5147 18.3808 29.3532 18.3884 28.2715 18.7341L27.928 18.9674L26.428 16.9469L24.928 14.9264L26.4505 12.9629L27.973 11.0001L28.2588 11.1741C29.3609 11.4532 30.5166 11.44 31.612 11.1359C32.1865 10.7526 32.2713 10.4504 32.2413 8.90314C32.2008 6.85039 31.9353 6.60889 29.7768 6.66139C27.9813 6.70489 27.5583 7.04989 27.556 8.47039V9.23314L25.3458 12.0891L23.1355 14.9436V14.3436C23.1303 12.9044 22.6855 12.5706 20.7738 12.5714C18.877 12.5714 18.5238 12.8099 18.433 14.1464L18.3858 14.8394L16.1958 12.1154L14.008 9.38539V8.55589C14.008 6.94339 13.645 6.64789 11.665 6.64864C9.51854 6.64864 9.30403 6.85789 9.30328 8.95489C9.30328 10.5059 9.40153 10.7924 10.0533 11.1389C11.0509 11.4138 12.1011 11.4378 13.1103 11.2086C13.3173 11.1336 13.4928 11.0729 13.501 11.0714C13.5333 11.0714 16.5445 14.8431 16.5445 14.8874C16.5445 14.9136 15.8748 15.8181 15.0558 16.8951L13.5708 18.8549L13.297 18.6554C12.1818 18.3429 11.0013 18.3497 9.88979 18.6749C9.66895 18.8449 9.49232 19.0657 9.37483 19.3184C9.25734 19.5711 9.20242 19.8485 9.21477 20.1269L9.16153 20.7629L8.58928 20.0324C8.27428 19.6311 7.29029 18.3824 6.40154 17.2574C5.82073 16.5617 5.28129 15.8324 4.78602 15.0734C4.78602 14.9984 5.78278 13.5966 7.00078 11.9616L9.21553 8.98939L8.28778 7.79539C7.77778 7.13839 6.78778 5.85739 6.08653 4.94539L4.81154 3.29539L4.76728 2.54539C4.67878 1.04539 4.33304 0.773143 2.48054 0.740893" fill="white"/>
</svg>
