<svg width="59" height="56" viewBox="0 0 59 56" fill="none" xmlns="http://www.w3.org/2000/svg">
<path d="M-1007.76 23.2927L-1009.82 24.9396C-1010.3 17.9449 -1014.38 14.6899 -1018.28 13.1983L-1018.01 11.7743C-1016.25 12.278 -1014.45 12.9853 -1012.61 13.9055L-1012.27 14.0702L-1005.2 5.81648L-1005.73 5.53554C-1015.04 0.604576 -1025.06 -0.0346431 -1033.2 3.78208C-1040.91 7.39554 -1046.25 14.6031 -1048.24 24.0871L-1048.37 24.6683H-1043.19L-1043.05 24.4068C-1041.59 21.5586 -1039.94 19.1466 -1038.12 17.1894L-1037.16 18.0226C-1038.93 20.3573 -1039.79 23.1376 -1039.67 26.2954L-1040.73 42.2992C-1041.27 44.6436 -1043.68 47.2882 -1045.97 49.5646L-1046.81 50.4073L-1045.62 50.3977C-1039.25 50.3395 -1034.26 49.2642 -1030.38 47.1233L-1030.13 46.9877V32.1753H-1028.95V42.6378L-1014.05 55.2507V37.7259L-1014.43 37.6484C-1017.67 36.9994 -1019.3 35.5462 -1019.4 33.1921C-1015.37 32.7562 -1012.55 33.1146 -1011.8 36.0403V49.8642L-1011 49.2152C-1006.61 45.6308 -1005.5 37.4155 -1007.61 24.1052L-1007.76 23.2927ZM-1043.79 23.7093H-1047.18C-1045.15 14.8164 -1040.06 8.06408 -1032.79 4.6639C-1025.08 1.05043 -1015.61 1.58327 -1006.73 6.11702L-1012.52 12.8693C-1025.51 6.53397 -1036.88 10.4766 -1043.79 23.7095L-1043.79 23.7093ZM-1037.45 16.4919C-1032.38 11.4447 -1026.08 9.73963 -1018.95 11.5126L-1019.2 12.8591C-1021.85 12.0066 -1024.29 11.9097 -1025.26 11.9097C-1027.27 11.9097 -1032.57 13.111 -1036.16 16.8407C-1036.3 16.986 -1036.42 17.1313 -1036.55 17.2863L-1037.45 16.4919ZM-1031.11 31.2071V46.4168C-1034.57 48.267 -1038.94 49.2455 -1044.45 49.4102C-1042.26 47.1627 -1040.31 44.799 -1039.79 42.445L-1038.71 26.3152C-1038.83 22.8374 -1037.74 19.8729 -1035.47 17.519C-1032.08 14.0121 -1027.13 12.8884 -1025.26 12.8884C-1022.88 12.8884 -1011.16 13.5277 -1010.76 25.6955L-1013.65 28.0011H-1028.97V31.2174H-1031.11L-1031.11 31.2071ZM-1010.84 47.7244V35.9832L-1010.85 35.8669C-1011.84 31.866 -1016.01 31.8079 -1019.96 32.2826L-1020.37 32.331L-1020.38 32.7476C-1020.47 35.741 -1018.67 37.6785 -1015.02 38.5115V53.159L-1028 42.1829V28.9594H-1013.3L-1010.02 26.3341H-1009.77C-1009.77 26.2663 -1009.78 26.2081 -1009.78 26.1403L-1008.47 25.0844C-1006.73 36.5156 -1007.54 44.1204 -1010.84 47.7242L-1010.84 47.7244ZM-927.351 23.2923L-929.415 24.9392C-929.899 17.8381 -934.152 14.6415 -937.872 13.1979L-937.601 11.7642C-935.847 12.2679 -934.045 12.9752 -932.205 13.8954L-931.866 14.0601L-924.793 5.80638L-925.326 5.52544C-934.636 0.594476 -944.653 -0.0447445 -952.79 3.77198C-960.501 7.38544 -965.839 14.593 -967.835 24.077L-967.961 24.6582H-962.778L-962.643 24.3967C-961.18 21.5485 -959.533 19.1365 -957.712 17.1793L-956.753 18.0221C-958.535 20.3665 -959.388 23.1565 -959.271 26.2857L-960.327 42.2895C-960.87 44.6338 -963.272 47.2882 -965.568 49.5646L-966.411 50.4074L-965.229 50.3977C-958.874 50.3396 -953.885 49.274 -949.981 47.1234L-949.73 46.9877V32.1656H-948.557V42.6281L-933.648 55.241V37.726L-934.036 37.6485C-937.272 36.9994 -938.909 35.5463 -939.015 33.2019C-934.985 32.766 -932.166 33.1244 -931.401 36.0501V49.874L-930.606 49.2346C-926.218 45.6599 -925.104 37.4448 -927.216 24.1246L-927.351 23.2923ZM-938.54 11.5123L-938.792 12.8783C-941.456 12.0161 -943.888 11.9095 -944.857 11.9095C-947.046 11.9095 -952.578 13.2367 -956.143 17.286L-957.044 16.5012C-951.977 11.4444 -945.671 9.73911 -938.541 11.5122L-938.54 11.5123ZM-841.045 12.3745L-837.209 8.52856L-842.101 3.63635L-845.947 7.48231L-845.201 8.22828L-853.726 15.6393C-855.179 12.2293 -858.919 10.1658 -864.053 10.1658C-869.236 10.1658 -872.985 12.2777 -874.419 15.736L-883.05 8.23809L-882.304 7.49213L-886.15 3.64617L-891.042 8.53838L-887.206 12.3843L-886.344 11.5221L-877.392 21.5873C-879.766 23.5151 -882.275 24.2611 -885.036 23.8542L-885.772 23.7476L-885.569 24.4645C-884.668 27.7001 -882.779 29.3276 -879.94 29.3276C-879.223 29.3276 -878.448 29.2211 -877.615 29.0176L-877.451 28.9789L-875.058 25.7917V36.6417L-883.418 45.1279L-885.811 52.3158L-878.555 51.1048L-871.957 44.9725L-867.772 49.855V30.2573L-871.977 29.2014V25.9464L-866.629 26.8376V38.1526L-864.043 42.0373L-861.456 38.1526V26.8278L-856.109 25.9365V29.1915L-860.313 30.2475V49.8261L-856.196 45.0211L-849.676 51.0759L-842.42 52.2868L-844.813 45.099L-853.018 36.7677V25.9663L-850.78 28.95L-850.616 28.9888C-849.782 29.1922 -849.007 29.2988 -848.291 29.2988C-845.452 29.2988 -843.563 27.6713 -842.662 24.4357L-842.459 23.7188L-843.195 23.8254C-845.965 24.2419 -848.465 23.4863 -850.838 21.5585L-841.887 11.4933L-841.045 12.3745ZM-842.101 5.01203L-838.575 8.53828L-841.045 11.0086L-844.571 7.48231L-842.101 5.01203ZM-889.666 8.52856L-886.14 5.00231L-883.67 7.4726L-887.196 10.9989L-889.666 8.52856ZM-883.728 8.90638L-874.738 16.7142C-874.932 17.4505 -875.048 18.2255 -875.048 19.049V22.7205L-885.646 10.8144L-883.728 8.90638ZM-878.012 28.0974C-881.258 28.8531 -883.36 27.7971 -884.406 24.8812C-881.674 25.104 -879.097 24.2224 -876.734 22.2947L-875.067 24.1644L-878.012 28.0974ZM-879.001 50.1653L-884.377 51.0663L-882.566 45.6216L-875.058 37.9977V41.3302L-872.588 44.2074L-879.001 50.1653ZM-845.676 45.6218L-843.864 51.0665L-849.241 50.1655L-855.576 44.2853L-853.048 41.3306V38.1434L-845.676 45.6218ZM-854.007 37.1454V40.972L-859.354 47.2107V31.0132L-855.15 29.9572V24.7938L-862.435 26.0047V37.8426L-864.053 40.2741L-865.671 37.8426V26.014L-872.956 24.8031V29.9665L-868.751 31.0225V47.22L-874.099 40.9813V19.0586C-874.099 14.1664 -870.253 11.1246 -864.062 11.1246C-857.872 11.1246 -854.026 14.1665 -854.026 19.0586V23.6504L-854.055 23.6795L-854.026 23.6989V24.5708L-854.075 24.6095L-854.026 24.6773V37.145L-854.007 37.1454ZM-843.835 24.8808C-844.881 27.7967 -846.983 28.843 -850.229 28.097L-853.038 24.3577V24.0283L-851.507 22.3039C-849.144 24.222 -846.567 25.1036 -843.835 24.8808ZM-853.038 22.5655V19.0586C-853.038 18.1964 -853.164 17.3827 -853.377 16.6174L-844.513 8.91593L-842.595 10.8341L-853.038 22.5655ZM-760.048 11.5119L-768.999 21.5771C-766.626 23.5049 -764.126 24.2606 -761.356 23.844L-760.619 23.7374L-760.823 24.4543C-761.724 27.6899 -763.613 29.3174 -766.451 29.3174C-767.168 29.3174 -767.943 29.2109 -768.776 29.0074L-768.941 28.9687L-771.179 25.9849V36.7864L-762.974 45.1176L-760.581 52.3055L-767.837 51.0945L-774.357 45.0397L-778.474 49.8447V30.2759L-774.26 29.22V25.9553L-779.607 26.8465V38.1615L-782.194 42.0462L-784.79 38.1615V26.8269L-790.128 25.9356V29.2003L-785.924 30.2563V49.8251L-790.109 44.9426L-796.706 51.0749L-803.962 52.2858L-801.569 45.098L-793.219 36.6215V25.7715L-795.602 28.949L-795.767 28.9878C-796.6 29.1912 -797.375 29.2978 -798.092 29.2978C-800.93 29.2978 -802.819 27.6703 -803.72 24.4347L-803.924 23.7178L-803.187 23.8244C-800.426 24.2409 -797.917 23.4853 -795.544 21.5575L-804.495 11.4923L-805.357 12.3545L-809.203 8.50854L-804.301 3.61633L-800.465 7.46229L-801.201 8.19854L-792.579 15.6964C-791.155 12.1992 -787.338 10.136 -782.194 10.136C-777.118 10.136 -773.32 12.1704 -771.858 15.6096L-763.343 8.19854L-764.079 7.46229L-760.243 3.61633L-755.341 8.50854L-759.187 12.3545L-760.048 11.5119ZM-713.761 20.0566C-713.838 19.4753 -713.877 18.8941 -713.877 18.2934L-713.761 20.0566ZM-713.761 20.0566C-713.838 19.4753 -713.877 18.8941 -713.877 18.2934L-713.761 20.0566ZM-689.213 10.0978C-689.135 11.0181 -688.603 19.2041 -693.146 22.9726C-693.592 23.3407 -694.125 23.5151 -694.657 23.5151C-695.335 23.5151 -696.014 23.2245 -696.479 22.6626C-697.312 21.6551 -697.176 20.1632 -696.169 19.3301C-693.921 17.4701 -693.795 12.1903 -693.931 10.4853C-694.037 9.18718 -693.059 8.04406 -691.761 7.93752C-690.443 7.83096 -689.319 8.79002 -689.213 10.0978ZM-681.366 3.59763V4.237C-681.366 5.65138 -682.451 6.82354 -683.836 6.9495V14.6416L-683.962 16.831C-684.727 22.876 -688.612 28.1171 -694.134 30.626C-694.28 32.6313 -695.268 34.501 -696.847 35.7604V43.9175C-695.839 44.6731 -695.054 45.6613 -694.551 46.7947C-693.94 46.5622 -693.282 46.4363 -692.613 46.4363C-689.629 46.4363 -687.198 48.8678 -687.198 51.8515V54.5446C-687.198 54.874 -687.46 55.1356 -687.789 55.1356H-714.391C-714.721 55.1356 -714.982 54.874 -714.982 54.5446V51.8515C-714.982 48.8677 -712.551 46.4363 -709.567 46.4363C-709.073 46.4363 -708.579 46.5041 -708.094 46.6397C-707.581 45.5547 -706.825 44.6247 -705.876 43.9175V35.7511C-707.455 34.4917 -708.453 32.6123 -708.588 30.607C-714.101 28.1173 -717.986 22.886 -718.751 16.8699L-718.896 14.6805V6.95017C-720.281 6.83392 -721.366 5.66171 -721.366 4.23767V3.5983C-721.376 2.88142 -721.095 2.2033 -720.582 1.68017C-720.068 1.15705 -719.38 0.876137 -718.654 0.876137H-684.06C-682.578 0.876137 -681.367 2.09676 -681.367 3.59835L-681.366 3.59763ZM-682.548 3.59763C-682.548 2.75484 -683.236 2.05734 -684.069 2.05734H-718.663C-719.069 2.05734 -719.457 2.22203 -719.748 2.51265C-720.038 2.80328 -720.193 3.18112 -720.184 3.58794V4.23698C-720.184 5.07976 -719.496 5.77726 -718.663 5.77726H-718.304C-717.975 5.77726 -717.713 6.03882 -717.713 6.36823V14.6411L-717.568 16.753C-716.841 22.4492 -713.092 27.4092 -707.783 29.6665C-707.57 29.7537 -707.425 29.9668 -707.425 30.1993C-707.396 32.1078 -706.437 33.9096 -704.867 35.0237C-704.654 35.169 -704.567 35.4403 -704.645 35.6824C-704.654 35.7212 -704.674 35.7503 -704.683 35.7793V44.2072C-704.683 44.4009 -704.78 44.585 -704.945 44.6916C-705.972 45.3891 -706.756 46.3868 -707.212 47.5688C-707.27 47.7141 -707.386 47.84 -707.531 47.8981C-707.677 47.966 -707.841 47.966 -707.987 47.8981C-708.5 47.6947 -709.023 47.5882 -709.566 47.5882C-711.9 47.5882 -713.799 49.4869 -713.799 51.8216V53.9238H-688.379V51.8216C-688.379 49.4869 -690.278 47.5882 -692.613 47.5882C-693.32 47.5882 -693.979 47.7528 -694.589 48.0822C-694.744 48.1694 -694.928 48.1791 -695.083 48.1113C-695.248 48.0435 -695.374 47.9175 -695.432 47.7528C-695.858 46.5031 -696.672 45.4375 -697.776 44.6819C-697.931 44.5753 -698.028 44.3913 -698.028 44.1975V35.6921C-698.028 35.6824 -698.038 35.6728 -698.038 35.6728C-698.115 35.4306 -698.067 35.1593 -697.854 35.014C-696.284 33.9 -695.335 32.1078 -695.296 30.1993C-695.296 29.9668 -695.151 29.7537 -694.938 29.6665C-689.619 27.39 -685.86 22.4203 -685.134 16.7044L-685.008 14.5925V6.34857C-685.008 6.01919 -684.746 5.7576 -684.417 5.7576H-684.059C-683.216 5.7576 -682.538 5.06982 -682.538 4.21732V3.59732L-682.548 3.59763ZM-602.315 0.875414H-637.684C-638.885 0.875414 -639.863 1.85388 -639.844 3.05513V3.70416C-639.844 4.90541 -638.875 5.88388 -637.684 5.88388H-637.325V14.3412L-637.18 16.5402C-636.395 22.7304 -632.346 27.9038 -626.805 30.2577C-626.766 32.4955 -625.642 34.4621 -623.937 35.6729H-624.005V44.5658C-625.158 45.3505 -626.039 46.4742 -626.543 47.7917C-627.115 47.5592 -627.725 47.4333 -628.384 47.4333C-631.106 47.4333 -633.315 49.6421 -633.315 52.3643V55.1252H-606.122V52.374C-606.122 49.6518 -608.331 47.443 -611.053 47.443C-611.886 47.443 -612.671 47.6465 -613.358 48.0243C-613.843 46.6099 -614.773 45.4086 -615.984 44.5755V35.6827H-616.052C-614.347 34.4717 -613.223 32.5051 -613.184 30.2773C-607.653 27.9038 -603.584 22.7309 -602.799 16.55L-602.663 14.3509V5.8838H-602.305C-601.104 5.8838 -600.145 4.90534 -600.145 3.70409V3.05505C-600.145 1.8538 -601.113 0.875336 -602.315 0.875336L-602.315 0.875414ZM-611.808 22.8467C-612.264 23.2245 -612.806 23.3989 -613.349 23.3989C-614.046 23.3989 -614.734 23.0986 -615.209 22.527C-616.061 21.5001 -615.916 19.9792 -614.889 19.1267C-612.593 17.2183 -612.467 11.8221 -612.603 10.0881C-612.709 8.76093 -611.711 7.58877 -610.384 7.48218C-609.038 7.37562 -607.894 8.36372 -607.778 9.69094C-607.701 10.6403 -607.158 19.0007 -611.808 22.8463L-611.808 22.8467ZM-433.527 23.9317V27.2642H-435.746V23.9317H-439.689V27.2642H-442.159V23.9317H-445.491V32.3213H-443.021V34.0457H-446.102V35.896H-448.155V34.0457H-451.013V21.0934H-449.492L-456.612 10.0496C-456.612 10.0205 -456.593 9.99148 -456.593 9.96242V7.36617L-449.492 4.65367L-456.593 1.94117V1.65054C-456.593 1.22429 -456.942 0.875542 -457.368 0.875542C-457.794 0.875542 -458.143 1.22429 -458.143 1.65054V9.97198C-458.143 10.001 -458.133 10.0301 -458.124 10.0592L-465.244 21.1029H-463.723V34.0454H-466.329V35.8957H-468.383V34.0454H-471.463V32.321H-468.993V23.9314H-472.326V27.2639H-474.796V23.9314H-478.739V27.2639H-480.957V23.9314H-484.289V32.321H-481.819V55.1257H-461.65V45.496C-461.65 42.8417 -459.731 40.6813 -457.377 40.6813C-455.014 40.6813 -453.105 42.8319 -453.105 45.496V55.1257H-432.684V32.3117H-430.214V23.9319L-433.527 23.9317ZM-456.08 26.4892H-458.647V23.9219C-458.647 23.2147 -458.076 22.6335 -457.359 22.6335C-456.642 22.6335 -456.07 23.205 -456.07 23.9219V26.4892H-456.08ZM-513.993 55.1254H-535.024V45.1858C-535.024 42.8414 -536.691 40.9427 -538.744 40.9427C-540.798 40.9427 -542.464 42.8414 -542.464 45.1858V55.1254H-563.254V32.7279H-565.676V23.525H-561.433V26.7994H-560.222V23.525H-555.378V26.7994H-553.925V23.525H-549.682V32.7279H-552.104V33.4544H-549.071V35.2757H-548.025V33.4544H-545.458V21.7034H-547.357L-539.975 10.2623V2.115C-539.975 1.42721 -539.413 0.875 -538.735 0.875C-538.066 0.875 -537.514 1.4175 -537.495 2.08596L-529.648 5.07943L-537.495 8.07289V10.2623L-530.113 21.7033H-532.011V33.4544H-529.202V35.2756H-528.156V33.4544H-525.123V32.7279H-527.545V23.525H-523.302V26.7994H-521.849V23.525H-517.005V26.7994H-515.794V23.525H-511.551V32.7279H-513.973V55.1254L-513.993 55.1254ZM-534.056 54.1567H-514.962V31.7592H-512.54V24.4938H-514.846V27.7682H-517.994V24.4938H-520.9V27.7682H-524.291V24.4938H-526.596V31.7592H-524.175V34.4232H-527.207V36.2444H-530.191V34.4232H-533V20.7346H-531.905L-538.512 10.4948L-538.464 10.2139L-538.474 7.41417L-532.371 5.08917L-538.474 2.76417V2.11513C-538.474 1.96982 -538.6 1.84388 -538.745 1.84388C-538.89 1.84388 -539.016 1.96982 -539.016 2.11513L-538.997 10.4655L-539.074 10.6399L-545.584 20.7345H-544.49V34.4231H-547.057V36.2443H-550.04V34.4231H-553.073V31.759H-550.651V24.4937H-552.956V27.768H-556.347V24.4937H-559.253V27.768H-562.402V24.4937H-564.707V31.759H-562.286V54.1565H-543.433V45.1862C-543.433 42.309 -541.331 39.974 -538.745 39.974C-536.158 39.974 -534.056 42.3087 -534.056 45.1862L-534.056 54.1567ZM-536.991 27.0027H-540.478V23.9996C-540.478 23.0406 -539.694 22.2559 -538.735 22.2559C-537.776 22.2559 -536.991 23.0406 -536.991 23.9996V27.0027ZM-539.519 26.034H-537.969V23.9996C-537.969 23.5734 -538.318 23.2246 -538.744 23.2246C-539.171 23.2246 -539.519 23.5734 -539.519 23.9996V26.034ZM-367.139 1.04023V7.0656H-372.012V1.04023H-378.483V7.0656H-384.595V1.04023H-391.067V17.3349H-386.455L-387.831 55.2902H-363.903L-365.531 17.3349H-360.668V1.04023H-367.139ZM-372.448 29.1242H-379.287V20.2602C-379.287 18.5262 -377.757 17.1118 -375.867 17.1118C-373.978 17.1118 -372.448 18.5165 -372.448 20.2602L-372.448 29.1242ZM-282.238 55.1254H-306.747L-305.391 17.8479H-309.905V0.875414H-302.582V6.79435H-297.554V0.875414H-290.23V6.79435H-286.413V0.875414H-279.089V17.8479H-283.836L-282.238 55.1254ZM-305.74 54.1567H-283.245L-284.844 16.8792H-280.048V1.84416H-285.434V7.7631H-291.189V1.84416H-296.575V7.7631H-303.541V1.84416H-308.927V16.8792H-304.374L-305.74 54.1567ZM-290.647 29.4243H-298.329V20.2308C-298.329 18.2642 -296.605 16.6561 -294.483 16.6561C-292.362 16.6561 -290.637 18.2642 -290.637 20.2308V29.4243H-290.647ZM-297.37 28.4556H-291.625V20.2308C-291.625 18.797 -292.913 17.6248 -294.502 17.6248C-296.091 17.6248 -297.379 18.797 -297.379 20.2308V28.4556H-297.37ZM-191.67 24.4353C-194.848 27.6709 -197.395 31.1003 -197.366 35.2951V38.6373H-229.18V35.2951C-229.151 31.1101 -231.699 27.6712 -234.876 24.4353C-228.773 23.8153 -224.23 27.3997 -220.674 33.6578C-219.783 26.3341 -217.458 20.8316 -213.283 17.683C-209.107 20.8315 -206.773 26.3242 -205.891 33.6578C-202.307 27.3999 -197.764 23.8251 -191.67 24.4353ZM-197.357 40.3616H-229.17V44.3238H-197.357V40.3616ZM-213.264 11.6767C-214.445 11.6767 -215.405 12.6358 -215.405 13.8177C-215.405 14.9996 -214.445 15.9587 -213.264 15.9587C-212.082 15.9587 -211.123 14.9996 -211.123 13.8177C-211.123 12.6358 -212.082 11.6767 -213.264 11.6767ZM-188.134 21.9744C-189.316 21.9744 -190.275 22.9335 -190.275 24.1154C-190.275 25.2973 -189.316 26.2564 -188.134 26.2564C-186.952 26.2564 -185.993 25.2973 -185.993 24.1154C-185.993 22.9335 -186.952 21.9744 -188.134 21.9744ZM-238.102 21.9744C-239.284 21.9744 -240.243 22.9335 -240.243 24.1154C-240.243 25.2973 -239.284 26.2564 -238.102 26.2564C-236.92 26.2564 -235.961 25.2973 -235.961 24.1154C-235.961 22.9335 -236.92 21.9744 -238.102 21.9744ZM-110.955 39.2859H-113.474V35.4981C-113.474 34.1612 -114.559 33.0762 -115.896 33.0762C-117.233 33.0762 -118.318 34.1612 -118.318 35.4981V39.2859H-119.064V15.1735H-118.318V20.5014C-118.318 21.8383 -117.233 22.9233 -115.896 22.9233C-114.559 22.9233 -113.474 21.8383 -113.474 20.5014V15.1735H-110.955C-109.89 15.1735 -109.018 14.3017 -109.018 13.236C-109.018 12.1704 -109.89 11.2985 -110.955 11.2985H-113.474V7.59792C-113.474 6.26104 -114.559 5.17604 -115.896 5.17604C-117.233 5.17604 -118.318 6.26104 -118.318 7.59792V11.2985H-145.123V7.59792C-145.123 6.26104 -146.208 5.17604 -147.545 5.17604C-148.882 5.17604 -149.967 6.26104 -149.967 7.59792V11.2985H-152.544C-153.609 11.2985 -154.481 12.1704 -154.481 13.236C-154.481 14.3017 -153.609 15.1735 -152.544 15.1735H-149.967V20.5014C-149.967 21.8383 -148.882 22.9233 -147.545 22.9233C-146.208 22.9233 -145.123 21.8383 -145.123 20.5014V15.1735H-144.348V39.2859H-145.123V35.4981C-145.123 34.1612 -146.208 33.0762 -147.545 33.0762C-148.882 33.0762 -149.967 34.1612 -149.967 35.4981V39.2859H-152.544C-153.609 39.2859 -154.481 40.1577 -154.481 41.2234C-154.481 42.289 -153.609 43.1609 -152.544 43.1609H-149.967V48.4019C-149.967 49.7388 -148.882 50.8238 -147.545 50.8238C-146.208 50.8238 -145.123 49.7388 -145.123 48.4019V43.1609H-118.318V48.4019C-118.318 49.7388 -117.233 50.8238 -115.896 50.8238C-114.559 50.8238 -113.474 49.7388 -113.474 48.4019V43.1609H-110.955C-109.89 43.1609 -109.018 42.289 -109.018 41.2234C-109.018 40.1577 -109.88 39.2859 -110.955 39.2859ZM-123.239 39.2859H-140.154V15.1735H-123.239V39.2859ZM-36.0154 52.9062H-69.4179V47.9656L-69.0013 47.9075C-65.6301 47.4037 -63.7314 45.2822 -63.2178 41.446H-66.6763V36.2732L-70.28 36.5154L-77.4875 29.4432V24.4057H-66.9377V22.6329H-39.1348V24.4057H-23.2473V24.8901C-23.2279 28.1839 -24.1772 30.809 -26.076 32.6887C-28.6335 35.2365 -32.8284 36.4862 -38.8832 36.5055V41.0683H-42.1479C-42.1382 44.4977 -40.2781 46.8519 -36.3157 48.4696L-36.0154 48.5955V52.9062ZM-68.4492 51.9375H-36.9842V49.225C-41.3436 47.3553 -43.2906 44.5943 -43.1067 40.545L-43.0873 40.08H-39.8517V35.5172H-39.3673C-33.3802 35.585 -29.1663 34.3741 -26.7637 31.9812C-25.1265 30.3537 -24.2935 28.1837 -24.2256 25.355H-40.1132V23.5822H-65.9785V25.355H-76.5283V29.0168L-69.9211 35.4979L-65.7168 35.217V40.458H-62.1518L-62.2003 40.9908C-62.6362 45.4471 -64.7383 48.063 -68.4488 48.7796L-68.4492 51.9375ZM-56.7952 20.7339H-65.3202V3.09284H-56.7662L-57.0278 8.43053H-35.425V15.1343H-56.786V20.7339H-56.7952ZM-64.3514 19.7652H-57.764V14.1655H-36.4029V9.39928H-58.0544L-57.7928 4.06159H-64.3514L-64.3514 19.7652ZM42.4901 41.058H39.2252C39.235 44.4874 41.095 46.8416 45.0575 48.4593L45.3578 48.5852V52.9155H11.9552V47.9749L12.3718 47.9167C15.743 47.413 17.6418 45.2915 18.1554 41.4553H14.6969V36.2824L11.0931 36.5246L3.87585 29.4432V24.4057H14.4257V22.6329H42.2285V24.4057H58.1259V24.8901C58.1453 28.1838 57.1959 30.809 55.2971 32.6886C52.7396 35.2364 48.5448 36.4861 42.49 36.5055L42.4901 41.058ZM32.5896 20.7334H24.0646V3.09233H32.6093L32.3574 8.43001H53.9602V15.1338H32.59L32.5896 20.7334Z" fill="#08979C"/>
</svg>
