<svg width="48" height="48" viewBox="0 0 48 48" fill="none" xmlns="http://www.w3.org/2000/svg">
<path d="M23.9687 -0.0307617C23.8634 -0.0307617 23.7583 -0.0300833 23.6533 -0.02873L23.6572 0.278937C23.7609 0.277601 23.8647 0.276931 23.9687 0.276931C24.0728 0.276931 24.1766 0.277601 24.2803 0.278937L24.2843 -0.02873C24.1793 -0.0300833 24.0741 -0.0307617 23.9687 -0.0307617Z" fill="#006D75"/>
<path d="M23.0252 -0.0125533C22.8154 -0.00443913 22.6062 0.00636996 22.3977 0.0198411L22.4176 0.326894C22.6234 0.313594 22.8299 0.302921 23.0371 0.294909L23.0252 -0.0125533Z" fill="#006D75"/>
<path d="M25.5398 0.0198435C25.3313 0.00637231 25.1222 -0.00443796 24.9123 -0.0125521L24.9004 0.29491C25.1076 0.302922 25.3142 0.313595 25.52 0.326895L25.5398 0.0198435Z" fill="#006D75"/>
<path d="M21.7715 0.0684861C21.5623 0.0874728 21.3539 0.109144 21.1463 0.133464L21.1821 0.439066C21.387 0.415057 21.5928 0.393663 21.7993 0.374918L21.7715 0.0684861Z" fill="#006D75"/>
<path d="M26.7912 0.133466C26.5836 0.109146 26.3752 0.0874751 26.1661 0.0684885L26.1382 0.374921C26.3447 0.393665 26.5505 0.41506 26.7554 0.439069L26.7912 0.133466Z" fill="#006D75"/>
<path d="M20.5236 0.214685C20.3157 0.244574 20.1086 0.277127 19.9025 0.312309L19.9543 0.615615C20.1578 0.580886 20.3621 0.548751 20.5674 0.519247L20.5236 0.214685Z" fill="#006D75"/>
<path d="M28.035 0.312312C27.8289 0.27713 27.6218 0.244577 27.4139 0.214689L27.3702 0.519251C27.5754 0.548755 27.7798 0.580889 27.9833 0.615619L28.035 0.312312Z" fill="#006D75"/>
<path d="M19.285 0.426052C19.079 0.466814 18.8739 0.510214 18.6698 0.556215L18.7374 0.856379C18.9389 0.810972 19.1413 0.768132 19.3447 0.727895L19.285 0.426052Z" fill="#006D75"/>
<path d="M29.2677 0.556219C29.0636 0.510219 28.8585 0.466818 28.6525 0.426056L28.5928 0.727899C28.7962 0.768136 28.9986 0.810976 29.2001 0.856383L29.2677 0.556219Z" fill="#006D75"/>
<path d="M18.0593 0.702268C17.8557 0.753825 17.6531 0.807984 17.4516 0.864708L17.535 1.16089C17.7339 1.1049 17.9338 1.05144 18.1348 1.00055L18.0593 0.702268Z" fill="#006D75"/>
<path d="M30.4859 0.864713C30.2844 0.807988 30.0818 0.753829 29.8782 0.702272L29.8027 1.00055C30.0037 1.05144 30.2036 1.1049 30.4025 1.16089L30.4859 0.864713Z" fill="#006D75"/>
<path d="M16.8498 1.04271C16.6492 1.10493 16.4497 1.16971 16.2514 1.23702L16.3503 1.52839C16.546 1.46195 16.7429 1.39801 16.9409 1.33659L16.8498 1.04271Z" fill="#006D75"/>
<path d="M31.6861 1.23702C31.4878 1.16972 31.2883 1.10494 31.0877 1.04272L30.9966 1.3366C31.1946 1.39801 31.3915 1.46196 31.5872 1.52839L31.6861 1.23702Z" fill="#006D75"/>
<path d="M15.6596 1.44659C15.4627 1.51926 15.267 1.59445 15.0725 1.6721L15.1867 1.95785C15.3786 1.8812 15.5718 1.80699 15.7662 1.73525L15.6596 1.44659Z" fill="#006D75"/>
<path d="M32.865 1.67211C32.6705 1.59445 32.4748 1.51927 32.2779 1.44659L32.1713 1.73526C32.3657 1.80699 32.5589 1.88121 32.7509 1.95786L32.865 1.67211Z" fill="#006D75"/>
<path d="M14.4924 1.91267C14.2997 1.99558 14.1083 2.08093 13.9183 2.16869L14.0473 2.44804C14.2349 2.36141 14.4238 2.27715 14.614 2.19532L14.4924 1.91267Z" fill="#006D75"/>
<path d="M34.0192 2.1687C33.8292 2.08093 33.6378 1.99558 33.4451 1.91268L33.3235 2.19532C33.5137 2.27716 33.7026 2.36141 33.8903 2.44804L34.0192 2.1687Z" fill="#006D75"/>
<path d="M13.3514 2.43955C13.1634 2.53242 12.9769 2.62769 12.7917 2.7253L12.9352 2.99748C13.118 2.90112 13.3022 2.80708 13.4877 2.7154L13.3514 2.43955Z" fill="#006D75"/>
<path d="M35.1458 2.72531C34.9606 2.62769 34.7741 2.53243 34.5861 2.43955L34.4498 2.71541C34.6353 2.80709 34.8195 2.90113 35.0023 2.99749L35.1458 2.72531Z" fill="#006D75"/>
<path d="M12.2398 3.02562C12.057 3.12819 11.8757 3.23309 11.6959 3.34027L11.8535 3.60455C12.031 3.49875 12.2099 3.3952 12.3903 3.29394L12.2398 3.02562Z" fill="#006D75"/>
<path d="M36.2416 3.34027C36.0618 3.23309 35.8805 3.12819 35.6978 3.02562L35.5472 3.29394C35.7276 3.3952 35.9065 3.49875 36.084 3.60455L36.2416 3.34027Z" fill="#006D75"/>
<path d="M11.1604 3.66914C10.9833 3.7811 10.8078 3.89533 10.6339 4.01176L10.805 4.26744C10.9767 4.1525 11.15 4.03974 11.3248 3.92921L11.1604 3.66914Z" fill="#006D75"/>
<path d="M37.3036 4.01176C37.1297 3.89533 36.9542 3.78111 36.7771 3.66914L36.6127 3.92921C36.7875 4.03974 36.9608 4.1525 37.1325 4.26744L37.3036 4.01176Z" fill="#006D75"/>
<path d="M10.1162 4.36821C9.94524 4.48925 9.77593 4.61247 9.60832 4.73783L9.79261 4.98423C9.95808 4.86047 10.1252 4.73882 10.294 4.61933L10.1162 4.36821Z" fill="#006D75"/>
<path d="M38.3292 4.73783C38.1616 4.61247 37.9923 4.48925 37.8213 4.36821L37.6435 4.61933C37.8123 4.73882 37.9794 4.86047 38.1449 4.98423L38.3292 4.73783Z" fill="#006D75"/>
<path d="M39.3156 5.51646C39.1547 5.3825 38.992 5.2506 38.8275 5.12081L38.6369 5.36232C38.7992 5.49045 38.9598 5.62067 39.1187 5.75293L39.3156 5.51646Z" fill="#006D75"/>
<path d="M9.10995 5.12081C8.94553 5.2506 8.78285 5.3825 8.62195 5.51647L8.81882 5.75293C8.97767 5.62067 9.13828 5.49046 9.3006 5.36232L9.10995 5.12081Z" fill="#006D75"/>
<path d="M40.26 6.34537C40.1063 6.20318 39.9506 6.06298 39.7932 5.9248L39.5902 6.15606C39.7457 6.29247 39.8993 6.43089 40.0511 6.57126L40.26 6.34537Z" fill="#006D75"/>
<path d="M8.14429 5.92481C7.98685 6.06298 7.83125 6.20318 7.6775 6.34537L7.88642 6.57127C8.0382 6.43089 8.19183 6.29248 8.34725 6.15606L8.14429 5.92481Z" fill="#006D75"/>
<path d="M41.16 7.22226C41.0139 7.07225 40.8657 6.92414 40.7157 6.77797L40.501 6.99836C40.6491 7.14266 40.7953 7.28888 40.9396 7.43699L41.16 7.22226Z" fill="#006D75"/>
<path d="M7.22177 6.77798C7.07176 6.92414 6.92365 7.07225 6.77749 7.22227L6.99787 7.43699C7.14217 7.28888 7.28839 7.14266 7.4365 6.99836L7.22177 6.77798Z" fill="#006D75"/>
<path d="M42.0132 8.14478C41.875 7.98734 41.7348 7.83173 41.5926 7.67799L41.3667 7.88691C41.5071 8.03869 41.6455 8.19232 41.7819 8.34774L42.0132 8.14478Z" fill="#006D75"/>
<path d="M6.34488 7.67799C6.20269 7.83174 6.06249 7.98735 5.92432 8.14478L6.15557 8.34774C6.29198 8.19232 6.4304 8.03869 6.57077 7.88691L6.34488 7.67799Z" fill="#006D75"/>
<path d="M42.8172 9.11044C42.6874 8.94602 42.5555 8.78334 42.4215 8.62244L42.1851 8.81931C42.3173 8.97816 42.4475 9.13877 42.5757 9.30109L42.8172 9.11044Z" fill="#006D75"/>
<path d="M5.51598 8.62244C5.38201 8.78334 5.25011 8.94602 5.12032 9.11044L5.36183 9.30109C5.48997 9.13877 5.62018 8.97816 5.75244 8.81931L5.51598 8.62244Z" fill="#006D75"/>
<path d="M4.73735 9.60881C4.61198 9.77642 4.48876 9.94573 4.36772 10.1167L4.61884 10.2945C4.73834 10.1257 4.85998 9.95857 4.98375 9.79309L4.73735 9.60881Z" fill="#006D75"/>
<path d="M43.5698 10.1167C43.4487 9.94573 43.3255 9.77642 43.2002 9.60881L42.9538 9.79309C43.0775 9.95857 43.1992 10.1257 43.3187 10.2945L43.5698 10.1167Z" fill="#006D75"/>
<path d="M4.01127 10.6344C3.89484 10.8083 3.78062 10.9838 3.66865 11.1609L3.92872 11.3253C4.03925 11.1505 4.15201 10.9772 4.26696 10.8055L4.01127 10.6344Z" fill="#006D75"/>
<path d="M44.2689 11.1609C44.1569 10.9838 44.0427 10.8083 43.9262 10.6344L43.6705 10.8055C43.7855 10.9772 43.8983 11.1505 44.0088 11.3253L44.2689 11.1609Z" fill="#006D75"/>
<path d="M3.33978 11.6964C3.2326 11.8762 3.1277 12.0575 3.02513 12.2402L3.29345 12.3908C3.39471 12.2104 3.49826 12.0314 3.60407 11.854L3.33978 11.6964Z" fill="#006D75"/>
<path d="M44.9124 12.2402C44.8098 12.0575 44.7049 11.8762 44.5977 11.6964L44.3334 11.854C44.4392 12.0315 44.5428 12.2104 44.6441 12.3908L44.9124 12.2402Z" fill="#006D75"/>
<path d="M2.72482 12.7922C2.6272 12.9773 2.53194 13.1639 2.43906 13.3519L2.71492 13.4882C2.8066 13.3026 2.90064 13.1185 2.997 12.9357L2.72482 12.7922Z" fill="#006D75"/>
<path d="M45.4984 13.3519C45.4056 13.1639 45.3103 12.9773 45.2127 12.7922L44.9405 12.9357C45.0369 13.1185 45.1309 13.3027 45.2226 13.4882L45.4984 13.3519Z" fill="#006D75"/>
<path d="M2.16821 13.9187C2.08044 14.1088 1.99509 14.3002 1.91219 14.4929L2.19484 14.6145C2.27667 14.4243 2.36092 14.2353 2.44756 14.0477L2.16821 13.9187Z" fill="#006D75"/>
<path d="M46.0253 14.4929C45.9424 14.3002 45.8571 14.1088 45.7693 13.9187L45.4899 14.0477C45.5766 14.2353 45.6608 14.4243 45.7427 14.6145L46.0253 14.4929Z" fill="#006D75"/>
<path d="M1.67162 15.073C1.59396 15.2675 1.51878 15.4632 1.44611 15.6601L1.73477 15.7666C1.8065 15.5723 1.88072 15.3791 1.95737 15.1871L1.67162 15.073Z" fill="#006D75"/>
<path d="M46.4914 15.6601C46.4187 15.4632 46.3435 15.2675 46.2659 15.073L45.9801 15.1871C46.0568 15.3791 46.131 15.5723 46.2027 15.7667L46.4914 15.6601Z" fill="#006D75"/>
<path d="M1.23653 16.2519C1.16923 16.4502 1.10445 16.6497 1.04223 16.8503L1.33611 16.9414C1.39753 16.7434 1.46147 16.5465 1.5279 16.3508L1.23653 16.2519Z" fill="#006D75"/>
<path d="M46.8953 16.8503C46.8331 16.6497 46.7683 16.4502 46.701 16.2519L46.4096 16.3508C46.476 16.5465 46.54 16.7434 46.6014 16.9414L46.8953 16.8503Z" fill="#006D75"/>
<path d="M0.864224 17.4521C0.8075 17.6536 0.753341 17.8561 0.701784 18.0598L1.00006 18.1353C1.05095 17.9343 1.10441 17.7343 1.1604 17.5354L0.864224 17.4521Z" fill="#006D75"/>
<path d="M47.2357 18.0598C47.1842 17.8562 47.13 17.6536 47.0733 17.4521L46.7771 17.5355C46.8331 17.7344 46.8866 17.9343 46.9374 18.1353L47.2357 18.0598Z" fill="#006D75"/>
<path d="M0.555731 18.6702C0.50973 18.8743 0.46633 19.0795 0.425568 19.2855L0.72741 19.3452C0.767647 19.1418 0.810488 18.9394 0.855895 18.7379L0.555731 18.6702Z" fill="#006D75"/>
<path d="M47.5119 19.2855C47.4712 19.0795 47.4278 18.8744 47.3818 18.6703L47.0816 18.7379C47.127 18.9394 47.1699 19.1418 47.2101 19.3452L47.5119 19.2855Z" fill="#006D75"/>
<path d="M0.311823 19.903C0.276642 20.1091 0.244089 20.3161 0.214201 20.524L0.518762 20.5678C0.548267 20.3626 0.580401 20.1582 0.615131 19.9547L0.311823 19.903Z" fill="#006D75"/>
<path d="M47.7233 20.5241C47.6934 20.3162 47.6609 20.1091 47.6257 19.903L47.3224 19.9547C47.3571 20.1582 47.3892 20.3626 47.4187 20.5679L47.7233 20.5241Z" fill="#006D75"/>
<path d="M0.132979 21.1468C0.108658 21.3544 0.0869868 21.5628 0.0680002 21.7719L0.374433 21.7997C0.393177 21.5932 0.414571 21.3875 0.43858 21.1826L0.132979 21.1468Z" fill="#006D75"/>
<path d="M47.8695 21.772C47.8505 21.5628 47.8288 21.3544 47.8045 21.1468L47.4989 21.1826C47.5229 21.3875 47.5443 21.5933 47.5631 21.7998L47.8695 21.772Z" fill="#006D75"/>
<path d="M0.0193552 22.3982C0.00588344 22.6066 -0.00492565 22.8158 -0.0130404 23.0257L0.294422 23.0376C0.302434 22.8304 0.313107 22.6238 0.326407 22.418L0.0193552 22.3982Z" fill="#006D75"/>
<path d="M47.9505 23.0257C47.9424 22.8159 47.9316 22.6067 47.9181 22.3982L47.6111 22.4181C47.6244 22.6239 47.6351 22.8304 47.6431 23.0376L47.9505 23.0257Z" fill="#006D75"/>
<path d="M-0.0292182 23.6537C-0.0305716 23.7587 -0.03125 23.8639 -0.03125 23.9692C-0.03125 24.0746 -0.0305716 24.1797 -0.0292188 24.2847L0.278448 24.2808C0.277113 24.1771 0.276442 24.0732 0.276442 23.9692C0.276442 23.8652 0.277113 23.7614 0.278449 23.6577L-0.0292182 23.6537Z" fill="#006D75"/>
<path d="M47.9688 23.9692C47.9688 23.8639 47.9681 23.7588 47.9667 23.6538L47.6591 23.6577C47.6604 23.7614 47.6611 23.8652 47.6611 23.9692C47.6611 24.0732 47.6604 24.1771 47.6591 24.2807L47.9667 24.2847C47.9681 24.1797 47.9688 24.0745 47.9688 23.9692Z" fill="#006D75"/>
<path d="M47.9182 25.5402C47.9316 25.3318 47.9424 25.1226 47.9505 24.9127L47.6431 24.9008C47.6351 25.1081 47.6244 25.3146 47.6111 25.5204L47.9182 25.5402Z" fill="#006D75"/>
<path d="M-0.0130416 24.9128C-0.00492741 25.1226 0.00588226 25.3318 0.0193534 25.5403L0.326405 25.5204C0.313105 25.3146 0.302433 25.1081 0.294421 24.9009L-0.0130416 24.9128Z" fill="#006D75"/>
<path d="M47.8045 26.7917C47.8288 26.5841 47.8505 26.3757 47.8695 26.1665L47.5631 26.1387C47.5443 26.3452 47.5229 26.5509 47.4989 26.7559L47.8045 26.7917Z" fill="#006D75"/>
<path d="M0.0679979 26.1665C0.0869845 26.3757 0.108655 26.5841 0.132976 26.7917L0.438578 26.7559C0.414568 26.5509 0.393174 26.3452 0.37443 26.1387L0.0679979 26.1665Z" fill="#006D75"/>
<path d="M47.6257 28.0355C47.6609 27.8293 47.6934 27.6223 47.7233 27.4144L47.4188 27.3706C47.3892 27.5758 47.3571 27.7802 47.3224 27.9837L47.6257 28.0355Z" fill="#006D75"/>
<path d="M0.214198 27.4144C0.244085 27.6223 0.276638 27.8293 0.31182 28.0355L0.615127 27.9837C0.580397 27.7802 0.548263 27.5759 0.518759 27.3706L0.214198 27.4144Z" fill="#006D75"/>
<path d="M47.3818 29.2682C47.4278 29.0641 47.4712 28.859 47.5119 28.6529L47.2101 28.5932C47.1699 28.7966 47.127 28.9991 47.0816 29.2006L47.3818 29.2682Z" fill="#006D75"/>
<path d="M0.425564 28.653C0.466326 28.859 0.509726 29.0641 0.555727 29.2682L0.855891 29.2006C0.810484 28.9991 0.767643 28.7966 0.727406 28.5932L0.425564 28.653Z" fill="#006D75"/>
<path d="M47.0733 30.4864C47.13 30.2849 47.1842 30.0823 47.2357 29.8787L46.9375 29.8032C46.8866 30.0041 46.8331 30.2041 46.7771 30.403L47.0733 30.4864Z" fill="#006D75"/>
<path d="M0.70178 29.8787C0.753336 30.0823 0.807495 30.2849 0.864219 30.4864L1.1604 30.403C1.10441 30.2041 1.05095 30.0042 1.00006 29.8032L0.70178 29.8787Z" fill="#006D75"/>
<path d="M46.701 31.6866C46.7683 31.4883 46.8331 31.2888 46.8953 31.0882L46.6014 30.997C46.54 31.195 46.476 31.3919 46.4096 31.5877L46.701 31.6866Z" fill="#006D75"/>
<path d="M1.04222 31.0882C1.10444 31.2888 1.16923 31.4883 1.23653 31.6866L1.5279 31.5877C1.46146 31.392 1.39752 31.1951 1.33611 30.997L1.04222 31.0882Z" fill="#006D75"/>
<path d="M46.2659 32.8654C46.3435 32.671 46.4187 32.4753 46.4914 32.2783L46.2027 32.1718C46.131 32.3662 46.0568 32.5594 45.9801 32.7513L46.2659 32.8654Z" fill="#006D75"/>
<path d="M1.4461 32.2784C1.51878 32.4753 1.59396 32.671 1.67161 32.8654L1.95736 32.7513C1.88071 32.5594 1.8065 32.3662 1.73476 32.1718L1.4461 32.2784Z" fill="#006D75"/>
<path d="M45.7693 34.0197C45.8571 33.8297 45.9424 33.6383 46.0253 33.4456L45.7427 33.324C45.6608 33.5142 45.5766 33.7031 45.49 33.8907L45.7693 34.0197Z" fill="#006D75"/>
<path d="M1.91219 33.4456C1.99509 33.6383 2.08044 33.8297 2.1682 34.0197L2.44755 33.8907C2.36092 33.7031 2.27666 33.5142 2.19483 33.324L1.91219 33.4456Z" fill="#006D75"/>
<path d="M45.2127 35.1463C45.3103 34.9611 45.4056 34.7745 45.4985 34.5866L45.2226 34.4503C45.1309 34.6358 45.0369 34.82 44.9405 35.0028L45.2127 35.1463Z" fill="#006D75"/>
<path d="M2.43906 34.5866C2.53193 34.7745 2.6272 34.9611 2.72481 35.1463L2.997 35.0028C2.90064 34.82 2.8066 34.6358 2.71492 34.4503L2.43906 34.5866Z" fill="#006D75"/>
<path d="M44.5977 36.242C44.7049 36.0623 44.8098 35.881 44.9124 35.6982L44.6441 35.5476C44.5428 35.7281 44.4392 35.907 44.3334 36.0845L44.5977 36.242Z" fill="#006D75"/>
<path d="M3.02513 35.6982C3.1277 35.881 3.2326 36.0623 3.33978 36.2421L3.60406 36.0845C3.49826 35.907 3.39471 35.7281 3.29345 35.5476L3.02513 35.6982Z" fill="#006D75"/>
<path d="M43.9262 37.3041C44.0427 37.1302 44.1569 36.9547 44.2689 36.7776L44.0088 36.6132C43.8983 36.788 43.7855 36.9613 43.6706 37.1329L43.9262 37.3041Z" fill="#006D75"/>
<path d="M3.66865 36.7776C3.78062 36.9547 3.89484 37.1302 4.01127 37.3041L4.26696 37.1329C4.15201 36.9613 4.03925 36.788 3.92872 36.6132L3.66865 36.7776Z" fill="#006D75"/>
<path d="M43.2002 38.3297C43.3255 38.162 43.4487 37.9927 43.5698 37.8218L43.3187 37.644C43.1992 37.8128 43.0775 37.9799 42.9538 38.1454L43.2002 38.3297Z" fill="#006D75"/>
<path d="M4.36772 37.8218C4.48876 37.9927 4.61198 38.1621 4.73735 38.3297L4.98375 38.1454C4.85998 37.9799 4.73834 37.8128 4.61884 37.644L4.36772 37.8218Z" fill="#006D75"/>
<path d="M42.4215 39.316C42.5555 39.1551 42.6874 38.9925 42.8172 38.828L42.5757 38.6374C42.4475 38.7997 42.3173 38.9603 42.1851 39.1192L42.4215 39.316Z" fill="#006D75"/>
<path d="M5.12032 38.828C5.25011 38.9925 5.38201 39.1551 5.51598 39.316L5.75244 39.1192C5.62018 38.9603 5.48997 38.7997 5.36183 38.6374L5.12032 38.828Z" fill="#006D75"/>
<path d="M5.92432 39.7937C6.06249 39.9511 6.20269 40.1067 6.34488 40.2605L6.57078 40.0516C6.4304 39.8998 6.29199 39.7462 6.15557 39.5907L5.92432 39.7937Z" fill="#006D75"/>
<path d="M41.5926 40.2605C41.7348 40.1067 41.875 39.9511 42.0132 39.7937L41.7819 39.5907C41.6455 39.7462 41.5071 39.8998 41.3667 40.0516L41.5926 40.2605Z" fill="#006D75"/>
<path d="M40.7157 41.1605C40.8657 41.0143 41.0139 40.8662 41.16 40.7162L40.9396 40.5015C40.7953 40.6496 40.6491 40.7958 40.501 40.9401L40.7157 41.1605Z" fill="#006D75"/>
<path d="M6.77749 40.7162C6.92365 40.8662 7.07176 41.0143 7.22178 41.1605L7.4365 40.9401C7.2884 40.7958 7.14217 40.6496 6.99787 40.5015L6.77749 40.7162Z" fill="#006D75"/>
<path d="M7.6775 41.5931C7.83125 41.7353 7.98686 41.8755 8.14429 42.0137L8.34726 41.7824C8.19183 41.646 8.0382 41.5076 7.88642 41.3672L7.6775 41.5931Z" fill="#006D75"/>
<path d="M39.7932 42.0137C39.9506 41.8755 40.1063 41.7353 40.26 41.5931L40.0511 41.3672C39.8993 41.5076 39.7457 41.646 39.5902 41.7824L39.7932 42.0137Z" fill="#006D75"/>
<path d="M8.62195 42.422C8.78285 42.556 8.94553 42.6879 9.10995 42.8177L9.3006 42.5762C9.13828 42.448 8.97768 42.3178 8.81883 42.1856L8.62195 42.422Z" fill="#006D75"/>
<path d="M38.8275 42.8177C38.992 42.6879 39.1547 42.556 39.3156 42.422L39.1187 42.1856C38.9598 42.3178 38.7992 42.448 38.6369 42.5762L38.8275 42.8177Z" fill="#006D75"/>
<path d="M37.8213 43.5703C37.9923 43.4492 38.1616 43.326 38.3292 43.2006L38.1449 42.9542C37.9794 43.078 37.8123 43.1997 37.6435 43.3191L37.8213 43.5703Z" fill="#006D75"/>
<path d="M9.60833 43.2007C9.77594 43.326 9.94525 43.4492 10.1162 43.5703L10.294 43.3192C10.1252 43.1997 9.95809 43.078 9.79261 42.9543L9.60833 43.2007Z" fill="#006D75"/>
<path d="M36.7771 44.2693C36.9542 44.1574 37.1297 44.0432 37.3036 43.9267L37.1325 43.671C36.9608 43.786 36.7875 43.8987 36.6127 44.0093L36.7771 44.2693Z" fill="#006D75"/>
<path d="M10.6339 43.9267C10.8078 44.0432 10.9833 44.1574 11.1604 44.2693L11.3248 44.0093C11.15 43.8987 10.9767 43.786 10.805 43.671L10.6339 43.9267Z" fill="#006D75"/>
<path d="M35.6977 44.9129C35.8805 44.8103 36.0618 44.7054 36.2416 44.5982L36.084 44.3339C35.9065 44.4397 35.7276 44.5433 35.5471 44.6445L35.6977 44.9129Z" fill="#006D75"/>
<path d="M11.6959 44.5982C11.8757 44.7054 12.057 44.8103 12.2398 44.9129L12.3904 44.6445C12.2099 44.5433 12.031 44.4397 11.8535 44.3339L11.6959 44.5982Z" fill="#006D75"/>
<path d="M34.5861 45.4989C34.7741 45.4061 34.9606 45.3108 35.1458 45.2132L35.0023 44.941C34.8195 45.0374 34.6353 45.1314 34.4498 45.2231L34.5861 45.4989Z" fill="#006D75"/>
<path d="M12.7917 45.2132C12.9769 45.3108 13.1635 45.4061 13.3514 45.4989L13.4877 45.2231C13.3022 45.1314 13.118 45.0374 12.9352 44.941L12.7917 45.2132Z" fill="#006D75"/>
<path d="M33.4451 46.0258C33.6378 45.9429 33.8292 45.8576 34.0192 45.7698L33.8902 45.4904C33.7026 45.5771 33.5137 45.6613 33.3235 45.7432L33.4451 46.0258Z" fill="#006D75"/>
<path d="M13.9183 45.7698C14.1083 45.8576 14.2997 45.9429 14.4924 46.0258L14.614 45.7432C14.4238 45.6613 14.2349 45.5771 14.0473 45.4904L13.9183 45.7698Z" fill="#006D75"/>
<path d="M32.2779 46.4919C32.4748 46.4192 32.6705 46.344 32.865 46.2664L32.7508 45.9806C32.5589 46.0573 32.3657 46.1315 32.1713 46.2032L32.2779 46.4919Z" fill="#006D75"/>
<path d="M15.0726 46.2664C15.267 46.344 15.4627 46.4192 15.6597 46.4919L15.7662 46.2032C15.5718 46.1315 15.3786 46.0573 15.1867 45.9806L15.0726 46.2664Z" fill="#006D75"/>
<path d="M31.0877 46.8958C31.2883 46.8335 31.4878 46.7688 31.6861 46.7015L31.5872 46.4101C31.3915 46.4765 31.1946 46.5405 30.9966 46.6019L31.0877 46.8958Z" fill="#006D75"/>
<path d="M16.2514 46.7015C16.4497 46.7688 16.6492 46.8336 16.8498 46.8958L16.941 46.6019C16.743 46.5405 16.5461 46.4765 16.3503 46.4101L16.2514 46.7015Z" fill="#006D75"/>
<path d="M29.8782 47.2362C30.0818 47.1847 30.2844 47.1305 30.4859 47.0738L30.4025 46.7776C30.2036 46.8336 30.0037 46.887 29.8027 46.9379L29.8782 47.2362Z" fill="#006D75"/>
<path d="M17.4516 47.0738C17.6531 47.1305 17.8557 47.1847 18.0593 47.2362L18.1348 46.9379C17.9339 46.8871 17.7339 46.8336 17.535 46.7776L17.4516 47.0738Z" fill="#006D75"/>
<path d="M28.6525 47.5124C28.8585 47.4717 29.0636 47.4283 29.2677 47.3823L29.2001 47.0821C28.9986 47.1275 28.7961 47.1703 28.5928 47.2106L28.6525 47.5124Z" fill="#006D75"/>
<path d="M18.6698 47.3823C18.8739 47.4283 19.079 47.4717 19.2851 47.5124L19.3448 47.2106C19.1414 47.1704 18.9389 47.1275 18.7374 47.0821L18.6698 47.3823Z" fill="#006D75"/>
<path d="M27.4139 47.7238C27.6218 47.6939 27.8289 47.6614 28.035 47.6262L27.9832 47.3229C27.7797 47.3576 27.5754 47.3897 27.3701 47.4192L27.4139 47.7238Z" fill="#006D75"/>
<path d="M19.9025 47.6262C20.1087 47.6614 20.3157 47.6939 20.5236 47.7238L20.5674 47.4192C20.3622 47.3897 20.1578 47.3576 19.9543 47.3229L19.9025 47.6262Z" fill="#006D75"/>
<path d="M26.166 47.87C26.3752 47.851 26.5836 47.8293 26.7912 47.805L26.7554 47.4994C26.5505 47.5234 26.3447 47.5448 26.1382 47.5636L26.166 47.87Z" fill="#006D75"/>
<path d="M21.1463 47.805C21.3539 47.8293 21.5623 47.851 21.7715 47.87L21.7993 47.5636C21.5928 47.5448 21.3871 47.5234 21.1821 47.4994L21.1463 47.805Z" fill="#006D75"/>
<path d="M22.3978 47.9186C22.6062 47.9321 22.8154 47.9429 23.0253 47.951L23.0371 47.6436C22.8299 47.6356 22.6234 47.6249 22.4176 47.6116L22.3978 47.9186Z" fill="#006D75"/>
<path d="M24.9123 47.951C25.1221 47.9429 25.3313 47.9321 25.5398 47.9186L25.5199 47.6116C25.3141 47.6249 25.1076 47.6356 24.9004 47.6436L24.9123 47.951Z" fill="#006D75"/>
<path d="M23.6533 47.9672C23.7583 47.9686 23.8634 47.9692 23.9687 47.9692C24.0741 47.9692 24.1792 47.9686 24.2842 47.9672L24.2803 47.6595C24.1766 47.6609 24.0727 47.6615 23.9687 47.6615C23.8648 47.6615 23.7609 47.6609 23.6573 47.6595L23.6533 47.9672Z" fill="#006D75"/>
<path fill-rule="evenodd" clip-rule="evenodd" d="M36.7995 10.7078C36.7995 10.4924 36.6456 10.3693 36.4302 10.3693C35.9563 10.3989 35.4824 10.4357 35.005 10.4727C34.4906 10.5126 33.9723 10.5528 33.4456 10.5847C32.8918 10.6309 32.3379 10.6693 31.7841 10.7078C31.2302 10.7463 30.6764 10.7847 30.1225 10.8309C29.5072 10.8616 28.8918 10.9232 28.3379 11.2924C26.7995 12.2463 25.2302 13.2001 23.661 14.1232C23.5379 14.1847 23.4456 14.1847 23.3533 14.1539C23.1379 14.0463 22.9148 13.9463 22.6918 13.8463C22.4687 13.7463 22.2456 13.6463 22.0302 13.5386C21.6918 13.3539 21.1687 13.5078 21.0148 13.9386C20.9995 13.9847 20.9764 14.0309 20.9533 14.077C20.9302 14.1232 20.9072 14.1693 20.8918 14.2155C20.8302 14.4001 20.7379 14.4001 20.5841 14.3386C19.9379 14.0309 19.2918 13.7539 18.6456 13.477C18.0302 13.2001 17.3841 13.2309 16.7995 13.5693C16.2918 13.8616 15.7994 14.1617 15.3071 14.4617C14.8148 14.7617 14.3225 15.0616 13.8148 15.3539C13.1995 15.7232 12.7379 16.1847 12.4918 16.8616C12.4764 16.877 12.4687 16.9001 12.461 16.9232C12.4533 16.9463 12.4456 16.9693 12.4302 16.9847L11.261 19.6001C11.2528 19.6166 11.2445 19.6309 11.2369 19.6441C11.2159 19.6803 11.1995 19.7089 11.1995 19.7539C11.0764 20.0616 11.1687 20.3386 11.4764 20.4924C11.5687 20.5385 11.6534 20.5771 11.738 20.6155C11.8226 20.654 11.9072 20.6924 11.9995 20.7386C12.1267 20.8022 12.1882 20.8329 12.2009 20.8775C12.2127 20.9192 12.182 20.973 12.1225 21.077L8.15331 29.8463C8.12284 29.9072 8.09247 29.9983 8.06201 30.0897L8.06109 30.0925C9.2302 30.6155 10.3996 31.1386 11.5687 31.6924C11.5841 31.6616 11.5995 31.6232 11.6148 31.5847C11.6302 31.5463 11.6456 31.5078 11.661 31.477C11.8764 31.0155 12.0918 30.5539 12.2764 30.0924C12.3995 29.8463 12.3995 29.8463 12.6456 29.9693C13.3225 30.277 14.0071 30.5847 14.6917 30.8924C15.3763 31.2001 16.061 31.5078 16.7379 31.8155C16.9533 31.9078 17.1687 32.0001 17.3841 32.0309C18.4918 32.2155 19.4456 31.6616 19.9072 30.6463C20.4624 29.4365 21.0049 28.2268 21.5511 27.0088C21.8524 26.3371 22.1547 25.6628 22.461 24.9847L22.7687 24.3693L23.0148 23.8463C23.0148 23.8309 23.0225 23.8155 23.0302 23.8001C23.0379 23.7847 23.0456 23.7693 23.0456 23.7539L24.3379 20.8924C24.4918 20.5539 24.4918 20.2155 24.3687 19.877C24.2456 19.5386 24.1225 19.2307 23.9994 18.923C23.8763 18.5846 23.7533 18.2462 23.6302 17.9386C23.6991 17.9127 23.7656 17.8869 23.8303 17.8617C23.9969 17.797 24.1521 17.7367 24.3072 17.6924C24.861 17.5386 25.0764 17.0155 24.8302 16.5232C24.6764 16.2155 24.5841 15.9078 24.4918 15.6001C24.5278 15.564 24.5639 15.5386 24.5937 15.5174C24.6148 15.5025 24.6329 15.4898 24.6456 15.477C25.3375 15.0619 26.0371 14.6391 26.7366 14.2163L26.7369 14.2161L26.7389 14.2149L26.7392 14.2147C27.4388 13.7919 28.1383 13.3691 28.8302 12.9539C28.8956 12.9176 28.9592 12.8779 29.0231 12.838C29.2302 12.7087 29.4404 12.5775 29.7225 12.5539C30.751 12.4968 31.7529 12.4131 32.7776 12.3276L33.0148 12.3078C33.5994 12.2616 34.1841 12.2232 34.7687 12.1847C35.3532 12.1463 35.9379 12.1078 36.5225 12.0616C36.7995 12.0309 36.8918 11.9078 36.861 11.6616C36.8465 11.4874 36.8388 11.3336 36.8315 11.1876C36.8234 11.0243 36.8157 10.8702 36.7995 10.7078ZM14.6764 29.5078C14.461 29.4155 14.2456 29.3232 14.0302 29.2001C14.0456 29.1693 14.061 29.1309 14.0764 29.0924C14.0918 29.0539 14.1072 29.0155 14.1225 28.9847C14.5533 28.0155 14.9918 27.0463 15.4302 26.077C15.8687 25.1078 16.3071 24.1386 16.7379 23.1693C16.861 22.9232 16.861 22.9232 17.1072 23.0463C17.4302 23.1847 17.7533 23.3309 18.0764 23.477C18.3995 23.6232 18.7225 23.7693 19.0456 23.9078L19.2302 24.0001V24.0616C19.1379 24.077 19.0533 24.1001 18.9687 24.1232C18.8841 24.1463 18.7994 24.1693 18.7071 24.1847C18.3379 24.277 17.9687 24.3693 17.5995 24.4309C17.1379 24.5539 16.7995 24.8309 16.6148 25.2616C16.3073 25.9228 16.0075 26.5917 15.7076 27.2606L15.7071 27.2617C15.4071 27.9309 15.1071 28.6001 14.7995 29.2616C14.7379 29.3539 14.7072 29.4155 14.6764 29.5078ZM21.0764 25.0463C20.8764 25.477 20.6841 25.9078 20.4918 26.3386C20.2995 26.7693 20.1072 27.2001 19.9072 27.6309L19.9068 27.6316C19.5377 28.4621 19.1686 29.2926 18.7995 30.0924C18.6148 30.4616 18.3687 30.7386 17.9379 30.7693C17.7533 30.8001 17.5379 30.7693 17.3533 30.7078C16.916 30.5256 16.4893 30.3325 16.0672 30.1415C15.7766 30.01 15.488 29.8794 15.1995 29.7539C15.0764 29.6924 15.0456 29.6616 15.1072 29.5386C15.4148 28.8463 15.7302 28.1539 16.0456 27.4616C16.361 26.7693 16.6764 26.077 16.9841 25.3847C17.1379 25.077 17.4148 24.8924 17.7533 24.8309C18.0918 24.7539 18.4225 24.677 18.7533 24.6001C19.0841 24.5232 19.4148 24.4463 19.7533 24.3693C19.8456 24.3386 19.9687 24.3693 20.061 24.4001C20.2148 24.4616 20.3687 24.5309 20.5225 24.6001C20.6764 24.6693 20.8302 24.7386 20.9841 24.8001C21.1379 24.8309 21.1379 24.9232 21.0764 25.0463Z" fill="#006D75"/>
<path d="M7.7841 31.1693C8.30718 31.4 8.82256 31.6308 9.33795 31.8616C9.85333 32.0923 10.3687 32.3231 10.8918 32.5539L11.0764 32.6462C11.1272 32.5446 11.1687 32.4522 11.206 32.3692C11.2365 32.3015 11.2641 32.24 11.2918 32.1847C11.3533 32.0616 11.3226 32 11.1995 31.9385C10.661 31.6923 10.1303 31.4539 9.59948 31.2154C9.06871 30.977 8.53794 30.7385 7.99948 30.4923C7.93794 30.4616 7.87641 30.4616 7.81487 30.4616C7.75333 30.6154 7.69179 30.7385 7.63025 30.8616C7.56871 31.0154 7.63025 31.1077 7.7841 31.1693Z" fill="#006D75"/>
<path d="M7.83014 35.2462C8.34551 35.477 8.86089 35.7078 9.38395 35.9385C9.5378 36.0308 9.56857 36.0924 9.50703 36.2155C9.35318 36.7078 9.35318 36.7078 8.89165 36.4924L6.03011 35.2001C5.9378 35.1693 5.87626 35.1385 5.78395 35.077C5.82192 35.0011 5.85468 34.9251 5.88651 34.8513C5.93209 34.7457 5.97576 34.6445 6.03011 34.5539C6.03011 34.5231 6.09165 34.4924 6.15318 34.4924C6.18395 34.4924 6.24549 34.5231 6.27626 34.5539C6.79921 34.7846 7.31449 35.0154 7.82975 35.2461L7.83014 35.2462Z" fill="#006D75"/>
<path d="M7.41484 31.4771L10.9225 33.0463C10.8764 33.1539 10.8302 33.254 10.7841 33.3539L10.7838 33.3545C10.7378 33.4543 10.6917 33.5541 10.6456 33.6617L7.13792 32.0924C7.18407 31.9847 7.23023 31.8847 7.27638 31.7847C7.32254 31.6847 7.36869 31.5847 7.41484 31.4771Z" fill="#006D75"/>
<path d="M8.43021 33.8923C7.91484 33.6616 7.39948 33.4308 6.89181 33.2001C6.73796 33.1385 6.67642 33.077 6.76873 32.8308C6.85912 32.635 6.90525 32.535 6.97935 32.5057C7.0566 32.4751 7.16425 32.5212 7.38412 32.6154C8.06637 32.9448 8.76662 33.2562 9.45735 33.5633C9.66994 33.6579 9.88182 33.7521 10.0918 33.8462C10.4918 34.0308 10.4918 34.0308 10.3072 34.4308C10.2764 34.5231 10.2457 34.5847 10.1841 34.677C10.0918 34.6462 10.0303 34.6154 9.96873 34.5847C9.46104 34.3539 8.94559 34.1231 8.43021 33.8923Z" fill="#006D75"/>
<path d="M8.72178 35.2388C7.95763 34.889 7.20277 34.5433 6.43009 34.2155C6.24548 34.1232 6.21472 34.0617 6.30702 33.9078C6.36856 33.7848 6.43009 33.6617 6.49163 33.5079L9.99932 35.0771C9.90702 35.2617 9.8147 35.4771 9.7224 35.6925C9.67625 35.6771 9.63009 35.654 9.58394 35.6309C9.53778 35.6078 9.49163 35.5848 9.44548 35.5694C9.20351 35.4594 8.96328 35.3494 8.72398 35.2398L8.72294 35.2394L8.72227 35.2391L8.72178 35.2388Z" fill="#006D75"/>
<path d="M6.27632 35.6924L8.58401 36.8001L7.41478 39.2924C7.41478 39.2924 6.27632 38.3078 5.38401 36.8924L6.03017 35.5693L6.27632 35.6924Z" fill="#006D75"/>
<path fill-rule="evenodd" clip-rule="evenodd" d="M37.7839 14.8925C33.1993 19.0463 33.507 23.2002 33.507 23.2002C33.507 25.5694 35.4147 27.4771 37.7839 27.4771C40.1532 27.4771 42.0609 25.5694 42.0609 23.2002C42.0585 23.2025 42.0583 23.1805 42.0579 23.1359C42.0531 22.5967 42.0186 18.7577 37.7839 14.8925ZM37.9686 26.6463C36.0301 26.6463 34.4916 25.0771 34.4916 23.1694C34.4916 23.0771 34.5532 23.0155 34.6455 23.0155C34.7378 23.0155 34.7993 23.0771 34.7993 23.1694C34.7993 24.9232 36.2147 26.3386 37.9686 26.3386C38.0609 26.3386 38.1224 26.4002 38.1224 26.4925C38.1224 26.5848 38.0301 26.6463 37.9686 26.6463Z" fill="#006D75"/>
</svg>
