<svg width="48" height="48" viewBox="0 0 48 48" fill="none" xmlns="http://www.w3.org/2000/svg">
<path d="M24 0C23.8947 0 23.7895 0.000678503 23.6845 0.00203139L23.6885 0.309698C23.7922 0.308362 23.896 0.307692 24 0.307692C24.104 0.307692 24.2078 0.308362 24.3115 0.309698L24.3155 0.002031C24.2105 0.000678365 24.1053 0 24 0Z" fill="#006D75"/>
<path d="M25.571 0.0506013C25.3625 0.0371304 25.1534 0.0263213 24.9435 0.0182074L24.9316 0.32567C25.1388 0.333681 25.3453 0.344353 25.5512 0.357653L25.571 0.0506013Z" fill="#006D75"/>
<path d="M23.0565 0.0182086C22.8466 0.0263227 22.6374 0.0371321 22.429 0.0506032L22.4488 0.357655C22.6546 0.344355 22.8612 0.333683 23.0684 0.325671L23.0565 0.0182086Z" fill="#006D75"/>
<path d="M26.8224 0.164222C26.6148 0.139902 26.4064 0.118231 26.1973 0.0992451L26.1694 0.405678C26.3759 0.424422 26.5817 0.445815 26.7866 0.469824L26.8224 0.164222Z" fill="#006D75"/>
<path d="M21.8027 0.0992477C21.5935 0.118234 21.3852 0.139905 21.1776 0.164225L21.2134 0.469828C21.4183 0.445819 21.624 0.424425 21.8305 0.40568L21.8027 0.0992477Z" fill="#006D75"/>
<path d="M28.0662 0.343066C27.8601 0.307884 27.653 0.275331 27.4451 0.245444L27.4014 0.550005C27.6066 0.579509 27.811 0.611643 28.0145 0.646372L28.0662 0.343066Z" fill="#006D75"/>
<path d="M20.5548 0.245448C20.3469 0.275335 20.1399 0.307888 19.9337 0.34307L19.9855 0.646377C20.189 0.611648 20.3934 0.579513 20.5986 0.550009L20.5548 0.245448Z" fill="#006D75"/>
<path d="M29.299 0.586972C29.0948 0.540971 28.8897 0.497571 28.6837 0.456809L28.624 0.758651C28.8274 0.798888 29.0298 0.841728 29.2313 0.887136L29.299 0.586972Z" fill="#006D75"/>
<path d="M19.3163 0.456814C19.1102 0.497576 18.9051 0.540976 18.701 0.586977L18.7687 0.887141C18.9701 0.841734 19.1726 0.798893 19.376 0.758656L19.3163 0.456814Z" fill="#006D75"/>
<path d="M30.5171 0.895464C30.3156 0.83874 30.1131 0.784581 29.9094 0.733024L29.8339 1.0313C30.0349 1.08219 30.2349 1.13565 30.4338 1.19164L30.5171 0.895464Z" fill="#006D75"/>
<path d="M18.0905 0.73303C17.8869 0.784586 17.6843 0.838746 17.4828 0.89547L17.5662 1.19165C17.7651 1.13566 17.9651 1.0822 18.1661 1.03131L18.0905 0.73303Z" fill="#006D75"/>
<path d="M31.7173 1.26777C31.519 1.20047 31.3195 1.13569 31.1189 1.07347L31.0278 1.36735C31.2258 1.42877 31.4227 1.49271 31.6184 1.55914L31.7173 1.26777Z" fill="#006D75"/>
<path d="M16.881 1.07348C16.6804 1.1357 16.481 1.20048 16.2827 1.26778L16.3815 1.55915C16.5773 1.49271 16.7742 1.42877 16.9722 1.36736L16.881 1.07348Z" fill="#006D75"/>
<path d="M32.8962 1.70286C32.7017 1.6252 32.506 1.55002 32.3091 1.47734L32.2026 1.76601C32.3969 1.83774 32.5901 1.91196 32.7821 1.98861L32.8962 1.70286Z" fill="#006D75"/>
<path d="M15.6909 1.47735C15.494 1.55003 15.2983 1.62521 15.1038 1.70286L15.2179 1.98862C15.4099 1.91196 15.603 1.83775 15.7974 1.76601L15.6909 1.47735Z" fill="#006D75"/>
<path d="M34.0505 2.19945C33.8604 2.11168 33.669 2.02633 33.4763 1.94343L33.3547 2.22608C33.5449 2.30791 33.7339 2.39216 33.9215 2.47879L34.0505 2.19945Z" fill="#006D75"/>
<path d="M14.5237 1.94344C14.331 2.02634 14.1396 2.11169 13.9495 2.19946L14.0785 2.4788C14.2661 2.39217 14.455 2.30792 14.6453 2.22608L14.5237 1.94344Z" fill="#006D75"/>
<path d="M35.177 2.75606C34.9919 2.65844 34.8053 2.56318 34.6173 2.4703L34.481 2.74616C34.6666 2.83784 34.8508 2.93188 35.0335 3.02824L35.177 2.75606Z" fill="#006D75"/>
<path d="M13.3827 2.47031C13.1947 2.56318 13.0081 2.65845 12.823 2.75606L12.9665 3.02825C13.1492 2.93189 13.3334 2.83785 13.519 2.74617L13.3827 2.47031Z" fill="#006D75"/>
<path d="M36.2728 3.37102C36.093 3.26384 35.9118 3.15895 35.729 3.05637L35.5784 3.3247C35.7588 3.42595 35.9378 3.5295 36.1152 3.63531L36.2728 3.37102Z" fill="#006D75"/>
<path d="M12.271 3.05638C12.0882 3.15895 11.907 3.26385 11.7272 3.37103L11.8848 3.63531C12.0622 3.52951 12.2412 3.42596 12.4216 3.3247L12.271 3.05638Z" fill="#006D75"/>
<path d="M37.3349 4.04252C37.161 3.92608 36.9854 3.81186 36.8083 3.69989L36.6439 3.95996C36.8187 4.0705 36.992 4.18326 37.1637 4.2982L37.3349 4.04252Z" fill="#006D75"/>
<path d="M11.1916 3.6999C11.0146 3.81187 10.839 3.92609 10.6651 4.04252L10.8363 4.29821C11.008 4.18326 11.1813 4.0705 11.3561 3.95997L11.1916 3.6999Z" fill="#006D75"/>
<path d="M38.3604 4.76859C38.1928 4.64323 38.0235 4.52001 37.8525 4.39896L37.6747 4.65009C37.8435 4.76958 38.0107 4.89123 38.1761 5.01499L38.3604 4.76859Z" fill="#006D75"/>
<path d="M10.1475 4.39897C9.97649 4.52001 9.80719 4.64323 9.63957 4.7686L9.82386 5.015C9.98933 4.89123 10.1565 4.76959 10.3253 4.65009L10.1475 4.39897Z" fill="#006D75"/>
<path d="M39.3468 5.54722C39.1859 5.41326 39.0232 5.28136 38.8588 5.15157L38.6681 5.39308C38.8305 5.52121 38.9911 5.65143 39.1499 5.78369L39.3468 5.54722Z" fill="#006D75"/>
<path d="M9.1412 5.15157C8.97678 5.28136 8.8141 5.41326 8.6532 5.54723L8.85007 5.78369C9.00892 5.65143 9.16953 5.52122 9.33185 5.39308L9.1412 5.15157Z" fill="#006D75"/>
<path d="M40.2912 6.37613C40.1375 6.23394 39.9819 6.09374 39.8245 5.95557L39.6215 6.18682C39.7769 6.32324 39.9305 6.46165 40.0823 6.60203L40.2912 6.37613Z" fill="#006D75"/>
<path d="M8.17554 5.95557C8.01811 6.09374 7.8625 6.23394 7.70875 6.37613L7.91767 6.60203C8.06945 6.46165 8.22308 6.32324 8.3785 6.18683L8.17554 5.95557Z" fill="#006D75"/>
<path d="M41.1913 7.25303C41.0451 7.10301 40.897 6.9549 40.747 6.80874L40.5323 7.02912C40.6804 7.17342 40.8266 7.31964 40.9709 7.46775L41.1913 7.25303Z" fill="#006D75"/>
<path d="M7.25303 6.80874C7.10301 6.9549 6.9549 7.10301 6.80874 7.25303L7.02912 7.46775C7.17342 7.31965 7.31964 7.17342 7.46775 7.02912L7.25303 6.80874Z" fill="#006D75"/>
<path d="M42.0444 8.17554C41.9063 8.01811 41.7661 7.8625 41.6239 7.70875L41.398 7.91767C41.5383 8.06945 41.6768 8.22308 41.8132 8.3785L42.0444 8.17554Z" fill="#006D75"/>
<path d="M6.37613 7.70875C6.23394 7.8625 6.09374 8.01811 5.95557 8.17554L6.18682 8.37851C6.32324 8.22308 6.46165 8.06946 6.60203 7.91767L6.37613 7.70875Z" fill="#006D75"/>
<path d="M42.8484 9.1412C42.7186 8.97678 42.5867 8.8141 42.4528 8.6532L42.2163 8.85007C42.3486 9.00892 42.4788 9.16953 42.6069 9.33185L42.8484 9.1412Z" fill="#006D75"/>
<path d="M5.54722 8.6532C5.41326 8.8141 5.28136 8.97679 5.15157 9.14121L5.39308 9.33186C5.52121 9.16953 5.65143 9.00893 5.78369 8.85008L5.54722 8.6532Z" fill="#006D75"/>
<path d="M43.601 10.1475C43.48 9.97649 43.3568 9.80719 43.2314 9.63957L42.985 9.82386C43.1088 9.98933 43.2304 10.1565 43.3499 10.3253L43.601 10.1475Z" fill="#006D75"/>
<path d="M4.76859 9.63958C4.64323 9.80719 4.52001 9.9765 4.39896 10.1475L4.65009 10.3253C4.76958 10.1565 4.89123 9.98934 5.01499 9.82386L4.76859 9.63958Z" fill="#006D75"/>
<path d="M44.3001 11.1916C44.1881 11.0146 44.0739 10.839 43.9575 10.6651L43.7018 10.8363C43.8167 11.008 43.9295 11.1813 44.04 11.3561L44.3001 11.1916Z" fill="#006D75"/>
<path d="M4.04252 10.6651C3.92608 10.839 3.81186 11.0146 3.69989 11.1917L3.95996 11.3561C4.0705 11.1813 4.18326 11.008 4.2982 10.8363L4.04252 10.6651Z" fill="#006D75"/>
<path d="M44.9436 12.271C44.8411 12.0882 44.7362 11.907 44.629 11.7272L44.3647 11.8848C44.4705 12.0622 44.574 12.2412 44.6753 12.4216L44.9436 12.271Z" fill="#006D75"/>
<path d="M3.37102 11.7272C3.26384 11.907 3.15895 12.0883 3.05637 12.271L3.3247 12.4216C3.42595 12.2412 3.5295 12.0622 3.63531 11.8848L3.37102 11.7272Z" fill="#006D75"/>
<path d="M45.5297 13.3827C45.4368 13.1947 45.3416 13.0081 45.2439 12.823L44.9718 12.9665C45.0681 13.1492 45.1622 13.3334 45.2538 13.519L45.5297 13.3827Z" fill="#006D75"/>
<path d="M2.75606 12.823C2.65844 13.0081 2.56318 13.1947 2.4703 13.3827L2.74616 13.519C2.83784 13.3334 2.93188 13.1492 3.02824 12.9665L2.75606 12.823Z" fill="#006D75"/>
<path d="M46.0566 14.5237C45.9737 14.331 45.8883 14.1396 45.8005 13.9495L45.5212 14.0785C45.6078 14.2661 45.6921 14.455 45.7739 14.6453L46.0566 14.5237Z" fill="#006D75"/>
<path d="M2.19945 13.9495C2.11168 14.1396 2.02633 14.331 1.94343 14.5237L2.22608 14.6453C2.30791 14.4551 2.39216 14.2661 2.47879 14.0785L2.19945 13.9495Z" fill="#006D75"/>
<path d="M46.5227 15.6909C46.45 15.494 46.3748 15.2983 46.2971 15.1038L46.0114 15.2179C46.088 15.4099 46.1623 15.603 46.234 15.7974L46.5227 15.6909Z" fill="#006D75"/>
<path d="M1.70286 15.1038C1.6252 15.2983 1.55002 15.494 1.47734 15.6909L1.76601 15.7974C1.83774 15.6031 1.91196 15.4099 1.98861 15.2179L1.70286 15.1038Z" fill="#006D75"/>
<path d="M46.9265 16.881C46.8643 16.6804 46.7995 16.481 46.7322 16.2827L46.4409 16.3815C46.5073 16.5773 46.5712 16.7742 46.6326 16.9722L46.9265 16.881Z" fill="#006D75"/>
<path d="M1.26777 16.2827C1.20047 16.481 1.13569 16.6805 1.07347 16.8811L1.36735 16.9722C1.42877 16.7742 1.49271 16.5773 1.55914 16.3816L1.26777 16.2827Z" fill="#006D75"/>
<path d="M47.267 18.0905C47.2154 17.8869 47.1613 17.6843 47.1045 17.4828L46.8083 17.5662C46.8643 17.7651 46.9178 17.9651 46.9687 18.1661L47.267 18.0905Z" fill="#006D75"/>
<path d="M0.895464 17.4829C0.83874 17.6844 0.784581 17.8869 0.733024 18.0906L1.0313 18.1661C1.08219 17.9651 1.13565 17.7651 1.19164 17.5662L0.895464 17.4829Z" fill="#006D75"/>
<path d="M47.5432 19.3163C47.5024 19.1102 47.459 18.9051 47.413 18.701L47.1129 18.7687C47.1583 18.9701 47.2011 19.1726 47.2413 19.376L47.5432 19.3163Z" fill="#006D75"/>
<path d="M0.586972 18.701C0.540971 18.9052 0.497571 19.1103 0.456809 19.3163L0.758651 19.376C0.798888 19.1726 0.841728 18.9702 0.887136 18.7687L0.586972 18.701Z" fill="#006D75"/>
<path d="M47.7546 20.5548C47.7247 20.3469 47.6921 20.1399 47.6569 19.9337L47.3536 19.9855C47.3884 20.189 47.4205 20.3934 47.45 20.5986L47.7546 20.5548Z" fill="#006D75"/>
<path d="M0.343066 19.9338C0.307884 20.1399 0.275331 20.347 0.245444 20.5549L0.550005 20.5986C0.579509 20.3934 0.611643 20.189 0.646372 19.9855L0.343066 19.9338Z" fill="#006D75"/>
<path d="M47.9008 21.8027C47.8818 21.5935 47.8601 21.3852 47.8358 21.1776L47.5302 21.2134C47.5542 21.4183 47.5756 21.624 47.5943 21.8305L47.9008 21.8027Z" fill="#006D75"/>
<path d="M0.164222 21.1776C0.139902 21.3852 0.118231 21.5936 0.0992451 21.8027L0.405678 21.8306C0.424422 21.6241 0.445815 21.4183 0.469824 21.2134L0.164222 21.1776Z" fill="#006D75"/>
<path d="M47.9818 23.0565C47.9737 22.8466 47.9629 22.6374 47.9494 22.429L47.6423 22.4488C47.6556 22.6546 47.6663 22.8612 47.6743 23.0684L47.9818 23.0565Z" fill="#006D75"/>
<path d="M0.0506013 22.429C0.0371304 22.6375 0.0263213 22.8466 0.0182074 23.0565L0.32567 23.0684C0.333681 22.8612 0.344353 22.6547 0.357653 22.4488L0.0506013 22.429Z" fill="#006D75"/>
<path d="M48 24C48 23.8947 47.9993 23.7895 47.998 23.6845L47.6903 23.6885C47.6916 23.7922 47.6923 23.896 47.6923 24C47.6923 24.104 47.6916 24.2078 47.6903 24.3115L47.998 24.3155C47.9993 24.2105 48 24.1053 48 24Z" fill="#006D75"/>
<path d="M0.002031 23.6845C0.000678365 23.7895 0 23.8947 0 24C0 24.1053 0.000678503 24.2105 0.00203139 24.3155L0.309698 24.3115C0.308362 24.2078 0.307692 24.104 0.307692 24C0.307692 23.896 0.308362 23.7922 0.309698 23.6885L0.002031 23.6845Z" fill="#006D75"/>
<path d="M47.9494 25.571C47.9629 25.3625 47.9737 25.1534 47.9818 24.9435L47.6743 24.9316C47.6663 25.1388 47.6557 25.3453 47.6423 25.5512L47.9494 25.571Z" fill="#006D75"/>
<path d="M0.0182086 24.9435C0.0263227 25.1534 0.0371321 25.3626 0.0506032 25.571L0.357655 25.5512C0.344355 25.3454 0.333683 25.1388 0.325671 24.9316L0.0182086 24.9435Z" fill="#006D75"/>
<path d="M47.8358 26.8224C47.8601 26.6148 47.8818 26.4064 47.9008 26.1973L47.5943 26.1694C47.5756 26.3759 47.5542 26.5817 47.5302 26.7866L47.8358 26.8224Z" fill="#006D75"/>
<path d="M0.0992477 26.1973C0.118234 26.4065 0.139905 26.6149 0.164225 26.8224L0.469828 26.7866C0.445819 26.5817 0.424425 26.376 0.40568 26.1695L0.0992477 26.1973Z" fill="#006D75"/>
<path d="M47.6569 28.0662C47.6921 27.8601 47.7247 27.653 47.7546 27.4451L47.45 27.4014C47.4205 27.6066 47.3884 27.811 47.3536 28.0145L47.6569 28.0662Z" fill="#006D75"/>
<path d="M0.245448 27.4452C0.275335 27.6531 0.307888 27.8601 0.34307 28.0663L0.646377 28.0145C0.611648 27.811 0.579513 27.6066 0.550009 27.4014L0.245448 27.4452Z" fill="#006D75"/>
<path d="M47.413 29.299C47.459 29.0948 47.5024 28.8897 47.5432 28.6837L47.2414 28.624C47.2011 28.8274 47.1583 29.0298 47.1129 29.2313L47.413 29.299Z" fill="#006D75"/>
<path d="M0.456814 28.6837C0.497576 28.8898 0.540976 29.0949 0.586977 29.299L0.887141 29.2313C0.841734 29.0299 0.798893 28.8274 0.758656 28.624L0.456814 28.6837Z" fill="#006D75"/>
<path d="M0.73303 29.9095C0.784586 30.1131 0.838746 30.3157 0.89547 30.5172L1.19165 30.4338C1.13566 30.2349 1.0822 30.0349 1.03131 29.8339L0.73303 29.9095Z" fill="#006D75"/>
<path d="M1.07348 31.119C1.1357 31.3196 1.20048 31.519 1.26778 31.7173L1.55915 31.6185C1.49271 31.4227 1.42877 31.2258 1.36736 31.0278L1.07348 31.119Z" fill="#006D75"/>
<path d="M1.47735 32.3091C1.55003 32.506 1.62521 32.7018 1.70286 32.8962L1.98862 32.7821C1.91196 32.5902 1.83775 32.397 1.76601 32.2026L1.47735 32.3091Z" fill="#006D75"/>
<path d="M1.94344 33.4763C2.02634 33.669 2.11169 33.8604 2.19946 34.0505L2.4788 33.9215C2.39217 33.7339 2.30792 33.545 2.22608 33.3547L1.94344 33.4763Z" fill="#006D75"/>
<path d="M2.47031 34.6173C2.56318 34.8053 2.65845 34.9919 2.75606 35.177L3.02825 35.0335C2.93189 34.8508 2.83785 34.6666 2.74617 34.481L2.47031 34.6173Z" fill="#006D75"/>
<path d="M3.05638 35.729C3.15895 35.9118 3.26385 36.0931 3.37103 36.2728L3.63531 36.1153C3.52951 35.9378 3.42596 35.7588 3.3247 35.5784L3.05638 35.729Z" fill="#006D75"/>
<path fill-rule="evenodd" clip-rule="evenodd" d="M43.7966 37.021C43.4457 37.0979 43.0814 37.1385 42.7078 37.1385C40.677 37.1385 38.9231 35.9077 38.1231 34.1846C37.6308 34.3385 37.077 34.4 36.5231 34.4C32.8616 34.4 29.9078 31.4462 29.9078 27.7846C29.9078 24.1231 32.8616 21.1692 36.5231 21.1692C39.9385 21.1692 42.7385 23.7231 43.1078 27.0154C45.7231 27.2308 47.7847 29.4154 47.7847 32.0616C47.7847 34.3276 46.2934 36.251 44.2405 36.9022C44.1477 37.0475 44.0533 37.1917 43.9575 37.3349L43.7018 37.1637C43.7336 37.1163 43.7652 37.0687 43.7966 37.021ZM39.5693 31.4769H37.9078V28.4H35.1693V31.4769H33.5078V24.0923H35.1693V26.9231H37.9078V24.0923H39.5693V31.4769ZM44.7385 34.9539H40.7385V34.1539L41.477 33.5077C42.7078 32.4 43.3231 31.7846 43.3231 31.1077C43.3231 30.6462 43.0462 30.2769 42.4001 30.2769C41.9078 30.2769 41.477 30.5231 41.2001 30.7385L40.8308 29.7846C41.2616 29.4769 41.9078 29.2 42.677 29.2C43.9693 29.2 44.6462 29.9385 44.6462 30.9846C44.6462 31.9385 43.9693 32.6769 43.1385 33.4154L42.6154 33.8462V33.8769H44.7385V34.9539Z" fill="#006D75"/>
<path d="M3.6999 36.8084C3.81187 36.9855 3.92609 37.161 4.04252 37.3349L4.29821 37.1637C4.18326 36.992 4.0705 36.8187 3.95997 36.6439L3.6999 36.8084Z" fill="#006D75"/>
<path d="M43.2314 38.3604C43.3568 38.1928 43.48 38.0235 43.601 37.8525L43.3499 37.6747C43.2304 37.8435 43.1088 38.0107 42.985 38.1761L43.2314 38.3604Z" fill="#006D75"/>
<path d="M4.39897 37.8525C4.52001 38.0235 4.64323 38.1928 4.7686 38.3604L5.015 38.1761C4.89123 38.0107 4.76959 37.8435 4.65009 37.6748L4.39897 37.8525Z" fill="#006D75"/>
<path d="M42.4528 39.3468C42.5867 39.1859 42.7186 39.0232 42.8484 38.8588L42.6069 38.6681C42.4788 38.8305 42.3486 38.9911 42.2163 39.1499L42.4528 39.3468Z" fill="#006D75"/>
<path d="M5.15157 38.8588C5.28136 39.0232 5.41326 39.1859 5.54723 39.3468L5.78369 39.1499C5.65143 38.9911 5.52122 38.8305 5.39308 38.6682L5.15157 38.8588Z" fill="#006D75"/>
<path d="M41.6239 40.2912C41.7661 40.1375 41.9063 39.9819 42.0444 39.8245L41.8132 39.6215C41.6768 39.7769 41.5384 39.9305 41.398 40.0823L41.6239 40.2912Z" fill="#006D75"/>
<path d="M5.95557 39.8245C6.09374 39.9819 6.23394 40.1375 6.37613 40.2913L6.60203 40.0823C6.46165 39.9305 6.32324 39.7769 6.18683 39.6215L5.95557 39.8245Z" fill="#006D75"/>
<path d="M40.747 41.1913C40.897 41.0451 41.0451 40.897 41.1913 40.747L40.9709 40.5323C40.8266 40.6804 40.6804 40.8266 40.5323 40.9709L40.747 41.1913Z" fill="#006D75"/>
<path d="M6.80874 40.747C6.9549 40.897 7.10301 41.0451 7.25303 41.1913L7.46775 40.9709C7.31965 40.8266 7.17342 40.6804 7.02912 40.5323L6.80874 40.747Z" fill="#006D75"/>
<path d="M7.70875 41.6239C7.8625 41.7661 8.01811 41.9063 8.17554 42.0444L8.37851 41.8132C8.22308 41.6768 8.06946 41.5384 7.91767 41.398L7.70875 41.6239Z" fill="#006D75"/>
<path d="M39.8245 42.0444C39.9819 41.9063 40.1375 41.7661 40.2913 41.6239L40.0823 41.398C39.9305 41.5383 39.7769 41.6768 39.6215 41.8132L39.8245 42.0444Z" fill="#006D75"/>
<path d="M8.6532 42.4528C8.8141 42.5867 8.97679 42.7186 9.14121 42.8484L9.33186 42.6069C9.16953 42.4788 9.00893 42.3486 8.85008 42.2163L8.6532 42.4528Z" fill="#006D75"/>
<path d="M38.8588 42.8484C39.0232 42.7186 39.1859 42.5867 39.3468 42.4528L39.1499 42.2163C38.9911 42.3486 38.8305 42.4788 38.6682 42.6069L38.8588 42.8484Z" fill="#006D75"/>
<path d="M37.8525 43.601C38.0235 43.48 38.1928 43.3568 38.3604 43.2314L38.1761 42.985C38.0107 43.1088 37.8435 43.2304 37.6748 43.3499L37.8525 43.601Z" fill="#006D75"/>
<path d="M9.63958 43.2314C9.80719 43.3568 9.9765 43.48 10.1475 43.601L10.3253 43.3499C10.1565 43.2304 9.98934 43.1088 9.82386 42.985L9.63958 43.2314Z" fill="#006D75"/>
<path d="M36.8084 44.3001C36.9855 44.1881 37.161 44.0739 37.3349 43.9575L37.1637 43.7018C36.992 43.8167 36.8187 43.9295 36.6439 44.04L36.8084 44.3001Z" fill="#006D75"/>
<path d="M10.6651 43.9575C10.839 44.0739 11.0146 44.1881 11.1917 44.3001L11.3561 44.04C11.1813 43.9295 11.008 43.8167 10.8363 43.7018L10.6651 43.9575Z" fill="#006D75"/>
<path d="M35.729 44.9436C35.9118 44.8411 36.0931 44.7362 36.2728 44.629L36.1153 44.3647C35.9378 44.4705 35.7588 44.574 35.5784 44.6753L35.729 44.9436Z" fill="#006D75"/>
<path d="M11.7272 44.629C11.907 44.7362 12.0883 44.8411 12.271 44.9436L12.4216 44.6753C12.2412 44.5741 12.0622 44.4705 11.8848 44.3647L11.7272 44.629Z" fill="#006D75"/>
<path d="M34.6173 45.5297C34.8053 45.4368 34.9919 45.3416 35.177 45.2439L35.0335 44.9718C34.8508 45.0681 34.6666 45.1622 34.481 45.2538L34.6173 45.5297Z" fill="#006D75"/>
<path d="M12.823 45.2439C13.0081 45.3416 13.1947 45.4368 13.3827 45.5297L13.519 45.2538C13.3334 45.1622 13.1492 45.0681 12.9665 44.9718L12.823 45.2439Z" fill="#006D75"/>
<path d="M33.4763 46.0566C33.669 45.9737 33.8604 45.8883 34.0505 45.8005L33.9215 45.5212C33.7339 45.6078 33.545 45.6921 33.3547 45.7739L33.4763 46.0566Z" fill="#006D75"/>
<path d="M13.9495 45.8006C14.1396 45.8883 14.331 45.9737 14.5237 46.0566L14.6453 45.7739C14.4551 45.6921 14.2661 45.6078 14.0785 45.5212L13.9495 45.8006Z" fill="#006D75"/>
<path d="M32.3091 46.5227C32.506 46.45 32.7018 46.3748 32.8962 46.2971L32.7821 46.0114C32.5902 46.088 32.397 46.1623 32.2026 46.234L32.3091 46.5227Z" fill="#006D75"/>
<path d="M15.1038 46.2971C15.2983 46.3748 15.494 46.45 15.6909 46.5227L15.7974 46.234C15.6031 46.1623 15.4099 46.088 15.2179 46.0114L15.1038 46.2971Z" fill="#006D75"/>
<path d="M31.119 46.9265C31.3196 46.8643 31.519 46.7995 31.7173 46.7322L31.6185 46.4409C31.4227 46.5073 31.2258 46.5712 31.0278 46.6326L31.119 46.9265Z" fill="#006D75"/>
<path d="M16.2827 46.7322C16.481 46.7995 16.6805 46.8643 16.8811 46.9265L16.9722 46.6327C16.7742 46.5712 16.5773 46.5073 16.3816 46.4409L16.2827 46.7322Z" fill="#006D75"/>
<path d="M29.9095 47.267C30.1131 47.2154 30.3157 47.1613 30.5172 47.1045L30.4338 46.8083C30.2349 46.8643 30.0349 46.9178 29.8339 46.9687L29.9095 47.267Z" fill="#006D75"/>
<path d="M17.4829 47.1045C17.6844 47.1613 17.8869 47.2154 18.0906 47.267L18.1661 46.9687C17.9651 46.9178 17.7651 46.8643 17.5662 46.8084L17.4829 47.1045Z" fill="#006D75"/>
<path d="M28.6837 47.5432C28.8898 47.5024 29.0949 47.459 29.299 47.413L29.2313 47.1129C29.0299 47.1583 28.8274 47.2011 28.624 47.2413L28.6837 47.5432Z" fill="#006D75"/>
<path d="M18.701 47.413C18.9052 47.459 19.1103 47.5024 19.3163 47.5432L19.376 47.2414C19.1726 47.2011 18.9702 47.1583 18.7687 47.1129L18.701 47.413Z" fill="#006D75"/>
<path d="M27.4452 47.7546C27.6531 47.7247 27.8601 47.6921 28.0663 47.6569L28.0145 47.3536C27.811 47.3884 27.6066 47.4205 27.4014 47.45L27.4452 47.7546Z" fill="#006D75"/>
<path d="M19.9338 47.6569C20.1399 47.6921 20.347 47.7247 20.5549 47.7546L20.5986 47.45C20.3934 47.4205 20.189 47.3884 19.9855 47.3536L19.9338 47.6569Z" fill="#006D75"/>
<path d="M26.1973 47.9008C26.4065 47.8818 26.6149 47.8601 26.8224 47.8358L26.7866 47.5302C26.5817 47.5542 26.376 47.5756 26.1695 47.5943L26.1973 47.9008Z" fill="#006D75"/>
<path d="M21.1776 47.8358C21.3852 47.8601 21.5936 47.8818 21.8027 47.9008L21.8306 47.5943C21.6241 47.5756 21.4183 47.5542 21.2134 47.5302L21.1776 47.8358Z" fill="#006D75"/>
<path d="M22.429 47.9494C22.6375 47.9629 22.8466 47.9737 23.0565 47.9818L23.0684 47.6743C22.8612 47.6663 22.6547 47.6557 22.4488 47.6423L22.429 47.9494Z" fill="#006D75"/>
<path d="M24.9435 47.9818C25.1534 47.9737 25.3626 47.9629 25.571 47.9494L25.5512 47.6423C25.3454 47.6556 25.1388 47.6663 24.9316 47.6743L24.9435 47.9818Z" fill="#006D75"/>
<path d="M23.6845 47.998C23.7895 47.9993 23.8947 48 24 48C24.1053 48 24.2105 47.9993 24.3155 47.998L24.3115 47.6903C24.2078 47.6916 24.104 47.6923 24 47.6923C23.896 47.6923 23.7922 47.6916 23.6885 47.6903L23.6845 47.998Z" fill="#006D75"/>
<path fill-rule="evenodd" clip-rule="evenodd" d="M30.5539 12.3692L31.8154 16.6462C31.9693 17.1077 31.6924 17.6 31.2616 17.7231L19.4155 21.2615C18.9847 21.4154 18.5231 21.3538 18.1539 21.1692L17.077 21.6L16.9231 21.9385L20.4001 23.2615C21.2308 23.5692 21.6308 24.5231 21.2924 25.3231L21.077 25.8462C21.077 25.8769 21.077 25.9077 21.0462 25.9385L20.8616 26.3385L18.5539 31.4154C18.1539 32.2769 17.3231 32.7692 16.4001 32.6769C16.2155 32.6769 15.9078 32.5846 15.7231 32.4923C15.1693 32.2462 14.6155 31.9923 14.0617 31.7385C13.5079 31.4847 12.9539 31.2308 12.4001 30.9846L12.2155 31.3231C11.7847 32.1846 10.7385 32.5231 9.87699 32.0923L8.55391 31.4154C7.69238 30.9846 7.35391 29.9385 7.78468 29.0769L13.1385 18.3385C13.2001 18.1846 13.3231 18.0615 13.477 17.9692C13.6616 17.6923 13.9385 17.4769 14.2462 17.3538L16.4616 16.4615C16.6462 15.9385 17.0462 15.5077 17.6308 15.3231L29.477 11.7846C29.9385 11.6308 30.4308 11.9077 30.5539 12.3692ZM19.9693 25.1692C20.1847 24.7385 20.0001 24.2462 19.5693 24.0923L17.6924 23.3538L16.1539 26.6154C16.0924 26.7692 16.0616 26.8923 16.0924 27.0462L16.3693 28.3692C16.4001 28.4923 16.3693 28.6154 16.3078 28.7077L15.9078 29.3538C15.8462 29.4769 15.6308 29.4462 15.6001 29.2923L15.2308 27.2923C15.1693 26.9846 15.2308 26.6462 15.3539 26.3692L16.9231 23.0462L16.4001 22.8308L12.8616 29.9385L16.1539 31.3538C16.5231 31.5385 16.9847 31.3538 17.1693 30.9846L19.9693 25.1692Z" fill="#006D75"/>
<path d="M10.6463 20.8308L10.4001 20.7077C9.87707 20.4615 9.66168 19.8154 9.93861 19.3231L11.0771 17.0154C11.3232 16.4923 11.9694 16.2769 12.4617 16.5538L12.7078 16.6769C13.2309 16.9231 13.4463 17.5692 13.1694 18.0615L12.0309 20.3692C11.7848 20.8615 11.1386 21.0769 10.6463 20.8308Z" fill="#006D75"/>
<path d="M36.277 18.3692C36.277 19.1339 35.6571 19.7538 34.8924 19.7538C34.1277 19.7538 33.5078 19.1339 33.5078 18.3692C33.5078 17.6045 34.1277 16.9846 34.8924 16.9846C35.6571 16.9846 36.277 17.6045 36.277 18.3692Z" fill="#006D75"/>
<path d="M32.4924 21.2923C33.0701 21.2923 33.5385 20.8239 33.5385 20.2461C33.5385 19.6684 33.0701 19.2 32.4924 19.2C31.9146 19.2 31.4462 19.6684 31.4462 20.2461C31.4462 20.8239 31.9146 21.2923 32.4924 21.2923Z" fill="#006D75"/>
<path d="M6.27704 34.9538C7.20012 35.3846 8.15397 35.8154 9.07704 36.2154C9.20012 36.2769 9.23089 36.3385 9.16935 36.4923C9.01551 36.9231 9.0155 36.9231 8.6155 36.7385C8.18485 36.5385 7.7542 36.3463 7.32355 36.154L7.32285 36.1537C6.89219 35.9614 6.46154 35.7692 6.03089 35.5692C6.00798 35.5578 5.98507 35.5421 5.96057 35.5252C5.91926 35.4969 5.87345 35.4655 5.81551 35.4462C5.87704 35.2923 5.93858 35.1385 6.03089 34.9846C6.06166 34.9538 6.1232 34.9231 6.15397 34.9231C6.2155 34.9231 6.24627 34.9231 6.27704 34.9538Z" fill="#006D75"/>
<path d="M10.4307 33.2C9.50763 32.7692 8.55379 32.3385 7.63071 31.9385C7.47686 31.8769 7.44609 31.7846 7.5384 31.6616C7.57425 31.6078 7.59966 31.5436 7.62679 31.475C7.64623 31.4258 7.66656 31.3745 7.69225 31.3231C7.75379 31.3231 7.78456 31.3231 7.84609 31.3539L10.7076 32.6462C10.8307 32.7077 10.8615 32.7692 10.7999 32.8616C10.7384 32.9846 10.6769 33.1385 10.6153 33.2923C10.5538 33.2718 10.5196 33.2513 10.4854 33.2308C10.4683 33.2205 10.4512 33.2103 10.4307 33.2Z" fill="#006D75"/>
<path d="M8.86166 32.9231C9.38474 33.1615 9.90781 33.4 10.4309 33.6308C10.3976 33.714 10.3552 33.8064 10.3088 33.9077C10.2694 33.9935 10.2271 34.0858 10.1847 34.1846C9.66182 33.9539 9.1389 33.7155 8.61598 33.4771L8.6155 33.4769C8.09243 33.2384 7.56935 33 7.04627 32.7692C7.09242 32.6769 7.13087 32.5846 7.16933 32.4924C7.20778 32.4001 7.24629 32.3076 7.29243 32.2154C7.8155 32.4461 8.33858 32.6846 8.86166 32.9231Z" fill="#006D75"/>
<path d="M8.21543 34.3692C7.7539 34.1615 7.29238 33.9538 6.83086 33.7539C6.67701 33.6923 6.61547 33.6308 6.73855 33.4462L6.75582 33.4115C6.92355 33.0752 6.93505 33.0521 7.2924 33.2308C7.6924 33.4154 8.1002 33.6001 8.5079 33.7847C8.91555 33.9693 9.3232 34.1539 9.72317 34.3385C10.0616 34.4923 10.0616 34.4923 9.90778 34.8615C9.89633 34.8844 9.8806 34.9074 9.8638 34.9319C9.83546 34.9732 9.80402 35.019 9.78471 35.0769L9.60009 34.9846C9.13867 34.7847 8.67726 34.577 8.21585 34.3694L8.21543 34.3692Z" fill="#006D75"/>
<path d="M7.75379 35.2462C7.29994 35.0462 6.84609 34.8462 6.39994 34.6462C6.24609 34.5846 6.21532 34.5231 6.30763 34.3692C6.3384 34.3077 6.36148 34.2462 6.38456 34.1846C6.40763 34.1231 6.43071 34.0615 6.46148 34C6.98455 34.2308 7.50763 34.4692 8.03071 34.7077C8.55379 34.9462 9.07686 35.1846 9.59994 35.4154C9.56267 35.5272 9.51413 35.6277 9.46113 35.7374C9.42661 35.8089 9.3902 35.8843 9.35379 35.9692C9.26148 35.9077 9.19994 35.8769 9.10763 35.8462C8.66148 35.6462 8.20763 35.4462 7.75379 35.2462Z" fill="#006D75"/>
<path d="M8.30775 36.9538L6.24622 35.9692L6.03083 35.8462L5.44621 37.0462C6.24621 38.3077 7.2616 39.2 7.2616 39.2L8.30775 36.9538Z" fill="#006D75"/>
</svg>
