<svg width="60" height="60" viewBox="0 0 60 60" fill="none" xmlns="http://www.w3.org/2000/svg">
<path d="M42.5209 13.5312H44.531V11.5938H42.5209C42.0365 8.26368 39.1787 5.78125 35.8125 5.78125H22.25C18.5082 5.78125 15.4688 8.8207 15.4688 12.5625C15.4688 16.3043 18.5082 19.3438 22.25 19.3438H35.8125C39.1789 19.3438 42.0368 16.8613 42.5209 13.5312ZM40.656 12.5625C40.656 15.2387 38.4885 17.4062 35.8123 17.4062V7.71875C38.4885 7.71875 40.656 9.88632 40.656 12.5625ZM17.406 12.5625C17.406 9.88632 19.5736 7.71875 22.2498 7.71875V17.4062C19.5736 17.4062 17.406 15.2387 17.406 12.5625Z" fill="#08979C"/>
<path d="M44.5312 52.2793H46.4688V54.2168H44.5312V52.2793Z" fill="#08979C"/>
<path d="M11.5938 52.2793H13.5312V54.2168H11.5938V52.2793Z" fill="#08979C"/>
<path d="M57.1353 32.1797L54.665 27.6387C54.1564 26.7063 53.1755 26.125 52.1099 26.125H31.9356L33.3887 24.1875H45.4984C47.0968 24.1875 48.4046 22.8797 48.4046 21.2813V3.84375C48.4046 2.24529 47.0968 0.9375 45.4984 0.9375H14.4984C12.8999 0.9375 11.5921 2.24529 11.5921 3.84375V21.2813C11.5921 22.8797 12.8999 24.1875 14.4984 24.1875H26.608L28.0611 26.125H27.1772C26.2084 26.125 25.3002 26.6094 24.7553 27.4207L23.508 29.2976L7.39059 39.772C5.92537 40.7287 4.71441 42.0244 3.86677 43.5622H3.84255V43.6107C3.44294 44.3372 3.14019 45.1001 2.92226 45.8994L0.984763 52.9953C0.83945 53.516 1.15429 54.0488 1.66289 54.182C1.74765 54.2062 1.83242 54.2183 1.91719 54.2183H6.82149C7.35428 57.3789 10.3575 59.51 13.518 58.9773C15.952 58.5656 17.8653 56.6523 18.277 54.2183H39.7589C40.2917 57.3789 43.2949 59.51 46.4555 58.9773C48.8894 58.5656 50.8027 56.6523 51.2144 54.2183H53.5757C54.9562 54.2183 56.155 53.2375 56.4214 51.8812L58.5406 43.6228C59.5578 39.7721 59.0492 35.6791 57.1359 32.1797L57.1353 32.1797ZM27.0921 22.2499H14.4984C13.9656 22.2499 13.5296 21.814 13.5296 21.2811V3.84365C13.5296 3.31086 13.9656 2.8749 14.4984 2.8749H45.4984C46.0312 2.8749 46.4671 3.31083 46.4671 3.84365V21.2811C46.4671 21.8139 46.0312 22.2499 45.4984 22.2499H32.9046C32.6019 22.2499 32.3113 22.3952 32.1296 22.6374L29.9984 25.4831L27.8671 22.6374C27.6855 22.3952 27.3949 22.2499 27.0921 22.2499ZM6.15524 43.5624C6.78495 42.7026 7.55995 41.9761 8.44392 41.3948L8.58923 41.298L8.61345 41.3222C9.04939 41.9761 9.18261 42.7874 8.98884 43.5503H6.15523L6.15524 43.5624ZM12.5609 57.1249C10.4175 57.1249 8.68587 55.3932 8.68587 53.2499C8.68587 51.1066 10.4175 49.3749 12.5609 49.3749C14.7042 49.3749 16.4359 51.1066 16.4359 53.2499C16.4359 55.3932 14.7042 57.1249 12.5609 57.1249ZM32.9046 45.4999H29.0296V43.5624H32.9046V45.4999ZM32.9046 39.6874H18.4943L27.0678 33.5602C28.5452 32.5067 30.3131 31.9376 32.1296 31.9376H32.9046L32.9046 39.6874ZM34.8421 39.6874V31.9374H44.5296C47.2058 31.9374 49.3734 34.105 49.3734 36.7811V39.6874H34.8421ZM45.4984 57.1249C43.355 57.1249 41.6234 55.3932 41.6234 53.2499C41.6234 51.1066 43.355 49.3749 45.4984 49.3749C47.6417 49.3749 49.3734 51.1066 49.3734 53.2499C49.3734 55.3932 47.6417 57.1249 45.4984 57.1249ZM51.3109 45.4999H47.4359V43.5624H51.3109V45.4999ZM56.6873 43.1507L56.5783 43.5624H56.2756C55.6701 43.5624 55.1857 43.078 55.1857 42.4725C55.1857 42.1819 55.2947 41.9034 55.5006 41.7096L57.1111 40.0991C57.0869 41.1284 56.9416 42.1455 56.6873 43.1506L56.6873 43.1507Z" fill="#08979C"/>
</svg>
