<svg width="51" height="47" viewBox="0 0 51 47" fill="none" xmlns="http://www.w3.org/2000/svg">
<path d="M23.0928 7.56518C22.6918 6.65295 21.9932 5.90379 21.1111 5.44022L13.7737 1.58407C12.8909 1.12012 11.8761 0.971696 10.8974 1.1634L10.6876 1.2045C9.52342 1.43253 8.52472 2.17454 7.97037 3.22332C6.95436 5.14549 7.69335 7.52735 9.61893 8.53688L17.7882 12.8198C19.7051 13.8248 22.0738 13.0826 23.0746 11.1634C23.6233 10.111 23.6647 8.86634 23.1871 7.77976L23.0928 7.56518Z" fill="#08979C"/>
<path d="M15.7259 15.5605C16.3479 15.6907 16.9805 15.39 17.2722 14.8254C17.6291 14.1347 17.3615 13.2854 16.6731 12.924L11.1188 10.008C10.0034 9.42241 8.62451 9.8482 8.03349 10.9607C7.31844 12.3067 8.09396 13.9625 9.58574 14.2748L15.7259 15.5605Z" fill="#08979C"/>
<path d="M6.53061 15.9924C5.9226 15.8673 5.30501 16.1586 5.01494 16.7074C4.58013 17.53 5.05648 18.5398 5.96783 18.7273L13.2934 20.2347C13.9014 20.3598 14.519 20.0685 14.8091 19.5197C15.2439 18.6971 14.7676 17.6874 13.8562 17.4998L6.53061 15.9924Z" fill="#08979C"/>
<path d="M1.20719 25.2754C0.837641 25.198 0.461708 25.3758 0.287057 25.7105C0.193244 25.8903 0.167399 26.0979 0.214263 26.2952L0.455793 27.3122C0.699524 28.3384 1.37584 29.2088 2.31007 29.6985L4.71974 30.9615C5.63883 31.4432 6.72049 31.5072 7.68999 31.1373L8.17157 30.9535C8.67778 30.7603 9.09696 30.3905 9.35166 29.9123C10.0543 28.5931 9.29449 26.9687 7.83161 26.6624L1.20719 25.2754Z" fill="#08979C"/>
<path d="M10.8301 24.935C11.4395 25.0604 12.0585 24.7684 12.3493 24.2183C12.7842 23.3956 12.3098 22.3855 11.3989 22.1948L4.09087 20.6646C3.47151 20.5349 2.84149 20.8331 2.54906 21.3942C2.11568 22.2258 2.59827 23.2411 3.5168 23.4301L10.8301 24.935Z" fill="#08979C"/>
<path d="M50.2761 32.8956L43.0771 20.4076C42.8934 20.0771 42.5629 19.8934 42.1956 19.8934C42.2242 19.8934 42.2338 19.8551 42.2085 19.8417L39.4776 18.3875C39.3307 18.3141 39.147 18.2773 38.9634 18.2773H24.3818H24.3451C24.0145 18.2773 23.7207 18.461 23.5738 18.7181L16.3748 31.2428C16.2279 31.5366 16.2279 31.8672 16.3748 32.1243L23.7574 44.8694C23.829 44.9768 23.9006 45.0493 24.0062 45.1209C24.0117 45.1247 24.0169 45.1289 24.0216 45.1336C24.0406 45.1526 24.0687 45.1623 24.0876 45.1812C24.0907 45.1844 24.0938 45.1875 24.0973 45.1903C24.1125 45.2026 24.1339 45.2043 24.1516 45.2126L24.7491 45.4938L26.6779 46.415C27.0318 46.584 27.3688 46.8528 27.7609 46.8528H42.1589C42.5262 46.8528 42.8567 46.6692 43.0404 46.3386L49.7304 34.7334C50.0689 34.1461 50.6053 33.4882 50.2761 32.8956ZM39.0369 18.865C39.2205 18.865 39.3674 18.9017 39.5143 18.9752L41.057 19.7833C41.2039 19.8567 41.3141 19.8934 41.461 19.8934H27.7684C27.691 19.8934 27.6145 19.876 27.5448 19.8423C27.0527 19.6047 27.2219 18.865 27.7684 18.865H39.0369ZM27.3569 34.3281C27.0264 33.7404 27.0264 33.0426 27.3569 32.4916L30.3687 27.276C30.6993 26.6884 31.3237 26.3578 31.9481 26.3578C34.3796 26.3578 36.6261 27.6563 37.8397 29.7633L38.5226 30.949C38.8532 31.5366 38.8532 32.2345 38.5226 32.7854L35.8781 37.3766C35.5476 37.9643 34.9232 38.2949 34.262 38.2949C31.4191 38.2949 28.7894 36.7838 27.3569 34.3281ZM17.0933 31.5192C17.1012 31.5077 17.113 31.4938 17.1199 31.4817L24.1247 19.3425C24.2019 19.1881 24.4125 19.172 24.5682 19.2465L25.3407 19.6165C26.1904 20.0234 26.5136 21.0677 26.0423 21.8835L20.5543 31.383C20.0627 32.234 18.9952 32.5578 18.1136 32.1232L17.1615 31.6539C17.1071 31.6271 17.0592 31.5693 17.0933 31.5192ZM18.1431 34.207C17.8794 33.7514 18.3686 33.2314 18.8394 33.4668L19.5742 33.8342C19.5893 33.8417 19.607 33.8307 19.607 33.8139C19.607 33.8907 19.664 33.9591 19.7024 34.0255L25.2567 43.6329C25.6114 44.2464 24.9556 44.9477 24.3197 44.6348C24.1926 44.5722 24.0868 44.4734 24.0159 44.3508L18.1431 34.207ZM42.5629 34.3281L39.5511 39.5437C39.2205 40.1313 38.5961 40.4619 37.9717 40.4619H31.9481C31.287 40.4619 30.6993 40.0946 30.3687 39.5437C30.2063 39.2674 30.4054 38.9193 30.7259 38.9193H34.5926C35.2537 38.9193 35.8781 38.552 36.2087 38.001L39.2205 32.8222C39.5511 32.2345 39.5511 31.5367 39.2205 30.9857L37.2726 27.604C36.9628 27.0661 37.351 26.3945 37.9717 26.3945C38.6328 26.3945 39.2205 26.7618 39.5511 27.3128L42.5629 32.5283C42.8934 33.0793 42.8934 33.7771 42.5629 34.3281Z" fill="#08979C"/>
</svg>
