<svg width="62" height="49" viewBox="0 0 62 49" fill="none" xmlns="http://www.w3.org/2000/svg">
<path d="M6.80801 43.1867C5.04104 42.4072 3.32603 41.6276 1.55906 40.8481C1.50709 40.7961 1.40315 40.7441 1.35118 40.7441C1.24724 40.7441 1.1433 40.7961 1.1433 40.8481C0.98739 41.1079 0.883449 41.4197 0.727539 41.7316C0.883449 41.8355 0.98739 41.8875 1.1433 41.9394C2.75436 42.667 4.36543 43.3946 5.97649 44.1222C6.75604 44.486 6.75604 44.486 7.01589 43.6544C7.06786 43.4466 7.06786 43.2907 6.80801 43.1867Z" fill="#08979C"/>
<path d="M4.10635 35.1309C5.87332 35.9104 7.58833 36.6899 9.3553 37.4695C9.45924 37.5215 9.56318 37.5734 9.66712 37.6254C9.82303 37.3136 9.92697 37.0537 10.0309 36.8459C10.1348 36.638 10.0829 36.534 9.875 36.4301C8.05605 35.5986 6.28908 34.819 4.47014 33.9875C4.3662 33.9355 4.26226 33.9355 4.15832 33.9355C4.05438 34.1954 3.95044 34.4033 3.8465 34.6112C3.74256 34.871 3.79453 35.0269 4.10635 35.1309Z" fill="#08979C"/>
<path d="M9.35518 38.3028C7.38032 37.4193 5.40547 36.5358 3.43062 35.6523C3.27471 36.0161 3.1188 36.328 2.96289 36.6917C4.93774 37.5752 6.9126 38.4587 8.88745 39.3422C9.09533 38.9784 9.19927 38.6666 9.35518 38.3028Z" fill="#08979C"/>
<path d="M2.59851 38.5617C4.31352 39.3413 6.08049 40.1208 7.7955 40.9004C7.89943 40.9523 8.00338 41.0043 8.15929 41.0563C8.26323 40.9004 8.3152 40.7964 8.36717 40.6405C8.67899 39.9649 8.67898 39.9649 8.00338 39.6531C6.49625 38.9775 4.93716 38.3019 3.43003 37.5743C2.70246 37.2625 2.70246 37.2625 2.39064 37.9381C2.23473 38.3019 2.33866 38.4058 2.59851 38.5617Z" fill="#08979C"/>
<path d="M1.81938 40.2246C3.53438 40.9522 5.19742 41.7317 6.91242 42.5113C7.06833 42.5632 7.22424 42.6672 7.38015 42.7192C7.53606 42.3554 7.69197 41.9916 7.84788 41.6798C5.87303 40.7963 3.89817 39.9128 1.92332 39.0293C1.81938 39.2891 1.71544 39.497 1.6115 39.7049C1.45559 39.9648 1.50756 40.1207 1.81938 40.2246Z" fill="#08979C"/>
<path d="M53.1131 0.571667C53.1131 0.207879 52.8532 0 52.4894 0C50.8264 0.10394 49.1633 0.259849 47.4483 0.363789C45.5774 0.519699 43.7065 0.623638 41.8356 0.779547C40.7962 0.831517 39.7568 0.935457 38.8214 1.55909C36.2229 3.17016 33.5724 4.78122 30.9219 6.34032C30.7141 6.44426 30.5582 6.44426 30.4022 6.39229C29.6747 6.0285 28.8951 5.71668 28.1675 5.35289C27.5959 5.04107 26.7124 5.30092 26.4525 6.0285C26.4006 6.18441 26.2966 6.34032 26.2447 6.49623C26.1407 6.80805 25.9848 6.80805 25.725 6.70411C24.6336 6.18441 23.5422 5.71668 22.4509 5.24895C21.4115 4.78122 20.3201 4.83319 19.3327 5.40486C17.6177 6.39229 16.0066 7.43168 14.2916 8.41911C13.2522 9.04275 12.4727 9.8223 12.0569 10.9656C12.0049 11.0176 12.0049 11.1215 11.953 11.1735L9.9781 15.5909C9.92613 15.6949 9.87416 15.7469 9.87416 15.8508C9.66628 16.3705 9.82219 16.8382 10.3419 17.0981C10.6537 17.254 10.9136 17.3579 11.2254 17.5138C11.6411 17.7217 11.6411 17.7217 11.4333 18.0855C9.19855 23.0226 6.96386 27.9598 4.72915 32.8969C4.67718 33.0008 4.62521 33.1567 4.57324 33.3127C6.5481 34.1961 8.52295 35.0796 10.4978 36.0151C10.5498 35.9111 10.6017 35.7552 10.6537 35.6513C11.0175 34.8717 11.3813 34.0922 11.6931 33.3127C11.901 32.8969 11.901 32.8969 12.3167 33.1048C14.6034 34.1442 16.9421 35.1836 19.2287 36.223C19.5925 36.3789 19.9563 36.5348 20.3201 36.5868C22.191 36.8986 23.8021 35.9631 24.5816 34.2481C26.0368 31.078 27.44 27.9078 28.8951 24.6857L29.2589 23.9581C29.3109 23.8541 29.3628 23.7502 29.4148 23.6463L29.8306 22.7628C29.8306 22.7108 29.8825 22.6588 29.8825 22.6069C30.6101 20.9958 31.3377 19.3847 32.0653 17.7737C32.3251 17.202 32.3251 16.6303 32.1172 16.0587C31.9094 15.487 31.7015 14.9673 31.4936 14.4476C31.2857 13.8759 31.0779 13.3043 30.87 12.7846C31.2857 12.6287 31.6495 12.4728 32.0133 12.3688C32.9488 12.109 33.3126 11.2255 32.8968 10.394C32.6369 9.87427 32.481 9.35457 32.3251 8.83487C32.4291 8.73093 32.533 8.67896 32.585 8.62699C34.9236 7.2238 37.3142 5.76865 39.6529 4.36547C40.1206 4.10562 40.5364 3.74183 41.16 3.68986C43.0309 3.58592 44.8499 3.43001 46.7208 3.2741C48.6956 3.11819 50.6705 3.01425 52.6453 2.85834C53.1131 2.80637 53.269 2.59849 53.217 2.18273C53.165 1.5591 53.1131 1.09137 53.1131 0.571667ZM15.7468 32.2733C15.383 32.1173 15.0192 31.9614 14.6554 31.7536C14.7074 31.6496 14.7593 31.4937 14.8113 31.3898C16.2664 28.1157 17.7736 24.8416 19.2287 21.5675C19.4366 21.1517 19.4366 21.1517 19.8524 21.3596C20.9437 21.8273 22.0351 22.347 23.1265 22.8148C23.2304 22.8667 23.3343 22.9187 23.4383 22.9707C23.4383 23.0226 23.4383 23.0226 23.4383 23.0746C23.1265 23.1266 22.8666 23.2305 22.5548 23.2825C21.9312 23.4384 21.3075 23.5943 20.6839 23.6982C19.9043 23.9061 19.3327 24.3738 19.0209 25.1014C17.9815 27.3361 16.994 29.6228 15.9546 31.8575C15.8507 32.0134 15.7987 32.1693 15.7468 32.2733ZM26.5565 24.7896C25.8809 26.2448 25.2572 27.6999 24.5816 29.1551C23.958 30.5583 23.3343 31.9614 22.7107 33.3127C22.3989 33.9363 21.9831 34.404 21.2556 34.456C20.9437 34.508 20.5799 34.456 20.2681 34.3521C19.0209 33.8324 17.8255 33.2607 16.6302 32.741C16.4224 32.637 16.3704 32.5851 16.4743 32.3772C17.5137 30.0386 18.6051 27.6999 19.6445 25.3613C19.9043 24.8416 20.3721 24.5298 20.9437 24.4258C22.0871 24.166 23.1784 23.9061 24.3218 23.6463C24.4777 23.5943 24.6856 23.6463 24.8415 23.6982C25.3612 23.9061 25.8809 24.166 26.4006 24.3738C26.6604 24.4258 26.6604 24.5298 26.5565 24.7896Z" fill="#08979C"/>
<path d="M1.50713 42.7723L5.40486 44.6432L3.43001 48.8528C3.43001 48.8528 1.50712 47.1898 0 44.7992L1.09137 42.5645L1.50713 42.7723Z" fill="#08979C"/>
<path d="M54.777 7.63867C47.0335 14.6546 47.5532 21.6705 47.5532 21.6705C47.5532 25.6722 50.7753 28.8943 54.777 28.8943C58.7787 28.8943 62.0008 25.6722 62.0008 21.6705C61.9488 21.7225 62.5205 14.6546 54.777 7.63867ZM55.0368 27.4911C51.7627 27.4911 49.1642 24.8407 49.1642 21.6186C49.1642 21.4626 49.2682 21.3587 49.4241 21.3587C49.58 21.3587 49.6839 21.4626 49.6839 21.6186C49.6839 24.5808 52.0746 26.9714 55.0368 26.9714C55.1927 26.9714 55.2967 27.0754 55.2967 27.2313C55.2967 27.3352 55.1927 27.4911 55.0368 27.4911Z" fill="#08979C"/>
</svg>
