<svg width="56" height="32" viewBox="0 0 56 32" fill="none" xmlns="http://www.w3.org/2000/svg">
<path fill-rule="evenodd" clip-rule="evenodd" d="M51.3286 18.5623C52.1393 18.5554 52.4804 18.8446 52.61 19.2945C52.8429 20.0991 53.1121 21.6871 51.8461 22.2084C50.8087 22.6377 48.62 22.9428 47.4538 23.1398C46.3391 23.3305 46.0554 22.588 46.4459 21.4767C47.1706 19.4101 48.8108 18.9739 50.354 18.6778C50.7369 18.6028 51.0591 18.5664 51.3286 18.5622V18.5623ZM27.9845 18.5623C28.254 18.5663 28.5769 18.6028 28.9608 18.6779C30.4991 18.9742 32.1401 19.4101 32.8647 21.4768C33.2546 22.5881 32.9763 23.3306 31.8561 23.1399C30.6898 22.9435 28.5081 22.6377 27.4685 22.2085C26.2057 21.6864 26.4675 20.0984 26.7004 19.2946C26.8287 18.8449 27.173 18.5561 27.9845 18.5623V18.5623ZM39.6566 4.98892C42.2613 4.98892 43.2016 4.91102 45.5796 5.36996C46.2802 5.50559 46.6963 6.01621 46.9906 6.51066C48.0736 8.35128 48.8127 10.336 49.4734 12.4379C47.1553 12.6748 43.7069 13.1406 39.6568 13.1406C35.6027 13.1406 32.1543 12.675 29.8375 12.4379C30.5003 10.3361 31.2359 8.35133 32.3238 6.51066C32.6138 6.01539 33.0265 5.48704 33.7299 5.36996C36.4454 4.91667 37.1625 4.98629 39.6566 4.98892ZM39.6566 2.8926C36.8617 2.8926 35.6665 2.88291 32.9399 3.30936C31.6771 3.50573 30.8587 4.34269 30.2773 5.31547C29.0895 7.28366 28.2822 9.3586 27.5872 11.4602L25.3227 11.4574C24.425 11.4574 23.9731 11.9389 23.9731 12.7573C23.9731 13.8472 24.425 14.8619 25.6636 15.5844L25.333 16.2438C24.8997 17.1815 24.5801 18.1666 24.5801 19.0544V24.6545C24.5801 25.8683 25.3268 26.8893 26.1906 27.273V30.0085C26.1906 30.6719 26.6645 31.2031 27.2487 31.2031H30.2599C30.8476 31.2031 31.3181 30.6719 31.3181 30.0085V27.4397H47.9904V30.0085C47.9904 30.6719 48.4608 31.2031 49.05 31.2031H52.0563C52.6487 31.2031 53.1179 30.6719 53.1179 30.0085V27.273C53.9874 26.8893 54.7285 25.8683 54.7285 24.6545V19.0544C54.7285 18.1663 54.4136 17.1813 53.9755 16.2438L53.6489 15.5844C54.8827 14.8617 55.338 13.8478 55.338 12.7573C55.338 11.9389 54.8827 11.4574 53.9864 11.4574L51.7185 11.4602C51.0262 9.35839 50.2222 7.28346 49.0346 5.31547C48.4492 4.34269 47.6356 3.50574 46.3728 3.30936C43.646 2.88371 42.4479 2.8926 39.6566 2.8926H39.6566Z" fill="#08979C"/>
<path fill-rule="evenodd" clip-rule="evenodd" d="M5.15107 4.85861H13.9628V10.5378H5.15107V4.85861ZM4.16476 0.794922C2.86482 0.794922 1.82178 1.84055 1.82178 3.13847V27.1464H17.2996V17.3535H18.6457V27.1464H22.8941L22.8939 7.94192L19.2841 4.64553L18.3376 5.80845L19.8842 7.1972V10.1008H21.3694V25.6277H20.1708V15.8358H17.3002V3.13873C17.3002 1.84019 16.2566 0.79518 14.9581 0.79518L4.1644 0.794979L4.16476 0.794922Z" fill="#08979C"/>
<path fill-rule="evenodd" clip-rule="evenodd" d="M2.2336 28.3125H16.8868C17.7582 28.3125 18.4582 29.0138 18.4582 29.8839V31.2052H0.662109V29.8839C0.662109 29.0132 1.36204 28.3125 2.2335 28.3125H2.2336Z" fill="#08979C"/>
</svg>
