<svg width="46" height="21" viewBox="0 0 46 21" fill="none" xmlns="http://www.w3.org/2000/svg">
<path d="M43.299 14.1111L28.0206 13.7115C27.4267 13.6963 26.9608 13.2039 26.9608 12.5898V11.1953H24.5791V20.7941H45.3079V14.9873L44.4114 14.9577C43.8888 14.9397 43.446 14.5839 43.2991 14.1109L43.299 14.1111Z" fill="#08979C"/>
<path d="M44.752 7.44505L44.7499 7.45935L44.7464 7.45865C44.6866 7.63068 44.5987 7.77974 44.4806 7.90208C44.253 8.13388 43.9586 8.26208 43.6439 8.27005L28.5215 8.65466V12.1935L43.6421 12.5889C44.0208 12.5989 44.3764 12.7883 44.5925 13.0958L44.686 13.2549C44.694 13.2671 44.7097 13.3004 44.7249 13.3391L44.7594 13.4384L45.3066 13.4565V7.4043L44.7615 7.42164C44.7596 7.43008 44.7547 7.43664 44.7516 7.44508L44.752 7.44505Z" fill="#08979C"/>
<path d="M24.5793 9.66347H26.9617V8.25653C26.9617 7.64249 27.4284 7.14983 28.0237 7.13483L43.3195 6.69491L43.3598 6.59694C43.3699 6.57468 43.3806 6.55241 43.3914 6.53132C43.4561 6.41765 43.5196 6.33397 43.5944 6.2585L43.7643 6.1167C43.8414 6.05764 43.9623 5.99577 44.0913 5.95545L44.1805 5.93108C44.2129 5.92311 44.2591 5.91444 44.3036 5.90951L44.4051 5.90084L45.3079 5.87131V0.0644531H24.5791L24.5793 9.66347Z" fill="#08979C"/>
<path d="M16.1363 5.98647V3.56139H8.73835V0.0371094H0.71875V20.8235H8.73835V17.2992H16.1363V14.8742H20.7983L23.8438 10.4304L20.7983 5.98671L16.1363 5.98647Z" fill="#08979C"/>
</svg>
