<svg width="16" height="23" viewBox="0 0 16 23" fill="none" xmlns="http://www.w3.org/2000/svg">
<path d="M13.09 2.31995C12.1703 1.56353 11.0933 1.02198 9.93766 0.73479C8.782 0.447605 7.5768 0.422035 6.41 0.659946C4.85638 0.973768 3.43099 1.74202 2.31469 2.86723C1.19838 3.99243 0.441475 5.42388 0.140003 6.97995C-0.0801505 8.14667 -0.0401452 9.3476 0.257165 10.4971C0.554475 11.6466 1.10177 12.7163 1.86 13.6299C2.56369 14.424 2.96704 15.4395 3 16.4999V19.4999C3 20.2956 3.31607 21.0587 3.87868 21.6213C4.44129 22.1839 5.20435 22.4999 6 22.4999H10C10.7957 22.4999 11.5587 22.1839 12.1213 21.6213C12.6839 21.0587 13 20.2956 13 19.4999V16.6899C13.0336 15.5191 13.4637 14.3944 14.22 13.4999C15.5451 11.8607 16.1698 9.76477 15.9582 7.66757C15.7466 5.57038 14.7159 3.64143 13.09 2.29995V2.31995ZM11 19.4999C11 19.7652 10.8946 20.0195 10.7071 20.2071C10.5196 20.3946 10.2652 20.4999 10 20.4999H6C5.73479 20.4999 5.48043 20.3946 5.2929 20.2071C5.10536 20.0195 5 19.7652 5 19.4999V18.4999H11V19.4999ZM12.67 12.2599C11.6645 13.4525 11.0779 14.942 11 16.4999H9V13.4999C9 13.2347 8.89465 12.9804 8.70711 12.7928C8.51957 12.6053 8.26522 12.4999 8 12.4999C7.73479 12.4999 7.48043 12.6053 7.2929 12.7928C7.10536 12.9804 7 13.2347 7 13.4999V16.4999H5C4.97362 14.968 4.40695 13.4947 3.4 12.3399C2.73564 11.5439 2.28889 10.5894 2.10331 9.56929C1.91773 8.54922 1.99965 7.49846 2.34109 6.51948C2.68253 5.54049 3.27182 4.66669 4.05153 3.98327C4.83123 3.29985 5.77472 2.83015 6.79 2.61995C7.66256 2.44029 8.56416 2.45719 9.42937 2.66942C10.2946 2.88164 11.1017 3.28387 11.7921 3.8469C12.4824 4.40993 13.0388 5.11962 13.4207 5.92446C13.8026 6.72931 14.0005 7.60909 14 8.49995C14.0074 9.86981 13.5371 11.1994 12.67 12.2599Z" fill="#F5F5F5"/>
</svg>
