<svg width="62" height="62" viewBox="0 0 62 62" fill="none" xmlns="http://www.w3.org/2000/svg">
<path d="M35.5211 51.666H26.4794C25.7872 51.666 25.1476 52.0353 24.8014 52.6348C24.4555 53.2344 24.4555 53.9728 24.8014 54.5723C25.1476 55.1719 25.7871 55.541 26.4794 55.541H35.5211C36.2133 55.541 36.8529 55.1719 37.1991 54.5723C37.545 53.9728 37.545 53.2344 37.1991 52.6348C36.8529 52.0353 36.2134 51.666 35.5211 51.666Z" fill="#08979C"/>
<path d="M31.0001 18.084C27.8101 18.0824 24.7123 19.155 22.2065 21.1289C19.7002 23.1027 17.9319 25.8629 17.1857 28.9647C16.4398 32.0663 16.7599 35.329 18.0943 38.2264C19.429 41.124 21.7001 43.4877 24.5418 44.9369V47.7921C24.5418 48.1346 24.678 48.4632 24.9202 48.7054C25.1624 48.9476 25.491 49.0836 25.8335 49.0836H36.1668C36.5093 49.0836 36.8379 48.9476 37.0801 48.7054C37.3223 48.4632 37.4585 48.1346 37.4585 47.7921V44.9369C40.3004 43.4876 42.5715 41.1239 43.906 38.2264C45.2404 35.3289 45.5605 32.0662 44.8146 28.9647C44.0685 25.8629 42.3001 23.1026 39.7938 21.1289C37.2878 19.1551 34.19 18.0824 31.0001 18.084Z" fill="#08979C"/>
<path d="M31.0003 12.9167C31.6855 12.9167 32.3425 12.6445 32.827 12.1601C33.3114 11.6755 33.5837 11.0183 33.5837 10.3334V2.5834C33.5837 1.66047 33.0912 0.80756 32.292 0.346177C31.4928 -0.115392 30.5079 -0.115392 29.7087 0.346177C28.9094 0.807545 28.417 1.66047 28.417 2.5834V10.3334C28.417 11.0184 28.6893 11.6755 29.1737 12.1601C29.6582 12.6444 30.3152 12.9167 31.0003 12.9167Z" fill="#08979C"/>
<path d="M10.3332 28.416H2.58324C1.66032 28.416 0.807616 28.9085 0.346026 29.7077C-0.115342 30.5069 -0.115342 31.4916 0.346026 32.291C0.807595 33.0902 1.66032 33.5827 2.58324 33.5827H10.3332C11.2562 33.5827 12.1089 33.0902 12.5705 32.291C13.0318 31.4916 13.0318 30.5069 12.5705 29.7077C12.1089 28.9085 11.2562 28.416 10.3332 28.416Z" fill="#08979C"/>
<path d="M59.4163 28.416H51.6663C50.7433 28.416 49.8906 28.9085 49.429 29.7077C48.9677 30.5069 48.9677 31.4916 49.429 32.291C49.8906 33.0902 50.7433 33.5827 51.6663 33.5827H59.4163C60.3392 33.5827 61.1919 33.0902 61.6535 32.291C62.1148 31.4916 62.1148 30.5069 61.6535 29.7077C61.1919 28.9085 60.3392 28.416 59.4163 28.416Z" fill="#08979C"/>
<path d="M18.0127 13.8618L13.1161 7.85506C12.5324 7.14082 11.6125 6.79207 10.7021 6.93958C9.79187 7.08711 9.02917 7.70874 8.70119 8.57069C8.37322 9.43249 8.52944 10.4038 9.11129 11.1195L14.0081 17.1263C14.592 17.8393 15.5115 18.1875 16.4211 18.0397C17.3309 17.892 18.0928 17.2708 18.421 16.4094C18.7491 15.5482 18.5935 14.5775 18.0127 13.8618L18.0127 13.8618Z" fill="#08979C"/>
<path d="M52.519 7.48532C51.988 7.05241 51.3066 6.84816 50.6251 6.9176C49.9435 6.98703 49.3173 7.32428 48.8844 7.85546L43.9876 13.8622H43.9878C43.4069 14.5779 43.2513 15.5487 43.5795 16.4099C43.9076 17.2712 44.6695 17.8924 45.5793 18.0402C46.4889 18.1879 47.4084 17.8398 47.9923 17.1267L52.8891 11.12C53.322 10.5888 53.5263 9.90761 53.4568 9.22607C53.3874 8.54433 53.0502 7.91828 52.519 7.48537L52.519 7.48532Z" fill="#08979C"/>
<path d="M34.8747 58.125H27.1247C26.7822 58.125 26.4536 58.261 26.2114 58.5034C25.969 58.7456 25.833 59.0742 25.833 59.4167C25.833 60.1019 26.1053 60.759 26.5897 61.2434C27.0742 61.7277 27.7312 62 28.4163 62H33.583C34.2682 62 34.9252 61.7278 35.4097 61.2434C35.8941 60.759 36.1663 60.1018 36.1663 59.4167C36.1663 59.0742 36.0303 58.7456 35.7879 58.5034C35.5457 58.261 35.2172 58.125 34.8747 58.125Z" fill="#08979C"/>
</svg>
