<svg width="16" height="17" viewBox="0 0 16 17" fill="none" xmlns="http://www.w3.org/2000/svg">
<path d="M14.2738 6.58105C14.2738 6.58105 14.2738 6.58105 14.2738 6.54771C13.8041 5.2652 12.9517 4.1579 11.8321 3.37562C10.7125 2.59334 9.37962 2.17383 8.01379 2.17383C6.64796 2.17383 5.31508 2.59334 4.19546 3.37562C3.07585 4.1579 2.22352 5.2652 1.75379 6.54771C1.75379 6.54771 1.75379 6.54771 1.75379 6.58105C1.22921 8.02831 1.22921 9.61378 1.75379 11.061C1.75379 11.061 1.75379 11.061 1.75379 11.0944C2.22352 12.3769 3.07585 13.4842 4.19546 14.2665C5.31508 15.0488 6.64796 15.4683 8.01379 15.4683C9.37962 15.4683 10.7125 15.0488 11.8321 14.2665C12.9517 13.4842 13.8041 12.3769 14.2738 11.0944C14.2738 11.0944 14.2738 11.0944 14.2738 11.061C14.7984 9.61378 14.7984 8.02831 14.2738 6.58105ZM2.84046 10.1544C2.60927 9.28052 2.60927 8.36157 2.84046 7.48771H4.08046C3.97381 8.3734 3.97381 9.26869 4.08046 10.1544H2.84046ZM3.38712 11.4877H4.32046C4.47693 12.0823 4.7006 12.6571 4.98712 13.201C4.33332 12.7557 3.78679 12.1704 3.38712 11.4877ZM4.32046 6.15438H3.38712C3.78104 5.47377 4.32058 4.88869 4.96712 4.44105C4.68749 4.98588 4.47055 5.56066 4.32046 6.15438ZM7.33379 13.9544C6.51497 13.3535 5.93989 12.4779 5.71379 11.4877H7.33379V13.9544ZM7.33379 10.1544H5.42712C5.30272 9.26984 5.30272 8.37225 5.42712 7.48771H7.33379V10.1544ZM7.33379 6.15438H5.71379C5.93989 5.16423 6.51497 4.28859 7.33379 3.68771V6.15438ZM12.6138 6.15438H11.6805C11.524 5.55982 11.3003 4.98501 11.0138 4.44105C11.6676 4.88643 12.2141 5.47167 12.6138 6.15438ZM8.66712 3.68771C9.48595 4.28859 10.061 5.16423 10.2871 6.15438H8.66712V3.68771ZM8.66712 13.9544V11.4877H10.2871C10.061 12.4779 9.48595 13.3535 8.66712 13.9544ZM10.5738 10.1544H8.66712V7.48771H10.5738C10.6982 8.37225 10.6982 9.26984 10.5738 10.1544ZM11.0338 13.201C11.3203 12.6571 11.544 12.0823 11.7005 11.4877H12.6338C12.2341 12.1704 11.6876 12.7557 11.0338 13.201ZM13.1605 10.1544H11.9205C11.9747 9.71202 12.0014 9.26672 12.0005 8.82105C12.0012 8.37538 11.9745 7.93009 11.9205 7.48771H13.1605C13.3916 8.36157 13.3916 9.28052 13.1605 10.1544Z" fill="#9CA3AF"/>
</svg>
