<svg width="14" height="15" viewBox="0 0 14 15" fill="none" xmlns="http://www.w3.org/2000/svg">
<path d="M0.667582 5.40669L6.66758 8.87336C6.76893 8.93187 6.88389 8.96267 7.00092 8.96267C7.11794 8.96267 7.2329 8.93187 7.33425 8.87336L13.3342 5.40669C13.435 5.34852 13.5188 5.26499 13.5773 5.16441C13.6357 5.06383 13.6669 4.9497 13.6676 4.83336C13.668 4.71588 13.6375 4.60037 13.5789 4.49852C13.5204 4.39667 13.436 4.31209 13.3342 4.25336L7.33425 0.793357C7.2329 0.734845 7.11794 0.704041 7.00092 0.704041C6.88389 0.704041 6.76893 0.734845 6.66758 0.793357L0.667582 4.25336C0.565846 4.31209 0.481437 4.39667 0.422901 4.49852C0.364365 4.60037 0.333782 4.71588 0.334249 4.83336C0.334951 4.9497 0.366088 5.06383 0.424565 5.16441C0.483042 5.26499 0.566824 5.34852 0.667582 5.40669ZM7.00092 2.16669L11.6676 4.83336L7.00092 7.50002L2.33425 4.83336L7.00092 2.16669ZM12.6676 6.94669L7.00092 10.1667L1.33425 6.92002C1.25816 6.87594 1.1741 6.84735 1.08692 6.8359C0.99973 6.82444 0.91114 6.83035 0.826246 6.85328C0.741353 6.8762 0.661834 6.9157 0.592269 6.96949C0.522705 7.02328 0.464469 7.0903 0.420916 7.16669C0.334001 7.31977 0.311156 7.50101 0.357368 7.67087C0.403579 7.84072 0.515094 7.98541 0.667582 8.07336L6.66758 11.54C6.76893 11.5985 6.88389 11.6293 7.00092 11.6293C7.11794 11.6293 7.2329 11.5985 7.33425 11.54L13.3342 8.07336C13.4867 7.98541 13.5983 7.84072 13.6445 7.67087C13.6907 7.50101 13.6678 7.31977 13.5809 7.16669C13.5374 7.0903 13.4791 7.02328 13.4096 6.96949C13.34 6.9157 13.2605 6.8762 13.1756 6.85328C13.0907 6.83035 13.0021 6.82444 12.9149 6.8359C12.8277 6.84735 12.7437 6.87594 12.6676 6.92002V6.94669ZM12.6676 9.61336L7.00092 12.8334L1.33425 9.58669C1.25816 9.54261 1.1741 9.51402 1.08692 9.50257C0.99973 9.49111 0.91114 9.49701 0.826246 9.51994C0.741353 9.54287 0.661834 9.58237 0.592269 9.63616C0.522705 9.68995 0.464469 9.75697 0.420916 9.83336C0.334001 9.98643 0.311156 10.1677 0.357368 10.3375C0.403579 10.5074 0.515094 10.6521 0.667582 10.74L6.66758 14.2067C6.76893 14.2652 6.88389 14.296 7.00092 14.296C7.11794 14.296 7.2329 14.2652 7.33425 14.2067L13.3342 10.74C13.4867 10.6521 13.5983 10.5074 13.6445 10.3375C13.6907 10.1677 13.6678 9.98643 13.5809 9.83336C13.5374 9.75697 13.4791 9.68995 13.4096 9.63616C13.34 9.58237 13.2605 9.54287 13.1756 9.51994C13.0907 9.49701 13.0021 9.49111 12.9149 9.50257C12.8277 9.51402 12.7437 9.54261 12.6676 9.58669V9.61336Z" fill="#6B7280"/>
</svg>
