<svg width="34" height="33" viewBox="0 0 34 33" fill="none" xmlns="http://www.w3.org/2000/svg">
<path d="M16.8095 32.25C13.1061 32.2326 9.52108 30.944 6.65409 28.5998C3.78711 26.2555 1.81212 22.9979 1.05949 19.3718C0.506226 16.5269 0.71656 13.5862 1.66905 10.849C2.62154 8.11185 4.28216 5.67587 6.48198 3.78901C8.8531 1.79136 11.7522 0.523497 14.8287 0.138759C15.5299 0.0472726 16.2365 0.00118381 16.9437 0.00076615C19.4922 -0.00452762 22.0034 0.613412 24.2584 1.80076C26.4359 2.94706 28.3281 4.56799 29.795 6.54377C31.3111 8.56422 32.3282 10.9145 32.7633 13.4028C33.1984 15.8911 33.039 18.447 32.2984 20.862C31.2888 24.2687 29.1575 27.2341 26.2504 29.277C24.8753 30.2435 23.3589 30.9911 21.755 31.4933C20.1546 31.9959 18.4869 32.2511 16.8095 32.25V32.25ZM9.92894 12.9218V22.6043H13.1472V12.9225L9.92894 12.9218ZM19.904 15.2333C20.9697 15.2333 21.5336 15.9915 21.5336 17.4255V22.6005H24.7497V17.0505C24.7497 14.322 23.3645 12.6923 21.044 12.6923H20.9142C20.3526 12.6933 19.8012 12.8418 19.3151 13.123C18.829 13.4041 18.4254 13.808 18.1445 14.2943V12.9225H14.9246V22.6028H18.1429V17.196C18.1305 16.9302 18.1667 16.6644 18.2494 16.4115C18.3704 16.0692 18.5939 15.7725 18.8896 15.5618C19.1852 15.3512 19.5386 15.2367 19.9016 15.234L19.904 15.2333ZM11.5188 11.5995H11.5406C11.5819 11.5995 11.6239 11.604 11.6651 11.604C11.9507 11.6027 12.2313 11.5289 12.4805 11.3896C12.7297 11.2503 12.9396 11.05 13.0903 10.8075C13.2523 10.5465 13.3392 10.2457 13.3413 9.93845C13.3434 9.63118 13.2606 9.32929 13.1022 9.06602C12.9524 8.81782 12.7413 8.61236 12.4891 8.46944C12.2369 8.32652 11.9521 8.25095 11.6622 8.25001C11.6277 8.25001 11.5932 8.25001 11.5595 8.25001C11.5257 8.25001 11.4694 8.24477 11.4244 8.24477C11.1289 8.24513 10.8389 8.32355 10.5835 8.47212C10.3282 8.62068 10.1166 8.83412 9.97032 9.09076C9.82399 9.34741 9.74801 9.63815 9.75023 9.93357C9.75244 10.229 9.83279 10.5186 9.98295 10.773C10.1317 11.0238 10.343 11.2317 10.5962 11.3764C10.8494 11.521 11.1359 11.5973 11.4275 11.598C11.459 11.601 11.4886 11.6018 11.5166 11.6003L11.5188 11.5995Z" fill="white"/>
</svg>
