<svg width="37" height="37" viewBox="0 0 37 37" fill="none" xmlns="http://www.w3.org/2000/svg">
<path d="M16.4218 6.63915C17.1104 6.1486 17.9502 5.9173 18.7929 5.98615C19.6355 6.05501 20.4266 6.41957 21.0264 7.0154C21.6993 7.68432 22.0795 8.59283 22.0835 9.54165V14.9167C22.0835 15.3918 22.2723 15.8475 22.6083 16.1836C22.9443 16.5196 23.4 16.7083 23.8752 16.7083H25.6668C26.142 16.7083 26.5977 16.8971 26.9337 17.2331C27.2697 17.5691 27.4585 18.0248 27.4585 18.5V19.1092C27.4585 19.5843 27.6473 20.04 27.9833 20.3761C28.3193 20.7121 28.775 20.9008 29.2502 20.9008C29.7253 20.9008 30.1811 20.7121 30.5171 20.3761C30.8531 20.04 31.0418 19.5843 31.0418 19.1092V18.5C31.0418 17.0744 30.4755 15.7073 29.4675 14.6993C28.4595 13.6913 27.0924 13.125 25.6668 13.125V9.54165C25.6676 8.60023 25.4828 7.6679 25.1231 6.7979C24.7635 5.9279 24.2359 5.13729 23.5706 4.47124C22.348 3.28393 20.7473 2.56359 19.0479 2.43588C17.3485 2.30818 15.6581 2.78123 14.2718 3.77249C14.0836 3.91366 13.925 4.09052 13.8052 4.29298C13.6853 4.49543 13.6065 4.71952 13.5732 4.95244C13.5399 5.18536 13.5528 5.42255 13.6112 5.65048C13.6696 5.8784 13.7723 6.09259 13.9135 6.28082C14.0547 6.46905 14.2315 6.62763 14.434 6.7475C14.6365 6.86738 14.8605 6.94621 15.0935 6.97948C15.3264 7.01275 15.5636 6.99983 15.7915 6.94143C16.0194 6.88304 16.2336 6.78032 16.4218 6.63915ZM35.8973 33.3529L3.64725 1.1029C3.30988 0.765525 2.85229 0.575989 2.37517 0.575989C1.89805 0.575989 1.44046 0.765525 1.10309 1.1029C0.765708 1.44028 0.576172 1.89786 0.576172 2.37499C0.576172 2.85211 0.765708 3.30969 1.10309 3.64707L10.6527 13.125C9.34815 13.2915 8.14995 13.9305 7.28489 14.9211C6.41982 15.9116 5.94792 17.1849 5.9585 18.5V29.25C5.9585 30.6755 6.5248 32.0427 7.5328 33.0507C8.54081 34.0587 9.90796 34.625 11.3335 34.625H25.6668C26.4982 34.6222 27.3177 34.4266 28.0607 34.0535C28.8037 33.6805 29.4501 33.1401 29.9489 32.475L33.3531 35.8971C33.5196 36.065 33.7178 36.1983 33.9361 36.2892C34.1545 36.3802 34.3886 36.427 34.6252 36.427C34.8617 36.427 35.0959 36.3802 35.3142 36.2892C35.5325 36.1983 35.7307 36.065 35.8973 35.8971C36.0652 35.7305 36.1985 35.5323 36.2894 35.314C36.3804 35.0957 36.4272 34.8615 36.4272 34.625C36.4272 34.3885 36.3804 34.1543 36.2894 33.936C36.1985 33.7176 36.0652 33.5195 35.8973 33.3529ZM25.6668 31.0417H11.3335C10.8583 31.0417 10.4026 30.8529 10.0666 30.5169C9.7306 30.1809 9.54184 29.7252 9.54184 29.25V18.5C9.54184 18.0248 9.7306 17.5691 10.0666 17.2331C10.4026 16.8971 10.8583 16.7083 11.3335 16.7083H14.1823L17.891 20.4171C17.5476 20.5412 17.2503 20.7673 17.039 21.0651C16.8276 21.3629 16.7123 21.7182 16.7085 22.0833V25.6667C16.7085 26.1418 16.8973 26.5975 17.2333 26.9336C17.5693 27.2696 18.025 27.4583 18.5002 27.4583C18.9753 27.4583 19.4311 27.2696 19.7671 26.9336C20.1031 26.5975 20.2918 26.1418 20.2918 25.6667V22.8179L27.3331 29.8592C27.2089 30.2026 26.9828 30.4999 26.685 30.7112C26.3872 30.9225 26.032 31.0378 25.6668 31.0417Z" fill="#C3B31C"/>
</svg>
