<svg width="99" height="100" viewBox="0 0 99 100" fill="none" xmlns="http://www.w3.org/2000/svg">
<circle cx="49.5404" cy="49.6356" r="49.4286" fill="#FAEC6B" fill-opacity="0.68"/>
<path d="M46.9624 37.8464C47.6509 37.3558 48.4908 37.1245 49.3334 37.1934C50.176 37.2622 50.9672 37.6268 51.5669 38.2226C52.2399 38.8915 52.62 39.8 52.624 40.7489V46.1239C52.624 46.599 52.8128 47.0548 53.1488 47.3908C53.4848 47.7268 53.9405 47.9155 54.4157 47.9155H56.2074C56.6825 47.9155 57.1383 48.1043 57.4743 48.4403C57.8103 48.7763 57.999 49.232 57.999 49.7072V50.3164C57.999 50.7915 58.1878 51.2473 58.5238 51.5833C58.8598 51.9193 59.3155 52.108 59.7907 52.108C60.2659 52.108 60.7216 51.9193 61.0576 51.5833C61.3936 51.2473 61.5824 50.7915 61.5824 50.3164V49.7072C61.5824 48.2817 61.0161 46.9145 60.0081 45.9065C59.0001 44.8985 57.6329 44.3322 56.2074 44.3322V40.7489C56.2081 39.8074 56.0234 38.8751 55.6637 38.0051C55.304 37.1351 54.7764 36.3445 54.1111 35.6785C52.8885 34.4911 51.2879 33.7708 49.5884 33.6431C47.889 33.5154 46.1987 33.9884 44.8124 34.9797C44.6241 35.1209 44.4656 35.2977 44.3457 35.5002C44.2258 35.7026 44.147 35.9267 44.1137 36.1597C44.0804 36.3926 44.0934 36.6298 44.1518 36.8577C44.2101 37.0856 44.3129 37.2998 44.454 37.488C44.5952 37.6763 44.7721 37.8348 44.9745 37.9547C45.177 38.0746 45.4011 38.1534 45.634 38.1867C45.8669 38.22 46.1041 38.207 46.332 38.1486C46.5599 38.0903 46.7741 37.9875 46.9624 37.8464V37.8464ZM66.4378 64.5601L34.1878 32.3101C33.8504 31.9727 33.3928 31.7832 32.9157 31.7832C32.4386 31.7832 31.981 31.9727 31.6436 32.3101C31.3062 32.6475 31.1167 33.1051 31.1167 33.5822C31.1167 34.0593 31.3062 34.5169 31.6436 34.8543L41.1932 44.3322C39.8887 44.4987 38.6905 45.1378 37.8254 46.1283C36.9603 47.1188 36.4884 48.3921 36.499 49.7072V60.4572C36.499 61.8827 37.0653 63.2499 38.0733 64.2579C39.0813 65.2659 40.4485 65.8322 41.874 65.8322H56.2074C57.0388 65.8294 57.8582 65.6338 58.6012 65.2607C59.3443 64.8877 59.9906 64.3473 60.4894 63.6822L63.8936 67.1043C64.0602 67.2722 64.2583 67.4055 64.4767 67.4965C64.695 67.5874 64.9292 67.6343 65.1657 67.6343C65.4022 67.6343 65.6364 67.5874 65.8547 67.4965C66.0731 67.4055 66.2712 67.2722 66.4378 67.1043C66.6057 66.9377 66.739 66.7396 66.83 66.5212C66.9209 66.3029 66.9678 66.0687 66.9678 65.8322C66.9678 65.5957 66.9209 65.3615 66.83 65.1432C66.739 64.9248 66.6057 64.7267 66.4378 64.5601V64.5601ZM56.2074 62.2489H41.874C41.3989 62.2489 40.9431 62.0601 40.6071 61.7241C40.2711 61.3881 40.0824 60.9324 40.0824 60.4572V49.7072C40.0824 49.232 40.2711 48.7763 40.6071 48.4403C40.9431 48.1043 41.3989 47.9155 41.874 47.9155H44.7228L48.4315 51.6243C48.0881 51.7484 47.7908 51.9745 47.5795 52.2723C47.3681 52.5701 47.2528 52.9254 47.249 53.2905V56.8739C47.249 57.349 47.4378 57.8048 47.7738 58.1408C48.1098 58.4768 48.5655 58.6655 49.0407 58.6655C49.5159 58.6655 49.9716 58.4768 50.3076 58.1408C50.6436 57.8048 50.8324 57.349 50.8324 56.8739V54.0251L57.8736 61.0664C57.7495 61.4098 57.5234 61.7071 57.2256 61.9184C56.9278 62.1298 56.5725 62.2451 56.2074 62.2489V62.2489Z" fill="#C3B31C"/>
</svg>
