<svg width="243" height="30" viewBox="0 0 243 30" fill="none" xmlns="http://www.w3.org/2000/svg">
<path d="M7.43769 23.859C6.34495 23.859 5.41265 23.7549 4.64079 23.5468C3.86894 23.3387 3.0754 23.0351 2.26018 22.6362L2 18.3433H2.41628L3.79522 21.1792C4.4023 21.6822 5.0007 22.0465 5.59044 22.2719C6.18017 22.4974 6.7699 22.6102 7.35964 22.6102C8.36565 22.6102 9.15919 22.35 9.74025 21.8296C10.3213 21.3093 10.6118 20.5981 10.6118 19.6962C10.6118 18.985 10.4514 18.417 10.1305 17.992C9.80963 17.5671 9.33264 17.1855 8.69955 16.8473C8.06645 16.509 7.29026 16.1144 6.37097 15.6634C5.13946 15.0737 4.19416 14.4536 3.53504 13.8032C2.87593 13.1527 2.54637 12.2378 2.54637 11.0583C2.54637 10.4339 2.69814 9.83115 3.00168 9.25009C3.30522 8.66903 3.71717 8.14867 4.23752 7.68903C4.75787 7.22938 5.33893 6.8608 5.9807 6.58327C6.62247 6.30575 7.29026 6.16699 7.98406 6.16699C8.79928 6.16699 9.56247 6.26239 10.2736 6.45319C10.9848 6.64398 11.6872 6.9215 12.381 7.28575L12.6412 11.4486H12.2249L10.872 8.66469C10.317 8.23106 9.81397 7.91885 9.363 7.72805C8.91203 7.53726 8.40034 7.44186 7.82796 7.44186C7.08212 7.44186 6.46203 7.69336 5.96769 8.19637C5.47336 8.69938 5.22619 9.33248 5.22619 10.0957C5.22619 10.9456 5.4907 11.6134 6.01973 12.099C6.54875 12.5847 7.403 13.105 8.58247 13.6601C9.62317 14.1631 10.4861 14.6444 11.1712 15.1041C11.8564 15.5637 12.3637 16.0797 12.6933 16.6521C13.0228 17.2245 13.1876 17.953 13.1876 18.8376C13.1876 19.6528 13.0141 20.3726 12.6672 20.9971C12.3203 21.6215 11.8607 22.1462 11.2883 22.5711C10.7159 22.9961 10.0958 23.317 9.42804 23.5338C8.76025 23.7506 8.09681 23.859 7.43769 23.859ZM24.2971 23.859C23.1003 23.859 22.0293 23.6639 21.084 23.2736C20.1386 22.8834 19.3971 22.2503 18.8594 21.3743C18.3217 20.4984 18.0529 19.3406 18.0529 17.901V10.3038L16.1536 9.44522V9.02894H22.5279V9.44522L20.6286 10.3038V17.7709C20.6286 19.5054 21.0102 20.7109 21.7734 21.3873C22.5366 22.0638 23.56 22.402 24.8435 22.402C25.5893 22.402 26.2701 22.2589 26.8859 21.9727C27.5016 21.6865 27.9916 21.2442 28.3559 20.6458C28.7201 20.0474 28.9023 19.2799 28.9023 18.3433V10.2518L26.7168 9.44522V9.02894H32.2846V9.44522L30.4373 10.2778V17.953C30.4373 19.358 30.1771 20.4941 29.6568 21.3613C29.1364 22.2286 28.4166 22.8617 27.4973 23.2606C26.578 23.6595 25.5113 23.859 24.2971 23.859ZM42.0672 23.5988H35.4067V23.1826L37.306 22.324V10.3038L35.4067 9.44522V9.02894H41.6769C43.6196 9.02894 45.0939 9.36283 46.0999 10.0306C47.1059 10.6984 47.609 11.7348 47.609 13.1397C47.609 14.007 47.3401 14.7615 46.8024 15.4033C46.2647 16.045 45.5232 16.535 44.5779 16.8733C43.6326 17.2115 42.5442 17.3806 41.3127 17.3806H39.8817V22.324L42.0672 23.1826V23.5988ZM41.0005 10.3298H39.8817V16.1057H41.1566C42.3187 16.1057 43.238 15.8499 43.9145 15.3382C44.5909 14.8265 44.9291 14.1111 44.9291 13.1918C44.9291 12.1684 44.5866 11.4356 43.9014 10.9933C43.2163 10.551 42.2493 10.3298 41.0005 10.3298ZM57.0794 23.5988H50.4189V23.1826L52.3182 22.324V10.3038L50.4189 9.44522V9.02894H56.6891C58.6318 9.02894 60.1061 9.36283 61.1121 10.0306C62.1181 10.6984 62.6211 11.7348 62.6211 13.1397C62.6211 14.007 62.3523 14.7615 61.8146 15.4033C61.2769 16.045 60.5354 16.535 59.5901 16.8733C58.6448 17.2115 57.5564 17.3806 56.3249 17.3806H54.8939V22.324L57.0794 23.1826V23.5988ZM56.0127 10.3298H54.8939V16.1057H56.1688C57.3309 16.1057 58.2502 15.8499 58.9266 15.3382C59.6031 14.8265 59.9413 14.1111 59.9413 13.1918C59.9413 12.1684 59.5988 11.4356 58.9136 10.9933C58.2285 10.551 57.2615 10.3298 56.0127 10.3298ZM77.3732 23.5988H65.4311V23.1826L67.3043 22.324V10.3038L65.4311 9.44522V9.02894H71.9875V9.44522L69.8801 10.3038V22.298H75.3178L76.9569 18.4734H77.3732V23.5988ZM90.9544 23.5988H84.3199V23.1826L86.3493 22.324V16.7042L81.614 10.2778L79.8969 9.44522V9.02894H86.1411V9.44522L84.554 10.2258V10.3298L88.3266 15.3512L91.7609 10.3558V10.2778L90.0958 9.44522V9.02894H95.2213V9.44522L93.5041 10.2518L88.925 16.7562V22.324L90.9544 23.1826V23.5988Z" fill="#445B66"/>
<g clip-path="url(#clip0_231_13262)">
<path d="M138.321 2C137.595 2 137.04 2.59763 137.04 3.28064V4.30516L133.027 9.42773L137.04 14.7211V15.1053L133.027 20.0998L137.04 25.5212V26.2469C137.04 26.9726 137.638 27.5275 138.321 27.5275H139.986C140.711 27.5275 141.266 26.9299 141.266 26.2469V24.582C141.266 23.8563 140.669 23.3014 139.986 23.3014H138.321C137.894 23.3014 137.552 23.5148 137.339 23.7709L134.649 20.0998L137.51 16.5566C137.723 16.7701 138.022 16.8982 138.363 16.8982H140.028C140.754 16.8982 141.309 16.3005 141.309 15.6175V13.91C141.309 13.1843 140.711 12.6293 140.028 12.6293H138.363C137.979 12.6293 137.638 12.8001 137.424 13.0562L134.692 9.42773L137.467 5.84193C137.68 6.05537 138.022 6.22612 138.363 6.22612H140.028C140.754 6.22612 141.309 5.62849 141.309 4.94548V3.28064C141.309 2.55495 140.711 2 140.028 2H138.321Z" fill="#445B66"/>
<path d="M129.143 11.178C129.357 11.4341 129.698 11.5622 130.04 11.5622H131.705C132.43 11.5622 132.985 10.9646 132.985 10.2815V8.6167C132.985 7.89101 132.388 7.33606 131.705 7.33606H130.04C129.314 7.33606 128.759 7.93369 128.759 8.6167V9.64122L124.789 14.7638L128.802 20.1852V20.9109C128.802 21.6366 129.399 22.1915 130.082 22.1915H131.747C132.473 22.1915 133.028 21.5939 133.028 20.9109V19.246C133.028 18.5203 132.43 17.9654 131.747 17.9654H130.082C129.656 17.9654 129.314 18.1362 129.101 18.435L126.369 14.7638L129.143 11.178Z" fill="#445B66"/>
<path d="M113.562 22.1916H115.227C115.952 22.1916 116.507 21.594 116.507 20.911V19.9718L120.52 14.8066V15.6176C120.52 16.3433 121.118 16.8983 121.801 16.8983H123.466C124.191 16.8983 124.746 16.3007 124.746 15.6176V13.9101C124.746 13.1844 124.149 12.6295 123.466 12.6295H121.801C121.075 12.6295 120.52 13.2271 120.52 13.9101V14.7212L116.55 9.76937V8.5741C116.55 7.8484 115.952 7.29346 115.269 7.29346H113.605C112.879 7.29346 112.324 7.89109 112.324 8.5741V10.2389C112.324 10.9646 112.922 11.5196 113.605 11.5196H115.269C115.568 11.5196 115.867 11.3915 116.08 11.2208L118.898 14.7212L116.166 18.307C115.952 18.0509 115.611 17.9228 115.227 17.9228H113.562C112.836 17.9228 112.281 18.5204 112.281 19.2034V20.8683C112.281 21.6367 112.836 22.1916 113.562 22.1916Z" fill="#445B66"/>
<path d="M105.281 27.5275H106.945C107.671 27.5275 108.226 26.9299 108.226 26.2469V25.6065L112.239 20.0571L108.226 14.9772V14.8064L112.239 9.42773L108.226 4.21978V3.28064C108.226 2.55495 107.628 2 106.945 2H105.281C104.555 2 104 2.59763 104 3.28064V4.94548C104 5.67118 104.598 6.22612 105.281 6.22612H106.945C107.33 6.22612 107.671 6.05537 107.885 5.79924L110.659 9.42773L107.927 13.0989C107.714 12.8428 107.372 12.6293 106.988 12.6293H105.323C104.598 12.6293 104.043 13.227 104.043 13.91V15.6175C104.043 16.3432 104.64 16.8982 105.323 16.8982H106.988C107.33 16.8982 107.671 16.7701 107.885 16.514L110.702 20.0998L108.013 23.8136C107.799 23.4721 107.415 23.2587 106.988 23.2587H105.323C104.598 23.2587 104.043 23.8563 104.043 24.5393V26.2042C104 26.9726 104.555 27.5275 105.281 27.5275Z" fill="#445B66"/>
</g>
<path d="M158.187 24.4319H150.59V24.0156L152.697 22.9749V8.71724L150.59 7.67654V7.26025H157.589C158.751 7.26025 159.796 7.40335 160.724 7.68955C161.652 7.97574 162.38 8.40069 162.909 8.96441C163.438 9.52813 163.703 10.2436 163.703 11.1109C163.703 11.9955 163.399 12.8064 162.792 13.5435C162.185 14.2807 161.309 14.8054 160.164 15.1176C161.743 15.3257 162.979 15.8071 163.872 16.5616C164.765 17.3161 165.212 18.2744 165.212 19.4365C165.212 20.3905 164.908 21.2448 164.301 21.9993C163.694 22.7538 162.862 23.3479 161.803 23.7815C160.745 24.2151 159.54 24.4319 158.187 24.4319ZM156.834 8.69123H155.429V14.8834H156.964C158.196 14.8834 159.15 14.6146 159.826 14.0769C160.503 13.5392 160.841 12.802 160.841 11.8654C160.841 9.74928 159.505 8.69123 156.834 8.69123ZM157.797 16.2624H155.429V23.001H157.979C159.314 23.001 160.368 22.6844 161.14 22.0513C161.912 21.4182 162.298 20.6073 162.298 19.6187C162.298 18.4565 161.908 17.6066 161.127 17.0689C160.346 16.5312 159.236 16.2624 157.797 16.2624ZM174.162 24.4319H167.996V24.0156L169.895 23.1571V11.1369L167.996 10.2783V9.86202H174.292C175.888 9.86202 177.15 10.1872 178.077 10.8377C179.005 11.4881 179.469 12.3857 179.469 13.5305C179.469 14.3631 179.214 15.0786 178.702 15.677C178.19 16.2754 177.457 16.748 176.503 17.0949L180.51 23.2091L182.227 24.0156V24.4319H178.143L174.032 17.7974H172.445V23.131L174.162 24.0156V24.4319ZM173.668 11.1369H172.445V16.5225H173.772C174.708 16.5225 175.445 16.2797 175.983 15.7941C176.521 15.3084 176.79 14.6493 176.79 13.8167C176.79 12.9321 176.516 12.2643 175.97 11.8133C175.424 11.3624 174.656 11.1369 173.668 11.1369ZM189.85 24.4319H183.736V24.0156L185.454 23.1571V11.1369L183.736 10.2783V9.86202H189.85V10.2783L188.055 11.1369V23.1571L189.85 24.0156V24.4319ZM199.555 24.4319H193.077V24.0156L194.976 23.1571V11.1369L193.077 10.2783V9.86202H199.711C201.463 9.86202 202.946 10.1439 204.16 10.7076C205.374 11.2713 206.302 12.0518 206.944 13.0492C207.586 14.0465 207.907 15.1956 207.907 16.4965C207.907 18.0923 207.569 19.4842 206.892 20.6724C206.216 21.8605 205.253 22.7841 204.004 23.4433C202.755 24.1024 201.272 24.4319 199.555 24.4319ZM199.165 11.1629H197.552V23.131H199.347C201.238 23.131 202.69 22.5803 203.705 21.4789C204.72 20.3775 205.227 18.9075 205.227 17.0689C205.227 15.161 204.707 13.6996 203.666 12.6849C202.625 11.6703 201.125 11.1629 199.165 11.1629ZM218.912 24.6921C217.455 24.6921 216.15 24.3842 214.997 23.7685C213.843 23.1527 212.932 22.3071 212.265 21.2318C211.597 20.1564 211.263 18.9248 211.263 17.5372C211.263 16.3925 211.475 15.3387 211.9 14.3761C212.325 13.4134 212.911 12.5722 213.657 11.8524C214.402 11.1326 215.265 10.5775 216.245 10.1872C217.225 9.79698 218.27 9.60185 219.381 9.60185C220.543 9.60185 221.475 9.70158 222.177 9.90105C222.88 10.1005 223.552 10.3564 224.194 10.6686L224.35 14.4151H223.96L222.399 11.8133C221.809 11.4144 221.301 11.1369 220.877 10.9808C220.452 10.8247 219.962 10.7466 219.407 10.7466C218.279 10.7466 217.286 10.9981 216.428 11.5011C215.569 12.0041 214.901 12.6979 214.424 13.5826C213.947 14.4672 213.709 15.4645 213.709 16.5746C213.709 17.9969 213.96 19.2154 214.463 20.2301C214.966 21.2448 215.656 22.0253 216.532 22.5717C217.408 23.118 218.401 23.3912 219.511 23.3912C219.962 23.3912 220.408 23.3609 220.851 23.3002C221.293 23.2394 221.739 23.1224 222.19 22.9489V19.2284L220.187 18.3178V17.9275H226.145V18.3178L224.584 19.2804V22.8188C224.15 23.2004 223.613 23.53 222.971 23.8075C222.329 24.085 221.653 24.3018 220.942 24.4579C220.23 24.6141 219.554 24.6921 218.912 24.6921ZM241.001 24.4319H228.903V24.0156L230.776 23.1571V11.1369L228.903 10.2783V9.86202H240.351V13.6086H239.934L238.582 11.1629H233.352V16.2364H237.151L238.035 14.4411H238.451V19.3064H238.035L237.151 17.5372H233.352V23.131H239.154L240.585 20.191H241.001V24.4319Z" fill="#445B66"/>
<defs>
<clipPath id="clip0_231_13262">
<rect width="37.3094" height="25.5275" fill="white" transform="translate(104 2)"/>
</clipPath>
</defs>
</svg>
