<svg width="34" height="34" viewBox="0 0 34 34" fill="none" xmlns="http://www.w3.org/2000/svg">
<path d="M16.8745 33.2504C13.1548 33.2474 9.55044 31.9589 6.67185 29.6031C3.79326 27.2472 1.8174 23.9688 1.07891 20.3231C0.340419 16.6775 0.88469 12.8886 2.61954 9.5982C4.3544 6.30782 7.17319 3.71818 10.5985 2.26788C14.539 0.603284 18.9793 0.572203 22.9427 2.18148C26.9061 3.79075 30.0678 6.90855 31.7324 10.849C33.397 14.7895 33.4281 19.2298 31.8188 23.1932C30.2095 27.1565 27.0917 30.3183 23.1513 31.9829C21.1656 32.8234 19.0308 33.2545 16.8745 33.2504V33.2504ZM14.6373 18.4289L9.66554 23.2206C9.78919 23.268 9.92016 23.2933 10.0525 23.2956H23.9665C24.1617 23.2936 24.3532 23.2419 24.523 23.1456L19.393 18.3569L17.374 20.2994C17.2762 20.392 17.1469 20.4442 17.0122 20.4453C16.8775 20.4464 16.7474 20.3964 16.648 20.3054L14.6365 18.4304L14.6373 18.4289ZM8.88779 13.0904V22.1361C8.8911 22.2379 8.90774 22.3387 8.93729 22.4361L13.8475 17.7111L8.88779 13.0904ZM25.093 12.8586L20.1475 17.6234L25.087 22.2359C25.087 22.2194 25.087 22.2021 25.087 22.1864C25.087 22.1706 25.087 22.1534 25.087 22.1361V12.9111C25.0876 12.9021 25.0897 12.8933 25.093 12.8849C25.0945 12.8762 25.0945 12.8673 25.093 12.8586V12.8586ZM10.0495 11.7516C9.78173 11.7544 9.5233 11.8507 9.31904 12.0239L17.0028 19.1909L24.55 11.9211C24.3744 11.813 24.1728 11.7542 23.9665 11.7509L10.0495 11.7516Z" fill="white"/>
</svg>
