<svg width="272" height="43" viewBox="0 0 272 43" fill="none" xmlns="http://www.w3.org/2000/svg">
<path fill-rule="evenodd" clip-rule="evenodd" d="M108.036 0.425551C107.005 0.886801 106.801 1.4313 106.801 3.72555C106.801 6.00555 106.87 6.2148 107.842 6.87555C108.517 7.3353 111.962 7.3488 112.708 6.8943L113.188 6.60105L113.542 7.01055C113.737 7.23555 114.76 8.5578 115.816 9.9483L117.736 12.4766L115.507 15.4661L113.278 18.4556L112.768 18.1091C112.018 17.6006 108.577 17.5796 107.83 18.0791C106.313 19.0916 106.421 23.5856 107.983 24.5035C108.718 24.9355 111.99 24.9296 112.725 24.4946L113.223 24.1998L115.311 26.8601C116.46 28.3226 117.48 29.6501 117.579 29.8083C117.729 30.0491 114.553 34.8146 113.48 35.9583C113.279 35.8872 113.09 35.7824 112.924 35.6486C112.24 35.1843 111.77 35.1108 109.872 35.1716C107.259 35.2548 106.872 35.7198 106.872 38.7543C106.872 41.9711 107.185 42.2793 110.375 42.217C113.075 42.1646 113.6 41.7986 113.805 39.8171C113.905 38.8503 113.924 38.8195 119.48 31.1695L120.332 29.9973L120.399 31.0518C120.523 32.9958 121.069 33.3933 123.699 33.4518C126.723 33.5223 127.449 32.9403 127.462 30.4405V29.701L130.697 25.5416L133.933 21.3813L134.008 22.4838C134.135 24.3798 134.743 24.7811 137.481 24.7811C140.174 24.7811 140.792 24.3386 140.953 22.2941L141.028 21.3191L141.997 22.6323C142.531 23.3546 143.968 25.2918 145.191 26.9373L147.414 29.9291L147.525 30.9445C147.75 32.9958 148.238 33.3866 150.668 33.4563C153.718 33.544 154.357 33.1503 154.576 31.0421L154.663 30.2066L157.897 34.5806L161.133 38.9546V39.7691C161.133 41.7003 161.894 42.2441 164.611 42.2441C167.731 42.2441 168.136 41.8121 168.064 38.5773C167.996 35.5841 167.681 35.2863 164.59 35.2886C162.894 35.2886 162.682 35.3186 162.157 35.6193L161.582 35.9486L159.407 32.983L157.232 30.0183L159.177 27.6093C160.246 26.2848 161.298 24.9933 161.512 24.7398L161.902 24.2793L162.379 24.5186C163.594 25.129 166.74 24.8936 167.516 24.1353C168.763 22.9166 168.508 19.0128 167.122 18.0693C166.462 17.6193 163.003 17.5953 162.282 18.0348C162.118 18.1434 161.944 18.2363 161.763 18.3123C161.678 18.3123 157.527 12.7878 157.439 12.5583C158.626 10.6913 159.939 8.90811 161.371 7.2213L161.843 6.63555L162.293 6.9078C163.006 7.3428 166.469 7.3143 167.124 6.8688C168.052 6.2373 168.161 5.95305 168.215 4.03005C168.307 0.814802 167.859 0.318301 164.806 0.249301C161.847 0.182551 161.144 0.699302 161.135 2.9568L161.13 4.05105L158.612 7.2558C157.231 9.01605 155.762 10.8836 155.347 11.4063C155.065 11.7354 154.813 12.089 154.594 12.4631C154.594 12.5208 156.063 14.5038 157.859 16.8693C159.056 18.3298 160.148 19.8724 161.129 21.4856C161.129 21.6941 160.03 23.1716 157.898 25.8221L154.663 29.842L154.572 28.8603C154.59 28.4564 154.498 28.0552 154.306 27.6994C154.115 27.3436 153.83 27.0465 153.482 26.8398C152.753 26.3441 149.305 26.3658 148.559 26.8721L148.051 27.217L145.831 24.2298L143.611 21.2426L145.861 18.3393L148.111 15.4361L148.534 15.6941C149.228 16.1171 152.836 16.0758 153.493 15.6371C154.342 15.0701 154.468 14.6238 154.423 12.3371C154.363 9.3018 153.973 8.94405 150.778 9.02205C148.123 9.08655 147.497 9.5958 147.495 11.6966V12.8216L144.226 17.0426L140.958 21.2643V20.3823C140.95 18.2546 140.293 17.7573 137.466 17.7618C134.661 17.7618 134.139 18.1143 134.004 20.0936L133.935 21.1188L130.697 17.0808L127.462 13.0436V11.8181C127.462 9.4338 126.925 8.99655 123.998 8.9973C120.823 8.9973 120.507 9.30705 120.506 12.4076C120.506 14.7011 120.652 15.1241 121.621 15.6371C123.096 16.0436 124.649 16.0792 126.141 15.7406C126.447 15.6303 126.707 15.5396 126.718 15.5381C126.766 15.5336 131.218 21.1158 131.218 21.1811C131.218 21.2201 130.228 22.5573 129.017 24.1503L126.817 27.0483L126.412 26.7528C125.77 26.2848 122.039 26.3028 121.373 26.7821C121.046 27.0337 120.785 27.3602 120.612 27.7339C120.438 28.1077 120.357 28.5177 120.376 28.9293L120.297 29.8706L119.45 28.7906C118.984 28.1965 117.529 26.3501 116.215 24.6866C115.357 23.6578 114.559 22.5794 113.827 21.4571C113.827 21.3438 115.301 19.2731 117.102 16.8558L120.376 12.4601L119.005 10.6938C118.25 9.7188 116.785 7.82805 115.749 6.48405L113.865 4.0398L113.799 2.9358C113.668 0.718801 113.156 0.315302 110.417 0.267302" fill="#CCE4EC"/>
<path fill-rule="evenodd" clip-rule="evenodd" d="M5.15349 10.2475C2.58624 10.9398 0.825241 13.0165 0.825241 15.3475C0.825241 17.4895 1.74024 18.484 5.46924 20.3965C8.71599 22.0615 9.26499 22.7178 9.10149 24.7323C8.80974 28.3225 3.28749 28.0863 1.43574 24.4038C0.314488 22.1733 0.133738 22.2678 0.310738 24.9903C0.474988 27.5403 0.471993 27.5403 2.44674 28.147C8.10024 29.8938 13.0405 26.5458 11.7527 21.841C11.4212 20.6298 9.95273 19.3555 7.25274 17.9298C4.31274 16.3773 3.71574 15.7435 3.71574 14.17C3.71574 10.57 8.48049 10.495 10.138 14.0733C11.1265 16.207 11.455 16.1995 11.287 14.0485C11.212 13.108 11.1535 12.0798 11.1527 11.7633C11.1527 11.0455 10.0825 10.531 7.89024 10.1883C6.17949 9.92278 6.34899 9.91904 5.15199 10.2415M15.0767 13.3405C15.0767 13.4958 15.4945 13.7823 16.006 13.9773L16.9352 14.332V18.481C16.9352 26.7213 18.0767 28.447 23.53 28.447C28.939 28.447 29.9252 27.058 29.9395 19.414L29.9485 14.5113L30.982 13.9863C32.578 13.177 32.3215 13.057 29.002 13.057C25.6825 13.057 25.2835 13.2565 27.2275 13.9608L28.2962 14.3485L28.2925 19.2288C28.2857 26.0778 27.3445 27.5538 23.329 26.9988C20.3402 26.5878 19.948 25.7193 19.87 19.327L19.8077 14.3395L20.7475 13.9803C22.5775 13.2813 22.0045 13.0578 18.382 13.0578C15.7285 13.0578 15.0775 13.1133 15.0775 13.3398M35.113 13.2648C35.113 13.399 35.578 13.7043 36.1465 13.945L37.1792 14.3815V27.0235L36.1465 27.46C34.3907 28.2018 34.7965 28.345 38.6215 28.345C42.5087 28.345 42.9932 28.1583 41.0485 27.4075L39.9647 26.989L39.9062 24.4848L39.8485 21.9798L41.662 21.8455C44.5952 21.6288 46.3427 20.9163 47.2742 19.5565C48.7585 17.3905 48.13 15.001 45.757 13.7868L44.539 13.1635L39.8245 13.0923C36.2995 13.039 35.1107 13.0818 35.1107 13.2648M51.016 13.3323C51.016 13.5123 51.4097 13.795 51.9452 14.0005L52.8745 14.3553V27.0715L51.9452 27.4263C50.0965 28.132 50.6972 28.3443 54.544 28.3443C58.4035 28.3443 58.846 28.1703 56.8345 27.4405L55.7657 27.0535V22.0015L57.9047 21.7855C61.4657 21.4248 63.394 20.149 63.7255 17.9335C63.884 17.0499 63.7277 16.1386 63.2839 15.3583C62.84 14.5779 62.1367 13.9778 61.2962 13.6623C59.8877 13.0353 51.0152 12.7503 51.0152 13.3323M66.7135 13.3413C66.7135 13.4965 67.1312 13.783 67.6427 13.978L68.5712 14.3328V27.0408L67.7065 27.4368C65.8652 28.2813 66.2612 28.3503 72.9947 28.3503H79.312V25.6653C79.312 22.3188 79.0817 22.1905 77.9207 24.8905L77.0995 26.8008L74.281 26.8585L71.4625 26.9155V14.338L72.4952 13.9945C74.5315 13.3195 73.8835 13.0653 70.12 13.0653C67.3787 13.0653 66.712 13.1208 66.712 13.3473M81.787 13.2678C81.787 13.3795 82.201 13.6818 82.708 13.9428C83.458 14.326 84.0842 15.0265 86.1167 17.7738L88.6037 21.1353V26.9343L87.5755 27.3843C85.7455 28.1883 86.1632 28.3518 90.0505 28.3518C93.9122 28.3518 94.2295 28.2288 92.4257 27.4308L91.2895 26.929L91.2955 24.079L91.3022 21.229L93.724 17.821C95.7835 14.923 96.274 14.353 97.024 14.0155C98.623 13.291 98.1955 13.0698 95.1977 13.0698C92.3117 13.0698 91.9607 13.2318 93.3332 13.9293C94.2857 14.4138 94.3037 14.4543 93.8425 15.0865C93.6175 15.3978 92.8442 16.516 92.1295 17.5713C91.7294 18.2559 91.2362 18.8816 90.664 19.4305C90.523 19.378 87.2537 15.1698 86.8607 14.5345C86.7857 14.407 87.0752 14.1738 87.562 13.9795C89.2795 13.2925 88.6757 13.0698 85.0937 13.0698C83.0687 13.0698 81.7892 13.1448 81.7892 13.2723M43.4732 14.9043C46.7147 16.393 45.3017 20.2525 41.476 20.3605L39.9617 20.4033L39.904 17.4595L39.847 14.5165L41.2465 14.5203C42.0069 14.4955 42.7644 14.6261 43.4725 14.9043M59.6417 15.0385C62.3852 16.6593 60.808 20.143 57.1922 20.446L55.762 20.566V14.4633L57.3722 14.557C58.1544 14.5523 58.9284 14.7168 59.641 15.0393" fill="black"/>
<path fill-rule="evenodd" clip-rule="evenodd" d="M176.5 10.2445C176.5 10.36 177.012 10.7042 177.639 11.0117L178.778 11.5697L178.724 19.0127L178.67 26.4565L177.651 26.9725C175.66 27.9805 175.943 28.0503 181.692 27.9618C188.313 27.8605 190.062 27.2687 191.379 24.6865C192.75 22.0007 190.329 18.3168 187.179 18.2958C187.041 18.2958 187.376 18.037 187.923 17.7227C191.46 15.6887 190.947 11.6478 186.994 10.4208C185.579 9.9805 176.494 9.82751 176.494 10.2438M185.484 12.016C188.914 13.7177 187.266 17.884 183.164 17.884H181.659V11.4265L183.174 11.5233C183.966 11.557 184.747 11.7236 185.484 12.016ZM247.268 12.541C241.368 13.3525 238.132 20.2585 241.418 25.0277C243.518 28.0765 248.145 29.1108 252.195 27.436C254.086 26.6545 254.158 26.545 254.16 24.4247V22.5288L254.985 22.0577C256.328 21.2905 256.043 21.1855 252.607 21.1855C249.106 21.1855 248.724 21.3355 250.438 22.051L251.471 22.4807V26.5382L250.697 26.6935C246.159 27.6025 243.074 25.0945 242.839 20.3073C242.539 14.1445 249.606 11.059 252.534 16.0735C253.335 17.4437 254.142 18.0048 253.874 17.0035C253.778 16.3644 253.735 15.7184 253.746 15.0722V13.606L252.972 13.2783C251.175 12.5109 249.201 12.2557 247.268 12.541ZM194.671 12.9235C194.671 13.0563 195.136 13.3615 195.704 13.5985L196.737 14.035V26.677L195.704 27.1135C193.966 27.8477 194.354 27.9985 197.993 27.9985C201.576 27.9985 201.818 27.904 200.343 27.0768L199.526 26.6192L199.468 23.9005L199.41 21.1817H201.178L203.243 24.5822L205.308 27.982L207.529 27.9902C210.004 27.9992 210.234 27.8402 208.804 27.1142C207.578 26.491 203.554 20.6148 204.108 20.2518C205.625 19.2528 206.108 18.7818 206.482 17.935C207.266 16.1628 206.607 14.4527 204.741 13.4192L203.652 12.8193L199.159 12.7502C195.826 12.6985 194.667 12.7435 194.667 12.9228M211.191 12.9062C211.191 13.012 211.586 13.3157 212.069 13.5812L212.947 14.0657L213.001 20.3702L213.056 26.6747L212.123 27.1248C210.591 27.8695 210.923 27.9962 214.392 27.9962C217.942 27.9962 218.342 27.823 216.664 27.0077L215.736 26.5577V14.1618L216.664 13.7118C218.342 12.8965 217.939 12.7225 214.392 12.7225C213.321 12.6541 212.246 12.7184 211.191 12.9138M221.105 13.0157C221.105 13.1762 221.523 13.4658 222.034 13.6638L222.963 14.0185V26.7347L222.034 27.0895C221.523 27.2845 221.105 27.571 221.105 27.7255C221.105 28.0705 228.433 28.135 230.169 27.8057C237.227 26.4677 239.054 16.627 232.794 13.6705C230.806 12.7323 221.106 12.1885 221.106 13.0157M258.597 12.9265C258.528 13.0383 258.918 13.342 259.463 13.6015L260.454 14.0725L260.508 20.3785L260.563 26.6845L259.527 27.1225C257.611 27.9325 258.075 28.009 264.894 28.009H271.298V25.7372C271.298 23.0207 271.148 22.9285 270.115 25.0143L269.348 26.563H263.241V20.7798H267.27L267.685 21.6407C268.443 23.2157 268.612 22.9278 268.612 20.074C268.612 17.2203 268.462 16.924 267.742 18.4045L267.292 19.3338H263.242V14.17H268.813L269.439 15.409C270.375 17.263 270.678 17.086 270.678 14.686V12.7233H264.701C260.996 12.7233 258.675 12.7983 258.597 12.9273M202.66 14.5772C205.465 16.2872 203.769 19.6907 200.088 19.7402L199.413 19.7492V14.173H200.705C201.38 14.1204 202.056 14.2603 202.655 14.5765M229.996 14.5015C232.522 15.2515 233.855 17.5765 233.649 20.8765C233.413 24.6558 231.307 26.5593 227.363 26.5593H225.852V14.167H227.363C228.251 14.174 229.135 14.2858 229.996 14.5M186.93 20.05C187.496 20.2627 187.975 20.6588 188.291 21.1753C188.606 21.6917 188.74 22.2988 188.67 22.9C188.67 25.225 187.215 26.2885 183.745 26.5L181.645 26.6275V19.5422H183.773C185.623 19.5422 186.035 19.609 186.927 20.0537" fill="black"/>
</svg>
