<svg width="84" height="83" viewBox="0 0 84 83" fill="none" xmlns="http://www.w3.org/2000/svg">
<path d="M22.5436 52.947L20.7322 56.0303H15.1639H14.9626H9.39427L7.58287 52.947H0.203125V61.4595H14.9626H15.1639H29.9234V52.947H22.5436Z" fill="#FAFAFA"/>
<path d="M18.3846 28.4822L15.2985 32.973C14.8289 33.6433 15.0302 34.5146 15.634 34.9838C16.3049 35.453 17.177 35.2519 17.6466 34.6487L20.7327 30.1579L18.3846 28.4822Z" fill="#FAFAFA"/>
<path d="M32.2725 17.9589L26.0332 13.6692L20.6662 21.3773L19.3244 20.4389L15.97 25.3319C15.1649 26.4713 15.4332 28.08 16.6408 28.8843L21.0016 31.9005C22.1421 32.7049 23.7522 32.4368 24.5573 31.2303L27.9117 26.3373L26.9054 25.667L32.2725 17.9589Z" fill="#FAFAFA"/>
<path d="M55.0151 12.5298C55.0151 10.9211 55.2835 9.31246 55.686 7.83786H37.9746C36.3645 6.02813 34.0164 4.88867 31.3999 4.88867C26.5696 4.88867 22.6113 8.77624 22.6113 13.6692C22.6113 18.5622 26.5025 22.4498 31.3999 22.4498C34.5531 22.4498 37.3037 20.7741 38.8468 18.2941H56.0885C55.4177 16.4843 55.0151 14.5406 55.0151 12.5298ZM31.467 16.6854C29.7898 16.6854 28.448 15.3449 28.448 13.6692C28.448 11.9935 29.7898 10.653 31.467 10.653C33.1442 10.653 34.486 11.9935 34.486 13.6692C34.486 15.3449 33.1442 16.6854 31.467 16.6854Z" fill="#FAFAFA"/>
<path d="M56.692 42.9601L67.3591 28.2141C63.8034 27.4098 60.7173 25.399 58.5705 22.6509L48.373 36.7266C51.9958 37.4639 55.0148 39.8098 56.692 42.9601Z" fill="#FAFAFA"/>
<path d="M69.1041 72.72H68.9699C67.561 72.72 66.4205 71.5806 66.4205 70.173V63.0681C66.4205 62.3308 65.8167 61.7946 65.1458 61.7946H64.6091L52.4661 44.0995C49.6484 40.0108 43.9458 39.0054 39.9205 42.0216C36.1635 44.8368 35.4256 50.266 38.1091 54.1535L43.2749 61.7276H41.1281C40.3901 61.7276 39.8534 62.3308 39.8534 63.0011V70.106C39.8534 71.5135 38.7129 72.653 37.3041 72.653H36.4319C35.6939 72.653 35.1572 73.2562 35.1572 73.9265V77.0768C35.1572 78.0822 34.3522 78.8195 33.4129 78.8195H28.6496C27.1066 78.8195 25.7648 77.8141 25.2952 76.3395L22.2091 66.3525C21.9408 65.4141 21.0015 64.7438 19.9952 64.7438H15.0977H10.2003C9.19393 64.7438 8.32178 65.4141 7.98634 66.3525L3.89393 79.6238C3.42431 81.0984 4.56482 82.573 6.10786 82.573H15.1648H21.8066H24.1547H36.3648H39.4509H69.3053C69.9762 82.573 70.5129 82.0368 70.5129 81.3665V73.9265C70.4458 73.3233 69.842 72.72 69.1041 72.72ZM49.3129 50.6681C48.8433 51.8076 47.9711 52.6789 46.8306 53.1481C43.2079 54.6227 39.6522 51.0703 41.1281 47.4508C41.5977 46.3114 42.4699 45.44 43.6104 44.9708C47.2332 43.4962 50.7889 47.0487 49.3129 50.6681Z" fill="#FAFAFA"/>
<path d="M71.1153 0.0627441C64.1381 0.0627441 58.4355 5.76004 58.4355 12.7309C58.4355 19.7017 64.1381 25.399 71.1153 25.399C78.0925 25.399 83.795 19.7017 83.795 12.7309C83.795 5.76004 78.0925 0.0627441 71.1153 0.0627441ZM71.1153 17.8249C68.2976 17.8249 65.9495 15.546 65.9495 12.6638C65.9495 9.78166 68.2305 7.50274 71.1153 7.50274C74.0001 7.50274 76.2811 9.78166 76.2811 12.6638C76.2811 15.546 74.0001 17.8249 71.1153 17.8249Z" fill="#FAFAFA"/>
<path d="M72.1212 28.6834C71.5845 30.6272 68.5655 39.1396 57.8984 46.1104C57.9655 46.3115 57.9655 46.7136 58.0326 46.9147C60.9174 45.172 70.1757 38.8715 72.8592 28.5493C72.5908 28.6163 72.3225 28.6834 72.1212 28.6834Z" fill="#FAFAFA"/>
<path d="M57.1619 20.5731C54.948 20.9083 48.7087 21.5115 39.9201 19.0315C39.7859 19.2326 39.6518 19.4337 39.5176 19.6347C40.4568 19.9699 49.5809 22.9191 57.5644 21.2434C57.4302 20.9753 57.2961 20.7742 57.1619 20.5731Z" fill="#FAFAFA"/>
</svg>
