<svg width="14" height="13" viewBox="0 0 14 13" fill="none" xmlns="http://www.w3.org/2000/svg">
<path d="M13.214 1.86668L9.21399 0.533349H9.16732C9.13629 0.530231 9.10502 0.530231 9.07399 0.533349H8.92065H8.83399H8.78732L5.00065 1.83335L1.21399 0.533349C1.11373 0.500291 1.00706 0.491513 0.902743 0.507739C0.798431 0.523966 0.699464 0.564732 0.613987 0.626683C0.527826 0.688027 0.457497 0.768992 0.40881 0.862888C0.360123 0.956783 0.334476 1.06092 0.333987 1.16668V10.5C0.333626 10.6398 0.377199 10.7761 0.458548 10.8898C0.539897 11.0034 0.654906 11.0886 0.78732 11.1334L4.78732 12.4667C4.92162 12.5105 5.06635 12.5105 5.20065 12.4667L9.00065 11.2L12.7873 12.5C12.8581 12.5096 12.9299 12.5096 13.0007 12.5C13.14 12.502 13.2761 12.4574 13.3873 12.3734C13.4735 12.312 13.5438 12.231 13.5925 12.1371C13.6412 12.0432 13.6668 11.9391 13.6673 11.8334V2.50002C13.6677 2.36025 13.6241 2.22391 13.5428 2.11026C13.4614 1.99661 13.3464 1.91141 13.214 1.86668ZM4.33399 10.9067L1.66732 10.02V2.09335L4.33399 2.98002V10.9067ZM8.33399 10.02L5.66732 10.9067V2.98002L8.33399 2.09335V10.02ZM12.334 10.9067L9.66732 10.02V2.09335L12.334 2.98002V10.9067Z" fill="#6B7280"/>
</svg>
