<svg width="54" height="67" viewBox="0 0 54 67" fill="none" xmlns="http://www.w3.org/2000/svg">
<path d="M35.9897 11.6262H18.0078V14.3429H35.9897V11.6262Z" fill="#08979C"/>
<path d="M25.252 1.34142V13.7606C25.252 14.4074 25.7694 14.9249 26.4163 14.9249H27.6452C28.2921 14.9249 28.8095 14.4074 28.8095 13.7606V1.34142C28.8095 0.694588 28.2921 0.177124 27.6452 0.177124H26.4163C25.7694 0.177124 25.252 0.694588 25.252 1.34142Z" fill="#08979C"/>
<path d="M35.6665 36.8531C36.9525 36.8531 37.9951 35.7237 37.9951 34.3305C37.9951 32.9373 36.9525 31.8079 35.6665 31.8079C34.3804 31.8079 33.3379 32.9373 33.3379 34.3305C33.3379 35.7237 34.3804 36.8531 35.6665 36.8531Z" fill="#08979C"/>
<path d="M44.3349 13.6309H26.9998H9.66475C8.95324 13.6309 8.37109 14.2131 8.37109 14.9246V15.3127C8.37109 15.7655 8.62983 16.2182 9.08261 16.4123L11.9287 17.9C12.3168 18.094 12.6402 18.5468 12.6402 18.9996V20.2933C12.6402 20.2933 14.2573 20.2933 14.8394 20.2933V17.4472H25.7062V20.2933C25.9649 20.2933 27.0645 20.2933 27.0645 20.2933H28.4228V17.4472H39.2896V20.2933H41.4888V18.9996C41.4888 18.5468 41.7476 18.094 42.2003 17.9L45.0464 16.4123C45.4345 16.2182 45.7579 15.7655 45.7579 15.3127V14.9246C45.5639 14.2131 44.9817 13.6309 44.3349 13.6309Z" fill="#08979C"/>
<path d="M33.1434 5.48125H20.8536C20.5302 5.48125 20.2715 5.22251 20.2715 4.8991V4.31695C20.2715 3.99354 20.5302 3.7348 20.8536 3.7348H33.1434C33.4668 3.7348 33.7256 3.99354 33.7256 4.31695V4.8991C33.7256 5.22251 33.4668 5.48125 33.1434 5.48125Z" fill="#08979C"/>
<path d="M31.1387 8.13346H22.9239C22.6005 8.13346 22.3418 7.87473 22.3418 7.55132V6.96917C22.3418 6.64575 22.6005 6.38702 22.9239 6.38702H31.1387C31.4621 6.38702 31.7208 6.64575 31.7208 6.96917V7.55132C31.6562 7.87473 31.3974 8.13346 31.1387 8.13346Z" fill="#08979C"/>
<path d="M26.998 22.2341C34.2425 23.8511 39.8699 26.1797 44.0743 28.3143V22.1047C44.0743 21.0698 43.2334 20.2936 42.2632 20.2936H11.7975C10.7625 20.2936 9.98633 21.1345 9.98633 22.1047V28.3143C14.126 26.1797 19.7535 23.8511 26.998 22.2341Z" fill="#08979C"/>
<path d="M18.2665 57.8737C18.4605 57.6797 18.7839 57.6797 18.978 57.8737C20.401 59.5555 26.5459 65.7004 34.9547 57.8737C35.1487 57.6797 35.4722 57.6797 35.6662 57.9384C36.3777 58.7793 38.0595 60.5904 40.5821 61.3666L53.0013 35.5581C53.0013 35.5581 44.5925 27.408 26.9987 23.527C9.40489 27.4727 0.996094 35.5581 0.996094 35.5581L13.3506 61.1726C14.8383 60.5904 16.52 59.5555 18.2665 57.8737ZM35.6662 29.9307C37.8654 29.9307 39.6766 31.9358 39.6766 34.3291C39.6766 36.7871 37.8654 38.7276 35.6662 38.7276C33.467 38.7276 31.6559 36.7224 31.6559 34.3291C31.6559 31.8712 33.4023 29.9307 35.6662 29.9307Z" fill="#08979C"/>
<path d="M50.3508 60.9793C43.4297 66.8008 38.1257 62.7904 36.1852 60.7206C35.7324 60.2031 34.8915 60.2031 34.374 60.6559C31.6574 63.0492 29.1347 63.89 27.0002 64.0194C24.8656 63.9547 22.4077 63.0492 19.6263 60.6559C19.1088 60.2031 18.268 60.2031 17.8152 60.7206C15.8747 62.7904 10.6354 66.8008 3.64959 60.9793C3.06745 60.5265 2.22656 60.9146 2.22656 61.6261C2.22656 61.8849 2.29125 62.0789 2.4853 62.273C9.98853 69.5821 15.6806 65.1837 17.7505 63.0492C18.2033 62.5317 19.0442 62.5317 19.5616 62.9845C22.2783 65.3777 24.8009 66.2186 26.9355 66.348C29.07 66.2833 31.528 65.3777 34.3094 62.9845C34.8268 62.5317 35.6677 62.5317 36.1205 63.0492C38.1903 65.1837 43.8825 69.5821 51.3857 62.273C51.5797 62.1436 51.6444 61.8849 51.6444 61.6261C51.7738 60.9146 50.9329 60.5265 50.3508 60.9793Z" fill="#08979C"/>
</svg>
