<svg width="33" height="33" viewBox="0 0 33 33" fill="none" xmlns="http://www.w3.org/2000/svg">
<path d="M16.8751 32.2505C13.155 32.2481 9.55007 30.9599 6.67098 28.6041C3.79189 26.2482 1.81565 22.9696 1.07702 19.3236C0.338382 15.6775 0.882772 11.8882 2.61797 8.59761C4.35316 5.30698 7.17248 2.7173 10.5984 1.26726C14.538 -0.391993 18.9753 -0.419434 22.9352 1.19097C26.8951 2.80137 30.0537 5.91789 31.7172 9.85581C33.3806 13.7937 33.4128 18.2309 31.8066 22.1925C30.2004 26.1542 27.0872 29.3161 23.1511 30.9838C21.1656 31.8239 19.031 32.2547 16.8751 32.2505V32.2505ZM12.8739 9.32601C12.7538 9.3264 12.6343 9.34075 12.5176 9.36876C12.2176 9.45951 12.1524 9.51426 11.3251 10.3438C10.2916 11.3765 10.2189 11.5108 10.2159 12.3823C10.2159 14.2573 11.7061 16.8883 14.1091 19.2575C15.1485 20.2974 16.3129 21.2043 17.5756 21.9575C18.5441 22.5863 19.6557 22.9601 20.8074 23.0443C21.1662 23.0512 21.5221 22.9771 21.8484 22.8275C22.5526 22.2766 23.1904 21.6456 23.7489 20.9473C23.8467 20.7548 23.8994 20.5426 23.9029 20.3267C23.9064 20.1109 23.8607 19.897 23.7691 19.7015C23.0688 18.8635 22.3094 18.0767 21.4966 17.3473C21.2693 17.1786 20.9936 17.0879 20.7106 17.0885C20.5293 17.0886 20.3499 17.1259 20.1835 17.198C20.0171 17.2701 19.8672 17.3755 19.7431 17.5078C19.6261 17.6458 19.5361 17.8045 19.4776 17.9758C19.3547 18.2889 19.113 18.5407 18.8052 18.6764C18.4974 18.8121 18.1484 18.8207 17.8343 18.7003C16.1378 18.1318 14.1743 15.7888 14.4458 14.6563C14.494 14.4709 14.5817 14.2981 14.7028 14.1497C14.824 14.0014 14.9758 13.881 15.1479 13.7968C15.3818 13.7214 15.596 13.5948 15.7749 13.4263C15.9697 13.2259 16.0948 12.9681 16.1318 12.6911C16.1688 12.4141 16.1157 12.1325 15.9803 11.888C15.2868 11.095 14.5518 10.3392 13.7784 9.62376C13.5161 9.43092 13.1993 9.32663 12.8739 9.32601V9.32601Z" fill="white"/>
</svg>
