<svg width="17" height="16" viewBox="0 0 17 16" fill="none" xmlns="http://www.w3.org/2000/svg">
<path fill-rule="evenodd" clip-rule="evenodd" d="M6.12341 11.0138L5.83221 14.9005C5.81174 15.1736 6.05454 15.3617 6.27171 15.24C7.80931 14.3787 12.6258 11.2153 15.0669 4.26263C15.1789 3.9437 14.8781 3.6559 14.6212 3.8358C13.1792 4.84563 10.0279 6.93287 8.08038 7.33043C8.08038 7.33043 9.32754 6.4642 10.074 5.13443C10.1472 5.00407 10.1411 4.8372 10.0595 4.71953L7.33724 0.795742C7.17591 0.563145 6.84481 0.659515 6.78654 0.955998L5.93904 5.2684L1.96113 8.7402C1.76168 8.9142 1.80237 9.26587 2.03264 9.359L6.12341 11.0138Z" fill="#08979C"/>
<path fill-rule="evenodd" clip-rule="evenodd" d="M13.1578 9.4836C12.9059 9.8351 12.3633 10.5582 11.8622 11.0001C11.762 11.0884 11.7755 11.2366 11.8905 11.3087L14.5378 12.9706C14.6972 13.0706 14.9125 12.9519 14.8855 12.7784C14.7624 11.9842 14.4076 10.3282 13.5106 9.459C13.4104 9.36196 13.2377 9.37216 13.1578 9.4836Z" fill="#08979C"/>
</svg>
