<svg width="101" height="101" viewBox="0 0 101 101" fill="none" xmlns="http://www.w3.org/2000/svg">
<path opacity="0.47" d="M50.7593 1.5C41.0167 1.5 31.4929 4.389 23.3923 9.80168C15.2917 15.2144 8.97797 22.9076 5.24966 31.9086C1.52134 40.9095 0.545846 50.8139 2.44652 60.3693C4.3472 69.9246 9.03869 78.7018 15.9277 85.5908C22.8168 92.4798 31.5939 97.1713 41.1493 99.072C50.7046 100.973 60.609 99.9972 69.61 96.2689C78.6109 92.5405 86.3042 86.2269 91.7168 78.1262C97.1295 70.0256 100.019 60.5018 100.019 50.7593C100.019 37.6949 94.8287 25.1656 85.5908 15.9277C76.3529 6.6898 63.8236 1.5 50.7593 1.5Z" fill="#3F3D56"/>
<path d="M50.7593 1.5C41.0167 1.5 31.4929 4.389 23.3923 9.80168C15.2917 15.2144 8.97798 22.9076 5.24966 31.9086C1.52134 40.9095 0.545846 50.8139 2.44652 60.3693C4.3472 69.9246 9.03869 78.7018 15.9277 85.5908C22.8168 92.4798 31.5939 97.1713 41.1493 99.072C50.7046 100.973 60.609 99.9972 69.61 96.2689C78.6109 92.5405 86.3042 86.2269 91.7168 78.1262C97.1295 70.0256 100.019 60.5018 100.019 50.7593C100.019 37.6949 94.8287 25.1656 85.5908 15.9277C76.3529 6.6898 63.8236 1.5 50.7593 1.5Z" stroke="white" stroke-width="1.5"/>
<path d="M69.679 50.0737L41.9995 31.2007C41.81 31.0725 41.5893 30.9983 41.3609 30.986C41.1325 30.9736 40.9051 31.0237 40.703 31.1307C40.5008 31.2377 40.3316 31.3978 40.2135 31.5936C40.0953 31.7894 40.0327 32.0137 40.0322 32.2424V69.9832C40.0332 70.2117 40.0963 70.4356 40.2146 70.631C40.333 70.8264 40.5023 70.9859 40.7043 71.0926C40.9063 71.1993 41.1335 71.2491 41.3617 71.2366C41.5898 71.2242 41.8103 71.15 41.9995 71.0219L69.679 52.1512C69.8477 52.0354 69.9858 51.8802 70.0811 51.6991C70.1765 51.518 70.2263 51.3164 70.2263 51.1117C70.2263 50.907 70.1765 50.7054 70.0811 50.5243C69.9858 50.3432 69.8477 50.188 69.679 50.0722V50.0737Z" fill="white"/>
</svg>
