<svg width="50" height="60" viewBox="0 0 50 60" fill="none" xmlns="http://www.w3.org/2000/svg">
<path d="M40.8 17.4414C37.1319 17.4414 34.1895 20.3839 34.1895 24.0519C34.1895 27.7199 37.1319 30.6624 40.8 30.6624C44.468 30.6624 47.4105 27.7199 47.4105 24.0519C47.4105 20.4242 44.4277 17.4414 40.8 17.4414ZM40.8 28.0424C38.6233 28.0424 36.8498 26.2688 36.8498 24.0922C36.8498 21.9156 38.6233 20.142 40.8 20.142C42.9766 20.142 44.7501 21.9156 44.7501 24.0922C44.7501 26.2688 42.9766 28.0424 40.8 28.0424Z" fill="#08979C"/>
<path d="M40.7995 20.5859C38.8647 20.5859 37.333 22.1579 37.333 24.0524C37.333 25.9469 38.905 27.5189 40.7995 27.5189C42.7343 27.5189 44.266 25.9469 44.266 24.0524C44.266 22.1579 42.7343 20.5859 40.7995 20.5859ZM40.7995 25.9872C39.7515 25.9872 38.905 25.1407 38.905 24.0927C38.905 23.0447 39.7515 22.1983 40.7995 22.1983C41.8475 22.1983 42.694 23.0447 42.694 24.0927C42.694 25.1004 41.8475 25.9872 40.7995 25.9872Z" fill="#08979C"/>
<path d="M21.8201 30.9023C14.5646 30.9023 8.67969 36.7873 8.67969 44.0427C8.67969 51.2982 14.5646 57.1831 21.8201 57.1831C29.0755 57.1831 34.9605 51.2982 34.9605 44.0427C34.9605 36.7873 29.1158 30.9023 21.8201 30.9023ZM21.8201 53.7166C16.4994 53.7166 12.1865 49.4037 12.1865 44.083C12.1865 38.7624 16.4994 34.4494 21.8201 34.4494C27.1407 34.4494 31.4537 38.7624 31.4537 44.083C31.4537 49.4037 27.1407 53.7166 21.8201 53.7166Z" fill="#08979C"/>
<path d="M21.8208 34.8945C16.7823 34.8945 12.6709 39.0059 12.6709 44.0444C12.6709 49.0829 16.7823 53.1943 21.8208 53.1943C26.8593 53.1943 30.9707 49.0829 30.9707 44.0444C31.011 39.0059 26.8996 34.8945 21.8208 34.8945ZM21.8208 52.7106C17.0645 52.7106 13.1949 48.8411 13.1949 44.0847C13.1949 39.3284 17.0645 35.4588 21.8208 35.4588C26.5771 35.4588 30.4467 39.3284 30.4467 44.0847C30.487 48.8411 26.6174 52.7106 21.8208 52.7106Z" fill="#08979C"/>
<path d="M21.8204 47.0256C23.4455 47.0256 24.7629 45.7082 24.7629 44.0831C24.7629 42.458 23.4455 41.1406 21.8204 41.1406C20.1953 41.1406 18.8779 42.458 18.8779 44.0831C18.8779 45.7082 20.1953 47.0256 21.8204 47.0256Z" fill="#08979C"/>
<path d="M21.824 36.0625C17.3901 36.0625 13.8027 39.6499 13.8027 44.0838C13.8027 48.5177 17.3901 52.1051 21.824 52.1051C26.2579 52.1051 29.8453 48.5177 29.8453 44.0838C29.8453 39.6499 26.2579 36.0625 21.824 36.0625ZM25.0083 39.2871C25.4517 38.8437 26.1773 38.8437 26.6207 39.2871C27.0641 39.7305 27.0641 40.4561 26.6207 40.8995C26.1773 41.3428 25.4517 41.3428 25.0083 40.8995C24.565 40.4561 24.565 39.7305 25.0083 39.2871ZM21.824 37.312C22.4286 37.312 22.9526 37.8361 22.9526 38.4407C22.9526 39.0453 22.4286 39.5693 21.824 39.5693C21.2194 39.5693 20.6954 39.0453 20.6954 38.4407C20.6954 37.8361 21.2194 37.312 21.824 37.312ZM17.0677 39.2871C17.5111 38.8437 18.2366 38.8437 18.68 39.2871C19.1234 39.7305 19.1234 40.4561 18.68 40.8995C18.2366 41.3428 17.5111 41.3428 17.0677 40.8995C16.6243 40.4561 16.6243 39.7305 17.0677 39.2871ZM15.0926 44.0838C15.0926 43.4792 15.6166 42.9552 16.2212 42.9552C16.8258 42.9552 17.3498 43.4792 17.3498 44.0838C17.3498 44.6884 16.8258 45.2124 16.2212 45.2124C15.6166 45.2124 15.0926 44.6884 15.0926 44.0838ZM18.6397 48.8401C18.1963 49.2835 17.4708 49.2835 17.0274 48.8401C16.584 48.3967 16.584 47.6712 17.0274 47.2278C17.4708 46.7844 18.1963 46.7844 18.6397 47.2278C19.0831 47.7115 19.0831 48.3967 18.6397 48.8401ZM21.824 50.8152C21.2194 50.8152 20.6954 50.2912 20.6954 49.6866C20.6954 49.082 21.2194 48.558 21.824 48.558C22.4286 48.558 22.9526 49.082 22.9526 49.6866C22.9526 50.2912 22.4689 50.8152 21.824 50.8152ZM21.824 47.4696C19.9295 47.4696 18.3978 45.9379 18.3978 44.0435C18.3978 42.149 19.9295 40.6173 21.824 40.6173C23.7185 40.6173 25.2502 42.149 25.2502 44.0435C25.2502 45.9379 23.7185 47.4696 21.824 47.4696ZM26.6207 48.8401C26.1773 49.2835 25.4517 49.2835 25.0083 48.8401C24.565 48.3967 24.565 47.6712 25.0083 47.2278C25.4517 46.7844 26.1773 46.7844 26.6207 47.2278C27.0641 47.6712 27.0641 48.3967 26.6207 48.8401ZM27.4671 45.2124C26.8625 45.2124 26.3385 44.6884 26.3385 44.0838C26.3385 43.4792 26.8625 42.9552 27.4671 42.9552C28.0717 42.9552 28.5957 43.4792 28.5957 44.0838C28.5957 44.6884 28.0717 45.2124 27.4671 45.2124Z" fill="#08979C"/>
<path d="M42.2683 33.1523C42.6295 32.4892 41.9363 31.6406 41.1851 31.7177C40.9039 31.7466 40.6357 31.9036 40.5005 32.1518L37.4159 37.8154C36.3745 39.7273 36.2039 41.9492 36.2039 44.1264C36.2039 44.1689 36.2606 44.1834 36.281 44.146L42.2683 33.1523Z" fill="#08979C"/>
<path d="M11.2935 3.17188C6.41627 3.17188 2.42578 7.12205 2.42578 12.0396C2.42578 16.9169 6.37596 20.9074 11.2935 20.9074C16.1708 20.9074 20.1613 16.9572 20.1613 12.0396C20.1613 7.12205 16.2111 3.17188 11.2935 3.17188ZM11.2935 18.5695C7.70612 18.5695 4.76364 15.627 4.76364 12.0396C4.76364 8.45222 7.70612 5.50974 11.2935 5.50974C14.8809 5.50974 17.8234 8.45222 17.8234 12.0396C17.8234 15.627 14.9212 18.5695 11.2935 18.5695Z" fill="#08979C"/>
<path d="M11.2938 5.91016C7.90793 5.91016 5.16699 8.6511 5.16699 12.037C5.16699 15.4228 7.90793 18.1638 11.2938 18.1638C14.6797 18.1638 17.4206 15.4228 17.4206 12.037C17.4206 8.6511 14.6797 5.91016 11.2938 5.91016ZM11.2938 17.8413C8.06917 17.8413 5.44915 15.2213 5.44915 11.9967C5.44915 8.77202 8.06917 6.19231 11.2938 6.19231C14.5184 6.19231 17.1385 8.81233 17.1385 12.037C17.1385 15.2616 14.5184 17.8413 11.2938 17.8413Z" fill="#08979C"/>
<path d="M11.294 14.0958C12.4293 14.0958 13.3497 13.1754 13.3497 12.0401C13.3497 10.9047 12.4293 9.98438 11.294 9.98438C10.1587 9.98438 9.23828 10.9047 9.23828 12.0401C9.23828 13.1754 10.1587 14.0958 11.294 14.0958Z" fill="#08979C"/>
<path d="M11.2956 6.47656C8.23222 6.47656 5.77344 8.97566 5.77344 11.9988C5.77344 15.0218 8.27253 17.5209 11.2956 17.5209C14.3187 17.5209 16.8178 15.0218 16.8178 11.9988C16.8178 8.97566 14.359 6.47656 11.2956 6.47656ZM11.2956 7.32303C11.739 7.32303 12.1018 7.6858 12.1018 8.12919C12.1018 8.57257 11.739 8.93535 11.2956 8.93535C10.8522 8.93535 10.4895 8.57257 10.4895 8.12919C10.4895 7.6858 10.8522 7.32303 11.2956 7.32303ZM7.42606 12.8452C6.98268 12.8452 6.6199 12.4824 6.6199 12.0391C6.6199 11.5957 6.98268 11.2329 7.42606 11.2329C7.86945 11.2329 8.23222 11.5957 8.23222 12.0391C8.23222 12.4824 7.86945 12.8452 7.42606 12.8452ZM11.2956 16.7148C10.8522 16.7148 10.4895 16.352 10.4895 15.9086C10.4895 15.4652 10.8522 15.1025 11.2956 15.1025C11.739 15.1025 12.1018 15.4652 12.1018 15.9086C12.1018 16.352 11.739 16.7148 11.2956 16.7148ZM11.2956 14.3366C10.0058 14.3366 8.95777 13.2886 8.95777 11.9988C8.95777 10.7089 10.0058 9.66089 11.2956 9.66089C12.5855 9.66089 13.6335 10.7089 13.6335 11.9988C13.6335 13.2886 12.5855 14.3366 11.2956 14.3366ZM15.1652 12.8452C14.7218 12.8452 14.359 12.4824 14.359 12.0391C14.359 11.5957 14.7218 11.2329 15.1652 11.2329C15.6086 11.2329 15.9713 11.5957 15.9713 12.0391C16.0117 12.4824 15.6489 12.8452 15.1652 12.8452Z" fill="#08979C"/>
<path d="M22.4309 8.5617C21.7237 8.23106 20.8668 9.09837 21.0747 9.85088C21.1384 10.0814 21.2978 10.2856 21.5144 10.3868L36.295 17.2973C36.5413 17.4124 36.8191 17.3967 37.0568 17.2648C37.7243 16.8942 37.8215 15.7569 37.1299 15.4335L22.4309 8.5617Z" fill="#08979C"/>
<path d="M5.87437 20.0519C5.24416 19.6323 4.04419 20.2558 4.18736 20.9992L7.31005 37.2143C7.46166 38.0015 8.85837 38.0848 9.23475 37.3769C9.31581 37.2244 9.34107 37.0559 9.30876 36.8862L6.19227 20.5247C6.1552 20.3301 6.03929 20.1617 5.87437 20.0519Z" fill="#08979C"/>
<path d="M11.296 0.753906C5.04826 0.753906 0.00976562 5.7924 0.00976562 12.0401C0.00976562 12.1611 0.0903815 12.2417 0.211305 12.2417C0.332229 12.2417 0.412845 12.1611 0.412845 12.0401C0.412845 6.03425 5.29011 1.15699 11.296 1.15699C11.4169 1.15699 11.4975 1.07637 11.4975 0.955446C11.4975 0.834522 11.4169 0.753906 11.296 0.753906Z" fill="#08979C"/>
<path d="M21.9 59.2011H21.8596C13.4756 59.2011 6.70386 52.389 6.70386 44.0453C6.70386 43.9244 6.62324 43.8438 6.50232 43.8438C6.3814 43.8438 6.30078 43.9244 6.30078 44.0453C6.30078 52.6712 13.2741 59.6445 21.9 59.6445H21.9403C22.0612 59.6445 22.1418 59.5639 22.1418 59.4429C22.1418 59.322 22.0209 59.2011 21.9 59.2011Z" fill="#08979C"/>
<path d="M40.598 14.8203C40.4771 14.8203 40.3965 14.9009 40.3965 15.0219C40.3965 15.1428 40.4771 15.2234 40.598 15.2234C45.435 15.2234 49.3448 19.1333 49.3448 23.9702C49.3448 24.0911 49.4255 24.1718 49.5464 24.1718C49.6673 24.1718 49.7479 24.0911 49.7479 23.9702C49.7479 18.8914 45.6365 14.8203 40.598 14.8203Z" fill="#08979C"/>
</svg>
