<svg width="82" height="82" viewBox="0 0 82 82" fill="none" xmlns="http://www.w3.org/2000/svg">
<rect width="82" height="82" rx="41" fill="#E6F5F5"/>
<path d="M36.6436 15.6402C36.7477 15.6402 36.8865 15.6402 36.9907 15.6055" stroke="#08979C" stroke-miterlimit="10"/>
<path d="M37.6847 15.5699C38.0318 15.5699 38.3789 15.5352 38.6913 15.5352C53.5131 15.5352 65.5233 27.5453 65.5233 42.3671C65.5233 57.1889 53.5131 69.1991 38.6913 69.1991C23.8695 69.1991 11.8594 57.1889 11.8594 42.3671C11.8594 34.9736 14.8446 28.2743 19.6695 23.4147" stroke="#08979C" stroke-miterlimit="10" stroke-dasharray="2 2"/>
<path d="M19.9473 23.2059C20.0167 23.1364 20.1208 23.0323 20.1902 22.9629" stroke="#08979C" stroke-miterlimit="10"/>
<path d="M57.9208 16.4386L54.9009 13.6964L53.5818 13.627L52.1934 15.1543L56.7406 19.2849L58.129 17.7229L57.9208 16.4386Z" fill="#08979C"/>
<path d="M55.0745 19.2851L55.6993 18.6256L53.0265 16.2305L51.7422 17.6536L55.0745 19.2851Z" fill="#08979C"/>
<path d="M51.1522 18.2793L50.458 19.0429L53.825 20.7091L54.5192 19.9107L51.1522 18.2793Z" fill="#08979C"/>
<path d="M48.5838 21.0898L48.3755 21.3675L48.3408 22.4436L49.9723 23.9015L51.0483 23.7626L51.9508 22.756L48.5838 21.0898Z" fill="#08979C"/>
<path d="M52.5408 22.131L53.2351 21.3326L49.8681 19.7012L49.1738 20.4648L52.5408 22.131Z" fill="#08979C"/>
<path d="M41.4336 56.3555V61.4928C41.4336 62.5688 42.3014 63.4713 43.4121 63.4713H43.1345V65.4846C43.1345 65.9011 43.4816 66.2482 43.8981 66.2482C44.3146 66.2482 44.6618 65.9011 44.6618 65.4846V63.4713H44.3841C45.4601 63.4713 46.3626 62.6035 46.3626 61.4928V56.3555H41.4336Z" fill="#08979C"/>
<path d="M47.0568 52.7461H45.6336V52.3295H45.9808C46.2237 52.3295 46.3973 52.156 46.3973 51.913V51.0799C46.3973 50.8369 46.2237 50.6634 45.9808 50.6634H45.4948V46.6369C45.4948 46.3592 45.2865 46.1509 45.0088 46.1509H44.4535C44.4535 46.1162 44.4882 46.0815 44.4882 46.0468V45.3178C44.4882 45.1095 44.3146 44.9707 44.1411 44.9707H43.7592C43.551 44.9707 43.4121 45.1443 43.4121 45.3178V46.0468C43.4121 46.0815 43.4121 46.1162 43.4468 46.1509H42.4055V46.8451H43.5163V47.3658H42.4055V47.6435H43.5163V48.1642H42.4055V48.4418H43.5163V48.9625H42.4055V49.2402H43.5163V49.7609H42.4055V50.6634H41.8848C41.6418 50.6634 41.4683 50.8369 41.4683 51.0799V51.913C41.4683 52.156 41.6418 52.3295 41.8848 52.3295H42.2319V52.7461H40.8088C40.5311 52.7461 40.2881 52.9891 40.2881 53.2667V55.4189C40.2881 55.6965 40.5311 55.9395 40.8088 55.9395H47.161C47.4386 55.9395 47.6816 55.6965 47.6816 55.4189V53.2667C47.5775 52.9891 47.3345 52.7461 47.0568 52.7461Z" fill="#08979C"/>
<path d="M43.273 24.0735C43.273 23.9694 43.1689 23.8652 43.0647 23.8652C42.9606 23.8652 42.8564 23.9694 42.8564 24.0735V26.0521H43.2383L43.273 24.0735Z" fill="#08979C"/>
<path d="M45.2515 24.386C45.2515 24.2819 45.1474 24.1777 45.0432 24.1777C44.9391 24.1777 44.835 24.2819 44.835 24.386V26.0522H45.2168L45.2515 24.386Z" fill="#08979C"/>
<path d="M47.2652 24.0735C47.2652 23.9694 47.161 23.8652 47.0569 23.8652C46.9528 23.8652 46.8486 23.9694 46.8486 24.0735V26.0521H47.2305L47.2652 24.0735Z" fill="#08979C"/>
<path d="M49.2779 24.386C49.2779 24.2819 49.1737 24.1777 49.0696 24.1777C48.9655 24.1777 48.8613 24.2819 48.8613 24.386V26.0522H49.2432L49.2779 24.386Z" fill="#08979C"/>
<path d="M48.8965 40.2149C48.8965 40.319 49.0006 40.4232 49.1047 40.4232C49.2089 40.4232 49.313 40.319 49.313 40.2149V38.2363H48.9312L48.8965 40.2149Z" fill="#08979C"/>
<path d="M46.8828 39.9025C46.8828 40.0066 46.9869 40.1107 47.0911 40.1107C47.1952 40.1107 47.2993 40.0066 47.2993 39.9025V38.2363H46.8828V39.9025Z" fill="#08979C"/>
<path d="M44.8691 40.2149C44.8691 40.319 44.9733 40.4232 45.0774 40.4232C45.1815 40.4232 45.2857 40.319 45.2857 40.2149V38.2363H44.9039L44.8691 40.2149Z" fill="#08979C"/>
<path d="M42.8564 39.9025C42.8564 40.0066 42.9606 40.1107 43.0647 40.1107C43.1689 40.1107 43.273 40.0066 43.273 39.9025V38.2363H42.8912L42.8564 39.9025Z" fill="#08979C"/>
<path d="M54.1387 29.315C54.2428 29.315 54.347 29.2108 54.347 29.1067C54.347 29.0026 54.2428 28.8984 54.1387 28.8984H52.1602V29.2803L54.1387 29.315Z" fill="#08979C"/>
<path d="M53.8263 31.3286C53.9304 31.3286 54.0346 31.2245 54.0346 31.1204C54.0346 31.0162 53.9304 30.9121 53.8263 30.9121H52.1602V31.2939L53.8263 31.3286Z" fill="#08979C"/>
<path d="M54.1387 33.3423C54.2428 33.3423 54.347 33.2382 54.347 33.134C54.347 33.0299 54.2428 32.9258 54.1387 32.9258H52.1602V33.3423H54.1387Z" fill="#08979C"/>
<path d="M53.8263 35.354C53.9304 35.354 54.0346 35.2499 54.0346 35.1458C54.0346 35.0416 53.9304 34.9375 53.8263 34.9375H52.1602V35.3193L53.8263 35.354Z" fill="#08979C"/>
<path d="M37.9973 34.9727C37.8932 34.9727 37.7891 35.0768 37.7891 35.1809C37.7891 35.2851 37.8932 35.3892 37.9973 35.3892H39.9759V35.0074L37.9973 34.9727Z" fill="#08979C"/>
<path d="M38.3098 32.9609C38.2057 32.9609 38.1016 33.0651 38.1016 33.1692C38.1016 33.2733 38.2057 33.3775 38.3098 33.3775H39.976V32.9956L38.3098 32.9609Z" fill="#08979C"/>
<path d="M37.9973 30.9473C37.8932 30.9473 37.7891 31.0514 37.7891 31.1555C37.7891 31.2597 37.8932 31.3638 37.9973 31.3638H39.9759V30.982L37.9973 30.9473Z" fill="#08979C"/>
<path d="M38.3098 28.9336C38.2057 28.9336 38.1016 29.0377 38.1016 29.1419C38.1016 29.246 38.2057 29.3501 38.3098 29.3501H39.976V28.9683L38.3098 28.9336Z" fill="#08979C"/>
<path d="M50.077 26.5371H42.0586C41.1909 26.5371 40.4619 27.266 40.4619 28.1338V36.1522C40.4619 37.02 41.1909 37.7489 42.0586 37.7489H50.077C50.9448 37.7489 51.6737 37.02 51.6737 36.1522V28.1338C51.6737 27.266 50.9448 26.5371 50.077 26.5371ZM49.4175 34.486C49.4175 35.0414 48.9662 35.458 48.4456 35.458H43.7248C43.1694 35.458 42.7529 35.0067 42.7529 34.486V29.8C42.7529 29.2446 43.2041 28.8281 43.7248 28.8281H48.4456C49.0009 28.8281 49.4175 29.2793 49.4175 29.8V34.486ZM50.3894 28.2033C50.1811 28.2033 50.0076 28.0297 50.0076 27.8214C50.0076 27.6132 50.1811 27.4396 50.3894 27.4396C50.5977 27.4396 50.7712 27.6132 50.7712 27.8214C50.7712 28.0297 50.5977 28.2033 50.3894 28.2033Z" fill="#08979C"/>
<path d="M48.2018 29.1406H43.9322C43.4463 29.1406 43.0645 29.5225 43.0645 30.0084V34.2779C43.0645 34.7639 43.4463 35.1457 43.9322 35.1457H48.2018C48.6877 35.1457 49.0695 34.7639 49.0695 34.2779V30.0084C49.0695 29.5225 48.6877 29.1406 48.2018 29.1406ZM48.9307 34.1391C48.9307 34.625 48.5489 35.0069 48.0629 35.0069H44.0711C43.5851 35.0069 43.2033 34.625 43.2033 34.1391V30.1473C43.2033 29.6613 43.5851 29.2795 44.0711 29.2795H48.0629C48.5489 29.2795 48.9307 29.6613 48.9307 30.1473V34.1391Z" fill="#08979C"/>
<path d="M44.4532 34.1737C44.2102 34.1737 44.0367 33.9654 44.0367 33.7571V31.7786C44.0367 31.6744 43.9325 31.5703 43.8284 31.5703C43.7242 31.5703 43.6201 31.6744 43.6201 31.7786V33.7571C43.6201 34.2084 44.0019 34.5902 44.4532 34.5902C44.5573 34.5902 44.6615 34.4861 44.6615 34.3819C44.6615 34.2778 44.5573 34.1737 44.4532 34.1737Z" fill="#08979C"/>
<path d="M13.9074 27.3374L14.1157 27.1291C14.2198 27.025 14.2198 26.8862 14.1157 26.782L13.8727 26.5391C13.7686 26.4349 13.6297 26.4349 13.5256 26.5391L13.2826 26.782C13.2826 26.782 13.2826 26.782 13.2479 26.8167C12.3107 26.1572 11.0264 26.2614 10.1933 27.0944C9.36024 27.9275 9.29082 29.2118 9.91562 30.149C9.91562 30.149 9.91562 30.149 9.88091 30.1838L9.63793 30.4267C9.53379 30.5309 9.53379 30.6697 9.63793 30.7738L9.88091 31.0168C9.98505 31.121 10.1239 31.121 10.228 31.0168L10.4363 30.8086C11.79 31.4681 16.4414 33.9326 19.8431 37.855C19.8431 37.855 20.1208 37.7509 20.4332 37.4385C20.7456 37.126 20.8497 36.8484 20.8497 36.8484C17.0315 33.3425 14.567 28.7259 13.9074 27.3374ZM13.0744 29.9061C12.4496 30.5309 11.4082 30.5309 10.7834 29.9061C10.1586 29.2813 10.1586 28.2399 10.7834 27.6151C11.4082 26.9903 12.4496 26.9903 13.0744 27.6151C13.6992 28.2399 13.6992 29.2465 13.0744 29.9061Z" fill="#08979C"/>
<path d="M22.5172 39.341C22.8425 39.0157 22.8425 38.4882 22.5172 38.1629C22.1919 37.8376 21.6644 37.8376 21.3391 38.1629C21.0137 38.4882 21.0137 39.0157 21.3391 39.341C21.6644 39.6664 22.1919 39.6664 22.5172 39.341Z" fill="#08979C"/>
<path d="M26.5959 37.3142L20.4844 43.4258L20.9016 43.843L27.0132 37.7315L26.5959 37.3142Z" fill="#08979C"/>
<path d="M26.2308 36.9517L21.5448 32.2656L21.2671 32.5433C22.3084 34.1053 22.1696 36.2227 20.7811 37.6112C19.3927 38.9996 17.2753 39.1385 15.7132 38.0971L15.4355 38.3748L20.1216 43.0609L26.2308 36.9517ZM21.9266 37.4376C22.6555 37.4376 23.2456 38.0277 23.2456 38.7567C23.2456 39.4856 22.6555 40.0757 21.9266 40.0757C21.1976 40.0757 20.6076 39.4856 20.6076 38.7567C20.6076 38.0277 21.1976 37.4376 21.9266 37.4376Z" fill="#08979C"/>
<path d="M29.3544 18.4863C27.237 18.4863 25.5361 20.1872 25.5361 22.3046C25.5361 24.422 27.237 26.1228 29.3544 26.1228C31.4718 26.1228 33.1727 24.422 33.1727 22.3046C33.2074 20.1872 31.4718 18.4863 29.3544 18.4863ZM27.0981 19.6665C27.5494 19.5277 28.0354 19.8054 28.1742 20.2913C28.313 20.7426 28.0354 21.2285 27.5494 21.3674C27.0981 21.5062 26.6122 21.2285 26.4733 20.7426C26.3692 20.2913 26.6469 19.8054 27.0981 19.6665ZM27.237 24.3526C26.7857 24.4914 26.2998 24.2137 26.1609 23.7278C26.0221 23.2765 26.2998 22.7905 26.7857 22.6517C27.237 22.5129 27.723 22.7905 27.8618 23.2765C28.0006 23.7625 27.723 24.2137 27.237 24.3526ZM27.8965 22.3046C27.8965 21.5062 28.556 20.8467 29.3544 20.8467C30.1528 20.8467 30.8123 21.5062 30.8123 22.3046C30.8123 23.103 30.1528 23.7625 29.3544 23.7625C28.556 23.7972 27.8965 23.1377 27.8965 22.3046ZM30.2569 25.6716C29.8056 25.8104 29.3197 25.5328 29.1808 25.0468C29.042 24.5955 29.3197 24.1096 29.8056 23.9707C30.2569 23.8319 30.7429 24.1096 30.8817 24.5955C31.0205 25.0815 30.7429 25.5328 30.2569 25.6716ZM30.2569 20.6384C29.8056 20.7773 29.3197 20.4996 29.1808 20.0136C29.042 19.5624 29.3197 19.0764 29.8056 18.9376C30.2569 18.7987 30.7429 19.0764 30.8817 19.5624C31.0205 20.0136 30.7429 20.4996 30.2569 20.6384ZM32.2354 23.0335C31.7842 23.1724 31.2982 22.8947 31.1594 22.4087C31.0205 21.9575 31.2982 21.4715 31.7842 21.3327C32.2354 21.1938 32.7214 21.4715 32.8603 21.9575C32.9991 22.4087 32.7214 22.8947 32.2354 23.0335Z" fill="#08979C"/>
<path d="M38.6921 20.4298C37.859 16.2645 34.2491 13.1057 30.0143 12.828C29.1812 12.7586 28.3828 12.828 27.5845 12.9669C27.2721 13.0363 27.0638 13.3487 27.0985 13.6611L27.515 15.952C27.5845 16.438 28.0357 16.7504 28.5217 16.681C29.0076 16.6116 29.5283 16.6116 30.049 16.681C32.5482 16.9934 34.5962 19.0067 34.978 21.5059C35.0821 22.096 35.0474 22.6514 34.978 23.2067C34.9086 23.6233 35.221 24.0398 35.6375 24.1092L38.0326 24.4564C38.345 24.4911 38.6574 24.2828 38.6921 23.9704C38.9351 22.8249 38.9351 21.6447 38.6921 20.4298ZM28.8341 15.5702C28.3828 15.5702 28.001 15.1884 28.001 14.7371C28.001 14.2859 28.3828 13.9041 28.8341 13.9041C29.2853 13.9041 29.6671 14.2859 29.6671 14.7371C29.6671 15.1884 29.2853 15.5702 28.8341 15.5702ZM36.9218 23.658C36.4706 23.658 36.0888 23.2762 36.0888 22.8249C36.0888 22.3737 36.4706 21.9918 36.9218 21.9918C37.3731 21.9918 37.7549 22.3737 37.7549 22.8249C37.7549 23.2762 37.3731 23.658 36.9218 23.658Z" fill="#08979C"/>
<path d="M35.8111 24.8373C34.5614 24.5596 34.249 23.9695 34.3879 22.9976C34.4573 22.5116 34.4573 22.0256 34.3532 21.505C34.0061 19.4223 32.3052 17.7214 30.2225 17.3743C29.6671 17.2702 29.1465 17.3049 28.6605 17.3396C27.5844 17.4784 27.0291 17.0966 26.8208 15.9858L26.5431 14.4238C23.3149 15.604 20.9893 18.6933 20.9893 22.338C20.9893 26.9894 24.7728 30.7382 29.3894 30.7382C33.0688 30.7382 36.2276 28.3778 37.3384 25.0455L35.8111 24.8373ZM23.0372 18.3462C23.2108 18.2768 23.4191 18.3809 23.4885 18.5545C23.5579 18.728 23.4538 18.9363 23.2802 19.0057C23.1067 19.0752 22.8984 18.971 22.829 18.7975C22.7595 18.6239 22.8637 18.4156 23.0372 18.3462ZM22.9331 26.1216C22.7248 26.0869 22.586 25.9133 22.586 25.7398C22.586 25.5662 22.7943 25.3927 22.9678 25.3927C23.1761 25.4274 23.3149 25.6009 23.3149 25.7745C23.3149 25.9827 23.1414 26.1216 22.9331 26.1216ZM23.1761 19.7347C23.1067 19.5611 23.2108 19.3529 23.3843 19.2834C23.5579 19.214 23.7662 19.3181 23.8356 19.4917C23.905 19.6653 23.8009 19.8735 23.6273 19.943C23.4538 20.0471 23.2455 19.943 23.1761 19.7347ZM23.5232 20.7066C23.4538 20.533 23.5579 20.3248 23.7315 20.2554C23.905 20.1859 24.1133 20.2901 24.1827 20.4636C24.2521 20.6372 24.148 20.8454 23.9744 20.9149C23.8009 20.9843 23.5926 20.8802 23.5232 20.7066ZM23.9397 26.191C23.7315 26.1563 23.5926 25.9827 23.5926 25.8092C23.5926 25.6356 23.8009 25.4621 23.9744 25.4621C24.1827 25.4968 24.3216 25.6703 24.3216 25.8439C24.3216 26.0869 24.148 26.2257 23.9397 26.191ZM24.3216 21.8521C24.148 21.9215 23.9397 21.8174 23.8703 21.6438C23.8009 21.4703 23.905 21.262 24.0786 21.1926C24.2521 21.1231 24.4604 21.2273 24.5298 21.4008C24.5992 21.5744 24.5298 21.7827 24.3216 21.8521ZM24.9464 26.2951C24.7381 26.2604 24.5993 26.0869 24.5993 25.9133C24.5993 25.7398 24.8075 25.5662 24.9811 25.5662C25.1546 25.5662 25.3282 25.7745 25.3282 25.948C25.3282 26.1563 25.1546 26.2951 24.9464 26.2951ZM25.953 26.3646C25.7447 26.3299 25.6059 26.1563 25.6059 25.9827C25.6406 25.7745 25.8142 25.6356 25.9877 25.6356C26.1613 25.6356 26.3348 25.8439 26.3348 26.0175C26.3348 26.191 26.1613 26.3993 25.953 26.3646ZM28.2787 29.801C28.1398 29.9399 27.8968 29.9051 27.758 29.7663C27.6191 29.6275 27.6539 29.3845 27.7927 29.2456C27.9315 29.1068 28.1745 29.1415 28.3134 29.2803C28.4522 29.4192 28.4175 29.6622 28.2787 29.801ZM29.0423 29.1415C28.9035 29.2803 28.6605 29.2456 28.5216 29.1068C28.3828 28.9679 28.4175 28.725 28.5564 28.5861C28.6952 28.4473 28.9382 28.482 29.077 28.6208C29.2159 28.7944 29.2159 29.0026 29.0423 29.1415ZM29.806 28.482C29.6671 28.6208 29.4241 28.5861 29.2853 28.4473C29.1465 28.3084 29.1812 28.0654 29.32 27.9266C29.4589 27.7877 29.7018 27.8225 29.8407 27.9613C29.9795 28.1349 29.9795 28.3431 29.806 28.482ZM30.6043 27.8225C30.4655 27.9613 30.2225 27.9266 30.0837 27.7877C29.9448 27.6489 29.9795 27.4059 30.1184 27.2671C30.2572 27.1282 30.5002 27.1629 30.639 27.3018C30.7779 27.4753 30.7432 27.7183 30.6043 27.8225ZM29.3547 26.677C26.9596 26.677 24.9811 24.7331 24.9811 22.3033C24.9811 19.8735 26.9249 17.9297 29.3547 17.9297C31.7845 17.9297 33.7284 19.8735 33.7284 22.3033C33.7284 24.7331 31.7845 26.677 29.3547 26.677ZM33.7284 28.3778C33.5201 28.3431 33.3813 28.1696 33.3813 27.996C33.3813 27.8225 33.5895 27.6489 33.7631 27.6489C33.9713 27.6836 34.1102 27.8572 34.1102 28.0307C34.1102 28.239 33.9366 28.4125 33.7284 28.3778ZM33.8325 27.3712C33.6242 27.3365 33.4854 27.1629 33.4854 26.9894C33.4854 26.8158 33.6937 26.6423 33.8672 26.6423C34.0408 26.6423 34.2143 26.8505 34.2143 27.0241C34.2143 27.2324 34.0408 27.4059 33.8325 27.3712ZM33.9366 26.3646C33.7284 26.3299 33.5895 26.1563 33.5895 25.9827C33.6242 25.7745 33.7978 25.6356 33.9713 25.6356C34.1796 25.6703 34.3185 25.8439 34.3185 26.0175C34.2837 26.2257 34.1102 26.3993 33.9366 26.3646ZM34.0061 25.3579C33.7978 25.3232 33.6589 25.1497 33.6589 24.9761C33.6589 24.8026 33.8672 24.629 34.0408 24.629C34.249 24.6637 34.3879 24.8373 34.3879 25.0108C34.3879 25.2191 34.2143 25.3927 34.0061 25.3579Z" fill="#08979C"/>
<path d="M36.9901 36.9531C34.4562 36.9531 32.4082 39.0011 32.4082 41.535C32.4082 44.069 34.4562 46.117 36.9901 46.117C39.5241 46.117 41.572 44.069 41.572 41.535C41.572 39.0358 39.5241 36.9531 36.9901 36.9531ZM36.9901 44.312C35.4628 44.312 34.2479 43.0623 34.2479 41.5697C34.2479 40.0424 35.4975 38.8275 36.9901 38.8275C38.5174 38.8275 39.7323 40.0772 39.7323 41.5697C39.7323 43.0623 38.5174 44.312 36.9901 44.312Z" fill="#08979C"/>
<path d="M36.9903 39.1406C35.6713 39.1406 34.5605 40.2167 34.5605 41.5704C34.5605 42.9242 35.6366 44.0002 36.9903 44.0002C38.3441 44.0002 39.4202 42.9242 39.4202 41.5704C39.4202 40.2167 38.3441 39.1406 36.9903 39.1406ZM36.9903 42.8895C36.2614 42.8895 35.6713 42.2994 35.6713 41.5704C35.6713 40.8415 36.2614 40.2514 36.9903 40.2514C37.7193 40.2514 38.3094 40.8415 38.3094 41.5704C38.3094 42.2994 37.7193 42.8895 36.9903 42.8895Z" fill="#08979C"/>
<path d="M24.1125 46.4297C19.0794 46.4297 14.9834 50.5256 14.9834 55.5588C14.9834 60.592 19.0794 64.6879 24.1125 64.6879C29.1457 64.6879 33.2416 60.592 33.2416 55.5588C33.2416 50.5256 29.1457 46.4297 24.1125 46.4297ZM24.1125 62.2234C20.4331 62.2234 17.4132 59.2382 17.4132 55.5241C17.4132 51.81 20.3984 48.8248 24.1125 48.8248C27.7919 48.8248 30.8118 51.81 30.8118 55.5241C30.8118 59.2382 27.8266 62.2234 24.1125 62.2234Z" fill="#08979C"/>
<path d="M24.112 49.207C20.6061 49.207 17.7598 52.0534 17.7598 55.5592C17.7598 59.0651 20.6061 61.9114 24.112 61.9114C27.6178 61.9114 30.4642 59.0651 30.4642 55.5592C30.4642 52.0187 27.6178 49.207 24.112 49.207ZM24.112 61.5296C20.8144 61.5296 18.1069 58.8568 18.1069 55.5245C18.1069 52.2269 20.7797 49.5194 24.112 49.5194C27.4096 49.5194 30.117 52.1922 30.117 55.5245C30.117 58.8568 27.4443 61.5296 24.112 61.5296Z" fill="#08979C"/>
<path d="M24.1124 57.5725C25.2435 57.5725 26.1604 56.6556 26.1604 55.5245C26.1604 54.3935 25.2435 53.4766 24.1124 53.4766C22.9814 53.4766 22.0645 54.3935 22.0645 55.5245C22.0645 56.6556 22.9814 57.5725 24.1124 57.5725Z" fill="#08979C"/>
<path d="M24.1124 49.9707C21.0578 49.9707 18.5586 52.4699 18.5586 55.5245C18.5586 58.5791 21.0578 61.0784 24.1124 61.0784C27.167 61.0784 29.6663 58.5791 29.6663 55.5245C29.6663 52.4699 27.2017 49.9707 24.1124 49.9707ZM26.334 52.2269C26.6464 51.9145 27.1323 51.9145 27.4447 52.2269C27.7571 52.5394 27.7571 53.0253 27.4447 53.3377C27.1323 53.6501 26.6464 53.6501 26.334 53.3377C26.0216 53.0253 26.0216 52.5394 26.334 52.2269ZM24.1124 50.8385C24.529 50.8385 24.9108 51.1856 24.9108 51.6369C24.9108 52.0881 24.5637 52.4352 24.1124 52.4352C23.6959 52.4352 23.3141 52.0881 23.3141 51.6369C23.3141 51.1856 23.6959 50.8385 24.1124 50.8385ZM20.8148 52.2269C21.1272 51.9145 21.6132 51.9145 21.9256 52.2269C22.238 52.5394 22.238 53.0253 21.9256 53.3377C21.6132 53.6501 21.1272 53.6501 20.8148 53.3377C20.5024 53.0253 20.5024 52.5394 20.8148 52.2269ZM19.4264 55.5245C19.4264 55.108 19.7735 54.7262 20.2247 54.7262C20.676 54.7262 21.0231 55.0733 21.0231 55.5245C21.0231 55.9758 20.676 56.3229 20.2247 56.3229C19.7735 56.3229 19.4264 55.9758 19.4264 55.5245ZM21.9256 58.8568C21.6132 59.1692 21.1272 59.1692 20.8148 58.8568C20.5024 58.5444 20.5024 58.0585 20.8148 57.7461C21.1272 57.4337 21.6132 57.4337 21.9256 57.7461C22.2033 58.0585 22.2033 58.5444 21.9256 58.8568ZM24.1124 60.2453C23.6959 60.2453 23.3141 59.8982 23.3141 59.4469C23.3141 58.9957 23.6612 58.6486 24.1124 58.6486C24.529 58.6486 24.9108 58.9957 24.9108 59.4469C24.9108 59.8982 24.5637 60.2453 24.1124 60.2453ZM24.1124 57.9196C22.7934 57.9196 21.752 56.8436 21.752 55.5592C21.752 54.2402 22.8281 53.1989 24.1124 53.1989C25.4315 53.1989 26.4728 54.2749 26.4728 55.5592C26.4728 56.8436 25.4315 57.9196 24.1124 57.9196ZM27.4447 58.8568C27.1323 59.1692 26.6464 59.1692 26.334 58.8568C26.0216 58.5444 26.0216 58.0585 26.334 57.7461C26.6464 57.4337 27.1323 57.4337 27.4447 57.7461C27.7571 58.0585 27.7571 58.5444 27.4447 58.8568ZM28.0348 56.3229C27.6183 56.3229 27.2365 55.9758 27.2365 55.5245C27.2365 55.0733 27.5836 54.7262 28.0348 54.7262C28.4861 54.7262 28.8332 55.0733 28.8332 55.5245C28.8332 55.9758 28.4514 56.3229 28.0348 56.3229Z" fill="#08979C"/>
<path d="M33.0332 37.9941L19.7734 46.6026C21.0231 46.0125 22.4115 45.6654 23.8694 45.596L31.7142 40.4934C31.9224 39.5562 32.3737 38.6884 33.0332 37.9941Z" fill="#08979C"/>
<path d="M39.0383 46.6035C38.4829 46.8465 37.8581 46.9853 37.2333 46.9853L33.7969 53.2334C33.9704 53.9623 34.0746 54.7607 34.0746 55.5591C34.0746 55.5938 34.0746 55.6285 34.0746 55.6632L39.0383 46.6035Z" fill="#08979C"/>
<path d="M67.9872 50.4199L64.1689 43.79C64.0648 43.6165 63.8912 43.5123 63.7176 43.5123H63.7871L62.2945 42.714C62.225 42.6792 62.1209 42.6445 62.0168 42.6445H54.2761C54.1026 42.6445 53.9637 42.7487 53.8596 42.8875L50.0413 49.5174C49.9719 49.6562 49.9719 49.8298 50.0413 50.0034L53.9637 56.7721C53.9984 56.8415 54.0331 56.8762 54.1026 56.9109H54.1373L54.172 56.9457L54.5191 57.0845L55.8381 57.7093C55.9076 57.7787 56.0117 57.8134 56.1158 57.8134H63.7871C63.9953 57.8134 64.1689 57.7093 64.2383 57.5357L68.0566 50.9059C68.0566 50.767 68.0566 50.5587 67.9872 50.4199ZM62.0168 42.9569C62.1209 42.9569 62.1903 42.9916 62.2598 43.0264L63.0928 43.4776C63.1623 43.5123 63.2317 43.547 63.3011 43.547H55.977L54.8315 42.9916H62.0168V42.9569ZM55.8034 51.1488C55.6299 50.8364 55.6299 50.4893 55.8034 50.1769L57.4002 47.4C57.5737 47.0876 57.8861 46.914 58.2332 46.914H60.3159L61.7044 49.3438C61.8779 49.6562 61.8779 50.0381 61.7044 50.3158L60.2812 52.7456C60.1076 53.058 59.7952 53.2315 59.4134 53.2315H56.9836L55.8034 51.1488ZM50.3884 49.6562L54.1026 43.1999C54.1373 43.1652 54.172 43.1305 54.2067 43.0958L55.5952 43.7553L51.7422 50.4199L50.3537 49.7257C50.3537 49.691 50.3537 49.691 50.3884 49.6562ZM50.4579 50.2811L51.7075 50.9059C51.7075 50.9406 51.7075 50.9406 51.7422 50.9753L55.3522 57.2233L54.1373 56.6333L50.4579 50.2811ZM63.8912 51.1488L62.2945 53.9258C62.1209 54.2382 61.8085 54.4117 61.4614 54.4117H58.2679C57.9208 54.4117 57.6084 54.2382 57.4349 53.9258L57.2613 53.6134H59.6911C60.0382 53.6134 60.3506 53.4398 60.5589 53.1274L62.1556 50.3852C62.3292 50.0728 62.3292 49.691 62.1556 49.4133L60.7672 46.9835H61.4961C61.8432 46.9835 62.1556 47.157 62.3292 47.4694L63.9259 50.2463C64.0648 50.4893 64.0648 50.8711 63.8912 51.1488Z" fill="#08979C"/>
<path d="M70.9379 19.7695L68.9594 22.72L68.4734 22.4076C67.6403 21.8522 66.5643 22.0952 66.0089 22.8936L64.551 25.0804L62.0865 23.4489C62.0171 23.3795 61.9129 23.4142 61.8435 23.4837C61.7741 23.5531 61.8088 23.6572 61.8782 23.7266L62.1906 23.9349L57.088 31.5714L56.7756 31.3632C56.7062 31.2937 56.6021 31.3284 56.5327 31.3979C56.4632 31.4673 56.4979 31.5714 56.5674 31.6409L58.4418 32.8905L55.6649 37.16L55.4566 37.0211C55.3872 36.9517 55.283 36.9864 55.2136 37.0558C55.1442 37.1253 55.1789 37.2294 55.2483 37.2988L58.4071 39.4162C58.4765 39.4856 58.5806 39.4509 58.6501 39.3815C58.7195 39.3121 58.6848 39.2079 58.6153 39.1385L58.4071 38.9997L61.2187 34.7649L63.0931 36.0145C63.1625 36.0839 63.2667 36.0492 63.3361 35.9798C63.4055 35.9104 63.3708 35.8062 63.3014 35.7368L62.989 35.5285L68.0916 27.892L68.404 28.1003C68.4734 28.1697 68.5775 28.135 68.647 28.0656C68.7164 27.9961 68.6817 27.892 68.6122 27.8226L66.113 26.1564L67.5709 23.9696L68.0569 24.282C68.8899 24.8374 69.966 24.5944 70.5214 23.7961L72.4999 20.8456L70.9379 19.7695ZM58.0947 38.7914L55.9426 37.3682L58.7542 33.1334L60.9063 34.5566L58.0947 38.7914ZM62.6419 25.4969L58.7195 31.6061C58.6848 31.6756 58.5806 31.7103 58.5112 31.6409C58.4418 31.6061 58.4071 31.502 58.4765 31.4326L62.3989 25.3234C62.4336 25.2539 62.5377 25.2192 62.6072 25.2887C62.6766 25.3581 62.6766 25.3928 62.6419 25.4969Z" fill="#08979C"/>
<path d="M56.7405 36.987C56.7058 37.0565 56.7058 37.1606 56.8099 37.1953C56.914 37.23 56.9835 37.23 57.0182 37.1259L58.8579 34.106C58.8926 34.0366 58.8926 33.9324 58.7885 33.8977C58.719 33.863 58.6149 33.863 58.5802 33.9671L56.7405 36.987Z" fill="#08979C"/>
</svg>
