<svg width="116" height="82" viewBox="0 0 116 82" fill="none" xmlns="http://www.w3.org/2000/svg">
<path d="M61.69 50.4507H59.9457C59.6103 48.641 58.8723 46.9653 57.9331 45.5577L59.1407 44.3513C59.8786 43.614 59.8786 42.4075 59.1407 41.6702L58.0673 40.5977C57.3293 39.8605 56.1217 39.8605 55.3837 40.5977L54.1761 41.8042C52.7002 40.7988 51.0229 40.1286 49.2786 39.7934V37.9837C49.2786 36.9113 48.4065 36.1069 47.4002 36.1069H45.9242C44.8508 36.1069 44.0457 36.9783 44.0457 37.9837V39.7264C42.2343 40.0615 40.5571 40.7988 39.1483 41.7372L37.9407 40.5307C37.2027 39.7934 35.9951 39.7934 35.2571 40.5307L34.1837 41.6032C33.4457 42.3405 33.4457 43.5469 34.1837 44.2842L35.3913 45.4907C34.385 46.9653 33.7141 48.641 33.3786 50.3837H31.6343C30.5609 50.3837 29.7559 51.255 29.7559 52.2605V53.735C29.7559 54.8075 30.628 55.6118 31.6343 55.6118H33.3786C33.7141 57.4215 34.4521 59.0972 35.3913 60.5048L34.1837 61.7113C33.4457 62.4486 33.4457 63.655 34.1837 64.3923L35.2571 65.4648C35.9951 66.2021 37.2027 66.2021 37.9407 65.4648L39.1483 64.2583C40.6242 65.2637 42.3014 65.934 44.0457 66.2691V68.0118C44.0457 69.0842 44.9179 69.8886 45.9242 69.8886H47.4002C48.4736 69.8886 49.2786 69.0172 49.2786 68.0118V66.2691C51.09 65.934 52.7673 65.1967 54.1761 64.2583L55.3837 65.4648C56.1217 66.2021 57.3293 66.2021 58.0673 65.4648L59.1407 64.3923C59.8786 63.655 59.8786 62.4486 59.1407 61.7113L57.9331 60.5048C58.9394 59.0302 59.6103 57.3545 59.9457 55.6118H61.69C62.7635 55.6118 63.5685 54.7404 63.5685 53.735V52.2605C63.6356 51.3221 62.7635 50.4507 61.69 50.4507ZM46.5951 62.0464C41.6305 62.0464 37.6723 58.0248 37.6723 53.1318C37.6723 48.2388 41.6976 44.2172 46.5951 44.2172C51.5597 44.2172 55.5179 48.2388 55.5179 53.1318C55.5179 58.0248 51.5597 62.0464 46.5951 62.0464Z" fill="#FAFAFA"/>
<path d="M46.5954 56.4832C48.485 56.4832 50.0169 54.9528 50.0169 53.0649C50.0169 51.1769 48.485 49.6465 46.5954 49.6465C44.7057 49.6465 43.1738 51.1769 43.1738 53.0649C43.1738 54.9528 44.7057 56.4832 46.5954 56.4832Z" fill="#FAFAFA"/>
<path d="M69.002 46.8313L81.9501 43.413L72.4906 33.9622L69.002 46.8313Z" fill="#FAFAFA"/>
<path d="M73.9699 32.5455L83.4102 41.9771L110.545 14.8672L101.105 5.43565L73.9699 32.5455Z" fill="#FAFAFA"/>
<path d="M113.348 2.52646C115.965 5.14051 115.965 9.36322 113.348 11.9773L112.006 13.3178L102.547 3.867L103.889 2.52646C106.505 -0.0875955 110.799 -0.0875955 113.348 2.52646Z" fill="#FAFAFA"/>
<path d="M74.0337 26.4551H22.7109V28.5999H71.8869L74.0337 26.4551Z" fill="#FAFAFA"/>
<path d="M84.7007 46.6303V79.2724H10.8361C6.40829 79.2724 2.85259 75.653 2.78551 71.2292V71.1622C2.78551 66.7384 6.40829 63.1189 10.8361 63.1189C15.264 63.1189 18.8868 66.7384 18.8868 71.1622H21.0336V28.6V26.4551V18.2108C21.0336 12.5805 16.4716 8.02271 10.8361 8.02271C5.2007 8.02271 0.638672 12.5805 0.638672 18.2108V26.4551V71.2292V71.2962C0.638672 71.6313 0.638671 71.8995 0.705759 72.1676C0.705759 72.3016 0.705758 72.4357 0.772847 72.5027C0.772847 72.7038 0.83994 72.9049 0.83994 73.0389C0.83994 73.173 0.907027 73.307 0.907027 73.5081C0.974116 73.6422 0.974114 73.7762 1.0412 73.9103C1.10829 74.0443 1.10829 74.2454 1.17538 74.3795C1.24247 74.5135 1.24247 74.5805 1.30956 74.7146C1.645 75.653 2.18171 76.5914 2.78551 77.3957C3.32221 78.0659 3.92601 78.6692 4.5969 79.2054C5.2007 79.6746 5.93867 80.0768 6.67665 80.4119C6.67665 80.4119 6.67665 80.4119 6.74373 80.4119C6.945 80.4789 7.07918 80.546 7.28045 80.613C7.41462 80.68 7.48171 80.68 7.61589 80.747C7.75007 80.8141 7.88424 80.8141 8.08551 80.8811C8.21968 80.9481 8.42095 80.9481 8.55513 81.0151C8.68931 81.0151 8.82348 81.0822 8.95766 81.0822C9.15893 81.1492 9.36019 81.1492 9.56146 81.1492C9.62855 81.1492 9.76272 81.1492 9.82981 81.2162C10.1653 81.2162 10.5007 81.2832 10.7691 81.2832H86.7804V44.4854L84.7007 46.6303Z" fill="#FAFAFA"/>
</svg>
