<svg width="82" height="82" viewBox="0 0 82 82" fill="none" xmlns="http://www.w3.org/2000/svg">
<rect width="82" height="82" rx="41" fill="#E6F5F5"/>
<path d="M43.0076 46.1516H42.0646C41.8832 45.1731 41.4842 44.2671 40.9764 43.5061L41.6293 42.8538C42.0283 42.4552 42.0283 41.8029 41.6293 41.4043L41.0489 40.8245C40.65 40.4258 39.9971 40.4258 39.5981 40.8245L38.9452 41.4768C38.1472 40.9332 37.2404 40.5708 36.2973 40.3896V39.4112C36.2973 38.8313 35.8258 38.3965 35.2817 38.3965H34.4837C33.9034 38.3965 33.4681 38.8676 33.4681 39.4112V40.3534C32.4888 40.5346 31.582 40.9332 30.8203 41.4405L30.1674 40.7882C29.7684 40.3896 29.1155 40.3896 28.7165 40.7882L28.1361 41.3681C27.7371 41.7667 27.7371 42.419 28.1361 42.8176L28.789 43.4699C28.245 44.2671 27.8822 45.1731 27.7009 46.1153H26.7578C26.1774 46.1153 25.7422 46.5864 25.7422 47.13V47.9272C25.7422 48.5071 26.2137 48.9419 26.7578 48.9419H27.7009C27.8822 49.9204 28.2812 50.8263 28.789 51.5873L28.1361 52.2396C27.7371 52.6383 27.7371 53.2906 28.1361 53.6892L28.7165 54.269C29.1155 54.6676 29.7684 54.6676 30.1674 54.269L30.8203 53.6167C31.6182 54.1603 32.525 54.5227 33.4681 54.7039V55.6461C33.4681 56.2259 33.9396 56.6608 34.4837 56.6608H35.2817C35.8621 56.6608 36.2973 56.1897 36.2973 55.6461V54.7039C37.2767 54.5227 38.1835 54.1241 38.9452 53.6167L39.5981 54.269C39.9971 54.6676 40.65 54.6676 41.0489 54.269L41.6293 53.6892C42.0283 53.2906 42.0283 52.6383 41.6293 52.2396L40.9764 51.5873C41.5205 50.7901 41.8832 49.8841 42.0646 48.9419H43.0076C43.588 48.9419 44.0232 48.4708 44.0232 47.9272V47.13C44.0595 46.6227 43.588 46.1516 43.0076 46.1516ZM34.8464 52.4208C32.1623 52.4208 30.0223 50.2465 30.0223 47.6011C30.0223 44.9557 32.1986 42.7814 34.8464 42.7814C37.5306 42.7814 39.6706 44.9557 39.6706 47.6011C39.6706 50.2465 37.5306 52.4208 34.8464 52.4208Z" fill="#08979C"/>
<path d="M34.846 49.4131C35.8676 49.4131 36.6958 48.5857 36.6958 47.565C36.6958 46.5443 35.8676 45.7168 34.846 45.7168C33.8243 45.7168 32.9961 46.5443 32.9961 47.565C32.9961 48.5857 33.8243 49.4131 34.846 49.4131Z" fill="#08979C"/>
<path d="M46.9619 44.1922L53.9624 42.344L48.8481 37.2344L46.9619 44.1922Z" fill="#08979C"/>
<path d="M49.6451 36.4711L54.749 41.5703L69.4196 26.9132L64.3157 21.8139L49.6451 36.4711Z" fill="#08979C"/>
<path d="M70.9384 20.2397C72.353 21.653 72.353 23.936 70.9384 25.3493L70.213 26.0741L65.0986 20.9644L65.8241 20.2397C67.2387 18.8264 69.5601 18.8264 70.9384 20.2397Z" fill="#08979C"/>
<path d="M49.6826 33.1777H21.9346V34.3374H48.5219L49.6826 33.1777Z" fill="#08979C"/>
<path d="M55.4487 44.0844V61.7326H15.5133C13.1194 61.7326 11.197 59.7757 11.1607 57.384V57.3477C11.1607 54.956 13.1194 52.9991 15.5133 52.9991C17.9073 52.9991 19.866 54.956 19.866 57.3477H21.0267V34.3362V33.1766V28.7192C21.0267 25.6752 18.5602 23.2109 15.5133 23.2109C12.4665 23.2109 10 25.6752 10 28.7192V33.1766V57.384V57.4202C10 57.6014 10 57.7464 10.0363 57.8913C10.0363 57.9638 10.0363 58.0363 10.0725 58.0725C10.0725 58.1812 10.1088 58.2899 10.1088 58.3624C10.1088 58.4349 10.1451 58.5074 10.1451 58.6161C10.1814 58.6886 10.1814 58.761 10.2176 58.8335C10.2539 58.906 10.2539 59.0147 10.2902 59.0872C10.3264 59.1597 10.3264 59.1959 10.3627 59.2684C10.5441 59.7757 10.8343 60.2831 11.1607 60.7179C11.4509 61.0803 11.7773 61.4065 12.14 61.6964C12.4665 61.95 12.8655 62.1675 13.2645 62.3487C13.2645 62.3487 13.2645 62.3487 13.3007 62.3487C13.4096 62.3849 13.4821 62.4211 13.5909 62.4574C13.6635 62.4936 13.6997 62.4936 13.7723 62.5299C13.8448 62.5661 13.9174 62.5661 14.0262 62.6023C14.0987 62.6386 14.2075 62.6386 14.2801 62.6748C14.3526 62.6748 14.4252 62.711 14.4977 62.711C14.6065 62.7473 14.7154 62.7473 14.8242 62.7473C14.8604 62.7473 14.933 62.7473 14.9693 62.7835C15.1506 62.7835 15.332 62.8198 15.4771 62.8198H56.5732V42.9248L55.4487 44.0844Z" fill="#08979C"/>
</svg>
