<svg width="46" height="70" viewBox="0 0 46 70" fill="none" xmlns="http://www.w3.org/2000/svg">
<path d="M23 0.334961C2.23673 0.334961 2.94824 8.54971 2.94824 8.54971H23H43.0517C43.0517 8.61439 43.7632 0.334961 23 0.334961Z" fill="#08979C"/>
<path d="M38.0705 61.8483H7.92819L6.69922 66.2468H39.2995L38.0705 61.8483Z" fill="#08979C"/>
<path d="M36.3235 55.0565H9.67405L8.50977 59.1315H37.4878L36.3235 55.0565Z" fill="#08979C"/>
<path d="M40.0761 50.9818L45.8975 69.2224H41.2404L36.2598 51.8874L40.0761 50.9818Z" fill="#08979C"/>
<path d="M5.92304 50.9816L0.101562 69.2222H4.75875L9.73934 51.8872L5.92304 50.9816Z" fill="#08979C"/>
<path d="M9.35099 42.508C7.34582 42.508 5.66406 40.891 5.66406 38.8211C5.66406 38.8211 5.66406 38.8211 5.66406 38.7564C5.66406 38.4977 5.85811 38.239 6.18153 38.239C6.44026 38.239 6.699 38.433 6.699 38.7564C6.699 38.7564 6.699 38.7564 6.699 38.8211C6.699 40.3088 7.86328 41.4731 9.35099 41.4731C9.60973 41.4731 9.86846 41.6672 9.86846 41.9906C9.86846 42.314 9.60973 42.508 9.35099 42.508Z" fill="#08979C"/>
<path d="M43.0516 9.77838H22.9999H2.94813C2.94813 9.77838 -0.221336 30.9297 1.52511 44.8366C1.52511 44.8366 1.137 48.3942 4.17711 49.3644C7.21721 50.3347 12.9093 51.8224 22.9999 52.1458C33.0904 51.887 38.7825 50.3347 41.8226 49.3644C44.8628 48.3942 44.4746 44.8366 44.4746 44.8366C46.1564 32.8055 43.0516 9.77838 43.0516 9.77838ZM9.41644 43.1548C7.02316 43.1548 5.14735 41.2143 5.14735 38.8858C5.14735 36.4925 7.08785 34.6167 9.41644 34.6167C11.8097 34.6167 13.6855 36.5572 13.6855 38.8858C13.6855 41.2143 11.745 43.1548 9.41644 43.1548ZM36.5833 43.1548C34.19 43.1548 32.3142 41.2143 32.3142 38.8858C32.3142 36.4925 34.2547 34.6167 36.5833 34.6167C38.9766 34.6167 40.8524 36.5572 40.8524 38.8858C40.9171 41.2143 38.9766 43.1548 36.5833 43.1548ZM38.071 26.8547H7.86405C6.1176 26.8547 4.75926 25.367 4.88862 23.6206L5.53545 15.2764C5.66482 13.724 6.95848 12.4951 8.51088 12.4951H37.4889C39.0413 12.4951 40.3996 13.724 40.4643 15.2764L41.1111 23.6206C41.2405 25.367 39.8175 26.8547 38.071 26.8547Z" fill="#08979C"/>
<path d="M36.5834 42.508C34.5782 42.508 32.8965 40.891 32.8965 38.8211C32.8965 38.8211 32.8965 38.8211 32.8965 38.7564C32.8965 38.4977 33.0905 38.239 33.414 38.239C33.6727 38.239 33.9314 38.433 33.9314 38.7564C33.9314 38.7564 33.9314 38.7564 33.9314 38.8211C33.9314 40.3088 35.0957 41.4731 36.5834 41.4731C36.8421 41.4731 37.1009 41.6672 37.1009 41.9906C37.1009 42.314 36.8421 42.508 36.5834 42.508Z" fill="#08979C"/>
</svg>
