<svg width="82" height="82" viewBox="0 0 82 82" fill="none" xmlns="http://www.w3.org/2000/svg">
<rect width="82" height="82" rx="41" fill="#E6F5F5"/>
<path d="M70.8201 29.557C70.8173 29.2845 70.6907 29.0284 70.4764 28.8603C70.2619 28.6924 69.983 28.6311 69.7177 28.6934L64.6584 29.8852H64.6586C63.0672 30.3058 61.6535 31.2277 60.627 32.5143C59.6004 33.8009 59.0153 35.3838 58.9586 37.0289L58.9638 37.5066C58.6714 36.9518 58.3565 36.4081 58.0189 35.8751L58.013 35.866H58.0128C55.9582 32.6264 53.1301 29.9486 49.7828 28.0742L51.3787 23.3164C51.9076 21.5869 51.8659 19.7332 51.2592 18.0293C50.6525 16.3255 49.5134 14.8625 48.0104 13.8566L42.9453 10.7859C42.7124 10.645 42.4282 10.6173 42.1725 10.7108C41.917 10.8044 41.7176 11.0089 41.6308 11.267L39.7911 16.7494H39.7913C39.3337 18.2697 39.3095 19.8877 39.7214 21.4212C40.1333 22.9547 40.965 24.3428 42.1229 25.4294C41.6248 25.3511 41.123 25.2895 40.6179 25.2447L34.4659 23.3932C30.6493 22.2446 25.9869 24.0725 24.0716 27.4676L20.7948 33.2759L20.795 33.2757C20.661 33.5129 20.6423 33.798 20.7438 34.0507C20.8453 34.3032 21.0564 34.4962 21.3172 34.5745L25.4561 35.8203C24.3873 36.9416 23.4678 38.1962 22.7202 39.5528C21.9999 39.9492 21.3557 40.4699 20.8172 41.0911C19.0806 39.1332 16.8591 38.448 14.702 39.2638V39.2636C13.5312 39.7282 12.5487 40.57 11.9102 41.6556C11.2716 42.7414 11.0135 44.0091 11.1766 45.2582C11.6189 48.708 14.3137 50.911 16.6915 52.8547H16.6913C17.9619 53.7898 19.1018 54.8907 20.0805 56.1283C20.2476 56.3709 20.5235 56.5158 20.8181 56.5158C21.113 56.5158 21.3887 56.3709 21.556 56.1283C21.6997 55.921 21.8541 55.7212 22.0182 55.5299C23.333 58.5163 25.4342 61.0897 28.0973 62.9756C30.7601 64.8614 33.885 65.9892 37.1384 66.2384C40.392 66.4877 43.652 65.8489 46.5712 64.3905C49.4901 62.9323 51.9585 60.7088 53.7131 57.9575C55.4677 55.2062 56.4425 52.0303 56.5336 48.7686C56.6248 45.5067 55.8288 42.2813 54.2306 39.4365L56.9715 37.6169V37.6171C59.6368 42.2578 60.4582 47.7319 59.2723 52.9502C58.0866 58.169 54.9804 62.7503 50.5711 65.7837C46.1621 68.8171 40.7731 70.0801 35.4751 69.3218C30.1772 68.5636 25.3588 65.8397 21.9777 61.6917C21.7733 61.4511 21.4573 61.3359 21.146 61.3883C20.8346 61.4408 20.5739 61.6529 20.4592 61.9472C20.3446 62.2414 20.3932 62.574 20.587 62.8233C23.8831 66.8749 28.4548 69.6903 33.5563 70.8094C38.658 71.9291 43.9884 71.2869 48.6781 68.9877C53.3679 66.6886 57.1401 62.8683 59.3799 58.1496C61.6195 53.4312 62.1941 48.0932 61.0102 43.0056L65.1726 42.0266V42.0268C66.7642 41.606 68.1777 40.6841 69.2044 39.397C70.2308 38.1102 70.8155 36.5269 70.872 34.8816L70.8201 29.557ZM40.9366 27.0823C44.0816 27.4349 47.1077 28.4878 49.7928 30.1633C48.0896 29.9704 46.3715 30.3657 44.9241 31.2839L44.8104 31.3589H44.8106C42.9979 30.6824 41.0874 30.3042 39.1537 30.239L40.9366 27.0823ZM20.8181 54.1783C19.8922 53.1987 18.8918 52.2923 17.8257 51.4672C15.6067 49.6502 13.3063 47.772 12.9545 45.0301C12.8403 44.1808 13.0125 43.3178 13.444 42.5773C13.8753 41.837 14.5415 41.2618 15.3367 40.9427C15.7048 40.8011 16.0955 40.728 16.4899 40.7266C17.7813 40.7266 19.0443 41.5339 20.076 43.0584C20.243 43.3047 20.5211 43.4522 20.8183 43.4522C21.1158 43.4522 21.394 43.3047 21.5608 43.0584C22.8987 41.0816 24.6281 40.3108 26.2997 40.9425V40.9427C27.0949 41.2618 27.7608 41.837 28.1924 42.5773C28.6239 43.3178 28.796 44.1808 28.6818 45.0301C28.3306 47.7711 26.0327 49.65 23.8112 51.4672C22.7451 52.2925 21.7445 53.1989 20.8181 54.1783ZM29.8898 54.367C29.7233 55.9079 29.2117 57.0697 28.4494 57.6374C28.1805 57.8384 27.319 58.4055 26.3551 59.0079V59.0077C25.0874 57.5793 24.0829 55.9372 23.3889 54.1579C23.8777 53.7252 24.4044 53.2939 24.9435 52.8527C26.2556 51.8505 27.4629 50.7179 28.5467 49.4722C28.7888 49.5596 29.0504 49.668 29.3332 49.805C29.9108 51.2517 30.1031 52.8235 29.8918 54.3668L29.8898 54.367ZM32.9415 42.4238C32.6335 39.1906 31.1657 38.5518 29.4663 37.8117L29.4661 37.8113C28.6703 37.4894 27.9083 37.0896 27.1912 36.6177C27.263 36.5479 27.3381 36.48 27.4112 36.4114L27.5508 36.4532C28.3278 36.6839 29.1345 36.7995 29.9453 36.7965C33.1432 36.7965 36.4181 35.0861 37.9443 32.3788L38.1447 32.0238C38.2668 32.0238 38.3881 32.0191 38.5096 32.0191C39.9952 32.0177 41.474 32.2204 42.9043 32.6216L40.592 34.1566C40.3652 34.307 40.2189 34.5524 40.1946 34.8237C40.1704 35.0947 40.2707 35.3623 40.4675 35.5506L44.3129 39.2341H44.3127C45.2814 40.1304 46.4845 40.7338 47.7822 40.974C47.7573 41.0178 47.7331 41.0614 47.7077 41.1046V41.1044C47.2381 41.9615 46.6875 42.772 46.0637 43.5245C44.8596 45.0254 40.9196 46.5435 39.3155 46.5722C36.9497 46.6152 35.3285 46.6028 34.3985 46.0723C33.7898 45.7263 33.1926 45.0438 32.9431 42.4235L32.9415 42.4238ZM38.5096 64.4829V64.4825C37.9359 64.4816 37.3629 64.4506 36.7926 64.3892C36.602 62.898 36.9342 62.1298 37.923 61.6547C39.5349 60.8787 40.4213 58.605 41.1339 56.7776C41.3251 56.2868 41.5634 55.6761 41.7671 55.2595H41.7669C41.9768 55.7078 42.156 56.1697 42.3033 56.6424C42.4147 57.0027 42.4805 57.3752 42.4991 57.7518C42.4666 58.321 42.7023 58.8726 43.136 59.2425C43.7768 59.6995 44.6638 59.5786 46.8423 59.0141C49.1108 58.4268 49.5324 58.4861 50.2228 59.471H50.223C48.7112 61.0549 46.894 62.3155 44.8807 63.1767C42.8677 64.0379 40.701 64.4817 38.5112 64.4813L38.5096 64.4829Z" fill="#08979C"/>
</svg>
