<svg width="120" height="88" viewBox="0 0 120 88" fill="none" xmlns="http://www.w3.org/2000/svg">
<path d="M29.5783 60.1069C33.5993 56.6694 38.4048 55.4909 43.7007 56.0802C43.3084 55.7855 43.0142 55.4909 42.6219 55.098C33.0108 46.5535 23.3017 38.1072 13.7887 29.4644C10.6504 26.6162 6.04104 26.518 2.90274 29.268C-0.333641 32.1162 -0.922073 36.634 1.43166 40.1696C8.10055 50.0892 14.5733 60.1069 21.0461 70.0264C21.8306 71.205 22.5171 72.2853 23.3017 73.4639C23.5959 68.0622 25.5574 63.5444 29.5783 60.1069Z" fill="#2A3840"/>
<path d="M40.8567 58.2402C32.5206 58.2402 25.8517 64.7223 25.8517 73.0704C25.7536 81.2221 32.4225 87.9006 40.4644 87.9988C48.8005 88.097 55.4694 81.5167 55.5675 73.1686C55.5675 65.0169 48.8986 58.2402 40.8567 58.2402Z" fill="#2A3840"/>
<path d="M72.927 58.2402C64.6889 58.2402 58.02 64.8205 58.02 73.0704C58.02 81.3203 64.5908 87.9988 72.927 87.9988C81.165 87.9988 87.7358 81.4185 87.7358 73.0704C87.7358 64.9187 81.0669 58.2402 72.927 58.2402Z" fill="#2A3840"/>
<path d="M104.995 58.2402C96.855 58.2402 90.2842 64.9187 90.2842 73.1686C90.2842 81.4185 96.9531 87.9988 105.191 87.9988C113.429 87.9988 120 81.3203 120 73.0704C119.902 64.8205 113.233 58.2402 104.995 58.2402Z" fill="#2A3840"/>
<path d="M71.7491 44.4911C71.8472 36.3394 65.1783 29.5627 57.1364 29.4645C48.8003 29.3663 42.1314 35.9465 42.0333 44.2946C41.9352 52.4463 48.6041 59.1248 56.646 59.223C64.9822 59.3212 71.651 52.741 71.7491 44.4911Z" fill="#2A3840"/>
<path d="M74.2983 44.3923C74.2983 52.5439 80.9672 59.2224 89.1072 59.2224C97.3453 59.2224 104.014 52.5439 104.014 44.3923C104.014 36.1424 97.3453 29.4639 89.2053 29.4639C80.8692 29.4639 74.2983 36.1424 74.2983 44.3923Z" fill="#2A3840"/>
<path d="M57.2339 14.9289C57.2339 23.1788 63.9028 29.7591 72.0428 29.8573C80.2808 29.8573 86.8516 23.277 86.9497 15.0271C86.9497 6.87544 80.3789 0.196955 72.2389 0.0987414C63.9028 0.000528365 57.2339 6.58081 57.2339 14.9289Z" fill="#2A3840"/>
<path d="M14.8674 28.8747C22.4189 35.2585 30.1666 41.5442 37.8162 47.8298C38.6988 48.5173 39.5815 49.303 40.4642 49.9905C39.0911 44.9816 39.4834 40.1692 42.1314 35.6514C44.7793 31.1336 48.8003 28.4818 53.9981 27.4015C53.7039 27.1069 53.5077 27.0086 53.2135 27.0086C48.8983 25.2408 44.5832 23.5712 40.3661 21.8034C34.5798 19.4462 28.6955 17.0891 22.9093 14.732C17.9076 12.7678 12.6117 15.7141 11.7291 20.8212C11.1406 24.1605 12.3175 26.714 14.8674 28.8747Z" fill="#2A3840"/>
<path d="M27.3223 15.4195C36.2468 18.6605 45.1714 21.4104 54.194 24.3568C55.6651 24.8479 57.0381 25.2408 58.5092 25.7318C55.567 21.5087 54.2921 16.9909 55.2728 11.8838C56.1554 6.87491 58.9015 3.0446 63.4128 0.0982116C63.0205 0.0982116 62.9224 0 62.8243 0C60.6668 0 58.6072 0 56.4497 0C47.7212 0 38.9928 0 30.1664 0C26.1454 0 22.811 3.04461 22.1245 7.07134C21.438 10.9999 23.3013 13.9463 27.3223 15.4195Z" fill="#2A3840"/>
<path d="M75.0827 34.5707C75.8673 33.3921 76.848 32.3118 77.9268 31.2314C74.8866 32.0171 71.8463 32.3118 68.708 31.7225C70.5714 33.6868 72.0425 35.8475 73.0232 38.4992C73.6116 37.026 74.2 35.7492 75.0827 34.5707Z" fill="#2A3840"/>
<path d="M76.7509 56.2763C75.1818 54.5085 73.9068 52.446 73.0242 50.0889C72.1415 52.446 70.8666 54.4102 69.3955 56.1781C71.8473 55.7852 74.2991 55.8834 76.7509 56.2763Z" fill="#2A3840"/>
<path d="M85.2837 61.187C86.8528 62.9548 88.0297 64.9191 89.0104 67.0798C89.9912 64.9191 91.168 63.0531 92.9333 61.187C90.1873 61.6781 87.7355 61.5799 85.2837 61.187Z" fill="#2A3840"/>
<path d="M56.7442 67.2763C57.6268 64.9192 58.9018 62.9549 60.569 61.0889C57.921 61.6781 55.4692 61.5799 52.8213 61.0889C54.5866 62.9549 55.8615 64.821 56.7442 67.2763Z" fill="#2A3840"/>
<path d="M87.5381 82.4006L92.834 85.2487C91.2648 83.4809 90.0879 81.5166 89.1072 79.356C88.7149 80.4363 88.2246 81.4184 87.5381 82.4006Z" fill="#2A3840"/>
<path d="M55.3716 82.4006L60.6675 85.2487C59.0983 83.4809 57.9214 81.5166 56.9407 79.356C56.4504 80.4363 55.96 81.4184 55.3716 82.4006Z" fill="#2A3840"/>
</svg>
