<svg width="84" height="61" viewBox="0 0 84 61" fill="none" xmlns="http://www.w3.org/2000/svg">
<path d="M21.2025 41.0597C23.9532 38.7116 27.2405 37.9066 30.8633 38.3091C30.5949 38.1078 30.3937 37.9066 30.1253 37.6382C23.5506 31.8015 16.9089 26.0319 10.4013 20.1281C8.25444 18.1825 5.10127 18.1154 2.95444 19.9939C0.740515 21.9395 0.337983 25.0255 1.94811 27.4407C6.51014 34.2167 10.938 41.0597 15.3658 47.8357C15.9025 48.6407 16.3722 49.3787 16.9089 50.1838C17.1101 46.4939 18.4519 43.4078 21.2025 41.0597Z" fill="#FAFAFA"/>
<path d="M28.9176 39.7852C23.2151 39.7852 18.6531 44.213 18.6531 49.9155C18.586 55.4839 23.148 60.0459 28.6493 60.113C34.3518 60.1801 38.9138 55.6852 38.9809 49.9826C38.9809 44.4143 34.4189 39.7852 28.9176 39.7852Z" fill="#FAFAFA"/>
<path d="M50.8557 39.7852C45.2202 39.7852 40.6582 44.2801 40.6582 49.9155C40.6582 55.551 45.1531 60.113 50.8557 60.113C56.4911 60.113 60.9861 55.6181 60.9861 49.9155C60.9861 44.3472 56.424 39.7852 50.8557 39.7852Z" fill="#FAFAFA"/>
<path d="M72.7938 39.7852C67.2254 39.7852 62.7305 44.3472 62.7305 49.9826C62.7305 55.6181 67.2925 60.113 72.9279 60.113C78.5634 60.113 83.0583 55.551 83.0583 49.9155C82.9912 44.2801 78.4292 39.7852 72.7938 39.7852Z" fill="#FAFAFA"/>
<path d="M50.0512 30.393C50.1183 24.8246 45.5563 20.1955 40.055 20.1284C34.3525 20.0613 29.7905 24.5563 29.7234 30.2588C29.6563 35.8272 34.2183 40.3892 39.7196 40.4563C45.4221 40.5234 49.9841 36.0284 50.0512 30.393Z" fill="#FAFAFA"/>
<path d="M51.7949 30.3256C51.7949 35.894 56.3569 40.456 61.9253 40.456C67.5607 40.456 72.1228 35.894 72.1228 30.3256C72.1228 24.6902 67.5607 20.1282 61.9924 20.1282C56.2899 20.1282 51.7949 24.6902 51.7949 30.3256Z" fill="#FAFAFA"/>
<path d="M40.1211 10.199C40.1211 15.8344 44.6831 20.3294 50.2515 20.3965C55.8869 20.3965 60.3819 15.9015 60.4489 10.2661C60.4489 4.69773 55.954 0.135701 50.3857 0.0686124C44.6831 0.00152377 40.1211 4.49646 40.1211 10.199Z" fill="#FAFAFA"/>
<path d="M11.1394 19.7255C16.3052 24.0863 21.6052 28.3799 26.8381 32.6736C27.4419 33.1432 28.0457 33.6799 28.6495 34.1495C27.7103 30.728 27.9786 27.4407 29.79 24.3546C31.6014 21.2685 34.352 19.4571 37.9077 18.7192C37.7065 18.5179 37.5723 18.4508 37.371 18.4508C34.4191 17.2432 31.4672 16.1027 28.5824 14.8951C24.6242 13.285 20.5989 11.6749 16.6406 10.0647C13.2191 8.72296 9.59633 10.7356 8.99254 14.2242C8.59 16.5052 9.39507 18.2495 11.1394 19.7255Z" fill="#FAFAFA"/>
<path d="M19.659 10.5346C25.7641 12.7485 31.8691 14.627 38.0413 16.6397C39.0476 16.9751 39.9868 17.2435 40.9932 17.5789C38.9805 14.6941 38.1084 11.608 38.7793 8.11943C39.383 4.69791 41.2615 2.08145 44.3476 0.0687966C44.0793 0.0687966 44.0122 0.00170898 43.9451 0.00170898C42.4691 0.00170898 41.0603 0.00170898 39.5843 0.00170898C33.6134 0.00170898 27.6425 0.00170898 21.6046 0.00170898C18.8539 0.00170898 16.5729 2.08146 16.1033 4.83209C15.6337 7.51563 16.9084 9.52829 19.659 10.5346Z" fill="#FAFAFA"/>
<path d="M52.3315 23.6167C52.8682 22.8116 53.5391 22.0737 54.277 21.3357C52.1973 21.8724 50.1175 22.0737 47.9707 21.6711C49.2454 23.0129 50.2517 24.4889 50.9226 26.3003C51.3251 25.2939 51.7277 24.4218 52.3315 23.6167Z" fill="#FAFAFA"/>
<path d="M53.4731 38.4434C52.3996 37.2358 51.5275 35.8269 50.9237 34.2168C50.3199 35.8269 49.4477 37.1687 48.4414 38.3763C50.1186 38.1079 51.7958 38.175 53.4731 38.4434Z" fill="#FAFAFA"/>
<path d="M59.3086 41.7979C60.382 43.0054 61.1871 44.3472 61.858 45.8232C62.5288 44.3472 63.3339 43.0725 64.5415 41.7979C62.663 42.1333 60.9858 42.0662 59.3086 41.7979Z" fill="#FAFAFA"/>
<path d="M39.7851 45.9575C40.3889 44.3474 41.2611 43.0056 42.4016 41.731C40.5902 42.1335 38.913 42.0664 37.1016 41.731C38.3092 43.0056 39.1813 44.2803 39.7851 45.9575Z" fill="#FAFAFA"/>
<path d="M60.8516 56.289L64.4743 58.2345C63.4009 57.0269 62.5959 55.6852 61.925 54.2092C61.6566 54.9472 61.3212 55.6181 60.8516 56.289Z" fill="#FAFAFA"/>
<path d="M38.8477 56.289L42.4704 58.2345C41.397 57.0269 40.592 55.6852 39.9211 54.2092C39.5856 54.9472 39.2502 55.6181 38.8477 56.289Z" fill="#FAFAFA"/>
</svg>
