<svg width="52" height="37" viewBox="0 0 52 37" fill="none" xmlns="http://www.w3.org/2000/svg">
<path d="M13.1318 25.2963C14.6606 23.9912 16.4602 23.4646 18.4384 23.5627C18.6081 23.5711 18.7159 23.3212 18.5958 23.2011C14.5697 19.6269 10.5025 16.0937 6.5174 12.4784C5.20274 11.287 3.27184 11.2459 1.95719 12.3963C0.601447 13.5877 0.354948 15.4775 1.34094 16.9565C4.13459 21.1059 6.84607 25.2963 9.55754 29.4457C9.86293 29.9038 10.6166 29.7177 10.7467 29.1827C11.1163 27.6634 11.8894 26.3569 13.1318 25.2963Z" fill="#08979C"/>
<path d="M17.8574 24.5156C14.3654 24.5156 11.5717 27.2271 11.5717 30.7192C11.5307 34.129 14.3243 36.9227 17.6931 36.9638C21.1852 37.0049 23.9788 34.2523 24.0199 30.7602C24.0199 27.3504 21.2262 24.5156 17.8574 24.5156Z" fill="#08979C"/>
<path d="M31.2925 24.5156C27.8415 24.5156 25.0479 27.2682 25.0479 30.7192C25.0479 34.1701 27.8004 36.9638 31.2925 36.9638C34.7434 36.9638 37.496 34.2112 37.496 30.7192C37.496 27.3093 34.7024 24.5156 31.2925 24.5156Z" fill="#08979C"/>
<path d="M44.725 24.5156C41.3151 24.5156 38.5625 27.3093 38.5625 30.7602C38.5625 34.2112 41.3561 36.9638 44.8071 36.9638C48.2581 36.9638 51.0107 34.1701 51.0107 30.7192C50.9696 27.2682 48.1759 24.5156 44.725 24.5156Z" fill="#08979C"/>
<path d="M30.7982 18.7627C30.8393 15.3528 28.0457 12.5181 24.6768 12.477C21.1848 12.4359 18.3911 15.1885 18.3501 18.6806C18.309 22.0904 21.1026 24.8841 24.4714 24.9252C27.9635 24.9663 30.7571 22.2137 30.7982 18.7627Z" fill="#08979C"/>
<path d="M31.8643 18.7212C31.8643 22.1311 34.6579 24.9247 38.0678 24.9247C41.5188 24.9247 44.3124 22.1311 44.3124 18.7212C44.3124 15.2702 41.5188 12.4766 38.1089 12.4766C34.6168 12.4766 31.8643 15.2702 31.8643 18.7212Z" fill="#08979C"/>
<path d="M24.7158 6.3954C24.7158 9.84637 27.5095 12.5989 30.9194 12.64C34.3703 12.64 37.1229 9.88745 37.164 6.43648C37.164 3.02659 34.4114 0.232943 31.0015 0.19186C27.5095 0.150777 24.7158 2.90334 24.7158 6.3954Z" fill="#08979C"/>
<path d="M6.96886 12.2311C10.1323 14.9015 13.3778 17.5308 16.5823 20.1601C16.9434 20.441 17.4689 20.1155 17.4177 19.6608C17.2384 18.0679 17.5306 16.5299 18.3899 15.0658C19.4417 13.274 21.0105 12.1839 23.0263 11.6905C23.1694 11.6555 23.2136 11.4622 23.0667 11.4517C23.0428 11.45 23.0209 11.4459 22.9986 11.4368C21.2022 10.7024 19.406 10.008 17.6504 9.27314C15.2265 8.28715 12.7616 7.30116 10.3377 6.31517C8.24243 5.49351 6.02395 6.726 5.6542 8.86231C5.40771 10.2591 5.9007 11.3273 6.96886 12.2311Z" fill="#08979C"/>
<path d="M12.188 6.60238C15.9266 7.95812 19.6651 9.10844 23.4448 10.3409C24.0189 10.5323 24.5632 9.82106 24.3274 9.26373C23.7822 7.97518 23.611 6.60887 23.8967 5.12339C24.2526 3.10652 25.3318 1.54647 27.0976 0.333284C27.1589 0.291215 27.1344 0.152344 27.0601 0.152344C26.1562 0.152344 25.2935 0.152344 24.3897 0.152344C20.7333 0.152344 17.0769 0.152344 13.3794 0.152344C11.695 0.152344 10.2982 1.42592 10.0106 3.11032C9.72304 4.75364 10.5036 5.98613 12.188 6.60238Z" fill="#08979C"/>
<path d="M32.1948 14.6117C32.4783 14.1865 32.0857 13.487 31.5762 13.5258C31.4845 13.5328 31.3926 13.5384 31.3007 13.5424C30.7413 13.567 30.327 14.3471 30.6251 14.821C30.6351 14.8367 30.6449 14.8525 30.6547 14.8684C30.9416 15.3316 31.7166 15.3273 32.0139 14.8706C32.0709 14.7829 32.131 14.6967 32.1948 14.6117Z" fill="#08979C"/>
<path d="M31.343 23.5497C31.8654 23.5597 32.254 22.9076 31.9849 22.4598C31.7204 22.0196 30.9333 22.0293 30.6661 22.468C30.3975 22.909 30.7802 23.5416 31.2965 23.549C31.312 23.5492 31.3275 23.5494 31.343 23.5497Z" fill="#08979C"/>
<path d="M37.9595 25.8839C37.4414 25.8752 37.1135 26.5455 37.3843 26.9872C37.4076 27.0253 37.4307 27.0636 37.4536 27.102C37.7028 27.5214 38.357 27.522 38.6149 27.1079C38.624 27.0933 38.6331 27.0788 38.6423 27.0642C38.9263 26.6145 38.4914 25.8928 37.9595 25.8839Z" fill="#08979C"/>
<path d="M23.8937 27.01C24.1516 27.4251 24.8834 27.4271 25.1375 27.0097C25.4028 26.5737 24.998 25.8817 24.4877 25.8765C23.9758 25.8712 23.6021 26.5462 23.8747 26.9796C23.881 26.9897 23.8874 26.9999 23.8937 27.01Z" fill="#08979C"/>
<path d="M37.639 34.2688C37.5258 34.461 37.5849 34.714 37.7815 34.8196L37.8319 34.8467C38.1887 35.0383 38.6624 34.5016 38.4677 34.1465C38.3117 33.8619 37.8617 33.8715 37.704 34.1553C37.6829 34.1932 37.6613 34.2311 37.639 34.2688Z" fill="#08979C"/>
<path d="M24.1331 34.2784C24.0297 34.4671 24.0974 34.7076 24.287 34.8094C24.6551 35.0071 25.1598 34.4572 24.9612 34.0897C24.8086 33.8073 24.3838 33.8033 24.2351 34.0877C24.2017 34.1517 24.1677 34.2152 24.1331 34.2784Z" fill="#08979C"/>
</svg>
