<svg width="54" height="52" viewBox="0 0 54 52" fill="none" xmlns="http://www.w3.org/2000/svg">
<path d="M9.40561 15.1082C10.5227 11.757 12.0121 9.15005 13.5016 7.1025C15.9221 3.75124 18.9008 2.07548 21.6939 1.33081C25.6038 0.213728 30.2586 0.958452 33.6097 3.56498C36.2163 5.42679 37.892 8.21963 38.4506 11.3847C42.1743 12.5018 43.8498 16.5979 43.4777 20.1355C43.4777 20.6941 43.4777 21.4389 43.2914 21.9973C42.919 23.4868 40.8709 23.4868 40.6848 21.9973C40.3125 20.8802 38.0783 19.5768 36.9612 19.2045C36.5889 19.0182 36.5889 18.8321 36.2165 19.2045C31.748 24.4177 25.0457 21.625 20.577 17.9011C19.0876 16.5977 17.7842 15.6669 16.2947 15.4806C14.8053 15.2943 13.3158 15.6669 11.4538 16.9701C10.3367 17.5287 9.03332 16.5977 9.40568 15.1082H9.40561ZM46.8288 21.0664C49.2493 23.673 50.9248 26.2796 51.8558 28.7002C53.3453 32.4238 53.5316 35.7754 52.7869 38.568C51.6698 42.664 48.6909 46.2018 44.7811 47.8773C41.9883 48.9944 38.6369 49.1807 35.6578 48.0636C32.865 50.6701 28.5826 50.1117 25.604 48.2499C25.0454 47.8775 24.4869 47.3189 23.9282 46.9465C22.9972 45.8294 23.9282 44.1536 25.4177 44.7123C26.3487 44.8986 28.7689 43.5952 29.7 42.8505C30.0723 42.6642 30.0723 42.6642 29.8863 42.2919C27.6521 35.7757 33.4238 31.307 39.0096 29.445C40.8714 28.7003 42.1748 27.9555 43.1055 26.8384C44.0366 25.7214 44.4089 24.0456 44.4089 21.8114C44.4089 20.508 45.8984 19.9496 46.8294 21.0667L46.8288 21.0664ZM37.147 40.8021C43.8497 37.0785 45.1527 32.6098 45.3393 28.3277V28.514C44.0359 30.0034 42.1741 31.1205 39.7536 32.0515C35.8437 33.3549 30.8168 36.5201 32.4923 41.3608C33.051 43.2226 33.051 43.7813 31.3753 45.0844C30.6305 45.6431 29.6995 46.2015 28.9548 46.5739C28.7685 46.5739 28.5824 46.5739 28.5824 46.7602C30.2582 47.3188 32.4923 47.3188 33.9816 46.0155C34.3539 45.4568 34.9126 44.7121 35.8434 45.2707C38.4499 46.5741 41.2426 46.3878 43.8491 45.2707C46.828 43.9673 49.4348 41.1748 50.1793 37.8235C50.738 35.5893 50.738 32.7965 49.4346 29.8177C49.0623 28.8867 48.6899 28.142 48.1312 27.2112C48.1312 32.7969 47.2002 38.3821 38.4494 43.2232L37.146 40.8028L37.147 40.8021ZM22.9965 50.4839C19.459 51.2286 16.4803 51.4149 13.8732 51.0425C9.9633 50.4839 6.98451 48.9944 4.93644 46.9465C1.95755 43.9676 0.467894 39.6853 0.840463 35.4032C1.39908 32.238 2.70227 29.259 5.30901 27.3974C4.37798 23.6738 6.98477 20.1362 10.336 18.4606C10.8946 18.2744 11.4531 18.0883 12.1978 17.902C13.5012 17.3434 14.432 19.2054 13.5012 20.1362C12.5702 20.8809 12.5702 23.4874 12.7565 24.6047C12.7565 25.1634 12.7565 25.1634 13.1289 25.3495C19.8316 26.6529 20.9486 33.9142 19.8316 39.4999C19.4592 41.3617 19.4592 43.0375 20.0179 44.5269C20.5765 45.8303 21.6936 46.9474 23.5554 48.0645C24.6725 48.6231 24.4865 50.2987 22.9968 50.485L22.9965 50.4839ZM10.7081 32.2378C10.7081 40.0576 13.8733 43.2227 17.5968 45.6432L17.4106 45.457C16.6658 43.5952 16.6658 41.361 17.2243 38.9408C17.969 34.8448 17.5966 28.8869 12.5696 27.9559C10.7078 27.5836 10.3355 27.2112 10.1491 25.1631C9.96286 24.232 9.96286 23.115 9.96286 22.3702V21.8116C8.65946 22.9287 7.35633 24.9768 7.91474 26.8386C8.2871 27.5833 8.65946 28.3281 7.72846 28.8867C5.30798 30.5625 4.00484 32.9827 3.63248 35.7755C3.26012 39.1267 4.3772 42.6642 6.79768 45.0848C8.47344 46.7605 10.8937 47.8776 14.2449 48.436C15.1759 48.436 16.1067 48.6223 17.0378 48.6223C12.3831 45.6434 7.91446 42.1061 8.10097 32.2378H10.7075L10.7081 32.2378ZM31.3748 13.8052C24.6721 9.70924 20.3899 10.8263 16.4798 12.8742H16.6661C18.7142 13.0605 20.576 14.1776 22.4378 15.8531C25.603 18.6459 30.816 21.4388 34.1677 17.5288C35.4711 16.0394 36.0295 15.8531 37.8913 16.5978C38.8223 16.9702 39.7531 17.5288 40.4978 18.0872C40.4978 18.0872 40.6841 18.2735 40.8702 18.2735C40.4978 16.4117 39.3807 14.3636 37.5189 13.9912C36.7742 13.805 35.8432 13.805 35.8432 12.6878C35.6569 9.895 34.1674 7.47468 31.9332 5.79913C29.3267 3.75101 25.603 3.00629 22.4374 3.93732C20.0169 4.49594 17.7828 5.98544 15.7347 8.59197C15.1761 9.33669 14.6176 10.0814 14.2453 11.0124C19.0862 8.21961 24.2991 6.3578 32.8639 11.3848L31.3744 13.8053L31.3748 13.8052Z" fill="#08979C"/>
</svg>
