<svg width="36" height="27" viewBox="0 0 36 27" fill="none" xmlns="http://www.w3.org/2000/svg">
<path d="M18.1603 0.84375C14.2821 0.91336 10.5245 2.20345 7.42146 4.5307C4.31842 6.85795 2.02776 10.104 0.875 13.8075C2.02776 17.511 4.31842 20.757 7.42146 23.0843C10.5245 25.4115 14.2821 26.7016 18.1603 26.7712C22.0385 26.7018 25.7963 25.4118 28.8995 23.0845C32.0027 20.7573 34.2934 17.5111 35.4463 13.8075C34.2934 10.1038 32.0027 6.85775 28.8995 4.53049C25.7963 2.20323 22.0385 0.913204 18.1603 0.84375ZM18.1603 22.4512C16.4507 22.4512 14.7795 21.9443 13.358 20.9945C11.9366 20.0447 10.8287 18.6948 10.1745 17.1153C9.52024 15.5359 9.34907 13.7979 9.68259 12.1212C10.0161 10.4445 10.8393 8.9043 12.0482 7.69545C13.257 6.4866 14.7972 5.66336 16.4739 5.32984C18.1507 4.99632 19.8886 5.16749 21.4681 5.82172C23.0475 6.47594 24.3975 7.58383 25.3473 9.00529C26.2971 10.4267 26.804 12.0979 26.804 13.8075C26.804 14.9426 26.5804 16.0666 26.146 17.1153C25.7116 18.164 25.075 19.1169 24.2723 19.9196C23.4697 20.7222 22.5168 21.3589 21.4681 21.7933C20.4194 22.2277 19.2954 22.4512 18.1603 22.4512Z" fill="#40A2E1"/>
<path d="M21.2164 10.7527C21.8208 11.357 22.2325 12.127 22.3993 12.9653C22.5661 13.8036 22.4805 14.6726 22.1535 15.4623C21.8264 16.252 21.2725 16.9269 20.5618 17.4018C19.8511 17.8767 19.0156 18.1302 18.1609 18.1302C17.3061 18.1302 16.4706 17.8767 15.7599 17.4018C15.0492 16.9269 14.4953 16.252 14.1682 15.4623C13.8412 14.6726 13.7556 13.8036 13.9225 12.9653C14.0893 12.127 14.5009 11.357 15.1054 10.7527C15.9158 9.94238 17.0148 9.48718 18.1609 9.48718C19.3069 9.48718 20.4059 9.94238 21.2164 10.7527Z" fill="#40A2E1"/>
</svg>
