<svg width="60" height="38" viewBox="0 0 60 38" fill="none" xmlns="http://www.w3.org/2000/svg">
<path d="M12.9817 17.0278C12.6007 17.0278 12.2832 17.3443 12.2832 17.724C12.2832 18.1038 12.6007 18.4203 12.9817 18.4203C12.9817 18.4203 12.9817 18.4203 13.0452 18.4203C16.2838 18.4203 18.9509 21.0788 18.9509 24.3069C18.9509 24.3069 18.9509 24.3069 18.9509 24.3702C18.9509 24.75 19.2684 25.0665 19.6494 25.0665C20.0304 25.0665 20.348 24.75 20.348 24.3702C20.348 20.3192 17.0459 17.0278 12.9817 17.0278Z" fill="white"/>
<path d="M45.8118 17.0911C45.4308 17.0911 45.1133 17.4076 45.1133 17.7874C45.1133 18.1672 45.4308 18.4837 45.8118 18.4837C45.8118 18.4837 45.8118 18.4837 45.8753 18.4837C49.1139 18.4837 51.781 21.1421 51.781 24.3702C51.781 24.3702 51.781 24.3702 51.781 24.4335C51.781 24.8133 52.0985 25.1298 52.4795 25.1298C52.8605 25.1298 53.178 24.8133 53.178 24.4335C53.2415 20.3826 49.9394 17.0911 45.8118 17.0911Z" fill="white"/>
<path d="M56.8614 16.1416C53.6863 11.8375 50.4477 7.53327 47.0821 3.35569C43.018 -1.77134 35.0167 -0.632001 32.4132 5.38119C32.1591 5.95086 31.9051 6.52053 31.7146 6.9636C30.3176 6.9636 29.1111 6.9636 27.7775 6.9636C27.5235 6.26734 27.333 5.76097 27.079 5.25459C24.6024 -0.315518 17.1727 -1.89793 13.1721 2.65943C9.04444 7.34338 5.23432 12.4704 1.80522 17.6607C-1.17937 22.2814 -0.290345 28.2946 3.20226 32.5355C6.69487 36.7763 12.537 38.4221 17.8077 36.6498C22.9514 34.9407 26.5075 30.2568 26.825 24.75C26.8885 23.2309 27.1425 21.775 27.079 20.2559C27.0155 18.357 28.222 18.1671 29.5556 18.2304C30.9526 18.2937 32.6037 18.0405 32.4767 20.3192C32.4132 21.7117 32.6672 23.1676 32.7307 24.6234C33.1117 30.5733 36.7948 35.3205 42.383 36.9662C47.8441 38.5487 53.7498 36.5232 57.0519 31.9025C60.354 27.0287 60.354 20.8889 56.8614 16.1416ZM13.6166 33.4216C8.34592 33.4216 3.96429 29.1807 4.02779 23.9904C4.02779 18.8001 8.40942 14.4959 13.6801 14.4959C18.8237 14.5592 23.0784 18.8634 23.0149 23.9904C22.9514 29.1807 18.7602 33.4216 13.6166 33.4216ZM46.0661 33.4849C40.9224 33.4849 36.6678 29.244 36.6043 24.117C36.6043 18.9267 40.9859 14.4959 46.1296 14.5592C51.2732 14.6225 55.5279 18.8634 55.5914 23.9904C55.6549 29.1807 51.4002 33.4849 46.0661 33.4849Z" fill="white"/>
</svg>
