<svg width="16" height="16" viewBox="0 0 16 16" fill="none" xmlns="http://www.w3.org/2000/svg">
<path d="M14.4733 13.5276L11.9999 11.0742C12.96 9.87719 13.4249 8.35778 13.2991 6.82845C13.1733 5.29911 12.4664 3.8761 11.3236 2.85201C10.1808 1.82792 8.68914 1.28059 7.15522 1.32256C5.62129 1.36453 4.16175 1.99262 3.0767 3.07767C1.99164 4.16273 1.36356 5.62227 1.32158 7.15619C1.27961 8.69012 1.82694 10.1818 2.85103 11.3246C3.87512 12.4674 5.29814 13.1743 6.82747 13.3001C8.3568 13.4259 9.87621 12.961 11.0733 12.0009L13.5266 14.4542C13.5886 14.5167 13.6623 14.5663 13.7436 14.6002C13.8248 14.634 13.9119 14.6514 13.9999 14.6514C14.0879 14.6514 14.1751 14.634 14.2563 14.6002C14.3376 14.5663 14.4113 14.5167 14.4733 14.4542C14.5934 14.3299 14.6606 14.1638 14.6606 13.9909C14.6606 13.818 14.5934 13.6519 14.4733 13.5276ZM7.33327 12.0009C6.41029 12.0009 5.50804 11.7272 4.74061 11.2144C3.97318 10.7017 3.37504 9.97282 3.02183 9.1201C2.66862 8.26738 2.57621 7.32907 2.75627 6.42382C2.93634 5.51858 3.38079 4.68706 4.03344 4.03441C4.68608 3.38177 5.5176 2.93731 6.42285 2.75725C7.32809 2.57718 8.2664 2.6696 9.11913 3.02281C9.97185 3.37602 10.7007 3.97416 11.2135 4.74158C11.7262 5.50901 11.9999 6.41127 11.9999 7.33425C11.9999 8.57192 11.5083 9.75891 10.6331 10.6341C9.75793 11.5092 8.57095 12.0009 7.33327 12.0009Z" fill="#08979C"/>
</svg>
