<svg width="42" height="42" viewBox="0 0 42 42" fill="none" xmlns="http://www.w3.org/2000/svg">
<path d="M21 41.9998C18.1918 42.0055 15.4113 41.4443 12.8251 40.3498C10.3298 39.296 8.06296 37.7677 6.15019 35.8498C4.23241 33.9369 2.70415 31.67 1.65019 29.1748C0.555763 26.5886 -0.0055868 23.8081 4.19137e-05 20.9998C-0.0055868 18.1915 0.555763 15.411 1.65019 12.8248C2.70415 10.3296 4.23241 8.06267 6.15019 6.1498C8.06296 4.23191 10.3298 2.70363 12.8251 1.6498C15.4113 0.555315 18.1918 -0.00589177 21 -0.000201296C23.8083 -0.00589177 26.5888 0.555315 29.175 1.6498C31.6703 2.70363 33.9371 4.23191 35.8499 6.1498C37.7677 8.06267 39.2959 10.3296 40.3499 12.8248C41.4443 15.411 42.0057 18.1915 42 20.9998C42.0057 23.8081 41.4443 26.5886 40.3499 29.1748C39.2959 31.67 37.7677 33.9369 35.8499 35.8498C33.9371 37.7677 31.6703 39.296 29.175 40.3498C26.5888 41.4443 23.8083 42.0055 21 41.9998V41.9998ZM21.9218 20.708L20.2643 22.6985C20.0866 22.9393 19.7836 23.3458 19.5894 23.6045C19.3951 23.8487 19.186 24.0806 18.9632 24.299C18.5657 24.7063 18.2228 25.058 18.3285 25.2613C18.489 25.5755 22.4031 32.186 22.4751 32.2648C22.5399 32.3304 22.6175 32.3825 22.7026 32.4181C22.7877 32.4536 22.8788 32.4719 22.971 32.4718C23.0634 32.4712 23.1548 32.4522 23.2398 32.4158C23.3248 32.3795 23.4018 32.3266 23.4661 32.2603C23.5516 32.1688 25.1784 27.2458 26.6536 22.7098C28.1289 18.1738 29.7128 13.229 29.7023 13.0895C29.6738 12.6845 29.5274 12.5263 29.1772 12.5263C28.7241 12.5669 28.2794 12.6728 27.8566 12.8405C27.3594 13.007 23.4976 14.2715 18.4659 15.9155C12.2499 17.9465 10.023 18.6905 9.95549 18.7535C9.88955 18.8182 9.83711 18.8953 9.80131 18.9804C9.76551 19.0656 9.7472 19.157 9.74711 19.2493C9.74726 19.3415 9.76588 19.4328 9.80168 19.5178C9.83748 19.6028 9.88961 19.6798 9.95549 19.7443C10.0305 19.8193 16.4056 23.4073 16.7806 23.6053C16.8056 23.617 16.8331 23.6227 16.8608 23.6218C17.5417 23.3636 18.1708 22.9851 18.7178 22.5043L18.7544 22.4765C18.8977 22.3678 19.2922 22.073 19.6604 21.8015L21.9218 20.708Z" fill="white"/>
</svg>
