<svg width="130" height="60" viewBox="0 0 130 60" fill="none" xmlns="http://www.w3.org/2000/svg">
<path d="M110.554 48.0973C113.777 48.0973 116.39 45.4865 116.39 42.2659C116.39 39.0454 113.777 36.4346 110.554 36.4346C107.33 36.4346 104.717 39.0454 104.717 42.2659C104.717 45.4865 107.33 48.0973 110.554 48.0973Z" fill="#FAFAFA"/>
<path d="M82.8445 48.0973C86.0681 48.0973 88.6812 45.4865 88.6812 42.2659C88.6812 39.0454 86.0681 36.4346 82.8445 36.4346C79.621 36.4346 77.0078 39.0454 77.0078 42.2659C77.0078 45.4865 79.621 48.0973 82.8445 48.0973Z" fill="#FAFAFA"/>
<path d="M55.0711 48.0973C58.2946 48.0973 60.9078 45.4865 60.9078 42.2659C60.9078 39.0454 58.2946 36.4346 55.0711 36.4346C51.8476 36.4346 49.2344 39.0454 49.2344 42.2659C49.2344 45.4865 51.8476 48.0973 55.0711 48.0973Z" fill="#FAFAFA"/>
<path d="M27.2957 48.0973C30.5192 48.0973 33.1324 45.4865 33.1324 42.2659C33.1324 39.0454 30.5192 36.4346 27.2957 36.4346C24.0722 36.4346 21.459 39.0454 21.459 42.2659C21.459 45.4865 24.0722 48.0973 27.2957 48.0973Z" fill="#FAFAFA"/>
<path d="M112.028 30.2681H4.01562L5.62575 32.614H111.357C116.724 32.614 121.018 36.9708 121.018 42.2659C121.018 47.6281 116.657 51.9178 111.357 51.9178H18.5739L20.184 54.2637H112.095C118.469 54.2637 123.702 49.1027 123.702 42.6681V41.7967C123.635 35.4291 118.402 30.2681 112.028 30.2681Z" fill="#FAFAFA"/>
<path d="M112.297 25.375H0.728516L3.00953 28.8604H112.297C119.677 28.8604 125.58 34.8258 125.58 42.1318V42.4669C125.58 49.8399 119.61 55.7382 112.297 55.7382H21.0564L23.3374 59.2237H112.23C121.555 59.2237 129.203 51.6496 129.203 42.2658C129.27 32.9491 121.689 25.375 112.297 25.375Z" fill="#FAFAFA"/>
<path d="M19.5137 0.776123V23.5653H43.196V0.776123H19.5137ZM40.7808 21.2194H21.9289V3.12207H28.7719V7.27774H34.0048V3.12207H40.8479V21.2194H40.7808Z" fill="#FAFAFA"/>
<path d="M54.332 0.776123V23.5653H78.0143V0.776123H54.332ZM75.6662 21.2194H56.8143V3.12207H63.6573V7.27774H68.8903V3.12207H75.7333V21.2194H75.6662Z" fill="#FAFAFA"/>
<path d="M89.2188 0.776123V23.5653H112.901V0.776123H89.2188ZM110.486 21.2194H91.6339V3.12207H98.477V7.27774H103.71V3.12207H110.553V21.2194H110.486Z" fill="#FAFAFA"/>
</svg>
