<svg width="40" height="40" viewBox="0 0 40 40" fill="none" xmlns="http://www.w3.org/2000/svg">
<path d="M3.69411 9.85071C3.79311 9.85071 3.88567 9.88882 3.95596 9.95911C4.05594 10.0591 4.0896 10.2046 4.04357 10.3393L3.98516 10.512L3.81241 10.5704C3.77331 10.5838 3.73371 10.5897 3.69213 10.5897C3.59313 10.5897 3.50107 10.5516 3.43177 10.4818C3.28724 10.3373 3.28724 10.1027 3.43177 9.95812C3.50206 9.88932 3.59512 9.85071 3.69411 9.85071M22.8394 27.2879L23.0028 27.3686C23.1305 27.4319 23.2097 27.5586 23.2097 27.7002C23.2097 27.9046 23.0438 28.0705 22.8394 28.0705C22.635 28.0705 22.4692 27.9046 22.4692 27.7002C22.4692 27.5596 22.5484 27.4324 22.6761 27.3686L22.8394 27.2879ZM3.69411 9.27289C3.45156 9.27289 3.20854 9.36546 3.0239 9.55058C2.65365 9.92082 2.65365 10.5217 3.0239 10.8915C3.20902 11.0766 3.45057 11.1682 3.69261 11.1682C3.79557 11.1682 3.89852 11.1513 3.99702 11.1182L10.1263 17.2475H19.1101L22.419 20.5564V26.851C22.1062 27.006 21.8909 27.3277 21.8909 27.6999C21.8909 28.2236 22.3156 28.6483 22.8393 28.6483C23.3629 28.6483 23.7876 28.2236 23.7876 27.6999C23.7876 27.3272 23.5723 27.006 23.2595 26.851V20.2079L19.4586 16.407H10.4738L4.5909 10.5241C4.70227 10.1935 4.62704 9.81383 4.3637 9.55051C4.17957 9.36589 3.93654 9.27283 3.69399 9.27283L3.69411 9.27289Z" fill="#89A8B3"/>
<path d="M12.1925 1.80195C12.3969 1.80195 12.5628 1.96777 12.5628 2.1722C12.5628 2.31278 12.4836 2.43998 12.3559 2.50334L12.1925 2.58402L12.0292 2.50334C11.9015 2.43998 11.8223 2.31327 11.8223 2.1722C11.8223 1.96777 11.9886 1.80195 12.1925 1.80195ZM25.5381 30.2304L25.7014 30.311C25.8291 30.3744 25.9083 30.5011 25.9083 30.6422C25.9083 30.8466 25.7425 31.0124 25.5381 31.0124C25.3337 31.0124 25.1678 30.8466 25.1678 30.6422C25.1678 30.5016 25.247 30.3744 25.3747 30.311L25.5381 30.2304ZM12.1925 1.22413C11.6688 1.22413 11.2441 1.64883 11.2441 2.17252C11.2441 2.54523 11.4595 2.86648 11.7723 3.0214V10.8598L14.9649 13.9386H20.5299L25.1168 18.5256V29.7938C24.804 29.9487 24.5887 30.2704 24.5887 30.6427C24.5887 31.1663 25.0134 31.591 25.5371 31.591C26.0608 31.591 26.4855 31.1663 26.4855 30.6427C26.4855 30.2699 26.2701 29.9487 25.9573 29.7938L25.9578 18.1776L20.8778 13.0976H15.3044L12.6127 10.5025V3.02089C12.9256 2.86596 13.1409 2.54423 13.1409 2.17201C13.1409 1.64882 12.7167 1.22412 12.1925 1.22412L12.1925 1.22413Z" fill="#89A8B3"/>
<path d="M36.2146 10.0346C36.3136 10.0346 36.4062 10.0727 36.4765 10.143C36.5463 10.2128 36.5849 10.3059 36.5849 10.4049C36.5849 10.5038 36.5468 10.5964 36.4765 10.6667C36.4072 10.736 36.3146 10.7746 36.2161 10.7746C36.175 10.7746 36.1344 10.7677 36.0958 10.7553L35.9231 10.6969L35.8647 10.5241C35.8196 10.389 35.8533 10.2435 35.9523 10.144C36.0231 10.0737 36.1156 10.0346 36.2146 10.0346M28.2336 32.9623L28.397 33.043C28.5247 33.1064 28.6039 33.2331 28.6039 33.3742C28.6039 33.5786 28.4381 33.7444 28.2336 33.7444C28.0292 33.7444 27.8634 33.5786 27.8634 33.3742C27.8634 33.2336 27.9426 33.1064 28.0703 33.0425L28.2336 32.9623ZM36.2146 9.45679C35.9721 9.45679 35.729 9.54935 35.5444 9.73447C35.2811 9.9978 35.2058 10.3774 35.3172 10.7081L30.843 15.1823V20.8562L27.8133 23.8859V32.5253C27.5005 32.6802 27.2852 33.002 27.2852 33.3742C27.2852 33.8979 27.7099 34.3226 28.2335 34.3226C28.7572 34.3226 29.1819 33.8979 29.1819 33.3742C29.1819 33.0015 28.9666 32.6802 28.6538 32.5253V24.2339L31.6835 21.2041V15.5302L35.9111 11.3026C36.0101 11.3358 36.1131 11.3526 36.2155 11.3526C36.4576 11.3526 36.7001 11.2606 36.8842 11.0759C37.2545 10.7057 37.2545 10.1048 36.8842 9.73504C36.7001 9.54993 36.457 9.45687 36.2145 9.45687L36.2146 9.45679Z" fill="#89A8B3"/>
<path d="M6.34633 5.91961C6.44532 5.91961 6.53788 5.95772 6.60817 6.02801C6.70816 6.12799 6.74182 6.27352 6.69578 6.40815L6.63737 6.5809L6.46512 6.63931C6.42602 6.65267 6.38642 6.65861 6.34533 6.65861C6.24634 6.65861 6.15427 6.6205 6.08497 6.55071C6.01518 6.48092 5.97657 6.38785 5.97657 6.28886C5.97657 6.18987 6.01469 6.09731 6.08497 6.02702C6.15476 5.95822 6.24732 5.91961 6.34632 5.91961M11.6268 13.4235C11.7258 13.4235 11.8178 13.4616 11.8871 13.5314C11.9569 13.6012 11.9955 13.6943 11.9955 13.7933C11.9955 13.8923 11.9574 13.9848 11.8871 14.0551C11.8173 14.1249 11.7243 14.1635 11.6253 14.1635C11.5263 14.1635 11.4337 14.1254 11.3634 14.0551C11.2635 13.9551 11.2298 13.8096 11.2758 13.675L11.3342 13.5022L11.507 13.4438C11.5456 13.4299 11.5862 13.4235 11.6268 13.4235M6.34633 5.34204C6.10378 5.34204 5.86076 5.4346 5.67612 5.61972C5.30588 5.98997 5.30588 6.59088 5.67612 6.96062C5.86124 7.14573 6.1028 7.23731 6.34483 7.23731C6.44779 7.23731 6.55074 7.22048 6.64924 7.18732L8.09264 8.63072V10.8547L10.7279 13.49C10.6166 13.8206 10.6918 14.2003 10.9551 14.4636C11.1402 14.6487 11.3828 14.7413 11.6253 14.7413C11.8679 14.7413 12.1109 14.6487 12.2955 14.4636C12.6658 14.0933 12.6658 13.4924 12.2955 13.1227C12.1104 12.9376 11.8689 12.846 11.6268 12.846C11.5239 12.846 11.4209 12.8628 11.3224 12.896L8.9336 10.5072V8.28321L7.24373 6.59335C7.3551 6.2627 7.27987 5.88305 7.01653 5.61972C6.83191 5.43411 6.58887 5.34204 6.34633 5.34204Z" fill="#89A8B3"/>
<path d="M0.948377 17.8781C1.15281 17.8781 1.31862 18.044 1.31862 18.2484C1.31862 18.389 1.23943 18.5162 1.11173 18.5795L0.948377 18.6602L0.78503 18.5795C0.657327 18.5167 0.578131 18.3895 0.578131 18.2484C0.577636 18.0445 0.744443 17.8781 0.948377 17.8781ZM4.06226 24.7717C4.16126 24.7717 4.25332 24.8098 4.32262 24.8796C4.39241 24.9494 4.43102 25.0424 4.43102 25.1414C4.43102 25.2404 4.39291 25.333 4.32262 25.4033C4.25283 25.4731 4.15977 25.5117 4.06078 25.5117C3.96179 25.5117 3.86922 25.4735 3.79893 25.4033C3.69895 25.3033 3.66529 25.1577 3.71132 25.0231L3.76973 24.8504L3.94248 24.792C3.98059 24.7781 4.02118 24.7717 4.06227 24.7717M0.948383 17.3004C0.424697 17.3004 0 17.7251 0 18.2488C0 18.6215 0.215313 18.9428 0.528146 19.0977V22.2032L3.16343 24.8385C3.05206 25.1692 3.1273 25.5488 3.39063 25.8121C3.57575 25.9973 3.81829 26.0898 4.06083 26.0898C4.30338 26.0898 4.5464 25.9973 4.73104 25.8121C5.10129 25.4419 5.10129 24.841 4.73104 24.4712C4.54592 24.2861 4.30436 24.1946 4.06233 24.1946C3.95937 24.1946 3.85642 24.2114 3.75792 24.2445L1.3691 21.8557V19.0987C1.68193 18.9437 1.89725 18.622 1.89725 18.2498C1.89675 17.7246 1.47206 17.3004 0.948371 17.3004L0.948383 17.3004Z" fill="#89A8B3"/>
<path d="M30.2637 3.69319C30.4681 3.69319 30.6339 3.85901 30.6339 4.06343C30.6339 4.20401 30.5547 4.33122 30.427 4.39458L30.2637 4.47526L30.1003 4.39458C29.9726 4.33172 29.8934 4.20451 29.8934 4.06343C29.8934 3.85901 30.0602 3.69319 30.2637 3.69319ZM28.3723 18.7773L28.5357 18.858C28.6634 18.9208 28.7426 19.048 28.7426 19.1891C28.7426 19.3935 28.5768 19.5594 28.3723 19.5594C28.1679 19.5594 28.0021 19.3935 28.0021 19.1891C28.0021 19.0485 28.0813 18.9213 28.209 18.858L28.3723 18.7773ZM30.2637 3.11537C29.74 3.11537 29.3153 3.54007 29.3153 4.06375C29.3153 4.43647 29.5306 4.75772 29.8434 4.91264V8.61562L27.9521 10.507V18.341C27.6393 18.4959 27.424 18.8176 27.424 19.1898C27.424 19.7135 27.8486 20.1382 28.3723 20.1382C28.896 20.1382 29.3207 19.7135 29.3207 19.1898C29.3207 18.8171 29.1054 18.4959 28.7926 18.341V10.8549L30.6839 8.96357V4.91213C30.9967 4.7572 31.2121 4.43547 31.2121 4.06324C31.2121 3.54005 30.7879 3.11536 30.2637 3.11536V3.11537Z" fill="#89A8B3"/>
<path d="M34.048 6.53022C34.2525 6.53022 34.4183 6.69604 34.4183 6.90046C34.4183 7.04104 34.3391 7.16825 34.2114 7.23161L34.048 7.31229L33.8847 7.23161C33.757 7.16825 33.6778 7.04153 33.6778 6.90046C33.6773 6.69604 33.8441 6.53022 34.048 6.53022ZM31.8801 10.5866C31.9212 10.5866 31.9617 10.5935 32.0004 10.6059L32.1731 10.6643L32.2315 10.8371C32.2766 10.9722 32.2429 11.1177 32.1439 11.2172C32.0741 11.287 31.981 11.3256 31.8821 11.3256C31.7831 11.3256 31.6905 11.2875 31.6202 11.2172C31.4757 11.0727 31.4757 10.8381 31.6202 10.6935C31.689 10.6242 31.7816 10.5866 31.8801 10.5866M34.048 5.95215C33.5244 5.95215 33.0997 6.37684 33.0997 6.90053C33.0997 7.27325 33.315 7.5945 33.6278 7.74942V8.61513L32.1844 10.0585C32.0854 10.0254 31.9824 10.0085 31.88 10.0085C31.6379 10.0085 31.3954 10.1006 31.2113 10.2852C30.841 10.6555 30.841 11.2564 31.2113 11.6261C31.3964 11.8112 31.6389 11.9038 31.8815 11.9038C32.124 11.9038 32.3671 11.8113 32.5517 11.6261C32.815 11.3628 32.8903 10.9832 32.7789 10.6525L34.4688 8.96264V7.74846C34.7816 7.59353 34.9969 7.2718 34.9969 6.89958C34.9959 6.37688 34.5717 5.95218 34.048 5.95218L34.048 5.95215Z" fill="#89A8B3"/>
<path d="M26.4806 1.80176C26.6851 1.80176 26.8509 1.96757 26.8509 2.172C26.8509 2.31258 26.7717 2.43979 26.644 2.50315L26.4806 2.58383L26.3173 2.50315C26.1896 2.43979 26.1104 2.31307 26.1104 2.172C26.1104 1.96757 26.2767 1.80176 26.4806 1.80176ZM17.0266 9.36458C17.1672 9.36458 17.2944 9.44378 17.3577 9.57148L17.4384 9.73483L17.3577 9.89818C17.2944 10.0259 17.1677 10.1051 17.0266 10.1051C16.8222 10.1051 16.6563 9.93926 16.6563 9.73483C16.6558 9.5304 16.8222 9.36458 17.0266 9.36458ZM26.4806 1.22368C25.9569 1.22368 25.5322 1.64838 25.5322 2.17207C25.5322 2.54478 25.7476 2.86603 26.0604 3.02095V4.83259L21.5784 9.31461H17.8754C17.7205 9.00178 17.3987 8.78646 17.0265 8.78646C16.5028 8.78646 16.0781 9.21116 16.0781 9.73484C16.0781 10.2585 16.5028 10.6832 17.0265 10.6832C17.3992 10.6832 17.7205 10.4679 17.8754 10.1551H21.9268L26.9019 5.18001V3.01991C27.2147 2.86498 27.43 2.54325 27.43 2.17103C27.4291 1.64833 27.0044 1.22363 26.4807 1.22363L26.4806 1.22368Z" fill="#89A8B3"/>
<path d="M20.5315 0.578287C20.6305 0.578287 20.7231 0.6164 20.7934 0.686688C20.8934 0.786673 20.927 0.932197 20.881 1.06683L20.8226 1.23958L20.6498 1.29799C20.6107 1.31135 20.5711 1.31729 20.5295 1.31729C20.4305 1.31729 20.3385 1.27918 20.2692 1.20939C20.1994 1.1396 20.1608 1.04653 20.1608 0.947545C20.1608 0.848555 20.1989 0.75599 20.2692 0.685701C20.339 0.616404 20.433 0.578291 20.5315 0.578291M17.0271 6.52741C17.1677 6.52741 17.2949 6.60661 17.3582 6.73431L17.4389 6.89766L17.3582 7.06101C17.2949 7.18871 17.1682 7.2679 17.0271 7.2679C16.8227 7.2679 16.6569 7.10209 16.6569 6.89766C16.6564 6.69372 16.8227 6.52741 17.0271 6.52741ZM20.5315 9.23251e-05C20.289 9.23251e-05 20.0459 0.0926538 19.8613 0.277775C19.4911 0.648022 19.4911 1.24893 19.8613 1.61867C20.0464 1.80378 20.288 1.89536 20.53 1.89536C20.633 1.89536 20.7359 1.87853 20.8344 1.84537L23.0494 4.06034L20.6324 6.47729H17.8754C17.7205 6.16446 17.3987 5.94915 17.0265 5.94915C16.5028 5.94915 16.0781 6.37384 16.0781 6.89753C16.0781 7.42121 16.5028 7.84591 17.0265 7.84591C17.3992 7.84591 17.7205 7.6306 17.8754 7.31776H20.9809L24.2384 4.06031L21.4294 1.25131C21.5407 0.920657 21.4655 0.541007 21.2022 0.277682C21.017 0.093059 20.7745 0 20.5315 0L20.5315 9.23251e-05Z" fill="#89A8B3"/>
<path d="M15.8034 0.578198C15.9024 0.578198 15.9949 0.616312 16.0652 0.686599C16.1652 0.786584 16.1989 0.932108 16.1528 1.06674L16.0944 1.23949L15.9217 1.2979C15.8826 1.31126 15.843 1.3172 15.8014 1.3172C15.7024 1.3172 15.6103 1.27909 15.541 1.2093C15.3965 1.06477 15.3965 0.830143 15.541 0.685613C15.6113 0.616811 15.7044 0.578202 15.8034 0.578202M18.2465 3.02088C18.3455 3.02088 18.4376 3.05899 18.5069 3.12878C18.6514 3.27331 18.6514 3.50794 18.5069 3.65247C18.4371 3.72226 18.344 3.76087 18.2451 3.76087C18.1461 3.76087 18.0535 3.72276 17.9832 3.65247C17.8832 3.55248 17.8496 3.40696 17.8956 3.27232L17.9545 3.09908L18.1273 3.04067C18.1654 3.02731 18.206 3.02087 18.2465 3.02087M15.8034 0C15.5608 0 15.3178 0.0925614 15.1332 0.277682C14.7629 0.64793 14.7629 1.24884 15.1332 1.61858C15.3183 1.80369 15.5598 1.89527 15.8019 1.89527C15.9048 1.89527 16.0078 1.87844 16.1063 1.84528L17.3477 3.08669C17.2363 3.41733 17.3115 3.79698 17.5749 4.06031C17.76 4.24543 18.0025 4.33799 18.2451 4.33799C18.4876 4.33799 18.7307 4.24543 18.9153 4.06031C19.2855 3.69006 19.2855 3.08916 18.9153 2.71942C18.7302 2.5343 18.4886 2.44272 18.2466 2.44272C18.1436 2.44272 18.0407 2.45955 17.9422 2.49272L16.7008 1.25131C16.8121 0.920657 16.7369 0.541008 16.4736 0.277682C16.2885 0.0930594 16.0459 0 15.8034 0Z" fill="#89A8B3"/>
<path d="M25.8113 9.08919C25.9103 9.08919 26.0028 9.12731 26.0731 9.19759C26.2177 9.34212 26.2177 9.57675 26.0731 9.72128C26.0038 9.79058 25.9113 9.82919 25.8128 9.82919C25.7717 9.82919 25.7311 9.82226 25.6925 9.80988L25.5197 9.75147L25.4613 9.57872C25.4163 9.4436 25.4499 9.29808 25.5489 9.19858C25.6192 9.1278 25.7123 9.08919 25.8113 9.08919M25.8128 13.4232C25.9118 13.4232 26.0038 13.4613 26.0731 13.5311C26.2177 13.6756 26.2177 13.9103 26.0731 14.0548C26.0033 14.1246 25.9103 14.1632 25.8113 14.1632C25.7123 14.1632 25.6197 14.1251 25.5494 14.0548C25.4494 13.9548 25.4158 13.8093 25.4618 13.6747L25.5202 13.5019L25.693 13.4435C25.7311 13.4296 25.7717 13.4232 25.8128 13.4232M25.8113 8.51099C25.5687 8.51099 25.3257 8.60355 25.1411 8.78867C24.8777 9.05199 24.8025 9.43164 24.9139 9.76229L24.1699 10.5062V12.7461L24.9139 13.49C24.8025 13.8207 24.8777 14.2003 25.1411 14.4636C25.3262 14.6487 25.5687 14.7413 25.8113 14.7413C26.0538 14.7413 26.2969 14.6488 26.4815 14.4636C26.8517 14.0934 26.8517 13.4925 26.4815 13.1227C26.2964 12.9376 26.0543 12.846 25.8128 12.846C25.7098 12.846 25.6069 12.8629 25.5084 12.896L25.0109 12.3986V10.8557L25.5084 10.3582C25.6074 10.3914 25.7103 10.4082 25.8128 10.4082C26.0548 10.4082 26.2974 10.3162 26.4815 10.1315C26.8517 9.7613 26.8517 9.16039 26.4815 8.79065C26.2964 8.60404 26.0538 8.51099 25.8113 8.51099V8.51099Z" fill="#89A8B3"/>
<path d="M2.56313 13.8182C2.66213 13.8182 2.75469 13.8563 2.82497 13.9266C2.92496 14.0266 2.95862 14.1721 2.91259 14.3067L2.85418 14.4795L2.68143 14.5379C2.64233 14.5513 2.60273 14.5572 2.56115 14.5572C2.46215 14.5572 2.37009 14.5191 2.30079 14.4493C2.231 14.3795 2.19239 14.2864 2.19239 14.1874C2.19239 14.0885 2.2305 13.9959 2.30079 13.9256C2.37009 13.8563 2.46414 13.8182 2.56312 13.8182M17.0212 19.7673C17.2257 19.7673 17.3915 19.9331 17.3915 20.1376C17.3915 20.342 17.2257 20.5078 17.0212 20.5078C16.8807 20.5078 16.7535 20.4286 16.6901 20.3009L16.6094 20.1376L16.6901 19.9742C16.7535 19.8465 16.8807 19.7673 17.0212 19.7673ZM2.56312 13.24C2.32058 13.24 2.07756 13.3326 1.89292 13.5177C1.52267 13.8879 1.52267 14.4888 1.89292 14.8586C2.07804 15.0437 2.31959 15.1353 2.56163 15.1353C2.66459 15.1353 2.76754 15.1184 2.86604 15.0853L8.33858 20.5578H16.1726C16.3275 20.8706 16.6492 21.086 17.0215 21.086C17.5452 21.086 17.9698 20.6613 17.9698 20.1376C17.9693 19.6139 17.5447 19.1897 17.021 19.1897C16.6483 19.1897 16.327 19.405 16.1721 19.7178L8.68655 19.7173L3.46059 14.4914C3.57196 14.1607 3.49673 13.7811 3.23339 13.5178C3.04828 13.3331 2.80573 13.2401 2.56319 13.2401L2.56312 13.24Z" fill="#89A8B3"/>
<path d="M38.1047 13.8182C38.2037 13.8182 38.2963 13.8563 38.3666 13.9266C38.5111 14.0712 38.5111 14.3058 38.3666 14.4503C38.2973 14.5196 38.2047 14.5582 38.1062 14.5582C38.0651 14.5582 38.0245 14.5513 37.9859 14.5389L37.8132 14.4805L37.7548 14.3078C37.7097 14.1726 37.7434 14.0271 37.8424 13.9276C37.9132 13.8568 38.0062 13.8182 38.1047 13.8182M34.2741 19.7229L34.4375 19.8035C34.5652 19.8669 34.6444 19.9936 34.6444 20.1352C34.6444 20.3396 34.4786 20.5054 34.2741 20.5054C34.0697 20.5054 33.9039 20.3396 33.9039 20.1352C33.9039 19.9946 33.9831 19.8674 34.1108 19.8035L34.2741 19.7229ZM38.1047 13.2401C37.8622 13.2401 37.6191 13.3327 37.4345 13.5178C37.1712 13.7812 37.0959 14.1608 37.2073 14.4915L33.8543 17.8444V19.2863C33.5415 19.4413 33.3262 19.763 33.3262 20.1352C33.3262 20.6589 33.7509 21.0836 34.2746 21.0836C34.7982 21.0836 35.2229 20.6589 35.2229 20.1352C35.2229 19.7625 35.0076 19.4412 34.6948 19.2863V18.1929L37.8018 15.0859C37.9008 15.119 38.0038 15.1359 38.1062 15.1359C38.3483 15.1359 38.5908 15.0438 38.775 14.8592C39.1452 14.4889 39.1452 13.888 38.775 13.5183C38.5903 13.3332 38.3473 13.2401 38.1047 13.2401L38.1047 13.2401Z" fill="#89A8B3"/>
<path d="M19.8617 22.6071C20.0661 22.6071 20.2319 22.7729 20.2319 22.9774C20.2319 23.1179 20.1527 23.2451 20.025 23.3085L19.8617 23.3892L19.6983 23.3085C19.5706 23.2451 19.4914 23.1184 19.4914 22.9774C19.4914 22.7734 19.6577 22.6071 19.8617 22.6071ZM19.8592 38.6809C20.0636 38.6809 20.2294 38.8467 20.2294 39.0511C20.2294 39.2555 20.0636 39.4213 19.8592 39.4213C19.7186 39.4213 19.5914 39.3421 19.528 39.2144L19.4474 39.0511L19.528 38.8877C19.5909 38.7605 19.7181 38.6809 19.8592 38.6809ZM19.8617 22.0293C19.338 22.0293 18.9133 22.454 18.9133 22.9777C18.9133 23.3504 19.1286 23.6716 19.4414 23.8266V35.0948L15.0643 39.4719H19.0103C19.1653 39.7847 19.487 40 19.8592 40C20.3829 40 20.8076 39.5753 20.8076 39.0516C20.8076 38.528 20.3829 38.1033 19.8592 38.1033C19.4865 38.1033 19.1653 38.3186 19.0103 38.6314H17.0938L20.2824 35.4428V23.8261C20.5953 23.6711 20.8106 23.3494 20.8106 22.9772C20.8101 22.4535 20.3854 22.0293 19.8617 22.0293L19.8617 22.0293Z" fill="#89A8B3"/>
<path d="M39.0506 17.6005C39.1496 17.6005 39.2422 17.6386 39.3124 17.7089C39.457 17.8535 39.457 18.0881 39.3124 18.2326C39.2431 18.3019 39.1506 18.3405 39.0521 18.3405C39.011 18.3405 38.9704 18.3336 38.9318 18.3212L38.7591 18.2628L38.7006 18.0901C38.6556 17.9549 38.6893 17.8094 38.7883 17.7099C38.8585 17.6391 38.9516 17.6005 39.0506 17.6005M31.2447 34.854L31.4081 34.9347C31.5358 34.998 31.615 35.1247 31.615 35.2663C31.615 35.4707 31.4492 35.6365 31.2447 35.6365C31.0403 35.6365 30.8745 35.4707 30.8745 35.2663C30.8745 35.1257 30.9537 34.9985 31.0814 34.9347L31.2447 34.854ZM39.0506 17.0227C38.808 17.0227 38.565 17.1153 38.3804 17.3004C38.1171 17.5637 38.0418 17.9434 38.1532 18.274L37.4092 19.018V22.5541H33.8731L30.825 25.6022V34.4172C30.5122 34.5721 30.2969 34.8939 30.2969 35.2661C30.2969 35.7898 30.7216 36.2145 31.2453 36.2145C31.7689 36.2145 32.1936 35.7898 32.1936 35.2661C32.1936 34.8934 31.9783 34.5721 31.6655 34.4172L31.665 25.9512L34.2211 23.3951H38.2502V19.3659L38.7477 18.8685C38.8467 18.9016 38.9496 18.9185 39.0521 18.9185C39.2941 18.9185 39.5367 18.8264 39.7208 18.6418C40.091 18.2715 40.091 17.6706 39.7208 17.3009C39.5357 17.1158 39.2931 17.0227 39.0506 17.0227L39.0506 17.0227Z" fill="#89A8B3"/>
<path d="M37.8278 25.4417C38.0322 25.4417 38.198 25.6075 38.198 25.812C38.198 26.0164 38.0322 26.1822 37.8278 26.1822C37.6872 26.1822 37.56 26.103 37.4966 25.9753L37.4159 25.812L37.4966 25.6486C37.5595 25.5209 37.6867 25.4417 37.8278 25.4417ZM35.1647 31.4973C35.2637 31.4973 35.3558 31.5354 35.4251 31.6052C35.5696 31.7497 35.5696 31.9844 35.4251 32.1289C35.3553 32.1987 35.2622 32.2373 35.1633 32.2373C35.0643 32.2373 34.9717 32.1992 34.9014 32.1289C34.8014 32.0289 34.7678 31.8834 34.8138 31.7487L34.8722 31.576L35.045 31.5176C35.0836 31.5032 35.1237 31.4973 35.1647 31.4973M37.8278 24.8635C37.4551 24.8635 37.1338 25.0788 36.9789 25.3917H34.8188L33.5215 26.689V30.8201L34.2654 31.5641C34.1541 31.8947 34.2293 32.2744 34.4926 32.5377C34.6778 32.7228 34.9203 32.8154 35.1628 32.8154C35.4054 32.8154 35.6484 32.7228 35.833 32.5377C36.2033 32.1675 36.2033 31.5665 35.833 31.1968C35.6479 31.0117 35.4059 30.9201 35.1643 30.9201C35.0614 30.9201 34.9584 30.9369 34.8599 30.9701L34.3625 30.4726V27.0381L35.1668 26.2337H36.9785C37.1334 26.5465 37.4551 26.7619 37.8273 26.7619C38.351 26.7619 38.7757 26.3372 38.7757 25.8135C38.7757 25.2893 38.3515 24.8636 37.8278 24.8636L37.8278 24.8635Z" fill="#89A8B3"/>
<path d="M27.7036 37.0664C27.8026 37.0664 27.8947 37.1045 27.964 37.1743C28.0338 37.2441 28.0724 37.3372 28.0724 37.4362C28.0724 37.5352 28.0342 37.6277 27.964 37.698C27.8942 37.7678 27.8011 37.8064 27.7021 37.8064C27.6031 37.8064 27.5106 37.7683 27.4403 37.698C27.3403 37.598 27.3066 37.4525 27.3527 37.3179L27.4111 37.1451L27.5838 37.0867C27.6224 37.0724 27.6625 37.0664 27.7036 37.0664M22.6984 38.6365L22.8617 38.7172C22.9894 38.7806 23.0686 38.9073 23.0686 39.0484C23.0686 39.2528 22.9028 39.4186 22.6984 39.4186C22.494 39.4186 22.3281 39.2528 22.3281 39.0484C22.3281 38.9078 22.4073 38.7806 22.535 38.7172L22.6984 38.6365ZM22.2781 31.4172V38.2004C21.9653 38.3553 21.75 38.6771 21.75 39.0493C21.75 39.573 22.1747 39.9977 22.6984 39.9977C23.2221 39.9977 23.6468 39.573 23.6468 39.0493C23.6468 38.6766 23.4315 38.3553 23.1186 38.2004V33.4466L26.8047 37.1327C26.6934 37.4633 26.7686 37.843 27.0319 38.1063C27.2171 38.2914 27.4596 38.384 27.7021 38.384C27.9447 38.384 28.1877 38.2914 28.3724 38.1063C28.7426 37.7361 28.7426 37.1352 28.3724 36.7654C28.1872 36.5803 27.9457 36.4887 27.7036 36.4887C27.6007 36.4887 27.4977 36.5056 27.3992 36.5387L22.2781 31.4172Z" fill="#89A8B3"/>
<path d="M17.0247 23.5523C17.2291 23.5523 17.3949 23.7182 17.3949 23.9226C17.3949 24.0632 17.3157 24.1904 17.188 24.2537L17.0247 24.3344L16.8614 24.2537C16.7336 24.1904 16.6545 24.0637 16.6545 23.9226C16.6545 23.7182 16.8213 23.5523 17.0247 23.5523ZM13.9113 37.0652C13.9524 37.0652 13.993 37.0721 14.0316 37.0845L14.2044 37.1429L14.2628 37.3156C14.3078 37.4508 14.2741 37.5963 14.1751 37.6958C14.1054 37.7656 14.0123 37.8042 13.9133 37.8042C13.8143 37.8042 13.7218 37.7661 13.6515 37.6958C13.5817 37.626 13.5431 37.5329 13.5431 37.4339C13.5431 37.335 13.5812 37.2424 13.6515 37.1721C13.7203 37.1028 13.8128 37.0652 13.9113 37.0652M17.0247 22.9733C16.501 22.9733 16.0763 23.398 16.0763 23.9216C16.0763 24.2944 16.2916 24.6156 16.6045 24.7705V34.1474L14.2156 36.5362C14.1166 36.5031 14.0137 36.4862 13.9112 36.4862C13.6692 36.4862 13.4267 36.5783 13.2425 36.7629C12.8723 37.1332 12.8723 37.7341 13.2425 38.1038C13.4276 38.2889 13.6702 38.3815 13.9127 38.3815C14.1553 38.3815 14.3983 38.2889 14.5829 38.1038C14.8463 37.8405 14.9215 37.4608 14.8101 37.1302L17.4454 34.4949L17.4459 24.7701C17.7588 24.6152 17.9741 24.2934 17.9741 23.9212C17.9731 23.398 17.5489 22.9733 17.0247 22.9733L17.0247 22.9733Z" fill="#89A8B3"/>
<path d="M4.4557 20.4377C4.5547 20.4377 4.64726 20.4758 4.71755 20.5461C4.81753 20.6461 4.85119 20.7916 4.80516 20.9262L4.74675 21.099L4.574 21.1574C4.5349 21.1708 4.4953 21.1767 4.45372 21.1767C4.35473 21.1767 4.26266 21.1386 4.19336 21.0688C4.04883 20.9243 4.04883 20.6896 4.19336 20.5451C4.26365 20.4763 4.35671 20.4377 4.4557 20.4377M13.5192 29.5003C13.6182 29.5003 13.7103 29.5384 13.7796 29.6082C13.9241 29.7528 13.9241 29.9874 13.7796 30.1319C13.7098 30.2017 13.6167 30.2403 13.5177 30.2403C13.4187 30.2403 13.3262 30.2022 13.2559 30.1319C13.1559 30.0319 13.1222 29.8864 13.1683 29.7518L13.2267 29.579L13.3994 29.5206C13.4375 29.5067 13.4781 29.5003 13.5192 29.5003M4.4557 19.8596C4.21316 19.8596 3.97013 19.9522 3.7855 20.1373C3.41525 20.5075 3.41525 21.1085 3.7855 21.4782C3.97062 21.6633 4.21217 21.7549 4.45421 21.7549C4.55716 21.7549 4.66012 21.7381 4.75861 21.7049L12.6199 29.5661C12.5085 29.8968 12.5837 30.2764 12.8471 30.5398C13.0322 30.7249 13.2747 30.8174 13.5173 30.8174C13.7598 30.8174 14.0028 30.7249 14.1875 30.5398C14.5577 30.1695 14.5577 29.5686 14.1875 29.1989C14.0023 29.0138 13.7608 28.9222 13.5188 28.9222C13.4158 28.9222 13.3128 28.939 13.2143 28.9722L5.35311 21.1109C5.46448 20.7803 5.38924 20.4006 5.12591 20.1373C4.94129 19.9527 4.69825 19.8596 4.4557 19.8596Z" fill="#89A8B3"/>
<path d="M11.3528 22.6046C11.4934 22.6046 11.6206 22.6838 11.6839 22.8115L11.7646 22.9748L11.6839 23.1382C11.6206 23.2659 11.4939 23.3451 11.3528 23.3451C11.1484 23.3451 10.9826 23.1792 10.9826 22.9748C10.9826 22.7704 11.1484 22.6046 11.3528 22.6046ZM14.1875 25.3967L14.3509 25.4774C14.4786 25.5408 14.5578 25.6675 14.5578 25.8085C14.5578 26.013 14.392 26.1788 14.1875 26.1788C13.9831 26.1788 13.8173 26.013 13.8173 25.8085C13.8173 25.668 13.8965 25.5408 14.0242 25.4774L14.1875 25.3967ZM11.3528 22.0264C10.8291 22.0264 10.4044 22.4511 10.4044 22.9747C10.4044 23.4984 10.8291 23.9231 11.3528 23.9231C11.7255 23.9231 12.0468 23.7078 12.2017 23.395H13.7669V24.9602C13.454 25.1151 13.2387 25.4368 13.2387 25.809C13.2387 26.3327 13.6634 26.7574 14.1871 26.7574C14.7108 26.7574 15.1355 26.3327 15.1355 25.809C15.1355 25.4363 14.9202 25.1151 14.6073 24.9602V22.5546H12.2018C12.0464 22.2418 11.7256 22.0265 11.3529 22.0265L11.3528 22.0264Z" fill="#89A8B3"/>
<path d="M7.29359 28.0026C7.39259 28.0026 7.48515 28.0407 7.55544 28.111C7.65542 28.211 7.68908 28.3565 7.64305 28.4912L7.58464 28.6639L7.41189 28.7223C7.37279 28.7357 7.33319 28.7416 7.29161 28.7416C7.19261 28.7416 7.10055 28.7035 7.03125 28.6337C6.96146 28.5639 6.92285 28.4709 6.92285 28.3719C6.92285 28.2729 6.96096 28.1803 7.03125 28.11C7.10055 28.0412 7.1946 28.0026 7.29359 28.0026M11.0753 36.1198C11.1163 36.1198 11.1569 36.1268 11.1955 36.1391L11.3683 36.1975L11.4267 36.3703C11.4717 36.5054 11.4381 36.6509 11.3391 36.7504C11.2693 36.8202 11.1762 36.8588 11.0772 36.8588C10.9782 36.8588 10.8857 36.8207 10.8154 36.7504C10.7456 36.6806 10.707 36.5876 10.707 36.4886C10.707 36.3896 10.7451 36.297 10.8154 36.2268C10.8837 36.158 10.9763 36.1198 11.0753 36.1198M7.29359 27.4251C7.05105 27.4251 6.80802 27.5176 6.62339 27.7028C6.25314 28.073 6.25314 28.6739 6.62339 29.0436C6.80851 29.2288 7.05006 29.3203 7.2921 29.3203C7.39505 29.3203 7.49801 29.3035 7.5965 29.2703L12.6487 34.3226L11.3796 35.5918C11.2806 35.5586 11.1776 35.5418 11.0752 35.5418C10.8331 35.5418 10.5906 35.6338 10.4064 35.8185C10.0362 36.1887 10.0362 36.7896 10.4064 37.1593C10.5916 37.3445 10.8341 37.437 11.0767 37.437C11.3192 37.437 11.5622 37.3445 11.7469 37.1593C12.0102 36.896 12.0854 36.5164 11.9741 36.1857L13.8376 34.3221L8.19138 28.6759C8.30275 28.3452 8.22751 27.9656 7.96418 27.7022C7.77857 27.5176 7.53602 27.425 7.29348 27.425L7.29359 27.4251Z" fill="#89A8B3"/>
<path d="M3.50844 28.949C3.60743 28.949 3.69999 28.9872 3.77028 29.0574C3.87027 29.1574 3.90393 29.303 3.85789 29.4376L3.79949 29.6103L3.62674 29.6687C3.58763 29.6821 3.54803 29.6881 3.50646 29.6881C3.40746 29.6881 3.3154 29.6499 3.2461 29.5801C3.10157 29.4356 3.10157 29.201 3.2461 29.0565C3.31688 28.9877 3.40994 28.9491 3.50843 28.9491M7.84346 33.2831C7.94246 33.2831 8.03452 33.3212 8.10382 33.391C8.24835 33.5355 8.24835 33.7701 8.10382 33.9147C8.03403 33.9845 7.94097 34.0231 7.84198 34.0231C7.74299 34.0231 7.65042 33.9849 7.58014 33.9147C7.48015 33.8147 7.44649 33.6692 7.49253 33.5345L7.55093 33.3618L7.72368 33.3034C7.76229 33.2895 7.80238 33.2831 7.84347 33.2831M3.50844 28.3708C3.26589 28.3708 3.02287 28.4634 2.83823 28.6485C2.46799 29.0188 2.46799 29.6197 2.83823 29.9894C3.02335 30.1745 3.26491 30.2661 3.50694 30.2661C3.6099 30.2661 3.71285 30.2493 3.81135 30.2161L6.94411 33.3489C6.83274 33.6795 6.90798 34.0592 7.17131 34.3225C7.35643 34.5076 7.59897 34.6002 7.84152 34.6002C8.08406 34.6002 8.32709 34.5076 8.51172 34.3225C8.88197 33.9523 8.88197 33.3514 8.51172 32.9816C8.32661 32.7965 8.08505 32.7049 7.84301 32.7049C7.74006 32.7049 7.6371 32.7218 7.5386 32.7549L4.40584 29.6222C4.51721 29.2915 4.44198 28.9119 4.17864 28.6485C3.99402 28.4639 3.75148 28.3708 3.50844 28.3708Z" fill="#89A8B3"/>
</svg>
