<svg width="70" height="47" viewBox="0 0 70 47" fill="none" xmlns="http://www.w3.org/2000/svg">
<path d="M21.1682 18H17.7285C16.3394 18 15.2148 16.8791 15.2148 15.4945V12.0659C15.2148 10.6813 16.3394 9.56042 17.7285 9.56042H21.1682C22.5573 9.56042 23.6818 10.6813 23.6818 12.0659V15.4945C23.6156 16.8791 22.5573 18 21.1682 18Z" fill="white"/>
<path d="M21.1682 37.1209H17.7285C16.3394 37.1209 15.2148 36 15.2148 34.6154V31.1868C15.2148 29.8022 16.3394 28.6813 17.7285 28.6813H21.1682C22.5573 28.6813 23.6818 29.8022 23.6818 31.1868V34.6154C23.6156 36 22.5573 37.1209 21.1682 37.1209Z" fill="white"/>
<path d="M30.9622 23.3583L23.0469 13.543L21.0878 15.1127L29.0031 24.928L30.9622 23.3583Z" fill="white"/>
<path d="M23.0651 33.1532L30.9805 23.3379L29.0214 21.7682L21.106 31.5835L23.0651 33.1532Z" fill="white"/>
<path d="M36.2482 27.5604H32.8085C31.4194 27.5604 30.2949 26.4396 30.2949 25.0549V21.6264C30.2949 20.2418 31.4194 19.1209 32.8085 19.1209H36.2482C37.6373 19.1209 38.7619 20.2418 38.7619 21.6264V25.0549C38.7619 26.4396 37.6373 27.5604 36.2482 27.5604Z" fill="white"/>
<path d="M5.95331 8.43956H2.51362C1.12451 8.43956 0 7.31868 0 5.93407V2.50549C0 1.12088 1.12451 0 2.51362 0H5.95331C7.34241 0 8.46693 1.12088 8.46693 2.50549V5.93407C8.40078 7.31868 7.27626 8.43956 5.95331 8.43956Z" fill="white"/>
<path d="M5.95331 27.5604H2.51362C1.12451 27.5604 0 26.4396 0 25.0549V21.6264C0 20.2418 1.12451 19.1209 2.51362 19.1209H5.95331C7.34241 19.1209 8.46693 20.2418 8.46693 21.6264V25.0549C8.40078 26.4396 7.27626 27.5604 5.95331 27.5604Z" fill="white"/>
<path d="M15.7415 13.8019L7.82617 3.98657L5.86706 5.55626L13.7824 15.3716L15.7415 13.8019Z" fill="white"/>
<path d="M7.83855 23.5936L15.7539 13.7783L13.7948 12.2086L5.87944 22.0239L7.83855 23.5936Z" fill="white"/>
<path d="M5.95331 27.5604H2.51362C1.12451 27.5604 0 26.4396 0 25.0549V21.6264C0 20.2418 1.12451 19.1209 2.51362 19.1209H5.95331C7.34241 19.1209 8.46693 20.2418 8.46693 21.6264V25.0549C8.40078 26.4396 7.27626 27.5604 5.95331 27.5604Z" fill="white"/>
<path d="M5.95331 46.6813H2.51362C1.12451 46.6813 0 45.5604 0 44.1758V40.7473C0 39.3626 1.12451 38.2418 2.51362 38.2418H5.95331C7.34241 38.2418 8.46693 39.3626 8.46693 40.7473V44.1758C8.40078 45.5604 7.27626 46.6813 5.95331 46.6813Z" fill="white"/>
<path d="M15.7474 32.9249L7.83203 23.1096L5.87292 24.6793L13.7883 34.4946L15.7474 32.9249Z" fill="white"/>
<path d="M7.84441 42.7228L15.7598 32.9075L13.8006 31.3378L5.8853 41.1531L7.84441 42.7228Z" fill="white"/>
<path d="M48.0214 28.7472H51.4611C52.8502 28.7472 53.9747 29.8681 53.9747 31.2527V34.6813C53.9747 36.0659 52.8502 37.1868 51.4611 37.1868H48.0214C46.6323 37.1868 45.5078 36.0659 45.5078 34.6813V31.2527C45.574 29.8681 46.6985 28.7472 48.0214 28.7472Z" fill="white"/>
<path d="M48.0214 9.62634H51.4611C52.8502 9.62634 53.9747 10.7472 53.9747 12.1318V15.5604C53.9747 16.945 52.8502 18.0659 51.4611 18.0659H48.0214C46.6323 18.0659 45.5078 16.945 45.5078 15.5604V12.1318C45.574 10.6813 46.6985 9.62634 48.0214 9.62634Z" fill="white"/>
<path d="M38.2253 23.3482L46.1406 33.1635L48.0997 31.5938L40.1844 21.7785L38.2253 23.3482Z" fill="white"/>
<path d="M46.1497 13.5534L38.2344 23.3687L40.1935 24.9383L48.1088 15.123L46.1497 13.5534Z" fill="white"/>
<path d="M63.2363 38.3077H66.676C68.0651 38.3077 69.1896 39.4286 69.1896 40.8132V44.2417C69.1896 45.6264 68.0651 46.7472 66.676 46.7472H63.2363C61.8472 46.7472 60.7227 45.6264 60.7227 44.2417V40.8132C60.7888 39.4286 61.9133 38.3077 63.2363 38.3077Z" fill="white"/>
<path d="M63.2363 19.1868H66.676C68.0651 19.1868 69.1896 20.3077 69.1896 21.6923V25.1209C69.1896 26.5055 68.0651 27.6264 66.676 27.6264H63.2363C61.8472 27.6264 60.7227 26.5055 60.7227 25.1209V21.6923C60.7888 20.3077 61.9133 19.1868 63.2363 19.1868Z" fill="white"/>
<path d="M53.446 32.9178L61.3613 42.7331L63.3204 41.1634L55.4051 31.3481L53.446 32.9178Z" fill="white"/>
<path d="M61.3626 23.1199L53.4473 32.9352L55.4064 34.5049L63.3217 24.6896L61.3626 23.1199Z" fill="white"/>
<path d="M63.2343 19.1868H66.674C68.0631 19.1868 69.1876 20.3077 69.1876 21.6923V25.1209C69.1876 26.5055 68.0631 27.6264 66.674 27.6264H63.2343C61.8452 27.6264 60.7207 26.5055 60.7207 25.1209V21.6923C60.7869 20.3077 61.9114 19.1868 63.2343 19.1868Z" fill="white"/>
<path d="M63.2343 0.065918H66.674C68.0631 0.065918 69.1876 1.1868 69.1876 2.57141V5.99998C69.1876 7.3846 68.0631 8.50548 66.674 8.50548H63.2343C61.8452 8.50548 60.7207 7.3846 60.7207 5.99998V2.57141C60.7869 1.12086 61.9114 0.065918 63.2343 0.065918Z" fill="white"/>
<path d="M53.4499 13.7886L61.3652 23.6039L63.3244 22.0342L55.409 12.2189L53.4499 13.7886Z" fill="white"/>
<path d="M61.3665 3.99686L53.4512 13.8122L55.4103 15.3819L63.3256 5.56656L61.3665 3.99686Z" fill="white"/>
</svg>
