<svg width="43" height="29" viewBox="0 0 43 29" fill="none" xmlns="http://www.w3.org/2000/svg">
<path fill-rule="evenodd" clip-rule="evenodd" d="M2.09443 0.615473C1.41943 0.915473 1.28367 1.27547 1.28367 2.77997C1.28367 4.28447 1.32868 4.41422 1.96768 4.84922C3.01012 5.15347 4.11723 5.15763 5.16193 4.86122L5.47767 4.66922L5.71017 4.93772C5.83767 5.08772 6.50967 5.95397 7.20267 6.86597L8.46342 8.52572L7.00017 10.4885L5.53693 12.4512L5.20167 12.2262C4.14848 11.889 3.01734 11.8822 1.96017 12.2067C0.964922 12.8712 1.03543 15.8217 2.06143 16.4247C3.08025 16.7071 4.15696 16.7051 5.17468 16.4187L5.50168 16.2252L6.87269 17.972C7.62644 18.932 8.29768 19.8035 8.36143 19.9077C8.45968 20.066 6.37542 23.1942 5.67042 23.9472C5.53808 23.9005 5.41459 23.8318 5.30517 23.744C4.85517 23.4395 4.54842 23.3907 3.30192 23.4305C1.58667 23.4852 1.33018 23.7905 1.33093 25.7825C1.33093 27.8937 1.53641 28.097 3.63041 28.0557C5.40416 28.0212 5.74766 27.7812 5.88041 26.4807C5.94566 25.8462 5.95542 25.826 9.60567 20.804L10.1644 20.0345L10.2087 20.7267C10.2904 22.0017 10.6489 22.2635 12.3739 22.3017C14.3592 22.3482 14.8369 21.9657 14.8444 20.3247V19.8387L16.9677 17.108L19.0917 14.3765L19.1404 15.1002C19.2244 16.3445 19.6227 16.6085 21.4204 16.6085C23.1882 16.6085 23.5954 16.3182 23.6997 14.9757L23.7499 14.336L24.3867 15.1985C24.7369 15.6725 25.6804 16.9445 26.4867 18.0252L27.9454 19.9895L28.0204 20.6562C28.1704 22.0062 28.4884 22.2597 30.0837 22.3062C32.0862 22.364 32.5054 22.1052 32.6494 20.7215L32.7064 20.1732L34.8297 23.045L36.9537 25.9167V26.4515C36.9537 27.7197 37.4532 28.0745 39.2367 28.0745C41.2857 28.0745 41.5527 27.791 41.5039 25.6677C41.4589 23.7027 41.2527 23.507 39.2224 23.5085C38.1094 23.5085 37.9707 23.528 37.6257 23.7252L37.2507 23.9412L35.8212 21.9912L34.3917 20.0412L35.6667 18.4595C36.3687 17.5895 37.0587 16.742 37.1997 16.5762L37.4562 16.2762L37.7689 16.433C38.5662 16.8335 40.6317 16.6797 41.1439 16.1817C41.9622 15.3815 41.7957 12.8187 40.8852 12.1992C39.8484 11.8998 38.7491 11.892 37.7082 12.1767C37.6006 12.248 37.4866 12.309 37.3677 12.359C37.3122 12.359 34.5867 8.73197 34.5289 8.58122C35.3079 7.35572 36.1702 6.18521 37.1097 5.07797L37.4202 4.69322L37.7134 4.87172C38.7532 5.1527 39.85 5.14388 40.8852 4.84622C41.4942 4.43222 41.5662 4.24622 41.6022 2.98247C41.6622 0.871973 41.3682 0.545723 39.3642 0.500723C37.4217 0.456473 36.9642 0.800722 36.9544 2.27822V2.99672L35.3044 5.09672C34.3977 6.25247 33.4294 7.47872 33.1609 7.82147C32.9756 8.03749 32.8099 8.26966 32.6659 8.51522C32.6659 8.55347 33.6304 9.85472 34.8094 11.408C35.5948 12.3669 36.3121 13.3796 36.9559 14.4387C36.3339 15.4491 35.6241 16.4028 34.8349 17.2887L32.7117 19.928L32.6517 19.2837C32.6636 19.0185 32.6034 18.7551 32.4774 18.5214C32.3514 18.2878 32.1643 18.0927 31.9362 17.957C30.8816 17.635 29.7539 17.6423 28.7037 17.978L28.3699 18.203L26.9119 16.2417L25.4547 14.2805L26.9329 12.3747L28.4112 10.469L28.6887 10.6385C29.7587 10.9093 30.8809 10.8964 31.9444 10.601C32.5024 10.226 32.5849 9.93572 32.5549 8.43347C32.5159 6.44072 32.2549 6.20597 30.1624 6.25847C28.4187 6.30122 28.0084 6.63347 28.0069 8.01422V8.75447L25.8612 11.5257L23.7154 14.3007V13.7217C23.7102 12.3245 23.2789 12.0005 21.4227 12.0012C19.5807 12.0012 19.2379 12.2322 19.1502 13.532L19.1044 14.207L16.9804 11.5565L14.8572 8.90597V8.09447C14.8572 6.52922 14.5047 6.24197 12.5832 6.24272C10.4989 6.24272 10.2912 6.44597 10.2904 8.48147C10.2904 9.98672 10.3857 10.265 11.0217 10.6017C11.9902 10.8688 13.0097 10.8922 13.9894 10.67C14.1904 10.595 14.3644 10.538 14.3682 10.5372C14.3997 10.5372 17.3232 14.1987 17.3232 14.2415C17.3232 14.267 16.6729 15.1415 15.8779 16.1915L14.4334 18.0942L14.1672 17.9007C13.0843 17.5975 11.9381 17.6043 10.8589 17.9202C10.6446 18.0854 10.4732 18.2998 10.3592 18.5452C10.2453 18.7906 10.1921 19.0599 10.2042 19.3302L10.1524 19.9482L9.59668 19.2387C9.29068 18.8487 8.33518 17.6367 7.47343 16.5447C6.90961 15.8693 6.38596 15.1613 5.90518 14.4245C5.90518 14.3495 6.87268 12.9905 8.05543 11.4035L10.2057 8.51747L9.30568 7.35797C8.81068 6.72047 7.84842 5.47622 7.16817 4.59422L5.93143 2.98922L5.88792 2.26472C5.80167 0.808973 5.46643 0.544223 3.66793 0.512723" fill="#A5C9D5"/>
<path d="M2.09443 0.615473C1.41943 0.915473 1.28367 1.27547 1.28367 2.77997C1.28367 4.28447 1.32868 4.41422 1.96768 4.84922C3.01012 5.15347 4.11723 5.15763 5.16193 4.86122L5.47767 4.66922L5.71017 4.93772C5.83767 5.08772 6.50967 5.95397 7.20267 6.86597L8.46342 8.52572L7.00017 10.4885L5.53693 12.4512L5.20167 12.2262C4.14848 11.889 3.01734 11.8822 1.96017 12.2067C0.964922 12.8712 1.03543 15.8217 2.06143 16.4247C3.08025 16.7071 4.15696 16.7051 5.17468 16.4187L5.50168 16.2252L6.87269 17.972C7.62644 18.932 8.29768 19.8035 8.36143 19.9077C8.45968 20.066 6.37542 23.1942 5.67042 23.9472C5.53808 23.9005 5.41459 23.8318 5.30517 23.744C4.85517 23.4395 4.54842 23.3907 3.30192 23.4305C1.58667 23.4852 1.33018 23.7905 1.33093 25.7825C1.33093 27.8937 1.53641 28.097 3.63041 28.0557C5.40416 28.0212 5.74767 27.7812 5.88042 26.4807C5.94567 25.8462 5.95542 25.826 9.60567 20.804L10.1644 20.0345L10.2087 20.7267C10.2904 22.0017 10.6489 22.2635 12.3739 22.3017C14.3592 22.3482 14.8369 21.9657 14.8444 20.3247V19.8387L16.9677 17.108L19.0917 14.3765L19.1404 15.1002C19.2244 16.3445 19.6227 16.6085 21.4204 16.6085C23.1882 16.6085 23.5954 16.3182 23.6997 14.9757L23.7499 14.336L24.3867 15.1985C24.7369 15.6725 25.6804 16.9445 26.4867 18.0252L27.9454 19.9895L28.0204 20.6562C28.1704 22.0062 28.4884 22.2597 30.0837 22.3062C32.0862 22.364 32.5054 22.1052 32.6494 20.7215L32.7064 20.1732L34.8297 23.045L36.9537 25.9167V26.4515C36.9537 27.7197 37.4532 28.0745 39.2367 28.0745C41.2857 28.0745 41.5527 27.791 41.5039 25.6677C41.4589 23.7027 41.2527 23.507 39.2224 23.5085C38.1094 23.5085 37.9707 23.528 37.6257 23.7252L37.2507 23.9412L35.8212 21.9912L34.3917 20.0412L35.6667 18.4595C36.3687 17.5895 37.0587 16.742 37.1997 16.5762L37.4562 16.2762L37.7689 16.433C38.5662 16.8335 40.6317 16.6797 41.1439 16.1817C41.9622 15.3815 41.7957 12.8187 40.8852 12.1992C39.8484 11.8998 38.7491 11.892 37.7082 12.1767C37.6006 12.248 37.4866 12.309 37.3677 12.359C37.3122 12.359 34.5867 8.73197 34.5289 8.58122C35.3079 7.35572 36.1702 6.18522 37.1097 5.07797L37.4202 4.69322L37.7134 4.87172C38.7532 5.1527 39.85 5.14388 40.8852 4.84622C41.4942 4.43222 41.5662 4.24622 41.6022 2.98247C41.6622 0.871973 41.3682 0.545723 39.3642 0.500723C37.4217 0.456473 36.9642 0.800722 36.9544 2.27822V2.99672L35.3044 5.09672C34.3977 6.25247 33.4294 7.47872 33.1609 7.82147C32.9756 8.03749 32.8099 8.26966 32.6659 8.51522C32.6659 8.55347 33.6304 9.85472 34.8094 11.408C35.5948 12.3669 36.3121 13.3796 36.9559 14.4387C36.3339 15.4491 35.6241 16.4028 34.8349 17.2887L32.7117 19.928L32.6517 19.2837C32.6636 19.0185 32.6034 18.7551 32.4774 18.5214C32.3514 18.2878 32.1643 18.0927 31.9362 17.957C30.8816 17.635 29.7539 17.6423 28.7037 17.978L28.3699 18.203L26.9119 16.2417L25.4547 14.2805L26.9329 12.3747L28.4112 10.469L28.6887 10.6385C29.7587 10.9093 30.8809 10.8964 31.9444 10.601C32.5024 10.226 32.5849 9.93572 32.5549 8.43347C32.5159 6.44072 32.2549 6.20597 30.1624 6.25847C28.4187 6.30122 28.0084 6.63347 28.0069 8.01422V8.75447L25.8612 11.5257L23.7154 14.3007V13.7217C23.7102 12.3245 23.2789 12.0005 21.4227 12.0012C19.5807 12.0012 19.2379 12.2322 19.1502 13.532L19.1044 14.207L16.9804 11.5565L14.8572 8.90597V8.09447C14.8572 6.52922 14.5047 6.24197 12.5832 6.24272C10.4989 6.24272 10.2912 6.44597 10.2904 8.48147C10.2904 9.98672 10.3857 10.265 11.0217 10.6017C11.9902 10.8688 13.0097 10.8922 13.9894 10.67C14.1904 10.595 14.3644 10.538 14.3682 10.5372C14.3997 10.5372 17.3232 14.1987 17.3232 14.2415C17.3232 14.267 16.6729 15.1415 15.8779 16.1915L14.4334 18.0942L14.1672 17.9007C13.0843 17.5975 11.9381 17.6043 10.8589 17.9202C10.6446 18.0854 10.4732 18.2998 10.3592 18.5452C10.2453 18.7906 10.1921 19.0599 10.2042 19.3302L10.1524 19.9482L9.59668 19.2387C9.29068 18.8487 8.33518 17.6367 7.47343 16.5447C6.90961 15.8693 6.38596 15.1613 5.90518 14.4245C5.90518 14.3495 6.87268 12.9905 8.05543 11.4035L10.2057 8.51747L9.30568 7.35797C8.81068 6.72047 7.84842 5.47622 7.16817 4.59422L5.93143 2.98922L5.88792 2.26472C5.80167 0.808973 5.46643 0.544223 3.66793 0.512723" stroke="#A5C9D5" stroke-width="0.75" stroke-miterlimit="10"/>
</svg>
