<svg width="58" height="53" viewBox="0 0 58 53" fill="none" xmlns="http://www.w3.org/2000/svg">
<path d="M27.65 42.5934C24.8057 42.5934 22.5566 44.9011 22.5566 47.6703C22.5566 50.5055 24.8718 52.7472 27.65 52.7472C30.4282 52.7472 32.7434 50.4395 32.7434 47.6703C32.7434 44.9011 30.4944 42.5934 27.65 42.5934ZM27.65 50.3077C26.1948 50.3077 25.0041 49.1209 25.0041 47.6703C25.0041 46.2198 26.1948 45.0329 27.65 45.0329C29.1053 45.0329 30.2959 46.2198 30.2959 47.6703C30.2959 49.1209 29.1053 50.3077 27.65 50.3077Z" fill="white"/>
<path d="M47.8903 42.5934C45.0459 42.5934 42.7969 44.9011 42.7969 47.6703C42.7969 50.5055 45.1121 52.7472 47.8903 52.7472C50.7346 52.7472 52.9836 50.4395 52.9836 47.6703C52.9836 44.9011 50.7346 42.5934 47.8903 42.5934ZM47.8903 50.3077C46.435 50.3077 45.2443 49.1209 45.2443 47.6703C45.2443 46.2198 46.435 45.0329 47.8903 45.0329C49.3455 45.0329 50.5362 46.2198 50.5362 47.6703C50.5362 49.1209 49.3455 50.3077 47.8903 50.3077Z" fill="white"/>
<path d="M56.2257 36.6593H22.1595L21.1012 32.4396L48.2879 32.5055C49.1479 32.5055 49.9416 31.978 50.2724 31.1209L57.1518 12.9231C57.7471 11.3407 56.5564 9.62638 54.9027 9.62638H15.4786L13.428 1.38462C13.2296 0.593408 12.5019 0 11.642 0H1.38911C0.595331 0 0 0.593408 0 1.38462V1.51649C0 2.30769 0.595331 2.9011 1.38911 2.9011H10.5175L19.1829 38.1758C19.3813 38.967 20.1089 39.5604 20.9689 39.5604H56.2257C57.0856 39.5604 57.8132 38.8352 57.6809 37.9121C57.6809 37.2527 56.9533 36.6593 56.2257 36.6593ZM43.9883 27.6264H24.8054C24.3424 27.6264 23.9455 27.2308 23.9455 26.7692C23.9455 26.3077 24.3424 25.9121 24.8054 25.9121H44.0545C44.5175 25.9121 44.9144 26.3077 44.9144 26.7692C44.8483 27.2308 44.4514 27.6264 43.9883 27.6264ZM46.7004 22.2857H23.4163C22.9533 22.2857 22.5564 21.8901 22.5564 21.4286C22.5564 20.967 22.9533 20.5714 23.4163 20.5714H46.7004C47.1634 20.5714 47.5603 20.967 47.5603 21.4286C47.5603 21.8901 47.1634 22.2857 46.7004 22.2857ZM20.7704 16.1538C20.7704 15.6923 21.1673 15.2967 21.6304 15.2967H49.4125C49.8755 15.2967 50.2724 15.6923 50.2724 16.1538C50.2724 16.6154 49.8755 17.011 49.4125 17.011H21.6304C21.1673 16.9451 20.7704 16.6154 20.7704 16.1538Z" fill="white"/>
</svg>
