<svg width="27" height="29" viewBox="0 0 27 29" fill="none" xmlns="http://www.w3.org/2000/svg">
<path fill-rule="evenodd" clip-rule="evenodd" d="M9.66325 0.241C9.11048 0.393694 8.60747 0.688784 8.20447 1.09678C7.80148 1.50478 7.51262 2.01139 7.36675 2.566C7.24375 3.03775 7.24375 18.3865 7.36675 18.8575C7.51469 19.4134 7.80597 19.9207 8.21148 20.3287C8.61699 20.7367 9.12252 21.0312 9.6775 21.1825C10.1628 21.3092 23.1362 21.3092 23.6275 21.1825C24.2097 21.0269 24.7377 20.7141 25.1539 20.2784C25.5701 19.8426 25.8583 19.3007 25.987 18.712C26.1033 18.1315 26.1033 3.30175 25.987 2.72575C25.8685 2.16508 25.605 1.64535 25.2226 1.21851C24.8403 0.791676 24.3526 0.472706 23.8083 0.2935L23.377 0.15625H16.6637C11.0905 0.15625 9.9025 0.17275 9.66475 0.2365M2.77975 6.0655C2.22536 6.19216 1.71339 6.46066 1.29399 6.8447C0.874581 7.22874 0.562133 7.71514 0.38725 8.25625L0.25 8.69875L0.265 17.269L0.279999 25.8392L0.438999 26.2233C0.726903 26.9801 1.29296 27.5985 2.0215 27.952C2.71825 28.3 2.30725 28.2865 10.9622 28.2715L18.901 28.2565L19.285 28.0975C20.8337 27.4555 21.3445 26.5112 21.3445 24.2927V23.0177L15.5898 22.9982C9.8605 22.9788 9.83275 22.9773 9.3745 22.8565C8.46745 22.6224 7.64177 22.1445 6.98696 21.4746C6.33214 20.8047 5.87315 19.9684 5.65975 19.0563C5.49335 16.8123 5.45454 14.5606 5.5435 12.3123L5.5165 5.9815H4.327C3.80941 5.96647 3.29145 5.99356 2.77825 6.0625" fill="#8582E0"/>
</svg>
