<svg width="108" height="82" viewBox="0 0 108 82" fill="none" xmlns="http://www.w3.org/2000/svg">
<path d="M37.5631 41.8043L35.3492 41.2681C35.4833 39.2572 35.1479 37.2464 34.477 35.2356L36.4226 34.0962C37.2947 33.5599 37.6302 32.4205 37.0935 31.4821L35.953 29.5383C35.4163 28.667 34.2758 28.3318 33.3365 28.8681L31.3909 30.0075C29.9821 28.4659 28.3049 27.2594 26.4935 26.3881L27.0302 24.1762C27.2985 23.1708 26.6947 22.0983 25.6213 21.8972L23.4074 21.361C22.4011 21.0929 21.3277 21.6962 21.1264 22.7686L20.5897 24.9805C18.577 24.8464 16.5644 25.1816 14.5517 25.8518L13.4112 23.9081C12.8745 23.0367 11.734 22.7016 10.7947 23.2378L8.84917 24.3772C7.97702 24.9135 7.64157 26.0529 8.17828 26.9913L9.31879 28.9351C7.77575 30.3426 6.56816 32.0183 5.696 33.8281L3.54917 33.2918C2.54284 33.0237 1.46942 33.627 1.26816 34.6994L0.731447 36.9113C0.463092 37.9167 1.06689 38.9891 2.14031 39.1902L4.35423 39.7264C4.22006 41.7372 4.5555 43.7481 5.22639 45.7589L3.28082 46.8983C2.40866 47.4345 2.07322 48.574 2.60993 49.5124L3.75043 51.4562C4.28714 52.3275 5.42765 52.6626 6.36689 52.1264L8.31246 50.987C9.72132 52.5286 11.3985 53.7351 13.2099 54.6064L12.6732 56.8183C12.4049 57.8237 13.0087 58.8962 14.0821 59.0972L16.296 59.6335C17.3023 59.9016 18.3757 59.2983 18.577 58.2259L19.1137 56.014C21.1264 56.1481 23.139 55.8129 25.1517 55.1426L26.2922 57.0864C26.8289 57.9578 27.9694 58.2929 28.9087 57.7567L30.8542 56.6172C31.7264 56.081 32.0618 54.9416 31.5251 54.0032L30.3846 52.0594C31.9277 50.6518 33.1352 48.9762 34.0074 47.1664L36.2213 47.7026C37.2277 47.9708 38.3011 47.3675 38.5023 46.2951L39.039 44.0832C39.2403 43.0778 38.5694 42.0053 37.5631 41.8043ZM25.0846 49.2443C20.2542 52.1264 13.9479 50.5848 11.0631 45.7589C8.17828 40.9329 9.72132 34.6324 14.6188 31.6832C19.4492 28.801 25.7555 30.3427 28.6403 35.1686C31.5251 39.9945 29.915 46.2951 25.0846 49.2443Z" fill="#FAFAFA"/>
<path d="M21.8477 43.7922C23.6904 42.6877 24.2882 40.2999 23.1827 38.4588C22.0773 36.6177 19.6872 36.0206 17.8445 37.125C16.0017 38.2294 15.404 40.6173 16.5094 42.4583C17.6149 44.2994 20.0049 44.8966 21.8477 43.7922Z" fill="#FAFAFA"/>
<path d="M54.6701 14.3902C54.603 13.3177 53.7308 12.5134 52.6574 12.5804L51.3827 12.6475C50.9802 11.1729 50.3093 9.76531 49.3701 8.4918L50.2422 7.55342C50.9131 6.74909 50.846 5.5426 50.108 4.87233L49.5042 4.33612C48.6992 3.66585 47.4916 3.73288 46.8207 4.47017L45.9485 5.40855C44.6068 4.60423 43.0637 4.06801 41.5878 3.86693L41.5207 2.59342C41.4536 1.52098 40.5814 0.71666 39.508 0.783687L38.703 0.850713C37.6296 0.91774 36.8245 1.78909 36.8916 2.86152L36.9587 4.13504C35.4827 4.5372 34.0739 5.20747 32.7992 6.14585L31.8599 5.2745C31.0549 4.60423 29.8473 4.67126 29.1764 5.40855L28.6397 6.0118C27.9688 6.81612 28.0359 8.02261 28.7739 8.69288L29.7131 9.56423C28.908 10.9048 28.3713 12.4464 28.1701 13.921L26.8954 13.988C25.822 14.055 25.0169 14.9264 25.084 15.9988L25.1511 16.8031C25.2182 17.8756 26.0903 18.6799 27.1637 18.6129L28.4384 18.5458C28.8409 20.0204 29.5118 21.428 30.4511 22.7015L29.5789 23.6399C28.908 24.4442 28.9751 25.6507 29.7131 26.321L30.3169 26.8572C31.122 27.5275 32.3296 27.4604 33.0004 26.7231L33.8726 25.9188C35.2144 26.7231 36.7574 27.2594 38.2333 27.4604L38.3004 28.734C38.3675 29.8064 39.2397 30.6107 40.3131 30.5437L41.1182 30.4767C42.1916 30.4096 42.9966 29.5383 42.9296 28.4659L42.8625 27.1923C44.3384 26.7902 45.7473 26.1199 47.022 25.1815L47.9612 26.0529C48.7663 26.7231 49.9739 26.6561 50.6447 25.9188L51.1815 25.3156C51.8523 24.5113 51.7853 23.3048 51.0473 22.6345L50.108 21.7631C50.9131 20.4226 51.4498 18.881 51.6511 17.4064L52.9258 17.3394C53.9992 17.2723 54.8042 16.401 54.7372 15.3286L54.6701 14.3902ZM45.7473 20.8918C42.8625 24.1091 37.965 24.3772 34.7447 21.5621C31.5245 18.6799 31.2561 13.7869 34.0739 10.5696C36.9587 7.35233 41.8561 7.08423 45.0764 9.89936C48.2966 12.7145 48.565 17.6745 45.7473 20.8918Z" fill="#FAFAFA"/>
<path d="M42.1358 17.6625C43.2188 16.445 43.1088 14.5809 41.8901 13.4988C40.6715 12.4168 38.8057 12.5267 37.7227 13.7442C36.6397 14.9617 36.7496 16.8259 37.9683 17.9079C39.1869 18.9899 41.0527 18.88 42.1358 17.6625Z" fill="#FAFAFA"/>
<path d="M74.2601 38.6541C66.9475 38.6541 60.9766 44.6195 60.9766 51.9254C60.9766 59.2314 66.9475 65.1968 74.2601 65.1968C81.5728 65.1968 87.5437 59.2314 87.5437 51.9254C87.6107 44.6195 81.6399 38.6541 74.2601 38.6541ZM66.4107 42.8097C68.0209 42.4076 69.6981 43.3459 70.1006 44.9546C70.5031 46.5632 69.5639 48.2389 67.9538 48.6411C66.3437 49.0432 64.6664 48.1049 64.2639 46.4962C63.8614 44.8876 64.8006 43.2789 66.4107 42.8097ZM66.9475 59.0303C65.3373 59.4324 63.6601 58.4941 63.2576 56.8854C62.855 55.2768 63.7943 53.6011 65.4044 53.1989C67.0145 52.7968 68.6918 53.7351 69.0943 55.3438C69.4968 56.9524 68.5576 58.6281 66.9475 59.0303ZM69.1614 51.9254C69.1614 49.1103 71.4424 46.8313 74.2601 46.8313C77.0778 46.8313 79.3588 49.1103 79.3588 51.9254C79.3588 54.7405 77.0778 57.0195 74.2601 57.0195C71.4424 57.0865 69.1614 54.7405 69.1614 51.9254ZM77.4133 63.5881C75.8031 63.9903 74.1259 63.0519 73.7234 61.4432C73.3209 59.8346 74.2601 58.1589 75.8702 57.7568C77.4804 57.3546 79.1576 58.293 79.5601 59.9016C80.0297 61.5103 79.0234 63.1859 77.4133 63.5881ZM77.4133 46.0941C75.8031 46.4962 74.1259 45.5578 73.7234 43.9492C73.3209 42.3405 74.2601 40.6649 75.8702 40.2627C77.4804 39.8605 79.1576 40.7989 79.5601 42.4076C80.0297 44.0162 79.0234 45.6919 77.4133 46.0941ZM84.2563 54.4054C82.6462 54.8076 80.969 53.8692 80.5664 52.2605C80.1639 50.6519 81.1032 48.9762 82.7133 48.5741C84.3234 48.1719 86.0006 49.1103 86.4032 50.7189C86.8057 52.3276 85.8664 54.0032 84.2563 54.4054Z" fill="#FAFAFA"/>
<path d="M106.664 45.4908C103.712 31.08 91.3005 20.1546 76.608 19.1492C73.7232 18.9481 70.9055 19.1492 68.222 19.6184C67.0815 19.8194 66.3435 20.8919 66.5448 22.0313L68.0207 30.0076C68.2891 31.6832 69.8992 32.7557 71.5093 32.4876C73.1865 32.2194 74.9979 32.2194 76.8093 32.4205C85.5308 33.493 92.5751 40.4638 93.9169 49.1103C94.2524 51.1211 94.1853 53.0649 93.9169 54.9416C93.7156 56.4162 94.722 57.8238 96.265 58.0248L104.584 59.2313C105.657 59.3654 106.731 58.6281 106.932 57.5557C107.536 53.7351 107.536 49.6465 106.664 45.4908ZM72.3815 28.6C70.7713 28.6 69.4967 27.3265 69.4967 25.7178C69.4967 24.1092 70.7713 22.8357 72.3815 22.8357C73.9916 22.8357 75.2663 24.1092 75.2663 25.7178C75.3334 27.2594 73.9916 28.6 72.3815 28.6ZM100.492 56.6173C98.8815 56.6173 97.6068 55.3438 97.6068 53.7351C97.6068 52.1265 98.8815 50.853 100.492 50.853C102.102 50.853 103.376 52.1265 103.376 53.7351C103.376 55.3438 102.102 56.6173 100.492 56.6173Z" fill="#FAFAFA"/>
<path d="M96.6009 60.7058C92.2401 59.7674 91.1667 57.7566 91.6363 54.2712C91.9047 52.5956 91.8376 50.8528 91.5022 49.0431C90.2946 41.8042 84.4579 35.9728 77.2123 34.7664C75.3338 34.4312 73.5224 34.4983 71.711 34.6993C67.9541 35.1015 66.0756 33.828 65.3376 30.0074L64.3313 24.5112C53.0604 28.5329 45.0098 39.3242 45.0098 51.9923C45.0098 68.0788 58.092 81.1491 74.1933 81.1491C87.0072 81.1491 97.8756 72.9047 101.834 61.4431L96.6009 60.7058ZM52.3895 38.1847C53.0604 37.9166 53.7984 38.2518 53.9996 38.922C54.268 39.5923 53.9325 40.3296 53.2617 40.5307C52.5908 40.7988 51.8528 40.4637 51.6515 39.7934C51.3832 39.1231 51.7186 38.3858 52.3895 38.1847ZM51.987 65.1296C51.3161 65.0626 50.7794 64.4593 50.8465 63.7891C50.9136 63.1188 51.5174 62.5826 52.1882 62.6496C52.8591 62.7166 53.3958 63.3199 53.3287 63.9902C53.2617 64.7274 52.6579 65.1966 51.987 65.1296ZM52.792 43.0777C52.5237 42.4074 52.8591 41.6701 53.53 41.4691C54.2009 41.201 54.9389 41.5361 55.1401 42.2064C55.3414 42.8766 55.0731 43.6139 54.4022 43.815C53.7984 44.0831 53.0604 43.748 52.792 43.0777ZM53.9996 46.362C53.7313 45.6918 54.0667 44.9545 54.7376 44.7534C55.4085 44.5523 56.1465 44.8204 56.3477 45.4907C56.6161 46.161 56.2806 46.8983 55.6098 47.0993C54.9389 47.3674 54.268 47.0323 53.9996 46.362ZM55.4756 65.4647C54.8047 65.3977 54.268 64.7945 54.3351 64.1242C54.4022 63.4539 55.006 62.9177 55.6768 62.9847C56.3477 63.0518 56.8844 63.655 56.8174 64.3253C56.7503 64.9956 56.1465 65.5318 55.4756 65.4647ZM56.8174 50.3837C56.1465 50.6518 55.4085 50.3166 55.2072 49.6464C55.006 48.9761 55.2743 48.2388 55.9452 48.0377C56.6161 47.7696 57.3541 48.1047 57.5553 48.775C57.8237 49.4453 57.4882 50.1826 56.8174 50.3837ZM58.9642 65.7328C58.2933 65.6658 57.7566 65.0626 57.8237 64.3923C57.8908 63.722 58.4946 63.1858 59.1655 63.2528C59.8363 63.3199 60.373 63.9231 60.306 64.5934C60.2389 65.3307 59.6351 65.7999 58.9642 65.7328ZM62.4528 66.068C61.7819 66.001 61.2452 65.3977 61.3123 64.7274C61.3794 64.0572 61.9832 63.521 62.6541 63.588C63.3249 63.655 63.8617 64.2583 63.7946 64.9285C63.7275 65.5988 63.1237 66.135 62.4528 66.068ZM70.5034 77.8647C69.9667 78.3339 69.1617 78.2669 68.7591 77.7307C68.2895 77.1945 68.3566 76.3901 68.8933 75.988C69.43 75.5188 70.2351 75.5858 70.6376 76.122C71.1072 76.6583 71.0401 77.4626 70.5034 77.8647ZM73.187 75.6528C72.6503 76.122 71.8452 76.055 71.4427 75.5188C70.9731 74.9826 71.0401 74.1783 71.5768 73.7761C72.1136 73.3069 72.9186 73.3739 73.3212 73.9102C73.7908 74.3793 73.7237 75.1837 73.187 75.6528ZM75.8705 73.3739C75.3338 73.8431 74.5287 73.7761 74.1262 73.2399C73.6566 72.7037 73.7237 71.8993 74.2604 71.4972C74.7971 71.028 75.6022 71.095 76.0047 71.6312C76.4743 72.1004 76.4072 72.9047 75.8705 73.3739ZM78.5541 71.095C78.0174 71.5642 77.2123 71.4972 76.8098 70.961C76.3401 70.4247 76.4072 69.6204 76.9439 69.2183C77.4806 68.7491 78.2857 68.8161 78.6882 69.3523C79.1579 69.8885 79.0908 70.6928 78.5541 71.095ZM74.2604 67.0734C65.8743 67.0734 59.0984 60.3037 59.0984 51.9253C59.0984 43.5469 65.8743 36.7772 74.2604 36.7772C82.6465 36.7772 89.4224 43.5469 89.4224 51.9253C89.4224 60.3037 82.6465 67.0734 74.2604 67.0734ZM89.4895 72.9718C88.8186 72.9047 88.2819 72.3015 88.349 71.6312C88.4161 70.961 89.0199 70.4247 89.6908 70.4918C90.3617 70.5588 90.8984 71.162 90.8313 71.8323C90.7642 72.5696 90.1604 73.0388 89.4895 72.9718ZM89.7579 69.4864C89.087 69.4193 88.5503 68.8161 88.6174 68.1458C88.6844 67.4756 89.2882 66.9393 89.9591 67.0064C90.63 67.0734 91.1667 67.6766 91.0996 68.3469C91.0996 69.0842 90.4958 69.5534 89.7579 69.4864ZM90.0933 66.001C89.4224 65.9339 88.8857 65.3307 88.9528 64.6604C89.0199 63.9902 89.6237 63.4539 90.2946 63.521C90.9655 63.588 91.5022 64.1912 91.4351 64.8615C91.368 65.5988 90.7642 66.068 90.0933 66.001ZM90.4287 62.5156C89.7579 62.4485 89.2212 61.8453 89.2882 61.175C89.3553 60.5047 89.9591 59.9685 90.63 60.0356C91.3009 60.1026 91.8376 60.7058 91.7705 61.3761C91.7034 62.0464 91.0996 62.5826 90.4287 62.5156Z" fill="#FAFAFA"/>
</svg>
