<svg width="82" height="82" viewBox="0 0 82 82" fill="none" xmlns="http://www.w3.org/2000/svg">
<rect width="82" height="82" rx="41" fill="#E6F5F5"/>
<path d="M34.1302 30.5142L23.7197 25.043L20.0342 25.7649L17.2227 31.0841L32.8764 39.2909L35.65 33.9717L34.1302 30.5142Z" fill="#08979C"/>
<path d="M28.2393 40.4674L29.4171 38.1877L20.2985 33.4004L17.7148 38.2637L28.2393 40.4674Z" fill="#08979C"/>
<path d="M16.5767 40.4668L15.1709 43.1264L25.6954 45.2921L27.1012 42.6325L16.5767 40.4668Z" fill="#08979C"/>
<path d="M11.4852 50.1543L11.0293 51.0282L11.7512 54.0677L17.2604 56.9553L20.148 55.8535L22.0097 52.358L11.4852 50.1543Z" fill="#08979C"/>
<path d="M23.1504 50.1563L24.5562 47.4966L14.0318 45.293L12.626 47.9906L23.1504 50.1563Z" fill="#08979C"/>
<path d="M70.8333 41.3425L63.3864 28.4244C63.1964 28.0824 62.8544 27.8925 62.4745 27.8925H62.5885L59.6629 26.3347C59.5109 26.2587 59.321 26.2207 59.131 26.2207H44.0472H44.0092C43.6672 26.2207 43.3633 26.4107 43.2113 26.6766L35.7644 39.6328C35.6124 39.9367 35.6124 40.2787 35.7644 40.5446L43.4013 53.7287C43.4773 53.8427 43.5532 53.9187 43.6672 53.9947L43.7052 54.0327C43.7432 54.0327 43.7432 54.0707 43.7812 54.0707L44.4271 54.3746L46.9727 55.5904C47.1247 55.7044 47.3527 55.7804 47.5427 55.7804H62.4365C62.8164 55.7804 63.1584 55.5904 63.3484 55.2485L70.7953 42.3304C71.0233 42.0644 71.0233 41.6845 70.8333 41.3425ZM59.207 26.8286C59.3969 26.8286 59.5489 26.8666 59.7009 26.9426L61.2967 27.7785C61.4486 27.8545 61.5626 27.8925 61.7146 27.8925H47.4287L45.225 26.8286H59.207ZM47.1247 42.8243C46.7828 42.2164 46.7828 41.4945 47.1247 40.9246L50.2403 35.5294C50.5822 34.9214 51.2281 34.5795 51.874 34.5795H55.9394L58.675 39.3288C59.017 39.9367 59.017 40.6586 58.675 41.2285L55.9394 45.9778C55.5975 46.5857 54.9516 46.9277 54.2677 46.9277H49.5184L47.1247 42.8243ZM36.5243 39.8987L43.7812 27.3225C43.8192 27.2466 43.8952 27.1706 43.9712 27.0946L46.6688 28.3864L39.1839 41.3425L36.4863 40.0127C36.4863 39.9747 36.4863 39.9367 36.5243 39.8987ZM36.6762 41.1145L39.1079 42.3304V42.2924C39.1079 42.3304 39.1459 42.3684 39.1459 42.4064L46.1749 54.5646L43.7812 53.3868L36.6762 41.1145ZM62.8544 42.8243L59.7389 48.2195C59.3969 48.8274 58.751 49.1694 58.1051 49.1694H51.874C51.1901 49.1694 50.5822 48.7894 50.2403 48.2195L49.8603 47.5736H54.6096C55.2935 47.5736 55.9394 47.1937 56.2814 46.6237L59.3969 41.2665C59.7389 40.6586 59.7389 39.9367 59.3969 39.3668L56.6613 34.6175H58.1051C58.789 34.6175 59.3969 34.9974 59.7389 35.5673L62.8544 40.9626C63.1964 41.5325 63.1964 42.2544 62.8544 42.8243Z" fill="#08979C"/>
</svg>
