<svg width="24" height="40" viewBox="0 0 24 40" fill="none" xmlns="http://www.w3.org/2000/svg">
<path d="M0.375 0.140625V39.8594H6.09037L7.83412 31.2372C7.93099 30.7529 8.31849 30.4622 8.80287 30.4622H15.1966C15.681 30.4622 16.0685 30.7529 16.1654 31.2372L17.9091 39.8594H23.6245V0.140625H0.375ZM21.6875 26.2969C21.6875 26.7812 21.2031 27.2656 20.7188 27.2656H3.28125C2.79688 27.2656 2.3125 26.7812 2.3125 26.2969V3.04688C2.3125 2.5625 2.79688 2.07812 3.28125 2.07812H20.7188C21.2031 2.07812 21.6875 2.5625 21.6875 3.04688V26.2969ZM17.2313 10.0219C17.2313 10.5062 16.7469 10.9906 16.2625 10.9906H16.0688V13.7031C16.0688 14.1875 15.5844 14.6719 15.1 14.6719H14.4219V17.8687C14.4219 18.45 13.9375 18.8375 13.4531 18.8375H10.5469C10.0625 18.8375 9.57813 18.45 9.57813 17.8687V14.6719H8.80313C8.31875 14.6719 7.83438 14.1875 7.83438 13.7031V10.9906H7.64063C7.05938 10.9906 6.67188 10.5062 6.67188 10.0219V4.01562H4.25V25.3281H8.60938V21.6469C8.60938 21.0656 8.99688 20.6781 9.57813 20.6781H14.325C14.9063 20.6781 15.2938 21.0656 15.2938 21.6469V25.3281H19.75V4.01562H17.2313V10.0219ZM15.2938 9.05312V4.01562H8.60912V9.05312H15.2938ZM14.1313 12.7344V10.9906H9.77188V12.7344H14.1313ZM10.5469 25.3281H13.3563V22.6156H10.5469V25.3281ZM12.4844 16.9003V14.6721H11.5156V16.9003H12.4844Z" fill="#08979C"/>
</svg>
