<svg width="50" height="50" viewBox="0 0 50 50" fill="none" xmlns="http://www.w3.org/2000/svg">
<path d="M3.77429 38.5787C0.660707 41.6921 0.625 47.5045 0.625 47.7502C0.625 48.1812 0.796132 48.5945 1.10097 48.8992C1.40566 49.2041 1.81901 49.3752 2.25 49.3752C2.49544 49.3752 8.308 49.3395 11.4215 46.2259C12.4354 45.2118 13.0052 43.8365 13.0052 42.4023C13.0052 40.9682 12.4355 39.5929 11.4215 38.5788C10.3913 37.5955 9.02209 37.0469 7.59803 37.0469C6.17396 37.0469 4.80454 37.5955 3.77438 38.5788L3.77429 38.5787Z" fill="#08979C"/>
<path d="M49.3357 6.42609C49.2316 4.93243 48.5912 3.52682 47.5327 2.46784C46.4742 1.40904 45.0686 0.768354 43.5751 0.663748C40.2909 0.394947 36.9915 0.948799 33.975 2.27553C30.9587 3.60227 28.3209 5.65978 26.2994 8.26247L12.5276 26.238C12.2878 26.551 12.1698 26.9405 12.1959 27.3339C12.2218 27.7274 12.39 28.098 12.669 28.3765L13.7577 29.4653L10.797 32.426C10.5262 32.6957 10.374 33.062 10.374 33.444C10.374 33.8262 10.5262 34.1925 10.797 34.4621L15.5373 39.2024C15.8071 39.4727 16.1734 39.6247 16.5554 39.6247C16.9373 39.6247 17.3036 39.4727 17.5734 39.2024L20.5341 36.2417L21.6229 37.3304C21.9015 37.6094 22.272 37.7776 22.6656 37.8035C23.0589 37.8296 23.4484 37.7116 23.7614 37.4718L41.7369 23.7C44.3375 21.6774 46.3935 19.0395 47.72 16.0239C49.0465 13.0084 49.6018 9.71027 49.3355 6.42647L49.3357 6.42609ZM39.5029 18.1439C38.1373 19.5098 36.1465 20.0434 34.2804 19.5437C32.4145 19.0441 30.957 17.5868 30.4568 15.7209C29.9567 13.855 30.4899 11.8642 31.8556 10.4984C33.2282 9.16536 35.2029 8.65671 37.0487 9.16098C38.8944 9.66525 40.3362 11.1071 40.8405 12.9526C41.3446 14.7984 40.8361 16.7731 39.5031 18.1457L39.5029 18.1439Z" fill="#08979C"/>
<path d="M2.24978 22.6317H9.16405C9.78476 22.64 10.4021 22.7251 11.002 22.8851L20.479 10.5173L17.3021 9.72445C15.8219 9.35831 14.2722 9.37981 12.8024 9.78674C11.333 10.1938 9.99302 10.9726 8.91207 12.0482L1.1008 19.8582C0.796115 20.1629 0.625 20.576 0.625 21.007C0.625 21.438 0.796132 21.8512 1.1008 22.1559C1.40549 22.4607 1.81866 22.6319 2.24965 22.632L2.24978 22.6317Z" fill="#08979C"/>
<path d="M39.4818 29.5195L27.1123 38.9948C27.2721 39.5952 27.3572 40.213 27.3659 40.8343V47.7485C27.3659 48.1795 27.5372 48.5927 27.8418 48.8974C28.1465 49.2021 28.5599 49.3732 28.9907 49.3732C29.4217 49.3732 29.8348 49.202 30.1397 48.8974L37.9527 41.0861C39.0273 40.0045 39.8054 38.6645 40.212 37.1951C40.6188 35.7258 40.6404 34.1765 40.2748 32.6962L39.4818 29.5195Z" fill="#08979C"/>
</svg>
