<svg width="52" height="52" viewBox="0 0 52 52" fill="none" xmlns="http://www.w3.org/2000/svg">
<path d="M6.09378 51.9998C6.30926 51.9998 6.51594 51.9142 6.66829 51.7618C6.82063 51.6095 6.90628 51.4028 6.90628 51.1873V50.0233L8.19766 49.2776C8.44463 49.1351 8.6498 48.93 8.7925 48.6828C8.93503 48.4358 9.01018 48.1557 9.01018 47.8703V46.3941L11.7813 44.8107L14.5524 46.3943V47.8705C14.5524 48.1557 14.6276 48.4358 14.7701 48.683C14.9128 48.9299 15.118 49.1351 15.3649 49.2776L16.6563 50.0233V51.1873C16.6563 51.4776 16.8112 51.7458 17.0626 51.891C17.3139 52.036 17.6237 52.036 17.8751 51.891C18.1264 51.7457 18.2813 51.4776 18.2813 51.1873V50.0233L19.5727 49.2776C19.8197 49.1351 20.0248 48.93 20.1675 48.6828C20.3101 48.4358 20.3852 48.1557 20.3852 47.8703V46.3943L23.1567 44.8106L25.9275 46.3938V47.8703C25.9275 48.1557 26.0026 48.4358 26.1451 48.683C26.2878 48.9299 26.493 49.1351 26.74 49.2776L28.0314 50.0233V51.1873C28.0314 51.4776 28.1862 51.7458 28.4376 51.891C28.689 52.036 28.9987 52.036 29.2501 51.891C29.5015 51.7457 29.6564 51.4776 29.6564 51.1873V50.0233L30.9477 49.2776C31.1947 49.1351 31.3999 48.93 31.5426 48.6828C31.6851 48.4358 31.7602 48.1557 31.7602 47.8703V46.3943L34.5314 44.8107L37.3025 46.3941V47.8703C37.3025 48.1557 37.3775 48.4358 37.5202 48.683C37.6629 48.9299 37.868 49.1351 38.115 49.2776L39.4064 50.0233V51.1873C39.4064 51.4776 39.5613 51.7458 39.8126 51.891C40.064 52.036 40.3738 52.036 40.6251 51.891C40.8765 51.7457 41.0314 51.4776 41.0314 51.1873V50.0233L42.3228 49.2776C42.5697 49.1351 42.7749 48.93 42.9176 48.6828C43.0601 48.4358 43.1353 48.1557 43.1353 47.8703V46.3943L45.9066 44.8107L50.7846 47.5988C51.0367 47.7427 51.3463 47.7413 51.5969 47.5951C51.8476 47.4488 52.0013 47.18 52.0001 46.8898C51.9988 46.5995 51.8427 46.332 51.5907 46.188L46.7191 43.4036V40.2731L48.0102 39.5279V39.5277C48.2571 39.3852 48.4623 39.18 48.605 38.9328C48.7475 38.6859 48.8227 38.4057 48.8227 38.1203V36.6438L51.5906 35.0616V35.0618C51.778 34.955 51.9153 34.7781 51.9721 34.57C52.029 34.362 52.0009 34.1399 51.8939 33.9527C51.787 33.7655 51.6099 33.6286 51.4017 33.5719C51.1937 33.5153 50.9716 33.5438 50.7846 33.6509L48.0219 35.2299C48.0178 35.2275 48.0143 35.2245 48.0102 35.2221L46.7188 34.4765C46.2161 34.1862 45.5966 34.1862 45.0938 34.4765L43.8025 35.2221C43.7982 35.2245 43.7947 35.2277 43.7906 35.2301L41.0317 33.6535V30.1169L42.3227 29.3716V29.3714C42.5697 29.2289 42.7748 29.0238 42.9175 28.7766C43.0601 28.5296 43.1352 28.2495 43.1352 27.9641V26.8943L45.9063 25.3108L50.7844 28.0988H50.7845C50.8412 28.1305 50.9017 28.1552 50.9643 28.1725C50.9821 28.1775 50.9998 28.1804 51.0178 28.1843C51.0628 28.1941 51.1087 28.2 51.1547 28.2019C51.1654 28.2022 51.1761 28.206 51.1867 28.206C51.1943 28.206 51.2016 28.2033 51.2092 28.2031C51.2688 28.2019 51.3279 28.1943 51.3856 28.1802C51.3893 28.1794 51.3931 28.1792 51.3966 28.1784L51.3968 28.1782C51.4579 28.1613 51.5168 28.1372 51.5723 28.1066C51.5874 28.0985 51.6013 28.0887 51.6158 28.0797C51.657 28.0541 51.6957 28.0247 51.7314 27.992C51.7452 27.9795 51.759 27.9676 51.7721 27.9541V27.9543C51.9483 27.7755 52.0309 27.5247 51.9953 27.2762C51.9596 27.0277 51.81 26.8102 51.5906 26.688L46.7191 23.9036V20.7732L48.0101 20.0279V20.0277C48.2571 19.8852 48.4622 19.68 48.6049 19.4329C48.7475 19.1859 48.8226 18.9058 48.8226 18.6204V17.1438L51.5905 15.5616V15.5618C51.7779 15.455 51.9152 15.2781 51.9721 15.0701C52.0289 14.862 52.0009 14.6399 51.8939 14.4527C51.7869 14.2655 51.6098 14.1286 51.4016 14.0719C51.1936 14.0153 50.9715 14.0438 50.7845 14.1509L48.0218 15.7299C48.0178 15.7275 48.0142 15.7245 48.0101 15.7221L46.7188 14.9765C46.216 14.6862 45.5965 14.6862 45.0938 14.9765L43.8024 15.7221C43.7982 15.7245 43.7946 15.7277 43.7905 15.7301L41.0316 14.1535V11.0232L42.3226 10.2779V10.2777C42.5696 10.1352 42.7748 9.93001 42.9175 9.68286C43.06 9.43589 43.1351 9.15575 43.1351 8.87036V7.39434L45.9063 5.81081L50.7843 8.59887C50.8412 8.6307 50.9016 8.65541 50.9646 8.67268C50.9818 8.67758 50.9989 8.68046 51.0164 8.68419C51.0621 8.69434 51.1088 8.70027 51.1557 8.70213C51.166 8.70247 51.1763 8.70602 51.1865 8.70602C51.1938 8.70602 51.2009 8.70331 51.2081 8.70314V8.70331C51.2686 8.70213 51.3287 8.69434 51.3872 8.67995L51.396 8.67843H51.3962C51.4573 8.6615 51.5164 8.63747 51.5721 8.60666C51.5871 8.59854 51.601 8.58872 51.6156 8.57958V8.57975C51.6565 8.55419 51.6953 8.52491 51.731 8.4924C51.7449 8.47971 51.759 8.46786 51.772 8.45415C51.9482 8.2754 52.0306 8.02454 51.9951 7.77607C51.9594 7.52758 51.8097 7.31006 51.5904 7.18804L46.7184 4.40335V0.812447C46.7184 0.522148 46.5635 0.25401 46.3121 0.1088C46.0608 -0.0362668 45.751 -0.0362668 45.4996 0.1088C45.2483 0.254036 45.0934 0.522161 45.0934 0.812447V4.40335L42.3341 5.97995C42.3299 5.97758 42.3263 5.97436 42.3223 5.97199L41.0309 5.22653C40.5281 4.93623 39.9086 4.93623 39.4059 5.22653L38.1145 5.97216C38.1103 5.97453 38.1067 5.97775 38.1026 5.98012L35.3434 4.40335V0.812447C35.3434 0.522148 35.1885 0.25401 34.9371 0.1088C34.6857 -0.0362668 34.376 -0.0362668 34.1246 0.1088C33.8732 0.254036 33.7184 0.522161 33.7184 0.812447V4.40335L30.9591 5.97995C30.9548 5.97758 30.9513 5.97436 30.9472 5.97199L29.6558 5.22653C29.1531 4.93623 28.5336 4.93623 28.0308 5.22653L26.7395 5.97216C26.7352 5.97453 26.7317 5.97775 26.7276 5.98012L23.9683 4.40335V0.812447C23.9683 0.522148 23.8134 0.25401 23.5621 0.1088C23.3107 -0.0362668 23.0009 -0.0362668 22.7496 0.1088C22.4982 0.254036 22.3433 0.522161 22.3433 0.812447V4.40335L19.584 5.97995C19.5798 5.97758 19.5762 5.97436 19.5722 5.97199L18.2808 5.22653C17.778 4.93623 17.1586 4.93623 16.6558 5.22653L15.3644 5.97216C15.3602 5.97453 15.3566 5.97775 15.3526 5.98012L12.5933 4.40335V0.812447C12.5933 0.522148 12.4384 0.25401 12.187 0.1088C11.9357 -0.0362668 11.6259 -0.0362668 11.3745 0.1088C11.1232 0.254036 10.9683 0.522161 10.9683 0.812447V4.40335L8.20899 5.97995C8.20476 5.97758 8.2012 5.97436 8.19714 5.97199L6.90576 5.22653C6.40301 4.93623 5.78352 4.93623 5.28076 5.22653L3.98939 5.97216C3.98533 5.97453 3.98177 5.97758 3.97771 5.97995L1.21503 4.40097C1.02799 4.29382 0.805908 4.26539 0.597882 4.32192C0.389678 4.37863 0.212622 4.51557 0.105658 4.70278C-0.00132308 4.89 -0.0294204 5.11208 0.0274546 5.32011C0.0843296 5.52814 0.22161 5.70503 0.408992 5.81186L3.17691 7.39404V8.87058C3.17691 9.1558 3.25207 9.43595 3.39459 9.68308C3.53729 9.93005 3.74244 10.1352 3.98943 10.2777L5.2808 11.0234V14.1534L0.408836 16.938C0.221792 17.045 0.0846806 17.2219 0.0281436 17.4298C-0.0285624 17.6376 -0.000463337 17.8596 0.106516 18.0468C0.140032 18.104 0.180655 18.157 0.227377 18.2042C0.240411 18.2179 0.254291 18.2297 0.268172 18.2423C0.303888 18.2748 0.342311 18.3039 0.383274 18.3294C0.398169 18.3388 0.412219 18.3486 0.427621 18.3569H0.427452C0.48297 18.3875 0.541709 18.4114 0.602648 18.4283C0.606542 18.4293 0.610435 18.4293 0.614328 18.4303C0.672048 18.4444 0.730955 18.452 0.790201 18.4532C0.797818 18.4534 0.805097 18.4561 0.812714 18.4561C0.823378 18.4561 0.834042 18.4523 0.844706 18.452C0.890916 18.4501 0.936789 18.4442 0.982155 18.4344C0.999928 18.4305 1.01753 18.4276 1.03514 18.4225H1.03497C1.09777 18.4053 1.1582 18.3806 1.2149 18.3489L6.09294 15.5608L8.86406 17.1444V18.6206C8.86406 18.9058 8.93922 19.1859 9.08174 19.4331C9.22444 19.68 9.42959 19.8852 9.67658 20.0277L10.968 20.7734V23.9033L8.51286 25.3063C8.41773 25.2135 8.3116 25.1327 8.19683 25.0659L6.90545 24.3202C6.4027 24.0299 5.78321 24.0299 5.28045 24.3202L3.98908 25.0659C3.87431 25.1327 3.76834 25.2133 3.67322 25.3061L1.21474 23.901C1.0277 23.7938 0.805615 23.7654 0.597589 23.8219C0.389385 23.8786 0.212329 24.0156 0.105365 24.2028C-0.0016161 24.39 -0.0297134 24.6121 0.0271616 24.8201C0.0840366 25.0281 0.221317 25.205 0.408699 25.3118L3.17662 26.894V27.9643C3.17662 28.2495 3.25177 28.5297 3.3943 28.7768C3.53699 29.0238 3.74215 29.229 3.98913 29.3715L5.28051 30.1171V33.6533L0.408543 36.438C0.221499 36.545 0.0843876 36.7219 0.0278506 36.9298C-0.0288554 37.1376 -0.000756358 37.3595 0.106223 37.5467C0.139739 37.604 0.180362 37.6568 0.226915 37.704C0.240118 37.7179 0.254168 37.7297 0.268218 37.7426C0.303764 37.7748 0.342019 37.8039 0.382644 37.8293C0.397709 37.8387 0.411927 37.8487 0.427502 37.857H0.427333C0.482683 37.8875 0.541421 37.9114 0.602361 37.9283C0.606254 37.9293 0.610147 37.9293 0.61404 37.9303C0.67176 37.9444 0.730837 37.9521 0.790251 37.9533C0.797699 37.9535 0.804977 37.9562 0.812425 37.9562C0.82292 37.9562 0.833415 37.9525 0.84391 37.9521C0.890458 37.9503 0.936838 37.9442 0.982373 37.9342C0.999977 37.9305 1.01707 37.9276 1.03451 37.9225V37.9227C1.09731 37.9054 1.15774 37.8807 1.21461 37.8489L6.09264 35.0608L8.86377 36.6444V38.1206C8.86377 38.4058 8.93892 38.6859 9.08145 38.9331C9.22414 39.18 9.4293 39.3852 9.67628 39.5277L10.9677 40.2733V43.4033L8.20837 44.9799C8.20413 44.9775 8.20058 44.9743 8.19652 44.972L6.90514 44.2265C6.40239 43.9362 5.78289 43.9362 5.28014 44.2265L3.98876 44.9721C3.9847 44.9745 3.98115 44.9775 3.97708 44.9799L1.21441 43.4009C1.02737 43.2938 0.805284 43.2654 0.597258 43.3219C0.389054 43.3786 0.211998 43.5155 0.105034 43.7028C-0.00194703 43.89 -0.0300444 44.112 0.0268306 44.3201C0.0837056 44.5281 0.220986 44.705 0.408368 44.8118L3.17628 46.3938V47.8705C3.17628 48.1558 3.25144 48.4359 3.39397 48.683C3.53666 48.93 3.74181 49.1352 3.9888 49.2777L5.28018 50.0233V51.1874C5.28018 51.4029 5.36583 51.6096 5.51817 51.7619C5.67052 51.9143 5.8772 51.9999 6.09269 51.9999L6.09378 51.9998ZM22.3442 43.4034L19.5847 44.9801C19.5805 44.9776 19.577 44.9746 19.5727 44.972L18.2813 44.2266C17.7786 43.9363 17.1591 43.9363 16.6563 44.2266L15.365 44.9722C15.3609 44.9746 15.3574 44.9776 15.3533 44.98L12.5942 43.4034V40.2732L13.8852 39.528V39.5278C14.1322 39.3853 14.3373 39.1801 14.48 38.9329C14.6226 38.686 14.6977 38.4058 14.6977 38.1204V36.6446L17.4692 35.0609L20.24 36.644V38.1206C20.24 38.4058 20.3151 38.686 20.4576 38.9331C20.6003 39.18 20.8055 39.3852 21.0525 39.5277L22.3439 40.2734L22.3442 40.2735L22.3442 43.4034ZM23.1564 34.2587C22.8711 34.2587 22.5908 34.3337 22.3439 34.4764L21.0525 35.2221C21.0484 35.2244 21.0449 35.2275 21.0408 35.2298L18.2817 33.6533V30.1169L19.5727 29.3716V29.3714C19.8197 29.2289 20.0249 29.0237 20.1676 28.7766C20.3101 28.5296 20.3852 28.2495 20.3852 27.9641V26.8944L23.1567 25.3107L25.9275 26.8939V27.9642C25.9275 28.2494 26.0026 28.5296 26.1452 28.7767C26.2879 29.0237 26.493 29.2288 26.74 29.3714L28.0314 30.117L28.0317 30.1172V33.6533L25.2722 35.2302C25.268 35.2277 25.2645 35.2246 25.2602 35.2221L23.9689 34.4764C23.7219 34.3337 23.4416 34.2587 23.1564 34.2587ZM33.7193 43.4034L30.9598 44.9803C30.9556 44.9778 30.952 44.9747 30.9478 44.9722L29.6564 44.2266C29.1537 43.9363 28.5342 43.9363 28.0314 44.2266L26.7401 44.9722C26.736 44.9746 26.7324 44.9776 26.7282 44.9801L23.9693 43.4034V40.2732L25.2603 39.528V39.5278C25.5073 39.3853 25.7124 39.1801 25.8551 38.9329C25.9977 38.686 26.0728 38.4058 26.0728 38.1204V36.6446L28.8443 35.0609L31.6151 36.644V38.1206C31.6151 38.4058 31.6902 38.6859 31.8327 38.9331C31.9754 39.18 32.1806 39.3852 32.4276 39.5277L33.7189 40.2734L33.7193 40.2735L33.7193 43.4034ZM34.5314 34.2587C34.2462 34.2587 33.9659 34.3337 33.7189 34.4764L32.4276 35.2221C32.4235 35.2244 32.42 35.2275 32.4159 35.2298L29.6568 33.6533V30.1169L30.9478 29.3716V29.3714C31.1948 29.2289 31.3999 29.0237 31.5426 28.7766C31.6852 28.5296 31.7603 28.2495 31.7603 27.9641V26.8944L34.5318 25.3107L37.3026 26.8939V27.9642C37.3026 28.2494 37.3777 28.5296 37.5202 28.7767C37.6629 29.0237 37.8681 29.2288 38.1151 29.3714L39.4065 30.117V33.6536L36.6473 35.2302C36.6431 35.2276 36.6396 35.2246 36.6353 35.222L35.3439 34.4764C35.097 34.3337 34.8167 34.2587 34.5314 34.2587ZM42.9901 36.6441V38.1205V38.1203C42.9901 38.4057 43.0651 38.6859 43.2078 38.9328C43.3505 39.1799 43.5556 39.3851 43.8026 39.5276L45.094 40.2733V43.4036L42.3349 44.9802C42.3307 44.9776 42.3271 44.9746 42.3229 44.9721L41.0315 44.2264C40.5287 43.9361 39.9092 43.9361 39.4065 44.2264L38.1151 44.9721C38.1111 44.9744 38.1075 44.9775 38.1034 44.9799L35.3443 43.4033V40.2731L36.6353 39.5278V39.5277C36.8823 39.3851 37.0875 39.18 37.2302 38.9328C37.3727 38.6859 37.4479 38.4057 37.4479 38.1203V36.6444L40.2193 35.0607L42.9901 36.6441ZM40.2193 15.5607L42.9901 17.1441V18.6204V18.6203C42.9901 18.9057 43.0651 19.1858 43.2078 19.4328C43.3505 19.6799 43.5556 19.8851 43.8026 20.0276L45.094 20.7732V23.9034L42.6391 25.3063C42.544 25.2134 42.4377 25.1326 42.3229 25.0658L41.0315 24.3201C40.5288 24.0298 39.9093 24.0298 39.4065 24.3201L38.1151 25.0658C38.0004 25.1326 37.8942 25.2132 37.7993 25.306L35.3444 23.9032V20.7731L36.6354 20.0278V20.0276C36.8824 19.8851 37.0875 19.6799 37.2302 19.4328C37.3727 19.1858 37.4479 18.9057 37.4479 18.6203V17.1444L40.2193 15.5607ZM29.6568 11.0233L30.9479 10.278V10.2778C31.1948 10.1353 31.4 9.93014 31.5427 9.68298C31.6852 9.43602 31.7604 9.15588 31.7604 8.87048V7.39459L34.5319 5.81089L37.3026 7.39425V8.87061V8.87045C37.3026 9.15583 37.3778 9.43599 37.5203 9.68295C37.663 9.93008 37.8682 10.1353 38.1152 10.2778L39.4065 11.0234V14.1537L36.6474 15.7303C36.6432 15.7278 36.6396 15.7247 36.6354 15.7222L35.344 14.9766C34.8413 14.6863 34.2218 14.6863 33.719 14.9766L32.4276 15.7222C32.4236 15.7246 32.42 15.7276 32.4158 15.7302L29.6568 14.1534V11.0233ZM28.8443 15.5607L31.6151 17.1439V18.6203C31.6151 18.9057 31.6903 19.1858 31.8328 19.4328C31.9755 19.6799 32.1806 19.8851 32.4276 20.0276L33.719 20.7732L33.7193 20.7734V23.9032L31.2641 25.3063C31.169 25.2134 31.0628 25.1327 30.9479 25.0658L29.6565 24.3202C29.1538 24.0299 28.5343 24.0299 28.0315 24.3202L26.7401 25.0658C26.6254 25.1327 26.5192 25.2132 26.4243 25.306L23.9693 23.9033V20.7731L25.2604 20.0278V20.0277C25.5073 19.8851 25.7125 19.68 25.8552 19.4328C25.9977 19.1859 26.0729 18.9057 26.0729 18.6203V17.1444L28.8443 15.5607ZM18.2818 11.0233L19.5729 10.278V10.2778C19.8198 10.1353 20.025 9.93014 20.1677 9.68298C20.3102 9.43602 20.3854 9.15588 20.3854 8.87048V7.39459L23.1569 5.81089L25.9276 7.39425V8.87061V8.87045C25.9276 9.15583 26.0028 9.43599 26.1453 9.68295C26.288 9.93008 26.4932 10.1353 26.7402 10.2778L28.0315 11.0234L28.0319 11.0236V14.1534L25.2724 15.7304C25.2682 15.7278 25.2646 15.7248 25.2604 15.7222L23.969 14.9766C23.4662 14.6863 22.8468 14.6863 22.344 14.9766L21.0526 15.7222C21.0486 15.7246 21.045 15.7277 21.0409 15.73L18.2818 14.1534L18.2818 11.0233ZM17.4693 15.5607L20.2401 17.1439V18.6203C20.2401 18.9057 20.3153 19.1858 20.4578 19.4328C20.6005 19.6799 20.8056 19.8851 21.0526 20.0276L22.344 20.7732L22.3443 20.7734V23.9032L19.8891 25.3063C19.794 25.2134 19.6878 25.1327 19.5729 25.0658L18.2815 24.3202C17.7788 24.0299 17.1593 24.0299 16.6565 24.3202L15.3651 25.0658C15.2504 25.1327 15.1442 25.2132 15.0493 25.306L12.5943 23.9033V20.7731L13.8854 20.0278V20.0277C14.1323 19.8851 14.3375 19.68 14.4802 19.4328C14.6227 19.1859 14.6979 18.9057 14.6979 18.6203V17.1444L17.4693 15.5607ZM9.67757 15.722C9.67351 15.7244 9.66996 15.7274 9.66589 15.7298L6.90677 14.1532V11.0231L8.1978 10.2778V10.2776C8.44477 10.1351 8.64994 9.92994 8.79264 9.68278C8.93517 9.43582 9.01032 9.15568 9.01032 8.87028V7.39439L11.7818 5.81069L14.5526 7.39405V8.87041V8.87024C14.5526 9.15563 14.6277 9.43579 14.7702 9.68274C14.9129 9.92988 15.1181 10.1351 15.3651 10.2776L16.6565 11.0232L16.6568 11.0234V14.1532L13.8973 15.7302C13.8931 15.7276 13.8895 15.7246 13.8853 15.722L12.5939 14.9764C12.0912 14.6861 11.4717 14.6861 10.9689 14.9764L9.67757 15.722ZM9.67757 35.222C9.67351 35.2244 9.66996 35.2274 9.66589 35.2298L6.90677 33.6532V30.1168L8.1978 29.3715V29.3714C8.44477 29.2288 8.64994 29.0237 8.79264 28.7765C8.93517 28.5296 9.01032 28.2494 9.01032 27.964V26.8944L11.7818 25.3107L14.5526 26.8939V27.9642C14.5526 28.2494 14.6277 28.5295 14.7702 28.7767C14.9129 29.0236 15.1181 29.2288 15.3651 29.3713L16.6565 30.117L16.6568 30.1171V33.6532L13.8973 35.2302C13.8931 35.2276 13.8895 35.2246 13.8853 35.222L12.5939 34.4764C12.0912 34.1861 11.4717 34.1861 10.9689 34.4764L9.67757 35.222Z" fill="#08979C"/>
</svg>
