<svg width="54" height="48" viewBox="0 0 54 48" fill="none" xmlns="http://www.w3.org/2000/svg">
<path d="M38.9082 24.7969H39.9752V26.4514H38.9082V24.7969Z" fill="#08979C"/>
<path d="M38.9082 40.2969H39.9752V41.9514H38.9082V40.2969Z" fill="#08979C"/>
<path d="M38.9082 32.5469H39.9752V34.2014H38.9082V32.5469Z" fill="#08979C"/>
<path d="M28.5518 37.8457H30.5631V40.6299H28.5518V37.8457Z" fill="#08979C"/>
<path d="M5.36328 37.8457H7.37467V40.6299H5.36328V37.8457Z" fill="#08979C"/>
<path d="M20.8223 37.8457H22.8341V40.6299H20.8223V37.8457Z" fill="#08979C"/>
<path d="M13.0928 37.8457H15.1046V40.6299H13.0928V37.8457Z" fill="#08979C"/>
<path d="M51.7793 21.7415L51.5371 21.7512C51.1587 21.7516 50.7837 21.6791 50.4327 21.538C49.6666 22.0685 48.8448 22.5135 47.9818 22.8653H48.689C48.9467 22.8626 49.1945 22.964 49.3768 23.1462C49.559 23.3284 49.6603 23.5763 49.6577 23.834V27.4184V27.4182C49.6603 27.6759 49.559 27.9237 49.3768 28.1059C49.1945 28.2882 48.9467 28.3895 48.689 28.3869H45.6859C45.4287 28.3879 45.1817 28.2862 44.9999 28.1041C44.818 27.9223 44.7163 27.6755 44.7171 27.4181V23.834C44.7155 23.7853 44.7187 23.7367 44.7268 23.6887C44.242 23.7549 43.7532 23.7874 43.264 23.7855C42.8077 23.7841 42.3518 23.7583 41.8981 23.708C41.9065 23.7494 41.9098 23.7918 41.9077 23.834V27.4184C41.9104 27.6759 41.8091 27.9239 41.6268 28.1061C41.4446 28.2882 41.1967 28.3895 40.939 28.3871H37.9359C37.6788 28.3879 37.4317 28.2862 37.2499 28.1043C37.0681 27.9223 36.9664 27.6754 36.9672 27.4183V23.834C36.9664 23.5766 37.0681 23.3298 37.2499 23.148C37.4318 22.9661 37.6788 22.8642 37.9359 22.8652H38.5462C37.907 22.6166 37.291 22.3118 36.7056 21.9546C35.5992 21.2843 34.6028 20.448 33.7508 19.4746C33.6281 19.6439 33.5605 19.8468 33.5571 20.0559V31.5548L22.9008 27.0308C22.7519 26.9688 22.5818 26.9855 22.4476 27.075C22.3133 27.1644 22.2326 27.3149 22.2324 27.4764V31.5548L20.0043 30.5667L13.2422 27.5636L12.0894 27.0502C11.9394 26.984 11.766 26.9985 11.6292 27.0885C11.4922 27.1785 11.4102 27.3319 11.4112 27.4958V31.5548L9.19278 30.5958L2.43064 27.6895L0.929106 27.0405C0.779154 26.9763 0.606996 26.9919 0.470565 27.0815C0.334134 27.1711 0.251787 27.3228 0.250981 27.4861V46.5511C0.250174 46.8082 0.351892 47.0553 0.533738 47.2371C0.715578 47.4189 0.962612 47.5207 1.21972 47.5199H52.0793C52.3367 47.5207 52.5835 47.4189 52.7653 47.2371C52.9472 47.0553 53.0491 46.8082 53.0481 46.5511V21.3249C52.664 21.562 52.2291 21.7049 51.779 21.7414L51.7793 21.7415ZM9.30929 41.6011C9.30849 41.8578 9.20616 42.1037 9.02472 42.2853C8.84329 42.4667 8.59727 42.569 8.34056 42.5699H4.39777C4.14064 42.5707 3.89362 42.4689 3.71179 42.2871C3.52995 42.1053 3.42823 41.8582 3.42903 41.6011V36.8833C3.42641 36.6256 3.52773 36.3776 3.70997 36.1956C3.89222 36.0133 4.14005 35.912 4.39776 35.9146H8.34054C8.59767 35.9136 8.8447 36.0153 9.02652 36.1974C9.20836 36.3792 9.31009 36.626 9.30928 36.8833L9.30929 41.6011ZM17.0397 41.6011C17.0389 41.8576 16.9365 42.1037 16.7551 42.2853C16.5737 42.4667 16.3276 42.569 16.0709 42.5699H12.1184C11.8617 42.569 11.6157 42.4667 11.4343 42.2853C11.2528 42.1037 11.1505 41.8576 11.1497 41.6011V36.8833C11.1489 36.626 11.2506 36.3792 11.4324 36.1974C11.6143 36.0153 11.8613 35.9136 12.1184 35.9146H16.0709C16.328 35.9136 16.5751 36.0153 16.7569 36.1974C16.9387 36.3792 17.0405 36.626 17.0396 36.8833L17.0397 41.6011ZM24.77 41.6011C24.7692 41.8576 24.6669 42.1037 24.4855 42.2853C24.304 42.4667 24.058 42.569 23.8013 42.5699H19.8488C19.5921 42.569 19.346 42.4667 19.1646 42.2853C18.9832 42.1037 18.8809 41.8576 18.88 41.6011V36.8833C18.8792 36.626 18.981 36.3792 19.1628 36.1974C19.3446 36.0153 19.5917 35.9136 19.8488 35.9146H23.8013C24.0584 35.9136 24.3054 36.0153 24.4873 36.1974C24.6691 36.3792 24.7708 36.626 24.77 36.8833L24.77 41.6011ZM32.5004 41.6011C32.4996 41.8578 32.3973 42.1037 32.2158 42.2853C32.0344 42.4667 31.7884 42.569 31.5317 42.5699H27.5792C27.3224 42.569 27.0764 42.4667 26.895 42.2853C26.7135 42.1037 26.6112 41.8578 26.6104 41.6011V36.8833C26.6096 36.626 26.7113 36.3792 26.8932 36.1974C27.075 36.0153 27.322 35.9136 27.5791 35.9146H31.5316C31.7888 35.9136 32.0358 36.0153 32.2176 36.1974C32.3995 36.3792 32.5012 36.626 32.5004 36.8833L32.5004 41.6011ZM41.9068 42.9186C41.9095 43.1761 41.8081 43.4242 41.6259 43.6064C41.4436 43.7887 41.1958 43.8898 40.9381 43.8873H37.935C37.6779 43.8882 37.4308 43.7864 37.249 43.6046C37.0672 43.4227 36.9654 43.1757 36.9662 42.9186V39.3342C36.9654 39.0769 37.0672 38.8301 37.249 38.6483C37.4308 38.4664 37.6779 38.3645 37.935 38.3655H40.9381C41.1958 38.3629 41.4437 38.4642 41.6259 38.6464C41.8081 38.8287 41.9095 39.0765 41.9068 39.3342V42.9186ZM41.9068 35.1686C41.9095 35.4261 41.8081 35.6742 41.6259 35.8564C41.4436 36.0387 41.1958 36.1398 40.9381 36.1373H37.935C37.6779 36.1382 37.4308 36.0364 37.249 35.8546C37.0672 35.6727 36.9654 35.4257 36.9662 35.1686V31.5842C36.9654 31.3269 37.0672 31.0801 37.249 30.8983C37.4308 30.7164 37.6779 30.6145 37.935 30.6155H40.9381C41.1958 30.6129 41.4437 30.7142 41.6259 30.8964C41.8081 31.0787 41.9095 31.3265 41.9068 31.5842V35.1686ZM49.6568 42.9186C49.6595 43.1761 49.5581 43.4242 49.3759 43.6064C49.1936 43.7887 48.9458 43.8898 48.6881 43.8873H45.685C45.4279 43.8882 45.1808 43.7864 44.999 43.6046C44.8172 43.4227 44.7154 43.1757 44.7162 42.9186V39.3342C44.7154 39.0769 44.8172 38.8301 44.999 38.6483C45.1808 38.4664 45.4279 38.3645 45.685 38.3655H48.6881C48.9458 38.3629 49.1937 38.4642 49.3759 38.6464C49.5581 38.8287 49.6595 39.0765 49.6568 39.3342V42.9186ZM49.6568 35.1686C49.6595 35.4261 49.5581 35.6742 49.3759 35.8564C49.1936 36.0387 48.9458 36.1398 48.6881 36.1373H45.685C45.4279 36.1382 45.1808 36.0364 44.999 35.8546C44.8172 35.6727 44.7154 35.4257 44.7162 35.1686V31.5842C44.7154 31.3269 44.8172 31.0801 44.999 30.8983C45.1808 30.7164 45.4279 30.6145 45.685 30.6155H48.6881C48.9458 30.6129 49.1937 30.7142 49.3759 30.8964C49.5581 31.0787 49.6595 31.3265 49.6568 31.5842V35.1686Z" fill="#08979C"/>
<path d="M46.6582 32.5469H47.7252V34.2014H46.6582V32.5469Z" fill="#08979C"/>
<path d="M46.6582 40.2969H47.7252V41.9514H46.6582V40.2969Z" fill="#08979C"/>
<path d="M46.6582 24.7969H47.7252V26.4514H46.6582V24.7969Z" fill="#08979C"/>
<path d="M7.82839 1.28151C7.81486 1.02439 7.60134 0.823573 7.34401 0.826197H4.14714C3.88981 0.823574 3.67628 1.02439 3.66276 1.28151L2.5293 25.6165L9.09716 28.4453L7.82839 1.28151Z" fill="#08979C"/>
<path d="M18.6399 1.28151C18.6264 1.02439 18.4129 0.823573 18.1555 0.826197H14.9587C14.7013 0.823574 14.4876 1.02439 14.4743 1.28151L13.3408 25.4811L19.9087 28.3971L18.6399 1.28151Z" fill="#08979C"/>
<path d="M48.5295 2.0366C46.5327 0.823619 44.1937 0.298118 41.8702 0.539866C39.5464 0.781852 37.3659 1.77785 35.6619 3.3759C35.6236 3.03563 35.408 2.74097 35.095 2.60152C34.7821 2.46206 34.4189 2.49879 34.1402 2.69779C33.8615 2.89679 33.7089 3.22841 33.7391 3.56967L33.9313 5.81453C33.9519 6.05632 34.0627 6.28155 34.2415 6.44564C34.4201 6.60972 34.654 6.70054 34.8966 6.70054C34.9255 6.70054 34.9539 6.69913 34.9828 6.69671L37.2125 6.49751C37.4684 6.4747 37.7048 6.35099 37.8697 6.15401C38.0344 5.95683 38.1143 5.70233 38.0915 5.44643C38.0697 5.22362 37.97 5.01554 37.8103 4.85852C37.6505 4.7017 37.4406 4.60583 37.2172 4.58807C38.6183 3.36362 40.3727 2.61689 42.2267 2.45641C44.0804 2.29576 45.9371 2.72948 47.5282 3.69501C49.0858 4.64661 50.3151 6.0521 51.051 7.72279C51.7868 9.39349 51.9939 11.2493 51.6443 13.0408C51.5943 13.2933 51.647 13.5553 51.7905 13.769C51.934 13.9828 52.1566 14.1305 52.4091 14.1797C52.6618 14.229 52.9235 14.1757 53.1369 14.0316C53.3502 13.8875 53.4973 13.6645 53.5459 13.4118C53.9706 11.2305 53.7175 8.97132 52.8208 6.93798C51.9243 4.90463 50.427 3.19436 48.53 2.03672L48.5295 2.0366Z" fill="#08979C"/>
<path d="M52.4975 18.7579C52.509 18.893 52.489 19.0288 52.4394 19.1551C52.3825 19.3337 52.2739 19.4918 52.1274 19.6088C51.9808 19.7261 51.8028 19.7973 51.6159 19.8139H51.5384C51.3237 19.8129 51.1152 19.7412 50.9455 19.6098C50.7755 19.4784 50.6536 19.2948 50.5987 19.0873C50.5798 19.0411 50.5699 18.9919 50.5697 18.942C50.5116 18.9904 50.4631 19.0389 50.405 19.0873C48.7028 20.6302 46.5478 21.5816 44.2608 21.8C41.9739 22.0182 39.6776 21.4914 37.7146 20.2983C37.1352 19.9467 36.5903 19.5413 36.0871 19.0873C34.6957 17.8259 33.6527 16.2273 33.059 14.4456C32.465 12.6639 32.3403 10.7593 32.6965 8.91519C32.745 8.6617 32.8925 8.43808 33.1066 8.294C33.3206 8.1499 33.5831 8.09722 33.8362 8.14748C34.0893 8.19794 34.3117 8.34708 34.4542 8.56222C34.5967 8.77717 34.6475 9.04034 34.5953 9.29305C34.2463 11.0836 34.4538 12.9384 35.1898 14.608C35.9257 16.2773 37.155 17.6815 38.7125 18.632C38.9906 18.8063 39.2822 18.9587 39.5844 19.0873C40.7362 19.628 41.9931 19.9083 43.2656 19.9083C44.5381 19.9083 45.7951 19.628 46.9469 19.0873C47.6976 18.7377 48.3953 18.2844 49.02 17.7407C48.7972 17.7248 48.5875 17.6303 48.4278 17.4741C48.2682 17.3181 48.1691 17.1104 48.1481 16.8882C48.1257 16.6313 48.2058 16.3762 48.3711 16.1782C48.5362 15.9804 48.7729 15.8561 49.0297 15.8323L51.2578 15.6385C51.5143 15.6117 51.7702 15.6924 51.965 15.8614C52.1622 16.0262 52.2843 16.2638 52.3041 16.5201L52.4975 18.7579Z" fill="#08979C"/>
</svg>
