<svg width="82" height="82" viewBox="0 0 82 82" fill="none" xmlns="http://www.w3.org/2000/svg">
<rect width="82" height="82" rx="41" fill="#E6F5F5"/>
<path d="M28.8978 48.2344L27.7709 50.1524H24.3069H24.1817H20.7177L19.5909 48.2344H15V53.5299H24.1817H24.3069H33.4886V48.2344H28.8978Z" fill="#08979C"/>
<path d="M26.3117 33.0195L24.3919 35.8132C24.0997 36.2302 24.2249 36.7722 24.6006 37.0641C25.0179 37.356 25.5605 37.2309 25.8526 36.8556L27.7724 34.0619L26.3117 33.0195Z" fill="#08979C"/>
<path d="M34.9503 26.4713L31.069 23.8027L27.7302 28.5979L26.8955 28.0141L24.8087 31.058C24.3079 31.7668 24.4749 32.7675 25.2261 33.2679L27.9389 35.1442C28.6484 35.6446 29.65 35.4778 30.1508 34.7273L32.2376 31.6834L31.6115 31.2664L34.9503 26.4713Z" fill="#08979C"/>
<path d="M49.0984 23.0913C49.0984 22.0906 49.2654 21.0899 49.5158 20.1725H38.4977C37.4961 19.0467 36.0354 18.3379 34.4077 18.3379C31.4028 18.3379 28.9404 20.7563 28.9404 23.8002C28.9404 26.844 31.3611 29.2624 34.4077 29.2624C36.3693 29.2624 38.0804 28.22 39.0403 26.6772H49.7662C49.3488 25.5514 49.0984 24.3422 49.0984 23.0913ZM34.4494 25.6765C33.4061 25.6765 32.5714 24.8426 32.5714 23.8002C32.5714 22.7577 33.4061 21.9238 34.4494 21.9238C35.4928 21.9238 36.3275 22.7577 36.3275 23.8002C36.3275 24.8426 35.4928 25.6765 34.4494 25.6765Z" fill="#08979C"/>
<path d="M50.14 42.0208L56.7759 32.8475C54.5639 32.3472 52.6441 31.0963 51.3086 29.3867L44.9648 38.143C47.2185 38.6017 49.0966 40.0611 50.14 42.0208Z" fill="#08979C"/>
<path d="M57.8604 60.5351H57.777C56.9005 60.5351 56.191 59.8263 56.191 58.9507V54.5308C56.191 54.0722 55.8154 53.7386 55.3981 53.7386H55.0642L47.5101 42.7307C45.7573 40.1872 42.2098 39.5617 39.7057 41.4381C37.3685 43.1893 36.9094 46.5668 38.5788 48.9852L41.7924 53.6969H40.4569C39.9978 53.6969 39.664 54.0722 39.664 54.4891V58.909C39.664 59.7846 38.9545 60.4934 38.078 60.4934H37.5355C37.0764 60.4934 36.7425 60.8687 36.7425 61.2857V63.2454C36.7425 63.8709 36.2417 64.3295 35.6574 64.3295H32.6942C31.7343 64.3295 30.8996 63.7041 30.6075 62.7868L28.6877 56.574C28.5207 55.9902 27.9364 55.5732 27.3104 55.5732H24.2637H21.2171C20.5911 55.5732 20.0485 55.9902 19.8398 56.574L17.294 64.8299C17.0018 65.7472 17.7113 66.6646 18.6712 66.6646H24.3055H28.4372H29.898H37.4937H39.4135H57.9856C58.403 66.6646 58.7369 66.331 58.7369 65.914V61.2857C58.6951 60.9104 58.3195 60.5351 57.8604 60.5351ZM45.5486 46.8169C45.2564 47.5258 44.7139 48.0678 44.0044 48.3597C41.7507 49.277 39.5388 47.0671 40.4569 44.8155C40.7491 44.1066 41.2916 43.5646 42.0011 43.2727C44.2548 42.3554 46.4668 44.5653 45.5486 46.8169Z" fill="#08979C"/>
<path d="M59.1125 15.3359C54.7721 15.3359 51.2246 18.8802 51.2246 23.2166C51.2246 27.5531 54.7721 31.0973 59.1125 31.0973C63.453 31.0973 67.0004 27.5531 67.0004 23.2166C67.0004 18.8802 63.453 15.3359 59.1125 15.3359ZM59.1125 26.3856C57.3597 26.3856 55.8989 24.9679 55.8989 23.1749C55.8989 21.382 57.3179 19.9643 59.1125 19.9643C60.9071 19.9643 62.3261 21.382 62.3261 23.1749C62.3261 24.9679 60.9071 26.3856 59.1125 26.3856Z" fill="#08979C"/>
<path d="M59.7384 33.1381C59.4046 34.3473 57.5265 39.6428 50.8906 43.9792C50.9324 44.1043 50.9324 44.3545 50.9741 44.4796C52.7687 43.3955 58.5281 39.476 60.1975 33.0547C60.0306 33.0964 59.8636 33.1381 59.7384 33.1381Z" fill="#08979C"/>
<path d="M50.4353 28.0957C49.058 28.3042 45.1767 28.6795 39.7094 27.1367C39.6259 27.2618 39.5425 27.3869 39.459 27.512C40.0433 27.7205 45.7192 29.5551 50.6857 28.5127C50.6022 28.3459 50.5188 28.2208 50.4353 28.0957Z" fill="#08979C"/>
</svg>
