<svg width="36" height="35" viewBox="0 0 36 35" fill="none" xmlns="http://www.w3.org/2000/svg">
<path d="M18.0029 28.2399L19.2989 28.0539C21.6015 27.7222 23.7311 26.6422 25.3593 24.9806C26.9875 23.3189 28.0239 21.1678 28.3087 18.8589L28.4677 17.5569L28.3087 16.2549C28.0239 13.9461 26.9877 11.7951 25.3599 10.1332C23.732 8.47133 21.6028 7.39091 19.3004 7.05843L18.0029 6.87243L16.6964 7.00293C14.3083 7.2494 12.0743 8.29841 10.3594 9.97859C8.64446 11.6588 7.54997 13.8708 7.25468 16.2534L7.09568 17.5554L7.25468 18.8574C7.55015 21.2398 8.64474 23.4516 10.3597 25.1315C12.0746 26.8114 14.3085 27.8602 16.6964 28.1064L18.0029 28.2392M19.7032 34.8609H16.4137V30.9459C13.3809 30.6356 10.5432 29.3051 8.36493 27.1722C6.18666 25.0393 4.79677 22.2303 4.42268 19.2047H0.75293V15.9137H4.42268C4.79593 12.8872 6.18541 10.0771 8.36373 7.94322C10.5421 5.80932 13.3802 4.47801 16.4137 4.16718V0.25293H19.7092V4.23393C22.6315 4.65803 25.3333 6.03104 27.3987 8.14151C29.464 10.252 30.7783 12.9829 31.1392 15.9137H35.3609V19.2092H31.1392C30.7751 22.1379 29.4588 24.8658 27.3928 26.9733C25.3268 29.0808 22.6256 30.451 19.7047 30.8732L19.7032 34.8609Z" fill="#D68E2E"/>
<path d="M17.6199 10.9591C18.7023 10.967 19.7666 11.2373 20.7216 11.7467C21.6766 12.2561 22.4938 12.9896 23.1032 13.8841C23.8419 14.9661 24.23 16.2491 24.2147 17.5591C24.2147 18.8647 23.8274 20.1409 23.102 21.2264C22.3765 22.3119 21.3454 23.1578 20.1391 23.6572C18.9328 24.1566 17.6055 24.287 16.3251 24.0319C15.0447 23.7768 13.8687 23.1477 12.9459 22.2242C12.0231 21.3006 11.3949 20.1241 11.1408 18.8435C10.8868 17.5629 11.0182 16.2357 11.5186 15.0298C12.0189 13.8239 12.8657 12.7934 13.9517 12.0689C15.0378 11.3443 16.3143 10.9581 17.6199 10.9591Z" fill="#D68E2E"/>
</svg>
