<svg width="48" height="70" viewBox="0 0 48 70" fill="none" xmlns="http://www.w3.org/2000/svg">
<path d="M39.2581 53.9987C39.0195 52.8093 37.7665 51.6794 35.7977 50.7873C35.6783 50.7279 35.4994 50.6684 35.38 50.6089H35.3204C35.201 50.5495 35.0817 50.49 34.9027 50.4305C34.8431 50.4305 34.8431 50.4305 34.7834 50.3711C34.6641 50.3116 34.5447 50.2521 34.3658 50.2521C34.3061 50.2521 34.2464 50.1926 34.2464 50.1926C34.1271 50.1332 34.0078 50.1332 33.8885 50.0737C33.8288 50.0737 33.7691 50.0142 33.7095 50.0142C33.5901 49.9548 33.4708 49.9548 33.3515 49.8953C33.2918 49.8953 33.2322 49.8358 33.1725 49.8358C33.0532 49.7764 32.9339 49.7764 32.8145 49.7169C32.7549 49.7169 32.6355 49.6574 32.5759 49.6574C32.4566 49.5979 32.3372 49.5979 32.2179 49.5385C32.1582 49.5385 32.0389 49.479 31.9792 49.479C31.8599 49.479 31.7406 49.4195 31.6213 49.4195C31.5019 49.4195 31.4423 49.3601 31.323 49.3601C31.2036 49.3601 31.0843 49.3006 30.965 49.3006C30.8457 49.3006 30.786 49.2411 30.6667 49.2411C30.5473 49.2411 30.428 49.1817 30.3087 49.1817C30.1894 49.1817 30.07 49.1222 30.0104 49.1222C29.8911 49.1222 29.7717 49.0627 29.6524 49.0627C29.5331 49.0627 29.4137 49.0032 29.2944 49.0032C29.1751 49.0032 29.0558 48.9438 28.9364 48.9438C28.8171 48.9438 28.6978 48.9438 28.5785 48.8843C28.4591 48.8843 28.3398 48.8843 28.2205 48.8248C28.1012 48.8248 27.9818 48.8248 27.8625 48.7654C27.7432 48.7654 27.6239 48.7654 27.5045 48.7059C27.3852 48.7059 27.2659 48.7059 27.0869 48.6464C26.9676 48.6464 26.8483 48.6464 26.7289 48.6464C26.6096 48.6464 26.4306 48.6464 26.3113 48.6464C26.192 48.6464 26.0726 48.6464 25.9533 48.6464C25.834 48.6464 25.655 48.6464 25.476 48.6464C25.3567 48.6464 25.2374 48.6464 25.1777 48.6464C24.9987 48.6464 24.8197 48.6464 24.6407 48.6464C24.5811 48.6464 24.4617 48.6464 24.4021 48.6464C24.1634 48.6464 23.8651 48.6464 23.6265 48.6464C23.3878 48.6464 23.0895 48.6464 22.8508 48.6464C22.7315 48.6464 22.6719 48.6464 22.6122 48.6464C22.4332 48.6464 22.2542 48.6464 22.0752 48.6464C21.9559 48.6464 21.8366 48.6464 21.7769 48.6464C21.5979 48.6464 21.4786 48.6464 21.2996 48.6464C21.1803 48.6464 21.061 48.6464 20.9416 48.6464C20.8223 48.6464 20.6433 48.6464 20.524 48.6464C20.4047 48.6464 20.2853 48.6464 20.166 48.6464C20.0467 48.6464 19.9274 48.6464 19.7484 48.7059C19.6291 48.7059 19.5097 48.7059 19.3904 48.7654C19.2711 48.7654 19.1518 48.7654 19.0324 48.8248C18.9131 48.8248 18.7938 48.8248 18.6745 48.8843C18.5551 48.8843 18.4358 48.8843 18.3165 48.9438C18.1971 48.9438 18.0778 49.0032 17.9585 49.0032C17.8392 49.0032 17.7198 49.0627 17.6005 49.0627C17.4812 49.0627 17.3619 49.1222 17.2425 49.1222C17.1232 49.1222 17.0039 49.1817 16.9442 49.1817C16.8249 49.1817 16.7056 49.2411 16.5863 49.2411C16.4669 49.2411 16.4073 49.3006 16.2879 49.3006C16.1686 49.3006 16.0493 49.3601 15.93 49.3601C15.8106 49.3601 15.751 49.4195 15.6316 49.4195C15.5123 49.4195 15.393 49.479 15.2737 49.479C15.214 49.479 15.0947 49.5385 15.035 49.5385C14.9157 49.5385 14.7964 49.5979 14.677 49.6574C14.6174 49.6574 14.4981 49.7169 14.4384 49.7169C14.3191 49.7764 14.1997 49.7764 14.0804 49.8358C14.0208 49.8358 13.9611 49.8953 13.9014 49.8953C13.7821 49.9548 13.6628 49.9548 13.5435 50.0142C13.4838 50.0142 13.4241 50.0737 13.3645 50.0737C13.2451 50.1332 13.1258 50.1332 13.0065 50.1926C12.9468 50.1926 12.8872 50.2521 12.8872 50.2521C12.7678 50.3116 12.6485 50.3711 12.4695 50.3711C12.4099 50.3711 12.4099 50.3711 12.3502 50.4305C12.2309 50.49 12.0519 50.5495 11.9326 50.6089H11.8729C11.7536 50.6684 11.5746 50.7279 11.4553 50.7873C9.48638 51.6794 8.23346 52.7498 7.99481 53.9987C3.10247 55.6044 0 57.8643 0 60.4215C0 65.1791 10.62 69.0446 23.6265 69.0446C36.6926 69.0446 47.2529 65.1791 47.2529 60.4215C47.2529 57.8643 44.1505 55.6044 39.2581 53.9987ZM37.6472 53.9392C37.6472 53.9987 37.6472 54.1177 37.6472 54.1771C37.6472 54.2366 37.6472 54.2961 37.5876 54.3555C37.5279 54.4745 37.4682 54.6529 37.3489 54.7718C35.9767 56.7343 30.3684 58.1616 23.5668 58.1616C16.8249 58.1616 11.1569 56.7343 9.7847 54.7718C9.66537 54.6529 9.60571 54.4745 9.54604 54.3555C9.54604 54.2961 9.48638 54.2366 9.48638 54.1771C9.48638 54.1177 9.48638 53.9987 9.48638 53.9392C9.48638 51.5605 15.8106 49.6574 23.5668 49.6574C31.323 49.6574 37.6472 51.5605 37.6472 53.9392ZM23.5668 66.1901C11.8729 66.1901 2.38651 63.276 2.38651 59.7673C2.38651 58.0427 4.53437 56.4965 8.05447 55.3665C9.24773 58.1021 15.751 60.1836 23.5668 60.1836C31.3826 60.1836 37.8859 58.1021 39.0791 55.3665C42.5992 56.4965 44.7471 58.0427 44.7471 59.7673C44.7471 63.276 35.2607 66.1901 23.5668 66.1901Z" fill="white"/>
<path d="M42.121 18.4952C42.121 8.26632 33.8279 0 23.5659 0C13.3039 0 5.01077 8.26632 5.01077 18.4952C5.01077 18.4952 3.57886 36.5145 23.5659 54.5339C43.5529 36.5145 42.121 18.4952 42.121 18.4952ZM23.5659 45.9108C8.82919 32.649 9.90312 19.3872 9.90312 19.3872C9.90312 11.8345 16.0484 5.76859 23.5659 5.76859C31.1431 5.76859 37.2287 11.8345 37.2287 19.3872C37.2287 19.3872 38.3026 32.649 23.5659 45.9108Z" fill="white"/>
<path d="M35.0221 20.874H32.0389C31.6809 16.83 28.3995 13.5592 24.3424 13.2024V10.2289C24.3424 9.81257 23.9844 9.45575 23.5668 9.45575C23.1492 9.45575 22.7912 9.81257 22.7912 10.2289V13.2024C18.7341 13.5592 15.4527 16.83 15.0947 20.874H12.1116C11.6939 20.874 11.3359 21.2308 11.3359 21.6471C11.3359 22.0634 11.6939 22.4202 12.1116 22.4202H15.0947C15.4527 26.4642 18.7341 29.735 22.7912 30.0918V33.0653C22.7912 33.4816 23.1492 33.8384 23.5668 33.8384C23.9844 33.8384 24.3424 33.4816 24.3424 33.0653V30.0918C28.3995 29.735 31.6809 26.4642 32.0389 22.4202H35.0221C35.4397 22.4202 35.7977 22.0634 35.7977 21.6471C35.7977 21.2308 35.4397 20.874 35.0221 20.874ZM26.9676 22.3607H30.4877C30.1297 25.6316 27.5642 28.1888 24.2828 28.5456V25.0369C24.2828 24.6206 23.9248 24.2638 23.5071 24.2638C23.0895 24.2638 22.7315 24.6206 22.7315 25.0369V28.5456C19.4501 28.1888 16.8846 25.6316 16.5266 22.3607H20.0467C20.4643 22.3607 20.8223 22.0039 20.8223 21.5876C20.8223 21.1713 20.4643 20.8145 20.0467 20.8145H16.5266C16.8846 17.5437 19.4501 14.9865 22.7315 14.6296V18.1384C22.7315 18.5546 23.0895 18.9115 23.5071 18.9115C23.9248 18.9115 24.2828 18.5546 24.2828 18.1384V14.6891C27.5642 15.0459 30.1297 17.6031 30.4877 20.874H26.9676C26.5499 20.874 26.192 21.2308 26.192 21.6471C26.192 22.0634 26.5499 22.3607 26.9676 22.3607Z" fill="white"/>
</svg>
