<svg width="85" height="41" viewBox="0 0 85 41" fill="none" xmlns="http://www.w3.org/2000/svg">
<path fill-rule="evenodd" clip-rule="evenodd" d="M81.8253 22.7472L78.5179 21.0988L73.7552 9.56038C73.3583 8.50543 72.3 7.84609 71.1755 7.84609H68.3973L69.2572 2.0439C69.4556 0.923017 68.5957 -6.10352e-05 67.4712 -6.10352e-05H42.5996H23.3506C21.9615 -6.10352e-05 20.8369 0.988951 20.5724 2.37357L20.1755 5.01093H23.086L23.2844 3.75818C23.3506 3.29664 23.7474 2.90104 24.2766 2.90104H65.2222C65.8175 2.90104 66.2805 3.42851 66.2144 4.02192L61.8486 32.4395H38.1677C37.4401 29.6043 34.9264 27.5604 31.8836 27.5604C28.8408 27.5604 26.3272 29.6703 25.5996 32.4395H19.977C19.3817 32.4395 18.9187 31.912 18.9848 31.3186L19.8447 25.5824H16.9342L15.942 32.1098C15.6774 33.7582 17.0004 35.2747 18.7202 35.2747H25.5334C26.1288 38.1758 28.7747 40.4175 31.8836 40.4175C34.9926 40.4175 37.5723 38.2417 38.2338 35.2747H61.3856H64.2961H67.7358C68.3311 38.1758 70.977 40.4175 74.086 40.4175C77.2611 40.4175 79.8408 38.1758 80.4362 35.2087H82.5529C83.479 35.2087 84.2066 34.4835 84.2066 33.5604V26.4395C84.0743 24.923 83.2144 23.4725 81.8253 22.7472ZM31.8836 38.3076C29.4362 38.3076 27.3856 36.3296 27.3856 33.8241C27.3856 31.3846 29.37 29.3406 31.8836 29.3406C34.3311 29.3406 36.3817 31.3186 36.3817 33.8241C36.3155 36.3296 34.3311 38.3076 31.8836 38.3076ZM68.0665 10.0879H70.0509C70.977 10.0879 71.8369 10.6813 72.2338 11.5384L75.4751 19.3846C75.8058 20.1758 75.2105 21.0988 74.3506 21.0988H66.4128L68.0665 10.0879ZM73.9537 38.3076C71.5062 38.3076 69.4556 36.3296 69.4556 33.8241C69.4556 31.3846 71.4401 29.3406 73.9537 29.3406C76.4011 29.3406 78.4517 31.3186 78.4517 33.8241C78.4517 36.3296 76.4673 38.3076 73.9537 38.3076ZM81.4284 30.8571C81.4284 31.5164 80.8992 32.1098 80.2377 32.2417C79.5101 29.4725 76.9965 27.4285 74.0198 27.4285C70.977 27.4285 68.4634 29.5384 67.7358 32.3076H64.693L66.0821 23.2747H76.4011C76.8642 23.2747 77.3272 23.4065 77.7241 23.6043L80.0393 24.8571C80.9653 25.3186 81.4945 26.3076 81.4945 27.2966V30.8571H81.4284Z" fill="white"/>
<path fill-rule="evenodd" clip-rule="evenodd" d="M37.3074 7.64832H1.25681C0.529183 7.64832 0 8.24172 0 8.90106C0 9.62634 0.595331 10.1538 1.25681 10.1538H37.3074C38.035 10.1538 38.5642 9.5604 38.5642 8.90106C38.5642 8.24172 37.9689 7.64832 37.3074 7.64832Z" fill="white"/>
<path fill-rule="evenodd" clip-rule="evenodd" d="M30.6936 20.2417H8.00486C7.27723 20.2417 6.74805 20.8351 6.74805 21.4944C6.74805 22.2197 7.34338 22.7472 8.00486 22.7472H30.6936C31.4212 22.7472 31.9504 22.1538 31.9504 21.4944C31.9504 20.7692 31.355 20.2417 30.6936 20.2417Z" fill="white"/>
<path fill-rule="evenodd" clip-rule="evenodd" d="M41.408 13.912H12.1045C11.3768 13.912 10.8477 14.5054 10.8477 15.1647C10.8477 15.89 11.443 16.4175 12.1045 16.4175H41.408C42.1356 16.4175 42.6648 15.8241 42.6648 15.1647C42.6648 14.5054 42.1356 13.912 41.408 13.912Z" fill="white"/>
</svg>
