<svg width="40" height="25" viewBox="0 0 40 25" fill="none" xmlns="http://www.w3.org/2000/svg">
<path fill-rule="evenodd" clip-rule="evenodd" d="M6.16456 0.395824C4.91506 0.731824 4.56706 1.30332 4.56706 3.03132C4.56706 4.72032 3.79306 4.51483 10.2521 4.53808C15.5951 4.55758 15.6761 4.55982 16.0121 4.71882C16.3248 4.89157 16.5868 5.14321 16.772 5.4487C16.9572 5.75419 17.0592 6.10285 17.0678 6.46C17.0763 6.81715 16.9912 7.17031 16.8209 7.48433C16.6505 7.79835 16.4009 8.06228 16.0968 8.24982L15.6918 8.46133H10.2821C3.99481 8.46133 4.56856 8.37883 4.56856 9.28633C4.56856 10.1548 4.23106 10.0881 8.76406 10.1316C13.0091 10.1728 12.8276 10.1526 13.3166 10.6356C13.6429 11.0371 13.826 11.536 13.8369 12.0533C13.8478 12.5706 13.6858 13.0767 13.3766 13.4916C12.8471 14.0488 13.0016 14.0301 8.71231 14.0721L4.85656 14.1096L4.70656 14.2933C4.46806 14.5873 4.52131 19.3393 4.76731 19.7946C5.20756 20.6083 5.77981 20.8896 7.00156 20.8918C7.97056 20.8918 7.97656 20.8918 7.97656 20.4066C8.06929 19.2879 8.57482 18.2437 9.39481 17.4771C9.99731 16.9102 10.7482 16.5258 11.5603 16.3685C12.3725 16.2111 13.2126 16.2872 13.9832 16.588C14.7538 16.8888 15.4234 17.4019 15.9142 18.0678C16.4049 18.7338 16.6969 19.5252 16.7561 20.3503L16.8063 20.8573H25.8956L25.9886 20.2123C26.7446 14.9713 34.2431 15.0373 34.7201 20.2873L34.7718 20.8566L36.0918 20.8768C37.6601 20.9016 37.9886 20.8258 38.4866 20.3286C39.0626 19.7526 39.0678 19.7136 39.0363 16.4923C38.9966 12.4513 38.9613 12.3673 36.9888 11.7981C35.0658 11.2453 35.0553 11.2348 33.7766 8.66383C32.2811 5.65708 31.8806 5.36383 29.1648 5.28883L27.6491 5.24533L27.6086 3.45807C27.5583 1.24107 27.4241 0.842075 26.5946 0.458075L26.2083 0.278076L16.3931 0.282574C8.04556 0.282574 6.51631 0.302824 6.16681 0.397324M2.92531 5.47633C2.76151 5.60675 2.63162 5.77479 2.54668 5.96617C2.46175 6.15755 2.42428 6.36661 2.43746 6.57558C2.45064 6.78454 2.51408 6.98724 2.62239 7.16643C2.7307 7.34563 2.88067 7.49602 3.05956 7.60482C3.39256 7.72107 15.1496 7.74282 15.5636 7.62732C15.7555 7.52914 15.9198 7.38458 16.0417 7.20676C16.1636 7.02895 16.2391 6.82351 16.2615 6.6091C16.2838 6.39469 16.2523 6.17808 16.1697 5.97896C16.0871 5.77983 15.9561 5.60448 15.7886 5.46882C15.4466 5.29182 3.28531 5.29858 2.92531 5.47633ZM30.5208 7.01383C31.4088 7.44733 31.6421 7.74808 32.6666 9.78433C32.9989 10.3673 33.2751 10.9806 33.4916 11.6158C33.4466 11.6331 32.1123 11.6383 30.5283 11.6278L27.6483 11.6083L27.6281 9.25932C27.6168 7.96707 27.6281 6.86383 27.6468 6.80833C27.7398 6.56533 29.9238 6.72283 30.5201 7.01533M0.914557 10.9416C0.247057 11.0443 -0.0461927 12.3718 0.469057 12.9508L0.694057 13.1991L6.53956 13.2193C11.5646 13.2366 12.4136 13.2238 12.5996 13.1278C12.7596 12.993 12.8855 12.8222 12.9671 12.6295C13.0486 12.4367 13.0835 12.2275 13.0689 12.0187C13.0543 11.8099 12.9906 11.6076 12.8829 11.4281C12.7753 11.2486 12.6268 11.0971 12.4496 10.9858C12.2021 10.8996 1.46881 10.8576 0.917557 10.9416M11.9216 17.2581C11.201 17.3513 10.5285 17.6706 10.0008 18.17C9.47304 18.6695 9.11724 19.3234 8.9845 20.0377C8.85176 20.7521 8.94892 21.4902 9.262 22.1459C9.57508 22.8015 10.088 23.3411 10.727 23.687C11.366 24.0328 12.0982 24.1672 12.8183 24.0708C13.5385 23.9744 14.2096 23.6521 14.7351 23.1504C15.2606 22.6486 15.6135 21.9931 15.7431 21.2782C15.8727 20.5632 15.7723 19.8256 15.4563 19.1713C15.1432 18.5212 14.6331 17.9863 13.9985 17.6428C13.3639 17.2993 12.6371 17.1647 11.9216 17.2581ZM29.9966 17.2348C29.2197 17.3089 28.491 17.6442 27.9293 18.1859C27.3676 18.7276 27.0062 19.4438 26.904 20.2174C26.8018 20.991 26.9648 21.7764 27.3666 22.4454C27.7684 23.1144 28.385 23.6274 29.116 23.9007C29.8469 24.174 30.6489 24.1915 31.391 23.9502C32.1331 23.7089 32.7715 23.2231 33.2019 22.5722C33.6324 21.9213 33.8294 21.1438 33.7609 20.3664C33.6924 19.5891 33.3624 18.8579 32.8248 18.2923C32.4652 17.9121 32.0234 17.6192 31.5332 17.4359C31.043 17.2526 30.5174 17.1838 29.9966 17.2348ZM12.8868 19.3393C13.1919 19.4582 13.4464 19.6792 13.6069 19.9647C13.7675 20.2501 13.8241 20.5824 13.7671 20.9049C13.7102 21.2274 13.5433 21.5202 13.2947 21.7334C13.0462 21.9466 12.7314 22.0671 12.404 22.0744C12.0766 22.0816 11.7568 21.9751 11.4991 21.7731C11.2413 21.571 11.0616 21.2859 10.9905 20.9662C10.9194 20.6466 10.9613 20.3121 11.109 20.0199C11.2567 19.7276 11.5012 19.4956 11.8008 19.3633C11.9714 19.2882 12.1551 19.2474 12.3414 19.2433C12.5278 19.2392 12.7131 19.2718 12.8868 19.3393ZM31.1036 19.4503C31.3465 19.6041 31.5369 19.8282 31.6493 20.0928C31.7618 20.3574 31.791 20.65 31.733 20.9316C31.675 21.2132 31.5327 21.4705 31.3248 21.6692C31.117 21.8679 30.8536 21.9986 30.5697 22.0438C30.2858 22.0891 29.9948 22.0469 29.7355 21.9227C29.4762 21.7985 29.2608 21.5983 29.1181 21.3486C28.9755 21.099 28.9122 20.8119 28.9367 20.5254C28.9613 20.239 29.0725 19.9668 29.2556 19.7451C29.4788 19.485 29.7871 19.3127 30.1255 19.2587C30.4639 19.2047 30.8105 19.2726 31.1036 19.4503Z" fill="#C52300"/>
</svg>
