<svg width="33" height="33" viewBox="0 0 33 33" fill="none" xmlns="http://www.w3.org/2000/svg">
<path d="M16.8754 32.5C13.1447 32.501 9.52914 31.2083 6.64471 28.8424C3.76028 26.4764 1.7854 23.1834 1.0567 19.5247C0.328004 15.8659 0.890579 12.0676 2.64844 8.77702C4.40629 5.48647 7.25066 2.90724 10.697 1.47882C14.1434 0.0503908 17.9785 -0.138847 21.5488 0.943347C25.119 2.02554 28.2036 4.3122 30.2769 7.41371C32.3501 10.5152 33.2838 14.2397 32.9189 17.9524C32.5539 21.6652 30.9128 25.1366 28.2753 27.775C26.7819 29.2772 25.0054 30.4682 23.0486 31.2792C21.0918 32.0903 18.9936 32.5052 16.8754 32.5ZM9.16461 21.6378C10.6693 22.6078 12.4219 23.1229 14.2121 23.1213H14.3022C15.5308 23.1246 16.7477 22.8843 17.8828 22.4141C19.0179 21.944 20.0485 21.2534 20.9149 20.3822C21.788 19.5045 22.4793 18.4631 22.9492 17.3176C23.419 16.1722 23.6584 14.9453 23.6532 13.7073C23.6532 13.5483 23.6464 13.396 23.6411 13.2805C24.295 12.8144 24.8579 12.2323 25.3017 11.563C24.6944 11.8285 24.0519 12.0053 23.3943 12.088C24.0871 11.6776 24.6051 11.0268 24.8494 10.2595C24.2004 10.6446 23.49 10.9155 22.7494 11.0605C22.296 10.5754 21.7071 10.2379 21.0593 10.0921C20.4115 9.94627 19.7348 9.99879 19.1173 10.2428C18.4998 10.4869 17.9699 10.9111 17.5968 11.4604C17.2237 12.0097 17.0246 12.6585 17.0253 13.3225C17.022 13.5758 17.0472 13.8286 17.1004 14.0763C15.7849 14.0108 14.4978 13.6689 13.3233 13.0727C12.1488 12.4766 11.113 11.6397 10.2836 10.6165C9.85747 11.345 9.72568 12.2087 9.91498 13.0311C10.1043 13.8535 10.6005 14.5726 11.3022 15.0415C10.7784 15.0272 10.2657 14.8873 9.80731 14.6335V14.6703C9.81059 15.4335 10.0755 16.1726 10.5579 16.7641C11.0402 17.3557 11.711 17.7639 12.4579 17.9208C12.1836 17.9931 11.9009 18.0296 11.6171 18.0295H11.5377C11.3448 18.0294 11.1522 18.0104 10.9631 17.9725C11.1777 18.6284 11.5901 19.2019 12.1434 19.6144C12.6967 20.0269 13.364 20.2581 14.0539 20.2765C12.8837 21.1891 11.4429 21.6858 9.95892 21.688H9.91608C9.66454 21.6859 9.4134 21.6688 9.16388 21.637L9.16461 21.6378Z" fill="white"/>
</svg>
