<svg width="410" height="165" viewBox="0 0 410 165" fill="none" xmlns="http://www.w3.org/2000/svg">
<circle cx="205" cy="49.4286" r="49.4286" fill="#FAEC6B"/>
<path d="M202.422 37.6393C203.111 37.1488 203.95 36.9175 204.793 36.9863C205.636 37.0552 206.427 37.4198 207.027 38.0156C207.7 38.6845 208.08 39.593 208.084 40.5418V45.9168C208.084 46.392 208.273 46.8477 208.609 47.1837C208.945 47.5197 209.4 47.7085 209.875 47.7085H211.667C212.142 47.7085 212.598 47.8973 212.934 48.2333C213.27 48.5693 213.459 49.025 213.459 49.5002V50.1093C213.459 50.5845 213.648 51.0402 213.984 51.3762C214.32 51.7122 214.775 51.901 215.25 51.901C215.726 51.901 216.181 51.7122 216.517 51.3762C216.853 51.0402 217.042 50.5845 217.042 50.1093V49.5002C217.042 48.0746 216.476 46.7075 215.468 45.6995C214.46 44.6915 213.093 44.1252 211.667 44.1252V40.5418C211.668 39.6004 211.483 38.6681 211.123 37.7981C210.764 36.9281 210.236 36.1375 209.571 35.4714C208.348 34.2841 206.748 33.5638 205.048 33.4361C203.349 33.3084 201.658 33.7814 200.272 34.7727C200.084 34.9138 199.925 35.0907 199.805 35.2932C199.686 35.4956 199.607 35.7197 199.573 35.9526C199.54 36.1855 199.553 36.4227 199.611 36.6507C199.67 36.8786 199.773 37.0928 199.914 37.281C200.055 37.4692 200.232 37.6278 200.434 37.7477C200.637 37.8676 200.861 37.9464 201.094 37.9797C201.327 38.0129 201.564 38 201.792 37.9416C202.02 37.8832 202.234 37.7805 202.422 37.6393V37.6393ZM221.897 64.3531L189.647 32.1031C189.31 31.7657 188.853 31.5762 188.375 31.5762C187.898 31.5762 187.441 31.7657 187.103 32.1031C186.766 32.4405 186.576 32.898 186.576 33.3752C186.576 33.8523 186.766 34.3099 187.103 34.6473L196.653 44.1252C195.348 44.2917 194.15 44.9307 193.285 45.9213C192.42 46.9118 191.948 48.1851 191.959 49.5002V60.2502C191.959 61.6757 192.525 63.0429 193.533 64.0509C194.541 65.0589 195.908 65.6252 197.334 65.6252H211.667C212.498 65.6224 213.318 65.4268 214.061 65.0537C214.804 64.6807 215.45 64.1403 215.949 63.4752L219.353 66.8972C219.52 67.0652 219.718 67.1985 219.936 67.2894C220.155 67.3804 220.389 67.4272 220.625 67.4272C220.862 67.4272 221.096 67.3804 221.314 67.2894C221.533 67.1985 221.731 67.0652 221.897 66.8972C222.065 66.7307 222.199 66.5325 222.29 66.3142C222.381 66.0959 222.427 65.8617 222.427 65.6252C222.427 65.3886 222.381 65.1545 222.29 64.9361C222.199 64.7178 222.065 64.5196 221.897 64.3531V64.3531ZM211.667 62.0418H197.334C196.859 62.0418 196.403 61.8531 196.067 61.5171C195.731 61.1811 195.542 60.7253 195.542 60.2502V49.5002C195.542 49.025 195.731 48.5693 196.067 48.2333C196.403 47.8973 196.859 47.7085 197.334 47.7085H200.182L203.891 51.4173C203.548 51.5414 203.251 51.7675 203.039 52.0653C202.828 52.3631 202.713 52.7184 202.709 53.0835V56.6668C202.709 57.142 202.898 57.5977 203.234 57.9337C203.57 58.2697 204.025 58.4585 204.5 58.4585C204.976 58.4585 205.431 58.2697 205.767 57.9337C206.103 57.5977 206.292 57.142 206.292 56.6668V53.8181L213.333 60.8593C213.209 61.2028 212.983 61.5 212.685 61.7114C212.387 61.9227 212.032 62.038 211.667 62.0418V62.0418Z" fill="#C3B31C"/>
<path d="M73.4783 126.403H76.6403V137.806C76.6403 139.056 76.3448 140.155 75.7539 141.104C75.1687 142.053 74.3448 142.795 73.2823 143.329C72.2198 143.857 70.9783 144.121 69.5579 144.121C68.1317 144.121 66.8874 143.857 65.8249 143.329C64.7624 142.795 63.9386 142.053 63.3533 141.104C62.7681 140.155 62.4755 139.056 62.4755 137.806V126.403H65.6374V137.542C65.6374 138.269 65.7965 138.917 66.1147 139.485C66.4386 140.053 66.8931 140.499 67.4783 140.823C68.0636 141.141 68.7567 141.3 69.5579 141.3C70.359 141.3 71.0522 141.141 71.6374 140.823C72.2283 140.499 72.6829 140.053 73.0011 139.485C73.3192 138.917 73.4783 138.269 73.4783 137.542V126.403ZM83.0259 136.187V143.857H79.9407V130.766H82.8896V132.991H83.043C83.3441 132.258 83.8242 131.675 84.4833 131.244C85.1481 130.812 85.9691 130.596 86.9464 130.596C87.8498 130.596 88.6367 130.789 89.3072 131.175C89.9833 131.562 90.506 132.121 90.8754 132.854C91.2504 133.587 91.435 134.476 91.4293 135.522V143.857H88.3441V135.999C88.3441 135.124 88.1168 134.44 87.6623 133.945C87.2134 133.451 86.5913 133.204 85.7958 133.204C85.256 133.204 84.7759 133.323 84.3555 133.562C83.9407 133.795 83.614 134.133 83.3754 134.576C83.1424 135.019 83.0259 135.556 83.0259 136.187ZM97.6509 126.403V143.857H94.5657V126.403H97.6509ZM106.534 144.113C105.255 144.113 104.147 143.832 103.21 143.269C102.272 142.707 101.545 141.92 101.028 140.908C100.517 139.897 100.261 138.715 100.261 137.363C100.261 136.011 100.517 134.826 101.028 133.809C101.545 132.792 102.272 132.002 103.21 131.44C104.147 130.877 105.255 130.596 106.534 130.596C107.812 130.596 108.92 130.877 109.858 131.44C110.795 132.002 111.52 132.792 112.031 133.809C112.548 134.826 112.806 136.011 112.806 137.363C112.806 138.715 112.548 139.897 112.031 140.908C111.52 141.92 110.795 142.707 109.858 143.269C108.92 143.832 107.812 144.113 106.534 144.113ZM106.551 141.641C107.244 141.641 107.824 141.451 108.289 141.07C108.755 140.684 109.102 140.167 109.329 139.519C109.562 138.871 109.679 138.15 109.679 137.354C109.679 136.553 109.562 135.829 109.329 135.181C109.102 134.528 108.755 134.008 108.289 133.621C107.824 133.235 107.244 133.042 106.551 133.042C105.841 133.042 105.25 133.235 104.778 133.621C104.312 134.008 103.963 134.528 103.73 135.181C103.502 135.829 103.389 136.553 103.389 137.354C103.389 138.15 103.502 138.871 103.73 139.519C103.963 140.167 104.312 140.684 104.778 141.07C105.25 141.451 105.841 141.641 106.551 141.641ZM121.135 144.113C119.828 144.113 118.706 143.826 117.769 143.252C116.837 142.678 116.118 141.886 115.613 140.874C115.113 139.857 114.863 138.687 114.863 137.363C114.863 136.033 115.118 134.86 115.63 133.843C116.141 132.82 116.863 132.025 117.794 131.457C118.732 130.883 119.84 130.596 121.118 130.596C122.181 130.596 123.121 130.792 123.939 131.184C124.763 131.57 125.419 132.119 125.908 132.829C126.397 133.533 126.675 134.357 126.743 135.3H123.794C123.675 134.67 123.391 134.144 122.942 133.724C122.499 133.298 121.905 133.084 121.161 133.084C120.53 133.084 119.976 133.255 119.499 133.596C119.022 133.931 118.65 134.414 118.382 135.045C118.121 135.675 117.99 136.431 117.99 137.312C117.99 138.204 118.121 138.971 118.382 139.613C118.644 140.249 119.01 140.741 119.482 141.087C119.959 141.428 120.519 141.599 121.161 141.599C121.615 141.599 122.022 141.513 122.38 141.343C122.743 141.167 123.047 140.914 123.292 140.584C123.536 140.255 123.703 139.854 123.794 139.383H126.743C126.669 140.309 126.397 141.13 125.925 141.846C125.453 142.556 124.811 143.113 123.999 143.516C123.186 143.914 122.232 144.113 121.135 144.113ZM132.089 139.749L132.081 136.025H132.575L137.279 130.766H140.885L135.098 137.209H134.458L132.089 139.749ZM129.277 143.857V126.403H132.362V143.857H129.277ZM137.493 143.857L133.231 137.9L135.311 135.726L141.183 143.857H137.493ZM151.596 143.857L147.897 130.766H151.042L153.343 139.971H153.462L155.814 130.766H158.925L161.277 139.92H161.405L163.672 130.766H166.826L163.118 143.857H159.905L157.451 135.011H157.272L154.817 143.857H151.596ZM168.98 143.857V130.766H172.065V143.857H168.98ZM170.531 128.908C170.042 128.908 169.622 128.746 169.27 128.423C168.917 128.093 168.741 127.698 168.741 127.238C168.741 126.772 168.917 126.377 169.27 126.053C169.622 125.724 170.042 125.559 170.531 125.559C171.025 125.559 171.446 125.724 171.792 126.053C172.145 126.377 172.321 126.772 172.321 127.238C172.321 127.698 172.145 128.093 171.792 128.423C171.446 128.746 171.025 128.908 170.531 128.908ZM181.775 130.766V133.153H174.249V130.766H181.775ZM176.107 127.63H179.192V139.92C179.192 140.334 179.255 140.653 179.38 140.874C179.51 141.09 179.681 141.238 179.891 141.317C180.101 141.397 180.334 141.437 180.59 141.437C180.783 141.437 180.959 141.423 181.118 141.394C181.283 141.366 181.408 141.34 181.493 141.317L182.013 143.729C181.848 143.786 181.613 143.849 181.306 143.917C181.005 143.985 180.635 144.025 180.198 144.036C179.425 144.059 178.729 143.942 178.11 143.687C177.49 143.425 176.999 143.022 176.635 142.476C176.277 141.931 176.101 141.249 176.107 140.431V127.63ZM187.721 136.187V143.857H184.636V126.403H187.653V132.991H187.806C188.113 132.252 188.588 131.67 189.23 131.244C189.877 130.812 190.701 130.596 191.701 130.596C192.61 130.596 193.403 130.786 194.079 131.167C194.755 131.548 195.278 132.104 195.647 132.837C196.022 133.57 196.21 134.465 196.21 135.522V143.857H193.125V135.999C193.125 135.119 192.897 134.434 192.443 133.945C191.994 133.451 191.363 133.204 190.551 133.204C190.005 133.204 189.517 133.323 189.085 133.562C188.659 133.795 188.324 134.133 188.079 134.576C187.841 135.019 187.721 135.556 187.721 136.187ZM205.444 126.403H209.314L214.495 139.05H214.7L219.882 126.403H223.751V143.857H220.717V131.866H220.555L215.731 143.806H213.464L208.64 131.84H208.478V143.857H205.444V126.403ZM232.853 144.113C231.541 144.113 230.407 143.84 229.453 143.295C228.504 142.744 227.774 141.965 227.262 140.959C226.751 139.948 226.495 138.758 226.495 137.388C226.495 136.042 226.751 134.86 227.262 133.843C227.779 132.82 228.501 132.025 229.427 131.457C230.353 130.883 231.441 130.596 232.691 130.596C233.498 130.596 234.26 130.726 234.975 130.988C235.697 131.244 236.333 131.641 236.885 132.181C237.441 132.721 237.879 133.408 238.197 134.244C238.515 135.073 238.674 136.062 238.674 137.209V138.155H227.944V136.076H235.717C235.711 135.485 235.583 134.959 235.333 134.499C235.083 134.033 234.734 133.667 234.285 133.4C233.842 133.133 233.325 132.999 232.734 132.999C232.103 132.999 231.549 133.153 231.072 133.459C230.595 133.761 230.223 134.158 229.956 134.653C229.694 135.141 229.561 135.678 229.555 136.263V138.079C229.555 138.84 229.694 139.494 229.973 140.039C230.251 140.579 230.64 140.994 231.14 141.283C231.64 141.567 232.225 141.709 232.896 141.709C233.345 141.709 233.751 141.647 234.115 141.522C234.478 141.391 234.794 141.201 235.061 140.951C235.328 140.701 235.529 140.391 235.666 140.022L238.547 140.346C238.365 141.107 238.018 141.772 237.507 142.34C237.001 142.903 236.353 143.34 235.564 143.653C234.774 143.959 233.87 144.113 232.853 144.113ZM241.284 143.857V130.766H244.233V132.991H244.387C244.659 132.241 245.111 131.655 245.742 131.235C246.373 130.809 247.125 130.596 248 130.596C248.887 130.596 249.634 130.812 250.242 131.244C250.855 131.67 251.287 132.252 251.537 132.991H251.674C251.963 132.263 252.452 131.684 253.14 131.252C253.833 130.815 254.654 130.596 255.603 130.596C256.807 130.596 257.79 130.976 258.551 131.738C259.313 132.499 259.694 133.61 259.694 135.07V143.857H256.6V135.548C256.6 134.735 256.384 134.141 255.952 133.766C255.52 133.386 254.992 133.195 254.367 133.195C253.623 133.195 253.04 133.428 252.62 133.894C252.205 134.354 251.998 134.954 251.998 135.692V143.857H248.972V135.42C248.972 134.744 248.767 134.204 248.358 133.8C247.955 133.397 247.426 133.195 246.773 133.195C246.33 133.195 245.926 133.309 245.563 133.536C245.199 133.758 244.909 134.073 244.694 134.482C244.478 134.886 244.37 135.357 244.37 135.897V143.857H241.284ZM262.96 143.857V126.403H266.045V132.931H266.173C266.332 132.613 266.556 132.275 266.846 131.917C267.136 131.553 267.528 131.244 268.022 130.988C268.517 130.726 269.147 130.596 269.914 130.596C270.926 130.596 271.838 130.854 272.65 131.371C273.468 131.883 274.116 132.641 274.593 133.647C275.076 134.647 275.318 135.874 275.318 137.329C275.318 138.766 275.082 139.988 274.61 140.994C274.139 141.999 273.497 142.766 272.684 143.295C271.872 143.823 270.951 144.087 269.923 144.087C269.173 144.087 268.551 143.962 268.056 143.712C267.562 143.462 267.164 143.161 266.863 142.809C266.568 142.451 266.338 142.113 266.173 141.795H265.994V143.857H262.96ZM265.985 137.312C265.985 138.158 266.105 138.9 266.343 139.536C266.588 140.173 266.937 140.67 267.392 141.028C267.852 141.38 268.409 141.556 269.062 141.556C269.744 141.556 270.315 141.374 270.775 141.011C271.235 140.641 271.582 140.138 271.815 139.502C272.054 138.86 272.173 138.13 272.173 137.312C272.173 136.499 272.056 135.778 271.824 135.147C271.591 134.516 271.244 134.022 270.784 133.664C270.324 133.306 269.75 133.127 269.062 133.127C268.403 133.127 267.843 133.3 267.383 133.647C266.923 133.994 266.574 134.479 266.335 135.104C266.102 135.729 265.985 136.465 265.985 137.312ZM283.736 144.113C282.424 144.113 281.29 143.84 280.336 143.295C279.387 142.744 278.657 141.965 278.145 140.959C277.634 139.948 277.378 138.758 277.378 137.388C277.378 136.042 277.634 134.86 278.145 133.843C278.662 132.82 279.384 132.025 280.31 131.457C281.236 130.883 282.324 130.596 283.574 130.596C284.381 130.596 285.142 130.726 285.858 130.988C286.58 131.244 287.216 131.641 287.767 132.181C288.324 132.721 288.762 133.408 289.08 134.244C289.398 135.073 289.557 136.062 289.557 137.209V138.155H278.827V136.076H286.6C286.594 135.485 286.466 134.959 286.216 134.499C285.966 134.033 285.617 133.667 285.168 133.4C284.725 133.133 284.208 132.999 283.617 132.999C282.986 132.999 282.432 133.153 281.955 133.459C281.478 133.761 281.105 134.158 280.838 134.653C280.577 135.141 280.444 135.678 280.438 136.263V138.079C280.438 138.84 280.577 139.494 280.855 140.039C281.134 140.579 281.523 140.994 282.023 141.283C282.523 141.567 283.108 141.709 283.779 141.709C284.228 141.709 284.634 141.647 284.998 141.522C285.361 141.391 285.676 141.201 285.944 140.951C286.211 140.701 286.412 140.391 286.549 140.022L289.429 140.346C289.248 141.107 288.901 141.772 288.39 142.34C287.884 142.903 287.236 143.34 286.446 143.653C285.657 143.959 284.753 144.113 283.736 144.113ZM292.167 143.857V130.766H295.159V132.948H295.295C295.534 132.192 295.943 131.61 296.522 131.201C297.108 130.786 297.775 130.579 298.525 130.579C298.696 130.579 298.886 130.587 299.096 130.604C299.312 130.616 299.491 130.636 299.633 130.664V133.502C299.502 133.457 299.295 133.417 299.011 133.383C298.733 133.343 298.463 133.323 298.201 133.323C297.639 133.323 297.133 133.445 296.684 133.69C296.241 133.928 295.892 134.261 295.636 134.687C295.38 135.113 295.252 135.604 295.252 136.161V143.857H292.167ZM312.029 134.226L309.217 134.533C309.137 134.249 308.998 133.982 308.799 133.732C308.606 133.482 308.345 133.28 308.015 133.127C307.686 132.974 307.282 132.897 306.805 132.897C306.163 132.897 305.623 133.036 305.186 133.315C304.754 133.593 304.541 133.954 304.547 134.397C304.541 134.778 304.68 135.087 304.964 135.326C305.254 135.565 305.731 135.761 306.396 135.914L308.629 136.391C309.868 136.658 310.788 137.082 311.39 137.661C311.998 138.241 312.305 138.999 312.311 139.937C312.305 140.761 312.064 141.488 311.586 142.119C311.115 142.744 310.458 143.232 309.618 143.584C308.777 143.937 307.811 144.113 306.72 144.113C305.118 144.113 303.828 143.778 302.85 143.107C301.873 142.431 301.291 141.491 301.103 140.286L304.112 139.996C304.248 140.587 304.538 141.033 304.981 141.334C305.424 141.636 306.001 141.786 306.711 141.786C307.444 141.786 308.032 141.636 308.475 141.334C308.924 141.033 309.149 140.661 309.149 140.218C309.149 139.843 309.004 139.533 308.714 139.289C308.43 139.045 307.987 138.857 307.385 138.726L305.152 138.258C303.896 137.996 302.967 137.556 302.365 136.937C301.762 136.312 301.464 135.522 301.47 134.567C301.464 133.761 301.683 133.062 302.126 132.471C302.575 131.874 303.197 131.414 303.993 131.09C304.794 130.761 305.717 130.596 306.762 130.596C308.297 130.596 309.504 130.923 310.385 131.576C311.271 132.229 311.819 133.113 312.029 134.226ZM317.94 136.187V143.857H314.855V126.403H317.872V132.991H318.025C318.332 132.252 318.806 131.67 319.449 131.244C320.096 130.812 320.92 130.596 321.92 130.596C322.829 130.596 323.622 130.786 324.298 131.167C324.974 131.548 325.497 132.104 325.866 132.837C326.241 133.57 326.429 134.465 326.429 135.522V143.857H323.343V135.999C323.343 135.119 323.116 134.434 322.662 133.945C322.213 133.451 321.582 133.204 320.77 133.204C320.224 133.204 319.735 133.323 319.304 133.562C318.877 133.795 318.542 134.133 318.298 134.576C318.059 135.019 317.94 135.556 317.94 136.187ZM329.574 143.857V130.766H332.659V143.857H329.574ZM331.125 128.908C330.636 128.908 330.216 128.746 329.863 128.423C329.511 128.093 329.335 127.698 329.335 127.238C329.335 126.772 329.511 126.377 329.863 126.053C330.216 125.724 330.636 125.559 331.125 125.559C331.619 125.559 332.039 125.724 332.386 126.053C332.738 126.377 332.914 126.772 332.914 127.238C332.914 127.698 332.738 128.093 332.386 128.423C332.039 128.746 331.619 128.908 331.125 128.908ZM335.831 148.766V130.766H338.865V132.931H339.044C339.203 132.613 339.428 132.275 339.718 131.917C340.007 131.553 340.4 131.244 340.894 130.988C341.388 130.726 342.019 130.596 342.786 130.596C343.797 130.596 344.709 130.854 345.522 131.371C346.34 131.883 346.988 132.641 347.465 133.647C347.948 134.647 348.189 135.874 348.189 137.329C348.189 138.766 347.953 139.988 347.482 140.994C347.01 141.999 346.368 142.766 345.556 143.295C344.743 143.823 343.823 144.087 342.794 144.087C342.044 144.087 341.422 143.962 340.928 143.712C340.434 143.462 340.036 143.161 339.735 142.809C339.439 142.451 339.209 142.113 339.044 141.795H338.917V148.766H335.831ZM338.857 137.312C338.857 138.158 338.976 138.9 339.215 139.536C339.459 140.173 339.809 140.67 340.263 141.028C340.723 141.38 341.28 141.556 341.934 141.556C342.615 141.556 343.186 141.374 343.647 141.011C344.107 140.641 344.453 140.138 344.686 139.502C344.925 138.86 345.044 138.13 345.044 137.312C345.044 136.499 344.928 135.778 344.695 135.147C344.462 134.516 344.115 134.022 343.655 133.664C343.195 133.306 342.621 133.127 341.934 133.127C341.275 133.127 340.715 133.3 340.255 133.647C339.794 133.994 339.445 134.479 339.206 135.104C338.973 135.729 338.857 136.465 338.857 137.312Z" fill="#DBCF62"/>
</svg>
