<svg width="100" height="99" viewBox="0 0 100 99" fill="none" xmlns="http://www.w3.org/2000/svg">
<circle cx="49.9999" cy="49.4286" r="49.4286" fill="#FAEC6B" fill-opacity="0.68"/>
<path d="M47.4218 37.6392C48.1104 37.1486 48.9502 36.9173 49.7929 36.9862C50.6355 37.055 51.4266 37.4196 52.0264 38.0154C52.6993 38.6843 53.0795 39.5928 53.0835 40.5417V45.9167C53.0835 46.3918 53.2723 46.8475 53.6083 47.1836C53.9443 47.5196 54.4 47.7083 54.8752 47.7083H56.6668C57.142 47.7083 57.5977 47.8971 57.9337 48.2331C58.2697 48.5691 58.4585 49.0248 58.4585 49.5V50.1092C58.4585 50.5843 58.6473 51.04 58.9833 51.3761C59.3193 51.7121 59.775 51.9008 60.2502 51.9008C60.7253 51.9008 61.1811 51.7121 61.5171 51.3761C61.8531 51.04 62.0418 50.5843 62.0418 50.1092V49.5C62.0418 48.0744 61.4755 46.7073 60.4675 45.6993C59.4595 44.6913 58.0924 44.125 56.6668 44.125V40.5417C56.6676 39.6002 56.4828 38.6679 56.1231 37.7979C55.7635 36.9279 55.2359 36.1373 54.5706 35.4712C53.348 34.2839 51.7473 33.5636 50.0479 33.4359C48.3485 33.3082 46.6581 33.7812 45.2718 34.7725C45.0836 34.9137 44.925 35.0905 44.8052 35.293C44.6853 35.4954 44.6065 35.7195 44.5732 35.9524C44.5399 36.1854 44.5528 36.4226 44.6112 36.6505C44.6696 36.8784 44.7723 37.0926 44.9135 37.2808C45.0547 37.469 45.2315 37.6276 45.434 37.7475C45.6365 37.8674 45.8605 37.9462 46.0935 37.9795C46.3264 38.0128 46.5636 37.9998 46.7915 37.9414C47.0194 37.883 47.2336 37.7803 47.4218 37.6392ZM66.8973 64.3529L34.6473 32.1029C34.3099 31.7655 33.8523 31.576 33.3752 31.576C32.898 31.576 32.4405 31.7655 32.1031 32.1029C31.7657 32.4403 31.5762 32.8979 31.5762 33.375C31.5762 33.8521 31.7657 34.3097 32.1031 34.6471L41.6527 44.125C40.3482 44.2915 39.15 44.9305 38.2849 45.9211C37.4198 46.9116 36.9479 48.1849 36.9585 49.5V60.25C36.9585 61.6755 37.5248 63.0427 38.5328 64.0507C39.5408 65.0587 40.908 65.625 42.3335 65.625H56.6668C57.4982 65.6222 58.3177 65.4266 59.0607 65.0535C59.8037 64.6805 60.4501 64.1401 60.9489 63.475L64.3531 66.8971C64.5196 67.065 64.7178 67.1983 64.9361 67.2892C65.1545 67.3802 65.3886 67.427 65.6252 67.427C65.8617 67.427 66.0959 67.3802 66.3142 67.2892C66.5325 67.1983 66.7307 67.065 66.8973 66.8971C67.0652 66.7305 67.1985 66.5323 67.2894 66.314C67.3804 66.0957 67.4272 65.8615 67.4272 65.625C67.4272 65.3885 67.3804 65.1543 67.2894 64.936C67.1985 64.7176 67.0652 64.5195 66.8973 64.3529ZM56.6668 62.0417H42.3335C41.8583 62.0417 41.4026 61.8529 41.0666 61.5169C40.7306 61.1809 40.5418 60.7252 40.5418 60.25V49.5C40.5418 49.0248 40.7306 48.5691 41.0666 48.2331C41.4026 47.8971 41.8583 47.7083 42.3335 47.7083H45.1823L48.891 51.4171C48.5476 51.5412 48.2503 51.7673 48.039 52.0651C47.8276 52.3629 47.7123 52.7182 47.7085 53.0833V56.6667C47.7085 57.1418 47.8973 57.5975 48.2333 57.9336C48.5693 58.2696 49.025 58.4583 49.5002 58.4583C49.9753 58.4583 50.4311 58.2696 50.7671 57.9336C51.1031 57.5975 51.2918 57.1418 51.2918 56.6667V53.8179L58.3331 60.8592C58.2089 61.2026 57.9828 61.4999 57.685 61.7112C57.3872 61.9225 57.032 62.0378 56.6668 62.0417Z" fill="#C3B31C"/>
</svg>
