<svg width="16" height="13" viewBox="0 0 16 13" fill="none" xmlns="http://www.w3.org/2000/svg">
<path d="M8.19935 6.64665C8.55507 6.33874 8.84038 5.9579 9.03593 5.52999C9.23148 5.10209 9.33269 4.63712 9.33268 4.16665C9.33268 3.28259 8.98149 2.43475 8.35637 1.80962C7.73125 1.1845 6.8834 0.833313 5.99935 0.833313C5.11529 0.833313 4.26745 1.1845 3.64233 1.80962C3.01721 2.43475 2.66602 3.28259 2.66602 4.16665C2.66601 4.63712 2.76722 5.10209 2.96277 5.52999C3.15832 5.9579 3.44363 6.33874 3.79935 6.64665C2.86611 7.06924 2.07433 7.75167 1.51867 8.61234C0.963012 9.47302 0.666997 10.4755 0.666016 11.5C0.666016 11.6768 0.736253 11.8464 0.861278 11.9714C0.986302 12.0964 1.15587 12.1666 1.33268 12.1666C1.50949 12.1666 1.67906 12.0964 1.80409 11.9714C1.92911 11.8464 1.99935 11.6768 1.99935 11.5C1.99935 10.4391 2.42078 9.4217 3.17092 8.67155C3.92107 7.92141 4.93848 7.49998 5.99935 7.49998C7.06021 7.49998 8.07763 7.92141 8.82778 8.67155C9.57792 9.4217 9.99935 10.4391 9.99935 11.5C9.99935 11.6768 10.0696 11.8464 10.1946 11.9714C10.3196 12.0964 10.4892 12.1666 10.666 12.1666C10.8428 12.1666 11.0124 12.0964 11.1374 11.9714C11.2624 11.8464 11.3327 11.6768 11.3327 11.5C11.3317 10.4755 11.0357 9.47302 10.48 8.61234C9.92437 7.75167 9.13259 7.06924 8.19935 6.64665ZM5.99935 6.16665C5.60379 6.16665 5.21711 6.04935 4.88821 5.82959C4.55931 5.60982 4.30297 5.29747 4.15159 4.93201C4.00021 4.56656 3.96061 4.16443 4.03778 3.77647C4.11495 3.3885 4.30543 3.03214 4.58514 2.75243C4.86484 2.47273 5.22121 2.28225 5.60917 2.20508C5.99713 2.12791 6.39926 2.16751 6.76472 2.31889C7.13017 2.47026 7.44253 2.72661 7.66229 3.05551C7.88205 3.3844 7.99935 3.77108 7.99935 4.16665C7.99935 4.69708 7.78864 5.20579 7.41356 5.58086C7.03849 5.95593 6.52978 6.16665 5.99935 6.16665ZM12.4927 6.37998C12.9193 5.89953 13.198 5.30602 13.2952 4.67087C13.3924 4.03573 13.304 3.38603 13.0405 2.79998C12.7771 2.21393 12.3499 1.71651 11.8103 1.36759C11.2708 1.01868 10.6419 0.833141 9.99935 0.833313C9.82254 0.833313 9.65297 0.903551 9.52794 1.02858C9.40292 1.1536 9.33268 1.32317 9.33268 1.49998C9.33268 1.67679 9.40292 1.84636 9.52794 1.97138C9.65297 2.09641 9.82254 2.16665 9.99935 2.16665C10.5298 2.16665 11.0385 2.37736 11.4136 2.75243C11.7886 3.12751 11.9993 3.63621 11.9993 4.16665C11.9984 4.51681 11.9055 4.86058 11.7301 5.16359C11.5546 5.46661 11.3026 5.71823 10.9993 5.89331C10.9005 5.95033 10.818 6.03176 10.7596 6.12981C10.7012 6.22786 10.669 6.33925 10.666 6.45331C10.6632 6.56649 10.6893 6.67851 10.7418 6.77882C10.7943 6.87913 10.8714 6.96441 10.966 7.02665L11.226 7.19998L11.3127 7.24665C12.1163 7.62779 12.7942 8.23064 13.2667 8.98419C13.7391 9.73774 13.9864 10.6106 13.9793 11.5C13.9793 11.6768 14.0496 11.8464 14.1746 11.9714C14.2996 12.0964 14.4692 12.1666 14.646 12.1666C14.8228 12.1666 14.9924 12.0964 15.1174 11.9714C15.2424 11.8464 15.3127 11.6768 15.3127 11.5C15.3181 10.4769 15.0619 9.46948 14.5683 8.57335C14.0748 7.67723 13.3602 6.92219 12.4927 6.37998Z" fill="#6B7280"/>
</svg>
