<svg width="20" height="21" viewBox="0 0 20 21" fill="none" xmlns="http://www.w3.org/2000/svg">
<path d="M18.87 15.75L16.16 11.07C16.7145 10.0515 17.0034 8.90967 17 7.75C17 5.89348 16.2625 4.11301 14.9497 2.80025C13.6369 1.4875 11.8565 0.75 9.99995 0.75C8.14344 0.75 6.36296 1.4875 5.0502 2.80025C3.73745 4.11301 2.99995 5.89348 2.99995 7.75C2.99651 8.90967 3.28541 10.0515 3.83995 11.07L1.12995 15.75C1.04201 15.9023 0.995798 16.0751 0.995972 16.251C0.996146 16.4269 1.0427 16.5996 1.13094 16.7517C1.21918 16.9039 1.34598 17.03 1.49856 17.1175C1.65113 17.205 1.82408 17.2507 1.99995 17.25H4.86995L6.32995 19.71C6.37917 19.7915 6.43978 19.8656 6.50995 19.93C6.69533 20.1087 6.94248 20.209 7.19995 20.21H7.33995C7.49092 20.1893 7.63517 20.1345 7.76169 20.0495C7.88821 19.9646 7.99365 19.8519 8.06995 19.72L9.99995 16.4L11.93 19.75C12.0074 19.88 12.1133 19.9908 12.2398 20.0739C12.3662 20.1571 12.5099 20.2104 12.66 20.23H12.8C13.0609 20.2316 13.3121 20.1311 13.5 19.95C13.5672 19.8893 13.6246 19.8184 13.67 19.74L15.13 17.28H18C18.1762 17.2807 18.3494 17.2348 18.5022 17.147C18.655 17.0592 18.7818 16.9326 18.87 16.78C18.9634 16.6245 19.0128 16.4464 19.0128 16.265C19.0128 16.0836 18.9634 15.9055 18.87 15.75ZM7.18995 17.28L6.29995 15.79C6.21231 15.6422 6.08806 15.5194 5.93917 15.4336C5.79029 15.3478 5.6218 15.3018 5.44995 15.3H3.71995L5.14995 12.82C6.13468 13.7689 7.37577 14.4085 8.71995 14.66L7.18995 17.28ZM9.99995 12.75C9.01104 12.75 8.04435 12.4568 7.2221 11.9073C6.39985 11.3579 5.75899 10.577 5.38055 9.66342C5.00212 8.74979 4.9031 7.74445 5.09602 6.77455C5.28895 5.80464 5.76515 4.91373 6.46442 4.21447C7.16368 3.5152 8.05459 3.039 9.0245 2.84607C9.9944 2.65315 10.9997 2.75216 11.9134 3.1306C12.827 3.50904 13.6079 4.1499 14.1573 4.97215C14.7067 5.79439 15 6.76109 15 7.75C15 9.07608 14.4732 10.3479 13.5355 11.2855C12.5978 12.2232 11.326 12.75 9.99995 12.75ZM14.55 15.3C14.3781 15.3018 14.2096 15.3478 14.0607 15.4336C13.9118 15.5194 13.7876 15.6422 13.7 15.79L12.81 17.28L11.29 14.63C12.6294 14.3734 13.8659 13.7343 14.85 12.79L16.28 15.27L14.55 15.3Z" fill="#F5F5F5"/>
</svg>
