<svg width="14" height="14" viewBox="0 0 14 14" fill="none" xmlns="http://www.w3.org/2000/svg">
<path d="M12.914 10.5L11.1074 7.38C11.4771 6.701 11.6697 5.93978 11.6674 5.16667C11.6674 3.92899 11.1757 2.742 10.3005 1.86683C9.42536 0.991665 8.23838 0.5 7.0007 0.5C5.76302 0.5 4.57604 0.991665 3.70087 1.86683C2.8257 2.742 2.33403 3.92899 2.33403 5.16667C2.33174 5.93978 2.52434 6.701 2.89403 7.38L1.08737 10.5C1.02874 10.6015 0.997931 10.7167 0.998047 10.834C0.998163 10.9512 1.0292 11.0664 1.08803 11.1678C1.14685 11.2692 1.23139 11.3534 1.3331 11.4117C1.43482 11.47 1.55012 11.5005 1.66737 11.5H3.5807L4.55403 13.14C4.58685 13.1944 4.62725 13.2437 4.67403 13.2867C4.79762 13.4058 4.96239 13.4726 5.13403 13.4733H5.22737C5.32801 13.4596 5.42418 13.423 5.50853 13.3664C5.59287 13.3097 5.66316 13.2346 5.71403 13.1467L7.0007 10.9333L8.28737 13.1667C8.33898 13.2534 8.4096 13.3272 8.49391 13.3826C8.57821 13.4381 8.67399 13.4736 8.77403 13.4867H8.86737C9.04132 13.4877 9.20879 13.4207 9.33403 13.3C9.37887 13.2595 9.41711 13.2123 9.44737 13.16L10.4207 11.52H12.334C12.4515 11.5205 12.567 11.4899 12.6689 11.4313C12.7707 11.3728 12.8553 11.2884 12.914 11.1867C12.9763 11.083 13.0092 10.9643 13.0092 10.8433C13.0092 10.7224 12.9763 10.6037 12.914 10.5ZM5.12737 11.52L4.53403 10.5267C4.47561 10.4281 4.39277 10.3463 4.29351 10.2891C4.19426 10.2318 4.08193 10.2012 3.96737 10.2H2.81403L3.76737 8.54667C4.42385 9.17925 5.25125 9.6057 6.14737 9.77333L5.12737 11.52ZM7.0007 8.5C6.34143 8.5 5.69696 8.3045 5.1488 7.93823C4.60064 7.57196 4.17339 7.05136 3.9211 6.44228C3.66881 5.83319 3.6028 5.16297 3.73142 4.51637C3.86003 3.86976 4.1775 3.27582 4.64368 2.80964C5.10985 2.34347 5.7038 2.026 6.3504 1.89738C6.997 1.76877 7.66722 1.83478 8.27631 2.08707C8.8854 2.33936 9.40599 2.7666 9.77227 3.31477C10.1385 3.86293 10.334 4.5074 10.334 5.16667C10.334 6.05072 9.98284 6.89857 9.35772 7.52369C8.7326 8.14881 7.88476 8.5 7.0007 8.5ZM10.034 10.2C9.91947 10.2012 9.80714 10.2318 9.70789 10.2891C9.60863 10.3463 9.52579 10.4281 9.46737 10.5267L8.87403 11.52L7.8607 9.75333C8.75369 9.58226 9.57801 9.15621 10.234 8.52667L11.1874 10.18L10.034 10.2Z" fill="#08979C"/>
</svg>
