<svg width="14" height="15" viewBox="0 0 14 15" fill="none" xmlns="http://www.w3.org/2000/svg">
<path d="M13.2728 5.26C13.2728 5.26 13.2728 5.26 13.2728 5.22667C12.8031 3.94415 11.9508 2.83686 10.8311 2.05458C9.71152 1.2723 8.37865 0.852783 7.01281 0.852783C5.64698 0.852783 4.3141 1.2723 3.19449 2.05458C2.07487 2.83686 1.22255 3.94415 0.752813 5.22667C0.752813 5.22667 0.752813 5.22667 0.752813 5.26C0.228229 6.70727 0.228229 8.29274 0.752813 9.74C0.752813 9.74 0.752813 9.74 0.752813 9.77334C1.22255 11.0559 2.07487 12.1631 3.19449 12.9454C4.3141 13.7277 5.64698 14.1472 7.01281 14.1472C8.37865 14.1472 9.71152 13.7277 10.8311 12.9454C11.9508 12.1631 12.8031 11.0559 13.2728 9.77334C13.2728 9.77334 13.2728 9.77333 13.2728 9.74C13.7974 8.29274 13.7974 6.70727 13.2728 5.26ZM1.83948 8.83334C1.6083 7.95948 1.6083 7.04053 1.83948 6.16667H3.07948C2.97283 7.05236 2.97283 7.94765 3.07948 8.83334H1.83948ZM2.38615 10.1667H3.31948C3.47596 10.7612 3.69962 11.336 3.98615 11.88C3.33234 11.4346 2.78581 10.8494 2.38615 10.1667ZM3.31948 4.83334H2.38615C2.78006 4.15273 3.31961 3.56765 3.96615 3.12C3.68652 3.66483 3.46957 4.23961 3.31948 4.83334ZM6.33281 12.6333C5.51399 12.0325 4.93891 11.1568 4.71281 10.1667H6.33281V12.6333ZM6.33281 8.83334H4.42615C4.30174 7.9488 4.30174 7.0512 4.42615 6.16667H6.33281V8.83334ZM6.33281 4.83334H4.71281C4.93891 3.84318 5.51399 2.96755 6.33281 2.36667V4.83334ZM11.6128 4.83334H10.6795C10.523 4.23877 10.2993 3.66396 10.0128 3.12C10.6666 3.56538 11.2131 4.15063 11.6128 4.83334ZM7.66615 2.36667C8.48497 2.96755 9.06005 3.84318 9.28615 4.83334H7.66615V2.36667ZM7.66615 12.6333V10.1667H9.28615C9.06005 11.1568 8.48497 12.0325 7.66615 12.6333ZM9.57281 8.83334H7.66615V6.16667H9.57281C9.69722 7.0512 9.69722 7.9488 9.57281 8.83334ZM10.0328 11.88C10.3193 11.336 10.543 10.7612 10.6995 10.1667H11.6328C11.2331 10.8494 10.6866 11.4346 10.0328 11.88ZM12.1595 8.83334H10.9195C10.9737 8.39097 11.0004 7.94567 10.9995 7.5C11.0002 7.05434 10.9735 6.60905 10.9195 6.16667H12.1595C12.3907 7.04053 12.3907 7.95948 12.1595 8.83334Z" fill="#6B7280"/>
</svg>
