<svg width="40" height="40" viewBox="0 0 40 40" fill="none" xmlns="http://www.w3.org/2000/svg">
<g clip-path="url(#clip0_4893_4762)">
<path d="M11.3046 38.0155C13.9339 39.2869 16.8837 40 20.0002 40C23.1167 40 26.0664 39.2869 28.6958 38.0155L30.435 20L28.6958 1.98453C26.0664 0.713125 23.1167 0 20.0002 0C16.8837 0 13.9339 0.713125 11.3046 1.98453L9.56543 20L11.3046 38.0155Z" fill="#FFDA44"/>
<path d="M28.6958 38.0149C35.3857 34.78 40.0002 27.9293 40.0002 20.0001C40.0002 12.071 35.3857 5.22019 28.6958 1.98535V38.0149Z" fill="#D80027"/>
<path d="M11.3044 38.0149V1.98535C4.61445 5.22019 0 12.0709 0 20.0001C0 27.9293 4.61445 34.78 11.3044 38.0149Z" fill="#0052B4"/>
<path d="M19.9995 26.9565C19.9995 23.765 19.9995 20 19.9995 20H25.2169V22.6087C25.2169 23.0619 24.3474 24.7225 22.2011 26.087C21.3882 26.6038 20.5467 26.7701 19.9995 26.9565Z" fill="#D80027"/>
<path d="M14.7822 14.7825H19.9996V19.9999H14.7822V14.7825Z" fill="#D80027"/>
<path d="M22.6086 13.0436C22.6086 12.083 21.8299 11.3044 20.8695 11.3044C20.5523 11.3044 20.2559 11.3907 19.9999 11.539C19.7439 11.3907 19.4476 11.3044 19.1304 11.3044C18.1699 11.3044 17.3913 12.083 17.3913 13.0436H13.0435V21.7391C13.0435 24.9763 15.6142 26.8484 17.6303 27.8189C17.4794 28.0766 17.3913 28.3755 17.3913 28.6958C17.3913 29.6563 18.1699 30.4349 19.1304 30.4349C19.4476 30.4349 19.744 30.3487 19.9999 30.2004C20.256 30.3487 20.5523 30.4349 20.8695 30.4349C21.8299 30.4349 22.6086 29.6563 22.6086 28.6958C22.6086 28.3755 22.5205 28.0766 22.3695 27.8189C24.3856 26.8484 26.9564 24.9764 26.9564 21.7391V13.0436H22.6086ZM24.3478 21.7391C24.3478 22.1923 24.3478 23.5713 22.2015 24.9359C21.3885 25.4527 20.5471 25.7879 19.9999 25.9742C19.4528 25.7879 18.6113 25.4527 17.7984 24.9359C15.6521 23.5713 15.6521 22.1923 15.6521 21.7391V15.6523H24.3478V21.7391Z" fill="#FF9811"/>
</g>
<defs>
<clipPath id="clip0_4893_4762">
<rect width="40" height="40" fill="white"/>
</clipPath>
</defs>
</svg>
