<svg width="40" height="40" viewBox="0 0 40 40" fill="none" xmlns="http://www.w3.org/2000/svg">
<g clip-path="url(#clip0_4893_4785)">
<path d="M28.6958 1.98453C26.0664 0.713125 23.1166 0 20.0002 0C16.8838 0 13.9339 0.713125 11.3046 1.98453L9.56543 20L11.3046 38.0155C13.9339 39.2869 16.8838 40 20.0002 40C23.1166 40 26.0664 39.2869 28.6958 38.0155L30.435 20L28.6958 1.98453Z" fill="#D80027"/>
<path d="M11.3044 1.98535C4.61453 5.22027 0 12.071 0 20.0001C0 27.9293 4.61453 34.78 11.3044 38.0149V1.98535Z" fill="black"/>
<path d="M28.6953 1.98535V38.0149C35.3852 34.78 39.9997 27.9293 39.9997 20.0001C39.9997 12.071 35.3852 5.22027 28.6953 1.98535Z" fill="#496E2D"/>
<path d="M19.9999 13.0437C16.1579 13.0437 13.0435 16.1582 13.0435 20.0002C13.0435 23.8421 16.158 26.9567 19.9999 26.9567C23.8419 26.9567 26.9564 23.8421 26.9564 20.0002C26.9564 16.1582 23.842 13.0437 19.9999 13.0437ZM19.9999 24.348C17.5987 24.348 15.6521 22.4014 15.6521 20.0002C15.6521 17.599 17.5988 15.6524 19.9999 15.6524C22.4011 15.6524 24.3478 17.599 24.3478 20.0002C24.3478 22.4014 22.4012 24.348 19.9999 24.348Z" fill="#FFDA44"/>
<path d="M20.0004 17.3916C19.0398 17.3916 18.2612 18.1702 18.2612 19.1307V21.7394H21.7395V19.1307C21.7395 18.1702 20.9609 17.3916 20.0004 17.3916Z" fill="#FFDA44"/>
</g>
<defs>
<clipPath id="clip0_4893_4785">
<rect width="40" height="40" fill="white"/>
</clipPath>
</defs>
</svg>
