<svg width="16" height="16" viewBox="0 0 16 16" fill="none" xmlns="http://www.w3.org/2000/svg">
<g clip-path="url(#clip0_1467_179870)">
<path d="M17.0665 0H-1.06686C-2.24507 0 -3.2002 0.955126 -3.2002 2.13333V13.8667C-3.2002 15.0449 -2.24507 16 -1.06686 16H17.0665C18.2447 16 19.1998 15.0449 19.1998 13.8667V2.13333C19.1998 0.955126 18.2447 0 17.0665 0Z" fill="#F93939"/>
<path fill-rule="evenodd" clip-rule="evenodd" d="M-3.2002 0H4.26647V16H-3.2002V0Z" fill="#151515"/>
<path fill-rule="evenodd" clip-rule="evenodd" d="M11.7334 0H19.2001V16H11.7334V0Z" fill="#249F58"/>
<path fill-rule="evenodd" clip-rule="evenodd" d="M7.99967 10.6673C9.47167 10.6673 10.6663 9.47265 10.6663 8.00065C10.6663 6.52865 9.47167 5.33398 7.99967 5.33398C6.52767 5.33398 5.33301 6.52865 5.33301 8.00065C5.33301 9.47265 6.52767 10.6673 7.99967 10.6673ZM7.99967 9.60065C8.88287 9.60065 9.59967 8.64598 9.59967 7.46732C9.59967 6.28865 8.88287 5.33398 7.99967 5.33398C7.11647 5.33398 6.39967 6.28865 6.39967 7.46732C6.39967 8.64598 7.11647 9.60065 7.99967 9.60065ZM7.99967 8.53398C8.29407 8.53398 8.53301 8.05612 8.53301 7.46732C8.53301 6.87852 8.29407 6.40065 7.99967 6.40065C7.70527 6.40065 7.46634 6.87852 7.46634 7.46732C7.46634 8.05612 7.70527 8.53398 7.99967 8.53398Z" fill="white"/>
</g>
<defs>
<clipPath id="clip0_1467_179870">
<rect width="16" height="16" rx="8" fill="white"/>
</clipPath>
</defs>
</svg>
