<svg width="16" height="16" viewBox="0 0 16 16" fill="none" xmlns="http://www.w3.org/2000/svg">
<g clip-path="url(#clip0_1467_179869)">
<rect width="16" height="16" rx="8" fill="#F93939"/>
<path d="M17.0665 0H-1.06686C-2.24507 0 -3.2002 0.955126 -3.2002 2.13333V13.8667C-3.2002 15.0449 -2.24507 16 -1.06686 16H17.0665C18.2447 16 19.1998 15.0449 19.1998 13.8667V2.13333C19.1998 0.955126 18.2447 0 17.0665 0Z" fill="#F93939"/>
<path fill-rule="evenodd" clip-rule="evenodd" d="M8.00015 4.87959L6.66318 3.98828L5.77187 4.87959H6.66318L5.77187 5.7709L3.98926 4.87959V9.33613L6.66318 8.44482L5.77187 10.2274H4.88057L5.77187 11.1187L6.66318 10.2274L8.00015 12.0101V4.87959ZM9.33711 3.98828L10.2284 4.87959H9.33711L10.2284 5.7709L12.011 4.87959V9.33613L9.33711 8.44482L10.2284 10.2274H11.1197L10.2284 11.1187L9.33711 10.2274L8.00015 12.0101V4.87959L9.33711 3.98828Z" fill="#151515"/>
</g>
<defs>
<clipPath id="clip0_1467_179869">
<rect width="16" height="16" rx="8" fill="white"/>
</clipPath>
</defs>
</svg>
