<svg width="40" height="40" viewBox="0 0 40 40" fill="none" xmlns="http://www.w3.org/2000/svg">
<g clip-path="url(#clip0_4893_4780)">
<path d="M20 40C31.0457 40 40 31.0457 40 20C40 8.95431 31.0457 0 20 0C8.9543 0 0 8.95431 0 20C0 31.0457 8.9543 40 20 40Z" fill="#D80027"/>
<path d="M31.3045 14.8444H24.0603C24.5074 14.3761 24.7827 13.7422 24.7827 13.0435C24.7827 11.6028 23.6147 10.4348 22.174 10.4348C21.2663 10.4348 20.4674 10.8986 20.0001 11.6018C19.5328 10.8986 18.7338 10.4348 17.8262 10.4348C16.3855 10.4348 15.2175 11.6028 15.2175 13.0435C15.2175 13.7422 15.4928 14.3762 15.9399 14.8444H8.6958C8.6958 16.7654 10.369 18.3226 12.2899 18.3226H12.1739C12.1739 20.2437 13.7312 21.801 15.6523 21.801C15.6523 22.4232 15.8163 23.0065 16.1025 23.5115L13.2174 26.3967L15.431 28.6101L18.571 25.4702C18.6939 25.5153 18.8212 25.5515 18.9526 25.5761L17.0552 29.8601L20.0001 33.0435L22.945 29.8599L21.0476 25.5759C21.1791 25.5513 21.3063 25.5152 21.4292 25.47L24.5692 28.61L26.7828 26.3965L23.8976 23.5112C24.1839 23.0063 24.3479 22.4229 24.3479 21.8008C26.2689 21.8008 27.8262 20.2436 27.8262 18.3224H27.7103C29.6312 18.3225 31.3045 16.7654 31.3045 14.8444Z" fill="black"/>
</g>
<defs>
<clipPath id="clip0_4893_4780">
<rect width="40" height="40" fill="white"/>
</clipPath>
</defs>
</svg>
