<svg width="16" height="16" viewBox="0 0 16 16" fill="none" xmlns="http://www.w3.org/2000/svg">
<g clip-path="url(#clip0_1467_179867)">
<rect width="16" height="16" rx="8" fill="#F93939"/>
<path d="M17.0665 0H-1.06686C-2.24507 0 -3.2002 0.955126 -3.2002 2.13333V13.8667C-3.2002 15.0449 -2.24507 16 -1.06686 16H17.0665C18.2447 16 19.1998 15.0449 19.1998 13.8667V2.13333C19.1998 0.955126 18.2447 0 17.0665 0Z" fill="#F93939"/>
<path fill-rule="evenodd" clip-rule="evenodd" d="M-3.2002 8.5332H19.1998V15.9999H-3.2002V8.5332Z" fill="#151515"/>
<path fill-rule="evenodd" clip-rule="evenodd" d="M10.539 9.74588C11.0019 9.12508 11.275 8.35495 11.275 7.52081C11.275 5.95601 10.3118 4.61628 8.94648 4.06055L8.30114 4.96401C9.40408 5.29148 10.2083 6.31228 10.2083 7.52081C10.2083 8.15441 9.98754 8.73681 9.61848 9.19335L5.94168 6.98748L8.81741 9.86321C8.43874 10.0701 8.00354 10.1875 7.54168 10.1875C6.64568 10.1875 5.85314 9.74588 5.36994 9.06748L4.72461 9.97095C5.40834 10.7571 6.41634 11.2541 7.54168 11.2541C8.29901 11.2541 9.00514 11.028 9.59394 10.6397L10.2083 11.2541L11.275 10.1875L10.539 9.74588ZM5.94168 4.85415H7.00834V5.92081H5.94168V4.85415Z" fill="#FFDA2C"/>
</g>
<defs>
<clipPath id="clip0_1467_179867">
<rect width="16" height="16" rx="8" fill="white"/>
</clipPath>
</defs>
</svg>
