<svg width="16" height="16" viewBox="0 0 16 16" fill="none" xmlns="http://www.w3.org/2000/svg">
<g clip-path="url(#clip0_1467_179865)">
<path d="M17.0665 0H-1.06686C-2.24507 0 -3.2002 0.955126 -3.2002 2.13333V13.8667C-3.2002 15.0449 -2.24507 16 -1.06686 16H17.0665C18.2447 16 19.1998 15.0449 19.1998 13.8667V2.13333C19.1998 0.955126 18.2447 0 17.0665 0Z" fill="white"/>
<path fill-rule="evenodd" clip-rule="evenodd" d="M-3.2002 10.6667H19.1998V16H-3.2002V10.6667ZM-3.2002 0H19.1998V5.33333H-3.2002V0Z" fill="#3ECBF8"/>
<path d="M7.99941 9.60039C8.88307 9.60039 9.59941 8.88405 9.59941 8.00039C9.59941 7.11674 8.88307 6.40039 7.99941 6.40039C7.11576 6.40039 6.39941 7.11674 6.39941 8.00039C6.39941 8.88405 7.11576 9.60039 7.99941 9.60039Z" fill="#FFDA2C"/>
</g>
<defs>
<clipPath id="clip0_1467_179865">
<rect width="16" height="16" rx="8" fill="white"/>
</clipPath>
</defs>
</svg>
