<svg width="16" height="16" viewBox="0 0 16 16" fill="none" xmlns="http://www.w3.org/2000/svg">
<g clip-path="url(#clip0_1467_179862)">
<rect width="16" height="16" rx="8" fill="#1A47B8"/>
<path d="M20.2667 0H2.13333C0.955126 0 0 0.955126 0 2.13333V13.8667C0 15.0449 0.955126 16 2.13333 16H20.2667C21.4449 16 22.4 15.0449 22.4 13.8667V2.13333C22.4 0.955126 21.4449 0 20.2667 0Z" fill="#1A47B8"/>
<path opacity="0.5" fill-rule="evenodd" clip-rule="evenodd" d="M2.13379 12.2659L3.20046 11.7326L3.73379 10.6659L4.26712 11.7326L5.33379 12.2659L4.26712 12.7992L3.73379 13.8659L3.20046 12.7992L2.13379 12.2659ZM12.8005 3.19922V4.26589H13.8671V3.19922H12.8005ZM16.0005 4.26589V5.33255H17.0671V4.26589H16.0005ZM11.7338 6.39922V7.46589H12.8005V6.39922H11.7338ZM14.9338 7.46589V8.53255H16.0005V7.46589H14.9338ZM13.8671 10.6659V11.7326H14.9338V10.6659H13.8671Z" fill="white"/>
<path d="M10.1329 2.7168H2.66628C2.07717 2.7168 1.59961 3.19436 1.59961 3.78346V9.1168C1.59961 9.7059 2.07717 10.1835 2.66628 10.1835H10.1329C10.722 10.1835 11.1996 9.7059 11.1996 9.1168V3.78346C11.1996 3.19436 10.722 2.7168 10.1329 2.7168Z" fill="white"/>
<path fill-rule="evenodd" clip-rule="evenodd" d="M5.86602 6.9832H2.66602V5.91654H5.86602V3.7832H6.93268V5.91654H10.1327V6.9832H6.93268V9.11654H5.86602V6.9832ZM8.53268 8.04987V9.11654H10.1327V8.04987H8.53268ZM8.53268 3.7832V4.84987H10.1327V3.7832H8.53268ZM2.66602 8.04987V9.11654H4.26602V8.04987H2.66602ZM2.66602 3.7832V4.84987H4.26602V3.7832H2.66602Z" fill="#F93939"/>
</g>
<defs>
<clipPath id="clip0_1467_179862">
<rect width="16" height="16" rx="8" fill="white"/>
</clipPath>
</defs>
</svg>
