<svg width="16" height="16" viewBox="0 0 16 16" fill="none" xmlns="http://www.w3.org/2000/svg">
<g clip-path="url(#clip0_1467_179863)">
<rect width="16" height="16" rx="8" fill="#3ECBF8"/>
<path d="M20.2667 0H2.13333C0.955126 0 0 0.955126 0 2.13333V13.8667C0 15.0449 0.955126 16 2.13333 16H20.2667C21.4449 16 22.4 15.0449 22.4 13.8667V2.13333C22.4 0.955126 21.4449 0 20.2667 0Z" fill="#3ECBF8"/>
<path fill-rule="evenodd" clip-rule="evenodd" d="M5.52078 5.84989C6.44878 5.79122 7.13678 5.58322 7.13678 5.33255C7.13678 5.08295 6.44878 4.87389 5.52078 4.81522C5.46212 3.88722 5.25412 3.19922 5.00345 3.19922C4.75385 3.19922 4.54478 3.88722 4.48612 4.81522C3.55812 4.87389 2.87012 5.08189 2.87012 5.33255C2.87012 5.58215 3.55812 5.79122 4.48612 5.84989C4.54478 6.77789 4.75278 7.46589 5.00345 7.46589C5.25305 7.46589 5.46212 6.77789 5.52078 5.84989Z" fill="#F93939"/>
<path fill-rule="evenodd" clip-rule="evenodd" d="M5.52091 5.85002C6.44891 5.79135 7.13691 5.58335 7.13691 5.33268C7.13691 5.08308 6.44891 4.87402 5.52091 4.81535C5.46225 3.88735 5.25425 3.19935 5.00358 3.19935C4.75398 3.19935 4.54491 3.88735 4.48625 4.81535C3.55825 4.87402 2.87025 5.08202 2.87025 5.33268C2.87025 5.58228 3.55825 5.79135 4.48625 5.85002C4.54491 6.77802 4.75291 7.46602 5.00358 7.46602C5.25318 7.46602 5.46225 6.77802 5.52091 5.85002ZM5.55291 6.38335L6.05425 5.88202C5.97425 7.15988 5.70758 7.99935 5.00358 7.99935C4.29958 7.99935 4.03291 7.15881 3.95398 5.88308L4.45318 6.38228C3.17745 6.30335 2.33691 6.03668 2.33691 5.33268C2.33691 4.62868 3.17745 4.36202 4.45318 4.28308L3.95398 4.78228C4.03291 3.50655 4.29958 2.66602 5.00358 2.66602C5.70758 2.66602 5.97425 3.50655 6.05318 4.78228L5.55398 4.28308C6.82971 4.36202 7.67025 4.62868 7.67025 5.33268C7.67025 6.03668 6.82971 6.30335 5.55398 6.38228L5.55291 6.38335Z" fill="white"/>
<path fill-rule="evenodd" clip-rule="evenodd" d="M0 9.59961H22.4V10.6663H0V9.59961ZM0 11.7329H22.4V12.7996H0V11.7329Z" fill="#FFDA2C"/>
</g>
<defs>
<clipPath id="clip0_1467_179863">
<rect width="16" height="16" rx="8" fill="white"/>
</clipPath>
</defs>
</svg>
