<svg width="40" height="40" viewBox="0 0 40 40" fill="none" xmlns="http://www.w3.org/2000/svg">
<g clip-path="url(#clip0_4893_4711)">
<path d="M40 20.0002C40 17.5538 39.56 15.2102 38.756 13.0437L20 12.1741L1.24398 13.0436C0.440078 15.2102 0 17.5538 0 20.0002C0 22.4466 0.440078 24.7901 1.24398 26.9566L20 27.8263L38.756 26.9567C39.56 24.7901 40 22.4466 40 20.0002Z" fill="#D80027"/>
<path d="M20.0002 40.0001C28.5995 40.0001 35.9303 34.5726 38.7562 26.9565H1.24414C4.07 34.5726 11.4009 40.0001 20.0002 40.0001Z" fill="#6DA544"/>
<path d="M1.24414 13.0435H38.7563C35.9303 5.4275 28.5995 0 20.0002 0C11.4009 0 4.07 5.4275 1.24414 13.0435Z" fill="#338AF3"/>
<path d="M20.4346 25.6522C17.313 25.6522 14.7824 23.1216 14.7824 20C14.7824 16.8785 17.313 14.3478 20.4346 14.3478C21.4079 14.3478 22.3237 14.5939 23.1233 15.0272C21.8689 13.8006 20.1536 13.0435 18.2607 13.0435C14.4187 13.0435 11.3042 16.158 11.3042 19.9999C11.3042 23.8419 14.4187 26.9564 18.2607 26.9564C20.1536 26.9564 21.869 26.1993 23.1233 24.9727C22.3237 25.4061 21.4079 25.6522 20.4346 25.6522Z" fill="#F0F0F0"/>
<path d="M24.7822 16.0869L25.5309 18.1925L27.5491 17.2329L26.5897 19.2512L28.6952 20L26.5897 20.7487L27.5491 22.767L25.5309 21.8075L24.7822 23.913L24.0336 21.8075L22.0152 22.767L22.9748 20.7487L20.8691 20L22.9748 19.2512L22.0152 17.2329L24.0336 18.1925L24.7822 16.0869Z" fill="#F0F0F0"/>
</g>
<defs>
<clipPath id="clip0_4893_4711">
<rect width="40" height="40" fill="white"/>
</clipPath>
</defs>
</svg>
