<svg width="40" height="40" viewBox="0 0 40 40" fill="none" xmlns="http://www.w3.org/2000/svg">
<g clip-path="url(#clip0_4893_4686)">
<path d="M28.6958 1.98453C26.0664 0.713125 23.1166 0 20.0002 0C16.8838 0 13.9339 0.713125 11.3046 1.98453L9.56543 20L11.3046 38.0155C13.9339 39.2869 16.8838 40 20.0002 40C23.1166 40 26.0664 39.2869 28.6958 38.0155L30.435 20L28.6958 1.98453Z" fill="#FFDA44"/>
<path d="M11.3044 1.98511C4.61453 5.21995 0 12.0707 0 19.9999C0 27.9291 4.61453 34.7798 11.3044 38.0146V1.98511Z" fill="#0052B4"/>
<path d="M28.6958 1.98511V38.0146C35.3856 34.7798 40.0002 27.929 40.0002 19.9999C40.0002 12.0707 35.3856 5.21995 28.6958 1.98511Z" fill="#0052B4"/>
<path d="M26.0871 12.174L27.2538 12.7572L26.0871 12.174L24.9204 11.5907C24.8501 11.7314 23.3267 14.8308 23.0779 19.5653H21.3046V12.174L20.0002 10.4348L18.6958 12.174V19.5653H16.9224C16.6735 14.8308 15.1503 11.7314 15.0799 11.5907L12.7466 12.7573C12.7627 12.7893 14.3481 16.0163 14.3481 20.8697V22.174H18.6959V29.5654H21.3046V22.174H25.6524V20.8696C25.6524 18.3604 26.0865 16.2913 26.4508 14.9974C26.8479 13.5865 27.2513 12.7625 27.2553 12.7543L26.0871 12.174Z" fill="black"/>
</g>
<defs>
<clipPath id="clip0_4893_4686">
<rect width="40" height="40" fill="white"/>
</clipPath>
</defs>
</svg>
