<svg width="16" height="16" viewBox="0 0 16 16" fill="none" xmlns="http://www.w3.org/2000/svg">
<g clip-path="url(#clip0_1467_179856)">
<path d="M17.0665 0H-1.06686C-2.24507 0 -3.2002 0.955126 -3.2002 2.13333V13.8667C-3.2002 15.0449 -2.24507 16 -1.06686 16H17.0665C18.2447 16 19.1998 15.0449 19.1998 13.8667V2.13333C19.1998 0.955126 18.2447 0 17.0665 0Z" fill="#FFDA2C"/>
<path fill-rule="evenodd" clip-rule="evenodd" d="M-3.2002 0H4.26647V16H-3.2002V0ZM11.7331 0H19.1998V16H11.7331V0Z" fill="#1A47B8"/>
<path fill-rule="evenodd" clip-rule="evenodd" d="M7.46634 10.6665H8.53301V11.7332H7.46634V10.6665ZM9.59967 8.5332H10.6663V9.59987H9.59967V8.5332ZM5.33301 8.5332H6.39967V9.59987H5.33301V8.5332Z" fill="#AE6A3E"/>
<path fill-rule="evenodd" clip-rule="evenodd" d="M8.53301 8.53425V4.26758H7.46634V8.53425H6.39967V9.60091H7.46634V10.6676H8.53301V9.60091H9.59967V8.53425H8.53301ZM9.59967 5.33424H10.6663V8.53425H9.59967V5.33424ZM5.33301 5.33424H6.39967V8.53425H5.33301V5.33424Z" fill="#151515"/>
</g>
<defs>
<clipPath id="clip0_1467_179856">
<rect width="16" height="16" rx="8" fill="white"/>
</clipPath>
</defs>
</svg>
