<svg width="16" height="16" viewBox="0 0 16 16" fill="none" xmlns="http://www.w3.org/2000/svg">
<g clip-path="url(#clip0_1467_179857)">
<rect width="16" height="16" rx="8" fill="#249F58"/>
<path d="M17.0665 0H-1.06686C-2.24507 0 -3.2002 0.955126 -3.2002 2.13333V13.8667C-3.2002 15.0449 -2.24507 16 -1.06686 16H17.0665C18.2447 16 19.1998 15.0449 19.1998 13.8667V2.13333C19.1998 0.955126 18.2447 0 17.0665 0Z" fill="#249F58"/>
<path d="M8.0002 12.7992C10.6512 12.7992 12.8002 10.6502 12.8002 7.99922C12.8002 5.34825 10.6512 3.19922 8.0002 3.19922C5.34923 3.19922 3.2002 5.34825 3.2002 7.99922C3.2002 10.6502 5.34923 12.7992 8.0002 12.7992Z" fill="#F93939"/>
</g>
<defs>
<clipPath id="clip0_1467_179857">
<rect width="16" height="16" rx="8" fill="white"/>
</clipPath>
</defs>
</svg>
