<svg width="40" height="40" viewBox="0 0 40 40" fill="none" xmlns="http://www.w3.org/2000/svg">
<g clip-path="url(#clip0_4893_4667)">
<path d="M26.9563 1.24398C24.7897 0.440078 22.4462 0 19.9998 0C17.5534 0 15.21 0.440078 13.0433 1.24398L11.3042 20L13.0433 38.756C15.21 39.56 17.5534 40 19.9998 40C22.4462 40 24.7897 39.56 26.9563 38.756L28.6954 20L26.9563 1.24398Z" fill="#FFDA44"/>
<path d="M40.0001 19.9998C40.0001 11.4006 34.5726 4.06968 26.9565 1.2439V38.756C34.5726 35.93 40.0001 28.5992 40.0001 19.9998Z" fill="#D80027"/>
<path d="M0 19.9998C0 28.5992 5.4275 35.93 13.0435 38.7559V1.2439C5.4275 4.06968 0 11.4006 0 19.9998Z" fill="black"/>
</g>
<defs>
<clipPath id="clip0_4893_4667">
<rect width="40" height="40" fill="white"/>
</clipPath>
</defs>
</svg>
