<svg width="40" height="40" viewBox="0 0 40 40" fill="none" xmlns="http://www.w3.org/2000/svg">
<g clip-path="url(#clip0_4893_4577)">
<path d="M20 39.9999C31.0457 39.9999 40 31.0456 40 19.9999C40 8.95418 31.0457 -0.00012207 20 -0.00012207C8.9543 -0.00012207 0 8.95418 0 19.9999C0 31.0456 8.9543 39.9999 20 39.9999Z" fill="#F0F0F0"/>
<path d="M32.1779 4.133C25.0176 -1.37684 14.9826 -1.37684 7.82227 4.13292L20.0001 16.3107L32.1779 4.133Z" fill="#D80027"/>
<path d="M19.9999 23.6894L7.82227 35.867C14.9826 41.3769 25.0176 41.3769 32.1779 35.867L20.0001 23.6892L19.9999 23.6894Z" fill="#D80027"/>
<path d="M16.3106 20L4.13287 7.82214C-1.37697 14.9825 -1.37697 25.0175 4.13287 32.1778L16.3106 20Z" fill="#6DA544"/>
<path d="M23.6895 20L35.8671 32.1778C41.377 25.0175 41.377 14.9825 35.8671 7.82214L23.6895 20Z" fill="#6DA544"/>
<path d="M19.9998 28.6956C24.8023 28.6956 28.6954 24.8024 28.6954 19.9999C28.6954 15.1975 24.8023 11.3043 19.9998 11.3043C15.1974 11.3043 11.3042 15.1975 11.3042 19.9999C11.3042 24.8024 15.1974 28.6956 19.9998 28.6956Z" fill="#F0F0F0"/>
<path d="M19.9999 13.9131L20.7529 15.2175H22.2591L21.506 16.5218L22.2591 17.8261H20.7529L19.9999 19.1305L19.2468 17.8261H17.7407L18.4938 16.5218L17.7407 15.2175H19.2468L19.9999 13.9131Z" fill="#D80027"/>
<path d="M16.1723 20.0001L16.9254 21.3045H18.4314L17.6784 22.6088L18.4314 23.9132H16.9254L16.1723 25.2175L15.4192 23.9132H13.9131L14.6661 22.6088L13.9131 21.3045H15.4192L16.1723 20.0001Z" fill="#D80027"/>
<path d="M23.8281 20.0001L24.5811 21.3045H26.0872L25.3342 22.6088L26.0872 23.9132H24.5811L23.8281 25.2175L23.0749 23.9132H21.5688L22.3219 22.6088L21.5688 21.3045H23.0749L23.8281 20.0001Z" fill="#D80027"/>
</g>
<defs>
<clipPath id="clip0_4893_4577">
<rect width="40" height="40" fill="white"/>
</clipPath>
</defs>
</svg>
