<svg width="16" height="16" viewBox="0 0 16 16" fill="none" xmlns="http://www.w3.org/2000/svg">
<g clip-path="url(#clip0_1467_179842)">
<path d="M17.0665 0H-1.06686C-2.24507 0 -3.2002 0.955126 -3.2002 2.13333V13.8667C-3.2002 15.0449 -2.24507 16 -1.06686 16H17.0665C18.2447 16 19.1998 15.0449 19.1998 13.8667V2.13333C19.1998 0.955126 18.2447 0 17.0665 0Z" fill="#F93939"/>
<path fill-rule="evenodd" clip-rule="evenodd" d="M-3.2002 0L7.46647 8.53333L-3.2002 16V0ZM19.1998 0L8.53314 8.53333L19.1998 16V0Z" fill="#00B731"/>
<path fill-rule="evenodd" clip-rule="evenodd" d="M4.43501 6.8864L-3.2002 1.6V0H-1.6002L5.70327 5.056C6.3358 4.56107 7.13261 4.26667 7.99981 4.26667C8.86594 4.26667 9.66381 4.56107 10.2963 5.056L17.5998 0H19.1998V1.6L11.5646 6.8864C11.6745 7.2384 11.7331 7.61173 11.7331 8C11.7331 8.38827 11.6745 8.7616 11.5646 9.1136L19.1998 14.4V16H17.5998L10.2963 10.944C9.66274 11.4389 8.86701 11.7333 7.99981 11.7333C7.13367 11.7333 6.3358 11.4389 5.70327 10.944L-1.6002 16H-3.2002V14.4L4.43501 9.1136C4.32514 8.7616 4.26647 8.38827 4.26647 8C4.26647 7.61173 4.32514 7.2384 4.43501 6.8864Z" fill="white"/>
<path fill-rule="evenodd" clip-rule="evenodd" d="M7.46608 6.40039H8.53275V7.46706H7.46608V6.40039ZM8.53275 8.53372H9.59941V9.60039H8.53275V8.53372ZM6.39941 8.53372H7.46608V9.60039H6.39941V8.53372Z" fill="#AF010D"/>
</g>
<defs>
<clipPath id="clip0_1467_179842">
<rect width="16" height="16" rx="8" fill="white"/>
</clipPath>
</defs>
</svg>
