<svg width="16" height="16" viewBox="0 0 16 16" fill="none" xmlns="http://www.w3.org/2000/svg">
<g clip-path="url(#clip0_1467_179845)">
<rect width="16" height="16" rx="8" fill="#FFDA2C"/>
<path d="M17.0665 0H-1.06686C-2.24507 0 -3.2002 0.955126 -3.2002 2.13333V13.8667C-3.2002 15.0449 -2.24507 16 -1.06686 16H17.0665C18.2447 16 19.1998 15.0449 19.1998 13.8667V2.13333C19.1998 0.955126 18.2447 0 17.0665 0Z" fill="#FFDA2C"/>
<path fill-rule="evenodd" clip-rule="evenodd" d="M-3.2002 0L19.1998 10.6667V14.9333L-3.2002 4.26667V0Z" fill="white"/>
<path fill-rule="evenodd" clip-rule="evenodd" d="M-3.2002 3.19922L19.1998 13.8659V15.9992L-3.2002 5.33255V3.19922Z" fill="#151515"/>
<path fill-rule="evenodd" clip-rule="evenodd" d="M5.53728 7.50674L6.52237 8.49183V12.4322L4.5522 11.4471V9.47691L2.58203 7.50674L4.5522 5.53657L5.53728 6.52166V7.50674ZM6.52237 9.47691H9.47762V10.462H6.52237V9.47691ZM10.4627 7.50674L9.47762 8.49183V12.4322L11.4478 11.4471V9.47691L13.418 7.50674L11.4478 5.53657L10.4627 6.52166V7.50674ZM6.52237 6.52166H9.47762L8 3.56641L6.52237 6.52166Z" fill="#F93939"/>
</g>
<defs>
<clipPath id="clip0_1467_179845">
<rect width="16" height="16" rx="8" fill="white"/>
</clipPath>
</defs>
</svg>
