<svg width="16" height="16" viewBox="0 0 16 16" fill="none" xmlns="http://www.w3.org/2000/svg">
<g clip-path="url(#clip0_1467_179850)">
<path d="M17.0665 0H-1.06686C-2.24507 0 -3.2002 0.955126 -3.2002 2.13333V13.8667C-3.2002 15.0449 -2.24507 16 -1.06686 16H17.0665C18.2447 16 19.1998 15.0449 19.1998 13.8667V2.13333C19.1998 0.955126 18.2447 0 17.0665 0Z" fill="#FFDA2C"/>
<path fill-rule="evenodd" clip-rule="evenodd" d="M6.39941 7.4668H7.46608V8.53346H6.39941V7.4668ZM8.53275 7.4668H9.59941V8.53346H8.53275V7.4668Z" fill="#03BCDB"/>
<path fill-rule="evenodd" clip-rule="evenodd" d="M9.59967 7.46706H10.6663V9.60039H9.59967V7.46706ZM8.53301 6.40039H9.59967V7.46706H8.53301V6.40039ZM6.39967 6.40039H7.46634V7.46706H6.39967V6.40039ZM5.33301 7.46706H6.39967V9.60039H5.33301V7.46706Z" fill="#AF010D"/>
<path fill-rule="evenodd" clip-rule="evenodd" d="M7.4668 8.5332H8.53346V9.59987H7.4668V8.5332Z" fill="#249F58"/>
<path fill-rule="evenodd" clip-rule="evenodd" d="M7.4668 6.40039H8.53346V7.46706H7.4668V6.40039Z" fill="#151515"/>
<path fill-rule="evenodd" clip-rule="evenodd" d="M8.53275 8.5332H9.59941V9.59987H8.53275V8.5332ZM6.39941 8.5332H7.46608V9.59987H6.39941V8.5332Z" fill="#D4AF2C"/>
<path fill-rule="evenodd" clip-rule="evenodd" d="M7.4668 7.4668H8.53346V8.53346H7.4668V7.4668Z" fill="#249F58"/>
<path fill-rule="evenodd" clip-rule="evenodd" d="M-3.2002 10.666H19.1998V15.9993H-3.2002V10.666Z" fill="#249F58"/>
<path fill-rule="evenodd" clip-rule="evenodd" d="M-3.2002 0H19.1998V5.33333H-3.2002V0Z" fill="#F93939"/>
</g>
<defs>
<clipPath id="clip0_1467_179850">
<rect width="16" height="16" rx="8" fill="white"/>
</clipPath>
</defs>
</svg>
