<svg width="40" height="40" viewBox="0 0 40 40" fill="none" xmlns="http://www.w3.org/2000/svg">
<g clip-path="url(#clip0_4893_4619)">
<path d="M19.9995 40C31.0452 40 39.9995 31.0457 39.9995 20C39.9995 8.9543 31.0452 0 19.9995 0C8.95382 0 -0.000488281 8.9543 -0.000488281 20C-0.000488281 31.0457 8.95382 40 19.9995 40Z" fill="#6DA544"/>
<path d="M19.9997 7.82617L36.5215 20.0001L19.9997 32.174L3.47803 20.0001L19.9997 7.82617Z" fill="#FFDA44"/>
<path d="M19.9999 26.9564C23.8419 26.9564 26.9564 23.8419 26.9564 19.9999C26.9564 16.158 23.8419 13.0435 19.9999 13.0435C16.158 13.0435 13.0435 16.158 13.0435 19.9999C13.0435 23.8419 16.158 26.9564 19.9999 26.9564Z" fill="#F0F0F0"/>
<path d="M16.5214 19.5652C15.3117 19.5652 14.1443 19.7492 13.0454 20.0906C13.0941 23.8906 16.1881 26.9565 19.9997 26.9565C22.3566 26.9565 24.4381 25.7833 25.6965 23.9903C23.5436 21.2952 20.231 19.5652 16.5214 19.5652Z" fill="#0052B4"/>
<path d="M26.8271 21.3328C26.9108 20.9012 26.9561 20.456 26.9561 19.9999C26.9561 16.1579 23.8415 13.0435 19.9996 13.0435C17.1329 13.0435 14.6719 14.7779 13.6069 17.2543C14.5483 17.0592 15.523 16.9565 16.5214 16.9565C20.5618 16.9564 24.2169 18.636 26.8271 21.3328Z" fill="#0052B4"/>
</g>
<defs>
<clipPath id="clip0_4893_4619">
<rect width="40" height="40" fill="white"/>
</clipPath>
</defs>
</svg>
