<svg width="16" height="16" viewBox="0 0 16 16" fill="none" xmlns="http://www.w3.org/2000/svg">
<rect width="16" height="16" rx="8" fill="#249F58"/>
<path fill-rule="evenodd" clip-rule="evenodd" d="M7.99961 3.30664L14.3996 7.99997L7.99961 12.6933L1.59961 7.99997" fill="#FFDA2C"/>
<path d="M7.99936 10.987C9.64885 10.987 10.986 9.64983 10.986 8.00034C10.986 6.35085 9.64885 5.01367 7.99936 5.01367C6.34987 5.01367 5.0127 6.35085 5.0127 8.00034C5.0127 9.64983 6.34987 10.987 7.99936 10.987Z" fill="#1A47B8"/>
<path fill-rule="evenodd" clip-rule="evenodd" d="M6.71973 9.2793V10.1326H7.57306V9.2793H6.71973ZM8.42639 9.2793V10.1326H9.27973V9.2793H8.42639Z" fill="white"/>
<path fill-rule="evenodd" clip-rule="evenodd" d="M5.86621 6.7207C5.86621 6.7207 7.79816 7.06204 9.1908 7.65766L10.9862 8.42737" fill="white"/>
<path d="M5.86621 6.7207C5.86621 6.7207 7.79816 7.06204 9.1908 7.65766L10.9862 8.42737" stroke="white"/>
</svg>
