<svg width="16" height="16" viewBox="0 0 16 16" fill="none" xmlns="http://www.w3.org/2000/svg">
<g clip-path="url(#clip0_1467_179851)">
<rect width="16" height="16" rx="8" fill="#FF6C2D"/>
<path d="M17.0665 0H-1.06686C-2.24507 0 -3.2002 0.955126 -3.2002 2.13333V13.8667C-3.2002 15.0449 -2.24507 16 -1.06686 16H17.0665C18.2447 16 19.1998 15.0449 19.1998 13.8667V2.13333C19.1998 0.955126 18.2447 0 17.0665 0Z" fill="#FF6C2D"/>
<path fill-rule="evenodd" clip-rule="evenodd" d="M-3.2002 16L19.1998 0H-3.2002V16Z" fill="#FFDA2C"/>
<path fill-rule="evenodd" clip-rule="evenodd" d="M2.51855 9.95786L2.91008 11.1324L4.47616 11.5239L4.86768 10.7409L7.99985 11.1324L7.21681 9.17482H8.78289L11.132 9.95786L11.9151 9.17482L9.56594 8.39177L10.349 7.60873H12.6981L13.0896 6.82569H11.132V6.04265H12.6981L13.4811 5.2596L10.349 4.47656L8.78289 6.04265L7.99985 6.82569L8.78289 7.60873L6.43377 7.21721L4.86768 9.95786L4.08464 10.7409L2.51855 9.95786Z" fill="white"/>
</g>
<defs>
<clipPath id="clip0_1467_179851">
<rect width="16" height="16" rx="8" fill="white"/>
</clipPath>
</defs>
</svg>
