<svg width="40" height="40" viewBox="0 0 40 40" fill="none" xmlns="http://www.w3.org/2000/svg">
<g clip-path="url(#clip0_4893_4642)">
<path d="M34.1422 34.1421C26.3317 41.9526 13.6684 41.9526 5.85785 34.1421C-1.95262 26.3317 -1.95262 13.6683 5.85785 5.85775C5.86067 5.85775 23.8311 0.547832 31.6417 8.3583C39.4522 16.1688 34.1475 34.1367 34.1422 34.1421Z" fill="#FFDA44"/>
<path d="M34.1422 34.1423C41.9527 26.3318 41.9527 13.6684 34.1422 5.85788C26.3317 -1.95267 13.6685 -1.95259 5.85791 5.85788L34.1422 34.1423Z" fill="#D80027"/>
<path d="M25.2276 25.2298C24.406 25.5524 23.4514 25.5182 22.6232 25.0534C21.1599 24.2322 20.6376 22.3733 21.459 20.9098L21.2097 20.7699C23.7152 20.1658 25.5689 17.8916 25.5364 15.2078C25.5162 13.5393 24.7707 12.0466 23.6045 11.0251L21.7785 12.8959C22.4688 13.4461 22.9164 14.29 22.9279 15.2394C22.9482 16.9176 21.5996 18.2994 19.9215 18.3196L19.9251 18.6053C18.149 16.7376 15.2528 16.2694 12.9449 17.6394C11.5101 18.4913 10.5902 19.8832 10.2886 21.4039L12.8217 22.05C12.953 21.177 13.46 20.3675 14.2765 19.8827C15.7195 19.0261 17.5905 19.5033 18.4471 20.9462L18.693 20.8004C17.9635 23.2721 19.0061 26.0145 21.3466 27.3283C22.8018 28.145 24.4671 28.2457 25.9349 27.7466L25.2276 25.2298ZM19.9426 20.0584L19.9424 20.0584L19.9426 20.0584Z" fill="#FF9811"/>
<path d="M27.4048 13.5453L25.9912 18.5899L21.7498 17.8067L19.0197 12.179L11.6441 14.7962L11.0625 13.1572L9.13281 12.9194L10.5868 17.017L15.6625 15.7189L17.1049 19.7836L13.5962 24.9618L19.5506 30.0404L18.422 31.3636L19.1809 33.1539L22.0027 29.8458L18.3406 26.0991L21.1396 22.8176L27.3785 23.2672L28.7995 15.5711L30.5098 15.8869L31.6808 14.3346L27.4048 13.5453ZM19.9982 20.136V20.1361V20.136Z" fill="#FFEACF"/>
</g>
<defs>
<clipPath id="clip0_4893_4642">
<rect width="40" height="40" fill="white"/>
</clipPath>
</defs>
</svg>
