<svg width="40" height="40" viewBox="0 0 40 40" fill="none" xmlns="http://www.w3.org/2000/svg">
<g clip-path="url(#clip0_4893_4673)">
<path d="M19.9995 40C31.0452 40 39.9995 31.0457 39.9995 20C39.9995 8.9543 31.0452 0 19.9995 0C8.95382 0 -0.000488281 8.9543 -0.000488281 20C-0.000488281 31.0457 8.95382 40 19.9995 40Z" fill="#FCFCFC"/>
<path d="M8.26082 18.5505L6.08691 14.6065L8.26082 10.7244L10.4347 14.6065L8.26082 18.5505Z" fill="#A2001D"/>
<path d="M3.91316 18.5505L1.73926 14.6065L3.91316 10.7244L6.08707 14.6065L3.91316 18.5505Z" fill="#A2001D"/>
<path d="M8.26082 29.2753L6.08691 25.3313L8.26082 21.4492L10.4347 25.3313L8.26082 29.2753Z" fill="#A2001D"/>
<path d="M3.91316 29.2753L1.73926 25.3313L3.91316 21.4492L6.08707 25.3313L3.91316 29.2753Z" fill="#A2001D"/>
<path d="M10.4348 3.88202L9.81935 2.78296C8.71545 3.43702 7.68006 4.19429 6.72607 5.04147L8.26092 7.82593L10.4348 3.88202Z" fill="#A2001D"/>
<path d="M8.26105 32.1738L6.70996 34.9438C7.66309 35.7921 8.69777 36.5505 9.80121 37.2059L10.435 36.056L8.26105 32.1738Z" fill="#A2001D"/>
<path d="M12.1738 25.2173V38.4097C14.5777 39.4329 17.2224 39.9999 19.9999 39.9999C28.5992 39.9999 35.9301 34.5724 38.7559 26.9563L12.1738 25.2173Z" fill="#6DA544"/>
<path d="M38.7559 26.9565C39.5599 24.7898 39.9999 22.4464 39.9999 20C39.9999 8.95437 31.0455 0 19.9999 0C17.2227 0 14.5777 0.566641 12.1738 1.58969V26.9566H38.7559V26.9565Z" fill="#A2001D"/>
</g>
<defs>
<clipPath id="clip0_4893_4673">
<rect width="40" height="40" fill="white"/>
</clipPath>
</defs>
</svg>
