<svg width="16" height="16" viewBox="0 0 16 16" fill="none" xmlns="http://www.w3.org/2000/svg">
<g clip-path="url(#clip0_1467_179855)">
<rect width="16" height="16" rx="8" fill="#F93939"/>
<path d="M20.5967 0H2.46341C1.2852 0 0.330078 0.955126 0.330078 2.13333V13.8667C0.330078 15.0449 1.2852 16 2.46341 16H20.5967C21.775 16 22.7301 15.0449 22.7301 13.8667V2.13333C22.7301 0.955126 21.775 0 20.5967 0Z" fill="#F93939"/>
<path fill-rule="evenodd" clip-rule="evenodd" d="M3.53008 0L5.66341 1.6L3.53008 3.2V0ZM3.53008 3.2L5.66341 4.8L3.53008 6.4V3.2ZM3.53008 6.4L5.66341 8L3.53008 9.6V6.4ZM3.53008 9.6L5.66341 11.2L3.53008 12.8V9.6ZM3.53008 12.8L5.66341 14.4L3.53008 16V12.8ZM2.46341 0L0.330078 1.6L2.46341 3.2V0ZM2.46341 3.2L0.330078 4.8L2.46341 6.4V3.2ZM2.46341 6.4L0.330078 8L2.46341 9.6V6.4ZM2.46341 9.6L0.330078 11.2L2.46341 12.8V9.6ZM2.46341 12.8L0.330078 14.4L2.46341 16V12.8ZM2.46341 0H3.53008V2.13333H2.46341V0ZM2.46341 13.8667H3.53008V16H2.46341V13.8667ZM2.46341 5.33333H3.53008V7.46667H2.46341V5.33333ZM2.46341 3.2H3.53008V4.26667H2.46341V3.2ZM2.46341 11.7333H3.53008V12.8H2.46341V11.7333ZM2.46341 8.53333H3.53008V10.6667H2.46341V8.53333Z" fill="white"/>
<path fill-rule="evenodd" clip-rule="evenodd" d="M5.66309 11.0273H22.7298V16.0004H5.66309V11.0273Z" fill="#249F58"/>
</g>
<defs>
<clipPath id="clip0_1467_179855">
<rect width="16" height="16" rx="8" fill="white"/>
</clipPath>
</defs>
</svg>
