<svg width="40" height="40" viewBox="0 0 40 40" fill="none" xmlns="http://www.w3.org/2000/svg">
<g clip-path="url(#clip0_4893_4655)">
<path d="M40 20C40 13.1358 36.5415 7.08013 31.2724 3.47825L20 2.60864L8.72758 3.47817C3.45859 7.08013 0 13.1359 0 20C0 26.8643 3.45859 32.9198 8.72758 36.5217L20 37.3913L31.2724 36.5218C36.5415 32.9198 40 26.8643 40 20Z" fill="#0052B4"/>
<path d="M31.2724 3.47828C28.0626 1.28406 24.1815 0 20 0C15.8185 0 11.9373 1.28406 8.72754 3.47828H31.2724Z" fill="#A2001D"/>
<path d="M8.72754 36.5217C11.9372 38.716 15.8185 40 20 40C24.1815 40 28.0626 38.716 31.2724 36.5217H8.72754Z" fill="#A2001D"/>
<path d="M19.9998 29.5653C25.2825 29.5653 29.565 25.2828 29.565 20C29.565 14.7173 25.2825 10.4348 19.9998 10.4348C14.7171 10.4348 10.4346 14.7173 10.4346 20C10.4346 25.2828 14.7171 29.5653 19.9998 29.5653Z" fill="#F0F0F0"/>
<path d="M19.9999 27.826C24.3222 27.826 27.826 24.3222 27.826 19.9999C27.826 15.6777 24.3222 12.1738 19.9999 12.1738C15.6777 12.1738 12.1738 15.6777 12.1738 19.9999C12.1738 24.3222 15.6777 27.826 19.9999 27.826Z" fill="#6DA544"/>
<path d="M20.0001 25.2173C22.8816 25.2173 25.2176 22.8814 25.2176 19.9999C25.2176 17.1184 22.8816 14.7825 20.0001 14.7825C17.1186 14.7825 14.7827 17.1184 14.7827 19.9999C14.7827 22.8814 17.1186 25.2173 20.0001 25.2173Z" fill="#F0F0F0"/>
<path d="M19.9999 18.6956L17.1738 19.9999V22.1738L19.9999 23.913L22.826 22.1738V19.9999L19.9999 18.6956Z" fill="#0052B4"/>
<path d="M17.1738 17.3914H22.826V20H17.1738V17.3914Z" fill="#FFDA44"/>
</g>
<defs>
<clipPath id="clip0_4893_4655">
<rect width="40" height="40" fill="white"/>
</clipPath>
</defs>
</svg>
