<svg width="40" height="40" viewBox="0 0 40 40" fill="none" xmlns="http://www.w3.org/2000/svg">
<g clip-path="url(#clip0_4893_4553)">
<path d="M19.9995 40C31.0452 40 39.9995 31.0457 39.9995 20C39.9995 8.95431 31.0452 0 19.9995 0C8.95382 0 -0.000488281 8.95431 -0.000488281 20C-0.000488281 31.0457 8.95382 40 19.9995 40Z" fill="#F0F0F0"/>
<path d="M39.9997 20C39.9997 12.0707 35.3852 5.2195 28.6953 1.9845V38.0154C35.3852 34.7804 39.9997 27.9292 39.9997 20Z" fill="#D80027"/>
<path d="M0 20C0 27.9292 4.61445 34.7804 11.3044 38.0154V1.9845C4.61445 5.2195 0 12.0707 0 20Z" fill="#D80027"/>
<path d="M23.4782 22.6086L26.9564 20.8694L25.2174 19.9999V18.2608L21.7391 19.9999L23.4782 16.5216H21.7391L19.9999 13.913L18.2608 16.5216H16.5217L18.2608 19.9999L14.7825 18.2608V19.9999L13.0435 20.8694L16.5217 22.6086L15.6521 24.3477H19.1304V26.9564H20.8695V24.3477H24.3478L23.4782 22.6086Z" fill="#D80027"/>
</g>
<defs>
<clipPath id="clip0_4893_4553">
<rect width="40" height="40" fill="white"/>
</clipPath>
</defs>
</svg>
