<svg width="16" height="16" viewBox="0 0 16 16" fill="none" xmlns="http://www.w3.org/2000/svg">
<g clip-path="url(#clip0_1467_179837)">
<path d="M17.0665 0H-1.06686C-2.24507 0 -3.2002 0.955126 -3.2002 2.13333V13.8667C-3.2002 15.0449 -2.24507 16 -1.06686 16H17.0665C18.2447 16 19.1998 15.0449 19.1998 13.8667V2.13333C19.1998 0.955126 18.2447 0 17.0665 0Z" fill="white"/>
<path fill-rule="evenodd" clip-rule="evenodd" d="M-3.2002 10.666H19.1998V15.9993H-3.2002V10.666Z" fill="#FFDA2C"/>
<path fill-rule="evenodd" clip-rule="evenodd" d="M-3.2002 8.5332H19.1998V11.7332H-3.2002V8.5332Z" fill="#249F58"/>
<path fill-rule="evenodd" clip-rule="evenodd" d="M-3.2002 0H19.1998V5.33333H-3.2002V0Z" fill="#1A47B8"/>
<path fill-rule="evenodd" clip-rule="evenodd" d="M0 2.13281H1.06667V3.19948H0V2.13281Z" fill="#FFDA2C"/>
<path fill-rule="evenodd" clip-rule="evenodd" d="M2.13379 2.13307H3.20046V3.19974H2.13379V2.13307ZM4.26712 2.13307H5.33379V3.19974H4.26712V2.13307ZM3.20046 3.19974H4.26712V4.26641H3.20046V3.19974ZM3.20046 1.06641H4.26712V2.13307H3.20046V1.06641Z" fill="#D4AF2C"/>
<path fill-rule="evenodd" clip-rule="evenodd" d="M6.40039 0H9.60039V16H6.40039V0Z" fill="#F93939"/>
</g>
<defs>
<clipPath id="clip0_1467_179837">
<rect width="16" height="16" rx="8" fill="white"/>
</clipPath>
</defs>
</svg>
