<svg width="16" height="16" viewBox="0 0 16 16" fill="none" xmlns="http://www.w3.org/2000/svg">
<g clip-path="url(#clip0_1467_179840)">
<path d="M17.0665 0H-1.06686C-2.24507 0 -3.2002 0.955126 -3.2002 2.13333V13.8667C-3.2002 15.0449 -2.24507 16 -1.06686 16H17.0665C18.2447 16 19.1998 15.0449 19.1998 13.8667V2.13333C19.1998 0.955126 18.2447 0 17.0665 0Z" fill="#F93939"/>
<path fill-rule="evenodd" clip-rule="evenodd" d="M8.0004 9.33398L6.4324 10.1585L6.73107 8.41238L5.46387 7.17505L7.2164 6.92225L8.0004 5.33398L8.7844 6.92332L10.5369 7.17612L9.2676 8.41345L9.56627 10.1585" fill="#FFDA2C"/>
<path fill-rule="evenodd" clip-rule="evenodd" d="M-3.2002 0H4.26647V16H-3.2002V0Z" fill="#249F58"/>
<path fill-rule="evenodd" clip-rule="evenodd" d="M11.7334 0H19.2001V16H11.7334V0Z" fill="#FFDA2C"/>
</g>
<defs>
<clipPath id="clip0_1467_179840">
<rect width="16" height="16" rx="8" fill="white"/>
</clipPath>
</defs>
</svg>
