<svg width="16" height="16" viewBox="0 0 16 16" fill="none" xmlns="http://www.w3.org/2000/svg">
<g clip-path="url(#clip0_1467_179834)">
<rect width="16" height="16" rx="8" fill="#F93939"/>
<path d="M20.2667 0H2.13333C0.955126 0 0 0.955126 0 2.13333V13.8667C0 15.0449 0.955126 16 2.13333 16H20.2667C21.4449 16 22.4 15.0449 22.4 13.8667V2.13333C22.4 0.955126 21.4449 0 20.2667 0Z" fill="#F93939"/>
<path fill-rule="evenodd" clip-rule="evenodd" d="M5.86466 7.71122L4.29666 8.53575L4.59533 6.78962L3.32812 5.55229L5.08066 5.29949L5.86466 3.71015L6.64759 5.29949L8.40013 5.55229L7.13079 6.78962L7.43159 8.53469L5.86466 7.71122ZM9.60013 3.19922H10.6668V4.26589H9.60013V3.19922ZM10.6668 5.33255H11.7335V6.39922H10.6668V5.33255ZM10.6668 7.46589H11.7335V8.53255H10.6668V7.46589ZM9.60013 9.59922H10.6668V10.6659H9.60013V9.59922Z" fill="#FFDA2C"/>
</g>
<defs>
<clipPath id="clip0_1467_179834">
<rect width="16" height="16" rx="8" fill="white"/>
</clipPath>
</defs>
</svg>
