<svg width="40" height="40" viewBox="0 0 40 40" fill="none" xmlns="http://www.w3.org/2000/svg">
<g clip-path="url(#clip0_4893_4452)">
<path d="M19.9999 39.9999C31.0456 39.9999 39.9998 31.0456 39.9998 20C39.9998 8.95433 31.0456 6.10352e-05 19.9999 6.10352e-05C8.95427 6.10352e-05 0 8.95433 0 20C0 31.0456 8.95427 39.9999 19.9999 39.9999Z" fill="#F0F0F0"/>
<path d="M19.9999 0.00012207C13.4568 0.00012207 7.64785 3.14254 3.99902 8.00012H36.0007C32.3519 3.14247 26.5429 0.00012207 19.9999 0.00012207Z" fill="#0052B4"/>
<path d="M19.9999 39.9999C26.543 39.9999 32.3519 36.8575 36.0007 31.9999H3.99902C7.64777 36.8576 13.4568 39.9999 19.9999 39.9999Z" fill="#0052B4"/>
<path d="M0 20.0001C0 21.37 0.138125 22.7076 0.400547 24.0001H39.5995C39.862 22.7076 40 21.37 40 20.0001C40 18.6301 39.8619 17.2925 39.5995 16.0001H0.400547C0.138125 17.2925 0 18.6301 0 20.0001Z" fill="#0052B4"/>
<path d="M5.85779 5.85797C-1.9526 13.6684 -1.9526 26.3317 5.85779 34.1423C9.08537 30.9147 12.1894 27.8106 19.9999 20.0002L5.85779 5.85797Z" fill="#D80027"/>
<path d="M8.09475 14.7827L9.38959 18.7683H13.5807L10.1903 21.2317L11.4851 25.2173L8.09475 22.754L4.7042 25.2173L5.99936 21.2317L2.60889 18.7683H6.79967L8.09475 14.7827Z" fill="#F0F0F0"/>
</g>
<defs>
<clipPath id="clip0_4893_4452">
<rect width="40" height="40" fill="white"/>
</clipPath>
</defs>
</svg>
