<svg width="16" height="16" viewBox="0 0 16 16" fill="none" xmlns="http://www.w3.org/2000/svg">
<g clip-path="url(#clip0_1467_179827)">
<rect width="16" height="16" rx="8" fill="#1A47B8"/>
<path fill-rule="evenodd" clip-rule="evenodd" d="M5.33353 5.33255H4.79528C4.497 5.33255 4.26686 5.57133 4.26686 5.86589C4.26686 6.15182 4.50344 6.39922 4.79528 6.39922H5.33353V6.93747C5.33353 7.23575 5.57231 7.46589 5.86686 7.46589C6.1528 7.46589 6.4002 7.22931 6.4002 6.93747V6.39922H6.93845C7.23673 6.39922 7.46686 6.16044 7.46686 5.86589C7.46686 5.57995 7.23028 5.33255 6.93845 5.33255H6.4002V4.7943C6.4002 4.49602 6.16141 4.26589 5.86686 4.26589C5.58092 4.26589 5.33353 4.50246 5.33353 4.7943V5.33255ZM3.2002 3.19922H4.26686V4.26589H3.2002V3.19922Z" fill="white"/>
<path d="M22.4 9.59961H0V11.7329H22.4V9.59961Z" fill="#FFDA2C"/>
</g>
<defs>
<clipPath id="clip0_1467_179827">
<rect width="16" height="16" rx="8" fill="white"/>
</clipPath>
</defs>
</svg>
