<svg width="40" height="40" viewBox="0 0 40 40" fill="none" xmlns="http://www.w3.org/2000/svg">
<g clip-path="url(#clip0_4893_4440)">
<path d="M19.9995 40.0001C31.0452 40.0001 39.9995 31.0458 39.9995 20.0001C39.9995 8.95437 31.0452 6.10352e-05 19.9995 6.10352e-05C8.95382 6.10352e-05 -0.000488281 8.95437 -0.000488281 20.0001C-0.000488281 31.0458 8.95382 40.0001 19.9995 40.0001Z" fill="#F0F0F0"/>
<path d="M18.261 20C18.261 20 5.86963 34.1449 5.85791 34.1421C9.47713 37.7614 14.4772 40 20.0001 40C31.0457 40 40.0001 31.0456 40.0001 20H18.261Z" fill="#D80027"/>
<path d="M5.85785 5.85785C-1.95262 13.6683 -1.95262 26.3317 5.85785 34.1422C9.08543 30.9146 12.1896 27.8105 20 20L5.85785 5.85785Z" fill="#0052B4"/>
</g>
<defs>
<clipPath id="clip0_4893_4440">
<rect width="40" height="40" fill="white"/>
</clipPath>
</defs>
</svg>
