<svg width="40" height="40" viewBox="0 0 40 40" fill="none" xmlns="http://www.w3.org/2000/svg">
<g clip-path="url(#clip0_4893_4423)">
<path d="M18.261 21.7391C18.261 21.7391 5.86963 5.85508 5.85791 5.85789C9.47713 2.23859 14.4772 0 20.0001 0C31.0457 0 40.0001 8.95437 40.0001 20L18.261 21.7391Z" fill="#338AF3"/>
<path d="M18.261 20C18.261 20 5.86963 34.1449 5.85791 34.1421C9.47713 37.7614 14.4772 40 20.0001 40C31.0457 40 40.0001 31.0456 40.0001 20H18.261Z" fill="#6DA544"/>
<path d="M5.85785 5.85791C-1.95262 13.6684 -1.95262 26.3317 5.85785 34.1423C9.08543 30.9147 12.1896 27.8106 20 20.0001L5.85785 5.85791Z" fill="#F0F0F0"/>
<path d="M8.09475 14.7827L9.38967 18.7683H13.5808L10.1903 21.2318L11.4851 25.2176L8.09475 22.7542L4.7042 25.2176L5.99936 21.2318L2.60889 18.7683H6.79967L8.09475 14.7827Z" fill="#D80027"/>
</g>
<defs>
<clipPath id="clip0_4893_4423">
<rect width="40" height="40" fill="white"/>
</clipPath>
</defs>
</svg>
