<svg width="40" height="40" viewBox="0 0 40 40" fill="none" xmlns="http://www.w3.org/2000/svg">
<g clip-path="url(#clip0_4893_4391)">
<path d="M20 40C31.0457 40 40 31.0457 40 20C40 8.9543 31.0457 0 20 0C8.9543 0 0 8.9543 0 20C0 31.0457 8.9543 40 20 40Z" fill="#F0F0F0"/>
<path d="M23.9131 39.6162C31.8196 38.0478 38.0478 31.8195 39.6162 23.9131H23.9131V39.6162Z" fill="#496E2D"/>
<path d="M0.383789 23.9131C1.95215 31.8195 8.18043 38.0478 16.0869 39.6162V23.9131H0.383789Z" fill="#496E2D"/>
<path d="M39.6162 16.0869C38.0478 8.18051 31.8196 1.95223 23.9131 0.383789V16.0869H39.6162Z" fill="#496E2D"/>
<path d="M16.0869 0.383789C8.18043 1.95223 1.95215 8.18051 0.383789 16.0869H16.0869V0.383789Z" fill="#496E2D"/>
<path d="M18.6956 23.9131H16.0869V39.6162C16.9382 39.785 17.8091 39.8994 18.6956 39.9565V23.9131Z" fill="#FFDA44"/>
<path d="M18.6956 16.0869V0.043457C17.8091 0.100488 16.9382 0.214941 16.0869 0.383769V16.0869H18.6956Z" fill="#FFDA44"/>
<path d="M21.3046 0.0435156C20.8731 0.015625 20.4385 0 20.0002 0C19.5618 0 19.1272 0.015625 18.6958 0.0435156V16.087H21.3045V0.0435156H21.3046Z" fill="black"/>
<path d="M18.6958 39.9565C19.1272 39.9844 19.5618 40 20.0002 40C20.4385 40 20.8731 39.9844 21.3046 39.9565V23.9131H18.6959V39.9565H18.6958Z" fill="black"/>
<path d="M16.0869 18.6956V16.0869H0.383769C0.214863 16.9383 0.100488 17.8091 0.043457 18.6956H16.0869Z" fill="#FFDA44"/>
<path d="M23.9131 18.6956H39.9566C39.8996 17.8091 39.7851 16.9383 39.6163 16.0869H23.9132V18.6956H23.9131Z" fill="#FFDA44"/>
<path d="M23.9131 21.3043H39.9566C39.9844 20.873 40 20.4383 40 19.9999C40 19.5616 39.9844 19.1269 39.9565 18.6956H23.9131V21.3043Z" fill="black"/>
<path d="M0.0435156 18.6956C0.0157031 19.1269 0 19.5616 0 19.9999C0 20.4383 0.0157031 20.873 0.0435156 21.3043H16.087V18.6956H0.0435156V18.6956Z" fill="black"/>
<path d="M19.9998 29.5653C25.2825 29.5653 29.565 25.2828 29.565 20.0001C29.565 14.7173 25.2825 10.4348 19.9998 10.4348C14.7171 10.4348 10.4346 14.7173 10.4346 20.0001C10.4346 25.2828 14.7171 29.5653 19.9998 29.5653Z" fill="#D80027"/>
<path d="M22.1794 21.0671C21.4679 19.6442 20.5431 18.202 20.5431 18.202C20.5431 18.202 20.5661 17.5454 20.5661 17.1541C20.5661 16.5647 20.0883 16.0869 19.4989 16.0869C18.9405 16.0869 18.483 16.5159 18.4364 17.0621C17.9973 17.0907 17.6499 17.455 17.6499 17.9012C17.6499 18.2257 17.8337 18.5068 18.1028 18.6474C18.2365 18.3346 18.4984 18.0904 18.8223 17.979C18.8751 18.0222 18.9319 18.0608 18.9924 18.0936L19.1291 18.159C19.1291 18.159 18.6222 19.588 18.6222 20.3557C18.6222 22.5138 20.0451 23.1793 20.0451 23.1793V23.2016L19.3336 23.913H20.7565V22.49L21.468 23.2015C21.4743 23.1882 22.8157 22.3398 22.1794 21.0671Z" fill="#496E2D"/>
<path d="M20.0003 12.1738L20.3241 13.1702H21.3717L20.5241 13.7861L20.848 14.7825L20.0003 14.1667L19.1527 14.7825L19.4765 13.7861L18.6289 13.1702H19.6766L20.0003 12.1738Z" fill="#496E2D"/>
<path d="M15.4004 13.6685L16.2479 14.2844L17.0955 13.6685L16.7718 14.665L17.6194 15.2807L16.5717 15.2808L16.2479 16.2772L15.9241 15.2808L14.8765 15.2807L15.724 14.6649L15.4004 13.6685Z" fill="#496E2D"/>
<path d="M12.5571 17.5816H13.6047L13.9285 16.5852L14.2523 17.5816L15.3 17.5815L14.4524 18.1975L14.7763 19.1939L13.9285 18.578L13.081 19.1938L13.4046 18.1974L12.5571 17.5816Z" fill="#496E2D"/>
<path d="M12.5571 22.4183L13.4046 21.8026L13.0809 20.8062L13.9285 21.422L14.7762 20.8062L14.4524 21.8026L15.3001 22.4184L14.2523 22.4185L13.9285 23.4148L13.6047 22.4183H12.5571Z" fill="#496E2D"/>
<path d="M15.4 26.3312L15.7236 25.335L14.876 24.7191H15.9237L16.2475 23.7227L16.5713 24.7191H17.619L16.7714 25.335L17.0951 26.3313L16.2475 25.7155L15.4 26.3312Z" fill="#496E2D"/>
<path d="M20.0003 27.826L19.6766 26.8297H18.6289L19.4765 26.2138L19.1527 25.2174L20.0003 25.8331L20.8479 25.2173L20.5241 26.2138L21.3717 26.8296L20.3241 26.8297L20.0003 27.826Z" fill="#496E2D"/>
<path d="M24.5999 26.3313L23.7524 25.7155L22.9048 26.3314L23.2285 25.335L22.3809 24.7191L23.4286 24.7191L23.7523 23.7227L24.0762 24.7191H25.1238L24.2762 25.335L24.5999 26.3313Z" fill="#496E2D"/>
<path d="M27.4432 22.4183H26.3956L26.0718 23.4147L25.748 22.4184H24.7002L25.5479 21.8025L25.224 20.8062L26.0718 21.4219L26.9193 20.8062L26.5957 21.8026L27.4432 22.4183Z" fill="#496E2D"/>
<path d="M27.4432 17.5815L26.5957 18.1973L26.9193 19.1937L26.0718 18.5779L25.2241 19.1939L25.5479 18.1974L24.7002 17.5816L25.748 17.5815L26.0717 16.5852L26.3956 17.5815H27.4432Z" fill="#496E2D"/>
<path d="M24.5999 13.6685L24.2762 14.6648L25.1238 15.2806H24.0762L23.7524 16.2771L23.4286 15.2807L22.3809 15.2808L23.2285 14.6648L22.9048 13.6685L23.7524 14.2842L24.5999 13.6685Z" fill="#496E2D"/>
</g>
<defs>
<clipPath id="clip0_4893_4391">
<rect width="40" height="40" fill="white"/>
</clipPath>
</defs>
</svg>
