<svg width="16" height="16" viewBox="0 0 16 16" fill="none" xmlns="http://www.w3.org/2000/svg">
<g clip-path="url(#clip0_1467_179821)">
<rect width="16" height="16" rx="8" fill="#249F58"/>
<path fill-rule="evenodd" clip-rule="evenodd" d="M7.46647 7.46667H-3.2002V8.53333H7.46647V16H8.53314V8.53333H19.1998V7.46667H8.53314V0H7.46647V7.46667Z" fill="#151515"/>
<path fill-rule="evenodd" clip-rule="evenodd" d="M6.39981 6.4V7.46667H7.46647V0H6.39981V6.4H-3.2002V7.46667H7.46647V6.4H6.39981ZM7.46647 7.46667H19.1998V6.4H6.39981V7.46667H7.46647V6.4H6.39981V16H7.46647V7.46667Z" fill="#FFDA2C"/>
<path fill-rule="evenodd" clip-rule="evenodd" d="M9.59981 9.6V8.53333H8.53314V16H9.59981V9.6H19.1998V8.53333H8.53314V9.6H9.59981ZM-3.2002 8.53333H10.6665V9.6H-3.2002V8.53333ZM8.53314 0H9.59981V9.6H8.53314V0Z" fill="white"/>
<path d="M7.99994 11.7342C10.0618 11.7342 11.7333 10.0628 11.7333 8.00091C11.7333 5.93905 10.0618 4.26758 7.99994 4.26758C5.93807 4.26758 4.2666 5.93905 4.2666 8.00091C4.2666 10.0628 5.93807 11.7342 7.99994 11.7342Z" fill="#F93939"/>
<path fill-rule="evenodd" clip-rule="evenodd" d="M6.40039 6.40039H7.46706V7.46706H6.40039V6.40039ZM8.53372 6.40039H9.60039V7.46706H8.53372V6.40039ZM8.53372 8.53372H9.60039V9.60039H8.53372V8.53372ZM6.40039 8.53372H7.46706V9.60039H6.40039V8.53372Z" fill="#0A6A30"/>
<path fill-rule="evenodd" clip-rule="evenodd" d="M7.4668 6.40039H8.53346V8.53372H7.4668V6.40039Z" fill="#955DCC"/>
</g>
<defs>
<clipPath id="clip0_1467_179821">
<rect width="16" height="16" rx="8" fill="white"/>
</clipPath>
</defs>
</svg>
