<svg width="40" height="40" viewBox="0 0 40 40" fill="none" xmlns="http://www.w3.org/2000/svg">
<g clip-path="url(#clip0_4893_4380)">
<path d="M20 40C31.0457 40 40 31.0457 40 20C40 8.9543 31.0457 0 20 0C8.9543 0 0 8.9543 0 20C0 31.0457 8.9543 40 20 40Z" fill="#F0F0F0"/>
<path d="M0.688965 25.2175C2.53568 32.0693 7.93076 37.4645 14.7826 39.3112V25.2175H0.688965Z" fill="#D80027"/>
<path d="M14.7826 0.688965C7.93076 2.53561 2.53561 7.93076 0.688965 14.7826H14.7826V0.688965H14.7826Z" fill="#0052B4"/>
<path d="M39.3109 14.7826C37.4642 7.93076 32.0691 2.53561 25.2173 0.688965V14.7826H39.3109V14.7826Z" fill="#D80027"/>
<path d="M25.2173 39.311C32.0691 37.4642 37.4642 32.0692 39.311 25.2173H25.2173V39.311Z" fill="#0052B4"/>
<path d="M25.2176 20.0001C25.2176 22.8817 22.8817 25.2176 20.0001 25.2176C17.1187 25.2176 14.7827 22.8817 14.7827 20.0001C14.7827 17.1186 20.0001 14.7827 20.0001 14.7827C20.0001 14.7827 25.2176 17.1186 25.2176 20.0001Z" fill="#496E2D"/>
<path d="M14.7827 20.0001C14.7827 17.1186 17.1187 14.7827 20.0001 14.7827C22.8817 14.7827 25.2176 17.1186 25.2176 20.0001" fill="#0052B4"/>
<path d="M17.0649 17.3914V20.6522C17.0649 22.2731 18.3788 23.587 19.9997 23.587C21.6206 23.587 22.9345 22.2731 22.9345 20.6522V17.3914H17.0649Z" fill="#D80027"/>
</g>
<defs>
<clipPath id="clip0_4893_4380">
<rect width="40" height="40" fill="white"/>
</clipPath>
</defs>
</svg>
