<svg width="16" height="16" viewBox="0 0 16 16" fill="none" xmlns="http://www.w3.org/2000/svg">
<g clip-path="url(#clip0_1467_179819)">
<path d="M17.0665 0H-1.06686C-2.24507 0 -3.2002 0.955126 -3.2002 2.13333V13.8667C-3.2002 15.0449 -2.24507 16 -1.06686 16H17.0665C18.2447 16 19.1998 15.0449 19.1998 13.8667V2.13333C19.1998 0.955126 18.2447 0 17.0665 0Z" fill="#1A47B8"/>
<path fill-rule="evenodd" clip-rule="evenodd" d="M-3.2002 11.7324H19.1998V15.9991H-3.2002V11.7324Z" fill="#F93939"/>
<path fill-rule="evenodd" clip-rule="evenodd" d="M-3.2002 0H19.1998V8.53333H-3.2002V0Z" fill="#FFDA2C"/>
<path fill-rule="evenodd" clip-rule="evenodd" d="M3.2002 4.26758H6.4002L8.0002 5.33424L9.6002 4.26758H12.8002L9.6002 5.33424L8.53353 6.40091H7.46686L6.4002 5.33424L3.2002 4.26758Z" fill="#151515"/>
<path d="M8.00039 10.6671C8.88405 10.6671 9.60039 9.71193 9.60039 8.53372C9.60039 7.35552 8.88405 6.40039 8.00039 6.40039C7.11674 6.40039 6.40039 7.35552 6.40039 8.53372C6.40039 9.71193 7.11674 10.6671 8.00039 10.6671Z" fill="#3ECBF8"/>
<path fill-rule="evenodd" clip-rule="evenodd" d="M5.33327 7.4668V9.60013L7.4666 10.6668H8.53327L10.6666 9.60013V7.4668L11.7333 9.60013L10.6666 10.6668L8.53327 11.7335H7.4666L5.33327 10.6668L4.2666 9.60013L5.33327 7.4668Z" fill="#FFDA2C"/>
</g>
<defs>
<clipPath id="clip0_1467_179819">
<rect width="16" height="16" rx="8" fill="white"/>
</clipPath>
</defs>
</svg>
