<svg width="40" height="40" viewBox="0 0 40 40" fill="none" xmlns="http://www.w3.org/2000/svg">
<g clip-path="url(#clip0_4893_4370)">
<path d="M0 19.9998C0 8.95413 8.95437 -0.000244141 20 -0.000244141C31.0456 -0.000244141 40 8.95413 40 19.9998L20 21.7389L0 19.9998Z" fill="#FFDA44"/>
<path d="M2.67627 29.9999C6.13447 35.9777 12.5973 39.9999 20 39.9999C27.4028 39.9999 33.8656 35.9777 37.3238 29.9999L20 28.6956L2.67627 29.9999Z" fill="#D80027"/>
<path d="M37.3237 30C39.0255 27.0583 40 23.643 40 20H0C0 23.643 0.974531 27.0583 2.67625 30H37.3237Z" fill="#0052B4"/>
<path d="M19.9999 26.9564C23.8419 26.9564 26.9564 23.8419 26.9564 19.9999C26.9564 16.158 23.8419 13.0435 19.9999 13.0435C16.158 13.0435 13.0435 16.158 13.0435 19.9999C13.0435 23.8419 16.158 26.9564 19.9999 26.9564Z" fill="#FFDA44"/>
<path d="M20.0002 24.3478C17.6027 24.3478 15.6523 22.3973 15.6523 19.9999V17.3913C15.6523 14.9938 17.6028 13.0435 20.0002 13.0435C22.3975 13.0435 24.348 14.9939 24.348 17.3913V19.9999C24.348 22.3974 22.3976 24.3478 20.0002 24.3478Z" fill="#338AF3"/>
<path d="M26.9566 9.56507H21.7392C21.7392 8.6046 20.9605 7.82593 20 7.82593C19.0395 7.82593 18.2609 8.6046 18.2609 9.56507H13.0435C13.0435 10.5256 13.8801 11.3042 14.8405 11.3042H14.7826C14.7826 12.2648 15.5612 13.0433 16.5217 13.0433C16.5217 14.0039 17.3003 14.7825 18.2609 14.7825H21.7392C22.6997 14.7825 23.4783 14.0039 23.4783 13.0433C24.4388 13.0433 25.2174 12.2648 25.2174 11.3042H25.1595C26.12 11.3042 26.9566 10.5255 26.9566 9.56507Z" fill="black"/>
</g>
<defs>
<clipPath id="clip0_4893_4370">
<rect width="40" height="40" fill="white"/>
</clipPath>
</defs>
</svg>
