<svg width="16" height="16" viewBox="0 0 16 16" fill="none" xmlns="http://www.w3.org/2000/svg">
<g clip-path="url(#clip0_1467_179818)">
<path d="M17.0665 0H-1.06686C-2.24507 0 -3.2002 0.955126 -3.2002 2.13333V13.8667C-3.2002 15.0449 -2.24507 16 -1.06686 16H17.0665C18.2447 16 19.1998 15.0449 19.1998 13.8667V2.13333C19.1998 0.955126 18.2447 0 17.0665 0Z" fill="white"/>
<path fill-rule="evenodd" clip-rule="evenodd" d="M-3.2002 10.666H19.1998V15.9993H-3.2002V10.666Z" fill="#151515"/>
<path fill-rule="evenodd" clip-rule="evenodd" d="M-3.2002 0H19.1998V5.33333H-3.2002V0Z" fill="#F93939"/>
<path fill-rule="evenodd" clip-rule="evenodd" d="M7.99967 7.46706L6.39967 6.40039L5.33301 7.46706L6.39967 9.60039L7.46634 8.53372H8.53301L9.59967 9.60039L10.6663 7.46706L9.59967 6.40039L7.99967 7.46706Z" fill="#D4AF2C"/>
</g>
<defs>
<clipPath id="clip0_1467_179818">
<rect width="16" height="16" rx="8" fill="white"/>
</clipPath>
</defs>
</svg>
