<svg width="40" height="40" viewBox="0 0 40 40" fill="none" xmlns="http://www.w3.org/2000/svg">
<g clip-path="url(#clip0_4893_4336)">
<path d="M18.261 18.2607C18.261 18.2607 5.86963 34.1449 5.85791 34.142C9.47713 37.7613 14.4772 39.9999 20.0001 39.9999C31.0457 39.9999 40.0001 31.0455 40.0001 19.9999L18.261 18.2607Z" fill="#338AF3"/>
<path d="M18.261 20C18.261 20 5.86963 5.85508 5.85791 5.85789C9.47713 2.23859 14.4772 0 20.0001 0C31.0457 0 40.0001 8.95437 40.0001 20H18.261Z" fill="#6DA544"/>
<path d="M5.85785 5.85767C-1.95262 13.6681 -1.95262 26.3315 5.85785 34.142C5.8573 34.1452 40 19.9999 40 19.9999L5.85785 5.85767Z" fill="#D80027"/>
<path d="M10.435 11.7393C6.59914 11.7393 3.47852 14.86 3.47852 18.6957V21.3044C3.47852 25.1403 6.59922 28.2609 10.435 28.2609C14.2708 28.2609 17.3915 25.1402 17.3915 21.3044V18.6957C17.3916 14.86 14.2709 11.7393 10.435 11.7393ZM14.7828 21.3045C14.7828 23.2476 13.5014 24.8968 11.7393 25.4521V22.6089L13.5849 20.7632L11.7403 18.9186L11.7393 18.2621V17.3915H9.1307V20.0001L7.28633 21.8444L9.1307 23.6887V25.4522C7.36859 24.8968 6.08719 23.2477 6.08719 21.3046V18.6959C6.08719 16.2985 8.03766 14.3481 10.435 14.3481C12.8323 14.3481 14.7828 16.2986 14.7828 18.6959V21.3045Z" fill="#FFDA44"/>
</g>
<defs>
<clipPath id="clip0_4893_4336">
<rect width="40" height="40" fill="white"/>
</clipPath>
</defs>
</svg>
