<svg width="16" height="16" viewBox="0 0 16 16" fill="none" xmlns="http://www.w3.org/2000/svg">
<g clip-path="url(#clip0_1467_179815)">
<rect width="16" height="16" rx="8" fill="#3A99FF"/>
<path d="M20.2667 0H2.13333C0.955126 0 0 0.955126 0 2.13333V13.8667C0 15.0449 0.955126 16 2.13333 16H20.2667C21.4449 16 22.4 15.0449 22.4 13.8667V2.13333C22.4 0.955126 21.4449 0 20.2667 0Z" fill="#3A99FF"/>
<path fill-rule="evenodd" clip-rule="evenodd" d="M0 0H22.4V8.53333H0V0Z" fill="#249F58"/>
<path fill-rule="evenodd" clip-rule="evenodd" d="M0 0L22.4 8L0 16V0Z" fill="#F93939"/>
<path fill-rule="evenodd" clip-rule="evenodd" d="M9.6002 7.99945C9.6002 6.52745 8.40553 5.33279 6.93353 4.79945C5.46153 5.33279 4.26686 6.52745 4.26686 7.99945C4.26686 9.29012 5.1842 10.3653 6.4002 10.6128V6.93065C6.4002 6.63732 6.64766 6.39945 6.93353 6.39945C7.22793 6.39945 7.46686 6.62879 7.46686 6.93065V10.6128C8.68286 10.3653 9.6002 9.29012 9.6002 7.99945ZM10.6669 7.99945C10.6669 5.93759 8.9954 4.26612 6.93353 4.79945C4.87166 4.26612 3.2002 5.93759 3.2002 7.99945C3.2002 10.0613 4.87166 11.7328 6.93353 11.7328C8.9954 11.7328 10.6669 10.0613 10.6669 7.99945Z" fill="#FFDA2C"/>
</g>
<defs>
<clipPath id="clip0_1467_179815">
<rect width="16" height="16" rx="8" fill="white"/>
</clipPath>
</defs>
</svg>
