<svg width="16" height="16" viewBox="0 0 16 16" fill="none" xmlns="http://www.w3.org/2000/svg">
<g clip-path="url(#clip0_1467_179812)">
<path d="M17.0665 0H-1.06686C-2.24507 0 -3.2002 0.955126 -3.2002 2.13333V13.8667C-3.2002 15.0449 -2.24507 16 -1.06686 16H17.0665C18.2447 16 19.1998 15.0449 19.1998 13.8667V2.13333C19.1998 0.955126 18.2447 0 17.0665 0Z" fill="#FFDA2C"/>
<path fill-rule="evenodd" clip-rule="evenodd" d="M-3.2002 10.666H19.1998V15.9993H-3.2002V10.666Z" fill="#F93939"/>
<path fill-rule="evenodd" clip-rule="evenodd" d="M-3.2002 0H19.1998V5.33333H-3.2002V0Z" fill="#249F58"/>
<path d="M8.0002 12.7992C10.6512 12.7992 12.8002 10.6502 12.8002 7.99922C12.8002 5.34825 10.6512 3.19922 8.0002 3.19922C5.34923 3.19922 3.2002 5.34825 3.2002 7.99922C3.2002 10.6502 5.34923 12.7992 8.0002 12.7992Z" fill="#1A47B8"/>
<path fill-rule="evenodd" clip-rule="evenodd" d="M7.99845 9.3331L6.43045 10.1576L6.72911 8.4115L5.46191 7.17416L7.21445 6.92136L7.99845 5.33203L8.78138 6.92136L10.5339 7.17416L9.26458 8.4115L9.56538 10.1566" fill="#FFDA2C"/>
</g>
<defs>
<clipPath id="clip0_1467_179812">
<rect width="16" height="16" rx="8" fill="white"/>
</clipPath>
</defs>
</svg>
