<svg width="16" height="16" viewBox="0 0 16 16" fill="none" xmlns="http://www.w3.org/2000/svg">
<g clip-path="url(#clip0_1467_179811)">
<rect width="16" height="16" rx="8" fill="#3ECBF8"/>
<path fill-rule="evenodd" clip-rule="evenodd" d="M16.0003 10.6673V6.93398C16.0003 6.04332 15.2835 5.33398 14.4003 5.33398H12.267C11.3859 5.33398 10.667 6.04865 10.667 6.93398V10.6673C10.667 10.8615 11.7337 12.8007 13.3337 12.8007C14.9337 12.8007 16.0003 10.8561 16.0003 10.6673Z" fill="white"/>
<path fill-rule="evenodd" clip-rule="evenodd" d="M13.867 8.53398V9.72652H16.0003V10.7527H13.867V12.8007H12.8003V10.7527H10.667V9.72652H12.8003V8.53398H10.667V5.33398H16.0003V8.53398H13.867Z" fill="#F93939"/>
<path fill-rule="evenodd" clip-rule="evenodd" d="M11.7334 6.40039H14.9334V7.46706H11.7334V6.40039Z" fill="#FFDA2C"/>
<path d="M6.39954 1.06641H-1.06712C-1.65623 1.06641 -2.13379 1.54397 -2.13379 2.13307V7.46641C-2.13379 8.05551 -1.65623 8.53307 -1.06712 8.53307H6.39954C6.98865 8.53307 7.46621 8.05551 7.46621 7.46641V2.13307C7.46621 1.54397 6.98865 1.06641 6.39954 1.06641Z" fill="white"/>
<path fill-rule="evenodd" clip-rule="evenodd" d="M2.13359 5.33281H-1.06641V4.26615H2.13359V2.13281H3.20026V4.26615H6.40026V5.33281H3.20026V7.46615H2.13359V5.33281ZM4.80026 6.39948V7.46615H6.40026V6.39948H4.80026ZM4.80026 2.13281V3.19948H6.40026V2.13281H4.80026ZM-1.06641 6.39948V7.46615H0.533594V6.39948H-1.06641ZM-1.06641 2.13281V3.19948H0.533594V2.13281H-1.06641Z" fill="#F93939"/>
</g>
<defs>
<clipPath id="clip0_1467_179811">
<rect width="16" height="16" rx="8" fill="white"/>
</clipPath>
</defs>
</svg>
