<svg width="40" height="40" viewBox="0 0 40 40" fill="none" xmlns="http://www.w3.org/2000/svg">
<g clip-path="url(#clip0_4893_4303)">
<path d="M40 20.0002C40 31.0459 31.0456 40.0002 20 40.0002C8.95437 40.0002 0 31.0459 0 20.0002C0 20.005 20 0.00243164 20 0.000244141C31.0456 0.000244141 40 8.95462 40 20.0002Z" fill="#338AF3"/>
<path d="M19.9995 9.56543V16.311L13.043 9.56543H19.9995Z" fill="#0052B4"/>
<path d="M10.4345 20.0002H16.3104L10.4345 12.1741L9.56494 18.261L10.4345 20.0002Z" fill="#0052B4"/>
<path d="M19.9463 20H19.9998C19.9998 19.9821 19.9998 19.9646 19.9998 19.9465C19.982 19.9644 19.9642 19.9822 19.9463 20Z" fill="#F0F0F0"/>
<path d="M20 10.4348C20 6.91563 20 4.60977 20 0H19.9966C8.9525 0.001875 0 8.95539 0 20H10.4348V14.1241L16.3107 20H19.9466C19.9645 19.9822 19.9823 19.9644 20.0002 19.9465C20.0002 18.5991 20.0002 17.3968 20.0002 16.3108L14.1241 10.4348H20Z" fill="#F0F0F0"/>
<path d="M10.1181 2.60864C6.99004 4.38981 4.38957 6.99028 2.6084 10.1183V20H7.82582V7.82622V7.82607H19.9997C19.9997 6.18052 19.9997 4.61286 19.9997 2.60864H10.1181Z" fill="#D80027"/>
<path d="M19.9997 17.5405L12.894 10.4348H10.4346V10.435L19.9996 20H19.9997C19.9997 20 19.9997 18.3041 19.9997 17.5405Z" fill="#D80027"/>
<path d="M22.6084 13.0436V20C22.6084 24.6594 28.6954 26.087 28.6954 26.087C28.6954 26.087 34.7823 24.6594 34.7823 20V13.0436L28.6954 11.3044L22.6084 13.0436Z" fill="#F3F3F3"/>
<path d="M34.7823 13.0435V10.4348H22.6084V13.0435H27.8257V18.261H22.6084V20V20.0001L27.8257 20.0002V25.8203C28.3505 26.0059 28.6954 26.087 28.6954 26.087C28.6954 26.087 29.04 26.0061 29.5648 25.8203V20.0001H34.7823V20V18.2609H29.5648V13.0434H34.7823V13.0435Z" fill="#D80027"/>
</g>
<defs>
<clipPath id="clip0_4893_4303">
<rect width="40" height="40" fill="white"/>
</clipPath>
</defs>
</svg>
