<svg width="16" height="16" viewBox="0 0 16 16" fill="none" xmlns="http://www.w3.org/2000/svg">
<rect width="16" height="16" rx="8" fill="#3A99FF"/>
<path fill-rule="evenodd" clip-rule="evenodd" d="M7.46712 4.26589H6.92846C6.62979 4.26589 6.40046 4.50482 6.40046 4.79922C6.40046 5.08509 6.63726 5.33255 6.92846 5.33255H7.46712V5.87122C7.46712 6.16989 7.70606 6.39922 8.00046 6.39922C8.28632 6.39922 8.53379 6.16242 8.53379 5.87122V5.33255H9.07246C9.37112 5.33255 9.60046 5.09362 9.60046 4.79922C9.60046 4.51335 9.36366 4.26589 9.07246 4.26589H8.53379V3.72722C8.53379 3.42855 8.29486 3.19922 8.00046 3.19922C7.71459 3.19922 7.46712 3.43602 7.46712 3.72722V4.26589ZM11.7338 7.46589H11.1951C10.8965 7.46589 10.6671 7.70482 10.6671 7.99922C10.6671 8.28509 10.9039 8.53255 11.1951 8.53255H11.7338V9.07122C11.7338 9.36989 11.9727 9.59922 12.2671 9.59922C12.553 9.59922 12.8005 9.36242 12.8005 9.07122V8.53255H13.3391C13.6378 8.53255 13.8671 8.29362 13.8671 7.99922C13.8671 7.71335 13.6303 7.46589 13.3391 7.46589H12.8005V6.92722C12.8005 6.62855 12.5615 6.39922 12.2671 6.39922C11.9813 6.39922 11.7338 6.63602 11.7338 6.92722V7.46589ZM7.46712 10.6659H6.92846C6.62979 10.6659 6.40046 10.9048 6.40046 11.1992C6.40046 11.4851 6.63726 11.7326 6.92846 11.7326H7.46712V12.2712C7.46712 12.5699 7.70606 12.7992 8.00046 12.7992C8.28632 12.7992 8.53379 12.5624 8.53379 12.2712V11.7326H9.07246C9.37112 11.7326 9.60046 11.4936 9.60046 11.1992C9.60046 10.9134 9.36366 10.6659 9.07246 10.6659H8.53379V10.1272C8.53379 9.82855 8.29486 9.59922 8.00046 9.59922C7.71459 9.59922 7.46712 9.83602 7.46712 10.1272V10.6659ZM3.20046 7.46589H2.66179C2.36312 7.46589 2.13379 7.70482 2.13379 7.99922C2.13379 8.28509 2.37059 8.53255 2.66179 8.53255H3.20046V9.07122C3.20046 9.36989 3.43939 9.59922 3.73379 9.59922C4.01966 9.59922 4.26712 9.36242 4.26712 9.07122V8.53255H4.80579C5.10446 8.53255 5.33379 8.29362 5.33379 7.99922C5.33379 7.71335 5.09699 7.46589 4.80579 7.46589H4.26712V6.92722C4.26712 6.62855 4.02819 6.39922 3.73379 6.39922C3.44792 6.39922 3.20046 6.63602 3.20046 6.92722V7.46589Z" fill="white"/>
</svg>
