<svg width="40" height="40" viewBox="0 0 40 40" fill="none" xmlns="http://www.w3.org/2000/svg">
<g clip-path="url(#clip0_4893_3841)">
<path d="M20 40.0001C31.0457 40.0001 40 31.0458 40 20.0001C40 8.95443 31.0457 0.00012207 20 0.00012207C8.9543 0.00012207 0 8.95443 0 20.0001C0 31.0458 8.9543 40.0001 20 40.0001Z" fill="#338AF3"/>
<path d="M20.001 8.69568L20.8643 11.3529H23.6584L21.398 12.9951L22.2613 15.6522L20.001 14.0101L17.7406 15.6522L18.6041 12.9951L16.3438 11.3529H19.1377L20.001 8.69568Z" fill="#F0F0F0"/>
<path d="M8.69629 20.0003L11.3535 19.1368V16.3428L12.9957 18.6032L15.6528 17.7399L14.0107 20.0003L15.6528 22.2604L12.9957 21.397L11.3535 23.6574V20.8635L8.69629 20.0003Z" fill="#F0F0F0"/>
<path d="M20.0012 31.3045L19.1378 28.6473H16.3438L18.6042 27.005L17.7409 24.3479L20.0012 25.9901L22.2614 24.3479L21.398 27.005L23.6584 28.6473H20.8644L20.0012 31.3045Z" fill="#F0F0F0"/>
<path d="M31.3052 20L28.648 20.8634V23.6574L27.0057 21.397L24.3486 22.2604L25.9908 20L24.3486 17.7398L27.0057 18.6032L28.648 16.3428V19.1368L31.3052 20Z" fill="#F0F0F0"/>
</g>
<defs>
<clipPath id="clip0_4893_3841">
<rect width="40" height="40" fill="white"/>
</clipPath>
</defs>
</svg>
