<svg width="40" height="40" viewBox="0 0 40 40" fill="none" xmlns="http://www.w3.org/2000/svg">
<g clip-path="url(#clip0_4893_3143)">
<path d="M20 40C31.0457 40 40 31.0457 40 20C40 8.9543 31.0457 0 20 0C8.95431 0 0 8.9543 0 20C0 31.0457 8.95431 40 20 40Z" fill="#F0F0F0"/>
<path d="M4.13484 7.82373C2.56383 9.86771 1.37922 12.2236 0.689453 14.7829H11.094L4.13484 7.82373Z" fill="#0052B4"/>
<path d="M39.3116 14.783C38.6218 12.2238 37.4372 9.86796 35.8662 7.82397L28.9072 14.783H39.3116Z" fill="#0052B4"/>
<path d="M0.689453 25.2178C1.3793 27.777 2.56391 30.1329 4.13484 32.1768L11.0938 25.2178H0.689453Z" fill="#0052B4"/>
<path d="M32.1768 4.13468C30.1329 2.56366 27.7771 1.37905 25.2178 0.689209V11.0937L32.1768 4.13468Z" fill="#0052B4"/>
<path d="M7.82422 35.8659C9.8682 37.4369 12.2241 38.6215 14.7833 39.3114V28.907L7.82422 35.8659Z" fill="#0052B4"/>
<path d="M14.7832 0.689209C12.224 1.37905 9.86813 2.56366 7.82422 4.1346L14.7832 11.0936V0.689209Z" fill="#0052B4"/>
<path d="M25.2178 39.3114C27.777 38.6215 30.1329 37.4369 32.1768 35.866L25.2178 28.907V39.3114Z" fill="#0052B4"/>
<path d="M28.9072 25.2178L35.8662 32.1768C37.4372 30.1329 38.6218 27.777 39.3116 25.2178H28.9072Z" fill="#0052B4"/>
<path d="M39.8307 17.3913H22.6088H22.6088V0.169297C21.7548 0.058125 20.8841 0 20 0C19.1157 0 18.2452 0.058125 17.3913 0.169297V17.3912V17.3913H0.169297C0.058125 18.2452 0 19.1159 0 20C0 20.8843 0.058125 21.7548 0.169297 22.6087H17.3912H17.3913V39.8307C18.2452 39.9419 19.1157 40 20 40C20.8841 40 21.7548 39.942 22.6087 39.8307V22.6088V22.6087H39.8307C39.9419 21.7548 40 20.8843 40 20C40 19.1159 39.9419 18.2452 39.8307 17.3913Z" fill="#D80027"/>
<path d="M25.2168 25.2176L34.1415 34.1423C34.552 33.732 34.9435 33.303 35.3171 32.8583L27.6763 25.2175H25.2168V25.2176Z" fill="#D80027"/>
<path d="M14.7822 25.2175H14.782L5.85742 34.1421C6.26773 34.5526 6.69672 34.9442 7.14141 35.3178L14.7822 27.6768V25.2175Z" fill="#D80027"/>
<path d="M14.7819 14.7828V14.7827L5.85727 5.85791C5.4468 6.26822 5.05523 6.69721 4.68164 7.14189L12.3225 14.7828H14.7819V14.7828Z" fill="#D80027"/>
<path d="M25.2168 14.7828L34.1416 5.85792C33.7312 5.44745 33.3023 5.05589 32.8576 4.68237L25.2168 12.3232V14.7828Z" fill="#D80027"/>
</g>
<defs>
<clipPath id="clip0_4893_3143">
<rect width="40" height="40" fill="white"/>
</clipPath>
</defs>
</svg>
