<svg width="36" height="16" viewBox="0 0 36 16" xmlns="http://www.w3.org/2000/svg">
<g clip-path="url(#clip0_1467_179683)">
<rect width="16" height="16" rx="8" fill="#1A47B8"/>
<path fill-rule="evenodd" clip-rule="evenodd" d="M-0.817291 0H-3.2002V2.66667L16.804 16L19.1998 16V13.3333L-0.817291 0Z" fill="white"/>
<path d="M-2.40542 0L19.1998 14.4378V16H18.4237L-3.2002 1.54726V0H-2.40542Z" fill="#F93939"/>
<path fill-rule="evenodd" clip-rule="evenodd" d="M17.0665 0H19.1998V2.66667C19.1998 2.66667 5.3436 11.5499 -1.06686 16H-3.2002V13.3333L17.0665 0Z" fill="white"/>
<path d="M19.1998 0H18.4764L-3.2002 14.4502V16H-2.40542L19.1998 1.55895V0Z" fill="#F93939"/>
<path fill-rule="evenodd" clip-rule="evenodd" d="M4.94602 0H11.0722V4.93527H19.1998V11.0615H11.0722V16H4.94602V11.0615H-3.2002V4.93527H4.94602V0Z" fill="white"/>
<path fill-rule="evenodd" clip-rule="evenodd" d="M6.23138 0H9.76823V6.15385H19.1998V9.84615H9.76823V16H6.23138V9.84615H-3.2002V6.15385H6.23138V0Z" fill="#F93939"/>
</g>
<defs>
<clipPath id="clip0_1467_179683">
<rect width="16" height="16" rx="8" fill="white"/>
</clipPath>
</defs>
<text x='20' y='12' font-size='12px'>EN</text>
</svg>
