<svg width="40" height="40" viewBox="0 0 40 40" fill="none" xmlns="http://www.w3.org/2000/svg">
<g clip-path="url(#clip0_4893_4220)">
<path d="M20.0005 40C31.0462 40 40.0005 31.0457 40.0005 20C40.0005 8.9543 31.0462 0 20.0005 0C8.95479 0 0.000488281 8.9543 0.000488281 20C0.000488281 31.0457 8.95479 40 20.0005 40Z" fill="#FFDA44"/>
<path d="M8.72754 3.47828C11.9373 1.28406 15.8184 0 20 0C24.1815 0 28.0626 1.28406 31.2724 3.47828L20 4.34781L8.72754 3.47828Z" fill="#A2001D"/>
<path d="M20.0001 19.9999L18.7237 18.7235L18.3848 19.3306L20.0001 19.9999Z" fill="#0052B4"/>
<path d="M5.85785 5.85791C-1.95262 13.6684 -1.95262 26.3317 5.85785 34.1423C9.08543 30.9147 12.1896 27.8106 20 20.0001L5.85785 5.85791Z" fill="#496E2D"/>
<path d="M34.1422 5.85791C41.9527 13.6684 41.9527 26.3317 34.1422 34.1423C30.9146 30.9147 27.8105 27.8106 20 20.0001L34.1422 5.85791Z" fill="#496E2D"/>
<path d="M19.9999 26.9564C23.8419 26.9564 26.9564 23.8419 26.9564 19.9999C26.9564 16.158 23.8419 13.0435 19.9999 13.0435C16.158 13.0435 13.0435 16.158 13.0435 19.9999C13.0435 23.8419 16.158 26.9564 19.9999 26.9564Z" fill="#A2001D"/>
<path d="M19.9999 13.0435L21.5592 17.8426H26.6059L22.5233 20.8092L24.0826 25.6086L19.9999 22.6425L15.9171 25.6086L17.4767 20.8092L13.394 17.8426H18.4405L19.9999 13.0435Z" fill="#FFDA44"/>
<path d="M19.9999 0C19.9976 0 19.9954 0.00015625 19.9932 0.00015625H20.0065C20.0043 0.00015625 20.0021 0 19.9999 0Z" fill="#FFDA44"/>
<path d="M20.0067 0H19.9933C14.4736 0.00179688 9.47662 2.23953 5.85889 5.85688H34.1412C30.5233 2.23953 25.5264 0.00179688 20.0067 0Z" fill="#A2001D"/>
<path d="M5.85889 34.1432C9.4781 37.7619 14.4776 40 19.9999 40C25.5222 40 30.5217 37.7619 34.1409 34.1432H5.85889Z" fill="#A2001D"/>
<path d="M19.9999 2.17407L20.3237 3.17048H21.3714L20.5238 3.78634L20.8476 4.78274L19.9999 4.16696L19.1523 4.78274L19.4762 3.78634L18.6284 3.17048H19.6761L19.9999 2.17407Z" fill="#FFDA44"/>
<path d="M15.1498 2.17407L15.4736 3.17048H16.5213L15.6737 3.78634L15.9975 4.78274L15.1498 4.16696L14.3023 4.78274L14.6261 3.78634L13.7783 3.17048H14.826L15.1498 2.17407Z" fill="#FFDA44"/>
<path d="M24.8495 2.17407L25.1733 3.17048H26.221L25.3734 3.78634L25.6972 4.78274L24.8495 4.16696L24.0019 4.78274L24.3258 3.78634L23.478 3.17048H24.5257L24.8495 2.17407Z" fill="#FFDA44"/>
<path d="M19.9999 35.2175L20.3237 36.2139H21.3714L20.5238 36.8298L20.8476 37.8262L19.9999 37.2103L19.1523 37.8262L19.4762 36.8298L18.6284 36.2139H19.6761L19.9999 35.2175Z" fill="#FFDA44"/>
<path d="M15.1498 35.2175L15.4736 36.2139H16.5213L15.6737 36.8298L15.9975 37.8262L15.1498 37.2103L14.3023 37.8262L14.6261 36.8298L13.7783 36.2139H14.826L15.1498 35.2175Z" fill="#FFDA44"/>
<path d="M24.8495 35.2175L25.1733 36.2139H26.221L25.3734 36.8298L25.6972 37.8262L24.8495 37.2103L24.0019 37.8262L24.3258 36.8298L23.478 36.2139H24.5257L24.8495 35.2175Z" fill="#FFDA44"/>
<path d="M6.09374 19.6698C6.60741 20.4814 6.36601 21.5557 5.55436 22.0694C4.7428 22.5832 3.66843 22.3418 3.15468 21.5301C2.2246 20.0608 2.7639 17.661 2.7639 17.661C2.7639 17.661 5.16358 18.2003 6.09374 19.6698Z" fill="#FFDA44"/>
<path d="M5.08975 22.2043C5.56997 22.2043 5.95928 21.815 5.95928 21.3347C5.95928 20.8545 5.56997 20.4652 5.08975 20.4652C4.60952 20.4652 4.22021 20.8545 4.22021 21.3347C4.22021 21.815 4.60952 22.2043 5.08975 22.2043Z" fill="#A2001D"/>
</g>
<defs>
<clipPath id="clip0_4893_4220">
<rect width="40" height="40" fill="white"/>
</clipPath>
</defs>
</svg>
