<svg width="16" height="16" viewBox="0 0 16 16" fill="none" xmlns="http://www.w3.org/2000/svg">
<rect width="16" height="16" rx="8" fill="#F93939"/>
<path fill-rule="evenodd" clip-rule="evenodd" d="M0 3.19922H16V12.7992H0V3.19922Z" fill="#FFDA2C"/>
<path fill-rule="evenodd" clip-rule="evenodd" d="M0 3.19922L8 7.99922L0 12.7992V3.19922Z" fill="#249F58"/>
<path fill-rule="evenodd" clip-rule="evenodd" d="M1.06641 7.4668H2.13307V8.53346H1.06641V7.4668Z" fill="#FFDA2C"/>
<path fill-rule="evenodd" clip-rule="evenodd" d="M16 3.19922L8 7.99922L16 12.7992V3.19922Z" fill="#249F58"/>
<path fill-rule="evenodd" clip-rule="evenodd" d="M4.2666 1.06641H5.33327V2.13307H4.2666V1.06641ZM7.4666 1.06641H8.53327V2.13307H7.4666V1.06641ZM10.6666 1.06641H11.7333V2.13307H10.6666V1.06641ZM4.2666 13.8664H5.33327V14.9331H4.2666V13.8664ZM7.4666 13.8664H8.53327V14.9331H7.4666V13.8664ZM10.6666 13.8664H11.7333V14.9331H10.6666V13.8664Z" fill="#FFDA2C"/>
<path d="M7.99967 10.6673C9.47243 10.6673 10.6663 9.47341 10.6663 8.00065C10.6663 6.52789 9.47243 5.33398 7.99967 5.33398C6.52692 5.33398 5.33301 6.52789 5.33301 8.00065C5.33301 9.47341 6.52692 10.6673 7.99967 10.6673Z" fill="#F93939"/>
<path fill-rule="evenodd" clip-rule="evenodd" d="M8.0004 9.33398L6.4324 10.1585L6.73107 8.41238L5.46387 7.17505L7.2164 6.92225L8.0004 5.33398L8.7844 6.92332L10.5369 7.17612L9.2676 8.41345L9.56627 10.1585" fill="#FFDA2C"/>
</svg>
