<svg width="40" height="40" viewBox="0 0 40 40" fill="none" xmlns="http://www.w3.org/2000/svg">
<g clip-path="url(#clip0_4893_4268)">
<path d="M20 40.0002C31.0457 40.0002 40 31.0459 40 20.0002C40 8.95455 31.0457 0.000244141 20 0.000244141C8.9543 0.000244141 0 8.95455 0 20.0002C0 31.0459 8.9543 40.0002 20 40.0002Z" fill="#F0F0F0"/>
<path d="M39.8307 17.3913H22.6088H22.6087V0.169297C21.7548 0.058125 20.8841 0 20 0C19.1159 0 18.2452 0.058125 17.3913 0.169297V17.3912V17.3912H0.169297C0.058125 18.2452 0 19.1159 0 20C0 20.8843 0.058125 21.7548 0.169297 22.6087H17.3912H17.3913V39.8307C18.2452 39.9419 19.1159 40 20 40C20.8841 40 21.7548 39.942 22.6087 39.8307V22.6088V22.6087H39.8307C39.9419 21.7548 40 20.8843 40 20C40 19.1159 39.9419 18.2452 39.8307 17.3913Z" fill="#D80027"/>
<path d="M12.174 9.56529V6.95654H9.56529V9.56529H6.95654V12.174H9.56529V14.7826H12.174V12.174H14.7826V9.56529H12.174Z" fill="#D80027"/>
<path d="M30.4346 9.56529V6.95654H27.826V9.56529H25.2173V12.174H27.826V14.7826H30.4346V12.174H33.0434V9.56529H30.4346Z" fill="#D80027"/>
<path d="M12.174 27.8262V25.2175H9.56529V27.8262H6.95654V30.4349H9.56529V33.0436H12.174V30.4349H14.7826V27.8262H12.174Z" fill="#D80027"/>
<path d="M30.4346 27.8262V25.2175H27.826V27.8262H25.2173V30.4349H27.826V33.0436H30.4346V30.4349H33.0434V27.8262H30.4346Z" fill="#D80027"/>
</g>
<defs>
<clipPath id="clip0_4893_4268">
<rect width="40" height="40" fill="white"/>
</clipPath>
</defs>
</svg>
