<svg width="16" height="16" viewBox="0 0 16 16" fill="none" xmlns="http://www.w3.org/2000/svg">
<g clip-path="url(#clip0_1467_179806)">
<rect width="16" height="16" rx="8" fill="white"/>
<path fill-rule="evenodd" clip-rule="evenodd" d="M6.39981 9.6H-3.2002V6.4H6.39981V0H9.59981V6.4H19.1998V9.6H9.59981V16H6.39981V9.6Z" fill="#F93939"/>
<path fill-rule="evenodd" clip-rule="evenodd" d="M12.7997 11.7328H11.7331V12.7995H12.7997V13.8661H13.8664V12.7995H14.9331V11.7328H13.8664V10.6661H12.7997V11.7328ZM12.7997 3.19948H11.7331V4.26615H12.7997V5.33281H13.8664V4.26615H14.9331V3.19948H13.8664V2.13281H12.7997V3.19948ZM2.13307 3.19948H1.06641V4.26615H2.13307V5.33281H3.19974V4.26615H4.26641V3.19948H3.19974V2.13281H2.13307V3.19948ZM2.13307 11.7328H1.06641V12.7995H2.13307V13.8661H3.19974V12.7995H4.26641V11.7328H3.19974V10.6661H2.13307V11.7328Z" fill="#F93939"/>
</g>
<defs>
<clipPath id="clip0_1467_179806">
<rect width="16" height="16" rx="8" fill="white"/>
</clipPath>
</defs>
</svg>
