<svg width="40" height="40" viewBox="0 0 40 40" fill="none" xmlns="http://www.w3.org/2000/svg">
<g clip-path="url(#clip0_4893_4343)">
<path d="M20.0005 39.9998C31.0462 39.9998 40.0005 31.0454 40.0005 19.9998C40.0005 8.95406 31.0462 -0.000244141 20.0005 -0.000244141C8.95479 -0.000244141 0.000488281 8.95406 0.000488281 19.9998C0.000488281 31.0454 8.95479 39.9998 20.0005 39.9998Z" fill="#F0F0F0"/>
<path d="M12.1738 13.0435H38.7558C35.93 5.4275 28.5991 0 19.9999 0C14.4769 0 9.47746 2.23898 5.8584 5.85851L12.1738 13.0435Z" fill="#6DA544"/>
<path d="M12.1738 26.9563H38.7558C35.93 34.5723 28.5991 39.9998 19.9999 39.9998C14.4769 39.9998 9.47746 37.7608 5.8584 34.1413L12.1738 26.9563Z" fill="#D80027"/>
<path d="M5.85785 5.85767C-1.95262 13.6681 -1.95262 26.3315 5.85785 34.142C9.08543 30.9145 12.1896 27.8103 20 19.9999L5.85785 5.85767Z" fill="#0052B4"/>
<path d="M23.4785 16.5217V20.8695C23.4785 23.532 26.9568 24.3479 26.9568 24.3479C26.9568 24.3479 30.4351 23.532 30.4351 20.8695V16.5217H23.4785Z" fill="#DEDDE0"/>
<path d="M26.0869 20.0869H27.8261V22.6086H26.0869V20.0869Z" fill="#786145"/>
<path d="M28.696 19.1305C28.696 18.17 27.9174 17.3914 26.9568 17.3914C25.9963 17.3914 25.2177 18.17 25.2177 19.1305C24.7374 19.1305 24.3481 19.5198 24.3481 20C24.3481 20.4803 24.7374 20.8696 25.2177 20.8696H28.696C29.1762 20.8696 29.5655 20.4803 29.5655 20C29.5655 19.5198 29.1763 19.1305 28.696 19.1305Z" fill="#6DA544"/>
</g>
<defs>
<clipPath id="clip0_4893_4343">
<rect width="40" height="40" fill="white"/>
</clipPath>
</defs>
</svg>
