<svg width="16" height="16" viewBox="0 0 16 16" fill="none" xmlns="http://www.w3.org/2000/svg">
<g clip-path="url(#clip0_1467_179816)">
<rect width="16" height="16" rx="8" fill="white"/>
<path fill-rule="evenodd" clip-rule="evenodd" d="M-3.2002 10.666H19.1998V15.9993H-3.2002V10.666Z" fill="#F93939"/>
<path fill-rule="evenodd" clip-rule="evenodd" d="M-3.2002 0H19.1998V5.33333H-3.2002V0Z" fill="#00B731"/>
<path fill-rule="evenodd" clip-rule="evenodd" d="M8.00013 7.46706C8.29453 7.46706 8.53346 7.22812 8.53346 6.93372C8.53346 6.63932 8.29453 6.40039 8.00013 6.40039C7.70573 6.40039 7.4668 6.63932 7.4668 6.93372C7.4668 7.22812 7.70573 7.46706 8.00013 7.46706ZM10.1335 7.46706C10.4279 7.46706 10.6668 7.22812 10.6668 6.93372C10.6668 6.63932 10.4279 6.40039 10.1335 6.40039C9.83906 6.40039 9.60013 6.63932 9.60013 6.93372C9.60013 7.22812 9.83906 7.46706 10.1335 7.46706ZM12.2668 7.46706C12.5612 7.46706 12.8001 7.22812 12.8001 6.93372C12.8001 6.63932 12.5612 6.40039 12.2668 6.40039C11.9724 6.40039 11.7335 6.63932 11.7335 6.93372C11.7335 7.22812 11.9724 7.46706 12.2668 7.46706Z" fill="#FFDA2C"/>
<path fill-rule="evenodd" clip-rule="evenodd" d="M9.06654 8.53346C9.36094 8.53346 9.59987 8.29453 9.59987 8.00013C9.59987 7.70573 9.36094 7.4668 9.06654 7.4668C8.77214 7.4668 8.5332 7.70573 8.5332 8.00013C8.5332 8.29453 8.77214 8.53346 9.06654 8.53346ZM11.1999 8.53346C11.4943 8.53346 11.7332 8.29453 11.7332 8.00013C11.7332 7.70573 11.4943 7.4668 11.1999 7.4668C10.9055 7.4668 10.6665 7.70573 10.6665 8.00013C10.6665 8.29453 10.9055 8.53346 11.1999 8.53346Z" fill="#00B731"/>
<path fill-rule="evenodd" clip-rule="evenodd" d="M9.59961 7.4668H10.6663V9.60013H9.59961V7.4668Z" fill="#AE6A3E"/>
<path fill-rule="evenodd" clip-rule="evenodd" d="M-1.06641 0V16.0352L6.40026 8L-1.06641 0Z" fill="#3A99FF"/>
</g>
<defs>
<clipPath id="clip0_1467_179816">
<rect width="16" height="16" rx="8" fill="white"/>
</clipPath>
</defs>
</svg>
