<svg width="40" height="40" viewBox="0 0 40 40" fill="none" xmlns="http://www.w3.org/2000/svg">
<g clip-path="url(#clip0_4893_4245)">
<path d="M20 40C31.0457 40 40 31.0457 40 20C40 8.9543 31.0457 0 20 0C8.9543 0 0 8.9543 0 20C0 31.0457 8.9543 40 20 40Z" fill="#F0F0F0"/>
<path d="M20 14.7824H39.311C38.8095 12.9219 38.0473 11.1687 37.0645 9.56494H20V14.7824Z" fill="#338AF3"/>
<path d="M7.55031 35.652H32.4498C34.275 34.1982 35.8403 32.4325 37.0645 30.4346H2.93555C4.15984 32.4324 5.72516 34.1982 7.55031 35.652Z" fill="#338AF3"/>
<path d="M6.95656 4.83887C5.38422 6.19285 4.02492 7.7873 2.93555 9.56512H6.95656V4.83887Z" fill="#338AF3"/>
<path d="M20 19.9999C20 17.9627 20 16.2578 20 14.7825H12.1739V19.9999H6.95648V14.7825H0.688984C0.240625 16.4461 0 18.1947 0 19.9999C0 21.8051 0.240625 23.5537 0.688984 25.2173H39.3111C39.7594 23.5537 40 21.8051 40 19.9999H20Z" fill="#338AF3"/>
<path d="M19.9999 -0.000244141C17.2227 -0.000244141 14.5777 0.566396 12.1738 1.58944V9.56499H19.9999C19.9999 7.74374 19.9999 6.19476 19.9999 4.34757H32.4497C29.0332 1.62663 24.7069 -0.000244141 19.9999 -0.000244141Z" fill="#338AF3"/>
</g>
<defs>
<clipPath id="clip0_4893_4245">
<rect width="40" height="40" fill="white"/>
</clipPath>
</defs>
</svg>
