<svg width="16" height="16" viewBox="0 0 16 16" fill="none" xmlns="http://www.w3.org/2000/svg">
<g clip-path="url(#clip0_1467_179801)">
<rect width="16" height="16" rx="8" fill="white"/>
<rect x="12" width="6" height="15" fill="#3ECBF8"/>
<rect x="-3" width="6" height="15" fill="#3ECBF8"/>
<path d="M8.00013 8.53372C8.29468 8.53372 8.53346 8.05616 8.53346 7.46706C8.53346 6.87795 8.29468 6.40039 8.00013 6.40039C7.70558 6.40039 7.4668 6.87795 7.4668 7.46706C7.4668 8.05616 7.70558 8.53372 8.00013 8.53372Z" fill="#FFDA2C"/>
<path fill-rule="evenodd" clip-rule="evenodd" d="M10.6663 8.00065C10.6663 6.52865 9.47167 5.33398 7.99967 5.33398C6.52767 5.33398 5.33301 6.52865 5.33301 8.00065C5.33301 9.47265 6.52767 10.6673 7.99967 10.6673C9.47167 10.6673 10.6663 9.47265 10.6663 8.00065ZM7.99967 9.60065C8.88287 9.60065 9.59967 8.64598 9.59967 7.46732C9.59967 6.28865 8.88287 5.33398 7.99967 5.33398C7.11647 5.33398 6.39967 6.28865 6.39967 7.46732C6.39967 8.64598 7.11647 9.60065 7.99967 9.60065Z" fill="#249F58"/>
</g>
<defs>
<clipPath id="clip0_1467_179801">
<rect width="16" height="16" rx="8" fill="white"/>
</clipPath>
</defs>
</svg>
