<svg width="16" height="16" viewBox="0 0 16 16" fill="none" xmlns="http://www.w3.org/2000/svg">
<rect width="16" height="16" rx="8" fill="#F93939"/>
<path fill-rule="evenodd" clip-rule="evenodd" d="M7.63196 8.01452C4.73916 6.78998 6.02129 3.01825 8.78929 3.20598C8.22822 3.49398 8.14716 4.03158 8.46716 4.52865C8.82556 5.08758 8.43516 5.98465 7.95089 6.20332C7.15516 6.56065 6.99623 7.51532 7.63089 8.01452H7.63196ZM7.87409 7.88438C8.14396 4.75585 12.1301 4.80918 12.8021 7.49825C12.3562 7.05558 11.8208 7.14412 11.4453 7.60278C11.0261 8.11478 10.0522 8.01878 9.69596 7.62732C9.10929 6.98305 8.14929 7.12598 7.87409 7.88545V7.88438ZM7.97223 8.19692C11.0442 7.54092 12.1578 11.3671 9.78236 12.7985C10.0768 12.2407 9.83569 11.7532 9.28743 11.5292C8.67516 11.2775 8.48103 10.3185 8.75196 9.86305C9.19783 9.11318 8.77969 8.23852 7.97329 8.19585L7.97223 8.19692ZM3.99996 11.7116C4.61862 11.8183 5.00796 11.4375 5.05169 10.8476C5.10182 10.1863 5.95302 9.70625 6.47036 9.82358C7.32156 10.0156 8.02449 9.34785 7.81436 8.56705C9.38876 11.2871 6.09383 13.5271 3.99889 11.7105L3.99996 11.7116ZM3.36316 5.86625C3.48582 6.48278 3.97969 6.70892 4.54716 6.53825C5.18182 6.34838 5.93596 6.97132 6.01169 7.49825C6.13756 8.36012 7.01223 8.77612 7.66503 8.30252C5.69169 10.7452 2.41702 8.47318 3.36316 5.86518V5.86625Z" fill="white"/>
</svg>
