<svg width="40" height="40" viewBox="0 0 40 40" fill="none" xmlns="http://www.w3.org/2000/svg">
<g clip-path="url(#clip0_4893_4163)">
<path d="M20 39.9999C31.0457 39.9999 40 31.0456 40 19.9999C40 8.95418 31.0457 -0.00012207 20 -0.00012207C8.95431 -0.00012207 0 8.95418 0 19.9999C0 31.0456 8.95431 39.9999 20 39.9999Z" fill="#F0F0F0"/>
<path d="M19.9998 39.9999C27.929 39.9999 34.7803 35.3855 38.0153 28.6956H1.98438C5.21937 35.3855 12.0706 39.9999 19.9998 39.9999Z" fill="#338AF3"/>
<path d="M19.9998 -0.00012207C12.0706 -0.00012207 5.21937 4.61433 1.98438 11.3043H38.0152C34.7803 4.61433 27.929 -0.00012207 19.9998 -0.00012207Z" fill="#338AF3"/>
<path d="M12.3079 13.0433L12.9554 15.0362H15.0508L13.3556 16.2678L14.0032 18.2607L12.3079 17.029L10.6126 18.2607L11.2602 16.2678L9.56494 15.0362H11.6603L12.3079 13.0433Z" fill="#338AF3"/>
<path d="M12.3079 21.739L12.9554 23.732H15.0508L13.3556 24.9635L14.0032 26.9564L12.3079 25.7247L10.6126 26.9564L11.2602 24.9635L9.56494 23.732H11.6603L12.3079 21.739Z" fill="#338AF3"/>
<path d="M27.6917 13.0433L28.3393 15.0362H30.4347L28.7394 16.2678L29.387 18.2607L27.6917 17.029L25.9964 18.2607L26.644 16.2678L24.9487 15.0362H27.0442L27.6917 13.0433Z" fill="#338AF3"/>
<path d="M27.6917 21.739L28.3393 23.732H30.4347L28.7394 24.9635L29.387 26.9564L27.6917 25.7247L25.9964 26.9564L26.644 24.9635L24.9487 23.732H27.0442L27.6917 21.739Z" fill="#338AF3"/>
<path d="M19.9998 17.3912L20.6474 19.3842H22.7428L21.0475 20.6158L21.6951 22.6086L19.9998 21.3769L18.3045 22.6086L18.9521 20.6158L17.2568 19.3842H19.3522L19.9998 17.3912Z" fill="#338AF3"/>
</g>
<defs>
<clipPath id="clip0_4893_4163">
<rect width="40" height="40" fill="white"/>
</clipPath>
</defs>
</svg>
