<svg width="16" height="16" viewBox="0 0 16 16" fill="none" xmlns="http://www.w3.org/2000/svg">
<g clip-path="url(#clip0_1467_179829)">
<rect width="16" height="16" rx="8" fill="white"/>
<path fill-rule="evenodd" clip-rule="evenodd" d="M-3.2002 10.666H19.1998V15.9993H-3.2002V10.666Z" fill="#1A47B8"/>
<path fill-rule="evenodd" clip-rule="evenodd" d="M-3.2002 0H19.1998V5.33333H-3.2002V0Z" fill="#F93939"/>
<path fill-rule="evenodd" clip-rule="evenodd" d="M5.33301 4.26589H6.39967V5.33255H5.33301V4.26589ZM7.46634 3.19922H8.53301V5.33255H7.46634V3.19922ZM9.59967 4.26589H10.6663V5.33255H9.59967V4.26589Z" fill="#3A99FF"/>
<path fill-rule="evenodd" clip-rule="evenodd" d="M8.53372 3.19922H9.60039V5.33255H8.53372V3.19922ZM6.40039 3.19922H7.46706V5.33255H6.40039V3.19922Z" fill="#1A47B8"/>
<mask id="mask0_1467_179829" style="mask-type:alpha" maskUnits="userSpaceOnUse" x="5" y="5" width="6" height="7">
<path d="M10.6663 9.06732C10.6663 10.5393 9.47167 11.734 7.99967 11.734C6.52767 11.734 5.33301 10.5393 5.33301 9.06732V5.33398H10.6663V9.06732Z" fill="white"/>
</mask>
<g mask="url(#mask0_1467_179829)">
<path d="M10.6663 9.06732C10.6663 10.5393 9.47167 11.734 7.99967 11.734C6.52767 11.734 5.33301 10.5393 5.33301 9.06732V5.33398H10.6663V9.06732Z" fill="#F93939"/>
<path fill-rule="evenodd" clip-rule="evenodd" d="M6.39967 10.6673H7.46634V11.734H6.39967V10.6673ZM8.53301 10.6673H9.59967V11.734H8.53301V10.6673ZM7.46634 9.60065H8.53301V10.6673H7.46634V9.60065ZM6.39967 8.53398H7.46634V9.60065H6.39967V8.53398ZM8.53301 8.53398H9.59967V9.60065H8.53301V8.53398ZM7.46634 7.46732H8.53301V8.53398H7.46634V7.46732ZM6.39967 6.40065H7.46634V7.46732H6.39967V6.40065ZM8.53301 6.40065H9.59967V7.46732H8.53301V6.40065ZM7.46634 5.33398H8.53301V6.40065H7.46634V5.33398ZM9.59967 5.33398H10.6663V6.40065H9.59967V5.33398ZM9.59967 7.46732H10.6663V8.53398H9.59967V7.46732ZM9.59967 9.60065H10.6663V10.6673H9.59967V9.60065ZM5.33301 9.60065H6.39967V10.6673H5.33301V9.60065ZM5.33301 7.46732H6.39967V8.53398H5.33301V7.46732ZM5.33301 5.33398H6.39967V6.40065H5.33301V5.33398Z" fill="white"/>
</g>
</g>
<defs>
<clipPath id="clip0_1467_179829">
<rect width="16" height="16" rx="8" fill="white"/>
</clipPath>
</defs>
</svg>
