<svg width="40" height="40" viewBox="0 0 40 40" fill="none" xmlns="http://www.w3.org/2000/svg">
<g clip-path="url(#clip0_4893_4175)">
<path d="M40 19.9999C40 31.0455 31.0456 39.9999 20 39.9999C8.95437 39.9999 0 31.0455 0 19.9999C0 8.95425 20 -0.00012207 20 -0.00012207C20 -0.00012207 40 8.95425 40 19.9999Z" fill="#A2001D"/>
<path d="M0 19.9999C0 8.95425 8.95437 -0.00012207 20 -0.00012207C31.0456 -0.00012207 40 8.95425 40 19.9999" fill="#0052B4"/>
<path d="M26.9564 25.2173L19.9999 24.3477L13.0435 25.2173V14.7825H26.9564V25.2173Z" fill="#F0F0F0"/>
<path d="M19.9998 24.3477C21.9208 24.3477 23.478 22.7904 23.478 20.8694C23.478 18.9484 21.9208 17.3911 19.9998 17.3911C18.0788 17.3911 16.5215 18.9484 16.5215 20.8694C16.5215 22.7904 18.0788 24.3477 19.9998 24.3477Z" fill="#0052B4"/>
<path d="M19.9999 22.6086C20.9604 22.6086 21.739 21.83 21.739 20.8695C21.739 19.909 20.9604 19.1304 19.9999 19.1304C19.0394 19.1304 18.2607 19.909 18.2607 20.8695C18.2607 21.83 19.0394 22.6086 19.9999 22.6086Z" fill="#A2001D"/>
<path d="M17.3911 16.5216H22.6085L19.9998 19.1304L17.3911 16.5216Z" fill="#6DA544"/>
<path d="M19.1304 18.2607H20.8695V23.4782H19.1304V18.2607Z" fill="#FFDA44"/>
<path d="M22.7825 22.9563H17.2172L13.0435 25.2172H26.9564L22.7825 22.9563Z" fill="#6DA544"/>
</g>
<defs>
<clipPath id="clip0_4893_4175">
<rect width="40" height="40" fill="white"/>
</clipPath>
</defs>
</svg>
