<svg width="40" height="40" viewBox="0 0 40 40" fill="none" xmlns="http://www.w3.org/2000/svg">
<g clip-path="url(#clip0_4893_4101)">
<path d="M19.9995 40C31.0452 40 39.9995 31.0457 39.9995 20C39.9995 8.9543 31.0452 0 19.9995 0C8.95382 0 -0.000488281 8.9543 -0.000488281 20C-0.000488281 31.0457 8.95382 40 19.9995 40Z" fill="#F0F0F0"/>
<path d="M27.5306 15.6523H22.5101L19.9999 11.3044L17.4899 15.6523H12.4692L14.9797 20.0001L12.4692 24.3479H17.4899L19.9999 28.6957L22.5101 24.3479H27.5306L25.0202 20.0001L27.5306 15.6523ZM23.0839 20.0001L21.5421 22.671H18.4581L16.916 20.0001L18.458 17.3291H21.542L23.0839 20.0001ZM19.9999 14.6581L20.5738 15.6522H19.4262L19.9999 14.6581ZM15.3738 17.3291H16.5217L15.9478 18.3232L15.3738 17.3291ZM15.3738 22.671L15.9478 21.6769L16.5217 22.671H15.3738ZM19.9999 25.3419L19.4261 24.3479H20.5738L19.9999 25.3419ZM24.626 22.671H23.4782L24.0522 21.6769L24.626 22.671ZM23.4782 17.3291H24.626L24.0521 18.3232L23.4782 17.3291Z" fill="#0052B4"/>
<path d="M32.4498 4.3479H7.55031C5.72508 5.80165 4.15977 7.56743 2.93555 9.56532H37.0646C35.8403 7.56751 34.275 5.80165 32.4498 4.3479Z" fill="#0052B4"/>
<path d="M7.55031 35.6523H32.4498C34.275 34.1986 35.8403 32.4328 37.0645 30.4349H2.93555C4.15984 32.4327 5.72516 34.1986 7.55031 35.6523Z" fill="#0052B4"/>
</g>
<defs>
<clipPath id="clip0_4893_4101">
<rect width="40" height="40" fill="white"/>
</clipPath>
</defs>
</svg>
