<svg width="40" height="40" viewBox="0 0 40 40" fill="none" xmlns="http://www.w3.org/2000/svg">
<g clip-path="url(#clip0_4893_4137)">
<path d="M20 40C31.0457 40 40 31.0457 40 20C40 8.9543 31.0457 0 20 0C8.9543 0 0 8.9543 0 20C0 31.0457 8.9543 40 20 40Z" fill="#F0F0F0"/>
<path d="M19.9998 0C12.0706 0 5.21938 4.61445 1.98438 11.3044H38.0152C34.7803 4.61445 27.929 0 19.9998 0Z" fill="#FF9811"/>
<path d="M19.9998 40.0001C27.929 40.0001 34.7803 35.3856 38.0153 28.6957H1.98438C5.21938 35.3856 12.0706 40.0001 19.9998 40.0001Z" fill="#6DA544"/>
<path d="M19.9999 26.9564C23.8419 26.9564 26.9564 23.8419 26.9564 19.9999C26.9564 16.158 23.8419 13.0435 19.9999 13.0435C16.158 13.0435 13.0435 16.158 13.0435 19.9999C13.0435 23.8419 16.158 26.9564 19.9999 26.9564Z" fill="#0052B4"/>
<path d="M20.0002 24.3478C22.4014 24.3478 24.348 22.4013 24.348 20C24.348 17.5988 22.4014 15.6522 20.0002 15.6522C17.5989 15.6522 15.6523 17.5988 15.6523 20C15.6523 22.4013 17.5989 24.3478 20.0002 24.3478Z" fill="#F0F0F0"/>
<path d="M19.9998 14.6349L21.3412 17.6769L24.6462 17.3175L22.6824 20L24.6462 22.6826L21.3412 22.3232L19.9998 25.3652L18.6585 22.3232L15.3535 22.6825L17.3173 20L15.3535 17.3175L18.6585 17.6769L19.9998 14.6349Z" fill="#0052B4"/>
</g>
<defs>
<clipPath id="clip0_4893_4137">
<rect width="40" height="40" fill="white"/>
</clipPath>
</defs>
</svg>
