<svg width="16" height="16" viewBox="0 0 16 16" fill="none" xmlns="http://www.w3.org/2000/svg">
<g clip-path="url(#clip0_1467_179791)">
<rect width="16" height="16" rx="8" fill="white"/>
<path fill-rule="evenodd" clip-rule="evenodd" d="M7.99967 10.6673C9.47167 10.6673 10.6663 9.47265 10.6663 8.00065C10.6663 6.52865 9.47167 5.33398 7.99967 5.33398C6.52767 5.33398 5.33301 6.52865 5.33301 8.00065C5.33301 9.47265 6.52767 10.6673 7.99967 10.6673ZM7.99967 9.60065C8.88287 9.60065 9.59967 8.88385 9.59967 8.00065C9.59967 7.11745 8.88287 6.40065 7.99967 6.40065C7.11647 6.40065 6.39967 7.11745 6.39967 8.00065C6.39967 8.88385 7.11647 9.60065 7.99967 9.60065Z" fill="#1A47B8"/>
<path d="M8.00013 8.53346C8.29468 8.53346 8.53346 8.29468 8.53346 8.00013C8.53346 7.70558 8.29468 7.4668 8.00013 7.4668C7.70558 7.4668 7.4668 7.70558 7.4668 8.00013C7.4668 8.29468 7.70558 8.53346 8.00013 8.53346Z" fill="#1A47B8"/>
<path fill-rule="evenodd" clip-rule="evenodd" d="M-3.2002 10.666H19.1998V15.9993H-3.2002V10.666Z" fill="#249F58"/>
<path fill-rule="evenodd" clip-rule="evenodd" d="M-3.2002 0H19.1998V5.33333H-3.2002V0Z" fill="#FF6C2D"/>
</g>
<defs>
<clipPath id="clip0_1467_179791">
<rect width="16" height="16" rx="8" fill="white"/>
</clipPath>
</defs>
</svg>
