<svg width="16" height="16" viewBox="0 0 16 16" fill="none" xmlns="http://www.w3.org/2000/svg">
<g clip-path="url(#clip0_1467_179788)">
<rect width="16" height="16" rx="8" fill="white"/>
<path fill-rule="evenodd" clip-rule="evenodd" d="M-3.2002 10.666H19.1998V15.9993H-3.2002V10.666Z" fill="#151515"/>
<path fill-rule="evenodd" clip-rule="evenodd" d="M7.46686 8.53372H8.53353V9.06172C8.53353 9.37106 8.77246 9.60039 9.06686 9.60039C9.35273 9.60039 9.6002 9.35932 9.6002 9.06172V6.92839C9.6002 6.63719 9.84766 6.40039 10.1335 6.40039C10.4279 6.40039 10.6669 6.63079 10.6669 6.92839V8.53372H12.2562C12.557 8.53372 12.8002 8.78119 12.8002 9.06706C12.8002 9.36146 12.5634 9.60039 12.2562 9.60039H3.7442C3.4434 9.60039 3.2002 9.35292 3.2002 9.06706C3.2002 8.84092 3.33886 8.64786 3.54153 8.56999C3.5682 8.50172 3.60873 8.43666 3.66526 8.38119L5.17993 6.86652C5.38686 6.65959 5.72926 6.66706 5.93193 6.86866C6.141 7.07666 6.1474 7.40732 5.93619 7.61852L5.021 8.53372H6.4002V8.00572C6.4002 7.70706 6.64766 7.46706 6.93353 7.46706C7.22793 7.46706 7.46686 7.69532 7.46686 8.00572V8.53372Z" fill="#249F58"/>
<path fill-rule="evenodd" clip-rule="evenodd" d="M-3.2002 0H19.1998V5.33333H-3.2002V0Z" fill="#F93939"/>
</g>
<defs>
<clipPath id="clip0_1467_179788">
<rect width="16" height="16" rx="8" fill="white"/>
</clipPath>
</defs>
</svg>
