<svg width="40" height="40" viewBox="0 0 40 40" fill="none" xmlns="http://www.w3.org/2000/svg">
<g clip-path="url(#clip0_4893_4115)">
<path d="M20 40C31.0457 40 40 31.0457 40 20C40 8.9543 31.0457 0 20 0C8.9543 0 0 8.9543 0 20C0 31.0457 8.9543 40 20 40Z" fill="#F0F0F0"/>
<path d="M20.0002 0C11.4009 0 4.07 5.4275 1.24414 13.0435H38.7562C35.9303 5.4275 28.5994 0 20.0002 0Z" fill="#A2001D"/>
<path d="M20.0002 40C28.5995 40 35.9303 34.5725 38.7562 26.9565H1.24414C4.07 34.5725 11.4009 40 20.0002 40Z" fill="black"/>
<path d="M15.2175 18.6956C15.2065 18.6956 15.1958 18.6963 15.1849 18.6965V18.6956H11.3617C11.5555 17.9467 12.2351 17.3913 13.0436 17.3913V14.7826C10.6462 14.7826 8.69576 16.7331 8.69576 19.1304V21.2609V21.3044H15.1849H15.2175C15.4572 21.3044 15.6522 21.4995 15.6522 21.7392V22.6087H6.95654V25.2174H18.2609V21.7391C18.2609 20.061 16.8956 18.6956 15.2175 18.6956Z" fill="#496E2D"/>
<path d="M21.739 22.6087V14.7827H19.1304V25.2175H23.4782V22.6087H21.739Z" fill="#496E2D"/>
<path d="M30.4346 22.6088V14.7827H27.8259V22.6088H26.9563V20.0002H24.3477V25.2176H32.1737V22.6088H30.4346Z" fill="#496E2D"/>
</g>
<defs>
<clipPath id="clip0_4893_4115">
<rect width="40" height="40" fill="white"/>
</clipPath>
</defs>
</svg>
