<svg width="40" height="40" viewBox="0 0 40 40" fill="none" xmlns="http://www.w3.org/2000/svg">
<g clip-path="url(#clip0_4893_4125)">
<path d="M20 40.0001C31.0457 40.0001 40 31.0458 40 20.0001C40 8.95443 31.0457 0.00012207 20 0.00012207C8.9543 0.00012207 0 8.95443 0 20.0001C0 31.0458 8.9543 40.0001 20 40.0001Z" fill="#F0F0F0"/>
<path d="M26.4958 14.7825H23.879C23.9007 15.0701 23.9129 15.3603 23.9129 15.6521C23.9129 17.5868 23.4293 19.462 22.5863 20.7968C22.3262 21.2086 21.8892 21.79 21.3042 22.1822V14.7825H18.6955V22.1822C18.1106 21.79 17.6735 21.2086 17.4134 20.7968C16.5703 19.462 16.0868 17.5868 16.0868 15.6521C16.0868 15.3603 16.0991 15.07 16.1207 14.7825H13.504C13.4872 15.0687 13.478 15.3586 13.478 15.6521C13.478 21.0158 16.3427 25.2173 19.9997 25.2173C23.6568 25.2173 26.5215 21.0158 26.5215 15.6521C26.5216 15.3586 26.5125 15.0687 26.4958 14.7825Z" fill="#D80027"/>
<path d="M8.26119 9.56523H10.8699V11.3044H13.4785V9.56523H16.0872V11.3044H18.6959V9.56523H21.3046V11.3044H23.9132V9.56523H26.5219V11.3044H29.1306V9.56523H31.7392V11.3044H38.0156C34.7808 4.61445 27.9295 0 20.0003 0C12.0712 0 5.21986 4.61445 1.98486 11.3044H8.26119V9.56523Z" fill="#6DA544"/>
<path d="M31.7395 28.6957V30.4348H29.1308V28.6957H26.5221V30.4348H23.9135V28.6957H21.3048V30.4348H18.6961V28.6957H16.0874V30.4348H13.4788V28.6957H10.8699V30.4348H8.26119V28.6957H1.98486C5.21986 35.3856 12.0711 40.0001 20.0003 40.0001C27.9296 40.0001 34.7808 35.3856 38.0158 28.6957H31.7395Z" fill="#D80027"/>
</g>
<defs>
<clipPath id="clip0_4893_4125">
<rect width="40" height="40" fill="white"/>
</clipPath>
</defs>
</svg>
