<svg width="16" height="16" viewBox="0 0 16 16" fill="none" xmlns="http://www.w3.org/2000/svg">
<g clip-path="url(#clip0_1467_179789)">
<rect width="16" height="16" rx="8" fill="white"/>
<path fill-rule="evenodd" clip-rule="evenodd" d="M7.99967 9.60039C9.47167 9.60039 10.6663 8.88359 10.6663 8.00039C10.6663 7.11719 9.47167 6.40039 7.99967 6.40039C6.52767 6.40039 5.33301 7.11719 5.33301 8.00039C5.33301 8.88359 6.52767 9.60039 7.99967 9.60039ZM7.99967 8.80039C8.88287 8.80039 9.59967 8.26279 9.59967 7.60039C9.59967 6.93906 8.88287 6.40039 7.99967 6.40039C7.11647 6.40039 6.39967 6.93799 6.39967 7.60039C6.39967 8.26172 7.11647 8.80039 7.99967 8.80039Z" fill="#F93939"/>
<path d="M8.00013 8.53372C8.29468 8.53372 8.53346 8.05616 8.53346 7.46706C8.53346 6.87795 8.29468 6.40039 8.00013 6.40039C7.70558 6.40039 7.4668 6.87795 7.4668 7.46706C7.4668 8.05616 7.70558 8.53372 8.00013 8.53372Z" fill="#AF010D"/>
<path fill-rule="evenodd" clip-rule="evenodd" d="M-3.2002 10.666H19.1998V15.9993H-3.2002V10.666Z" fill="#F93939"/>
<path fill-rule="evenodd" clip-rule="evenodd" d="M-3.2002 0H19.1998V5.33333H-3.2002V0Z" fill="#00B731"/>
</g>
<defs>
<clipPath id="clip0_1467_179789">
<rect width="16" height="16" rx="8" fill="white"/>
</clipPath>
</defs>
</svg>
