<svg width="40" height="40" viewBox="0 0 40 40" fill="none" xmlns="http://www.w3.org/2000/svg">
<g clip-path="url(#clip0_4893_4146)">
<path d="M20 39.9999C31.0457 39.9999 40 31.0456 40 19.9999C40 8.95418 31.0457 -0.00012207 20 -0.00012207C8.95431 -0.00012207 0 8.95418 0 19.9999C0 31.0456 8.95431 39.9999 20 39.9999Z" fill="#F0F0F0"/>
<path d="M0.688965 25.2174C1.84615 29.5111 4.39654 33.2325 7.82607 35.8676V25.2174H0.688965Z" fill="#0052B4"/>
<path d="M18.2607 39.9239C18.834 39.9733 19.4138 40 19.9999 40C29.2404 40 37.0159 33.7327 39.3109 25.2174H18.2607V39.9239Z" fill="#0052B4"/>
<path d="M39.3109 14.7825C37.0159 6.26714 29.2404 -0.00012207 19.9999 -0.00012207C19.4138 -0.00012207 18.834 0.0265967 18.2607 0.0759717V14.7825H39.3109Z" fill="#0052B4"/>
<path d="M7.82607 4.13232C4.39654 6.76748 1.84615 10.4888 0.688965 14.7825H7.82607V4.13232Z" fill="#0052B4"/>
<path d="M39.8307 17.3913H15.6523H15.6522V0.475342C13.8039 0.885186 12.0516 1.54948 10.4348 2.43175V17.3912H0.169297C0.0579688 18.2452 0 19.1158 0 20C0 20.8841 0.0579688 21.7547 0.169297 22.6086H10.4347H10.4348V37.5681C12.0516 38.4503 13.8039 39.1147 15.6522 39.5245V22.6089V22.6087H39.8307C39.9419 21.7547 40 20.8841 40 20C40 19.1158 39.9419 18.2452 39.8307 17.3913Z" fill="#D80027"/>
</g>
<defs>
<clipPath id="clip0_4893_4146">
<rect width="40" height="40" fill="white"/>
</clipPath>
</defs>
</svg>
