<svg width="40" height="40" viewBox="0 0 40 40" fill="none" xmlns="http://www.w3.org/2000/svg">
<g clip-path="url(#clip0_4893_4095)">
<path d="M20.0005 40C31.0462 40 40.0005 31.0457 40.0005 20C40.0005 8.9543 31.0462 0 20.0005 0C8.95479 0 0.000488281 8.9543 0.000488281 20C0.000488281 31.0457 8.95479 40 20.0005 40Z" fill="#F0F0F0"/>
<path d="M40.0001 20C40.0001 11.4007 34.5726 4.06982 26.9565 1.24396V38.7561C34.5726 35.9301 40.0001 28.5993 40.0001 20Z" fill="#D80027"/>
<path d="M0 20C0 28.5993 5.4275 35.9301 13.0435 38.756V1.24396C5.4275 4.06982 0 11.4007 0 20Z" fill="#6DA544"/>
</g>
<defs>
<clipPath id="clip0_4893_4095">
<rect width="40" height="40" fill="white"/>
</clipPath>
</defs>
</svg>
