<svg width="40" height="40" viewBox="0 0 40 40" fill="none" xmlns="http://www.w3.org/2000/svg">
<g clip-path="url(#clip0_4893_4080)">
<path d="M20 40C31.0457 40 40 31.0457 40 20C40 8.9543 31.0457 0 20 0C8.9543 0 0 8.9543 0 20C0 31.0457 8.9543 40 20 40Z" fill="#FFDA44"/>
<path d="M32.1758 4.13437C28.8034 1.54211 24.5819 0 19.9996 0C15.4172 0 11.1957 1.54219 7.82324 4.13437L19.9996 16.3106L32.1758 4.13437Z" fill="#6DA544"/>
<path d="M4.1343 7.82373C1.54219 11.1962 0 15.4176 0 20C0 24.5823 1.54219 28.8039 4.13438 32.1764L16.3107 20L4.1343 7.82373Z" fill="black"/>
<path d="M7.82324 35.8657C11.1957 38.458 15.4172 40.0001 19.9996 40.0001C24.5819 40.0001 28.8034 38.4579 32.1759 35.8657L19.9996 23.6895L7.82324 35.8657Z" fill="#6DA544"/>
<path d="M35.8657 32.1762C38.458 28.8038 40.0001 24.5823 40.0001 20C40.0001 15.4176 38.458 11.1962 35.8657 7.82373L23.6895 20L35.8657 32.1762Z" fill="black"/>
</g>
<defs>
<clipPath id="clip0_4893_4080">
<rect width="40" height="40" fill="white"/>
</clipPath>
</defs>
</svg>
