<svg width="40" height="40" viewBox="0 0 40 40" fill="none" xmlns="http://www.w3.org/2000/svg">
<g clip-path="url(#clip0_4893_4044)">
<path d="M20 40C31.0457 40 40 31.0457 40 20C40 8.9543 31.0457 0 20 0C8.9543 0 0 8.9543 0 20C0 31.0457 8.9543 40 20 40Z" fill="#F0F0F0"/>
<path d="M19.9998 0C12.0706 0 5.21937 4.61445 1.98438 11.3044H38.0152C34.7803 4.61445 27.929 0 19.9998 0Z" fill="black"/>
<path d="M19.9998 39.9999C12.0706 39.9999 5.21937 35.3855 1.98438 28.6956H38.0152C34.7803 35.3855 27.929 39.9999 19.9998 39.9999Z" fill="#496E2D"/>
<path d="M39.0555 13.9128H0.944453C0.331797 15.8323 0 17.8772 0 19.9998C0 22.1224 0.331797 24.1673 0.944453 26.0867H39.0555C39.6682 24.1673 40 22.1224 40 19.9998C40 17.8772 39.6682 15.8323 39.0555 13.9128Z" fill="#A2001D"/>
<path d="M26.2279 9.24213L23.8594 8.14893L20.0002 16.8873L16.141 8.14893L13.7725 9.24213L18.5637 19.9999L13.7725 30.7576L16.141 31.8508L20.0002 23.1124L23.8594 31.8508L26.2279 30.7576L21.4367 19.9999L26.2279 9.24213Z" fill="#F0F0F0"/>
<path d="M21.6089 10.2725C20.6921 9.27118 20.0003 8.69556 20.0003 8.69556C20.0003 8.69556 19.3085 9.2711 18.3916 10.2725V29.7272C19.3085 30.7287 20.0003 31.3043 20.0003 31.3043C20.0003 31.3043 20.6921 30.7288 21.6089 29.7273V10.2725Z" fill="#F0F0F0"/>
<path d="M15.6523 14.0032V25.9963C16.6213 27.7131 17.8071 29.1203 18.6959 30.0532V9.94629C17.8071 10.8792 16.6212 12.2864 15.6523 14.0032Z" fill="#A2001D"/>
<path d="M24.3482 14.0032C23.3792 12.2864 22.1934 10.8792 21.3047 9.94629V30.0532C22.1934 29.1203 23.3792 27.7131 24.3482 25.9963V14.0032Z" fill="#A2001D"/>
<path d="M24.3477 14.0034V25.9965C25.3285 24.2583 26.0868 22.2029 26.0868 20.0001C26.0868 17.7972 25.3285 15.7417 24.3477 14.0034Z" fill="black"/>
<path d="M15.6522 14.0034V25.9965C14.6714 24.2583 13.9131 22.2029 13.9131 20.0001C13.9131 17.7972 14.6714 15.7417 15.6522 14.0034Z" fill="black"/>
</g>
<defs>
<clipPath id="clip0_4893_4044">
<rect width="40" height="40" fill="white"/>
</clipPath>
</defs>
</svg>
