<svg width="16" height="16" viewBox="0 0 16 16" fill="none" xmlns="http://www.w3.org/2000/svg">
<g clip-path="url(#clip0_1467_179779)">
<rect width="16" height="16" rx="8" fill="#151515"/>
<path fill-rule="evenodd" clip-rule="evenodd" d="M-3.2002 10.666H19.1998V11.7327H-3.2002V10.666Z" fill="white"/>
<path fill-rule="evenodd" clip-rule="evenodd" d="M-3.2002 11.7324H19.1998V15.9991H-3.2002V11.7324Z" fill="#0A6A30"/>
<path fill-rule="evenodd" clip-rule="evenodd" d="M-3.2002 5.33398H19.1998V10.6673H-3.2002V5.33398Z" fill="#F93939"/>
<path fill-rule="evenodd" clip-rule="evenodd" d="M-3.2002 4.26758H19.1998V5.33424H-3.2002V4.26758Z" fill="white"/>
<path fill-rule="evenodd" clip-rule="evenodd" d="M10.0411 6.30742C10.1179 6.30742 10.5744 5.59276 10.5744 4.70742C10.5744 3.82422 10.1179 3.10742 10.0411 3.10742C9.96639 3.10742 9.50772 3.82422 9.50772 4.70742C9.50772 5.59276 9.96639 6.30742 10.0411 6.30742ZM6.90612 5.83916C6.85279 5.89249 6.02079 5.71116 5.39786 5.08502C4.77386 4.45996 4.59039 3.63009 4.64479 3.57676C4.69812 3.52342 5.52799 3.70476 6.15306 4.33089C6.77812 4.95596 6.96052 5.78582 6.90719 5.84022L6.90612 5.83916ZM8.91039 10.6744C8.96372 10.6242 9.79572 10.7949 10.4197 11.3784C11.0437 11.965 11.2272 12.7405 11.1739 12.7906C11.1205 12.8408 10.2885 12.6701 9.66346 12.0866C9.03946 11.5 8.85599 10.7245 8.91039 10.6744ZM6.90612 10.6744C6.85279 10.6242 6.02079 10.7949 5.39786 11.3784C4.77386 11.965 4.59039 12.7405 4.64479 12.7906C4.69812 12.8408 5.52799 12.6701 6.15306 12.0866C6.77812 11.5 6.96052 10.7245 6.90719 10.6744H6.90612Z" fill="white"/>
<path fill-rule="evenodd" clip-rule="evenodd" d="M7.99967 12.7992C8.38047 12.7992 10.6663 10.6499 10.6663 7.99922C10.6663 5.34855 8.38047 3.19922 7.99967 3.19922C7.61887 3.19922 5.33301 5.34855 5.33301 7.99922C5.33301 10.6499 7.61887 12.7992 7.99967 12.7992Z" fill="#F93939"/>
<path fill-rule="evenodd" clip-rule="evenodd" d="M5.86634 9.60039C5.94101 9.60039 6.39967 8.88359 6.39967 8.00039C6.39967 7.11719 5.94101 6.40039 5.86634 6.40039C5.79167 6.40039 5.33301 7.11719 5.33301 8.00039C5.33301 8.88359 5.79167 9.60039 5.86634 9.60039ZM10.133 9.60039C10.2077 9.60039 10.6663 8.88359 10.6663 8.00039C10.6663 7.11719 10.2077 6.40039 10.133 6.40039C10.0583 6.40039 9.59967 7.11719 9.59967 8.00039C9.59967 8.88359 10.0583 9.60039 10.133 9.60039Z" fill="#151515"/>
<path d="M8.53346 8.00039C8.53346 7.11674 8.29468 6.40039 8.00013 6.40039C7.70558 6.40039 7.4668 7.11674 7.4668 8.00039C7.4668 8.88405 7.70558 9.60039 8.00013 9.60039C8.29468 9.60039 8.53346 8.88405 8.53346 8.00039Z" fill="white"/>
</g>
<defs>
<clipPath id="clip0_1467_179779">
<rect width="16" height="16" rx="8" fill="white"/>
</clipPath>
</defs>
</svg>
