<svg width="16" height="16" viewBox="0 0 16 16" fill="none" xmlns="http://www.w3.org/2000/svg">
<rect width="16" height="16" rx="8" fill="#F93939"/>
<path fill-rule="evenodd" clip-rule="evenodd" d="M7.68607 10.118C7.78954 10.1287 7.89407 10.134 7.99967 10.134C8.10634 10.134 8.20981 10.1287 8.31327 10.118L7.99967 9.33398L7.68607 10.118ZM6.23967 9.53665C5.68181 9.09505 5.33301 8.45078 5.33301 7.73398C5.33301 6.88812 5.81941 6.14465 6.55327 5.71798L7.46634 8.00065L6.23967 9.53665ZM9.44607 5.71798C10.1799 6.14465 10.6663 6.88812 10.6663 7.73398C10.6663 8.45185 10.3165 9.09612 9.75967 9.53665L8.53301 8.00065L9.44607 5.71798ZM9.33941 5.65825C8.94474 5.45132 8.48821 5.33398 7.99967 5.33398C7.51114 5.33398 7.05354 5.45132 6.65994 5.65825L7.99967 7.33292L9.33941 5.65825Z" fill="#FFDA2C"/>
<path fill-rule="evenodd" clip-rule="evenodd" d="M8.0002 12.7992C10.6509 12.7992 12.8002 10.6499 12.8002 7.99922C12.8002 5.34855 10.6509 3.19922 8.0002 3.19922C5.34953 3.19922 3.2002 5.34855 3.2002 7.99922C3.2002 10.6499 5.34953 12.7992 8.0002 12.7992ZM8.0002 11.7326C10.0621 11.7326 11.7335 10.0611 11.7335 7.99922C11.7335 5.93735 10.0621 4.26589 8.0002 4.26589C5.93833 4.26589 4.26686 5.93735 4.26686 7.99922C4.26686 10.0611 5.93833 11.7326 8.0002 11.7326Z" fill="#FFDA2C"/>
</svg>
