<svg width="40" height="40" viewBox="0 0 40 40" fill="none" xmlns="http://www.w3.org/2000/svg">
<g clip-path="url(#clip0_4893_4013)">
<path d="M20 40C31.0457 40 40 31.0457 40 20C40 8.9543 31.0457 0 20 0C8.95431 0 0 8.9543 0 20C0 31.0457 8.95431 40 20 40Z" fill="#D80027"/>
<path d="M29.7808 19.9999L25.7843 21.8798L27.9125 25.7506L23.5724 24.9202L23.0227 29.3043L19.9997 26.0801L16.9769 29.3043L16.427 24.9202L12.0873 25.7505L14.2154 21.8796L10.2188 19.9999L14.2154 18.1202L12.0873 14.2492L16.4268 15.0797L16.977 10.6956L19.9997 13.9199L23.0229 10.6956L23.5724 15.0797L27.9127 14.2492L25.7844 18.1204L29.7808 19.9999Z" fill="#FFDA44"/>
<path d="M20 26.0867C23.3618 26.0867 26.087 23.3615 26.087 19.9998C26.087 16.6381 23.3618 13.9128 20 13.9128C16.6383 13.9128 13.9131 16.6381 13.9131 19.9998C13.9131 23.3615 16.6383 26.0867 20 26.0867Z" fill="#D80027"/>
<path d="M16.9568 19.9998C16.8101 19.9998 16.6654 20.0073 16.5225 20.0215C16.5277 20.8645 16.8327 21.6362 17.3364 22.2356C17.6052 21.5124 18.0064 20.853 18.5125 20.2886C18.0292 20.1027 17.5049 19.9998 16.9568 19.9998Z" fill="#FFDA44"/>
<path d="M18.8301 23.2758C19.1957 23.4064 19.5894 23.4781 20 23.4781C20.4106 23.4781 20.8043 23.4064 21.1699 23.2758C20.9706 22.4936 20.5591 21.7953 20 21.2466C19.4409 21.7953 19.0294 22.4936 18.8301 23.2758Z" fill="#FFDA44"/>
<path d="M23.0125 18.2612C22.4111 17.2216 21.2879 16.5215 20.0004 16.5215C18.7129 16.5215 17.5897 17.2216 16.9883 18.2612C18.0847 18.2667 19.1128 18.5648 20.0004 19.0796C20.888 18.5648 21.9159 18.2667 23.0125 18.2612Z" fill="#FFDA44"/>
<path d="M21.4883 20.2886C21.9943 20.8529 22.3955 21.5123 22.6643 22.2356C23.168 21.6362 23.473 20.8645 23.4783 20.0215C23.3353 20.0072 23.1905 19.9998 23.044 19.9998C22.496 19.9997 21.9717 20.1026 21.4883 20.2886Z" fill="#FFDA44"/>
</g>
<defs>
<clipPath id="clip0_4893_4013">
<rect width="40" height="40" fill="white"/>
</clipPath>
</defs>
</svg>
