<svg width="16" height="16" viewBox="0 0 16 16" fill="none" xmlns="http://www.w3.org/2000/svg">
<g clip-path="url(#clip0_1467_179841)">
<rect width="16" height="16" rx="8" fill="#F93939"/>
<path fill-rule="evenodd" clip-rule="evenodd" d="M5.33353 5.33398H5.86686L6.4002 6.40065H5.33353V5.33398ZM6.4002 6.40065H7.46686V7.46732H6.4002V6.40065ZM5.33353 7.46732H6.4002V8.53398H5.33353V7.46732ZM4.26686 8.53398H5.33353V9.60065H4.26686V8.53398ZM4.26686 9.60065H5.33353V10.6673H4.26686V9.60065ZM3.73353 9.60065H4.26686V10.6673H3.2002L3.73353 9.60065ZM6.4002 8.53398H8.53353V10.6673H6.4002V8.53398ZM10.6669 5.33398H10.1335L9.6002 6.40065H10.6669V5.33398ZM9.6002 6.40065H8.53353V7.46732H9.6002V6.40065ZM10.6669 7.46732H9.6002V8.53398H10.6669V7.46732ZM11.7335 8.53398H10.6669V9.60065H11.7335V8.53398ZM11.7335 9.60065H10.6669V10.6673H11.7335V9.60065ZM12.2669 9.60065H11.7335V10.6673H12.8002L12.2669 9.60065ZM9.6002 8.53398H8.53353V10.6673H9.6002V8.53398Z" fill="white"/>
<path opacity="0.7" fill-rule="evenodd" clip-rule="evenodd" d="M6.39994 7.46706H7.4666V8.53372H6.39994V7.46706ZM5.33327 8.53372H6.39994V10.6671H5.33327V8.53372ZM5.33327 6.40039H6.39994V7.46706H5.33327V6.40039ZM4.79993 7.46706H5.33327V8.53372H4.2666L4.79993 7.46706ZM9.59994 7.46706H8.53327V8.53372H9.59994V7.46706ZM10.6666 8.53372H9.59994V10.6671H10.6666V8.53372ZM10.6666 6.40039H9.59994V7.46706H10.6666V6.40039ZM11.1999 7.46706H10.6666V8.53372H11.7333L11.1999 7.46706ZM8.53327 6.40039H7.4666V8.53372H8.53327V6.40039Z" fill="white"/>
<path opacity="0.7" fill-rule="evenodd" clip-rule="evenodd" d="M7.4668 5.33398H8.53346V6.40065H7.4668V5.33398Z" fill="white"/>
<path fill-rule="evenodd" clip-rule="evenodd" d="M-3.2002 0H19.1998V4.26667H-3.2002V0ZM-3.2002 11.7333H19.1998V16H-3.2002V11.7333Z" fill="#232C80"/>
</g>
<defs>
<clipPath id="clip0_1467_179841">
<rect width="16" height="16" rx="8" fill="white"/>
</clipPath>
</defs>
</svg>
