<svg width="40" height="40" viewBox="0 0 40 40" fill="none" xmlns="http://www.w3.org/2000/svg">
<g clip-path="url(#clip0_4893_4568)">
<path d="M0 20.0001C0 23.4649 0.881484 26.7238 2.4318 29.5653L20 31.3044L37.5682 29.5653C39.1185 26.7238 40 23.4649 40 20.0001C40 16.5352 39.1185 13.2763 37.5682 10.4348L20 8.69568L2.4318 10.4348C0.881484 13.2763 0 16.5352 0 20.0001H0Z" fill="#D80027"/>
<path d="M2.43164 10.4348H37.568C34.1759 4.21789 27.5807 0 19.9998 0C12.419 0 5.82375 4.21789 2.43164 10.4348Z" fill="#0052B4"/>
<path d="M19.9998 39.9999C27.5807 39.9999 34.1759 35.7821 37.568 29.5652H2.43164C5.82375 35.7821 12.419 39.9999 19.9998 39.9999Z" fill="#0052B4"/>
<path d="M26.9563 23.913V21.3043H25.2172V17.8261L23.4781 16.0869L21.739 17.8261V14.3478L19.9998 12.6086L18.2607 14.3478V17.8261L16.5215 16.0869L14.7824 17.8261V21.3043H13.0433V23.913H11.3042V26.5217H28.6955V23.913H26.9563Z" fill="#F0F0F0"/>
</g>
<defs>
<clipPath id="clip0_4893_4568">
<rect width="40" height="40" fill="white"/>
</clipPath>
</defs>
</svg>
