<svg width="40" height="40" viewBox="0 0 40 40" fill="none" xmlns="http://www.w3.org/2000/svg">
<g clip-path="url(#clip0_4893_4031)">
<path d="M0 20C0 8.95437 8.95437 0 20 0C31.0456 0 40 8.95437 40 20" fill="#D80027"/>
<path d="M26.9569 18.5995L24.1143 19.9365L25.6281 22.6895L22.5414 22.099L22.1504 25.2171L20.0004 22.9237L17.8504 25.2171L17.4594 22.099L14.3728 22.6894L15.8864 19.9365L13.0439 18.5995L15.8864 17.2623L14.3728 14.5096L17.4593 15.0999L17.8505 11.9819L20.0004 14.2751L22.1504 11.9819L22.5414 15.0999L25.6282 14.5096L24.1146 17.2626L26.9569 18.5995Z" fill="#FFDA44"/>
<path d="M25.2181 6.52142H21.305C21.305 5.80118 20.7209 5.21704 20.0006 5.21704C19.2803 5.21704 18.6963 5.8011 18.6963 6.52142H14.7832C14.7832 7.24173 15.4107 7.82579 16.131 7.82579H16.0875C16.0875 8.5461 16.6714 9.13016 17.3919 9.13016C17.3919 9.85048 17.9758 10.4345 18.6963 10.4345H21.3049C22.0252 10.4345 22.6093 9.85056 22.6093 9.13016C23.3295 9.13016 23.9137 8.54618 23.9137 7.82579H23.8702C24.5906 7.82579 25.2181 7.24181 25.2181 6.52142Z" fill="#FFDA44"/>
<path d="M40 20C40 31.0456 31.0456 40 20 40C8.95437 40 0 31.0456 0 20H40Z" fill="#F0F0F0"/>
<path d="M20.0004 40C26.2521 40 31.8329 37.131 35.5006 32.6385C34.8409 32.1887 34.4847 31.4617 33.3334 31.4617C31.6668 31.4617 31.6668 32.9856 30.0002 32.9856C28.3337 32.9856 28.3336 31.4617 26.667 31.4617C25.0004 31.4617 25.0004 32.9856 23.3337 32.9856C21.667 32.9856 21.6669 31.4617 20.0001 31.4617C18.3334 31.4617 18.3334 32.9856 16.6669 32.9856C15.0005 32.9856 15.0005 31.4617 13.3338 31.4617C11.667 31.4617 11.667 32.9856 10.0002 32.9856C8.33344 32.9856 8.33344 31.4617 6.66664 31.4617C5.51555 31.4617 5.15938 32.1885 4.5 32.6383C8.1675 37.131 13.7486 40 20.0004 40Z" fill="#0052B4"/>
<path d="M36.6667 22.5508C35.0001 22.5508 35.0001 21.0269 33.3334 21.0269C31.6667 21.0269 31.6667 22.5508 30.0002 22.5508C28.3336 22.5508 28.3335 21.0269 26.667 21.0269C25.0003 21.0269 25.0003 22.5508 23.3336 22.5508C21.6669 22.5508 21.6668 21.0269 20 21.0269C18.3334 21.0269 18.3334 22.5508 16.6668 22.5508C15.0004 22.5508 15.0004 21.0269 13.3338 21.0269C11.667 21.0269 11.667 22.5508 10.0002 22.5508C8.3334 22.5508 8.3334 21.0269 6.6666 21.0269C5.00019 21.0269 5.00019 22.5508 3.33355 22.5508C1.6759 22.5508 1.66629 21.0437 0.0263672 21.0276C0.0725391 21.9424 0.181758 22.8405 0.346914 23.7188C1.67535 23.914 1.79168 25.2174 3.33363 25.2174C5.00027 25.2174 5.00027 23.6936 6.66668 23.6936C8.33347 23.6936 8.33347 25.2174 10.0003 25.2174C11.6671 25.2174 11.6671 23.6936 13.3339 23.6936C15.0005 23.6936 15.0005 25.2174 16.6669 25.2174C18.3335 25.2174 18.3335 23.6936 20.0001 23.6936C21.6669 23.6936 21.6669 25.2174 23.3337 25.2174C25.0005 25.2174 25.0005 23.6936 26.6671 23.6936C28.3337 23.6936 28.3337 25.2174 30.0003 25.2174C31.6668 25.2174 31.6669 23.6936 33.3335 23.6936C35.0003 23.6936 35.0003 25.2174 36.6668 25.2174C38.2089 25.2174 38.3253 23.9141 39.6538 23.7189C39.819 22.8405 39.9281 21.9425 39.9745 21.0276C38.3342 21.0438 38.3245 22.5508 36.6667 22.5508Z" fill="#0052B4"/>
<path d="M33.3336 26.2444C31.667 26.2444 31.667 27.7683 30.0004 27.7683C28.3338 27.7683 28.3338 26.2444 26.6672 26.2444C25.0005 26.2444 25.0005 27.7683 23.3338 27.7683C21.667 27.7683 21.667 26.2444 20.0002 26.2444C18.3336 26.2444 18.3336 27.7683 16.667 27.7683C15.0006 27.7683 15.0006 26.2444 13.334 26.2444C11.6672 26.2444 11.6672 27.7683 10.0004 27.7683C8.33359 27.7683 8.33359 26.2444 6.6668 26.2444C5.00039 26.2444 5.00039 27.7683 3.33375 27.7683C2.14289 27.7683 1.80273 26.9905 1.09766 26.5461C1.56703 27.9023 2.17766 29.1924 2.91305 30.3983C3.04094 30.4219 3.18016 30.4349 3.33375 30.4349C5.00039 30.4349 5.00039 28.9112 6.6668 28.9112C8.33359 28.9112 8.33359 30.4349 10.0004 30.4349C11.6672 30.4349 11.6672 28.9112 13.334 28.9112C15.0006 28.9112 15.0006 30.4349 16.667 30.4349C18.3337 30.4349 18.3337 28.9112 20.0002 28.9112C21.667 28.9112 21.667 30.4349 23.3338 30.4349C25.0006 30.4349 25.0006 28.9112 26.6672 28.9112C28.3338 28.9112 28.3338 30.4349 30.0004 30.4349C31.667 30.4349 31.667 28.9112 33.3336 28.9112C35.0004 28.9112 35.0004 30.4349 36.667 30.4349C36.8207 30.4349 36.9599 30.4219 37.0878 30.3982C37.8232 29.1924 38.4338 27.9023 38.9034 26.5462C38.1982 26.9903 37.858 27.7683 36.667 27.7683C35.0004 27.7683 35.0004 26.2444 33.3336 26.2444Z" fill="#0052B4"/>
<path d="M39.938 18.4199C38.3341 18.4578 38.3119 19.9421 36.6664 19.9421C34.9998 19.9421 34.9998 18.4182 33.333 18.4182C31.6664 18.4182 31.6664 19.9421 29.9998 19.9421C28.3333 19.9421 28.3332 18.4182 26.6666 18.4182C25 18.4182 25 19.9421 23.3333 19.9421C21.6666 19.9421 21.6665 18.4182 19.9997 18.4182C18.333 18.4182 18.333 19.9421 16.6665 19.9421C15.0001 19.9421 15.0001 18.4182 13.3334 18.4182C11.6666 18.4182 11.6666 19.9421 9.99984 19.9421C8.33305 19.9421 8.33305 18.4182 6.66625 18.4182C4.99984 18.4182 4.99984 19.9421 3.3332 19.9421C1.68797 19.9421 1.6657 18.458 0.0619531 18.4199C0.02125 18.9413 0 19.4682 0 20C0 20.3643 0.0103125 20.7263 0.0297656 21.0857C1.66594 21.1041 1.6768 22.6087 3.33328 22.6087C4.99992 22.6087 4.99992 21.0849 6.66633 21.0849C8.33312 21.0849 8.33312 22.6087 9.99992 22.6087C11.6667 22.6087 11.6667 21.0849 13.3335 21.0849C15.0002 21.0849 15.0002 22.6087 16.6666 22.6087C18.3332 22.6087 18.3332 21.0849 19.9998 21.0849C21.6666 21.0849 21.6666 22.6087 23.3334 22.6087C25.0002 22.6087 25.0002 21.0849 26.6667 21.0849C28.3334 21.0849 28.3334 22.6087 29.9999 22.6087C31.6665 22.6087 31.6666 21.0849 33.3331 21.0849C34.9999 21.0849 34.9999 22.6087 36.6665 22.6087C38.3231 22.6087 38.334 21.1041 39.9705 21.0857C39.9897 20.7262 40 20.3643 40 20C40 19.4682 39.9787 18.9413 39.938 18.4199Z" fill="#F0F0F0"/>
</g>
<defs>
<clipPath id="clip0_4893_4031">
<rect width="40" height="40" fill="white"/>
</clipPath>
</defs>
</svg>
