<svg width="16" height="16" viewBox="0 0 16 16" fill="none" xmlns="http://www.w3.org/2000/svg">
<g clip-path="url(#clip0_1467_179741)">
<rect width="16" height="16" rx="8" fill="#1A47B8"/>
<path fill-rule="evenodd" clip-rule="evenodd" d="M-3.2002 3.19922H19.1998V4.26589H-3.2002V3.19922Z" fill="white"/>
<path fill-rule="evenodd" clip-rule="evenodd" d="M-3.2002 4.26758H19.1998V11.7342H-3.2002V4.26758Z" fill="#F93939"/>
<path d="M2.66667 10.6673C4.13943 10.6673 5.33333 9.47341 5.33333 8.00065C5.33333 6.52789 4.13943 5.33398 2.66667 5.33398C1.19391 5.33398 0 6.52789 0 8.00065C0 9.47341 1.19391 10.6673 2.66667 10.6673Z" fill="white"/>
<path fill-rule="evenodd" clip-rule="evenodd" d="M2.66504 9.04116L1.38504 9.71316L1.63037 8.28916L0.595703 7.28223L2.02504 7.07423L2.66504 5.7793L3.30504 7.0753L4.73437 7.28436L3.6997 8.29236L3.94504 9.71743" fill="#F93939"/>
<path fill-rule="evenodd" clip-rule="evenodd" d="M-3.2002 11.7324H19.1998V12.7991H-3.2002V11.7324Z" fill="white"/>
</g>
<defs>
<clipPath id="clip0_1467_179741">
<rect width="16" height="16" rx="8" fill="white"/>
</clipPath>
</defs>
</svg>
