<svg width="40" height="40" viewBox="0 0 40 40" fill="none" xmlns="http://www.w3.org/2000/svg">
<g clip-path="url(#clip0_4893_3692)">
<path d="M20 40C31.0457 40 40 31.0457 40 20C40 8.9543 31.0457 0 20 0C8.95431 0 0 8.9543 0 20C0 31.0457 8.95431 40 20 40Z" fill="#F0F0F0"/>
<path d="M19.9999 0C13.9381 0 8.5066 2.69719 4.83887 6.95648H35.1608C31.4932 2.69719 26.0617 0 19.9999 0Z" fill="#0052B4"/>
<path d="M35.1609 33.0435H4.83887C8.5066 37.3028 13.9381 39.9999 19.9999 39.9999C26.0617 39.9999 31.4932 37.3028 35.1609 33.0435Z" fill="#0052B4"/>
<path d="M37.0645 9.56519H2.93547C1.07383 12.6031 0 16.176 0 20C0 23.8239 1.07383 27.3969 2.93547 30.4347H37.0645C38.9262 27.3969 40 23.8239 40 20C40 16.176 38.9262 12.6031 37.0645 9.56519Z" fill="#D80027"/>
<path d="M12.304 27.6957C16.5542 27.6957 19.9996 24.2502 19.9996 20.0001C19.9996 15.7499 16.5542 12.3044 12.304 12.3044C8.05385 12.3044 4.6084 15.7499 4.6084 20.0001C4.6084 24.2502 8.05385 27.6957 12.304 27.6957Z" fill="#F0F0F0"/>
<path d="M12.3046 12.3044L14.0313 17.6186H19.628L15.0986 20.9031L16.8387 26.2331L12.3046 22.933L7.77746 26.2269L9.51074 20.9031L4.98535 17.6186H10.5779L12.3046 12.3044Z" fill="#D80027"/>
</g>
<defs>
<clipPath id="clip0_4893_3692">
<rect width="40" height="40" fill="white"/>
</clipPath>
</defs>
</svg>
