<svg width="16" height="16" viewBox="0 0 16 16" fill="none" xmlns="http://www.w3.org/2000/svg">
<rect width="16" height="16" rx="8" fill="white"/>
<path fill-rule="evenodd" clip-rule="evenodd" d="M11.7333 8.00039C11.7333 10.0623 10.0618 11.7337 7.99994 11.7337C5.93807 11.7337 4.2666 10.0623 4.2666 8.00039C4.2666 6.80572 6.77327 6.30439 8.88314 6.49319C9.10714 6.43346 9.3482 6.40039 9.59994 6.40039C10.7786 6.40039 11.7333 7.11719 11.7333 8.00039Z" fill="#232C80"/>
<path fill-rule="evenodd" clip-rule="evenodd" d="M7.4666 7.46758C7.4666 7.46758 8.42127 6.40091 9.59994 6.40091C10.7786 6.40091 11.7333 7.11771 11.7333 8.00091C11.7333 5.93904 10.0618 4.26758 7.99994 4.26758C6.5098 4.26758 5.2234 5.14011 4.625 6.40304C4.2666 7.46758 4.2666 7.77904 4.2666 8.00091C4.79993 8.53425 5.393 8.53425 5.8666 8.53425C6.3402 8.53425 6.7658 8.32838 7.05913 8.00091L7.4666 7.46758Z" fill="#F93939"/>
<path fill-rule="evenodd" clip-rule="evenodd" d="M12.7997 5.33255H14.9331L12.7997 3.19922H11.7331L12.7997 5.33255ZM3.19974 5.33255H1.06641L3.19974 3.19922H4.26641L3.19974 5.33255ZM12.7997 10.6659H14.9331L12.7997 12.7992H11.7331L12.7997 10.6659ZM3.19974 10.6659H1.06641L3.19974 12.7992H4.26641L3.19974 10.6659Z" fill="#151515"/>
</svg>
