<svg width="40" height="40" viewBox="0 0 40 40" fill="none" xmlns="http://www.w3.org/2000/svg">
<g clip-path="url(#clip0_4893_3399)">
<path d="M20 40C31.0457 40 40 31.0457 40 20C40 8.9543 31.0457 0 20 0C8.95431 0 0 8.9543 0 20C0 31.0457 8.95431 40 20 40Z" fill="#F0F0F0"/>
<path d="M26.9569 19.9999C26.9569 21.7391 23.8424 26.0869 20.0004 26.0869C16.1585 26.0869 13.0439 21.7391 13.0439 19.9999C13.0439 16.1579 16.1585 13.0435 20.0004 13.0435C23.8424 13.0435 26.9569 16.1579 26.9569 19.9999Z" fill="#D80027"/>
<path d="M26.9569 20C26.9569 23.842 23.8424 26.9565 20.0004 26.9565C16.1585 26.9565 13.0439 23.842 13.0439 20" fill="#0052B4"/>
<path d="M27.373 26.1489L29.2174 24.3046L30.4469 25.5342L28.6026 27.3785L27.373 26.1489Z" fill="black"/>
<path d="M24.2988 29.2229L26.1432 27.3786L27.3727 28.6081L25.5284 30.4525L24.2988 29.2229Z" fill="black"/>
<path d="M31.0625 29.8374L32.9068 27.9931L34.1364 29.2226L32.2921 31.067L31.0625 29.8374Z" fill="black"/>
<path d="M27.9873 32.9119L29.8316 31.0675L31.0612 32.2971L29.2169 34.1414L27.9873 32.9119Z" fill="black"/>
<path d="M29.2178 27.9934L31.0621 26.1491L32.2917 27.3786L30.4473 29.223L29.2178 27.9934Z" fill="black"/>
<path d="M26.1436 31.0674L27.9879 29.223L29.2175 30.4526L27.3731 32.297L26.1436 31.0674Z" fill="black"/>
<path d="M31.0703 13.8542L26.1521 8.93601L27.3817 7.70644L32.2999 12.6247L31.0703 13.8542Z" fill="black"/>
<path d="M26.1514 12.6252L24.307 10.7809L25.5366 9.55139L27.3809 11.3957L26.1514 12.6252Z" fill="black"/>
<path d="M29.2246 15.7L27.3803 13.8556L28.6098 12.6261L30.4541 14.4704L29.2246 15.7Z" fill="black"/>
<path d="M29.8389 8.93579L27.9945 7.09146L29.2241 5.86189L31.0684 7.70622L29.8389 8.93579Z" fill="black"/>
<path d="M32.915 12.011L31.0707 10.1667L32.3003 8.93708L34.1446 10.7814L32.915 12.011Z" fill="black"/>
<path d="M7.08984 27.99L12.0081 32.9082L10.7785 34.1378L5.86027 29.2196L7.08984 27.99Z" fill="black"/>
<path d="M12.0088 29.2185L13.8531 31.0628L12.6236 32.2924L10.7793 30.448L12.0088 29.2185Z" fill="black"/>
<path d="M8.93457 26.1453L10.7789 27.9896L9.54933 29.2192L7.705 27.3748L8.93457 26.1453Z" fill="black"/>
<path d="M10.7783 24.3003L15.6966 29.2185L14.467 30.4481L9.54875 25.5299L10.7783 24.3003Z" fill="black"/>
<path d="M12.0078 7.08765L7.08958 12.0059L5.86001 10.7763L10.7782 5.85807L12.0078 7.08765Z" fill="black"/>
<path d="M13.8525 8.93188L8.9343 13.8501L7.70473 12.6205L12.623 7.70231L13.8525 8.93188Z" fill="black"/>
<path d="M15.6982 10.7773L10.78 15.6956L9.55049 14.4661L14.4687 9.54783L15.6982 10.7773Z" fill="black"/>
</g>
<defs>
<clipPath id="clip0_4893_3399">
<rect width="40" height="40" fill="white"/>
</clipPath>
</defs>
</svg>
