<svg width="40" height="40" viewBox="0 0 40 40" fill="none" xmlns="http://www.w3.org/2000/svg">
<g clip-path="url(#clip0_4893_4059)">
<path d="M20 40C31.0457 40 40 31.0457 40 20C40 8.9543 31.0457 0 20 0C8.9543 0 0 8.9543 0 20C0 31.0457 8.9543 40 20 40Z" fill="#338AF3"/>
<path d="M31.3041 20.2173H8.69531C8.69531 21.7781 10.0548 23.0434 11.6155 23.0434H11.5214C11.5214 24.6042 12.7866 25.8695 14.3475 25.8695C14.3475 27.4303 15.6127 28.6956 17.1736 28.6956H22.8258C24.3866 28.6956 25.6519 27.4303 25.6519 25.8695C27.2127 25.8695 28.478 24.6042 28.478 23.0434H28.3839C29.9445 23.0434 31.3041 21.7781 31.3041 20.2173Z" fill="#FFDA44"/>
<path d="M27.826 16.5217C27.826 20.8439 24.3221 24.3478 19.9999 24.3478C15.6777 24.3478 12.1738 20.8439 12.1738 16.5217" fill="#338AF3"/>
<path d="M25.9779 16.5214L23.5354 17.6704L24.8361 20.0361L22.1837 19.5286L21.8476 22.208L20.0002 20.2373L18.1527 22.208L17.8167 19.5286L15.1643 20.0359L16.465 17.6704L14.0225 16.5214L16.465 15.3725L15.1643 13.007L17.8166 13.5143L18.1528 10.835L20.0002 12.8057L21.8477 10.835L22.1837 13.5143L24.8361 13.007L23.5354 15.3726L25.9779 16.5214Z" fill="#FFDA44"/>
</g>
<defs>
<clipPath id="clip0_4893_4059">
<rect width="40" height="40" fill="white"/>
</clipPath>
</defs>
</svg>
