<svg width="16" height="16" viewBox="0 0 16 16" fill="none" xmlns="http://www.w3.org/2000/svg">
<rect width="16" height="16" rx="8" fill="#03BCDB"/>
<path fill-rule="evenodd" clip-rule="evenodd" d="M1.06641 2.66081C1.06641 2.36961 1.31387 2.13281 1.59974 2.13281C1.89414 2.13281 2.13307 2.36321 2.13307 2.66081V4.80481C2.13307 5.09601 1.88561 5.33281 1.59974 5.33281C1.30534 5.33281 1.06641 5.10241 1.06641 4.80481V2.66081ZM2.13307 4.79415C2.13307 4.50295 2.38054 4.26615 2.66641 4.26615C2.96081 4.26615 3.19974 4.49655 3.19974 4.79415V6.93815C3.19974 7.22935 2.95227 7.46615 2.66641 7.46615C2.37201 7.46615 2.13307 7.23575 2.13307 6.93815V4.79415ZM2.13307 9.06081C2.13307 8.76961 2.38054 8.53281 2.66641 8.53281C2.96081 8.53281 3.19974 8.76321 3.19974 9.06081V11.2048C3.19974 11.496 2.95227 11.7328 2.66641 11.7328C2.37201 11.7328 2.13307 11.5024 2.13307 11.2048V9.06081ZM1.06641 11.1941C1.06641 10.9029 1.31387 10.6661 1.59974 10.6661C1.89414 10.6661 2.13307 10.8965 2.13307 11.1941V13.3381C2.13307 13.6293 1.88561 13.8661 1.59974 13.8661C1.30534 13.8661 1.06641 13.6357 1.06641 13.3381V11.1941ZM1.06641 6.93281C1.06641 6.63841 1.31387 6.39948 1.59974 6.39948C1.89414 6.39948 2.13307 6.64695 2.13307 6.93281C2.13307 7.22721 1.88561 7.46615 1.59974 7.46615C1.30534 7.46615 1.06641 7.21868 1.06641 6.93281ZM2.13307 2.66615C2.13307 2.37175 2.38054 2.13281 2.66641 2.13281C2.96081 2.13281 3.19974 2.38028 3.19974 2.66615C3.19974 2.96055 2.95227 3.19948 2.66641 3.19948C2.37201 3.19948 2.13307 2.95201 2.13307 2.66615ZM1.06641 7.99948C1.06641 7.70508 1.31387 7.46615 1.59974 7.46615C1.89414 7.46615 2.13307 7.71361 2.13307 7.99948C2.13307 8.29388 1.88561 8.53281 1.59974 8.53281C1.30534 8.53281 1.06641 8.28535 1.06641 7.99948ZM2.13307 13.3328C2.13307 13.0384 2.38054 12.7995 2.66641 12.7995C2.96081 12.7995 3.19974 13.0469 3.19974 13.3328C3.19974 13.6272 2.95227 13.8661 2.66641 13.8661C2.37201 13.8661 2.13307 13.6187 2.13307 13.3328ZM1.06641 9.06615C1.06641 8.77175 1.31387 8.53281 1.59974 8.53281C1.89414 8.53281 2.13307 8.78028 2.13307 9.06615C2.13307 9.36055 1.88561 9.59948 1.59974 9.59948C1.30534 9.59948 1.06641 9.35201 1.06641 9.06615Z" fill="#FFDA2C"/>
<path d="M11.1999 9.60091C12.6726 9.60091 13.8665 8.407 13.8665 6.93424C13.8665 5.46149 12.6726 4.26758 11.1999 4.26758C9.72711 4.26758 8.5332 5.46149 8.5332 6.93424C8.5332 8.407 9.72711 9.60091 11.1999 9.60091Z" fill="#FFDA2C"/>
<path fill-rule="evenodd" clip-rule="evenodd" d="M7.4668 7.4668L8.53346 9.60013L11.2001 10.6668L13.8668 9.60013L14.9335 7.4668V10.6668L11.2001 11.7335L7.4668 10.6668V7.4668Z" fill="#FFDA2C"/>
</svg>
