<svg width="40" height="40" viewBox="0 0 40 40" fill="none" xmlns="http://www.w3.org/2000/svg">
<g clip-path="url(#clip0_4893_4004)">
<path d="M38.0153 11.3041C34.7803 4.61421 27.9291 -0.000244141 19.9998 -0.000244141C12.0706 -0.000244141 5.21938 4.61421 1.98438 11.3041L19.9998 13.0433L38.0153 11.3041Z" fill="#D80027"/>
<path d="M1.98438 28.6954C5.21938 35.3854 12.0706 39.9998 19.9998 39.9998C27.9291 39.9998 34.7803 35.3854 38.0153 28.6954L19.9998 26.9563L1.98438 28.6954Z" fill="#D80027"/>
<path d="M38.0155 11.3042H1.98453C0.713125 13.9335 0 16.8833 0 19.9998C0 23.1163 0.713125 26.0661 1.98453 28.6954H38.0154C39.287 26.0661 40 23.1163 40 19.9998C40 16.8833 39.287 13.9335 38.0155 11.3042Z" fill="#0052B4"/>
<path d="M19.9995 26.9564C23.8414 26.9564 26.9559 23.8419 26.9559 19.9999C26.9559 16.158 23.8414 13.0435 19.9995 13.0435C16.1575 13.0435 13.043 16.158 13.043 19.9999C13.043 23.8419 16.1575 26.9564 19.9995 26.9564Z" fill="#F0F0F0"/>
</g>
<defs>
<clipPath id="clip0_4893_4004">
<rect width="40" height="40" fill="white"/>
</clipPath>
</defs>
</svg>
