<svg width="16" height="16" viewBox="0 0 16 16" fill="none" xmlns="http://www.w3.org/2000/svg">
<g clip-path="url(#clip0_1467_179769)">
<rect width="16" height="16" rx="8" fill="#F93939"/>
<path fill-rule="evenodd" clip-rule="evenodd" d="M-3.2002 0H19.1998V7.46667H-3.2002V0Z" fill="#1A47B8"/>
<path fill-rule="evenodd" clip-rule="evenodd" d="M3.2002 5.33398H7.46686V6.40065H3.2002V5.33398Z" fill="#D4AF2C"/>
<path fill-rule="evenodd" clip-rule="evenodd" d="M4.27779 3.35095C3.94926 3.26561 3.57379 3.19948 3.20046 3.19948C2.13379 3.19948 2.13379 3.73281 2.13379 4.26615C2.13379 4.79948 3.20046 5.33281 3.20046 5.33281H7.46712C7.46712 5.33281 8.53379 4.79948 8.53379 4.26615C8.53379 3.73281 8.53379 3.19948 7.46712 3.19948C7.09379 3.19948 6.71832 3.26561 6.38979 3.35095C6.39726 3.30081 6.40046 3.25068 6.40046 3.19948C6.40046 2.61068 5.92259 2.13281 5.33379 2.13281C4.74499 2.13281 4.26712 2.61068 4.26712 3.19948C4.26712 3.25068 4.27032 3.30081 4.27779 3.35095Z" fill="#FFDA2C"/>
</g>
<defs>
<clipPath id="clip0_1467_179769">
<rect width="16" height="16" rx="8" fill="white"/>
</clipPath>
</defs>
</svg>
