<svg width="16" height="16" viewBox="0 0 16 16" fill="none" xmlns="http://www.w3.org/2000/svg">
<g clip-path="url(#clip0_1467_179703)">
<rect width="16" height="16" rx="8" fill="#FFDA2C"/>
<rect x="-3.2002" width="22.4" height="16" fill="#FFDA2C"/>
<rect opacity="0.3" x="-3.2002" width="22.4" height="16" fill="#FF6C2D"/>
<path fill-rule="evenodd" clip-rule="evenodd" d="M-1.06641 2.13281H2.13359V13.8661H-1.06641V2.13281Z" fill="#0A6A30"/>
<path fill-rule="evenodd" clip-rule="evenodd" d="M2.13379 2.13281H5.33379V13.8661H2.13379V2.13281Z" fill="#FF6C2D"/>
<path opacity="0.2" fill-rule="evenodd" clip-rule="evenodd" d="M2.13379 2.13281H5.33379V13.8661H2.13379V2.13281Z" fill="#151515"/>
<path fill-rule="evenodd" clip-rule="evenodd" d="M6.40039 2.13281H17.0671V13.8661H6.40039V2.13281ZM10.1711 11.3232L10.2329 11.2763L10.2585 11.3232C10.2937 11.3872 10.3908 11.3851 10.4548 11.3232L10.5049 11.2731L10.5476 11.3211C10.6009 11.3851 10.7012 11.3851 10.7652 11.3211C10.8121 11.2763 10.8185 11.2752 10.8484 11.3104C10.8655 11.3296 10.9177 11.3531 10.9636 11.3606C11.0468 11.3755 11.0489 11.3744 11.0969 11.2774C11.1396 11.1963 11.1449 11.1643 11.1353 11.0854C11.1289 11.032 11.1215 10.9488 11.1193 10.8987C11.1172 10.807 11.1172 10.8059 11.2175 10.76C11.2708 10.7344 11.3348 10.7003 11.3593 10.6832C11.3988 10.6555 11.5087 10.4838 11.5087 10.4486C11.5087 10.44 11.466 10.4272 11.4127 10.4187C11.2047 10.3867 11.1695 10.2374 11.306 9.96004C11.5268 9.5099 11.6601 9.06937 11.6612 8.78884C11.6612 8.66403 11.6665 8.62137 11.6793 8.65017C11.7284 8.76004 11.6399 9.22617 11.5055 9.56217L11.4521 9.69764L11.5033 9.68163C11.5311 9.67097 11.6985 9.57817 11.8735 9.47257C12.3535 9.18457 12.5188 9.12697 12.8303 9.14404C13.0905 9.15897 13.2015 9.22617 13.3849 9.48323C13.4831 9.6187 13.5769 9.71577 13.7476 9.8587C14.1145 10.1638 14.1295 10.1894 14.1465 10.5478C14.1647 10.9104 14.1572 10.9318 13.9492 10.9915C13.7732 11.0427 13.6612 11.1515 13.6324 11.304C13.6175 11.3862 13.6505 11.3894 13.7391 11.3126L13.8031 11.2571L13.8329 11.3126C13.8713 11.3872 13.9524 11.3872 14.0196 11.3126L14.0697 11.2592L14.1209 11.3126C14.202 11.3979 14.3097 11.3787 14.3396 11.2699C14.3449 11.2507 14.3609 11.2571 14.3929 11.2934C14.4516 11.3616 14.602 11.3915 14.6191 11.336C14.6255 11.3168 14.6127 11.2667 14.5924 11.2251C14.5049 11.0502 14.4772 10.9659 14.4751 10.871C14.4751 10.7387 14.5039 10.6747 14.618 10.5659C14.7567 10.4347 14.7993 10.2672 14.6948 10.2672C14.6308 10.2672 14.5647 10.1894 14.5241 10.0646C14.4388 9.8139 14.4548 9.53124 14.5817 9.0619C14.7097 8.5819 14.7247 8.49657 14.7257 8.17657C14.7257 7.91737 14.7225 7.87257 14.6777 7.7307C14.6511 7.64537 14.5956 7.51524 14.5561 7.44484L14.4847 7.31684L14.5775 7.2123C14.8623 6.8987 14.8047 6.38457 14.4601 6.1883C14.3567 6.12644 14.33 6.1211 14.1465 6.1243C14.0356 6.1243 13.8692 6.1435 13.7732 6.16697C13.6751 6.1883 13.5108 6.2075 13.3977 6.2075C13.2185 6.2075 13.1887 6.20324 13.1204 6.15417C13.0479 6.10297 13.0351 6.0795 13.0212 5.96217C13.0191 5.93657 13.0063 5.9131 12.9935 5.90884C12.9689 5.89817 12.8548 6.02617 12.8399 6.0859C12.8313 6.11364 12.8239 6.1115 12.8004 6.07524C12.7844 6.04857 12.762 5.9899 12.7503 5.9451C12.7215 5.8299 12.7567 5.74244 12.8569 5.67844L12.9369 5.62937L12.8921 5.59097C12.7961 5.51204 12.6329 5.56537 12.5743 5.69764C12.5572 5.73284 12.5391 5.76377 12.5337 5.76377C12.5284 5.76377 12.4964 5.72857 12.4633 5.6859C12.3396 5.5259 12.3823 5.28697 12.5487 5.21337C12.6361 5.17497 12.714 5.20484 12.73 5.2827C12.7545 5.40217 12.8324 5.24537 12.8185 5.1035C12.8079 5.00963 12.8079 5.00537 12.858 5.00537C12.9263 5.00537 13.0713 5.12484 13.1172 5.2187C13.1705 5.32537 13.1652 5.49604 13.1065 5.6219L13.0639 5.7211L13.1215 5.70617C13.2068 5.6827 13.2921 5.61017 13.3348 5.52484C13.3796 5.4331 13.3849 5.25497 13.3455 5.1579C13.306 5.0651 13.3103 5.05124 13.3668 5.08324C13.4649 5.13657 13.5161 5.19417 13.5556 5.29657C13.5919 5.38724 13.594 5.40964 13.5748 5.50457C13.5641 5.56324 13.5375 5.64004 13.5172 5.67524C13.4852 5.73177 13.4852 5.74137 13.5097 5.74137C13.5556 5.74137 13.6537 5.6827 13.6879 5.6347C13.7049 5.6091 13.7305 5.54937 13.7444 5.49817L13.7689 5.40857L13.7977 5.47684C13.8383 5.57284 13.9151 5.66137 14.0111 5.71577C14.1145 5.7755 14.1572 5.77977 14.1039 5.7243C14.0676 5.68697 14.0004 5.42564 14.0207 5.4011C14.0313 5.38617 14.1721 5.5291 14.33 5.71897C14.4815 5.9003 14.5753 5.9579 14.714 5.9579C14.8921 5.9579 14.9945 5.7531 14.9167 5.56004C14.8687 5.44697 14.7652 5.43204 14.7055 5.52804C14.6777 5.57284 14.6703 5.60804 14.6777 5.6539C14.6884 5.7115 14.6841 5.7179 14.6457 5.7179C14.5924 5.7179 14.4921 5.63257 14.3129 5.43204C14.0388 5.12804 13.7049 4.8699 13.4649 4.77604C13.3103 4.71417 12.9807 4.6907 12.8249 4.7291C12.6543 4.76964 12.4516 4.89977 12.3428 5.03844C12.1487 5.28377 12.1465 5.6091 12.3353 5.9067L12.3887 5.99204L12.3524 6.0667C12.2991 6.17764 12.3033 6.3259 12.3631 6.4347C12.3897 6.4827 12.4164 6.52217 12.4228 6.52217C12.4292 6.52217 12.4356 6.49017 12.4377 6.45284C12.4431 6.35684 12.474 6.29284 12.5273 6.2683C12.5743 6.24483 12.6052 6.2555 12.8239 6.3707C13.0532 6.49337 13.4297 6.50084 13.8308 6.39204C14.0281 6.34084 14.2596 6.34404 14.362 6.40057C14.5487 6.5051 14.5924 6.77604 14.4548 6.9819C14.3951 7.06937 14.3375 7.10564 14.1455 7.17604C13.9983 7.22937 13.9641 7.23364 13.6303 7.22937C13.3455 7.2251 13.2431 7.23257 13.1268 7.26457C13.0009 7.29977 12.9241 7.30297 12.5529 7.29124L12.1241 7.2763L12.1721 7.32964C12.1977 7.35737 12.2361 7.39364 12.2543 7.4075C12.2863 7.43097 12.2863 7.43417 12.2372 7.45764C12.2084 7.47257 12.1465 7.48323 12.0985 7.48323H12.01L11.9993 7.5835C11.9929 7.63897 11.9929 7.70084 11.9993 7.72537C12.01 7.76057 12.0068 7.76484 11.978 7.75204C11.9609 7.74137 11.9097 7.72537 11.8649 7.71257C11.8201 7.69977 11.7604 7.67524 11.7316 7.65604C11.6825 7.62404 11.6783 7.62404 11.6591 7.6667C11.6441 7.7051 11.4948 7.8523 11.4724 7.8523C11.4692 7.8523 11.4649 7.8235 11.4617 7.7883C11.4617 7.75417 11.4404 7.6635 11.4148 7.58777C11.3913 7.5131 11.3657 7.4299 11.3593 7.4043C11.3487 7.3659 11.3455 7.36377 11.3327 7.39364C11.3252 7.41177 11.3135 7.46297 11.3071 7.50777C11.3017 7.55044 11.2793 7.6251 11.258 7.66777L11.2196 7.7467L11.1951 7.67844C11.1695 7.6059 11.1257 7.5291 11.1097 7.5291C11.1044 7.5291 11.0948 7.55364 11.0884 7.58244C11.0777 7.6411 10.9743 7.80644 10.9497 7.80644C10.9391 7.80644 10.9316 7.7595 10.9316 7.70297C10.9316 7.64537 10.9241 7.5995 10.9135 7.5995C10.9049 7.5995 10.8964 7.61337 10.8964 7.6315C10.8964 7.67417 10.8079 7.80537 10.7791 7.80537C10.7652 7.80537 10.7449 7.8203 10.7321 7.8395C10.7001 7.88857 10.6735 7.88217 10.6863 7.82884C10.6937 7.80217 10.6895 7.7435 10.6777 7.6955L10.6489 7.5835C10.6447 7.56644 10.6137 7.5707 10.5465 7.5995C10.4377 7.64537 10.4015 7.6379 10.4569 7.57817C10.4783 7.55684 10.5103 7.4843 10.5263 7.41604C10.5433 7.34777 10.5689 7.28804 10.5839 7.28057C10.6031 7.27417 10.602 7.28377 10.5785 7.32537C10.5625 7.35524 10.5487 7.39577 10.5487 7.41497C10.5487 7.43417 10.5348 7.47897 10.5199 7.5163C10.5049 7.5547 10.4953 7.58777 10.4985 7.59097C10.5028 7.5963 10.5433 7.57604 10.5903 7.54617L10.6756 7.49284V7.54084C10.6756 7.5675 10.6863 7.63684 10.6969 7.69657L10.7204 7.80324L10.778 7.76803C10.8367 7.73177 10.8932 7.6027 10.8932 7.5035C10.8932 7.4523 10.9145 7.46084 10.9231 7.51417L10.9529 7.64217L10.9785 7.74243L11.018 7.67844C11.0393 7.64324 11.0681 7.57497 11.0799 7.5259C11.1012 7.4427 11.1311 7.40644 11.1311 7.46724C11.1311 7.51204 11.2228 7.6699 11.2399 7.6571C11.2484 7.6507 11.2655 7.59097 11.2772 7.52484C11.3028 7.38617 11.3433 7.2923 11.37 7.3115C11.3807 7.32004 11.3828 7.33284 11.3775 7.3435C11.3732 7.35417 11.3935 7.44484 11.4244 7.54403C11.4564 7.64324 11.4884 7.7435 11.4937 7.7659C11.5044 7.80324 11.5151 7.7979 11.5812 7.72004C11.6239 7.67204 11.6601 7.6187 11.6644 7.60057C11.6708 7.57497 11.6804 7.57604 11.7177 7.60697C11.7711 7.65177 11.9524 7.7243 11.9663 7.7051C11.9716 7.6987 11.9769 7.63577 11.9769 7.56643L11.9801 7.43844L12.0335 7.4523C12.0623 7.46084 12.122 7.45977 12.1668 7.4523L12.2479 7.4363L12.1764 7.37017C12.1369 7.3339 12.0964 7.28697 12.0868 7.26564C12.0761 7.2443 12.0399 7.22297 12.0015 7.21977C11.8916 7.20697 11.6985 7.06297 11.6985 6.99577C11.6985 6.9819 11.7252 7.00324 11.7583 7.04377C11.8308 7.13124 11.9311 7.1867 12.0185 7.1867H12.0847L12.0441 7.1163C12.0207 7.07364 11.9993 6.99684 11.994 6.93177C11.9865 6.83044 11.978 6.81444 11.898 6.73977C11.85 6.69497 11.7892 6.62777 11.7647 6.59044L11.7199 6.52324L11.6964 6.60324C11.6836 6.64804 11.6676 6.68323 11.6623 6.68323C11.6559 6.68323 11.6303 6.65764 11.6089 6.6267C11.5844 6.5947 11.5599 6.5691 11.5556 6.5691C11.5481 6.5691 11.5279 6.61177 11.5076 6.6651L11.4724 6.7579L11.4447 6.70457C11.4287 6.67257 11.3935 6.62137 11.3647 6.58724C11.3359 6.55097 11.3199 6.52324 11.3305 6.52324C11.3412 6.52324 11.3775 6.5595 11.4105 6.60324L11.4713 6.6843L11.4959 6.62457C11.5097 6.59044 11.5151 6.53604 11.5087 6.4923C11.498 6.4283 11.5001 6.42617 11.5193 6.46564C11.53 6.49124 11.5652 6.5403 11.5972 6.5723L11.6548 6.6363L11.6943 6.5403C11.7337 6.4443 11.7348 6.4443 11.7519 6.49977C11.7764 6.57657 11.9492 6.76644 12.0964 6.87524C12.1177 6.8923 12.1092 6.83257 12.0676 6.69924C12.0569 6.66404 12.0463 6.60004 12.0463 6.55737C12.0463 6.49337 12.0335 6.46457 11.9716 6.4027C11.8841 6.3131 11.8564 6.25017 11.8393 6.10617C11.8329 6.0475 11.818 5.98244 11.8052 5.96217C11.7871 5.93017 11.7839 5.9483 11.7892 6.05604C11.7913 6.1307 11.7839 6.2203 11.7721 6.2587L11.7508 6.32697L11.7337 6.26937C11.7231 6.23737 11.6836 6.18404 11.6431 6.1467C11.6004 6.1115 11.5737 6.0763 11.5791 6.06884C11.5844 6.06244 11.6271 6.09444 11.6719 6.14137C11.7412 6.21284 11.7572 6.2203 11.7657 6.18937C11.7764 6.15204 11.7657 5.99097 11.7444 5.88004C11.7337 5.82244 11.7337 5.82244 11.7871 5.8907C11.8255 5.94404 11.8457 6.00377 11.8617 6.11044C11.8831 6.2459 11.8937 6.27044 11.9876 6.3771C12.0441 6.4443 12.0943 6.49444 12.0964 6.49017C12.1007 6.4859 12.1071 6.31524 12.1124 6.1115C12.1231 5.72217 12.1124 5.62937 12.0409 5.50884L12.0047 5.44697L12.0612 5.36484C12.1359 5.25817 12.17 5.17283 12.1849 5.0555L12.1977 4.9595L12.1337 5.04164C12.0804 5.10777 12.0559 5.1227 11.9951 5.1227C11.9343 5.1227 11.9097 5.1099 11.8703 5.05124C11.8212 4.9819 11.7337 4.91577 11.6505 4.8827C11.6185 4.87204 11.6079 4.8763 11.6079 4.90404C11.6079 4.92537 11.5919 4.98297 11.5705 5.03417L11.5332 5.12804L11.4543 5.0235C11.4052 4.9595 11.3476 4.91044 11.3049 4.8955C11.1951 4.8571 11.1897 4.8603 11.1897 4.97017C11.1897 5.13337 11.1364 5.1643 11.0404 5.0555C10.9689 4.97017 10.9081 4.9531 10.7705 4.97337L10.6639 4.98937L10.6852 5.05337C10.7001 5.1067 10.6959 5.12803 10.6617 5.18884C10.6063 5.28697 10.5337 5.32964 10.4228 5.32964C10.3716 5.32964 10.3076 5.3435 10.2799 5.36164C10.2532 5.37764 10.186 5.3979 10.1305 5.4043C10.0751 5.41177 10.0164 5.42564 9.99933 5.4331C9.97373 5.4459 9.97053 5.43524 9.978 5.3563C9.99187 5.2347 9.92893 5.14617 9.82867 5.14617C9.70067 5.14617 9.642 5.2987 9.69213 5.5003C9.7016 5.53438 9.71106 5.58693 9.71755 5.62293L9.71987 5.63577C9.72733 5.6731 9.78387 5.7723 9.8564 5.86724C9.92467 5.95897 9.98867 6.0539 9.99933 6.07844C10.01 6.10297 10.0452 6.14244 10.0772 6.1659L10.1359 6.20857L10.1284 6.12644C10.1199 6.0347 10.1348 6.01977 10.1711 6.08377C10.1849 6.1083 10.218 6.14564 10.2457 6.1691C10.2884 6.20324 10.2959 6.2043 10.2959 6.17337C10.2959 6.15204 10.3044 6.10937 10.3151 6.0731L10.3364 6.0091L10.3684 6.09657C10.3876 6.14457 10.4495 6.25444 10.5049 6.3419C10.6137 6.50724 10.6799 6.6939 10.6457 6.73657C10.6319 6.7547 10.5945 6.75257 10.5177 6.7323C10.4569 6.71737 10.3823 6.70884 10.3513 6.71417C10.2873 6.72484 10.2841 6.71417 10.3225 6.65017C10.3631 6.58297 10.3567 6.5723 10.2767 6.5723C10.1839 6.5723 9.95453 6.51257 9.866 6.46564C9.78067 6.42297 9.75933 6.43364 9.7348 6.5403L9.68893 6.73764L9.6644 6.8443L9.7572 6.83364C9.8084 6.82617 9.87453 6.8123 9.90333 6.7995C9.9332 6.78884 9.95987 6.78244 9.96307 6.78564C9.96627 6.7899 9.9524 6.83257 9.93427 6.8795L9.898 6.96484L9.95667 6.9499C9.98867 6.94137 10.0367 6.92004 10.0633 6.90297C10.1103 6.8731 10.1135 6.87524 10.1508 6.9531C10.1956 7.0491 10.2319 7.0459 10.2393 6.94243C10.2479 6.8379 10.2745 6.8539 10.3247 6.99364C10.3705 7.12804 10.4207 7.17497 10.4292 7.09604C10.4324 7.07044 10.4569 7.0267 10.4857 7.00004C10.5423 6.9467 10.5849 6.96377 10.6084 7.04697C10.6351 7.1323 10.5785 7.2219 10.4164 7.35417C10.0857 7.6187 9.89587 7.98137 9.8404 8.44217C9.79133 8.85817 9.94493 9.2891 10.2532 9.59843C10.4004 9.74777 10.6351 9.90244 10.6201 9.84377C10.5583 9.5899 10.5604 9.10777 10.6244 9.02564C10.6351 9.01284 10.6308 9.06297 10.6169 9.13657C10.5657 9.41177 10.5881 9.63044 10.7204 10.1435C10.8377 10.6086 10.8228 10.807 10.6543 10.9371C10.6009 10.9798 10.5647 10.9862 10.4196 10.984C10.2617 10.9819 10.2447 10.9862 10.1935 11.0395C10.1444 11.0928 10.0815 11.2635 10.0815 11.3424C10.0815 11.3851 10.1167 11.3798 10.1881 11.3254L10.1711 11.3232ZM8.9764 10.4699C8.99347 10.4411 9.00627 10.3952 9.00627 10.3686C9.00627 10.328 9.02013 10.3174 9.0884 10.3046L9.17053 10.2896L9.1172 10.231C9.05107 10.1627 9.04467 10.1094 9.10227 10.1094C9.1588 10.1094 9.25587 10.0304 9.2708 9.9707C9.27827 9.9451 9.274 9.90884 9.26227 9.88964C9.23027 9.84164 9.16947 9.8491 9.1588 9.90244C9.146 9.96004 9.1268 9.9611 9.08093 9.90244C9.01267 9.8171 9.01053 9.6379 9.07773 9.53337C9.1076 9.4843 9.1076 9.48004 9.06707 9.43097C9.0244 9.3755 8.9924 9.26777 9.01373 9.24217C9.02013 9.2347 9.05427 9.24217 9.0884 9.2571C9.1396 9.27844 9.15987 9.28057 9.18013 9.2571C9.24413 9.1931 9.1748 9.10777 9.07347 9.12697C9.034 9.13444 9.018 9.12697 9.0116 9.09924C9.00733 9.0779 8.97213 9.0491 8.9316 9.03523C8.8612 9.01177 8.86013 9.0139 8.86013 9.0779C8.86013 9.14937 8.82813 9.16324 8.7716 9.11737C8.7236 9.08004 8.67773 9.10883 8.67773 9.17603C8.67773 9.2379 8.72573 9.26883 8.81 9.26137C8.874 9.25603 8.8772 9.3211 8.81533 9.41284L8.77053 9.48003L8.80573 9.54724C8.85907 9.64644 8.85373 9.81177 8.79507 9.8939L8.7524 9.9579L8.72253 9.9067C8.682 9.83524 8.62653 9.84057 8.61053 9.91737C8.59987 9.9675 8.61053 9.9899 8.6564 10.0432C8.6884 10.0784 8.73427 10.1072 8.7588 10.1072C8.82067 10.1072 8.81853 10.1712 8.75453 10.2374L8.7044 10.2886L8.78333 10.3046C8.826 10.3131 8.86013 10.3302 8.86013 10.3419C8.86013 10.3846 8.91347 10.5211 8.9316 10.5211C8.94227 10.5211 8.9636 10.4998 8.97747 10.471L8.9764 10.4699ZM9.24627 8.15524C9.42333 8.05177 9.43827 7.7883 9.27187 7.7179C9.20253 7.69017 9.1588 7.70724 9.1332 7.76803C9.11187 7.81604 9.12573 7.90244 9.15453 7.90244C9.16307 7.90244 9.17053 7.91737 9.17053 7.93657C9.17053 8.0283 8.90067 8.0699 8.7908 7.99524C8.7524 7.96857 8.73747 7.90137 8.76947 7.90137C8.7908 7.90137 8.80893 7.83097 8.7972 7.7819C8.78013 7.71577 8.72893 7.6923 8.6564 7.7179C8.49107 7.7755 8.4964 8.03364 8.66387 8.14457C8.80253 8.2331 9.10547 8.23844 9.2484 8.15524H9.24627ZM9.1364 7.95257C9.14707 7.9419 9.1428 7.92057 9.12573 7.90244C9.0884 7.86297 9.09053 7.8043 9.13107 7.7371C9.16307 7.68697 9.16627 7.6123 9.17693 6.85604C9.19507 5.55044 9.2676 4.57017 9.3636 4.3355C9.402 4.24164 9.3956 4.2395 9.29747 4.33017C9.16947 4.44537 9.07347 4.59684 8.98813 4.81017C8.826 5.2155 8.76947 5.76164 8.76947 6.92644C8.76947 7.58777 8.77373 7.6731 8.80147 7.7371C8.8292 7.7947 8.83027 7.8171 8.81213 7.88004C8.79933 7.92057 8.794 7.96004 8.79933 7.96537C8.8356 8.0123 9.098 8.00057 9.13747 7.9515L9.1364 7.95257ZM8.53372 3.19948H7.46706V4.26615H8.53372V3.19948ZM16.0004 3.19948H14.9337V4.26615H16.0004V3.19948ZM8.53372 11.7328H7.46706V12.7995H8.53372V11.7328ZM16.0004 11.7328H14.9337V12.7995H16.0004V11.7328Z" fill="#AF010D"/>
</g>
<defs>
<clipPath id="clip0_1467_179703">
<rect width="16" height="16" rx="8" fill="white"/>
</clipPath>
</defs>
</svg>
