<svg width="40" height="40" viewBox="0 0 40 40" fill="none" xmlns="http://www.w3.org/2000/svg">
<g clip-path="url(#clip0_4893_3374)">
<path d="M20 39.9999C31.0456 39.9999 39.9999 31.0456 39.9999 20C39.9999 8.95429 31.0456 0 20 0C8.95429 0 0 8.95429 0 20C0 31.0456 8.95429 39.9999 20 39.9999Z" fill="#FFDA44"/>
<path d="M15.6522 3.47827H8.72754C8.42067 3.68804 8.12036 3.9064 7.82606 4.13241L6.08691 19.9999L7.82606 35.8675C8.12036 36.0936 8.42067 36.3119 8.72754 36.5216H15.6522V3.47827Z" fill="#FF9811"/>
<path d="M0 19.9999C0 26.4644 3.06782 32.2114 7.82611 35.8675V4.13232C3.06782 7.78843 0 13.5355 0 19.9999Z" fill="#6DA544"/>
<path d="M32.1738 12.1924V12.6928L32.1924 12.6956L32.1738 12.1924Z" fill="#FFDA44"/>
<path d="M38.4057 25.2174H34.6375L33.0434 26.9565V30.4348H29.5651V28.6957H31.3042V25.2174H23.4781V27.3913H21.739V23.2482C21.2054 22.7706 20.8694 22.0767 20.8694 21.3043V10C20.8694 8.5593 22.0374 7.39133 23.4781 7.39133V23.4783H26.9564L28.1498 22.4837C27.9414 21.9872 27.8259 21.442 27.8259 20.8696V18.261H25.2172V13.0436H30.4346C30.4346 12.1741 31.739 11.3045 31.739 11.3045C31.739 11.3045 33.0434 12.174 33.0434 13.0436V14.348V18.261C34.0108 18.2725 35.5478 18.2474 37.2084 18.261C36.7721 17.4985 36.5216 16.5938 36.5216 15.6524C36.5216 14.1179 37.1841 12.7384 38.2386 11.7837C36.7186 8.41531 34.2931 5.54328 31.2723 3.47827H18.2607V36.5218H31.2723C34.9457 34.0108 37.7386 30.3068 39.0936 25.9678L38.4057 25.2174Z" fill="#A2001D"/>
</g>
<defs>
<clipPath id="clip0_4893_3374">
<rect width="40" height="40" fill="white"/>
</clipPath>
</defs>
</svg>
