<svg width="40" height="40" viewBox="0 0 40 40" fill="none" xmlns="http://www.w3.org/2000/svg">
<g clip-path="url(#clip0_4893_3997)">
<path d="M20 40C31.0457 40 40 31.0457 40 20C40 8.9543 31.0457 0 20 0C8.9543 0 0 8.9543 0 20C0 31.0457 8.9543 40 20 40Z" fill="#F0F0F0"/>
<path d="M19.9995 0C10.7589 0 2.98348 6.26726 0.688477 14.7826H39.3106C37.0155 6.26726 29.24 0 19.9995 0Z" fill="#A2001D"/>
<path d="M19.9995 40.0001C29.24 40.0001 37.0155 33.7328 39.3105 25.2175H0.688477C2.98348 33.7328 10.7589 40.0001 19.9995 40.0001Z" fill="#A2001D"/>
</g>
<defs>
<clipPath id="clip0_4893_3997">
<rect width="40" height="40" fill="white"/>
</clipPath>
</defs>
</svg>
