<svg width="40" height="40" viewBox="0 0 40 40" fill="none" xmlns="http://www.w3.org/2000/svg">
<g clip-path="url(#clip0_4893_3797)">
<path d="M20 40C31.0457 40 40 31.0457 40 20C40 8.9543 31.0457 0 20 0C8.9543 0 0 8.9543 0 20C0 31.0457 8.9543 40 20 40Z" fill="#D80027"/>
<path d="M31.8194 16.4132H22.7902L20 7.82605L17.2099 16.4132H8.18066L15.4854 21.7204L12.6952 30.3078L20 25.0006L27.3049 30.3079L24.5146 21.7205L31.8194 16.4132ZM17.5299 21.0561L18.4734 18.1523H21.5266L22.4702 21.0561V21.0562L20 22.8508L17.53 21.0562L17.5299 21.0561ZM20.9616 16.4132H19.0386L20 13.4539L20.9616 16.4132ZM23.9495 19.9814L23.3552 18.1524H26.4668L23.9495 19.9814ZM16.6448 18.1524L16.0505 19.9814L13.5331 18.1524H16.6448ZM16.0032 25.7547L16.9648 22.7954L18.5207 23.9257L16.0032 25.7547ZM21.4794 23.9258L23.0353 22.7955L23.9968 25.7548L21.4794 23.9258Z" fill="#FFDA44"/>
</g>
<defs>
<clipPath id="clip0_4893_3797">
<rect width="40" height="40" fill="white"/>
</clipPath>
</defs>
</svg>
