<svg width="40" height="40" viewBox="0 0 40 40" fill="none" xmlns="http://www.w3.org/2000/svg">
<g clip-path="url(#clip0_4893_3832)">
<path d="M28.6958 1.98453C26.0664 0.713125 23.1166 0 20.0002 0C16.8838 0 13.9339 0.713125 11.3046 1.98453L9.56543 20L11.3046 38.0155C13.9339 39.2869 16.8838 40 20.0002 40C23.1166 40 26.0664 39.2869 28.6958 38.0155L30.435 20L28.6958 1.98453Z" fill="#FFDA44"/>
<path d="M11.3044 1.98523C4.61453 5.22015 0 12.0709 0 20C0 27.9291 4.61453 34.7798 11.3044 38.0148V1.98523Z" fill="#0052B4"/>
<path d="M28.6953 1.98523V38.0148C35.3852 34.7798 39.9997 27.9291 39.9997 20C39.9997 12.0709 35.3852 5.22015 28.6953 1.98523Z" fill="#D80027"/>
<path d="M26.9559 15.7358H22.1734C22.1734 14.5352 21.2001 13.5619 19.9995 13.5619C18.7988 13.5619 17.8255 14.5352 17.8255 15.7358H13.043C13.043 16.9179 14.0727 17.8761 15.2547 17.8761H15.1834C15.1834 19.0583 16.1417 20.0167 17.3239 20.0167C17.3239 21.0633 18.0756 21.933 19.0684 22.1189L17.3817 25.9269C18.1899 26.2554 19.0732 26.438 19.9995 26.438C20.9256 26.438 21.809 26.2554 22.6171 25.9269L20.9305 22.1189C21.9233 21.933 22.675 21.0633 22.675 20.0167C23.8572 20.0167 24.8155 19.0583 24.8155 17.8761H24.7441C25.9262 17.8761 26.9559 16.9178 26.9559 15.7358Z" fill="#FF9811"/>
<path d="M19.9999 18.6956L17.1738 19.9999V22.6086L19.9999 24.3477L22.826 22.6086V19.9999L19.9999 18.6956Z" fill="#0052B4"/>
<path d="M17.1738 17.3912H22.826V19.9999H17.1738V17.3912Z" fill="#D80027"/>
</g>
<defs>
<clipPath id="clip0_4893_3832">
<rect width="40" height="40" fill="white"/>
</clipPath>
</defs>
</svg>
