<svg width="16" height="16" viewBox="0 0 16 16" fill="none" xmlns="http://www.w3.org/2000/svg">
<g clip-path="url(#clip0_1467_179753)">
<rect width="16" height="16" rx="8" fill="#D4AF2C"/>
<rect x="-2.13379" width="20.2667" height="16" fill="#AF010D"/>
<path fill-rule="evenodd" clip-rule="evenodd" d="M7.99994 5.09744L6.75514 4.26758L5.92633 5.09744H6.75514L5.92633 5.92731L4.2666 5.09744V9.24678L6.75514 8.41478L5.92633 10.0745H5.09647L5.92633 10.9044L6.75514 10.0745L7.99994 11.7342V5.09744ZM9.24473 4.26758L10.0735 5.09744H9.24473L10.0735 5.92731L11.7333 5.09744V9.24678L9.24473 8.41478L10.0735 10.0745H10.9034L10.0735 10.9044L9.24473 10.0745L7.99994 11.7342V5.09744L9.24473 4.26758Z" fill="#D4AF2C"/>
<path fill-rule="evenodd" clip-rule="evenodd" d="M6.40039 6.93932C6.40039 6.05398 7.11079 5.33398 8.00039 5.33398C8.88359 5.33398 9.60039 6.05185 9.60039 6.93932V6.57345C9.60039 7.45878 9.05852 8.65985 8.40572 9.24225L8.00039 9.60065L7.59506 9.24225C6.93692 8.65558 6.40039 7.46092 6.40039 6.57345V6.93932Z" fill="#1A47B8"/>
<path fill-rule="evenodd" clip-rule="evenodd" d="M6.40039 6.40039H9.60039V7.46706H6.40039V6.40039Z" fill="#AE6A3E"/>
</g>
<defs>
<clipPath id="clip0_1467_179753">
<rect width="16" height="16" rx="8" fill="white"/>
</clipPath>
</defs>
</svg>
