<svg width="16" height="16" viewBox="0 0 16 16" fill="none" xmlns="http://www.w3.org/2000/svg">
<g clip-path="url(#clip0_1467_179740)">
<rect width="16" height="16" rx="8" fill="#AF010D"/>
<path fill-rule="evenodd" clip-rule="evenodd" d="M-3.2002 0L7.46647 7.46667H8.53314L1.06647 0H-3.2002ZM-3.2002 16L7.46647 8.53333H8.53314L1.06647 16H-3.2002Z" fill="#FFDA2C"/>
<path fill-rule="evenodd" clip-rule="evenodd" d="M8.53314 7.46667H7.46647L14.9331 0H19.1998L8.53314 7.46667ZM8.53314 8.53333H7.46647L14.9331 16H19.1998L8.53314 8.53333ZM5.33314 7.46667L-3.2002 6.4V9.6L5.33314 8.53333V7.46667ZM10.6665 7.46667L19.1998 6.4V9.6L10.6665 8.53333V7.46667ZM7.46647 5.33333L6.39981 0H9.59981L8.53314 5.33333H7.46647ZM7.46647 10.6667L6.39981 16H9.59981L8.53314 10.6667" fill="#FFDA2C"/>
<path d="M7.99967 10.6673C9.47243 10.6673 10.6663 9.47341 10.6663 8.00065C10.6663 6.52789 9.47243 5.33398 7.99967 5.33398C6.52692 5.33398 5.33301 6.52789 5.33301 8.00065C5.33301 9.47341 6.52692 10.6673 7.99967 10.6673Z" fill="#AF010D"/>
<path d="M8.00039 9.60039C8.88405 9.60039 9.60039 8.88405 9.60039 8.00039C9.60039 7.11674 8.88405 6.40039 8.00039 6.40039C7.11674 6.40039 6.40039 7.11674 6.40039 8.00039C6.40039 8.88405 7.11674 9.60039 8.00039 9.60039Z" fill="#FFDA2C"/>
</g>
<defs>
<clipPath id="clip0_1467_179740">
<rect width="16" height="16" rx="8" fill="white"/>
</clipPath>
</defs>
</svg>
