<svg width="40" height="40" viewBox="0 0 40 40" fill="none" xmlns="http://www.w3.org/2000/svg">
<g clip-path="url(#clip0_4893_3779)">
<path d="M38.756 26.9564C39.56 24.7899 40 22.4464 40 19.9999C40 17.5535 39.56 15.21 38.756 13.0435L20 11.3043L1.24398 13.0435C0.440078 15.21 0 17.5535 0 19.9999C0 22.4464 0.440078 24.7899 1.24398 26.9564L20 28.6956L38.756 26.9564Z" fill="#6DA544"/>
<path d="M38.7562 13.0435C35.9303 5.42744 28.5995 -6.10352e-05 20.0002 -6.10352e-05C11.4009 -6.10352e-05 4.07 5.42744 1.24414 13.0435H38.7562Z" fill="#FFDA44"/>
<path d="M20.0002 39.9999C28.5995 39.9999 35.9303 34.5724 38.7562 26.9564H1.24414C4.07 34.5724 11.4009 39.9999 20.0002 39.9999Z" fill="#D80027"/>
<path d="M33.7147 16.9207H23.2376L19.9999 6.95642L16.7623 16.9207H6.28516L14.7613 23.079L11.5237 33.0435L19.9999 26.9564L28.4762 33.0434L25.2386 23.0789L33.7147 16.9207Z" fill="#F0F0F0"/>
</g>
<defs>
<clipPath id="clip0_4893_3779">
<rect width="40" height="40" fill="white"/>
</clipPath>
</defs>
</svg>
