<svg width="16" height="16" viewBox="0 0 16 16" fill="none" xmlns="http://www.w3.org/2000/svg">
<g clip-path="url(#clip0_1467_179754)">
<rect width="16" height="16" rx="8" fill="#1A47B8"/>
<path fill-rule="evenodd" clip-rule="evenodd" d="M-2.13379 0H5.33288V16H-2.13379V0Z" fill="#F93939"/>
<path fill-rule="evenodd" clip-rule="evenodd" d="M0 7.4668H1.06667V11.7335H0V7.4668ZM3.2 7.4668H4.26667V11.7335H3.2V7.4668Z" fill="#FFDA2C"/>
<path d="M2.13307 11.7329C2.72218 11.7329 3.19974 11.2554 3.19974 10.6663C3.19974 10.0772 2.72218 9.59961 2.13307 9.59961C1.54397 9.59961 1.06641 10.0772 1.06641 10.6663C1.06641 11.2554 1.54397 11.7329 2.13307 11.7329Z" fill="#FFDA2C"/>
<path d="M2.13307 8.53177C2.72218 8.53177 3.19974 8.05421 3.19974 7.4651C3.19974 6.876 2.72218 6.39844 2.13307 6.39844C1.54397 6.39844 1.06641 6.876 1.06641 7.4651C1.06641 8.05421 1.54397 8.53177 2.13307 8.53177Z" fill="#FFDA2C"/>
<path fill-rule="evenodd" clip-rule="evenodd" d="M2.13307 3.19922L3.19974 5.33255H1.06641L2.13307 3.19922Z" fill="#FFDA2C"/>
<path fill-rule="evenodd" clip-rule="evenodd" d="M10.667 0H18.1337V16H10.667V0Z" fill="#F93939"/>
</g>
<defs>
<clipPath id="clip0_1467_179754">
<rect width="16" height="16" rx="8" fill="white"/>
</clipPath>
</defs>
</svg>
