<svg width="40" height="40" viewBox="0 0 40 40" fill="none" xmlns="http://www.w3.org/2000/svg">
<g clip-path="url(#clip0_4893_3859)">
<path d="M2.43164 10.4348L19.9998 12.1739L37.568 10.4348C34.1759 4.21789 27.5807 0 19.9998 0C12.419 0 5.82375 4.21789 2.43164 10.4348Z" fill="#D80027"/>
<path d="M2.4318 29.5652L20 31.3044L37.5682 29.5652C39.1185 26.7238 40 23.4648 40 20L20 18.2609L0 20C0 23.4648 0.881485 26.7238 2.4318 29.5652Z" fill="#FFDA44"/>
<path d="M2.4318 10.4348C0.881485 13.2763 0 16.5352 0 20.0001H40C40 16.5352 39.1185 13.2763 37.5682 10.4348H20H2.4318Z" fill="#0052B4"/>
<path d="M19.9998 40.0001C27.5807 40.0001 34.1759 35.7822 37.568 29.5653H2.43164C5.82375 35.7822 12.419 40.0001 19.9998 40.0001Z" fill="#6DA544"/>
</g>
<defs>
<clipPath id="clip0_4893_3859">
<rect width="40" height="40" fill="white"/>
</clipPath>
</defs>
</svg>
