<svg width="40" height="40" viewBox="0 0 40 40" fill="none" xmlns="http://www.w3.org/2000/svg">
<g clip-path="url(#clip0_4893_3850)">
<path d="M20 40.0001C31.0457 40.0001 40 31.0458 40 20.0001C40 8.95443 31.0457 0.00012207 20 0.00012207C8.95431 0.00012207 0 8.95443 0 20.0001C0 31.0458 8.95431 40.0001 20 40.0001Z" fill="#F0F0F0"/>
<path d="M39.9997 20C39.9997 12.0707 35.3852 5.2195 28.6953 1.9845V38.0154C35.3852 34.7804 39.9997 27.9292 39.9997 20Z" fill="#D80027"/>
<path d="M0 20C0 27.9292 4.61445 34.7804 11.3044 38.0154V1.9845C4.61445 5.2195 0 12.0707 0 20Z" fill="#6DA544"/>
<path d="M14.7822 20C14.7822 22.8815 17.1182 25.2174 19.9996 25.2174C22.8811 25.2174 25.2171 22.8815 25.2171 20V18.2609H14.7822V20Z" fill="#6DA544"/>
<path d="M26.9561 16.5217H21.7387C21.7387 15.5613 20.96 14.7826 19.9995 14.7826C19.0391 14.7826 18.2604 15.5613 18.2604 16.5217H13.043C13.043 17.4823 13.8796 18.2609 14.84 18.2609H14.7821C14.7821 19.2214 15.5607 20 16.5213 20C16.5213 20.9606 17.2998 21.7392 18.2604 21.7392H21.7387C22.6992 21.7392 23.4778 20.9606 23.4778 20C24.4384 20 25.217 19.2214 25.217 18.2609H25.159C26.1195 18.2609 26.9561 17.4823 26.9561 16.5217Z" fill="#FF9811"/>
</g>
<defs>
<clipPath id="clip0_4893_3850">
<rect width="40" height="40" fill="white"/>
</clipPath>
</defs>
</svg>
