<svg width="40" height="40" viewBox="0 0 40 40" fill="none" xmlns="http://www.w3.org/2000/svg">
<g clip-path="url(#clip0_4893_3894)">
<path d="M20 40.0001C31.0457 40.0001 40 31.0458 40 20.0001C40 8.95443 31.0457 0.00012207 20 0.00012207C8.9543 0.00012207 0 8.95443 0 20.0001C0 31.0458 8.9543 40.0001 20 40.0001Z" fill="#F0F0F0"/>
<path d="M19.1309 20.0001H40.0004C40.0004 18.1949 39.7598 16.4463 39.3114 14.7827H19.1309V20.0001Z" fill="#D80027"/>
<path d="M19.1309 9.56532H37.0649C35.8406 7.56751 34.2754 5.80165 32.4502 4.3479H19.1309V9.56532Z" fill="#D80027"/>
<path d="M20.0005 40.0002C24.7075 40.0002 29.0338 38.3733 32.4503 35.6523H7.55078C10.9673 38.3733 15.2936 40.0002 20.0005 40.0002Z" fill="#D80027"/>
<path d="M2.93594 30.4348H37.065C38.0479 28.8311 38.8101 27.0779 39.3115 25.2174H0.689453C1.19078 27.0779 1.95305 28.8311 2.93594 30.4348Z" fill="#D80027"/>
<path d="M20 20.0001C20 8.9545 20 7.65231 20 0.00012207C8.95437 0.00012207 0 8.9545 0 20.0001H20Z" fill="#0052B4"/>
<path d="M13.2997 17.1195C10.5683 17.1195 8.35406 14.9052 8.35406 12.1739C8.35406 9.44258 10.5684 7.22829 13.2997 7.22829C14.1513 7.22829 14.9527 7.44368 15.6523 7.82274C14.5548 6.74954 13.0538 6.08704 11.3975 6.08704C8.03586 6.08704 5.31055 8.81227 5.31055 12.174C5.31055 15.5357 8.03586 18.2609 11.3975 18.2609C13.0538 18.2609 14.5548 17.5984 15.6523 16.5252C14.9527 16.9041 14.1514 17.1195 13.2997 17.1195Z" fill="#FFDA44"/>
<path d="M14.6928 8.69568L15.5709 10.5318L17.5537 10.0736L16.6658 11.9048L18.2605 13.1694L16.275 13.617L16.2805 15.6522L14.6928 14.379L13.105 15.6522L13.1105 13.617L11.125 13.1694L12.7197 11.9048L11.8316 10.0736L13.8147 10.5318L14.6928 8.69568Z" fill="#FFDA44"/>
</g>
<defs>
<clipPath id="clip0_4893_3894">
<rect width="40" height="40" fill="white"/>
</clipPath>
</defs>
</svg>
