<svg width="40" height="40" viewBox="0 0 40 40" fill="none" xmlns="http://www.w3.org/2000/svg">
<g clip-path="url(#clip0_4893_3786)">
<path d="M20 39.9999C31.0457 39.9999 40 31.0456 40 19.9999C40 8.95424 31.0457 -6.10352e-05 20 -6.10352e-05C8.95431 -6.10352e-05 0 8.95424 0 19.9999C0 31.0456 8.95431 39.9999 20 39.9999Z" fill="#F0F0F0"/>
<path d="M10.8101 27.826L5.8584 34.1414C9.47746 37.761 14.4769 40 19.9999 40C28.2678 40 35.3627 34.9821 38.4086 27.826H10.8101Z" fill="#FFDA44"/>
<path d="M38.4397 12.2463C35.4108 5.05166 28.2958 -6.10352e-05 19.9999 -6.10352e-05C14.4769 -6.10352e-05 9.47746 2.23892 5.8584 5.85845L10.867 12.2463H38.4397Z" fill="#496E2D"/>
<path d="M4.34766 14.7101V25.2173H39.3109C39.7595 23.554 39.9998 21.8052 39.9998 20C39.9998 18.1686 39.7531 16.3951 39.2919 14.7101H4.34766Z" fill="black"/>
<path d="M5.85785 5.85779C-1.95262 13.6683 -1.95262 26.3316 5.85785 34.1422C9.08543 30.9146 12.1896 27.8104 20 20L5.85785 5.85779Z" fill="#A2001D"/>
<path d="M8.09426 14.7825L9.38918 18.7682H13.5803L10.1898 21.2316L11.4846 25.2174L8.09426 22.754L4.70371 25.2174L5.99887 21.2316L2.6084 18.7682H6.79918L8.09426 14.7825Z" fill="#FFDA44"/>
<path d="M4.30566 19.9999H11.8857V23.4782H4.30566V19.9999Z" fill="#F0F0F0"/>
<path d="M13.3205 16.0124L12.0908 14.7825L8.09484 18.7785L4.09891 14.7825L2.86914 16.0124L6.86859 20.0047L2.86914 24.0043L4.09891 25.2174L8.09484 21.2286L12.0908 25.2174L13.3205 24.0043L9.32109 20.0047L13.3205 16.0124Z" fill="black"/>
</g>
<defs>
<clipPath id="clip0_4893_3786">
<rect width="40" height="40" fill="white"/>
</clipPath>
</defs>
</svg>
