<svg width="40" height="40" viewBox="0 0 40 40" fill="none" xmlns="http://www.w3.org/2000/svg">
<g clip-path="url(#clip0_4893_3770)">
<path d="M20 40C31.0457 40 40 31.0457 40 20C40 8.9543 31.0457 0 20 0C8.95431 0 0 8.9543 0 20C0 31.0457 8.95431 40 20 40Z" fill="#F0F0F0"/>
<path d="M5.85816 34.1421C6.69715 34.9811 7.5923 35.7293 8.53129 36.3881L36.3882 8.53104C35.7296 7.59206 34.9814 6.6969 34.1423 5.85792C33.3033 5.01894 32.4082 4.27081 31.4692 3.61206L3.6123 31.4691C4.27098 32.4079 5.01918 33.3032 5.85816 34.1421Z" fill="#A2001D"/>
<path d="M5.85811 5.85768C-0.451577 12.1674 -1.66283 21.6433 2.22178 29.17L29.1704 2.2215C21.6437 -1.6631 12.1676 -0.451698 5.85811 5.85768Z" fill="#0052B4"/>
<path d="M34.1423 34.1422C40.4519 27.8326 41.6631 18.3566 37.7787 10.8298L10.8301 37.7784C18.3567 41.663 27.8327 40.4518 34.1423 34.1422Z" fill="#496E2D"/>
<path d="M16.522 11.3043L14.2809 12.3585L15.4743 14.5289L13.0408 14.0635L12.7323 16.5217L11.0373 14.7136L9.34227 16.5217L9.03399 14.0635L6.60039 14.5289L7.79375 12.3584L5.55273 11.3043L7.79383 10.2501L6.60039 8.0798L9.03391 8.54527L9.34234 6.08691L11.0373 7.89504L12.7324 6.08691L13.0408 8.54527L15.4743 8.0798L14.281 10.2502L16.522 11.3043Z" fill="#FFDA44"/>
</g>
<defs>
<clipPath id="clip0_4893_3770">
<rect width="40" height="40" fill="white"/>
</clipPath>
</defs>
</svg>
