<svg width="40" height="40" viewBox="0 0 40 40" fill="none" xmlns="http://www.w3.org/2000/svg">
<g clip-path="url(#clip0_4893_3682)">
<path d="M20 40C31.0457 40 40 31.0457 40 20C40 8.9543 31.0457 0 20 0C8.95431 0 0 8.9543 0 20C0 31.0457 8.95431 40 20 40Z" fill="#F0F0F0"/>
<path d="M0.689453 25.2175C1.84664 29.5112 4.39703 33.2326 7.82656 35.8677V25.2175H0.689453Z" fill="#D80027"/>
<path d="M18.2617 39.924C18.835 39.9734 19.4148 40.0001 20.0009 40.0001C29.2414 40.0001 37.0169 33.7328 39.3119 25.2175H18.2617V39.924Z" fill="#D80027"/>
<path d="M39.3119 14.7826C37.0169 6.26726 29.2414 0 20.0009 0C19.4148 0 18.835 0.0267187 18.2617 0.0760937V14.7826H39.3119Z" fill="#D80027"/>
<path d="M7.82656 4.13257C4.39703 6.76772 1.84664 10.4891 0.689453 14.7827H7.82656V4.13257Z" fill="#D80027"/>
<path d="M39.8307 17.3913H15.6523H15.6522V0.475342C13.8039 0.885185 12.0516 1.54948 10.4348 2.43175V17.3911V17.3912H0.169297C0.0579688 18.2452 0 19.1158 0 19.9999C0 20.8841 0.0579688 21.7547 0.169297 22.6086H10.4347H10.4348V37.5681C12.0516 38.4503 13.8039 39.1147 15.6522 39.5245V22.6089V22.6087H39.8307C39.9419 21.7547 40 20.8841 40 19.9999C40 19.1158 39.9419 18.2452 39.8307 17.3913Z" fill="#0052B4"/>
</g>
<defs>
<clipPath id="clip0_4893_3682">
<rect width="40" height="40" fill="white"/>
</clipPath>
</defs>
</svg>
