<svg width="40" height="40" viewBox="0 0 40 40" fill="none" xmlns="http://www.w3.org/2000/svg">
<g clip-path="url(#clip0_4893_3749)">
<path d="M20 40C31.0457 40 40 31.0457 40 20C40 8.9543 31.0457 0 20 0C8.9543 0 0 8.9543 0 20C0 31.0457 8.9543 40 20 40Z" fill="#F0F0F0"/>
<path d="M39.882 22.1739C39.882 22.1738 39.8821 22.1736 39.8821 22.1733L17.9489 0.104004C16.9595 0.204863 15.9913 0.377832 15.0498 0.617598C6.39828 2.82033 0 20 0 20C0 20 27.9998 38.7371 31.1941 36.5753C31.8333 36.1428 32.4461 35.6743 33.0295 35.1728L20.0309 22.1739H39.882Z" fill="#0052B4"/>
<path d="M34.7826 19.9999L15.3316 0.549072C6.53813 2.65196 0 10.5618 0 19.9999C0 31.0456 8.95438 39.9999 20 39.9999C24.1898 39.9999 28.0779 38.7107 31.2913 36.5086L14.7826 19.9999H34.7826Z" fill="#D80027"/>
<path d="M19.021 29.5308L16.5784 28.3819L17.8791 26.0163L15.2268 26.5238L14.8907 23.8442L13.0432 25.8149L11.1958 23.8442L10.8596 26.5238L8.20738 26.0163L9.50809 28.3819L7.06543 29.5308L9.50809 30.6796L8.20738 33.0453L10.8598 32.5379L11.1957 35.2173L13.0432 33.2466L14.8907 35.2173L15.2268 32.5379L17.879 33.0453L16.5783 30.6798L19.021 29.5308Z" fill="#F0F0F0"/>
<path d="M17.391 11.0925L15.6145 10.2569L16.5605 8.53639L14.6313 8.90545L14.3869 6.95654L13.0432 8.3899L11.6995 6.95654L11.455 8.90545L9.52586 8.53639L10.472 10.2569L8.69531 11.0925L13.0432 11.9622L17.391 11.0925Z" fill="#F0F0F0"/>
<path d="M18.261 11.0925C18.261 13.974 15.9251 16.31 13.0436 16.31C10.1621 16.31 7.82617 13.974 7.82617 11.0925" fill="#F0F0F0"/>
</g>
<defs>
<clipPath id="clip0_4893_3749">
<rect width="40" height="40" fill="white"/>
</clipPath>
</defs>
</svg>
