<svg width="16" height="16" viewBox="0 0 16 16" fill="none" xmlns="http://www.w3.org/2000/svg">
<path fill-rule="evenodd" clip-rule="evenodd" d="M1.06641 0L14.9331 8.53333H7.46641L14.9331 16H1.06641V0Z" fill="#003495"/>
<path fill-rule="evenodd" clip-rule="evenodd" d="M2.13287 2.13281L10.6662 7.46615H4.26621L11.7329 14.9328H2.13282C2.13281 14.3995 2.13287 14.4464 2.13287 13.864V2.13281Z" fill="#DF0A37"/>
<path fill-rule="evenodd" clip-rule="evenodd" d="M6.30953 5.33398C6.3682 5.41718 6.4002 5.50678 6.4002 5.60065C6.4002 6.04225 5.6834 6.40065 4.8002 6.40065C3.917 6.40065 3.2002 6.04225 3.2002 5.60065C3.2002 5.50678 3.2322 5.41718 3.29086 5.33398C3.5106 5.48972 4.10366 5.60065 4.8002 5.60065C5.49673 5.60065 6.09086 5.48972 6.30953 5.33398Z" fill="white"/>
<path d="M4.8002 13.866C5.68385 13.866 6.4002 13.1497 6.4002 12.266C6.4002 11.3824 5.68385 10.666 4.8002 10.666C3.91654 10.666 3.2002 11.3824 3.2002 12.266C3.2002 13.1497 3.91654 13.866 4.8002 13.866Z" fill="white"/>
</svg>
