<svg width="40" height="40" viewBox="0 0 40 40" fill="none" xmlns="http://www.w3.org/2000/svg">
<g clip-path="url(#clip0_4893_3761)">
<path d="M20 40C31.0457 40 40 31.0457 40 20C40 8.95431 31.0457 0 20 0C8.95431 0 0 8.95431 0 20C0 31.0457 8.95431 40 20 40Z" fill="#0052B4"/>
<path d="M20 40C31.0457 40 40 31.0457 40 20C40 8.95431 31.0457 0 20 0C8.95431 0 0 8.95431 0 20C0 31.0457 8.95431 40 20 40Z" fill="#FFDA44"/>
<path d="M20 0C9.54031 0 0.957656 8.02977 0.0761719 18.2609H39.9239C39.0423 8.02977 30.4597 0 20 0Z" fill="#0052B4"/>
<path d="M20 39.9999C30.4597 39.9999 39.0423 31.9701 39.9239 21.739H0.0761719C0.957656 31.9701 9.54031 39.9999 20 39.9999Z" fill="#0052B4"/>
<path d="M16.522 26.9564L14.2809 28.0106L15.4743 30.181L13.0408 29.7154L12.7324 32.1738L11.0373 30.3657L9.34234 32.1738L9.03398 29.7154L6.60039 30.1809L7.79383 28.0105L5.55273 26.9564L7.79391 25.9022L6.60039 23.7319L9.0339 24.1974L9.34242 21.739L11.0373 23.5471L12.7325 21.739L13.0408 24.1974L15.4744 23.7319L14.281 25.9023L16.522 26.9564Z" fill="#F0F0F0"/>
</g>
<defs>
<clipPath id="clip0_4893_3761">
<rect width="40" height="40" fill="white"/>
</clipPath>
</defs>
</svg>
