<svg width="16" height="16" viewBox="0 0 16 16" fill="none" xmlns="http://www.w3.org/2000/svg">
<g clip-path="url(#clip0_1467_179745)">
<rect width="16" height="16" rx="8" fill="#1A47B8"/>
<path d="M17.0665 0H-1.06686C-2.24507 0 -3.2002 0.955126 -3.2002 2.13333V13.8667C-3.2002 15.0449 -2.24507 16 -1.06686 16H17.0665C18.2447 16 19.1998 15.0449 19.1998 13.8667V2.13333C19.1998 0.955126 18.2447 0 17.0665 0Z" fill="#1A47B8"/>
<path fill-rule="evenodd" clip-rule="evenodd" d="M12.8003 4.26758V5.33424H13.867V4.26758H12.8003ZM14.9337 6.40091V7.46758H16.0003V6.40091H14.9337ZM10.667 7.46758V8.53424H11.7337V7.46758H10.667ZM12.8003 11.7342V12.8009H13.867V11.7342H12.8003Z" fill="#F93939"/>
<path d="M6.39954 1.06641H-1.06712C-1.65623 1.06641 -2.13379 1.54397 -2.13379 2.13307V7.46641C-2.13379 8.05551 -1.65623 8.53307 -1.06712 8.53307H6.39954C6.98865 8.53307 7.46621 8.05551 7.46621 7.46641V2.13307C7.46621 1.54397 6.98865 1.06641 6.39954 1.06641Z" fill="white"/>
<path fill-rule="evenodd" clip-rule="evenodd" d="M2.13359 5.33281H-1.06641V4.26615H2.13359V2.13281H3.20026V4.26615H6.40026V5.33281H3.20026V7.46615H2.13359V5.33281ZM4.80026 6.39948V7.46615H6.40026V6.39948H4.80026ZM4.80026 2.13281V3.19948H6.40026V2.13281H4.80026ZM-1.06641 6.39948V7.46615H0.533594V6.39948H-1.06641ZM-1.06641 2.13281V3.19948H0.533594V2.13281H-1.06641Z" fill="#F93939"/>
</g>
<defs>
<clipPath id="clip0_1467_179745">
<rect width="16" height="16" rx="8" fill="white"/>
</clipPath>
</defs>
</svg>
