<svg width="16" height="16" viewBox="0 0 16 16" fill="none" xmlns="http://www.w3.org/2000/svg">
<g clip-path="url(#clip0_1467_179738)">
<rect width="16" height="16" rx="8" fill="#F93939"/>
<path d="M17.0665 0H-1.06686C-2.24507 0 -3.2002 0.955126 -3.2002 2.13333V13.8667C-3.2002 15.0449 -2.24507 16 -1.06686 16H17.0665C18.2447 16 19.1998 15.0449 19.1998 13.8667V2.13333C19.1998 0.955126 18.2447 0 17.0665 0Z" fill="#F93939"/>
<path fill-rule="evenodd" clip-rule="evenodd" d="M3.2002 10.666H19.2002V15.9993H3.2002V10.666Z" fill="#249F58"/>
<path fill-rule="evenodd" clip-rule="evenodd" d="M3.19996 0H19.2V5.33333H3.19996V0ZM1.68103 4.1632C1.62236 4.25173 1.55516 4.33387 1.47836 4.41173C0.852227 5.0368 -0.161106 5.0368 -0.785106 4.41173C-1.41017 3.78773 -1.41017 2.7744 -0.785106 2.1504C-0.708306 2.07147 -0.625106 2.00427 -0.536573 1.9456C-0.776573 2.3936 -0.57924 3.1104 -0.030973 3.6576C0.517294 4.20373 1.23303 4.40213 1.68209 4.16213L1.68103 4.1632Z" fill="white"/>
<path fill-rule="evenodd" clip-rule="evenodd" d="M-0.614168 4.16291C-0.555501 4.25145 -0.488301 4.33358 -0.411501 4.41145C0.214632 5.03651 1.22797 5.03651 1.85197 4.41145C2.47703 3.78745 2.47703 2.77411 1.85197 2.15011C1.77517 2.07118 1.69197 2.00398 1.60343 1.94531C1.84343 2.39331 1.6461 3.11011 1.09783 3.65731C0.549565 4.20345 -0.166168 4.40185 -0.615234 4.16185L-0.614168 4.16291Z" fill="white"/>
</g>
<defs>
<clipPath id="clip0_1467_179738">
<rect width="16" height="16" rx="8" fill="white"/>
</clipPath>
</defs>
</svg>
