<svg width="16" height="16" viewBox="0 0 16 16" fill="none" xmlns="http://www.w3.org/2000/svg">
<g clip-path="url(#clip0_1467_179734)">
<rect width="16" height="16" rx="8" fill="white"/>
<path d="M17.0665 0H-1.06686C-2.24507 0 -3.2002 0.955126 -3.2002 2.13333V13.8667C-3.2002 15.0449 -2.24507 16 -1.06686 16H17.0665C18.2447 16 19.1998 15.0449 19.1998 13.8667V2.13333C19.1998 0.955126 18.2447 0 17.0665 0Z" fill="white"/>
<path fill-rule="evenodd" clip-rule="evenodd" d="M3.17201 5.30482C3.10161 5.94055 2.90107 6.39922 2.66641 6.39922C2.43174 6.39922 2.23121 5.94055 2.16081 5.30482C1.52507 5.23442 1.06641 5.03389 1.06641 4.79922C1.06641 4.56455 1.52507 4.36402 2.16081 4.29362C2.23121 3.65789 2.43174 3.19922 2.66641 3.19922C2.90107 3.19922 3.10161 3.65789 3.17201 4.29362C3.80774 4.36402 4.26641 4.56455 4.26641 4.79922C4.26641 5.03389 3.80774 5.23442 3.17201 5.30482Z" fill="#1A47B8"/>
<path fill-rule="evenodd" clip-rule="evenodd" d="M13.839 12.7716C13.7686 13.4073 13.5681 13.866 13.3334 13.866C13.0987 13.866 12.8982 13.4073 12.8278 12.7716C12.1921 12.7012 11.7334 12.5007 11.7334 12.266C11.7334 12.0313 12.1921 11.8308 12.8278 11.7604C12.8982 11.1247 13.0977 10.666 13.3334 10.666C13.5681 10.666 13.7686 11.1247 13.839 11.7604C14.4747 11.8308 14.9334 12.0303 14.9334 12.266C14.9334 12.5007 14.4747 12.7012 13.839 12.7716Z" fill="#F93939"/>
<path fill-rule="evenodd" clip-rule="evenodd" d="M-3.2002 8.5332H7.46647V15.9999H-3.2002V8.5332Z" fill="#1A47B8"/>
<path fill-rule="evenodd" clip-rule="evenodd" d="M7.4668 0H19.2001V8.53333H7.4668V0Z" fill="#F93939"/>
</g>
<defs>
<clipPath id="clip0_1467_179734">
<rect width="16" height="16" rx="8" fill="white"/>
</clipPath>
</defs>
</svg>
