<svg width="16" height="16" viewBox="0 0 16 16" fill="none" xmlns="http://www.w3.org/2000/svg">
<g clip-path="url(#clip0_1467_179733)">
<rect width="16" height="16" rx="8" fill="#AF010D"/>
<path d="M17.0665 0H-1.06686C-2.24507 0 -3.2002 0.955126 -3.2002 2.13333V13.8667C-3.2002 15.0449 -2.24507 16 -1.06686 16H17.0665C18.2447 16 19.1998 15.0449 19.1998 13.8667V2.13333C19.1998 0.955126 18.2447 0 17.0665 0Z" fill="#AF010D"/>
<path fill-rule="evenodd" clip-rule="evenodd" d="M9.60013 3.19948L11.7335 5.33281C11.7335 5.33281 9.60013 4.26615 8.53346 5.33281L7.4668 6.39948H10.6668L16.0001 9.59948L13.8668 6.39948H16.0001C16.0001 6.39948 16.0001 5.33281 14.9335 4.26615C13.8668 3.19948 12.8001 3.19948 12.8001 3.19948V2.13281L11.7335 3.19948H9.60013Z" fill="#FFDA2C"/>
<path fill-rule="evenodd" clip-rule="evenodd" d="M-3.2002 0L19.1998 16H-3.2002V0Z" fill="#151515"/>
<path d="M2.66712 8.53346C2.96167 8.53346 3.20046 8.29468 3.20046 8.00013C3.20046 7.70558 2.96167 7.4668 2.66712 7.4668C2.37257 7.4668 2.13379 7.70558 2.13379 8.00013C2.13379 8.29468 2.37257 8.53346 2.66712 8.53346Z" fill="white"/>
<path d="M0.533333 10.6663C0.827885 10.6663 1.06667 10.4275 1.06667 10.1329C1.06667 9.83839 0.827885 9.59961 0.533333 9.59961C0.238781 9.59961 0 9.83839 0 10.1329C0 10.4275 0.238781 10.6663 0.533333 10.6663Z" fill="white"/>
<path d="M4.79993 10.6663C5.09449 10.6663 5.33327 10.4275 5.33327 10.1329C5.33327 9.83839 5.09449 9.59961 4.79993 9.59961C4.50538 9.59961 4.2666 9.83839 4.2666 10.1329C4.2666 10.4275 4.50538 10.6663 4.79993 10.6663Z" fill="white"/>
<path d="M2.66712 13.8674C2.96167 13.8674 3.20046 13.6287 3.20046 13.3341C3.20046 13.0396 2.96167 12.8008 2.66712 12.8008C2.37257 12.8008 2.13379 13.0396 2.13379 13.3341C2.13379 13.6287 2.37257 13.8674 2.66712 13.8674Z" fill="white"/>
<path d="M3.73353 12.7991C4.02808 12.7991 4.26686 12.5603 4.26686 12.2658C4.26686 11.9712 4.02808 11.7324 3.73353 11.7324C3.43898 11.7324 3.2002 11.9712 3.2002 12.2658C3.2002 12.5603 3.43898 12.7991 3.73353 12.7991Z" fill="white"/>
</g>
<defs>
<clipPath id="clip0_1467_179733">
<rect width="16" height="16" rx="8" fill="white"/>
</clipPath>
</defs>
</svg>
