<svg width="16" height="16" viewBox="0 0 16 16" fill="none" xmlns="http://www.w3.org/2000/svg">
<g clip-path="url(#clip0_1467_179730)">
<rect width="16" height="16" rx="8" fill="#F93939"/>
<path d="M17.0665 0H-1.06686C-2.24507 0 -3.2002 0.955126 -3.2002 2.13333V13.8667C-3.2002 15.0449 -2.24507 16 -1.06686 16H17.0665C18.2447 16 19.1998 15.0449 19.1998 13.8667V2.13333C19.1998 0.955126 18.2447 0 17.0665 0Z" fill="#F93939"/>
<path fill-rule="evenodd" clip-rule="evenodd" d="M-3.2002 0H19.1998V8.53333H-3.2002V0Z" fill="#1A47B8"/>
<path fill-rule="evenodd" clip-rule="evenodd" d="M-3.2002 0V16.0352L7.46647 8L-3.2002 0Z" fill="white"/>
<path fill-rule="evenodd" clip-rule="evenodd" d="M1.58426 8.51785C2.51226 8.45919 3.20026 8.25119 3.20026 8.00052C3.20026 7.75092 2.51226 7.54185 1.58426 7.48319C1.52559 6.55519 1.31759 5.86719 1.06693 5.86719C0.817327 5.86719 0.608261 6.55519 0.549594 7.48319C-0.378406 7.54185 -1.06641 7.74985 -1.06641 8.00052C-1.06641 8.25012 -0.378406 8.45919 0.549594 8.51785C0.607194 9.44585 0.81626 10.1339 1.06693 10.1339C1.31653 10.1339 1.52559 9.44585 1.58426 8.51785Z" fill="#FFDA2C"/>
<path d="M4.79993 8.53346C5.09449 8.53346 5.33327 8.29468 5.33327 8.00013C5.33327 7.70558 5.09449 7.4668 4.79993 7.4668C4.50538 7.4668 4.2666 7.70558 4.2666 8.00013C4.2666 8.29468 4.50538 8.53346 4.79993 8.53346Z" fill="#FFDA2C"/>
</g>
<defs>
<clipPath id="clip0_1467_179730">
<rect width="16" height="16" rx="8" fill="white"/>
</clipPath>
</defs>
</svg>
