<svg width="16" height="16" viewBox="0 0 16 16" fill="none" xmlns="http://www.w3.org/2000/svg">
<g clip-path="url(#clip0_1467_179737)">
<rect width="16" height="16" rx="8" fill="#0A6A30"/>
<path d="M18.1329 0H-0.000455856C-1.17866 0 -2.13379 0.955126 -2.13379 2.13333V13.8667C-2.13379 15.0449 -1.17866 16 -0.000455856 16H18.1329C19.3111 16 20.2662 15.0449 20.2662 13.8667V2.13333C20.2662 0.955126 19.3111 0 18.1329 0Z" fill="#0A6A30"/>
<path fill-rule="evenodd" clip-rule="evenodd" d="M13.8387 6.37227C13.7683 7.008 13.5678 7.46667 13.3331 7.46667C13.0985 7.46667 12.8979 7.008 12.8275 6.37227C12.1918 6.30187 11.7331 6.10133 11.7331 5.86667C11.7331 5.632 12.1918 5.43147 12.8275 5.36107C12.8979 4.72533 13.0985 4.26667 13.3331 4.26667C13.5678 4.26667 13.7683 4.72533 13.8387 5.36107C14.4745 5.43147 14.9331 5.632 14.9331 5.86667C14.9331 6.10133 14.4745 6.30187 13.8387 6.37227ZM-3.2002 0H3.1998V16H-3.2002V0Z" fill="white"/>
<path fill-rule="evenodd" clip-rule="evenodd" d="M15.9684 7.43175C15.9897 7.61842 16.0004 7.80722 16.0004 7.99922C16.0004 10.6499 13.8511 12.7992 11.2004 12.7992C8.54972 12.7992 6.40039 10.6499 6.40039 7.99922C6.40039 5.34855 8.54972 3.19922 11.2004 3.19922C11.3924 3.19922 11.5812 3.20989 11.7679 3.23122C9.94172 3.47655 8.53372 5.04135 8.53372 6.93255C8.53372 8.99442 10.2052 10.6659 12.2671 10.6659C14.1593 10.6659 15.7231 9.25789 15.9684 7.43175Z" fill="white"/>
</g>
<defs>
<clipPath id="clip0_1467_179737">
<rect width="16" height="16" rx="8" fill="white"/>
</clipPath>
</defs>
</svg>
