<svg width="16" height="16" viewBox="0 0 16 16" fill="none" xmlns="http://www.w3.org/2000/svg">
<g clip-path="url(#clip0_1467_179732)">
<rect width="16" height="16" rx="8" fill="white"/>
<path fill-rule="evenodd" clip-rule="evenodd" d="M-3.2002 10.666H19.1998V15.9993H-3.2002V10.666Z" fill="#1A47B8"/>
<path fill-rule="evenodd" clip-rule="evenodd" d="M9.56839 7.67969C9.58972 7.78315 9.60039 7.88982 9.60039 7.99969C9.60039 8.88289 8.88359 9.59969 8.00039 9.59969C7.11719 9.59969 6.40039 8.88289 6.40039 7.99969C6.40039 7.88982 6.41106 7.78315 6.43239 7.67969C6.58172 8.16609 7.22599 8.53302 8.00039 8.53302C8.77479 8.53302 9.41906 8.16609 9.56839 7.67969Z" fill="#249F58"/>
<path d="M8.00013 7.46706C8.29468 7.46706 8.53346 7.22828 8.53346 6.93372C8.53346 6.63917 8.29468 6.40039 8.00013 6.40039C7.70558 6.40039 7.4668 6.63917 7.4668 6.93372C7.4668 7.22828 7.70558 7.46706 8.00013 7.46706Z" fill="#FFDA2C"/>
<path fill-rule="evenodd" clip-rule="evenodd" d="M-3.2002 0H19.1998V5.33333H-3.2002V0Z" fill="#F93939"/>
</g>
<defs>
<clipPath id="clip0_1467_179732">
<rect width="16" height="16" rx="8" fill="white"/>
</clipPath>
</defs>
</svg>
