<svg width="40" height="40" viewBox="0 0 40 40" fill="none" xmlns="http://www.w3.org/2000/svg">
<g clip-path="url(#clip0_4893_3485)">
<path d="M20 39.9998C31.0457 39.9998 40 31.0454 40 19.9998C40 8.95406 31.0457 -0.000244141 20 -0.000244141C8.95431 -0.000244141 0 8.95406 0 19.9998C0 31.0454 8.95431 39.9998 20 39.9998Z" fill="#F0F0F0"/>
<path d="M20 -0.000244141C8.95438 -0.000244141 0 8.95413 0 19.9998C0 22.4462 0.440078 24.7897 1.24398 26.9562H38.7561C39.56 24.7897 40 22.4462 40 19.9998C40 8.95413 31.0456 -0.000244141 20 -0.000244141Z" fill="#0052B4"/>
<path d="M20.0002 0C11.4009 0 4.07 5.4275 1.24414 13.0435H38.7562C35.9303 5.4275 28.5995 0 20.0002 0Z" fill="#D80027"/>
<path d="M5.17188 11.3044V21.2815C5.17188 26.9568 12.586 28.6958 12.586 28.6958C12.586 28.6958 20.0001 26.9568 20.0001 21.2815V11.3044H5.17188Z" fill="#D80027"/>
<path d="M8.2373 13.0433H16.933V9.56507L15.1939 10.4346L12.5852 7.82593L9.97645 10.4346L8.2373 9.56507V13.0433Z" fill="#FFDA44"/>
<path d="M18.2604 22.6703L12.6082 17.0181L6.95605 22.6703L8.80066 24.5149L12.6082 20.7073L16.4158 24.5149L18.2604 22.6703Z" fill="#FFDA44"/>
<path d="M18.2604 17.3912H15.6232C15.7715 17.1353 15.8578 16.8389 15.8578 16.5219C15.8578 15.5612 15.0791 14.7827 14.1186 14.7827C13.455 14.7827 12.8786 15.1544 12.5854 15.7009C12.2922 15.1545 11.7159 14.7827 11.0522 14.7827C10.0918 14.7827 9.31309 15.5612 9.31309 16.5219C9.31309 16.8389 9.39934 17.1354 9.54762 17.3912H6.95605C6.95605 18.3518 7.7927 19.1304 8.75309 19.1304H8.6952C8.6952 20.0909 9.47379 20.8695 10.4343 20.8695C10.4343 21.72 11.0451 22.4265 11.8518 22.5778L10.4814 25.6717C11.1382 25.9387 11.8558 26.0869 12.6083 26.0869C13.3608 26.0869 14.0785 25.9387 14.7352 25.6717L13.3649 22.5778C14.1715 22.4267 14.7823 21.7201 14.7823 20.8695C15.7429 20.8695 16.5214 20.0909 16.5214 19.1304H16.4636C17.4239 19.1304 18.2604 18.3517 18.2604 17.3912Z" fill="#F0F0F0"/>
</g>
<defs>
<clipPath id="clip0_4893_3485">
<rect width="40" height="40" fill="white"/>
</clipPath>
</defs>
</svg>
