<svg width="40" height="40" viewBox="0 0 40 40" fill="none" xmlns="http://www.w3.org/2000/svg">
<g clip-path="url(#clip0_4893_3570)">
<path d="M0 20C0 23.4648 0.881485 26.7238 2.4318 29.5652L20 31.3044L37.5682 29.5652C39.1185 26.7238 40 23.4648 40 20L20 18.2609L0 20Z" fill="#FFDA44"/>
<path d="M37.5682 10.4349C34.1761 4.21801 27.5809 0.00012207 20 0.00012207C12.4191 0.00012207 5.82391 4.21801 2.4318 10.4349C0.881484 13.2764 0 16.5353 0 20.0001H40C40 16.5353 39.1185 13.2764 37.5682 10.4349Z" fill="#338AF3"/>
<path d="M19.9998 40.0001C27.5807 40.0001 34.1759 35.7822 37.568 29.5653H2.43164C5.82375 35.7822 12.419 40.0001 19.9998 40.0001Z" fill="#496E2D"/>
<path d="M22.6084 11.7048L25.0511 12.8538L23.7504 15.2194L26.4027 14.7121L26.7388 17.3914L28.5861 15.4208L30.4336 17.3914L30.7697 14.7121L33.422 15.2193L32.1214 12.8537L34.5639 11.7048L32.1213 10.556L33.422 8.19039L30.7697 8.69773L30.4336 6.01843L28.5861 7.98906L26.7387 6.01843L26.4027 8.69773L23.7503 8.19039L25.051 10.5561L22.6084 11.7048Z" fill="#FFDA44"/>
</g>
<defs>
<clipPath id="clip0_4893_3570">
<rect width="40" height="40" fill="white"/>
</clipPath>
</defs>
</svg>
