<svg width="16" height="16" viewBox="0 0 16 16" fill="none" xmlns="http://www.w3.org/2000/svg">
<rect width="16" height="16" rx="8" fill="#249F58"/>
<path fill-rule="evenodd" clip-rule="evenodd" d="M13.8669 10.6663V9.59962H2.13358L4.26691 10.6663H10.6669C10.6669 11.2551 11.3837 11.7329 12.2669 11.7329C13.1501 11.7329 13.8669 11.2551 13.8669 10.6663ZM6.11224 4.16602C6.09944 4.16602 6.08024 4.17242 6.05571 4.18735C5.99811 4.22575 5.88504 4.34415 5.88077 4.48068C5.87757 4.55855 5.86264 4.55855 5.91278 4.60868C5.94904 4.65988 5.98744 4.65562 6.05998 4.61615C6.10264 4.58415 6.11651 4.56602 6.13144 4.51375C6.14851 4.42842 6.03864 4.55642 6.02478 4.45828C6.00024 4.36868 6.07064 4.33028 6.13678 4.24495C6.13891 4.20228 6.13891 4.17028 6.11224 4.16815V4.16602ZM7.18211 4.17135C7.16078 4.17562 7.13624 4.20335 7.10104 4.26522C7.07651 4.33135 6.96878 4.43162 7.04771 4.63855C7.10958 4.76975 7.13624 4.98202 7.10744 5.21988C7.06264 5.28708 7.05411 5.31055 6.99544 5.37775C6.91438 5.46628 6.82478 5.44388 6.75864 5.40975C6.69464 5.36708 6.64558 5.34575 6.61678 5.21135C6.62211 4.99802 6.63491 4.64388 6.59544 4.56922C6.53784 4.45402 6.44184 4.49455 6.40131 4.52975C6.20611 4.71108 6.10904 5.01295 6.04931 5.25508C5.99598 5.43002 5.93731 5.37882 5.89678 5.30842C5.79758 5.21455 5.79011 4.48708 5.67064 4.60762C5.47864 5.15588 5.78051 5.75642 5.99064 5.69775C6.13998 5.76175 6.23598 5.47375 6.29784 5.15908C6.34051 5.07055 6.37251 5.05988 6.39384 5.10575C6.38851 5.52388 6.42584 5.61775 6.53251 5.74362C6.77144 5.92922 6.96984 5.76708 6.98584 5.75215L7.17251 5.56655C7.21518 5.52388 7.26851 5.51962 7.32718 5.55802C7.38478 5.61135 7.37731 5.69988 7.49784 5.76068C7.60238 5.80335 7.82104 5.77135 7.87118 5.68282C7.94051 5.56548 7.95651 5.52495 7.98851 5.48015C8.03758 5.41615 8.12184 5.44495 8.12184 5.46522C8.11438 5.50255 8.06531 5.53988 8.09838 5.60388C8.15704 5.64655 8.17091 5.61882 8.20504 5.60922C8.32664 5.55162 8.41838 5.28708 8.41838 5.28708C8.42371 5.18895 8.36824 5.19642 8.33304 5.21668C8.28504 5.24548 8.28291 5.25508 8.23704 5.28388C8.17624 5.29242 8.06104 5.33188 8.00451 5.24335C7.94584 5.13668 7.94584 4.98948 7.90104 4.88068C7.90104 4.87428 7.82318 4.71322 7.89464 4.70362C7.92984 4.71002 8.00878 4.73028 8.02051 4.66522C8.05891 4.60122 7.93838 4.41988 7.85624 4.33028C7.78584 4.25242 7.68771 4.24282 7.59278 4.32175C7.52558 4.38362 7.53624 4.45188 7.52238 4.51695C7.50638 4.59162 7.50958 4.68442 7.58638 4.78362C7.65251 4.91375 7.77304 5.08228 7.73251 5.31908C7.73251 5.31908 7.66318 5.43215 7.54051 5.41722C7.48718 5.40655 7.40398 5.38522 7.35918 5.05455C7.32718 4.80602 7.36771 4.45722 7.26318 4.29402C7.23864 4.23322 7.21838 4.17348 7.18424 4.17668L7.18211 4.17135ZM6.84291 4.19908C6.81091 4.20228 6.77571 4.23962 6.74691 4.31108C6.72238 4.36655 6.69144 4.65242 6.69678 4.65242C6.67544 4.73775 6.78531 4.77402 6.83544 4.66522C6.91011 4.46255 6.91011 4.37722 6.91438 4.29402C6.90371 4.23002 6.87491 4.19802 6.84291 4.20015V4.19908ZM8.09411 4.22042C8.06211 4.22468 8.03544 4.24388 8.02584 4.29295C8.01198 4.40602 8.01944 4.46895 8.03864 4.56388C8.05251 4.62788 8.14531 4.73242 8.19011 4.79428C8.40664 5.08548 8.61678 5.37775 8.81731 5.67962C8.84931 5.90575 8.87064 6.12548 8.88664 6.34522C8.92078 6.82522 8.92931 7.42255 8.90051 7.92922C8.99011 7.93242 9.13518 7.78308 9.18531 7.56655C9.21731 7.26362 9.17464 6.64922 9.17038 6.47002L9.15971 6.21615C9.39438 6.60015 9.62051 7.00548 9.84238 7.44922C9.92451 7.41082 9.90638 6.95322 9.85944 6.88922C9.68024 6.50522 9.43278 6.12548 9.35491 5.97935C9.32611 5.92602 9.22904 5.77988 9.11491 5.61028C9.09358 5.36708 9.07011 5.16228 9.05518 5.10042C9.01784 4.84442 9.15971 5.12922 9.14051 4.98095C9.09358 4.72495 8.95278 4.55215 8.78638 4.31748C8.73304 4.24282 8.73304 4.22575 8.65091 4.33668C8.60291 4.44868 8.60291 4.54255 8.61891 4.63002C8.59544 4.59802 8.56878 4.56175 8.53038 4.51482L8.25838 4.28442C8.22104 4.25775 8.14851 4.21722 8.09411 4.22042ZM11.8018 4.25988C11.7858 4.25775 11.7698 4.26522 11.7485 4.29402C11.7112 4.32602 11.6717 4.38682 11.6738 4.46468C11.6813 4.59802 11.7058 4.73562 11.7144 4.87002L11.725 4.92335C11.7101 4.90628 11.6973 4.89135 11.6898 4.88495C11.4264 4.60762 11.8104 4.83802 11.6386 4.62575C11.4946 4.46575 11.452 4.41668 11.3293 4.32068C11.2653 4.28228 11.229 4.20548 11.2088 4.33562C11.2002 4.44975 11.1917 4.58308 11.1981 4.67908C11.1981 4.73242 11.2546 4.83375 11.3026 4.89242C11.4776 5.10895 11.6568 5.33828 11.836 5.57722C11.8744 6.06468 11.884 6.51162 11.9213 7.00015C11.917 7.20922 11.853 7.48655 11.7933 7.51215C11.7933 7.51215 11.6994 7.56548 11.6376 7.50682C11.5917 7.48868 11.4114 7.20495 11.4114 7.20495C11.3186 7.11962 11.2568 7.14415 11.1917 7.20495C11.0104 7.37988 10.9272 7.70842 10.8045 7.93455C10.7725 7.98468 10.684 8.02842 10.5848 7.93028C10.332 7.58468 10.4781 7.09295 10.4482 7.21988C10.2242 7.47375 10.3224 7.89402 10.3736 7.98468C10.4482 8.13402 10.508 8.23002 10.6509 8.30148C10.7842 8.39748 10.8856 8.33882 10.9432 8.26948C11.0754 8.13295 11.0776 7.78202 11.1394 7.71268C11.1821 7.58468 11.292 7.60602 11.3453 7.66362C11.3986 7.73828 11.4584 7.78628 11.5341 7.82682C11.6578 7.93562 11.805 7.95482 11.9501 7.85562C12.0493 7.80015 12.1144 7.72762 12.172 7.58468C12.236 7.41828 12.204 6.54362 12.1901 6.05722L12.4674 6.45828C12.5058 6.88495 12.524 7.30628 12.5101 7.70948C12.5016 7.78948 12.7906 7.47055 12.7874 7.31908C12.7874 7.18788 12.7896 7.06735 12.7874 6.95642C12.9293 7.18042 13.0648 7.40762 13.1928 7.63908C13.2728 7.59642 13.2461 7.14522 13.196 7.08442C13.0616 6.85828 12.8888 6.61508 12.7554 6.42522C12.7288 6.18735 12.6936 5.90682 12.6765 5.82042C12.652 5.68602 12.6264 5.48442 12.588 5.32548C12.5773 5.26468 12.5453 5.06628 12.556 5.04815C12.5709 5.00228 12.6306 5.04815 12.6594 4.99695C12.7021 4.94895 12.508 4.44228 12.4088 4.29935C12.3736 4.23535 12.3085 4.25668 12.2296 4.36335C12.1549 4.43162 12.1826 4.58948 12.2104 4.73988C12.2829 5.12388 12.349 5.51215 12.4002 5.90255C12.3042 5.75855 12.1869 5.58575 12.0717 5.42042L12.0568 5.34575C12.0568 5.33722 12.0418 5.03108 12.028 4.95855C12.0248 4.92868 12.0173 4.92015 12.0493 4.92442C12.0813 4.95215 12.0856 4.95322 12.1058 4.96282C12.14 4.96708 12.1698 4.91162 12.1485 4.85935L11.8392 4.28975C11.8285 4.27588 11.8136 4.26308 11.7965 4.26095L11.8018 4.25988ZM2.23384 4.27055C2.17518 4.26842 2.11331 4.30255 2.13784 4.37188C2.12291 4.40922 2.24878 4.53508 2.27118 4.60442C2.28931 4.65455 2.24984 4.81242 2.29251 4.82842C2.32984 4.84442 2.38211 4.71748 2.40131 4.60122C2.41198 4.53722 2.40451 4.31748 2.25518 4.27268C2.24771 4.27055 2.24024 4.27055 2.23171 4.26948L2.23384 4.27055ZM13.1352 4.27055C13.1213 4.27268 13.1053 4.29188 13.0818 4.34522C13.0232 4.44122 13.0029 4.61188 13.0264 4.76122C13.165 5.71055 13.2717 6.63002 13.293 7.47055C13.2802 7.55162 13.276 7.59428 13.2397 7.69455C13.1565 7.80122 13.0648 7.93348 12.9784 7.99748C12.893 8.06148 12.7096 8.12335 12.6498 8.17028C12.4578 8.27908 12.4578 8.40495 12.6114 8.41028C12.876 8.37828 13.1896 8.35695 13.405 8.03162C13.4626 7.94095 13.5309 7.69348 13.533 7.54095C13.5544 6.65562 13.5224 5.78628 13.389 5.14522C13.3805 5.08122 13.3528 4.93935 13.3634 4.92122C13.3794 4.87642 13.4658 4.92442 13.4968 4.87428C13.5426 4.82735 13.2728 4.48282 13.1789 4.33562C13.1597 4.29935 13.1469 4.26842 13.132 4.27162L13.1352 4.27055ZM10.3586 4.28548C10.348 4.28762 10.333 4.30468 10.3032 4.34415C10.2285 4.58522 10.2029 4.78148 10.2317 4.93295C10.4237 5.92495 10.6157 6.82628 10.5858 7.77028C10.6754 7.77028 10.78 7.56442 10.8248 7.35962C10.8493 7.07695 10.8077 6.90522 10.8013 6.74095C10.7938 6.57455 10.6136 5.23055 10.5773 5.10575C10.5325 4.86895 10.7522 5.07375 10.7288 4.93722C10.652 4.76228 10.4621 4.51055 10.4045 4.35802C10.3832 4.31748 10.3789 4.28015 10.3618 4.28335L10.3586 4.28548ZM3.60238 4.30468C3.58104 4.30895 3.55651 4.32815 3.54904 4.35802C3.54371 4.37935 3.55758 4.41455 3.53838 4.42522C3.52771 4.43588 3.48718 4.42842 3.48931 4.37188C3.48931 4.35268 3.47544 4.33348 3.46798 4.32175C3.45944 4.31748 3.45411 4.31642 3.43918 4.31642C3.42104 4.31642 3.42104 4.32175 3.41144 4.33775C3.40718 4.35268 3.40078 4.36762 3.40078 4.38468C3.39864 4.40602 3.39011 4.41135 3.37624 4.41455C3.35918 4.41455 3.36238 4.41668 3.34958 4.40708C3.33891 4.39962 3.33038 4.39642 3.33038 4.38148C3.33038 4.36548 3.32611 4.33882 3.32184 4.33028C3.31438 4.31962 3.30264 4.31535 3.28984 4.31215C3.21944 4.31215 3.21518 4.39535 3.21838 4.42522C3.21304 4.43162 3.21091 4.57455 3.30691 4.61508C3.43491 4.67695 3.67811 4.65028 3.66958 4.44228C3.66958 4.42415 3.66424 4.36228 3.66211 4.34628C3.64931 4.31428 3.62478 4.30362 3.60131 4.30682L3.60238 4.30468ZM5.33678 4.30682C5.29198 4.30895 5.25144 4.32175 5.21944 4.33882C5.13411 4.42095 5.11278 4.55215 5.18104 4.63428C5.24504 4.66628 5.31224 4.73028 5.26851 4.76762C5.08291 4.96495 4.59971 5.29668 4.57518 5.35748V5.36388H4.57944V5.36602C4.60398 5.38202 4.90691 5.38202 4.93998 5.36602H4.94211C5.04664 5.32655 5.53944 4.76335 5.53944 4.76335C5.51384 4.74202 5.49038 4.72495 5.46478 4.70255C5.43704 4.67908 5.44024 4.65562 5.46478 4.63215C5.58638 4.56175 5.54798 4.40495 5.48398 4.33348C5.43064 4.31002 5.38158 4.30148 5.33678 4.30468V4.30682ZM9.87011 4.30682C9.85731 4.31002 9.84131 4.32815 9.81678 4.38148C9.75811 4.47748 9.71864 4.64282 9.72398 4.79748C9.84984 5.67215 9.88824 6.43695 9.97144 7.31162C9.97784 7.39695 9.96504 7.51855 9.90958 7.56762C9.70051 7.78522 9.40078 8.05188 9.07438 8.17562C9.03918 8.21508 9.16184 8.38255 9.31971 8.38255C9.58424 8.35055 9.81678 8.20335 10.0344 7.81188C10.0909 7.72122 10.1922 7.52602 10.1944 7.37455C10.2157 6.48708 10.1517 5.79588 10.0173 5.15588C10.0098 5.09188 10.0152 5.01722 10.0258 5.00015C10.0429 4.97882 10.1005 5.00015 10.1325 4.95002C10.1773 4.90308 10.0109 4.52015 9.91704 4.37402C9.89784 4.33668 9.88718 4.30682 9.87011 4.30788V4.30682ZM2.84718 4.33562C2.81091 4.33988 2.77678 4.36762 2.75971 4.41028C2.75438 4.54895 2.75331 4.68762 2.77038 4.81775C2.83438 5.04495 2.85251 5.24442 2.88344 5.47588C2.89411 5.78735 2.70424 5.61028 2.71278 5.45668C2.75544 5.25615 2.74478 4.94148 2.70638 4.86148C2.67438 4.78148 2.64024 4.76228 2.56558 4.77615C2.50691 4.77188 2.35438 4.93615 2.31171 5.21348C2.31171 5.21348 2.27544 5.35428 2.26051 5.48015C2.23918 5.62202 2.14531 5.72335 2.07918 5.46095C2.02264 5.26895 1.98851 4.79962 1.89358 4.90842C1.86584 5.27535 1.83384 5.92175 2.14531 5.98788C2.52291 6.02415 2.31384 5.35002 2.45038 5.22735C2.47704 5.16868 2.52504 5.16762 2.52824 5.24335V5.81615C2.52398 6.00175 2.64558 6.05722 2.74158 6.09562C2.84078 6.08815 2.90584 6.09135 2.94424 6.18735L2.99224 7.17935C2.99224 7.17935 3.22051 7.24335 3.23118 6.62148C3.24184 6.25562 3.15651 5.94948 3.20664 5.87802C3.20878 5.80762 3.29838 5.80335 3.36024 5.83855C3.45944 5.90788 3.50318 5.99322 3.65678 5.95908C3.89144 5.89508 4.03011 5.78202 4.03331 5.60282C4.02264 5.43215 4.00131 5.26148 3.92664 5.09082C3.93731 5.06095 3.88398 4.98095 3.89464 4.95002C3.93518 5.01402 3.99918 5.00975 4.01198 4.95002C3.97358 4.81882 3.91171 4.69402 3.81144 4.64068C3.72931 4.56602 3.60878 4.58202 3.56398 4.73348C3.54264 4.90842 3.62798 5.11535 3.75598 5.28495C3.78158 5.35108 3.81998 5.46095 3.80291 5.56015C3.73571 5.59855 3.66851 5.58148 3.61091 5.52282C3.61091 5.52282 3.42638 5.38415 3.42638 5.35215C3.47651 5.03748 3.43704 5.00015 3.41038 4.91482C3.39118 4.79322 3.33358 4.75482 3.28771 4.67162C3.24078 4.62148 3.17784 4.62148 3.14904 4.67162C3.06584 4.81348 3.10424 5.11962 3.16398 5.25508C3.20664 5.38095 3.27278 5.45988 3.24184 5.45988C3.21624 5.52922 3.16291 5.51322 3.12451 5.43108C3.07118 5.26042 3.05838 5.00868 3.05838 4.89455C3.04238 4.75375 3.02424 4.45188 2.93038 4.37508C2.90584 4.34095 2.87704 4.32922 2.84824 4.33242L2.84718 4.33562ZM4.17198 4.33562C4.15384 4.33988 4.13251 4.35055 4.10798 4.35695C4.02798 4.38148 3.95331 4.45082 3.97678 4.58522C4.07278 5.16122 4.13358 5.60175 4.22851 6.17775C4.24238 6.24602 4.18584 6.33455 4.11331 6.32708C3.98958 6.24175 3.95864 6.07108 3.74744 6.07962C3.59384 6.07962 3.41891 6.24815 3.39758 6.40815C3.37198 6.53615 3.36344 6.67482 3.39758 6.78575C3.50424 6.91375 3.63438 6.90095 3.74744 6.87108C3.84024 6.83375 3.91811 6.74308 3.95011 6.76442C3.97144 6.79962 3.94798 7.09935 3.51278 7.32975C3.24398 7.45135 3.03064 7.47908 2.91544 7.26148C2.84504 7.12495 2.92184 6.60442 2.74691 6.72388C2.22851 8.05935 3.95971 8.24495 4.15278 6.77935C4.16558 6.73668 4.20291 6.69615 4.23064 6.70682C4.24131 6.71215 4.25198 6.72815 4.25624 6.75802C4.21571 8.08495 2.91651 8.17668 2.69678 7.75855C2.64131 7.66042 2.62531 7.44068 2.61998 7.31055C2.60931 7.23055 2.59011 7.18468 2.56664 7.16655C2.51331 7.12708 2.44291 7.23055 2.42798 7.40868C2.40664 7.55268 2.41198 7.59215 2.41198 7.73082C2.48238 8.77935 4.15384 8.32815 4.42584 7.46415C4.56024 7.01615 4.42264 6.67802 4.46851 6.63642L4.47171 6.63428H4.47491L4.48024 6.63215C4.64664 6.81135 4.87918 6.65348 4.93038 6.59268C4.95171 6.56068 5.00718 6.53935 5.04558 6.58202C5.17358 6.67375 5.40184 6.63002 5.44878 6.46468C5.47651 6.30468 5.49998 6.14042 5.50531 5.96868C5.41998 5.99535 5.35171 6.01455 5.32398 6.04335C5.31758 6.05082 5.31331 6.05935 5.31118 6.06788L5.28984 6.20975C5.28984 6.21508 5.28771 6.21828 5.28558 6.22042C5.28238 6.22788 5.27491 6.23322 5.27064 6.23642C5.24078 6.25242 5.18851 6.24388 5.18531 6.20015C5.14584 6.01882 4.98051 5.99535 4.88024 6.27802C4.81304 6.33135 4.68824 6.34202 4.67758 6.26095C4.69358 6.07108 4.61678 6.04548 4.46424 6.13508L4.31704 5.02575C4.38104 5.02255 4.43864 5.06842 4.49838 4.99588C4.43438 4.79962 4.30104 4.40068 4.22531 4.36228H4.22318L4.21251 4.35162C4.21251 4.34948 4.20931 4.34842 4.20718 4.34735L4.20291 4.34095C4.19864 4.34095 4.19438 4.33882 4.19224 4.33775C4.18478 4.33562 4.17838 4.33562 4.17091 4.33562H4.17198ZM9.33678 4.33988C9.27064 4.33775 9.19811 4.37935 9.22584 4.46255C9.20878 4.50842 9.36771 4.66202 9.39331 4.74522C9.43918 4.87322 9.35811 4.99802 9.40611 5.01615C9.45091 5.03535 9.51278 4.88282 9.53411 4.74095C9.56184 4.62575 9.48078 4.39108 9.36344 4.34308L9.33678 4.34095V4.33988ZM5.31224 4.47962C5.34211 4.47748 5.37838 4.50522 5.39758 4.54362C5.41571 4.58628 5.40611 4.62575 5.37624 4.63322C5.34424 4.64068 5.30371 4.61402 5.28451 4.57135C5.26531 4.52868 5.27384 4.48922 5.30584 4.48175H5.31224V4.47962ZM12.7757 4.67375C12.7149 4.67162 12.6477 4.71642 12.6754 4.80708C12.6605 4.85615 12.8034 5.02255 12.828 5.11428C12.8493 5.17828 12.796 5.38735 12.8386 5.40655C12.8792 5.42788 12.9346 5.26148 12.956 5.10788C12.9688 5.02255 12.9069 4.72922 12.8013 4.67695C12.7938 4.67482 12.7853 4.67268 12.7768 4.67268L12.7757 4.67375ZM8.64771 4.77615C8.65518 4.80068 8.66051 4.82522 8.66371 4.85082C8.67651 4.90415 8.68718 4.95748 8.69784 5.01295C8.65091 4.94682 8.61251 4.89348 8.59438 4.87428C8.48771 4.74628 8.59651 4.79108 8.64771 4.77615ZM9.60024 5.24335C9.57678 5.24762 9.55438 5.26788 9.54691 5.29988C9.54051 5.31908 9.55544 5.35322 9.53624 5.36388C9.52558 5.37455 9.48291 5.36815 9.48611 5.31055C9.48611 5.29135 9.47224 5.27108 9.46478 5.26042C9.45624 5.25508 9.45091 5.25295 9.43598 5.25295C9.41784 5.25295 9.41784 5.25828 9.40824 5.27428C9.40398 5.28922 9.39758 5.30415 9.39758 5.32228C9.39758 5.34362 9.38904 5.35002 9.37411 5.35428C9.35704 5.35428 9.36024 5.35428 9.34638 5.34682C9.33784 5.33615 9.32824 5.33402 9.32824 5.31908C9.32824 5.30308 9.32504 5.27855 9.31971 5.26788C9.31224 5.25722 9.30158 5.25402 9.28771 5.24975C9.21838 5.24975 9.21304 5.33082 9.21731 5.36068C9.21304 5.36708 9.20984 5.51215 9.30584 5.55268C9.43598 5.61348 9.67918 5.58468 9.66851 5.37775C9.66851 5.35962 9.66318 5.29775 9.66211 5.28175C9.64824 5.24975 9.62371 5.23908 9.60131 5.24228L9.60024 5.24335ZM5.25891 5.28602C5.24398 5.28602 5.22264 5.29028 5.19811 5.30522C5.08398 5.36708 5.04024 5.55055 5.11278 5.65722C5.17678 5.75322 5.28344 5.71802 5.29731 5.71802C5.40931 5.73295 5.47544 5.50895 5.47544 5.50895C5.47544 5.50895 5.47864 5.44495 5.34744 5.56442C5.28984 5.57508 5.28344 5.55375 5.26851 5.52175C5.25571 5.46522 5.25784 5.40442 5.28451 5.34788C5.29731 5.31268 5.28451 5.29028 5.25891 5.28815V5.28602ZM11.3954 5.31482C11.3314 5.31162 11.2642 5.35322 11.2461 5.43962C11.2461 5.49082 11.2696 5.51855 11.2653 5.56548C11.26 5.59215 11.2333 5.60815 11.1672 5.57828C11.1778 5.56762 11.1245 5.49508 11.1245 5.49508C11.0744 5.46308 11.0072 5.49508 10.9624 5.52495C10.9378 5.56975 10.9197 5.64548 10.9474 5.72228C11.02 5.85775 11.2706 6.08815 11.3901 6.09028C11.3922 5.96868 11.404 5.80655 11.4114 5.70628C11.4136 5.66788 11.4221 5.62628 11.4594 5.61668C11.4957 5.60602 11.5586 5.65295 11.5586 5.61348C11.5522 5.53668 11.5373 5.42148 11.4946 5.36815C11.4712 5.33615 11.4338 5.31695 11.3965 5.31482H11.3954ZM6.31491 5.73828L6.31171 5.74148C6.31171 5.74148 6.30958 5.74148 6.30851 5.74362C6.29571 5.75428 6.28078 5.77562 6.24771 5.79695C6.19118 5.86095 6.18158 5.90682 6.18371 6.03482C6.18798 6.04868 6.29038 6.33668 6.37891 6.53828C6.43864 6.74842 6.49304 6.98948 6.45358 7.21668C6.31491 7.51748 6.03758 7.78735 5.76771 7.93455C5.62904 7.97722 5.51171 7.96228 5.47971 7.93242C5.40078 7.87908 5.39971 7.78308 5.40504 7.76815V7.76495C5.63118 7.60708 5.89038 7.47908 6.09304 7.05348C6.15278 6.89028 6.17198 6.79215 6.11224 6.54148C6.08878 6.44548 6.05891 6.37082 5.99491 6.30255H5.99704C6.03544 6.28442 6.13571 6.35802 6.15171 6.31322C6.12718 6.19162 6.04504 6.03055 5.95438 5.94735C5.87331 5.87268 5.78371 5.86522 5.71118 5.93242C5.62798 5.97935 5.61091 6.14575 5.65038 6.29082C5.69518 6.39962 5.81571 6.41882 5.90104 6.63962C5.90318 6.65455 5.92984 6.80495 5.88718 6.86682C5.85091 6.97562 5.40184 7.32975 5.36984 7.35108L5.36664 7.35322L5.36451 7.35535H5.36238H5.36024V7.35215C5.35811 7.34362 5.36024 7.32015 5.36024 7.28495C5.35704 7.21882 5.38478 7.06842 5.38158 7.04175V7.03962C5.23224 7.13562 5.18211 7.42895 5.15544 7.51642C4.77891 7.77562 4.35224 7.96868 4.10584 8.23108C3.97784 8.43375 4.98904 8.00282 5.10638 7.95055L5.10958 7.95375C5.13304 7.97828 5.13411 8.06362 5.20131 8.14148C5.30798 8.28335 5.52984 8.37082 5.74744 8.31642C6.11224 8.18522 6.32344 7.93668 6.53678 7.66042C6.56664 7.61775 6.61464 7.58148 6.65944 7.61562C6.80558 7.94415 7.23011 8.17882 7.77731 8.20228C7.90531 8.04868 7.84451 7.97295 7.79331 7.94095C7.77731 7.93028 7.52131 7.83002 7.48078 7.73082C7.45624 7.63908 7.51704 7.55695 7.63864 7.49615C7.99064 7.45348 8.33624 7.40548 8.67118 7.29775C8.67438 7.18468 8.74051 7.01722 8.78531 6.94362C8.81731 6.89348 8.83544 6.88815 8.84291 6.88175V6.87962H8.84504V6.87642V6.86575L8.78744 6.83162L7.66424 6.82735C7.65038 6.82202 7.64078 6.81668 7.63438 6.81135L7.63224 6.80815C7.63224 6.80815 7.63011 6.80815 7.63011 6.80602C7.63011 6.80388 7.62798 6.80388 7.62798 6.80388V6.80495V6.80282V6.80068V6.79855L7.63011 6.79535C7.63544 6.78895 7.64931 6.78148 7.66531 6.77402C7.93411 6.73882 8.40984 6.66095 8.44184 6.20335C8.43651 5.96442 8.33944 5.80868 8.04718 5.76602C7.83171 5.78202 7.67811 5.99002 7.70264 6.21828C7.69198 6.27908 7.72398 6.39962 7.65998 6.41348C7.24824 6.45188 6.79811 6.71002 6.78318 6.89562H6.78104H6.77891H6.77678C6.77678 6.89775 6.77464 6.89775 6.77358 6.89775H6.76931H6.76718H6.76291C6.73624 6.88922 6.70211 6.84442 6.70744 6.78362C6.69144 6.46362 6.58691 6.10095 6.42478 5.82362C6.36611 5.76495 6.33944 5.74148 6.32451 5.73828H6.32131H6.31811H6.31598H6.31491ZM7.39011 5.90682C7.36878 5.91108 7.34424 5.93028 7.33678 5.96228C7.33144 5.98362 7.34744 6.01775 7.32824 6.02842C7.31758 6.03908 7.27491 6.03268 7.27704 5.97508C7.27704 5.95695 7.26318 5.93668 7.25571 5.92495C7.24718 5.91962 7.24184 5.91855 7.22798 5.91855C7.20984 5.91855 7.20878 5.92282 7.19918 5.93775C7.19384 5.95268 7.18851 5.96975 7.18851 5.98575C7.18638 6.00708 7.17784 6.01348 7.16398 6.01562C7.14691 6.01562 7.15118 6.01882 7.13731 6.01028C7.12878 6.00175 7.11811 5.99748 7.11811 5.98255C7.11811 5.96655 7.11491 5.93988 7.11064 5.92922C7.10318 5.92175 7.09144 5.91855 7.07864 5.91428C7.00718 5.91428 7.00398 5.99428 7.00718 6.02522C7.00184 6.03055 6.99864 6.17455 7.09464 6.21508C7.22264 6.27695 7.53198 6.24068 7.45731 6.04122C7.45731 6.02308 7.45198 5.96122 7.45091 5.94522C7.43704 5.91322 7.41251 5.90255 7.38904 5.90575L7.39011 5.90682ZM11.7261 6.08495H11.7154C11.7154 6.08495 11.116 6.51162 11.1021 6.52655C11.0424 6.57988 11.0722 6.76442 11.1021 6.74308C11.1448 6.75908 11.7474 6.35055 11.7357 6.30255C11.7624 6.30468 11.7752 6.09242 11.725 6.08388L11.7261 6.08495ZM7.95651 6.14895C7.97998 6.14575 8.01198 6.15428 8.04184 6.17028C8.08771 6.19802 8.11651 6.23642 8.11118 6.26628V6.27055C8.10904 6.27055 8.10904 6.27055 8.10904 6.27268V6.27482C8.10904 6.27482 8.10691 6.27482 8.10691 6.27695C8.10691 6.27908 8.10371 6.28122 8.10158 6.28335C8.08024 6.30468 8.03118 6.30042 7.98424 6.27268C7.93944 6.24815 7.91278 6.20868 7.91491 6.18095V6.17775L7.92024 6.16708C7.92024 6.16708 7.92024 6.16495 7.92238 6.16388L7.92771 6.15748C7.93518 6.15215 7.94478 6.14682 7.95651 6.14682V6.14895ZM2.71064 6.25562C2.40131 6.26202 1.94584 6.66308 1.93411 6.88495L2.91544 6.41562C2.86211 6.33455 2.91224 6.26202 2.71064 6.25562ZM3.71651 6.39428C3.74638 6.39642 3.77838 6.41135 3.79544 6.45402C3.81038 6.49348 3.79544 6.53402 3.77731 6.55428V6.55748C3.76238 6.57455 3.71758 6.56815 3.68451 6.56815C3.64504 6.56602 3.62584 6.55962 3.60238 6.52762C3.58958 6.49028 3.62371 6.45508 3.63971 6.42948L3.64718 6.41882C3.65784 6.40815 3.67918 6.39962 3.70051 6.39748L3.71438 6.39535L3.71651 6.39428ZM11.6098 6.51908C11.5533 6.52548 11.501 6.57775 11.5245 6.66095C11.5096 6.71002 11.5992 6.88175 11.6237 6.97242C11.645 7.03642 11.596 7.22095 11.6397 7.23908C11.6802 7.26042 11.7858 7.13242 11.7826 6.96815C11.7933 6.88282 11.7528 6.57348 11.6472 6.52228C11.6344 6.51908 11.6216 6.51802 11.6088 6.51908H11.6098ZM4.90691 6.82202C4.85784 6.82522 4.81411 6.85082 4.83438 6.92015C4.83118 6.96922 4.97304 7.03002 4.98051 7.14415C4.99971 7.19322 4.94851 7.34682 4.99118 7.35962C5.02958 7.37562 5.08291 7.25295 5.10318 7.14202C5.11384 7.08015 5.05411 6.86468 4.95384 6.82522C4.93784 6.82095 4.92184 6.81988 4.90584 6.82095L4.90691 6.82202ZM6.91224 7.09508H6.92504C7.05091 7.12922 7.23438 7.13348 7.39438 7.14842C7.52558 7.15908 7.58958 7.25935 7.46904 7.30308C7.34744 7.34362 7.23118 7.37775 7.23118 7.55055C7.24611 7.63588 7.24184 7.68068 7.22904 7.69988C7.22904 7.70308 7.22584 7.70522 7.22478 7.70628C7.22478 7.70628 7.22478 7.70842 7.22264 7.70842V7.71055H7.21944L7.21198 7.71375H7.20664C7.17784 7.71908 7.13624 7.69242 7.10531 7.67535C7.03064 7.62202 6.82264 7.49402 6.79278 7.21668C6.78851 7.15268 6.83544 7.09935 6.91011 7.09402L6.91224 7.09508ZM2.01198 7.30842C2.00451 7.30842 1.99064 7.33188 1.96931 7.35855C1.78371 7.65188 1.76664 8.09028 1.86904 8.22255C1.92238 8.28335 2.01198 8.31108 2.07811 8.29188C2.19544 8.24175 2.24558 8.00602 2.21678 7.92068C2.17944 7.85988 2.14851 7.85028 2.11011 7.90148C2.02798 8.06682 1.99278 7.95268 1.98744 7.85882C1.97464 7.68495 1.99171 7.52282 2.01091 7.39482C2.02158 7.33082 2.02158 7.30628 2.01091 7.30628L2.01198 7.30842ZM8.30211 7.69455C8.28824 7.69455 8.27438 7.69668 8.25944 7.70522C8.25624 7.70522 8.12718 7.79055 8.08558 7.85242C8.05998 7.87162 8.06424 7.88762 8.07064 7.92175C8.08984 7.96762 8.12398 7.95375 8.16451 7.93242C8.21784 7.92388 8.24238 7.95908 8.23918 8.02202C8.21464 8.10202 8.24984 8.13082 8.24984 8.13615C8.24984 8.14042 8.29998 8.18415 8.35971 8.15002C8.48451 8.10202 8.56238 8.05402 8.73838 8.01668C8.78424 8.01668 8.78104 7.89295 8.70851 7.88868C8.61251 7.89295 8.52718 7.89935 8.43118 7.97402C8.37251 7.98682 8.36291 7.95055 8.34904 7.91855C8.33411 7.83962 8.38318 7.78415 8.37251 7.72442C8.37464 7.72762 8.34264 7.69882 8.30104 7.69668L8.30211 7.69455ZM12.3298 7.84388L12.2445 7.85242C12.2061 7.85988 12.1933 7.87695 12.1858 7.92388C12.189 7.99322 12.2317 7.99002 12.2765 8.01775C12.3021 8.04975 12.3192 8.07962 12.2744 8.13508C12.2317 8.17242 12.2029 8.19375 12.1602 8.23108C12.1421 8.26522 12.1282 8.31642 12.1901 8.33348C12.3021 8.36548 12.5613 8.19695 12.5613 8.19482C12.604 8.16282 12.589 8.10202 12.5858 8.10202C12.5602 8.07428 12.5048 8.09135 12.4685 8.08602C12.4504 8.08602 12.3938 8.07748 12.4194 8.02628C12.4429 7.99428 12.4514 7.97615 12.4674 7.93668C12.4834 7.89828 12.4674 7.87268 12.4056 7.85135C12.3736 7.84495 12.3522 7.84282 12.3277 7.84388H12.3298ZM10.78 11.9612C11.068 11.9751 11.3368 11.9644 11.6226 11.9783C11.6696 12.0167 11.6472 12.1063 11.6173 12.1212L11.612 12.1233H11.6088H11.6045L11.3634 12.1169V12.1031C11.34 12.0369 11.18 12.0412 11.1416 12.0924V12.0956C11.1394 12.0956 11.1384 12.0988 11.1384 12.0999L11.1362 12.1052V12.118C11.0082 12.134 10.8962 12.1137 10.7704 12.1095C10.733 12.0636 10.7384 11.9815 10.781 11.9601L10.78 11.9612Z" fill="white"/>
</svg>
