<svg width="16" height="16" viewBox="0 0 16 16" fill="none" xmlns="http://www.w3.org/2000/svg">
<g clip-path="url(#clip0_1467_179709)">
<rect width="16" height="16" rx="8" fill="#1A47B8"/>
<path fill-rule="evenodd" clip-rule="evenodd" d="M-1.06641 16H21.3336V0L-1.06641 16Z" fill="#FFDA2C"/>
<path fill-rule="evenodd" clip-rule="evenodd" d="M1.06641 15.9995H21.3331V2.13281L1.06641 15.9995Z" fill="#249F58"/>
<path fill-rule="evenodd" clip-rule="evenodd" d="M4.39727 6.03468L3.73807 6.39948L3.86393 5.62721L3.3306 5.08108L4.0666 4.96801L4.39727 4.26615L4.72793 4.96801L5.46393 5.08108L4.9306 5.62721L5.05647 6.39948L4.39727 6.03468ZM2.26393 3.90135L1.60473 4.26615L1.7306 3.49388L1.19727 2.94775L1.93327 2.83468L2.26393 2.13281L2.5946 2.83468L3.3306 2.94775L2.79727 3.49388L2.92313 4.26615L2.26393 3.90135ZM6.5306 3.90135L5.8714 4.26615L5.99727 3.49388L5.46393 2.94775L6.19993 2.83468L6.5306 2.13281L6.86127 2.83468L7.59727 2.94775L7.06393 3.49388L7.1898 4.26615L6.5306 3.90135ZM6.5306 8.16801L5.8714 8.53281L5.99727 7.76055L5.46393 7.21441L6.19993 7.10135L6.5306 6.39948L6.86127 7.10135L7.59727 7.21441L7.06393 7.76055L7.1898 8.53281L6.5306 8.16801ZM2.26393 8.16801L1.60473 8.53281L1.7306 7.76055L1.19727 7.21441L1.93327 7.10135L2.26393 6.39948L2.5946 7.10135L3.3306 7.21441L2.79727 7.76055L2.92313 8.53281L2.26393 8.16801Z" fill="white"/>
</g>
<defs>
<clipPath id="clip0_1467_179709">
<rect width="16" height="16" rx="8" fill="white"/>
</clipPath>
</defs>
</svg>
