<svg width="40" height="40" viewBox="0 0 40 40" fill="none" xmlns="http://www.w3.org/2000/svg">
<g clip-path="url(#clip0_4893_3459)">
<path d="M20 39.9998C31.0457 39.9998 40 31.0454 40 19.9998C40 8.95406 31.0457 -0.000244141 20 -0.000244141C8.95431 -0.000244141 0 8.95406 0 19.9998C0 31.0454 8.95431 39.9998 20 39.9998Z" fill="#F0F0F0"/>
<path d="M0 19.9998C0 8.95413 8.95438 -0.000244141 20 -0.000244141C31.0456 -0.000244141 40 8.95413 40 19.9998" fill="#D80027"/>
<path d="M12.1742 10.4348C12.1742 7.52087 14.2221 5.08665 16.9568 4.48938C16.5364 4.39767 16.1004 4.3479 15.6524 4.3479C12.2906 4.3479 9.56543 7.07306 9.56543 10.4349C9.56543 13.7966 12.2906 16.5218 15.6524 16.5218C16.1003 16.5218 16.5364 16.472 16.9568 16.3802C14.2221 15.783 12.1742 13.3488 12.1742 10.4348Z" fill="#F0F0F0"/>
<path d="M20.0005 4.78247L20.4322 6.11099H21.8291L20.6989 6.93216L21.1306 8.26067L20.0005 7.43966L18.8703 8.26067L19.302 6.93216L18.1719 6.11099H19.5688L20.0005 4.78247Z" fill="#F0F0F0"/>
<path d="M16.612 7.39136L17.0436 8.71995H18.4405L17.3104 9.54104L17.7421 10.8696L16.612 10.0485L15.4816 10.8696L15.9134 9.54104L14.7832 8.71995H16.1802L16.612 7.39136Z" fill="#F0F0F0"/>
<path d="M23.3891 7.39136L23.8209 8.71995H25.2178L24.0876 9.54104L24.5194 10.8696L23.3891 10.0485L22.259 10.8696L22.6907 9.54104L21.5605 8.71995H22.9574L23.3891 7.39136Z" fill="#F0F0F0"/>
<path d="M22.0845 11.3042L22.5162 12.6328H23.913L22.7829 13.4539L23.2146 14.7824L22.0845 13.9614L20.9543 14.7824L21.386 13.4539L20.2559 12.6328H21.6527L22.0845 11.3042Z" fill="#F0F0F0"/>
<path d="M17.9156 11.3042L18.3472 12.6328H19.7443L18.614 13.4539L19.0458 14.7824L17.9156 13.9614L16.7854 14.7824L17.2171 13.4539L16.0869 12.6328H17.4839L17.9156 11.3042Z" fill="#F0F0F0"/>
</g>
<defs>
<clipPath id="clip0_4893_3459">
<rect width="40" height="40" fill="white"/>
</clipPath>
</defs>
</svg>
