<svg width="16" height="16" viewBox="0 0 16 16" fill="none" xmlns="http://www.w3.org/2000/svg">
<g clip-path="url(#clip0_1467_179713)">
<rect width="16" height="16" rx="8" fill="white"/>
<path fill-rule="evenodd" clip-rule="evenodd" d="M0 0H22.4V9.6H0V0Z" fill="#F93939"/>
<path fill-rule="evenodd" clip-rule="evenodd" d="M6.40046 8.38668C6.09112 8.48268 5.76046 8.53281 5.41592 8.53281C3.60259 8.53281 2.13379 7.10028 2.13379 5.33281C2.13379 3.56535 3.60366 2.13281 5.41592 2.13281C5.75939 2.13281 6.09006 2.18401 6.40046 2.27895C5.06926 2.68748 4.10286 3.90028 4.10286 5.33281C4.10286 6.76535 5.06926 7.97815 6.40046 8.38668ZM8.53379 3.19948H9.60046V4.26615H8.53379V3.19948ZM10.6671 4.26615H11.7338V5.33281H10.6671V4.26615ZM9.60046 6.39948H10.6671V7.46615H9.60046V6.39948ZM6.40046 4.26615H7.46712V5.33281H6.40046V4.26615ZM7.46712 6.39948H8.53379V7.46615H7.46712V6.39948Z" fill="white"/>
</g>
<defs>
<clipPath id="clip0_1467_179713">
<rect width="16" height="16" rx="8" fill="white"/>
</clipPath>
</defs>
</svg>
