<svg width="40" height="40" viewBox="0 0 40 40" fill="none" xmlns="http://www.w3.org/2000/svg">
<g clip-path="url(#clip0_4893_3449)">
<path d="M20 40.0002C31.0457 40.0002 40 31.0459 40 20.0002C40 8.95455 31.0457 0.000244141 20 0.000244141C8.9543 0.000244141 0 8.95455 0 20.0002C0 31.0459 8.9543 40.0002 20 40.0002Z" fill="#F0F0F0"/>
<path d="M20 39.9999C31.0456 39.9999 40 31.0456 40 19.9999C40 17.5535 39.56 15.21 38.756 13.0435H1.24398C0.440078 15.21 0 17.5535 0 19.9999C0 31.0456 8.95437 39.9999 20 39.9999Z" fill="#0052B4"/>
<path d="M20.0002 40.0001C28.5995 40.0001 35.9303 34.5726 38.7562 26.9565H1.24414C4.07 34.5726 11.4009 40.0001 20.0002 40.0001Z" fill="#D80027"/>
<path d="M5.17188 11.3044V21.2815C5.17188 26.9568 12.586 28.6958 12.586 28.6958C12.586 28.6958 20.0001 26.9568 20.0001 21.2815V11.3044H5.17188Z" fill="#F0F0F0"/>
<path d="M6.91113 11.3044V21.2815C6.91113 21.9477 7.0591 22.5769 7.35223 23.1669H17.82C18.1131 22.577 18.2611 21.9477 18.2611 21.2815V11.3044H6.91113Z" fill="#D80027"/>
<path d="M16.0639 18.2608H13.4553V16.5217H15.1945V14.7825H13.4553V13.0435H11.7162V14.7825H9.97711V16.5217H11.7162V18.2608H9.10742V19.9999H11.7162V21.7391H13.4553V19.9999H16.0639V18.2608Z" fill="#F0F0F0"/>
<path d="M9.72465 25.5945C10.8454 26.2988 11.9968 26.7078 12.5862 26.8896C13.1757 26.7078 14.3271 26.2988 15.4478 25.5945C16.5779 24.8842 17.3702 24.0719 17.82 23.1668C17.3239 22.8158 16.7185 22.6088 16.0645 22.6088C15.8264 22.6088 15.595 22.637 15.3726 22.6888C14.9013 21.6178 13.8314 20.8696 12.5863 20.8696C11.3412 20.8696 10.2712 21.6178 9.79996 22.6888C9.57754 22.637 9.34613 22.6088 9.10809 22.6088C8.4541 22.6088 7.84871 22.8158 7.35254 23.1668C7.80215 24.0718 8.59441 24.8842 9.72465 25.5945Z" fill="#0052B4"/>
</g>
<defs>
<clipPath id="clip0_4893_3449">
<rect width="40" height="40" fill="white"/>
</clipPath>
</defs>
</svg>
