<svg width="16" height="16" viewBox="0 0 16 16" fill="none" xmlns="http://www.w3.org/2000/svg">
<g clip-path="url(#clip0_1467_179711)">
<rect width="16" height="16" rx="8" fill="#1A47B8"/>
<path fill-rule="evenodd" clip-rule="evenodd" d="M-1.06641 10.666H21.3336V15.9993H-1.06641V10.666Z" fill="#F93939"/>
<path fill-rule="evenodd" clip-rule="evenodd" d="M-1.06641 0H21.3336V5.33333H-1.06641V0ZM9.52559 10.6667H9.60026V5.33333H2.13359V10.6667H2.20826C2.15919 10.8395 2.13359 11.0187 2.13359 11.2C2.13359 12.672 5.86693 13.8667 5.86693 13.8667C5.86693 13.8667 9.60026 12.672 9.60026 11.2C9.60026 11.0187 9.57466 10.8395 9.52559 10.6667Z" fill="white"/>
<path fill-rule="evenodd" clip-rule="evenodd" d="M8.53353 10.6676V4.26758H3.2002V10.6676C3.2002 11.8462 5.86686 12.8009 5.86686 12.8009C5.86686 12.8009 8.53353 11.8462 8.53353 10.6676Z" fill="#F93939"/>
<path fill-rule="evenodd" clip-rule="evenodd" d="M5.3334 8.53398V7.46732H4.26673V6.40065H5.3334V5.33398H6.40006V6.40065H7.46673V7.46732H6.40006V8.53398H8.00006V9.60065H6.40006V10.6673H5.3334V9.60065H3.7334V8.53398H5.3334Z" fill="white"/>
<path fill-rule="evenodd" clip-rule="evenodd" d="M5.86686 12.8001C5.86686 12.8001 8.53353 11.8454 8.53353 10.6667C8.53353 9.48808 7.46686 9.60008 5.86686 10.6667C4.26686 9.60008 3.2002 9.48808 3.2002 10.6667C3.2002 11.8454 5.86686 12.8001 5.86686 12.8001Z" fill="#1A47B8"/>
</g>
<defs>
<clipPath id="clip0_1467_179711">
<rect width="16" height="16" rx="8" fill="white"/>
</clipPath>
</defs>
</svg>
