<svg width="16" height="16" viewBox="0 0 16 16" fill="none" xmlns="http://www.w3.org/2000/svg">
<g clip-path="url(#clip0_1467_179720)">
<rect width="16" height="16" rx="8" fill="white"/>
<path fill-rule="evenodd" clip-rule="evenodd" d="M-3.2002 7.4668H19.1998V16.0001H-3.2002V7.4668Z" fill="#3A99FF"/>
<path opacity="0.2" fill-rule="evenodd" clip-rule="evenodd" d="M-3.2002 7.4668H19.1998V16.0001H-3.2002V7.4668Z" fill="white"/>
<path fill-rule="evenodd" clip-rule="evenodd" d="M5.33301 4.26758H10.6663V5.33424L7.99967 6.40091L5.33301 5.33424V4.26758Z" fill="#D4AF2C"/>
<path fill-rule="evenodd" clip-rule="evenodd" d="M10.6663 9.06706C10.6663 7.59506 9.47167 6.40039 7.99967 6.40039C6.52767 6.40039 5.33301 7.59506 5.33301 9.06706C5.33301 10.5391 6.52767 11.7337 7.99967 11.7337C9.47167 11.7337 10.6663 10.5391 10.6663 9.06706ZM7.99967 10.6671C8.88287 10.6671 9.59967 9.71239 9.59967 8.53372C9.59967 7.35506 8.88287 6.40039 7.99967 6.40039C7.11647 6.40039 6.39967 7.35506 6.39967 8.53372C6.39967 9.71239 7.11647 10.6671 7.99967 10.6671Z" fill="#249F58"/>
<path d="M8.00013 9.60013C8.29468 9.60013 8.53346 9.12257 8.53346 8.53346C8.53346 7.94436 8.29468 7.4668 8.00013 7.4668C7.70558 7.4668 7.4668 7.94436 7.4668 8.53346C7.4668 9.12257 7.70558 9.60013 8.00013 9.60013Z" fill="#D4AF2C"/>
</g>
<defs>
<clipPath id="clip0_1467_179720">
<rect width="16" height="16" rx="8" fill="white"/>
</clipPath>
</defs>
</svg>
