<svg width="40" height="40" viewBox="0 0 40 40" fill="none" xmlns="http://www.w3.org/2000/svg">
<g clip-path="url(#clip0_4893_3526)">
<path d="M40 20C40 31.0457 31.0456 40 20 40C8.95437 40 0 31.0457 0 20C0.869531 20 20 17.3914 20 17.3914L40 20Z" fill="#338AF3"/>
<path d="M0 20C0 8.95437 8.95437 0 20 0C31.0456 0 40 8.95437 40 20" fill="#F0F0F0"/>
<path d="M27.9385 13.8003L19.9997 21.7391L12.061 13.8003C11.0343 15.3243 10.4346 17.1586 10.4346 19.1304V21.739C10.4346 25.9278 13.1412 29.496 16.8972 30.7875C16.3959 31.77 16.4804 32.9961 17.215 33.9129C18.1907 33.131 19.2007 32.3215 20.0576 31.635C20.9145 32.3216 21.9246 33.1311 22.9002 33.9129C23.6434 32.9854 23.7218 31.7409 23.2007 30.7526C26.9054 29.4331 29.5649 25.8911 29.5649 21.739V19.1304C29.565 17.1586 28.9651 15.3244 27.9385 13.8003Z" fill="#6DA544"/>
<path d="M20.0004 28.6957C16.1646 28.6957 13.0439 25.575 13.0439 21.7392V19.1306C13.0439 15.2947 16.1646 12.1741 20.0004 12.1741C23.8362 12.1741 26.9569 15.2948 26.9569 19.1306V21.7392C26.9569 25.575 23.8363 28.6957 20.0004 28.6957Z" fill="#FFDA44"/>
<path d="M24.348 21.7392V19.1305C24.348 16.7331 22.3975 14.7827 20.0002 14.7827C17.6028 14.7827 15.6523 16.7332 15.6523 19.1305V21.7392L20.0002 22.6087L24.348 21.7392Z" fill="#338AF3"/>
<path d="M15.6523 21.7393C15.6523 24.1367 17.6028 26.0871 20.0002 26.0871C22.3975 26.0871 24.348 24.1366 24.348 21.7393H15.6523Z" fill="#6DA544"/>
<path d="M25.218 12.1739C25.218 10.7332 24.05 9.56519 22.6093 9.56519C21.9409 9.56519 21.3318 9.81676 20.8702 10.23V8.69559H21.7397V6.95645H20.8702V6.08691H19.131V6.95645H18.2615V8.69559H19.131V10.23C18.6694 9.81676 18.0602 9.56519 17.3919 9.56519C15.9512 9.56519 14.7832 10.7332 14.7832 12.1739C14.7832 12.9463 15.1192 13.64 15.6527 14.1178V15.6521H24.3484V14.1178C24.8819 13.64 25.218 12.9463 25.218 12.1739Z" fill="#FFDA44"/>
</g>
<defs>
<clipPath id="clip0_4893_3526">
<rect width="40" height="40" fill="white"/>
</clipPath>
</defs>
</svg>
