<svg width="40" height="40" viewBox="0 0 40 40" fill="none" xmlns="http://www.w3.org/2000/svg">
<g clip-path="url(#clip0_4893_3390)">
<path d="M20 40.0002C31.0457 40.0002 40 31.0459 40 20.0002C40 8.95455 31.0457 0.000244141 20 0.000244141C8.95431 0.000244141 0 8.95455 0 20.0002C0 31.0459 8.95431 40.0002 20 40.0002Z" fill="#F0F0F0"/>
<path d="M38.4396 12.2463C35.4108 5.05172 28.2958 0 19.9999 0C14.4769 0 9.47746 2.23898 5.8584 5.85851L10.867 12.2463H38.4396Z" fill="black"/>
<path d="M10.9238 27.6812L5.8584 34.1414C9.47746 37.7609 14.4769 39.9999 19.9999 39.9999C28.3238 39.9999 35.4591 34.9144 38.4705 27.6812H10.9238Z" fill="#496E2D"/>
<path d="M4.34766 14.7102V25.2174H39.3109C39.7595 23.554 39.9998 21.8053 39.9998 20C39.9998 18.1686 39.7531 16.3952 39.2919 14.7102H4.34766Z" fill="#A2001D"/>
<path d="M5.85785 5.85791C-1.95262 13.6684 -1.95262 26.3317 5.85785 34.1423C9.08543 30.9147 12.1896 27.8106 20 20.0001L5.85785 5.85791Z" fill="#0052B4"/>
<path d="M6.51449 15.0276L8.95551 18.4339L12.9499 17.1648L10.4646 20.5392L12.9057 23.9457L8.92848 22.6249L6.44316 25.9992L6.47051 21.8084L2.49316 20.4874L6.48723 19.2183L6.51449 15.0276Z" fill="#FFDA44"/>
</g>
<defs>
<clipPath id="clip0_4893_3390">
<rect width="40" height="40" fill="white"/>
</clipPath>
</defs>
</svg>
