<svg width="40" height="40" viewBox="0 0 40 40" fill="none" xmlns="http://www.w3.org/2000/svg">
<g clip-path="url(#clip0_4893_3516)">
<path d="M20 39.9998C31.0457 39.9998 40 31.0454 40 19.9998C40 8.95406 31.0457 -0.000244141 20 -0.000244141C8.95431 -0.000244141 0 8.95406 0 19.9998C0 31.0454 8.95431 39.9998 20 39.9998Z" fill="#FFDA44"/>
<path d="M12.1738 13.0435H38.7558C35.93 5.4275 28.5991 0 19.9999 0C14.4769 0 9.47746 2.23898 5.8584 5.85851L12.1738 13.0435Z" fill="#6DA544"/>
<path d="M12.1738 26.9565H38.7558C35.93 34.5726 28.5991 40.0001 19.9999 40.0001C14.4769 40.0001 9.47746 37.7611 5.8584 34.1415L12.1738 26.9565Z" fill="#6DA544"/>
<path d="M5.85785 5.85767C-1.95262 13.6681 -1.95262 26.3315 5.85785 34.142C9.08543 30.9145 12.1896 27.8103 20 19.9999L5.85785 5.85767Z" fill="#D80027"/>
<path d="M25.3965 16.5217L26.2599 19.1789H29.0538L26.7935 20.8211L27.6568 23.4783L25.3965 21.836L23.1362 23.4783L23.9995 20.8211L21.7393 19.1789H24.5332L25.3965 16.5217Z" fill="black"/>
<path d="M34.0919 16.5217L34.9552 19.1789H37.7491L35.4889 20.8211L36.3521 23.4783L34.0919 21.836L31.8315 23.4783L32.6949 20.8211L30.4346 19.1789H33.2285L34.0919 16.5217Z" fill="black"/>
</g>
<defs>
<clipPath id="clip0_4893_3516">
<rect width="40" height="40" fill="white"/>
</clipPath>
</defs>
</svg>
