<svg width="16" height="16" viewBox="0 0 16 16" fill="none" xmlns="http://www.w3.org/2000/svg">
<g clip-path="url(#clip0_1467_179817)">
<rect width="16" height="16" rx="8" fill="white"/>
<path fill-rule="evenodd" clip-rule="evenodd" d="M-3.2002 10.6667H19.1998V16H-3.2002V10.6667ZM-3.2002 0H19.1998V5.33333H-3.2002V0Z" fill="#1A47B8"/>
<path d="M8.00039 9.60039C8.88405 9.60039 9.60039 8.88405 9.60039 8.00039C9.60039 7.11674 8.88405 6.40039 8.00039 6.40039C7.11674 6.40039 6.40039 7.11674 6.40039 8.00039C6.40039 8.88405 7.11674 9.60039 8.00039 9.60039Z" fill="#1A47B8"/>
<path d="M8.00013 8.53346C8.29468 8.53346 8.53346 8.29468 8.53346 8.00013C8.53346 7.70558 8.29468 7.4668 8.00013 7.4668C7.70558 7.4668 7.4668 7.70558 7.4668 8.00013C7.4668 8.29468 7.70558 8.53346 8.00013 8.53346Z" fill="#FFDA2C"/>
<path fill-rule="evenodd" clip-rule="evenodd" d="M5.33301 7.4668L6.39967 8.53346L7.99967 9.60013L9.59967 8.53346L10.6663 7.4668L9.59967 9.60013H6.39967L5.33301 7.4668Z" fill="#249F58"/>
</g>
<defs>
<clipPath id="clip0_1467_179817">
<rect width="16" height="16" rx="8" fill="white"/>
</clipPath>
</defs>
</svg>
