<svg width="40" height="40" viewBox="0 0 40 40" fill="none" xmlns="http://www.w3.org/2000/svg">
<g clip-path="url(#clip0_4893_4353)">
<path d="M20 39.9998C31.0457 39.9998 40 31.0454 40 19.9998C40 8.95406 31.0457 -0.000244141 20 -0.000244141C8.9543 -0.000244141 0 8.95406 0 19.9998C0 31.0454 8.9543 39.9998 20 39.9998Z" fill="#F0F0F0"/>
<path d="M19.9998 0C12.0706 0 5.21938 4.61445 1.98438 11.3044H38.0152C34.7803 4.61445 27.929 0 19.9998 0Z" fill="#0052B4"/>
<path d="M19.9998 39.9999C27.929 39.9999 34.7803 35.3855 38.0153 28.6956H1.98438C5.21937 35.3855 12.0706 39.9999 19.9998 39.9999Z" fill="#0052B4"/>
<path d="M15.9839 20.8693L20.0003 13.9128L24.0167 20.8693H15.9839Z" fill="#FFDA44"/>
<path d="M25.2176 23.1664L20.0001 25.7752L14.7827 23.1664V19.6882H25.2176V23.1664Z" fill="#6DA544"/>
<path d="M24.9188 14.2114L23.0742 16.056C23.861 16.8428 24.3478 17.9298 24.3478 19.1304C24.3478 21.5317 22.4011 23.4782 19.9999 23.4782C17.5988 23.4782 15.6521 21.5316 15.6521 19.1304C15.6521 17.9298 16.1388 16.8428 16.9256 16.056L15.081 14.2114C13.8221 15.4702 13.0435 17.2093 13.0435 19.1304C13.0435 22.9724 16.158 26.0869 19.9999 26.0869C23.8419 26.0869 26.9564 22.9724 26.9564 19.1304C26.9564 17.2093 26.1778 15.4702 24.9188 14.2114Z" fill="#FFDA44"/>
</g>
<defs>
<clipPath id="clip0_4893_4353">
<rect width="40" height="40" fill="white"/>
</clipPath>
</defs>
</svg>
