<svg width="40" height="40" viewBox="0 0 40 40" fill="none" xmlns="http://www.w3.org/2000/svg">
<g clip-path="url(#clip0_4893_3341)">
<path d="M38.0155 28.6957C39.2869 26.0664 40 23.1165 40 20C40 16.8836 39.2869 13.9337 38.0155 11.3044L20 10.4348L1.98453 11.3043C0.713125 13.9337 0 16.8836 0 20C0 23.1165 0.713125 26.0664 1.98453 28.6957L20 29.5653L38.0155 28.6957Z" fill="#FFDA44"/>
<path d="M19.9998 0C12.0706 0 5.21937 4.61445 1.98438 11.3044H38.0152C34.7803 4.61445 27.929 0 19.9998 0Z" fill="black"/>
<path d="M19.9998 39.9999C12.0706 39.9999 5.21937 35.3855 1.98438 28.6956H38.0152C34.7803 35.3855 27.929 39.9999 19.9998 39.9999Z" fill="#0052B4"/>
<path d="M39.0555 13.9128H0.944453C0.331797 15.8323 0 17.8772 0 19.9998C0 22.1224 0.331797 24.1673 0.944453 26.0867H39.0555C39.6682 24.1673 40 22.1224 40 19.9998C40 17.8772 39.6682 15.8323 39.0555 13.9128Z" fill="#A2001D"/>
<path d="M6.95605 19.1304H33.043V20.8695H6.95605V19.1304Z" fill="#FFDA44"/>
<path d="M10.4346 15.6521H29.565V17.3912H10.4346V15.6521Z" fill="#FFDA44"/>
<path d="M29.6891 19.9999C29.6891 19.9999 25.217 25.2173 19.9996 25.2173C14.7823 25.2173 14.7822 19.9999 14.7822 19.9999C14.7822 19.9999 14.7822 14.7825 19.9996 14.7825C25.2171 14.7825 29.6891 19.9999 29.6891 19.9999Z" fill="#F0F0F0"/>
<path d="M20 25.2173C14.7826 25.2173 10.3105 19.9999 10.3105 19.9999C10.3105 19.9999 14.7826 14.7825 20 14.7825" fill="black"/>
<path d="M16.5215 18.2607H18.2606V21.739H16.5215V18.2607Z" fill="#F0F0F0"/>
<path d="M21.7393 18.2607H23.4784V21.739H21.7393V18.2607Z" fill="black"/>
<path d="M6.95691 21.739C7.91742 21.739 8.69606 20.9604 8.69606 19.9999C8.69606 19.0394 7.91742 18.2607 6.95691 18.2607C5.99641 18.2607 5.21777 19.0394 5.21777 19.9999C5.21777 20.9604 5.99641 21.739 6.95691 21.739Z" fill="#0052B4"/>
<path d="M33.0438 21.739C34.0043 21.739 34.783 20.9604 34.783 19.9999C34.783 19.0394 34.0043 18.2607 33.0438 18.2607C32.0833 18.2607 31.3047 19.0394 31.3047 19.9999C31.3047 20.9604 32.0833 21.739 33.0438 21.739Z" fill="#0052B4"/>
</g>
<defs>
<clipPath id="clip0_4893_3341">
<rect width="40" height="40" fill="white"/>
</clipPath>
</defs>
</svg>
