<svg width="40" height="40" viewBox="0 0 40 40" fill="none" xmlns="http://www.w3.org/2000/svg">
<g clip-path="url(#clip0_4893_3269)">
<path d="M20 39.9999C31.0457 39.9999 40 31.0456 40 19.9999C40 8.95418 31.0457 -0.00012207 20 -0.00012207C8.9543 -0.00012207 0 8.95418 0 19.9999C0 31.0456 8.9543 39.9999 20 39.9999Z" fill="#FFDA44"/>
<path d="M19.9994 -0.00012207C19.9849 3.41797e-05 19.1299 7.99988 19.1299 7.99988H36.0003C32.3515 3.1423 26.5425 -0.00012207 19.9994 -0.00012207Z" fill="#496E2D"/>
<path d="M19.9999 39.9999C26.543 39.9999 32.352 36.8575 36.0007 31.9999H3.99902C7.64777 36.8575 13.4568 39.9999 19.9999 39.9999Z" fill="#496E2D"/>
<path d="M39.5989 15.9999H19.1299L19.9994 23.9999H39.5989C39.8614 22.7075 39.9994 21.3698 39.9994 19.9999C39.9994 18.63 39.8613 17.2923 39.5989 15.9999Z" fill="#496E2D"/>
<path d="M20 23.9999C20 19.826 20 4.6955 20 -0.00012207C8.95437 -0.00012207 0 8.95425 0 19.9999C0 21.3698 0.138125 22.7075 0.400469 23.9999H20Z" fill="#D80027"/>
<path d="M11.0356 9.56519L12.3306 13.5507H16.5216L13.1312 16.0142L14.4261 20L11.0356 17.5367L7.64512 20L8.9402 16.0142L5.5498 13.5507H9.74066L11.0356 9.56519Z" fill="#F0F0F0"/>
</g>
<defs>
<clipPath id="clip0_4893_3269">
<rect width="40" height="40" fill="white"/>
</clipPath>
</defs>
</svg>
