<svg width="16" height="16" viewBox="0 0 16 16" fill="none" xmlns="http://www.w3.org/2000/svg">
<g clip-path="url(#clip0_1467_179697)">
<rect width="16" height="16" rx="8" fill="white"/>
<path fill-rule="evenodd" clip-rule="evenodd" d="M-3.2002 10.666H19.1998V15.9993H-3.2002V10.666Z" fill="#249F58"/>
<path fill-rule="evenodd" clip-rule="evenodd" d="M9.56839 7.68039C9.58972 7.78386 9.60039 7.89052 9.60039 8.00039C9.60039 8.88359 8.88359 9.60039 8.00039 9.60039C7.11719 9.60039 6.40039 8.88359 6.40039 8.00039C6.40039 7.89052 6.41106 7.78386 6.43239 7.68039C6.58172 8.16679 7.22599 8.53372 8.00039 8.53372C8.77479 8.53372 9.41906 8.16679 9.56839 7.68039ZM8.00039 7.46706C8.29479 7.46706 8.53372 7.22812 8.53372 6.93372C8.53372 6.63932 8.29479 6.40039 8.00039 6.40039C7.70599 6.40039 7.46706 6.63932 7.46706 6.93372C7.46706 7.22812 7.70599 7.46706 8.00039 7.46706Z" fill="#FFDA2C"/>
<path fill-rule="evenodd" clip-rule="evenodd" d="M-3.2002 0H19.1998V5.33333H-3.2002V0Z" fill="#AF010D"/>
</g>
<defs>
<clipPath id="clip0_1467_179697">
<rect width="16" height="16" rx="8" fill="white"/>
</clipPath>
</defs>
</svg>
