<svg width="40" height="40" viewBox="0 0 40 40" fill="none" xmlns="http://www.w3.org/2000/svg">
<g clip-path="url(#clip0_4893_3294)">
<path d="M1.98453 11.3043C0.713125 13.9337 0 16.8835 0 20C0 23.1164 0.713125 26.0662 1.98453 28.6956L20 30.4347L38.0155 28.6956C39.2869 26.0662 40 23.1164 40 20C40 16.8835 39.2869 13.9337 38.0155 11.3043L20 9.56519L1.98453 11.3043Z" fill="#F0F0F0"/>
<path d="M1.98535 28.6957C5.22027 35.3855 12.071 40.0001 20.0001 40.0001C27.9293 40.0001 34.78 35.3855 38.0149 28.6957H1.98535Z" fill="#6DA544"/>
<path d="M1.98535 11.3043H38.0149C34.78 4.61441 27.9293 -0.00012207 20.0001 -0.00012207C12.071 -0.00012207 5.22027 4.61441 1.98535 11.3043Z" fill="#D80027"/>
<path d="M16.5215 25.2173H23.478V22.2607L22.0867 22.9563L19.9998 20.8694L17.9128 22.9563L16.5215 22.2607V25.2173Z" fill="#FFDA44"/>
<path d="M12.5414 21.739L12.8652 22.7354H13.9129L13.0652 23.3513L13.3891 24.3477L12.5414 23.7319L11.6938 24.3477L12.0176 23.3513L11.1699 22.7354H12.2176L12.5414 21.739Z" fill="#FFDA44"/>
<path d="M13.5453 18.2609L13.8691 19.2573H14.9168L14.0691 19.8731L14.3929 20.8695L13.5453 20.2538L12.6977 20.8695L13.0215 19.8731L12.1738 19.2573H13.2215L13.5453 18.2609Z" fill="#FFDA44"/>
<path d="M16.4145 15.6521L16.7383 16.6485H17.7859L16.9384 17.2644L17.262 18.2608L16.4145 17.645L15.5669 18.2608L15.8906 17.2644L15.043 16.6485H16.0907L16.4145 15.6521Z" fill="#FFDA44"/>
<path d="M27.4584 21.739L27.1346 22.7354H26.0869L26.9346 23.3513L26.6107 24.3477L27.4584 23.7319L28.306 24.3477L27.9822 23.3513L28.8299 22.7354H27.7822L27.4584 21.739Z" fill="#FFDA44"/>
<path d="M26.4545 18.2609L26.1307 19.2573H25.083L25.9307 19.8731L25.6068 20.8695L26.4545 20.2538L27.3021 20.8695L26.9783 19.8731L27.826 19.2573H26.7783L26.4545 18.2609Z" fill="#FFDA44"/>
<path d="M23.5853 15.6521L23.2614 16.6485H22.2139L23.0614 17.2644L22.7376 18.2608L23.5853 17.645L24.4328 18.2608L24.1091 17.2644L24.9567 16.6485H23.909L23.5853 15.6521Z" fill="#FFDA44"/>
<path d="M19.9994 14.3477L20.3232 15.3441H21.3709L20.5232 15.9599L20.8471 16.9563L19.9994 16.3405L19.1518 16.9563L19.4756 15.9599L18.6279 15.3441H19.6756L19.9994 14.3477Z" fill="#FFDA44"/>
</g>
<defs>
<clipPath id="clip0_4893_3294">
<rect width="40" height="40" fill="white"/>
</clipPath>
</defs>
</svg>
