<svg width="16" height="16" viewBox="0 0 16 16" fill="none" xmlns="http://www.w3.org/2000/svg">
<rect width="16" height="16" rx="8" fill="#249F58"/>
<path fill-rule="evenodd" clip-rule="evenodd" d="M0 0H1.06667V16H0V0ZM2.13333 0H3.2V16H2.13333V0ZM4.26667 0H5.33333V16H4.26667V0Z" fill="#D4AF2C"/>
<path fill-rule="evenodd" clip-rule="evenodd" d="M3.2 0L5.33333 1.6L3.2 3.2V0ZM3.2 3.2L5.33333 4.8L3.2 6.4V3.2ZM3.2 6.4L5.33333 8L3.2 9.6V6.4ZM3.2 9.6L5.33333 11.2L3.2 12.8V9.6ZM3.2 12.8L5.33333 14.4L3.2 16V12.8ZM2.13333 0L0 1.6L2.13333 3.2V0ZM2.13333 3.2L0 4.8L2.13333 6.4V3.2ZM2.13333 6.4L0 8L2.13333 9.6V6.4ZM2.13333 9.6L0 11.2L2.13333 12.8V9.6ZM2.13333 12.8L0 14.4L2.13333 16V12.8ZM2.13333 0H3.2V2.13333H2.13333V0ZM2.13333 13.8667H3.2V16H2.13333V13.8667ZM2.13333 5.33333H3.2V7.46667H2.13333V5.33333ZM2.13333 3.2H3.2V4.26667H2.13333V3.2ZM2.13333 11.7333H3.2V12.8H2.13333V11.7333ZM2.13333 8.53333H3.2V10.6667H2.13333V8.53333Z" fill="#AE6A3E"/>
<path fill-rule="evenodd" clip-rule="evenodd" d="M9.85186 3.21415C9.94466 3.20349 10.0385 3.19922 10.1335 3.19922C11.6055 3.19922 12.8001 4.39389 12.8001 5.86589C12.8001 7.33789 11.6055 8.53255 10.1335 8.53255C8.66146 8.53255 7.4668 7.33789 7.4668 5.86589C7.4668 5.76989 7.47213 5.67709 7.48173 5.58429C7.60546 6.64455 8.50573 7.46589 9.60013 7.46589C10.7788 7.46589 11.7335 6.51122 11.7335 5.33255C11.7335 4.23922 10.9121 3.33789 9.85186 3.21415ZM8.53346 4.26589H9.60013V5.33255H8.53346V4.26589Z" fill="white"/>
<path opacity="0.5" fill-rule="evenodd" clip-rule="evenodd" d="M6.40039 4.26615H7.46706V5.33281H6.40039V4.26615ZM8.53372 2.13281H9.60039V3.19948H8.53372V2.13281Z" fill="white"/>
</svg>
