<svg width="40" height="40" viewBox="0 0 40 40" fill="none" xmlns="http://www.w3.org/2000/svg">
<g clip-path="url(#clip0_4893_3209)">
<path d="M19.9995 0C18.5062 0 17.0516 0.165078 15.6518 0.475391L14.7822 19.9999L15.6518 39.5245C17.0517 39.8348 18.5063 40 19.9995 40C31.0452 40 39.9995 31.0456 39.9995 19.9999C39.9994 8.9543 31.0452 0 19.9995 0V0Z" fill="#496E2D"/>
<path d="M5.21734 6.52893C1.97641 10.0833 0 14.8106 0 19.9999C0 25.1891 1.97648 29.9164 5.21742 33.471L6.08695 19.9999L5.21734 6.52893Z" fill="#496E2D"/>
<path d="M29.2516 15.0857C30.2356 12.343 29.1302 9.36014 26.7577 7.87451C27.1845 7.93006 27.6116 8.03053 28.0332 8.1817C31.1975 9.31701 32.8423 12.8023 31.707 15.9665C30.5717 19.131 27.0864 20.7757 23.9221 19.6404C23.5005 19.4891 23.1068 19.295 22.7422 19.0666C25.518 19.4281 28.2677 17.8283 29.2516 15.0857Z" fill="#F0F0F0"/>
<path d="M23.794 7.1228L22.9389 8.22765L21.6242 7.75585L22.4106 8.91038L21.5557 10.0151L22.8967 9.62397L23.6832 10.7783L23.7254 9.3821L25.0665 8.99093L23.7518 8.51929L23.794 7.1228Z" fill="#F0F0F0"/>
<path d="M26.1027 10.7227L25.2476 11.8274L23.9328 11.3556L24.7193 12.5102L23.8643 13.6148L25.2053 13.2236L25.9918 14.3782L26.0342 12.9819L27.3752 12.5906L26.0603 12.1189L26.1027 10.7227Z" fill="#F0F0F0"/>
<path d="M19.7237 8.43396L18.8686 9.53865L17.5539 9.06701L18.3404 10.2215L17.4854 11.3262L18.8263 10.9351L19.6129 12.0895L19.6552 10.6933L20.9962 10.3021L19.6814 9.83029L19.7237 8.43396Z" fill="#F0F0F0"/>
<path d="M19.63 12.5575L18.775 13.6623L17.4602 13.1905L18.2468 14.3451L17.3916 15.4498L18.7328 15.0587L19.5193 16.213L19.5615 14.8168L20.9026 14.4256L19.5877 13.9538L19.63 12.5575Z" fill="#F0F0F0"/>
<path d="M23.5539 13.9653L22.6988 15.07L21.384 14.5983L22.1706 15.7528L21.3154 16.8574L22.6566 16.4663L23.4431 17.6209L23.4853 16.2245L24.8264 15.8334L23.5115 15.3617L23.5539 13.9653Z" fill="#F0F0F0"/>
<path d="M5.21777 6.52893V33.4709C7.94277 36.4595 11.5623 38.6177 15.6525 39.5244V0.475342C11.5622 1.38206 7.94285 3.54026 5.21777 6.52893Z" fill="#D80027"/>
<path d="M9.1991 10.53L7.45215 9.22863V7.38824L9.1991 6.08691H11.6698L13.4168 7.38824V9.22863L11.6698 10.53H9.1991Z" fill="#F0F0F0"/>
<path d="M10.4345 6.08704H9.1991L7.45215 7.38836V8.28813H10.4345V6.08704Z" fill="#FF9811"/>
<path d="M10.4346 10.5302H11.6699L13.4168 9.22874V8.28992H10.4346V10.5302Z" fill="#FF9811"/>
<path d="M9.1991 33.913L7.45215 32.6116V30.7713L9.1991 29.4698H11.6698L13.4168 30.7713V32.6116L11.6698 33.913H9.1991Z" fill="#F0F0F0"/>
<path d="M10.4345 29.4698H9.1991L7.45215 30.7713V31.671H10.4345V29.4698Z" fill="#FF9811"/>
<path d="M10.4346 33.913H11.6699L13.4168 32.6116V31.6729H10.4346V33.913Z" fill="#FF9811"/>
<path d="M9.20008 22.2216L7.45312 20.9202V19.0798L9.20008 17.7784H11.6708L13.4177 19.0798V20.9202L11.6708 22.2216H9.20008Z" fill="#496E2D"/>
<path d="M13.4785 25.0847H12.7175V24.3239H11.3804L10.435 23.3784L9.48957 24.3239H8.15246V25.0847H7.3916V26.6065H8.15246V27.3673H9.48949L10.435 28.3129L11.3804 27.3673H12.7175V26.6065H13.4785V25.0847Z" fill="#496E2D"/>
<path d="M13.4785 13.3933H12.7175V12.6324H11.3804L10.435 11.6869L9.48957 12.6324H8.15246V13.3933H7.3916V14.915H8.15246V15.6759H9.48949L10.435 16.6215L11.3804 15.6759H12.7175V14.915H13.4785V13.3933Z" fill="#496E2D"/>
<path d="M9.56543 19.1305H11.3046V20.8696H9.56543V19.1305Z" fill="#D80027"/>
<path d="M10.435 15.0235C10.9152 15.0235 11.3045 14.6342 11.3045 14.154C11.3045 13.6737 10.9152 13.2844 10.435 13.2844C9.95473 13.2844 9.56543 13.6737 9.56543 14.154C9.56543 14.6342 9.95473 15.0235 10.435 15.0235Z" fill="#D80027"/>
<path d="M10.435 26.7156C10.9152 26.7156 11.3045 26.3263 11.3045 25.8461C11.3045 25.3659 10.9152 24.9766 10.435 24.9766C9.95473 24.9766 9.56543 25.3659 9.56543 25.8461C9.56543 26.3263 9.95473 26.7156 10.435 26.7156Z" fill="#D80027"/>
</g>
<defs>
<clipPath id="clip0_4893_3209">
<rect width="40" height="40" fill="white"/>
</clipPath>
</defs>
</svg>
