<svg width="40" height="40" viewBox="0 0 40 40" fill="none" xmlns="http://www.w3.org/2000/svg">
<g clip-path="url(#clip0_4893_3246)">
<path d="M20 40.0001C31.0457 40.0001 40 31.0458 40 20.0001C40 8.95443 31.0457 0.00012207 20 0.00012207C8.95431 0.00012207 0 8.95443 0 20.0001C0 31.0458 8.95431 40.0001 20 40.0001Z" fill="#D80027"/>
<path d="M19.9998 29.5653C25.2825 29.5653 29.565 25.2828 29.565 20.0001C29.565 14.7173 25.2825 10.4348 19.9998 10.4348C14.7171 10.4348 10.4346 14.7173 10.4346 20.0001C10.4346 25.2828 14.7171 29.5653 19.9998 29.5653Z" fill="#F0F0F0"/>
<path d="M21.1779 16.3428L22.8189 18.6041L25.4764 17.7424L23.8329 20.0018L25.4737 22.263L22.817 21.398L21.1735 23.6574L21.1752 20.8636L18.5186 19.9986L21.1762 19.1368L21.1779 16.3428Z" fill="#D80027"/>
<path d="M22.1734 25.6523C19.0518 25.6523 16.5212 23.1217 16.5212 20.0001C16.5212 16.8786 19.0518 14.348 22.1734 14.348C23.1466 14.348 24.0625 14.594 24.862 15.0273C23.6077 13.8007 21.8925 13.0436 19.9995 13.0436C16.1576 13.0436 13.043 16.1581 13.043 20.0001C13.043 23.842 16.1576 26.9565 19.9995 26.9565C21.8925 26.9565 23.6078 26.1994 24.862 24.9728C24.0625 25.4062 23.1466 25.6523 22.1734 25.6523Z" fill="#D80027"/>
</g>
<defs>
<clipPath id="clip0_4893_3246">
<rect width="40" height="40" fill="white"/>
</clipPath>
</defs>
</svg>
