<svg width="16" height="16" viewBox="0 0 16 16" fill="none" xmlns="http://www.w3.org/2000/svg">
<rect width="16" height="16" rx="8" fill="#F93939"/>
<path d="M7.99994 11.7342C10.0618 11.7342 11.7333 10.0628 11.7333 8.00091C11.7333 5.93905 10.0618 4.26758 7.99994 4.26758C5.93807 4.26758 4.2666 5.93905 4.2666 8.00091C4.2666 10.0628 5.93807 11.7342 7.99994 11.7342Z" fill="white"/>
<path fill-rule="evenodd" clip-rule="evenodd" d="M9.59961 7.4668H10.6663V8.53346H9.59961V7.4668Z" fill="#F93939"/>
<path fill-rule="evenodd" clip-rule="evenodd" d="M10.133 9.60065C9.64661 10.2481 8.87221 10.6673 7.99967 10.6673C6.52767 10.6673 5.33301 9.47265 5.33301 8.00065C5.33301 6.52865 6.52767 5.33398 7.99967 5.33398C8.87221 5.33398 9.64661 5.75318 10.133 6.40065H8.53301C7.64981 6.40065 6.93301 7.11745 6.93301 8.00065C6.93301 8.88385 7.64981 9.60065 8.53301 9.60065H10.133Z" fill="#F93939"/>
</svg>
