<svg width="16" height="16" viewBox="0 0 16 16" fill="none" xmlns="http://www.w3.org/2000/svg">
<rect width="16" height="16" rx="8" fill="#F93939"/>
<path fill-rule="evenodd" clip-rule="evenodd" d="M11.7358 9.22819L10.4963 9.87885L10.7331 8.49965L9.73047 7.52152L11.1171 7.31885L11.7358 6.06445L12.3545 7.31992L13.7411 7.52259L12.7385 8.49859L12.9753 9.87779" fill="white"/>
<path fill-rule="evenodd" clip-rule="evenodd" d="M6.93353 11.7342C8.9954 11.7342 10.6669 10.0628 10.6669 8.00091C10.6669 5.93904 8.9954 4.26758 6.93353 4.26758C4.87166 4.26758 3.2002 5.93904 3.2002 8.00091C3.2002 10.0628 4.87166 11.7342 6.93353 11.7342ZM8.0002 10.6676C9.4722 10.6676 10.6669 9.47291 10.6669 8.00091C10.6669 6.52891 9.4722 5.33424 8.0002 5.33424C6.5282 5.33424 5.33353 6.52891 5.33353 8.00091C5.33353 9.47291 6.5282 10.6676 8.0002 10.6676Z" fill="white"/>
</svg>
