<svg width="40" height="40" viewBox="0 0 40 40" fill="none" xmlns="http://www.w3.org/2000/svg">
<g clip-path="url(#clip0_4893_3254)">
<path d="M10.8292 2.2207C9.03875 3.14484 7.35805 4.35617 5.85711 5.85711C4.35609 7.35812 3.14477 9.03883 2.2207 10.8293L15.0806 24.9191L29.1704 37.779C30.9609 36.8548 32.6416 35.6435 34.1426 34.1427C35.6436 32.6416 36.8548 30.9609 37.779 29.1705L24.9191 15.0806L10.8292 2.2207Z" fill="#F0F0F0"/>
<path d="M34.1427 34.1427C34.9817 33.3037 35.73 32.4085 36.3888 31.4695L8.53055 3.61121C7.59156 4.26988 6.69633 5.01816 5.85734 5.85714C5.01836 6.69613 4.27008 7.59136 3.61133 8.53043L31.4695 36.3885C32.4084 35.7299 33.3038 34.9817 34.1427 34.1427Z" fill="black"/>
<path d="M5.85718 34.1426C12.1671 40.4525 21.6434 41.6638 29.1705 37.7789L2.22085 10.8292C-1.66391 18.3563 -0.452428 27.8327 5.85718 34.1426Z" fill="#D80027"/>
<path d="M34.1424 5.85716C27.8325 -0.452684 18.3561 -1.66393 10.8291 2.22068L37.7787 29.1705C41.6636 21.6435 40.4523 12.167 34.1424 5.85716Z" fill="#D80027"/>
</g>
<defs>
<clipPath id="clip0_4893_3254">
<rect width="40" height="40" fill="white"/>
</clipPath>
</defs>
</svg>
