<svg width="40" height="40" viewBox="0 0 40 40" fill="none" xmlns="http://www.w3.org/2000/svg">
<g clip-path="url(#clip0_4893_3185)">
<path d="M40 19.9999C40 31.0456 31.0456 39.9999 20.0001 39.9999C8.95438 39.9999 0 31.0456 0 19.9999C0 20.0047 20.0001 0.00212646 20.0001 -6.10352e-05C31.0456 -6.10352e-05 40 8.95431 40 19.9999Z" fill="#338AF3"/>
<path d="M9.56543 20H16.3109L10.435 13.0435L9.56543 15.6522V20Z" fill="#0052B4"/>
<path d="M20.0005 16.3109L13.0439 9.56531H20.0004L20.0005 16.3109Z" fill="#0052B4"/>
<path d="M19.9463 20.0001H19.9998C19.9998 19.9821 19.9998 19.9646 19.9998 19.9465C19.982 19.9644 19.9642 19.9822 19.9463 20.0001Z" fill="#F0F0F0"/>
<path d="M20.0001 10.4347C20.0001 6.91557 20.0001 4.60963 20.0001 -6.10352e-05H19.9967C8.9525 0.00181397 0 8.95533 0 19.9999H10.4348V14.1241L16.3107 19.9999H19.9466C19.9645 19.9821 19.9823 19.9643 20.0002 19.9464C20.0002 18.599 20.0002 17.3967 20.0002 16.3107L14.1241 10.4347H20.0001Z" fill="#F0F0F0"/>
<path d="M10.1181 2.60883C6.99004 4.39 4.38957 6.99047 2.6084 10.1185V20.0002H7.82582V7.8264V7.82625H19.9997C19.9997 6.1807 19.9997 4.61304 19.9997 2.60883H10.1181Z" fill="#D80027"/>
<path d="M19.9998 17.5407L12.8939 10.435H10.4346V10.4352L19.9996 20.0002H19.9998C19.9998 20.0002 19.9998 18.3043 19.9998 17.5407Z" fill="#D80027"/>
<path d="M21.8286 33.0436L22.2603 34.3722H23.6573L22.5272 35.1933L22.9589 36.5218L21.8286 35.7008L20.6985 36.5218L21.1302 35.1933L20 34.3722H21.3969L21.8286 33.0436Z" fill="#FFDA44"/>
<path d="M32.9537 24.3479L33.3853 25.6765H34.7823L33.6522 26.4977L34.084 27.8262L32.9537 27.0052L31.8236 27.8262L32.2553 26.4977L31.125 25.6765H32.522L32.9537 24.3479Z" fill="#FFDA44"/>
<path d="M35.7417 11.3044L36.1734 12.633H37.5704L36.4403 13.4541L36.8719 14.7826L35.7417 13.9616L34.6116 14.7826L35.0433 13.4541L33.9131 12.633H35.31L35.7417 11.3044Z" fill="#FFDA44"/>
<path d="M36.4322 20.8696L36.8638 22.1982H38.2608L37.1307 23.0193L37.5624 24.3478L36.4322 23.5268L35.3021 24.3478L35.7338 23.0193L34.6035 22.1982H36.0005L36.4322 20.8696Z" fill="#FFDA44"/>
<path d="M23.832 29.9187L25.0769 30.553L26.0646 29.5652L25.8462 30.9449L27.0908 31.5791L25.7109 31.7977L25.4924 33.1774L24.8584 31.9327L23.4785 32.1513L24.4663 31.1636L23.832 29.9187Z" fill="#FFDA44"/>
<path d="M23.832 24.7014L25.0769 25.3356L26.0646 24.3479L25.8462 25.7276L27.0908 26.3617L25.7109 26.5803L25.4924 27.9601L24.8584 26.7154L23.4785 26.934L24.4663 25.9463L23.832 24.7014Z" fill="#FFDA44"/>
<path d="M28.1796 28.0457L29.4245 28.68L30.4123 27.6923L30.1938 29.0719L31.4384 29.7061L30.0586 29.9247L29.8401 31.3045L29.206 30.0596L27.8262 30.2784L28.8139 29.2906L28.1796 28.0457Z" fill="#FFDA44"/>
<path d="M28.1796 16.8752L29.4245 17.5095L30.4123 16.5217L30.1938 17.9014L31.4384 18.5356L30.0586 18.7541L29.8401 20.1339L29.206 18.8892L27.8262 19.1078L28.8139 18.1201L28.1796 16.8752Z" fill="#FFDA44"/>
<path d="M32.3935 16.7414L33.6384 17.3756L34.6261 16.3879L34.4076 17.7676L35.6523 18.4017L34.2725 18.6203L34.0539 20.0001L33.4199 18.7554L32.04 18.974L33.0278 17.9862L32.3935 16.7414Z" fill="#FFDA44"/>
</g>
<defs>
<clipPath id="clip0_4893_3185">
<rect width="40" height="40" fill="white"/>
</clipPath>
</defs>
</svg>
