<svg width="16" height="16" viewBox="0 0 16 16" fill="none" xmlns="http://www.w3.org/2000/svg">
<g clip-path="url(#clip0_1467_179687)">
<rect width="16" height="16" rx="8" fill="#3A99FF"/>
<path fill-rule="evenodd" clip-rule="evenodd" d="M13.8668 5.33398V6.40065H14.9335V5.33398H13.8668ZM17.0668 5.33398V6.40065H18.1335V5.33398H17.0668ZM11.7335 8.53398V9.60065H12.8001V8.53398H11.7335ZM16.0001 9.60065V10.6673H17.0668V9.60065H16.0001ZM11.7335 11.734V12.8007H12.8001V11.734H11.7335ZM7.4668 10.6673V11.734H8.53346V10.6673H7.4668Z" fill="#FFDA2C"/>
<path d="M8.53333 1.06641H1.06667C0.477563 1.06641 0 1.54397 0 2.13307V7.46641C0 8.05551 0.477563 8.53307 1.06667 8.53307H8.53333C9.12244 8.53307 9.6 8.05551 9.6 7.46641V2.13307C9.6 1.54397 9.12244 1.06641 8.53333 1.06641Z" fill="white"/>
<path fill-rule="evenodd" clip-rule="evenodd" d="M4.26641 5.33281H1.06641V4.26615H4.26641V2.13281H5.33307V4.26615H8.53307V5.33281H5.33307V7.46615H4.26641V5.33281ZM6.93307 6.39948V7.46615H8.53307V6.39948H6.93307ZM6.93307 2.13281V3.19948H8.53307V2.13281H6.93307ZM1.06641 6.39948V7.46615H2.66641V6.39948H1.06641ZM1.06641 2.13281V3.19948H2.66641V2.13281H1.06641Z" fill="#F93939"/>
</g>
<defs>
<clipPath id="clip0_1467_179687">
<rect width="16" height="16" rx="8" fill="white"/>
</clipPath>
</defs>
</svg>
