<svg width="40" height="40" viewBox="0 0 40 40" fill="none" xmlns="http://www.w3.org/2000/svg">
<g clip-path="url(#clip0_4893_3174)">
<path d="M34.9057 33.3334C38.0731 29.7949 40 25.1229 40 20.0001C40 14.8773 38.073 10.2052 34.9056 6.66675L20 5.21753L5.09438 6.66675C1.92695 10.2052 0 14.8773 0 20.0001C0 25.1229 1.92688 29.7949 5.0943 33.3334L20 34.7827L34.9057 33.3334Z" fill="#FFDA44"/>
<path d="M5.09473 6.66664H34.9061C31.2439 2.57547 25.9232 0 20.0003 0C14.0775 0 8.75676 2.57547 5.09473 6.66664Z" fill="black"/>
<path d="M0 20L20 21.7391L40 20C40 17.6622 39.5976 15.4186 38.8603 13.3333H1.13969C0.402422 15.4186 0 17.6622 0 20H0Z" fill="#D80027"/>
<path d="M1.13969 26.6666H38.8605C39.5976 24.5813 40 22.3378 40 20H0C0 22.3378 0.402422 24.5813 1.13969 26.6666Z" fill="black"/>
<path d="M34.9052 33.3333H5.09375C8.75578 37.4245 14.0765 40 19.9995 40C25.9224 40 31.2431 37.4245 34.9052 33.3333Z" fill="#D80027"/>
<path d="M26.674 20.0001C26.674 23.6862 23.6862 26.674 20.0001 26.674C16.3139 26.674 13.3262 23.6862 13.3262 20.0001C13.3262 16.3139 16.3139 13.3262 20.0001 13.3262C23.6862 13.3262 26.674 16.3139 26.674 20.0001Z" fill="#F0F0F0"/>
<path d="M22.4448 20.3405L19.9998 19.281C19.9998 19.281 20.5719 17.3823 20.6023 17.2524C20.6246 17.1575 20.6365 17.0585 20.6365 16.9568C20.6365 16.5966 20.4905 16.2705 20.2544 16.0345L20.8692 15.4197C20.4759 15.0263 19.9323 14.783 19.332 14.783C18.7317 14.783 18.1882 15.0262 17.7948 15.4197L18.4097 16.0345C18.1736 16.2705 18.0277 16.5966 18.0277 16.9568C18.0277 17.0885 18.0476 17.2155 18.0839 17.3354L17.1582 18.261H18.8407C18.8407 18.261 18.1451 19.3059 17.7653 20.1639C17.3855 21.0219 17.7705 22.0693 18.6482 22.4594L19.1557 22.685L19.9998 23.4784V24.348L19.1303 25.2175H20.8695V23.4784L21.663 22.6848H23.3042C23.3121 22.6685 23.3204 22.6526 23.3279 22.6359C23.7178 21.7583 23.3225 20.7305 22.4448 20.3405Z" fill="black"/>
</g>
<defs>
<clipPath id="clip0_4893_3174">
<rect width="40" height="40" fill="white"/>
</clipPath>
</defs>
</svg>
