<svg width="16" height="16" viewBox="0 0 16 16" fill="none" xmlns="http://www.w3.org/2000/svg">
<g clip-path="url(#clip0_1467_179682)">
<rect width="16" height="16" rx="8" fill="white"/>
<path fill-rule="evenodd" clip-rule="evenodd" d="M0 0H9.6V7.46667H0V0Z" fill="#1A47B8"/>
<path fill-rule="evenodd" clip-rule="evenodd" d="M9.6 0V1.06667H22.4V0H9.6ZM9.6 2.13333V3.2H22.4V2.13333H9.6ZM9.6 4.26667V5.33333H22.4V4.26667H9.6ZM9.6 6.4V7.46667H22.4V6.4H9.6ZM0 8.53333V9.6H22.4V8.53333H0ZM0 10.6667V11.7333H22.4V10.6667H0ZM0 12.8V13.8667H22.4V12.8H0ZM0 14.9333V16H22.4V14.9333H0Z" fill="#F93939"/>
<path fill-rule="evenodd" clip-rule="evenodd" d="M1.06641 1.06641V2.13307H2.13307V1.06641H1.06641ZM3.19974 1.06641V2.13307H4.26641V1.06641H3.19974ZM5.33307 1.06641V2.13307H6.39974V1.06641H5.33307ZM7.46641 1.06641V2.13307H8.53307V1.06641H7.46641ZM6.39974 2.13307V3.19974H7.46641V2.13307H6.39974ZM4.26641 2.13307V3.19974H5.33307V2.13307H4.26641ZM2.13307 2.13307V3.19974H3.19974V2.13307H2.13307ZM1.06641 3.19974V4.26641H2.13307V3.19974H1.06641ZM3.19974 3.19974V4.26641H4.26641V3.19974H3.19974ZM5.33307 3.19974V4.26641H6.39974V3.19974H5.33307ZM7.46641 3.19974V4.26641H8.53307V3.19974H7.46641ZM1.06641 5.33307V6.39974H2.13307V5.33307H1.06641ZM3.19974 5.33307V6.39974H4.26641V5.33307H3.19974ZM5.33307 5.33307V6.39974H6.39974V5.33307H5.33307ZM7.46641 5.33307V6.39974H8.53307V5.33307H7.46641ZM6.39974 4.26641V5.33307H7.46641V4.26641H6.39974ZM4.26641 4.26641V5.33307H5.33307V4.26641H4.26641ZM2.13307 4.26641V5.33307H3.19974V4.26641H2.13307Z" fill="white"/>
</g>
<defs>
<clipPath id="clip0_1467_179682">
<rect width="16" height="16" rx="8" fill="white"/>
</clipPath>
</defs>
</svg>
