<svg width="40" height="40" viewBox="0 0 40 40" fill="none" xmlns="http://www.w3.org/2000/svg">
<g clip-path="url(#clip0_4893_3121)">
<path d="M20 40C31.0457 40 40 31.0457 40 20C40 8.9543 31.0457 0 20 0C8.9543 0 0 8.9543 0 20C0 31.0457 8.9543 40 20 40Z" fill="#F0F0F0"/>
<path d="M20 14.7826H39.311C38.8095 12.9221 38.0473 11.1689 37.0645 9.56519H20V14.7826Z" fill="#338AF3"/>
<path d="M7.55031 35.6522H32.4498C34.275 34.1985 35.8403 32.4327 37.0645 30.4348H2.93555C4.15984 32.4326 5.72515 34.1985 7.55031 35.6522Z" fill="#338AF3"/>
<path d="M20 0V4.34781H32.4498C29.0334 1.62687 24.707 0 20 0Z" fill="#338AF3"/>
<path d="M20 14.7826H39.311C38.8095 12.9221 38.0473 11.1689 37.0645 9.56519H20V14.7826Z" fill="#338AF3"/>
<path d="M0 20C0 21.8052 0.240625 23.5538 0.688984 25.2174H39.3111C39.7594 23.5538 40 21.8052 40 20H0Z" fill="#338AF3"/>
<path d="M17.391 11.7047L14.9484 12.8537L16.2491 15.2193L13.5967 14.712L13.2606 17.3913L11.4133 15.4207L9.56578 17.3913L9.22977 14.712L6.57742 15.2192L7.87805 12.8536L5.43555 11.7047L7.87812 10.5559L6.57742 8.19026L9.22969 8.69761L9.56586 6.01831L11.4133 7.98894L13.2607 6.01831L13.5967 8.69761L16.2491 8.19026L14.9484 10.556L17.391 11.7047Z" fill="#FFDA44"/>
</g>
<defs>
<clipPath id="clip0_4893_3121">
<rect width="40" height="40" fill="white"/>
</clipPath>
</defs>
</svg>
