<svg width="16" height="16" viewBox="0 0 16 16" fill="none" xmlns="http://www.w3.org/2000/svg">
<g clip-path="url(#clip0_1467_179681)">
<rect width="16" height="16" rx="8" fill="white"/>
<path fill-rule="evenodd" clip-rule="evenodd" d="M9.60026 3.19922H21.3336V5.33255H9.60026V3.19922ZM9.60026 7.46589H21.3336V9.59922H9.60026V7.46589ZM-1.06641 11.7326H21.3336V13.8659H-1.06641V11.7326Z" fill="#3A99FF"/>
<path fill-rule="evenodd" clip-rule="evenodd" d="M6.27174 7.33815C6.02641 8.66615 5.46107 9.59948 4.79974 9.59948C4.13841 9.59948 3.57307 8.66721 3.32774 7.33815C1.99974 7.09281 1.06641 6.52748 1.06641 5.86615C1.06641 5.20481 1.99867 4.63948 3.32774 4.39415C3.57307 3.06615 4.13841 2.13281 4.79974 2.13281C5.46107 2.13281 6.02641 3.06508 6.27174 4.39415C7.59974 4.63948 8.53307 5.20481 8.53307 5.86615C8.53307 6.52748 7.60081 7.09281 6.27174 7.33815Z" fill="#D4AF2C"/>
<path fill-rule="evenodd" clip-rule="evenodd" d="M5.53254 6.59895C5.46427 8.30881 5.16241 9.59948 4.79974 9.59948C4.43707 9.59948 4.13521 8.30881 4.06694 6.59895C2.35707 6.53068 1.06641 6.22881 1.06641 5.86615C1.06641 5.50348 2.35707 5.20161 4.06694 5.13335C4.13521 3.42348 4.43707 2.13281 4.79974 2.13281C5.16241 2.13281 5.46427 3.42348 5.53254 5.13335C7.24241 5.20161 8.53307 5.50348 8.53307 5.86615C8.53307 6.22881 7.24241 6.53068 5.53254 6.59895Z" fill="#FFDA2C"/>
<path d="M4.8002 7.46758C5.68385 7.46758 6.4002 6.75123 6.4002 5.86758C6.4002 4.98392 5.68385 4.26758 4.8002 4.26758C3.91654 4.26758 3.2002 4.98392 3.2002 5.86758C3.2002 6.75123 3.91654 7.46758 4.8002 7.46758Z" fill="#FFDA2C"/>
</g>
<defs>
<clipPath id="clip0_1467_179681">
<rect width="16" height="16" rx="8" fill="white"/>
</clipPath>
</defs>
</svg>
