<svg width="40" height="40" viewBox="0 0 40 40" fill="none" xmlns="http://www.w3.org/2000/svg">
<g clip-path="url(#clip0_4893_3077)">
<path d="M38.0155 28.6956C39.287 26.0662 40 23.1164 40 20C40 16.8835 39.287 13.9337 38.0155 11.3043L20 9.56519L1.98453 11.3043C0.713047 13.9337 0 16.8835 0 20C0 23.1164 0.713047 26.0662 1.98453 28.6956L20 30.4347L38.0155 28.6956Z" fill="#0052B4"/>
<path d="M19.9998 39.9999C27.929 39.9999 34.7803 35.3855 38.0153 28.6956H1.98438C5.21937 35.3855 12.0706 39.9999 19.9998 39.9999Z" fill="#D80027"/>
<path d="M34.6386 23.9259L33.5823 24.7513L34.0407 26.0108L32.9292 25.2613L31.8728 26.0866L32.2422 24.798L31.1309 24.0483L32.4706 24.0016L32.8403 22.7129L33.2989 23.9726L34.6386 23.9259Z" fill="#F0F0F0"/>
<path d="M31.9328 19.2405L31.2226 20.3775L32.0844 21.4042L30.7836 21.0803L30.0731 22.2169L29.9794 20.8796L28.6787 20.5552L29.9218 20.0529L29.8284 18.7156L30.69 19.7427L31.9328 19.2405Z" fill="#F0F0F0"/>
<path d="M27.7889 15.7629L27.5104 17.0743L28.6713 17.7446L27.3381 17.8851L27.0593 19.1961L26.514 17.9715L25.1807 18.1115L26.1771 17.2144L25.6318 15.9899L26.7928 16.66L27.7889 15.7629Z" fill="#F0F0F0"/>
<path d="M22.7054 13.9128L22.8922 15.2404L24.2123 15.4731L23.0074 16.061L23.1941 17.3885L22.2628 16.4242L21.0577 17.0118L21.6872 15.828L20.7559 14.8638L22.0762 15.0965L22.7054 13.9128Z" fill="#F0F0F0"/>
<path d="M17.2949 13.9128L17.9243 15.0965L19.2443 14.8636L18.3133 15.8282L18.9425 17.012L17.7376 16.4242L16.8062 17.3883L16.993 16.061L15.7881 15.4734L17.1083 15.2404L17.2949 13.9128Z" fill="#F0F0F0"/>
<path d="M12.2112 15.7629L13.2076 16.66L14.3683 15.9899L13.8232 17.2149L14.8194 18.1118L13.4862 17.9715L12.9407 19.1961L12.6624 17.8849L11.3291 17.7449L12.49 17.0744L12.2112 15.7629Z" fill="#F0F0F0"/>
<path d="M8.06719 19.2405L9.31039 19.7427L10.1718 18.7158L10.0786 20.0534L11.3214 20.5557L10.0207 20.8798L9.92703 22.2169L9.21687 21.0803L7.91602 21.4044L8.77773 20.3775L8.06719 19.2405Z" fill="#F0F0F0"/>
<path d="M5.3623 23.9257L6.7023 23.9724L7.16059 22.7129L7.53051 24.0016L8.87012 24.0484L7.75871 24.7981L8.12809 26.0867L7.07184 25.2614L5.96035 26.0109L6.41887 24.7512L5.3623 23.9257Z" fill="#F0F0F0"/>
<path d="M38.0153 11.3044C34.7803 4.61445 27.929 0 19.9998 0C12.0706 0 5.21937 4.61445 1.98438 11.3044H38.0153Z" fill="#FFDA44"/>
</g>
<defs>
<clipPath id="clip0_4893_3077">
<rect width="40" height="40" fill="white"/>
</clipPath>
</defs>
</svg>
