<svg width="16" height="16" viewBox="0 0 16 16" fill="none" xmlns="http://www.w3.org/2000/svg">
<g clip-path="url(#clip0_1467_179676)">
<rect width="16" height="16" rx="8" fill="white"/>
<mask id="mask0_1467_179676" style="mask-type:alpha" maskUnits="userSpaceOnUse" x="-4" y="0" width="24" height="16">
<path d="M17.0665 0H-1.06686C-2.24507 0 -3.2002 0.955126 -3.2002 2.13333V13.8667C-3.2002 15.0449 -2.24507 16 -1.06686 16H17.0665C18.2447 16 19.1998 15.0449 19.1998 13.8667V2.13333C19.1998 0.955126 18.2447 0 17.0665 0Z" fill="white"/>
</mask>
<g mask="url(#mask0_1467_179676)">
<path d="M17.0665 0H-1.06686C-2.24507 0 -3.2002 0.955126 -3.2002 2.13333V13.8667C-3.2002 15.0449 -2.24507 16 -1.06686 16H17.0665C18.2447 16 19.1998 15.0449 19.1998 13.8667V2.13333C19.1998 0.955126 18.2447 0 17.0665 0Z" fill="white"/>
<path fill-rule="evenodd" clip-rule="evenodd" d="M12.6812 8.88867L13.3923 9.59978L11.259 11.7331L10.5479 11.022L12.6812 8.88867Z" fill="#3A99FF"/>
<path fill-rule="evenodd" clip-rule="evenodd" d="M4.62224 8.88867L3.91113 9.59978L6.04447 11.7331L6.75558 11.022L4.62224 8.88867Z" fill="#249F58"/>
<path fill-rule="evenodd" clip-rule="evenodd" d="M4.85928 8.88867H5.80743V9.83682L3.91113 10.785L4.85928 8.88867Z" fill="#FFDA2C"/>
<path fill-rule="evenodd" clip-rule="evenodd" d="M1.06641 6.99219H2.01455V9.83663H1.06641V6.99219ZM14.3405 6.99219H15.2886V9.83663H14.3405V6.99219Z" fill="#3A99FF"/>
<path fill-rule="evenodd" clip-rule="evenodd" d="M8.65169 4.14737V3.19922H6.75539V4.14737L7.70354 5.09552V6.99181H8.65169V4.14737ZM2.01465 4.14737L5.80724 5.09552V7.93996L2.01465 5.09552V4.14737ZM14.3406 4.14737L10.548 5.09552V7.93996L14.3406 5.09552V4.14737ZM5.80724 10.7844L8.17761 11.7326L10.548 10.7844L9.59983 9.83626H6.75539L5.80724 10.7844Z" fill="#FFDA2C"/>
<path fill-rule="evenodd" clip-rule="evenodd" d="M5.80762 6.04492H10.5484V9.83751L8.17799 10.7857L5.80762 9.83751V6.04492Z" fill="#AF010D"/>
<path fill-rule="evenodd" clip-rule="evenodd" d="M5.80762 5.0957H10.5484V6.992H5.80762V5.0957Z" fill="#232C80"/>
<path fill-rule="evenodd" clip-rule="evenodd" d="M6.75586 6.99219H7.70401V9.83663H6.75586V6.99219ZM8.65216 6.99219H9.6003V9.83663H8.65216V6.99219Z" fill="white"/>
<path fill-rule="evenodd" clip-rule="evenodd" d="M11.7337 9.59961H10.667V10.6663L12.8003 11.7329L11.7337 9.59961Z" fill="#FFDA2C"/>
</g>
</g>
<defs>
<clipPath id="clip0_1467_179676">
<rect width="16" height="16" rx="8" fill="white"/>
</clipPath>
</defs>
</svg>
