<svg width="40" height="40" viewBox="0 0 40 40" fill="none" xmlns="http://www.w3.org/2000/svg">
<g clip-path="url(#clip0_4893_3536)">
<path d="M40 20C40 31.0456 31.0456 40 20 40C8.95438 40 0 31.0456 0 20C6.86953 13.1305 12.6956 7.30438 20 0C31.0456 0 40 8.95437 40 20Z" fill="#D80027"/>
<path d="M20 20C20 8.95437 20 7.65219 20 0C8.95438 0 0 8.95437 0 20H20Z" fill="#0052B4"/>
<path d="M16.0189 13.0435L16.3428 14.0399H17.3904L16.5428 14.6556L16.8666 15.6521L16.0189 15.0363L15.1713 15.6521L15.4951 14.6556L14.6475 14.0399H15.6951L16.0189 13.0435Z" fill="#F0F0F0"/>
<path d="M10.7575 5.21729L11.2971 6.87814H13.0433L11.6305 7.90432L12.1703 9.5651L10.7575 8.53861L9.34473 9.5651L9.88441 7.90432L8.47168 6.87814H10.2178L10.7575 5.21729Z" fill="#F0F0F0"/>
<path d="M15.9743 6.9563L16.5139 8.61724H18.26L16.8473 9.64341L17.3869 11.3042L15.9743 10.2777L14.5615 11.3042L15.1012 9.64341L13.6885 8.61724H15.4346L15.9743 6.9563Z" fill="#F0F0F0"/>
<path d="M11.8502 13.9128L12.3899 15.5737H14.136L12.7233 16.5999L13.263 18.2607L11.8502 17.2342L10.4375 18.2607L10.9772 16.5999L9.56445 15.5737H11.3106L11.8502 13.9128Z" fill="#F0F0F0"/>
<path d="M7.27887 9.56519L7.81855 11.226H9.56473L8.15191 12.2522L8.6916 13.913L7.27887 12.8866L5.86621 13.913L6.40582 12.2522L4.99316 11.226H6.73926L7.27887 9.56519Z" fill="#F0F0F0"/>
</g>
<defs>
<clipPath id="clip0_4893_3536">
<rect width="40" height="40" fill="white"/>
</clipPath>
</defs>
</svg>
