<svg width="40" height="40" viewBox="0 0 40 40" fill="none" xmlns="http://www.w3.org/2000/svg">
<g clip-path="url(#clip0_4893_3423)">
<path d="M20 40.0002C31.0457 40.0002 40 31.0459 40 20.0002C40 8.95455 31.0457 0.000244141 20 0.000244141C8.95431 0.000244141 0 8.95455 0 20.0002C0 31.0459 8.95431 40.0002 20 40.0002Z" fill="#F0F0F0"/>
<path d="M5.85785 34.1423C-1.95262 26.3317 -1.95262 13.6685 5.85785 5.85791C5.8573 5.85877 17.3914 20.0001 17.3914 20.0001L5.85785 34.1423Z" fill="black"/>
<path d="M17.3912 20.0002L2.65246 10.0403C2.19551 10.8346 1.79254 11.6636 1.44629 12.5218L8.90793 20.0003L1.44652 27.4792C1.79246 28.3367 2.19504 29.1652 2.65168 29.959L17.3912 20.0002Z" fill="#FFDA44"/>
<path d="M39.8303 17.3914H17.3904L5.85723 5.85815C4.61441 7.10097 3.53465 8.50651 2.65215 10.0402L12.5927 20L2.65137 29.9586C3.53387 31.4927 4.6141 32.8987 5.85723 34.1418L17.3904 22.6087H39.8303C39.9414 21.7548 39.9996 20.8842 39.9996 20C39.9996 19.1159 39.9414 18.2453 39.8303 17.3914Z" fill="#6DA544"/>
<path d="M7.82324 35.8655C11.1958 38.4578 15.4175 40.0001 20 40.0001C29.2405 40.0001 37.016 33.7328 39.311 25.2175H18.4713L7.82324 35.8655Z" fill="#0052B4"/>
<path d="M39.311 14.7826C37.016 6.26727 29.2405 0 20 0C15.4175 0 11.1958 1.54227 7.82324 4.13461L18.4712 14.7826H39.311Z" fill="#D80027"/>
</g>
<defs>
<clipPath id="clip0_4893_3423">
<rect width="40" height="40" fill="white"/>
</clipPath>
</defs>
</svg>
