<svg width="16" height="16" viewBox="0 0 16 16" fill="none" xmlns="http://www.w3.org/2000/svg">
<g clip-path="url(#clip0_1467_179707)">
<rect width="16" height="16" rx="8" fill="white"/>
<path d="M14.4762 0H1.52381C0.682233 0 0 0.955126 0 2.13333V13.8667C0 15.0449 0.682233 16 1.52381 16H14.4762C15.3178 16 16 15.0449 16 13.8667V2.13333C16 0.955126 15.3178 0 14.4762 0Z" fill="white"/>
<path fill-rule="evenodd" clip-rule="evenodd" d="M0 10.666H16V15.9993H0V10.666Z" fill="#1A47B8"/>
<path fill-rule="evenodd" clip-rule="evenodd" d="M0 0H16V5.33333H0V0Z" fill="#F93939"/>
<path fill-rule="evenodd" clip-rule="evenodd" d="M6.10514 10.6667L1.52381 16.0352H0V0H1.52381L6.09524 5.33333H16V10.6667H6.10514Z" fill="white"/>
<path fill-rule="evenodd" clip-rule="evenodd" d="M5.86667 9.6L0.380952 16L0 16.0352V0H0.380952L5.86667 6.4H16V9.6H5.86667Z" fill="#249F58"/>
<path fill-rule="evenodd" clip-rule="evenodd" d="M0 3.19922L4.57143 7.99922L0 12.7992V3.19922Z" fill="#FFDA2C"/>
<path fill-rule="evenodd" clip-rule="evenodd" d="M0 4.26758L3.61905 8.00091L0 11.7342V4.26758Z" fill="#151515"/>
</g>
<defs>
<clipPath id="clip0_1467_179707">
<rect width="16" height="16" rx="8" fill="white"/>
</clipPath>
</defs>
</svg>
