<svg width="40" height="40" viewBox="0 0 40 40" fill="none" xmlns="http://www.w3.org/2000/svg">
<g clip-path="url(#clip0_4893_3010)">
<path d="M20 40C31.0457 40 40 31.0457 40 20C40 8.95431 31.0457 0 20 0C8.95431 0 0 8.95431 0 20C0 31.0457 8.95431 40 20 40Z" fill="#F0F0F0"/>
<path d="M38.0854 11.4534C37.0693 9.30704 35.6825 7.37087 34.0075 5.72673L19.9997 4.3479L5.99187 5.72681C5.94719 5.77063 5.90359 5.81548 5.85938 5.85977L11.4531 11.4535L19.9997 11.7145L38.0854 11.4534Z" fill="#FFDA44"/>
<path d="M5.85938 34.1406C5.93297 34.2142 6.00641 34.2879 6.08109 34.3604L19.9999 35.6523L33.9186 34.3604C35.6109 32.7198 37.0146 30.7834 38.045 28.6337L12.1737 27.8262C9.94773 30.0523 7.38023 32.6196 5.85938 34.1406Z" fill="#FFDA44"/>
<path d="M39.8009 17.1801L16.5215 16.5217L19.9998 20C18.9695 21.0302 17.4316 22.5682 16.5215 23.4783L39.7887 22.9069C39.927 21.9577 39.9998 20.9874 39.9998 20C39.9998 19.0427 39.931 18.1016 39.8009 17.1801Z" fill="black"/>
<path d="M20 0C14.5447 0 9.60047 2.18516 5.99219 5.72672H34.0078C30.3995 2.18516 25.4553 0 20 0Z" fill="#6DA544"/>
<path d="M17.1798 17.1801H39.8009C39.5155 15.1583 38.9283 13.2338 38.0855 11.4534H11.4531L17.1798 17.1801Z" fill="#D80027"/>
<path d="M11.3662 28.6337H38.045C38.8976 26.8546 39.4942 24.9299 39.7888 22.907H17.0929C14.8752 25.1247 12.9957 27.0042 11.3662 28.6337Z" fill="#D80027"/>
<path d="M19.9997 40.0001C25.4103 40.0001 30.3181 37.8507 33.9184 34.3604H6.08105C9.68137 37.8507 14.5892 40.0001 19.9997 40.0001Z" fill="#6DA544"/>
<path d="M7.14141 4.68237C6.6968 5.05597 6.26781 5.44761 5.85742 5.85784L19.9996 20L5.85742 34.1422C6.26773 34.5525 6.6968 34.9441 7.14141 35.3177L22.4591 20L7.14141 4.68237Z" fill="black"/>
<path d="M8.04144 14.7827L9.33637 18.7683H13.5274L10.1369 21.2318L11.4319 25.2176L8.04144 22.7542L4.6509 25.2176L5.94605 21.2318L2.55566 18.7683H6.74644L8.04144 14.7827Z" fill="#D80027"/>
<path d="M11.6034 20.326L8.22855 19.1304C8.22855 19.1304 7.97918 16.7911 7.9641 16.7118C7.84957 16.1084 7.31933 15.6521 6.68262 15.6521C5.9623 15.6521 5.37824 16.2361 5.37824 16.9565C5.37824 17.0759 5.39566 17.191 5.42574 17.301L4.47949 18.2536H6.16199C6.16199 19.9999 4.85887 19.9999 4.85887 21.7391L5.58176 23.4782H9.92957L10.6543 21.7391H10.6539C10.7265 21.5722 10.7706 21.4001 10.7888 21.2281C11.4135 20.9755 11.6034 20.326 11.6034 20.326Z" fill="#FFDA44"/>
</g>
<defs>
<clipPath id="clip0_4893_3010">
<rect width="40" height="40" fill="white"/>
</clipPath>
</defs>
</svg>
