<svg width="25" height="24" viewBox="0 0 25 24" fill="none" xmlns="http://www.w3.org/2000/svg">
<path d="M22.5005 9.67015C22.4373 9.48723 22.3224 9.32657 22.1698 9.20765C22.0171 9.08872 21.8333 9.01664 21.6405 9.00014L15.9505 8.17015L13.4005 3.00015C13.3186 2.83107 13.1907 2.68849 13.0316 2.58872C12.8724 2.48895 12.6883 2.43604 12.5005 2.43604C12.3126 2.43604 12.1286 2.48895 11.9694 2.58872C11.8102 2.68849 11.6824 2.83107 11.6005 3.00015L9.05047 8.16014L3.36047 9.00014C3.17539 9.02645 3.00139 9.10411 2.85822 9.2243C2.71504 9.3445 2.60843 9.50242 2.55047 9.68015C2.49741 9.85382 2.49265 10.0387 2.53669 10.2148C2.58074 10.391 2.67192 10.5519 2.80047 10.6801L6.93047 14.6801L5.93047 20.3601C5.89477 20.5476 5.91346 20.7414 5.98434 20.9186C6.05522 21.0958 6.17532 21.249 6.33047 21.3601C6.48168 21.4683 6.66004 21.5321 6.84551 21.5444C7.03099 21.5568 7.21624 21.5172 7.38047 21.4301L12.5005 18.7601L17.6005 21.4401C17.7408 21.5193 17.8993 21.5607 18.0605 21.5601C18.2723 21.5609 18.4789 21.4944 18.6505 21.3701C18.8056 21.259 18.9257 21.1058 18.9966 20.9286C19.0675 20.7514 19.0862 20.5576 19.0505 20.3701L18.0505 14.6901L22.1805 10.6901C22.3248 10.5678 22.4316 10.407 22.4882 10.2265C22.5448 10.0459 22.5491 9.85302 22.5005 9.67015ZM16.3505 13.6701C16.2332 13.7836 16.1454 13.924 16.0949 14.0791C16.0444 14.2343 16.0325 14.3994 16.0605 14.5601L16.7805 18.7501L13.0205 16.7501C12.8758 16.6731 12.7144 16.6328 12.5505 16.6328C12.3865 16.6328 12.2251 16.6731 12.0805 16.7501L8.32047 18.7501L9.04047 14.5601C9.0684 14.3994 9.05658 14.2343 9.00603 14.0791C8.95548 13.924 8.86774 13.7836 8.75047 13.6701L5.75047 10.6701L9.96047 10.0601C10.1225 10.0376 10.2765 9.97569 10.409 9.8798C10.5415 9.78391 10.6484 9.65698 10.7205 9.51015L12.5005 5.70015L14.3805 9.52015C14.4525 9.66698 14.5595 9.79391 14.692 9.8898C14.8245 9.98569 14.9785 10.0476 15.1405 10.0701L19.3505 10.6801L16.3505 13.6701Z" fill="#434343"/>
</svg>
