<svg width="24" height="24" viewBox="0 0 24 24" fill="none" xmlns="http://www.w3.org/2000/svg">
<mask id="path-1-outside-1_223_31456" maskUnits="userSpaceOnUse" x="1" y="4.07666" width="22" height="16" fill="black">
<rect fill="white" x="1" y="4.07666" width="22" height="16"/>
<path fill-rule="evenodd" clip-rule="evenodd" d="M2.41772 5.13659C2.08275 5.28865 2.01648 5.46815 2.01648 6.2245C2.01648 6.97615 2.0389 7.04513 2.35487 7.26296C2.57413 7.41453 3.69307 7.41898 3.93523 7.26914L4.09139 7.17247L4.20638 7.30747C4.26948 7.38164 4.60202 7.81755 4.94479 8.27596L5.56845 9.10945L4.84442 10.095L4.12038 11.0805L3.95472 10.9663C3.7111 10.7987 2.59362 10.7918 2.35073 10.9564C1.85813 11.2902 1.89321 12.7718 2.40067 13.0744C2.63942 13.2168 3.70208 13.2148 3.94083 13.0714L4.10259 12.9743L4.78084 13.8513C5.15406 14.3334 5.48538 14.771 5.51754 14.8232C5.56627 14.9026 4.53478 16.4736 4.18616 16.8507C4.12066 16.8272 4.05954 16.7927 4.00539 16.7486C3.78346 16.5955 3.63071 16.5713 3.0141 16.5913C2.16533 16.6188 2.03963 16.7721 2.03963 17.7725C2.03963 18.8329 2.14121 18.9345 3.17757 18.914C4.0546 18.8967 4.22514 18.776 4.29164 18.1228C4.32404 17.8041 4.33038 17.794 6.13512 15.272L6.41163 14.8855L6.43355 15.2332C6.47399 15.874 6.65135 16.0051 7.50548 16.0244C8.48775 16.0476 8.72358 15.8557 8.72796 15.0317V14.7879L9.77869 13.4166L10.8297 12.0451L10.854 12.4085C10.8954 13.0336 11.0928 13.1659 11.9822 13.1659C12.8571 13.1659 13.0578 13.02 13.11 12.346L13.1343 12.0246L13.4493 12.4575C13.6225 12.6956 14.0893 13.3343 14.4866 13.8767L15.2087 14.863L15.2448 15.1978C15.3179 15.874 15.4765 16.0029 16.2658 16.0259C17.2566 16.0548 17.4639 15.925 17.5351 15.2299L17.5633 14.9545L18.614 16.3965L19.665 17.8385V18.107C19.665 18.7437 19.9123 18.9229 20.7947 18.9229C21.8084 18.9229 21.9397 18.7805 21.9166 17.7141C21.8944 16.7273 21.7921 16.6292 20.7879 16.6299C20.237 16.6299 20.1683 16.6398 19.9978 16.7389L19.811 16.8475L19.1045 15.8698L18.398 14.8924L19.0297 14.0983C19.3771 13.6616 19.7186 13.2359 19.7883 13.1523L19.915 13.0005L20.0699 13.0793C20.4643 13.2806 21.4863 13.203 21.7385 12.953C22.1434 12.5512 22.0608 11.2643 21.6103 10.9532C21.3959 10.8049 20.2726 10.7969 20.0383 10.9418C19.985 10.9776 19.9286 11.0083 19.8697 11.0333C19.8421 11.0333 18.4937 9.21206 18.4652 9.1364C18.8507 8.52091 19.2773 7.93304 19.7423 7.37695L19.8957 7.18384L20.0419 7.27359C20.2733 7.417 21.3984 7.40761 21.6111 7.26074C21.9124 7.05255 21.948 6.95884 21.9655 6.32488C21.9952 5.26491 21.8498 5.10123 20.858 5.07848C19.8969 5.05648 19.6687 5.22683 19.6658 5.97107L19.664 6.33181L18.8462 7.38832C18.3975 7.96862 17.9205 8.58428 17.7857 8.75662C17.6941 8.8651 17.6121 8.98169 17.5409 9.105C17.5409 9.12404 18.0182 9.77777 18.6016 10.5576C18.9903 11.0391 19.3452 11.5476 19.6638 12.0795C19.6638 12.1482 19.3069 12.6353 18.6143 13.5091L17.5636 14.8343L17.5338 14.5107C17.5397 14.3775 17.5099 14.2453 17.4476 14.128C17.3853 14.0107 17.2927 13.9127 17.1799 13.8446C16.9431 13.6812 15.8229 13.6883 15.5807 13.8552L15.4158 13.969L14.6945 12.9841L13.9733 11.9993L14.7042 11.0422L15.4351 10.0851L15.5725 10.1702C15.7981 10.3096 16.9699 10.296 17.1833 10.1514C17.4593 9.96445 17.5 9.81733 17.4854 9.06346C17.4659 8.06283 17.3392 7.94489 16.3016 7.9706C15.439 7.99186 15.2358 8.15975 15.235 8.8523V9.22318L14.1733 10.6147L13.1117 12.0065V11.7157C13.1092 11.0143 12.8956 10.8504 11.9774 10.8518C11.0662 10.8518 10.8967 10.968 10.8528 11.6205L10.8304 11.9585L9.77869 10.6273L8.72796 9.29637V8.89236C8.72796 8.10634 8.55353 7.96219 7.60268 7.96244C6.57144 7.96244 6.46863 8.06456 6.46839 9.0867C6.46839 9.8428 6.51565 9.98225 6.83041 10.1514C7.30959 10.2854 7.81398 10.2971 8.2987 10.1855C8.3981 10.1491 8.48264 10.1192 8.48629 10.1187C8.50188 10.1173 9.94801 11.9576 9.94801 11.9791C9.94801 11.9919 9.62643 12.4328 9.23299 12.9579L8.5182 13.9133L8.38665 13.8159C8.17836 13.6616 6.96611 13.6676 6.74977 13.8256C6.64379 13.9085 6.55904 14.0161 6.50269 14.1394C6.44634 14.2626 6.42003 14.3977 6.426 14.5334L6.40042 14.8437L6.12537 14.4877C5.97408 14.2919 5.50122 13.6831 5.07464 13.1347C4.79568 12.7956 4.53659 12.4401 4.29871 12.0701C4.29871 12.0327 4.77743 11.3501 5.3626 10.5532L6.42625 9.10401L5.98066 8.52173C5.73558 8.2003 5.25979 7.57697 4.92311 7.1339L4.31114 6.3281L4.2897 5.96414C4.24706 5.23326 4.08091 5.10024 3.19121 5.08442"/>
</mask>
<path fill-rule="evenodd" clip-rule="evenodd" d="M2.41772 5.13659C2.08275 5.28865 2.01648 5.46815 2.01648 6.2245C2.01648 6.97615 2.0389 7.04513 2.35487 7.26296C2.57413 7.41453 3.69307 7.41898 3.93523 7.26914L4.09139 7.17247L4.20638 7.30747C4.26948 7.38164 4.60202 7.81755 4.94479 8.27596L5.56845 9.10945L4.84442 10.095L4.12038 11.0805L3.95472 10.9663C3.7111 10.7987 2.59362 10.7918 2.35073 10.9564C1.85813 11.2902 1.89321 12.7718 2.40067 13.0744C2.63942 13.2168 3.70208 13.2148 3.94083 13.0714L4.10259 12.9743L4.78084 13.8513C5.15406 14.3334 5.48538 14.771 5.51754 14.8232C5.56627 14.9026 4.53478 16.4736 4.18616 16.8507C4.12066 16.8272 4.05954 16.7927 4.00539 16.7486C3.78346 16.5955 3.63071 16.5713 3.0141 16.5913C2.16533 16.6188 2.03963 16.7721 2.03963 17.7725C2.03963 18.8329 2.14121 18.9345 3.17757 18.914C4.0546 18.8967 4.22514 18.776 4.29164 18.1228C4.32404 17.8041 4.33038 17.794 6.13512 15.272L6.41163 14.8855L6.43355 15.2332C6.47399 15.874 6.65135 16.0051 7.50548 16.0244C8.48775 16.0476 8.72358 15.8557 8.72796 15.0317V14.7879L9.77869 13.4166L10.8297 12.0451L10.854 12.4085C10.8954 13.0336 11.0928 13.1659 11.9822 13.1659C12.8571 13.1659 13.0578 13.02 13.11 12.346L13.1343 12.0246L13.4493 12.4575C13.6225 12.6956 14.0893 13.3343 14.4866 13.8767L15.2087 14.863L15.2448 15.1978C15.3179 15.874 15.4765 16.0029 16.2658 16.0259C17.2566 16.0548 17.4639 15.925 17.5351 15.2299L17.5633 14.9545L18.614 16.3965L19.665 17.8385V18.107C19.665 18.7437 19.9123 18.9229 20.7947 18.9229C21.8084 18.9229 21.9397 18.7805 21.9166 17.7141C21.8944 16.7273 21.7921 16.6292 20.7879 16.6299C20.237 16.6299 20.1683 16.6398 19.9978 16.7389L19.811 16.8475L19.1045 15.8698L18.398 14.8924L19.0297 14.0983C19.3771 13.6616 19.7186 13.2359 19.7883 13.1523L19.915 13.0005L20.0699 13.0793C20.4643 13.2806 21.4863 13.203 21.7385 12.953C22.1434 12.5512 22.0608 11.2643 21.6103 10.9532C21.3959 10.8049 20.2726 10.7969 20.0383 10.9418C19.985 10.9776 19.9286 11.0083 19.8697 11.0333C19.8421 11.0333 18.4937 9.21206 18.4652 9.1364C18.8507 8.52091 19.2773 7.93304 19.7423 7.37695L19.8957 7.18384L20.0419 7.27359C20.2733 7.417 21.3984 7.40761 21.6111 7.26074C21.9124 7.05255 21.948 6.95884 21.9655 6.32488C21.9952 5.26491 21.8498 5.10123 20.858 5.07848C19.8969 5.05648 19.6687 5.22683 19.6658 5.97107L19.664 6.33181L18.8462 7.38832C18.3975 7.96862 17.9205 8.58428 17.7857 8.75662C17.6941 8.8651 17.6121 8.98169 17.5409 9.105C17.5409 9.12404 18.0182 9.77777 18.6016 10.5576C18.9903 11.0391 19.3452 11.5476 19.6638 12.0795C19.6638 12.1482 19.3069 12.6353 18.6143 13.5091L17.5636 14.8343L17.5338 14.5107C17.5397 14.3775 17.5099 14.2453 17.4476 14.128C17.3853 14.0107 17.2927 13.9127 17.1799 13.8446C16.9431 13.6812 15.8229 13.6883 15.5807 13.8552L15.4158 13.969L14.6945 12.9841L13.9733 11.9993L14.7042 11.0422L15.4351 10.0851L15.5725 10.1702C15.7981 10.3096 16.9699 10.296 17.1833 10.1514C17.4593 9.96445 17.5 9.81733 17.4854 9.06346C17.4659 8.06283 17.3392 7.94489 16.3016 7.9706C15.439 7.99186 15.2358 8.15975 15.235 8.8523V9.22318L14.1733 10.6147L13.1117 12.0065V11.7157C13.1092 11.0143 12.8956 10.8504 11.9774 10.8518C11.0662 10.8518 10.8967 10.968 10.8528 11.6205L10.8304 11.9585L9.77869 10.6273L8.72796 9.29637V8.89236C8.72796 8.10634 8.55353 7.96219 7.60268 7.96244C6.57144 7.96244 6.46863 8.06456 6.46839 9.0867C6.46839 9.8428 6.51565 9.98225 6.83041 10.1514C7.30959 10.2854 7.81398 10.2971 8.2987 10.1855C8.3981 10.1491 8.48264 10.1192 8.48629 10.1187C8.50188 10.1173 9.94801 11.9576 9.94801 11.9791C9.94801 11.9919 9.62643 12.4328 9.23299 12.9579L8.5182 13.9133L8.38665 13.8159C8.17836 13.6616 6.96611 13.6676 6.74977 13.8256C6.64379 13.9085 6.55904 14.0161 6.50269 14.1394C6.44634 14.2626 6.42003 14.3977 6.426 14.5334L6.40042 14.8437L6.12537 14.4877C5.97408 14.2919 5.50122 13.6831 5.07464 13.1347C4.79568 12.7956 4.53659 12.4401 4.29871 12.0701C4.29871 12.0327 4.77743 11.3501 5.3626 10.5532L6.42625 9.10401L5.98066 8.52173C5.73558 8.2003 5.25979 7.57697 4.92311 7.1339L4.31114 6.3281L4.2897 5.96414C4.24706 5.23326 4.08091 5.10024 3.19121 5.08442" fill="#08979C"/>
<path d="M2.35487 7.26296L2.4686 7.09844L2.46839 7.0983L2.35487 7.26296ZM3.93523 7.26914L4.04047 7.43922L4.04051 7.43919L3.93523 7.26914ZM4.09139 7.17247L4.24364 7.04278L4.13222 6.91197L3.98611 7.00242L4.09139 7.17247ZM4.20638 7.30747L4.35872 7.17788L4.35864 7.17778L4.20638 7.30747ZM4.94479 8.27596L4.78462 8.39573L4.78465 8.39578L4.94479 8.27596ZM5.56845 9.10945L5.72963 9.22786L5.81743 9.10835L5.72859 8.98963L5.56845 9.10945ZM4.84442 10.095L5.0056 10.2134L5.0056 10.2134L4.84442 10.095ZM4.12038 11.0805L4.00684 11.2452L4.16664 11.3554L4.28156 11.199L4.12038 11.0805ZM3.95472 10.9663L4.06825 10.8017L4.06809 10.8016L3.95472 10.9663ZM2.35073 10.9564L2.46292 11.122L2.46296 11.122L2.35073 10.9564ZM2.40067 13.0744L2.50313 12.9026L2.50311 12.9026L2.40067 13.0744ZM3.94083 13.0714L4.04381 13.2429L4.04382 13.2429L3.94083 13.0714ZM4.10259 12.9743L4.2608 12.8519L4.15203 12.7113L3.99961 12.8028L4.10259 12.9743ZM4.78084 13.8513L4.62263 13.9736L4.62269 13.9737L4.78084 13.8513ZM5.51754 14.8232L5.68799 14.7186L5.6878 14.7183L5.51754 14.8232ZM4.18616 16.8507L4.11874 17.039L4.24324 17.0836L4.33301 16.9865L4.18616 16.8507ZM4.00539 16.7486L4.13176 16.5936L4.12554 16.5885L4.11893 16.5839L4.00539 16.7486ZM3.0141 16.5913L3.02057 16.7912L3.0206 16.7912L3.0141 16.5913ZM3.17757 18.914L3.17362 18.7141H3.17361L3.17757 18.914ZM4.29164 18.1228L4.49061 18.1431L4.49062 18.143L4.29164 18.1228ZM6.13512 15.272L6.29776 15.3884L6.29777 15.3884L6.13512 15.272ZM6.41163 14.8855L6.61123 14.8729L6.57587 14.3123L6.24898 14.7691L6.41163 14.8855ZM6.43355 15.2332L6.23395 15.2458L6.23395 15.2458L6.43355 15.2332ZM7.50548 16.0244L7.51021 15.8244L7.50999 15.8244L7.50548 16.0244ZM8.72796 15.0317L8.92796 15.0327V15.0317H8.72796ZM8.72796 14.7879L8.56921 14.6662L8.52796 14.72V14.7879H8.72796ZM9.77869 13.4166L9.61994 13.2949L9.61994 13.295L9.77869 13.4166ZM10.8297 12.0451L11.0292 12.0317L10.9937 11.5022L10.6709 11.9234L10.8297 12.0451ZM10.854 12.4085L11.0536 12.3953L11.0536 12.3952L10.854 12.4085ZM13.11 12.346L13.3094 12.3614L13.3094 12.3611L13.11 12.346ZM13.1343 12.0246L13.296 11.9069L12.976 11.467L12.9349 12.0094L13.1343 12.0246ZM13.4493 12.4575L13.611 12.3398L13.611 12.3398L13.4493 12.4575ZM14.4866 13.8767L14.648 13.7586L14.648 13.7585L14.4866 13.8767ZM15.2087 14.863L15.4076 14.8416L15.4018 14.7882L15.3701 14.7449L15.2087 14.863ZM15.2448 15.1978L15.0459 15.2192L15.0459 15.2193L15.2448 15.1978ZM16.2658 16.0259L16.2716 15.8259H16.2716L16.2658 16.0259ZM17.5351 15.2299L17.3361 15.2095L17.3361 15.2096L17.5351 15.2299ZM17.5633 14.9545L17.725 14.8367L17.4176 14.415L17.3644 14.9341L17.5633 14.9545ZM18.614 16.3965L18.4524 16.5143L18.4524 16.5143L18.614 16.3965ZM19.665 17.8385H19.865V17.7733L19.8267 17.7207L19.665 17.8385ZM21.9166 17.7141L22.1165 17.7098L22.1165 17.7096L21.9166 17.7141ZM20.7879 16.6299V16.8299H20.788L20.7879 16.6299ZM19.9978 16.7389L20.0983 16.9119L20.0983 16.9118L19.9978 16.7389ZM19.811 16.8475L19.6488 16.9646L19.7549 17.1113L19.9114 17.0204L19.811 16.8475ZM19.1045 15.8698L19.2666 15.7527L19.2665 15.7527L19.1045 15.8698ZM18.398 14.8924L18.2414 14.7679L18.147 14.8867L18.2359 15.0096L18.398 14.8924ZM19.0297 14.0983L18.8732 13.9738L18.8731 13.9738L19.0297 14.0983ZM19.7883 13.1523L19.6347 13.0241L19.6347 13.0242L19.7883 13.1523ZM19.915 13.0005L20.0057 12.8222L19.8636 12.7499L19.7614 12.8723L19.915 13.0005ZM20.0699 13.0793L20.1608 12.9012L20.1607 12.9011L20.0699 13.0793ZM21.7385 12.953L21.8793 13.095L21.8794 13.095L21.7385 12.953ZM21.6103 10.9532L21.4965 11.1177L21.4967 11.1178L21.6103 10.9532ZM20.0383 10.9418L19.933 10.7716L19.9267 10.7759L20.0383 10.9418ZM19.8697 11.0333V11.2333H19.9104L19.9479 11.2174L19.8697 11.0333ZM18.4652 9.1364L18.2957 9.03024L18.2431 9.1142L18.278 9.20691L18.4652 9.1364ZM19.7423 7.37695L19.8957 7.50527L19.8988 7.50139L19.7423 7.37695ZM19.8957 7.18384L20.0004 7.01341L19.8494 6.9207L19.7392 7.0594L19.8957 7.18384ZM20.0419 7.27359L20.1472 7.10358L20.1466 7.10316L20.0419 7.27359ZM21.6111 7.26074L21.7247 7.42531L21.7247 7.42529L21.6111 7.26074ZM21.9655 6.32488L21.7656 6.31928L21.7656 6.31935L21.9655 6.32488ZM20.858 5.07848L20.8626 4.87853L20.8626 4.87853L20.858 5.07848ZM19.6658 5.97107L19.8658 5.97201L19.8658 5.97185L19.6658 5.97107ZM19.664 6.33181L19.8222 6.45423L19.8637 6.40059L19.864 6.33276L19.664 6.33181ZM18.8462 7.38832L18.6881 7.2659L18.688 7.26597L18.8462 7.38832ZM17.7857 8.75662L17.9386 8.88582L17.9433 8.87979L17.7857 8.75662ZM17.5409 9.105L17.3677 9.00498L17.3409 9.0514V9.105H17.5409ZM18.6016 10.5576L18.4414 10.6775L18.446 10.6832L18.6016 10.5576ZM19.6638 12.0795H19.8638V12.0241L19.8354 11.9767L19.6638 12.0795ZM18.6143 13.5091L18.771 13.6333L18.771 13.6333L18.6143 13.5091ZM17.5636 14.8343L17.3644 14.8526L17.4101 15.3499L17.7203 14.9586L17.5636 14.8343ZM17.5338 14.5107L17.334 14.5018L17.3334 14.5154L17.3347 14.529L17.5338 14.5107ZM17.1799 13.8446L17.066 14.0095L17.0765 14.0158L17.1799 13.8446ZM15.5807 13.8552L15.4672 13.6905L15.4672 13.6906L15.5807 13.8552ZM15.4158 13.969L15.2545 14.0871L15.3693 14.244L15.5294 14.1336L15.4158 13.969ZM14.6945 12.9841L14.5331 13.1023L14.5331 13.1023L14.6945 12.9841ZM13.9733 11.9993L13.8144 11.878L13.7236 11.9968L13.812 12.1175L13.9733 11.9993ZM14.7042 11.0422L14.8631 11.1636V11.1636L14.7042 11.0422ZM15.4351 10.0851L15.5403 9.91505L15.3861 9.81962L15.2761 9.96373L15.4351 10.0851ZM15.5725 10.1702L15.4672 10.3402L15.4673 10.3403L15.5725 10.1702ZM17.1833 10.1514L17.0711 9.98577L17.0711 9.98581L17.1833 10.1514ZM17.4854 9.06346L17.6853 9.05958L17.6853 9.05956L17.4854 9.06346ZM16.3016 7.9706L16.3065 8.17054L16.3066 8.17054L16.3016 7.9706ZM15.235 8.8523L15.035 8.85209V8.8523H15.235ZM15.235 9.22318L15.3941 9.3445L15.435 9.29077V9.22318H15.235ZM14.1733 10.6147L14.0143 10.4934L14.0143 10.4934L14.1733 10.6147ZM13.1117 12.0065H12.9117V12.5984L13.2707 12.1278L13.1117 12.0065ZM13.1117 11.7157H13.3117L13.3117 11.715L13.1117 11.7157ZM11.9774 10.8518V11.0518L11.9777 11.0518L11.9774 10.8518ZM10.8528 11.6205L10.6533 11.6071L10.6532 11.6073L10.8528 11.6205ZM10.8304 11.9585L10.6735 12.0825L10.9956 12.4903L11.03 11.9718L10.8304 11.9585ZM9.77869 10.6273L9.62172 10.7513L9.62176 10.7513L9.77869 10.6273ZM8.72796 9.29637H8.52796V9.3658L8.57099 9.4203L8.72796 9.29637ZM7.60268 7.96244V8.16244H7.60273L7.60268 7.96244ZM6.46839 9.0867L6.26839 9.08665V9.0867H6.46839ZM6.83041 10.1514L6.73575 10.3276L6.75523 10.338L6.77653 10.344L6.83041 10.1514ZM8.2987 10.1855L8.34359 10.3804L8.35571 10.3776L8.36739 10.3733L8.2987 10.1855ZM8.48629 10.1187L8.46733 9.91948L8.45947 9.92054L8.48629 10.1187ZM9.23299 12.9579L9.07292 12.838L9.07285 12.8381L9.23299 12.9579ZM8.5182 13.9133L8.39918 14.0741L8.55912 14.1925L8.67834 14.0331L8.5182 13.9133ZM8.38665 13.8159L8.26761 13.9766L8.26763 13.9766L8.38665 13.8159ZM6.74977 13.8256L6.63175 13.6639L6.62649 13.6681L6.74977 13.8256ZM6.426 14.5334L6.62532 14.5499L6.62636 14.5373L6.62581 14.5247L6.426 14.5334ZM6.40042 14.8437L6.24214 14.966L6.55737 15.3741L6.59974 14.8602L6.40042 14.8437ZM6.12537 14.4877L6.28365 14.3654L6.28364 14.3654L6.12537 14.4877ZM5.07464 13.1347L5.23257 13.0119L5.22911 13.0077L5.07464 13.1347ZM4.29871 12.0701H4.09871V12.1288L4.13048 12.1782L4.29871 12.0701ZM5.3626 10.5532L5.52381 10.6715L5.52383 10.6715L5.3626 10.5532ZM6.42625 9.10401L6.58748 9.22235L6.67617 9.10151L6.58508 8.98247L6.42625 9.10401ZM5.98066 8.52173L5.82162 8.64299L5.82183 8.64327L5.98066 8.52173ZM4.92311 7.1339L4.76383 7.25486L4.76387 7.2549L4.92311 7.1339ZM4.31114 6.3281L4.11148 6.33986L4.11506 6.4006L4.15186 6.44906L4.31114 6.3281ZM4.2897 5.96414L4.09003 5.97579L4.09004 5.9759L4.2897 5.96414ZM2.33505 4.95447C2.24126 4.99705 2.15248 5.04756 2.07686 5.11852C1.99886 5.19171 1.94281 5.2791 1.90384 5.38472C1.83113 5.58185 1.81648 5.85149 1.81648 6.2245H2.21648C2.21648 5.84116 2.23496 5.64288 2.27913 5.52315C2.29861 5.47035 2.32193 5.43708 2.35056 5.41021C2.38158 5.38111 2.4267 5.35216 2.50039 5.3187L2.33505 4.95447ZM1.81648 6.2245C1.81648 6.58737 1.81979 6.8302 1.87702 7.00587C1.94431 7.21238 2.07995 7.31636 2.24135 7.42763L2.46839 7.0983C2.31382 6.99174 2.28027 6.9523 2.25735 6.88196C2.22438 6.78076 2.21648 6.61328 2.21648 6.2245H1.81648ZM2.24114 7.42748C2.29615 7.4655 2.36318 7.48932 2.4227 7.50571C2.4858 7.52309 2.55756 7.53659 2.63272 7.54704C2.78324 7.56796 2.96049 7.57839 3.13568 7.57908C3.31093 7.57977 3.48939 7.57073 3.64245 7.55107C3.71891 7.54125 3.79195 7.52842 3.85655 7.51183C3.91826 7.49597 3.98491 7.4736 4.04047 7.43922L3.83 7.09907C3.82502 7.10215 3.80372 7.11241 3.75704 7.1244C3.71324 7.13565 3.65742 7.14587 3.5915 7.15433C3.45979 7.17125 3.29941 7.17972 3.13725 7.17908C2.97503 7.17844 2.81629 7.1687 2.68778 7.15084C2.62341 7.1419 2.5699 7.13136 2.5289 7.12007C2.48431 7.10779 2.46841 7.09831 2.4686 7.09844L2.24114 7.42748ZM4.04051 7.43919L4.19667 7.34252L3.98611 7.00242L3.82996 7.09909L4.04051 7.43919ZM3.93914 7.30216L4.05413 7.43716L4.35864 7.17778L4.24364 7.04278L3.93914 7.30216ZM4.05404 7.43705C4.11196 7.50514 4.43961 7.93434 4.78462 8.39573L5.10496 8.15619C4.76442 7.70076 4.427 7.25815 4.35872 7.17788L4.05404 7.43705ZM4.78465 8.39578L5.40832 9.22927L5.72859 8.98963L5.10492 8.15614L4.78465 8.39578ZM5.40727 8.99104L4.68324 9.97659L5.0056 10.2134L5.72963 9.22786L5.40727 8.99104ZM4.68324 9.97659L3.9592 10.9621L4.28156 11.199L5.0056 10.2134L4.68324 9.97659ZM4.23391 10.9159L4.06825 10.8017L3.84118 11.131L4.00684 11.2452L4.23391 10.9159ZM4.06809 10.8016C4.01223 10.7631 3.94482 10.7375 3.88201 10.7191C3.81652 10.6999 3.74264 10.6849 3.66545 10.6732C3.51097 10.6497 3.33095 10.6379 3.15369 10.6368C2.97643 10.6357 2.79642 10.6453 2.64196 10.6668C2.56479 10.6776 2.49087 10.6917 2.42532 10.7101C2.36253 10.7278 2.29477 10.7527 2.2385 10.7909L2.46296 11.122C2.46741 11.119 2.48771 11.1081 2.53347 11.0952C2.57647 11.0832 2.63161 11.0721 2.69717 11.063C2.82816 11.0448 2.98828 11.0357 3.15121 11.0368C3.31414 11.0378 3.47434 11.0488 3.6055 11.0686C3.67113 11.0786 3.72642 11.0903 3.76962 11.103C3.8155 11.1164 3.83631 11.1276 3.84134 11.1311L4.06809 10.8016ZM2.23854 10.7909C2.06067 10.9114 1.95194 11.1176 1.88804 11.3273C1.82257 11.5422 1.79502 11.7901 1.80073 12.0318C1.80644 12.2735 1.84564 12.5194 1.92125 12.7303C1.99501 12.9359 2.11369 13.1361 2.29823 13.2462L2.50311 12.9026C2.43391 12.8614 2.35792 12.7629 2.29777 12.5952C2.23947 12.4327 2.20554 12.2306 2.20062 12.0224C2.1957 11.8142 2.22004 11.6101 2.27067 11.4439C2.32288 11.2726 2.39449 11.1684 2.46292 11.122L2.23854 10.7909ZM2.29821 13.2462C2.39715 13.3052 2.54617 13.335 2.68297 13.3525C2.83041 13.3715 3.002 13.3804 3.17113 13.3801C3.34026 13.3798 3.51184 13.3702 3.65928 13.3507C3.79612 13.3326 3.94503 13.3022 4.04381 13.2429L3.83785 12.9C3.81725 12.9124 3.7438 12.936 3.60679 12.9541C3.48036 12.9709 3.32659 12.9798 3.17037 12.9801C3.01415 12.9804 2.86038 12.9721 2.73397 12.9558C2.59691 12.9382 2.52357 12.9148 2.50313 12.9026L2.29821 13.2462ZM4.04382 13.2429L4.20558 13.1457L3.99961 12.8028L3.83784 12.9L4.04382 13.2429ZM3.94439 13.0966L4.62263 13.9736L4.93905 13.7289L4.2608 12.8519L3.94439 13.0966ZM4.62269 13.9737C4.80895 14.2143 4.98466 14.4437 5.11768 14.6193C5.18423 14.7071 5.23984 14.7811 5.28065 14.8362C5.30109 14.8638 5.31749 14.8862 5.32956 14.903C5.34312 14.9218 5.3476 14.9287 5.34729 14.9282L5.6878 14.7183C5.66516 14.6816 5.56554 14.548 5.4365 14.3777C5.30251 14.2009 5.12595 13.9704 4.93899 13.7288L4.62269 13.9737ZM5.3471 14.9279C5.3129 14.8721 5.31949 14.82 5.32 14.815C5.32137 14.8014 5.32405 14.7937 5.32347 14.7955C5.32262 14.7983 5.31848 14.8096 5.30777 14.8322C5.28716 14.8759 5.25281 14.9396 5.20608 15.0201C5.11335 15.18 4.98029 15.3923 4.83367 15.6155C4.53705 16.0673 4.20062 16.5404 4.03931 16.7149L4.33301 16.9865C4.52032 16.7839 4.87394 16.283 5.16804 15.8351C5.31678 15.6086 5.45424 15.3896 5.55211 15.2208C5.60067 15.137 5.64164 15.062 5.66947 15.0031C5.68299 14.9744 5.69635 14.9435 5.70542 14.9143C5.70981 14.9002 5.71556 14.8792 5.718 14.8549C5.71957 14.8393 5.72523 14.7792 5.68799 14.7186L5.3471 14.9279ZM4.25358 16.6624C4.20957 16.6466 4.16837 16.6234 4.13176 16.5936L3.87903 16.9036C3.95072 16.962 4.03176 17.0078 4.11874 17.039L4.25358 16.6624ZM4.11893 16.5839C3.98853 16.494 3.86723 16.4358 3.68908 16.4075C3.52452 16.3814 3.31377 16.3815 3.00761 16.3914L3.0206 16.7912C3.33104 16.7811 3.50497 16.7833 3.62641 16.8026C3.73427 16.8197 3.80032 16.8501 3.89185 16.9132L4.11893 16.5839ZM3.00764 16.3914C2.79315 16.3984 2.60754 16.4134 2.45377 16.4531C2.29557 16.494 2.15777 16.5643 2.05426 16.6898C1.95359 16.8119 1.90287 16.9654 1.87508 17.1379C1.84732 17.3102 1.83963 17.5208 1.83963 17.7725H2.23963C2.23963 17.5239 2.24764 17.3402 2.26998 17.2015C2.29228 17.0631 2.32604 16.989 2.36289 16.9443C2.3969 16.903 2.44967 16.8673 2.55377 16.8404C2.66229 16.8124 2.81068 16.798 3.02057 16.7912L3.00764 16.3914ZM1.83963 17.7725C1.83963 18.0371 1.84568 18.2571 1.87428 18.4332C1.90302 18.6101 1.9584 18.7695 2.07833 18.8898C2.19889 19.0107 2.35756 19.065 2.53298 19.0912C2.70683 19.1172 2.92291 19.1191 3.18153 19.114L3.17361 18.7141C2.91405 18.7192 2.7288 18.7161 2.59212 18.6956C2.45702 18.6754 2.39598 18.6419 2.36159 18.6074C2.32659 18.5723 2.2918 18.5088 2.2691 18.369C2.24627 18.2284 2.23963 18.038 2.23963 17.7725H1.83963ZM3.18152 19.114C3.40319 19.1096 3.5904 19.0986 3.74593 19.0721C3.90151 19.0456 4.03995 19.0012 4.15432 18.92C4.39424 18.7497 4.45734 18.4699 4.49061 18.1431L4.09267 18.1025C4.05944 18.429 4.00402 18.5361 3.92279 18.5938C3.87658 18.6266 3.80379 18.6564 3.67865 18.6778C3.55346 18.6992 3.39046 18.7098 3.17362 18.7141L3.18152 19.114ZM4.49062 18.143C4.49846 18.0659 4.50302 18.0287 4.5258 17.9705C4.55147 17.9049 4.6025 17.8089 4.71671 17.6322C4.94462 17.2797 5.39342 16.6521 6.29776 15.3884L5.97247 15.1556C5.07208 16.4138 4.61534 17.0523 4.3808 17.415C4.26379 17.596 4.19435 17.7199 4.15333 17.8246C4.10941 17.9368 4.10103 18.0203 4.09267 18.1026L4.49062 18.143ZM6.29777 15.3884L6.57428 15.0019L6.24898 14.7691L5.97247 15.1556L6.29777 15.3884ZM6.21203 14.8981L6.23395 15.2458L6.63316 15.2206L6.61123 14.8729L6.21203 14.8981ZM6.23395 15.2458C6.25431 15.5684 6.30998 15.8488 6.5456 16.0228C6.65768 16.1055 6.79434 16.1516 6.94752 16.1795C7.10065 16.2074 7.28446 16.2194 7.50096 16.2243L7.50999 15.8244C7.29943 15.8197 7.14077 15.8081 7.01917 15.786C6.8976 15.7638 6.82724 15.7335 6.78317 15.701C6.70646 15.6443 6.65324 15.5388 6.63316 15.2206L6.23395 15.2458ZM7.50075 16.2243C7.75092 16.2302 7.96492 16.2229 8.1442 16.1921C8.32411 16.1611 8.48245 16.1042 8.60953 16.001C8.86992 15.7895 8.92576 15.4461 8.92796 15.0327L8.52797 15.0306C8.52578 15.4413 8.46152 15.6059 8.35733 15.6905C8.30212 15.7354 8.21705 15.7736 8.07634 15.7978C7.935 15.8222 7.75118 15.8301 7.51021 15.8244L7.50075 16.2243ZM8.92796 15.0317V14.7879H8.52796V15.0317H8.92796ZM8.88672 14.9095L9.93745 13.5382L9.61994 13.295L8.56921 14.6662L8.88672 14.9095ZM9.93744 13.5382L10.9884 12.1667L10.6709 11.9234L9.61994 13.2949L9.93744 13.5382ZM10.6301 12.0585L10.6545 12.4219L11.0536 12.3952L11.0292 12.0317L10.6301 12.0585ZM10.6545 12.4218C10.6757 12.7417 10.7388 13.02 10.9887 13.1877C11.1055 13.2661 11.2471 13.3087 11.4062 13.3331C11.5656 13.3576 11.7567 13.3659 11.9822 13.3659V12.9659C11.763 12.9659 11.5959 12.9576 11.4669 12.9378C11.3376 12.9179 11.2604 12.8883 11.2116 12.8555C11.1301 12.8008 11.0738 12.7005 11.0536 12.3953L10.6545 12.4218ZM11.9822 13.3659C12.2046 13.3659 12.3944 13.3568 12.5536 13.3297C12.7132 13.3027 12.8551 13.2556 12.9722 13.1705C13.2166 12.9928 13.2829 12.7029 13.3094 12.3614L12.9105 12.3306C12.8848 12.6631 12.8247 12.7831 12.737 12.8469C12.688 12.8825 12.6125 12.914 12.4867 12.9354C12.3607 12.9568 12.1973 12.9659 11.9822 12.9659V13.3659ZM13.3094 12.3611L13.3337 12.0397L12.9349 12.0094L12.9105 12.3309L13.3094 12.3611ZM12.9726 12.1422L13.2876 12.5752L13.611 12.3398L13.296 11.9069L12.9726 12.1422ZM13.2876 12.5752C13.461 12.8135 13.9279 13.4524 14.3253 13.9949L14.648 13.7585C14.2507 13.2161 13.7841 12.5777 13.611 12.3398L13.2876 12.5752ZM14.3253 13.9949L15.0474 14.9812L15.3701 14.7449L14.648 13.7586L14.3253 13.9949ZM15.0099 14.8844L15.0459 15.2192L15.4436 15.1764L15.4076 14.8416L15.0099 14.8844ZM15.0459 15.2193C15.0821 15.5541 15.1431 15.8356 15.3607 16.0121C15.4681 16.0992 15.5982 16.1482 15.7436 16.1778C15.8879 16.2072 16.0596 16.2199 16.26 16.2258L16.2716 15.8259C16.0773 15.8203 15.9332 15.8083 15.8235 15.7859C15.7148 15.7638 15.6527 15.7339 15.6127 15.7015C15.5354 15.6388 15.4805 15.5178 15.4436 15.1763L15.0459 15.2193ZM16.26 16.2258C16.5103 16.2331 16.7208 16.2308 16.8957 16.21C17.0701 16.1894 17.224 16.1488 17.3515 16.0688C17.623 15.8987 17.6981 15.6017 17.734 15.2503L17.3361 15.2096C17.3009 15.5532 17.2368 15.6687 17.1391 15.7299C17.082 15.7657 16.9939 15.7956 16.8486 15.8128C16.7036 15.83 16.5167 15.8331 16.2716 15.8259L16.26 16.2258ZM17.734 15.2504L17.7623 14.9749L17.3644 14.9341L17.3361 15.2095L17.734 15.2504ZM17.4017 15.0723L18.4524 16.5143L18.7757 16.2787L17.725 14.8367L17.4017 15.0723ZM18.4524 16.5143L19.5034 17.9563L19.8267 17.7207L18.7757 16.2787L18.4524 16.5143ZM19.465 17.8385V18.107H19.865V17.8385H19.465ZM19.465 18.107C19.465 18.4428 19.5288 18.7329 19.7818 18.9158C20.012 19.0821 20.3563 19.1229 20.7947 19.1229V18.7229C20.3507 18.7229 20.1302 18.6741 20.0161 18.5916C19.9249 18.5257 19.865 18.4079 19.865 18.107H19.465ZM20.7947 19.1229C21.0493 19.1229 21.2642 19.1143 21.439 19.0803C21.6164 19.0459 21.7732 18.9816 21.8911 18.8544C22.0078 18.7286 22.0634 18.5658 22.0913 18.383C22.119 18.2012 22.1223 17.9773 22.1165 17.7098L21.7166 17.7184C21.7224 17.9841 21.7179 18.1779 21.6959 18.3227C21.6739 18.4665 21.6377 18.5394 21.5978 18.5824C21.5591 18.6242 21.4944 18.6621 21.3627 18.6877C21.2286 18.7137 21.047 18.7229 20.7947 18.7229V19.1229ZM22.1165 17.7096C22.111 17.4632 22.1004 17.2568 22.0685 17.0906C22.0362 16.9225 21.978 16.7717 21.859 16.6574C21.7405 16.5436 21.587 16.4904 21.4168 16.4628C21.2479 16.4354 21.0385 16.4297 20.7877 16.4299L20.788 16.8299C21.0394 16.8297 21.2193 16.836 21.3527 16.8576C21.4848 16.8791 21.5466 16.912 21.5819 16.9459C21.6168 16.9794 21.6511 17.0381 21.6756 17.166C21.7005 17.2957 21.7111 17.4716 21.7166 17.7186L22.1165 17.7096ZM20.7879 16.4299C20.5172 16.4299 20.3468 16.432 20.2228 16.4491C20.0818 16.4687 19.9969 16.5081 19.8973 16.566L20.0983 16.9118C20.1692 16.8706 20.204 16.8555 20.2777 16.8453C20.3684 16.8328 20.5078 16.8299 20.7879 16.8299V16.4299ZM19.8974 16.566L19.7105 16.6745L19.9114 17.0204L20.0983 16.9119L19.8974 16.566ZM19.9731 16.7303L19.2666 15.7527L18.9424 15.987L19.6488 16.9646L19.9731 16.7303ZM19.2665 15.7527L18.56 14.7753L18.2359 15.0096L18.9424 15.987L19.2665 15.7527ZM18.5545 15.0169L19.1862 14.2228L18.8731 13.9738L18.2414 14.7679L18.5545 15.0169ZM19.1862 14.2228C19.5343 13.7852 19.8741 13.3617 19.9419 13.2804L19.6347 13.0242C19.5632 13.11 19.2198 13.538 18.8732 13.9738L19.1862 14.2228ZM19.9419 13.2804L20.0685 13.1286L19.7614 12.8723L19.6347 13.0241L19.9419 13.2804ZM19.8242 13.1787L19.9792 13.2576L20.1607 12.9011L20.0057 12.8222L19.8242 13.1787ZM19.979 13.2575C20.1086 13.3236 20.2738 13.3602 20.4396 13.3785C20.6088 13.3971 20.794 13.3984 20.9727 13.3848C21.1511 13.3713 21.3286 13.3426 21.4818 13.2988C21.6279 13.257 21.7794 13.194 21.8793 13.095L21.5977 12.811C21.5715 12.837 21.5006 12.8774 21.3719 12.9142C21.2503 12.949 21.1004 12.974 20.9424 12.986C20.7848 12.9979 20.6247 12.9964 20.4835 12.9809C20.3389 12.9649 20.2285 12.9357 20.1608 12.9012L19.979 13.2575ZM21.8794 13.095C22.0181 12.9573 22.101 12.7603 22.1475 12.5599C22.1947 12.3559 22.2089 12.1277 22.1947 11.9063C22.1806 11.6849 22.1374 11.4622 22.0643 11.2694C21.9927 11.0808 21.884 10.8991 21.724 10.7886L21.4967 11.1178C21.5619 11.1628 21.6324 11.2587 21.6903 11.4114C21.7467 11.56 21.7834 11.7424 21.7956 11.9319C21.8077 12.1213 21.7948 12.3096 21.7578 12.4696C21.7199 12.6332 21.6613 12.7478 21.5976 12.811L21.8794 13.095ZM21.7241 10.7888C21.6694 10.7508 21.6024 10.7273 21.5436 10.7113C21.481 10.6941 21.4096 10.6808 21.3347 10.6704C21.1849 10.6495 21.008 10.6388 20.8332 10.6376C20.6584 10.6363 20.4805 10.6445 20.3283 10.6631C20.2524 10.6724 20.1799 10.6846 20.1159 10.7006C20.0551 10.7157 19.9885 10.7375 19.9331 10.7717L20.1434 11.112C20.1432 11.1121 20.1445 11.1113 20.1478 11.1097C20.1511 11.1082 20.1557 11.1062 20.1619 11.1039C20.1744 11.0993 20.1912 11.0941 20.2127 11.0887C20.2559 11.0779 20.3112 11.0682 20.3769 11.0602C20.508 11.0441 20.6682 11.0364 20.8304 11.0376C20.9925 11.0387 21.1513 11.0487 21.2797 11.0666C21.344 11.0755 21.3973 11.086 21.4381 11.0971C21.4827 11.1093 21.4977 11.1185 21.4965 11.1177L21.7241 10.7888ZM19.9267 10.7759C19.8839 10.8046 19.8386 10.8292 19.7914 10.8493L19.9479 11.2174C20.0185 11.1873 20.0861 11.1507 20.1499 11.1078L19.9267 10.7759ZM19.8697 10.8333C19.9264 10.8333 19.9657 10.8579 19.9702 10.8606C19.9825 10.8678 19.9911 10.8747 19.9944 10.8775C20.0018 10.8836 20.0064 10.8883 20.0065 10.8885C20.0079 10.8899 20.0067 10.8887 20.0018 10.883C19.9928 10.8725 19.9787 10.8552 19.9594 10.8307C19.921 10.7824 19.8669 10.7122 19.8018 10.6265C19.6718 10.4555 19.5003 10.2262 19.3285 9.99422C19.1568 9.76224 18.9852 9.52819 18.855 9.3477C18.7898 9.25734 18.7355 9.18109 18.6968 9.12547C18.6774 9.09752 18.6627 9.07585 18.6527 9.06066C18.6477 9.05295 18.6447 9.04821 18.6433 9.04584C18.6391 9.03881 18.6461 9.04917 18.6524 9.06589L18.278 9.20691C18.2861 9.22836 18.2974 9.24685 18.3 9.25115C18.3054 9.26011 18.3116 9.26989 18.318 9.27968C18.331 9.29949 18.3482 9.3247 18.3684 9.35379C18.409 9.41225 18.4649 9.4907 18.5306 9.58172C18.6621 9.764 18.8347 9.99946 19.0071 10.2322C19.1794 10.465 19.352 10.6958 19.4834 10.8686C19.549 10.9549 19.605 11.0276 19.6458 11.0791C19.666 11.1046 19.6837 11.1265 19.6975 11.1427C19.7041 11.1503 19.712 11.1594 19.72 11.1677C19.7236 11.1713 19.7309 11.1787 19.7404 11.1865C19.7448 11.1901 19.7543 11.1977 19.7674 11.2054C19.7726 11.2085 19.8125 11.2333 19.8697 11.2333V10.8333ZM18.6347 9.24255C19.0153 8.63478 19.4367 8.0543 19.8957 7.50523L19.5888 7.24867C19.118 7.81177 18.686 8.40704 18.2957 9.03024L18.6347 9.24255ZM19.8988 7.50139L20.0523 7.30828L19.7392 7.0594L19.5857 7.2525L19.8988 7.50139ZM19.7911 7.35427L19.9372 7.44403L20.1466 7.10316L20.0004 7.01341L19.7911 7.35427ZM19.9366 7.4436C19.9919 7.47791 20.0586 7.49946 20.1191 7.5144C20.1828 7.53015 20.2551 7.5422 20.3309 7.55131C20.4827 7.56955 20.6605 7.57745 20.8352 7.57601C21.0098 7.57457 21.1865 7.56375 21.3362 7.54297C21.4109 7.5326 21.4821 7.51931 21.5446 7.50232C21.6031 7.4864 21.67 7.46307 21.7247 7.42531L21.4974 7.09616C21.4989 7.09513 21.4842 7.10422 21.4396 7.11636C21.3988 7.12743 21.3455 7.13785 21.2812 7.14677C21.1529 7.16459 20.994 7.17469 20.8319 7.17603C20.6698 7.17736 20.5096 7.1699 20.3787 7.15417C20.3131 7.14629 20.258 7.13669 20.215 7.12608C20.1937 7.12081 20.1771 7.1157 20.1647 7.11113C20.1519 7.10637 20.147 7.10341 20.1472 7.10359L19.9366 7.4436ZM21.7247 7.42529C21.8821 7.31655 22.0103 7.21189 22.0818 7.02333C22.1448 6.8569 22.1569 6.63838 22.1654 6.33042L21.7656 6.31935C21.7566 6.64535 21.7422 6.79066 21.7077 6.88162C21.6816 6.95045 21.6413 6.99674 21.4974 7.09618L21.7247 7.42529ZM22.1654 6.33049C22.1729 6.06376 22.17 5.83971 22.1422 5.65621C22.1143 5.47156 22.0584 5.30823 21.9443 5.17988C21.829 5.05004 21.6751 4.97947 21.4985 4.93886C21.3248 4.89892 21.1126 4.88427 20.8626 4.87853L20.8534 5.27843C21.0994 5.28407 21.2772 5.29841 21.4088 5.32868C21.5375 5.35828 21.6041 5.39915 21.6453 5.44557C21.6879 5.49348 21.7248 5.57123 21.7467 5.7161C21.7689 5.86212 21.773 6.05602 21.7656 6.31928L22.1654 6.33049ZM20.8626 4.87853C20.6182 4.87294 20.4099 4.87917 20.2358 4.90641C20.0617 4.93366 19.9075 4.98399 19.7828 5.0773C19.5216 5.27269 19.4672 5.59406 19.4658 5.97028L19.8658 5.97185C19.8672 5.60384 19.9284 5.46791 20.0224 5.39757C20.0753 5.35801 20.1585 5.32337 20.2976 5.3016C20.4367 5.27984 20.6173 5.27302 20.8535 5.27843L20.8626 4.87853ZM19.4658 5.97012L19.4641 6.33086L19.864 6.33276L19.8658 5.97201L19.4658 5.97012ZM19.5059 6.20938L18.6881 7.2659L19.0044 7.51074L19.8222 6.45423L19.5059 6.20938ZM18.688 7.26597C18.2391 7.84644 17.7625 8.46161 17.6282 8.63344L17.9433 8.87979C18.0784 8.70695 18.5558 8.09081 19.0044 7.51067L18.688 7.26597ZM17.633 8.62751C17.5336 8.74508 17.4448 8.87141 17.3677 9.00498L17.7141 9.20501C17.7794 9.09196 17.8545 8.98511 17.9385 8.88573L17.633 8.62751ZM17.3409 9.105C17.3409 9.14491 17.3534 9.17508 17.3545 9.17781C17.3581 9.18742 17.3618 9.19499 17.3639 9.19895C17.3681 9.2073 17.3724 9.21462 17.3752 9.21927C17.3812 9.22926 17.3887 9.24065 17.3963 9.25206C17.412 9.27549 17.4341 9.30734 17.4613 9.34582C17.516 9.4232 17.5946 9.53201 17.6909 9.66394C17.8838 9.92803 18.1494 10.2871 18.4415 10.6774L18.7618 10.4378C18.4704 10.0483 18.2057 9.69057 18.014 9.42806C17.9181 9.2967 17.8409 9.18977 17.7879 9.11485C17.7612 9.07718 17.7415 9.04874 17.7288 9.02973C17.7222 9.01991 17.7189 9.01455 17.7176 9.01249C17.7168 9.01111 17.7183 9.01359 17.7207 9.0183C17.7218 9.02045 17.7248 9.02649 17.7281 9.03489C17.7286 9.03641 17.7409 9.06568 17.7409 9.105H17.3409ZM18.446 10.6832C18.8288 11.1575 19.1784 11.6584 19.4922 12.1822L19.8354 11.9767C19.512 11.4369 19.1517 10.9207 18.7573 10.432L18.446 10.6832ZM19.4638 12.0795C19.4638 12.0613 19.4666 12.0477 19.4681 12.0414C19.4697 12.0344 19.4714 12.0297 19.472 12.0281C19.473 12.0252 19.4728 12.0265 19.4693 12.0333C19.4624 12.0467 19.4496 12.0687 19.4289 12.1009C19.388 12.1647 19.3246 12.2554 19.2375 12.374C19.0639 12.6106 18.8034 12.9486 18.4576 13.3848L18.771 13.6333C19.1178 13.1958 19.382 12.8533 19.56 12.6107C19.6488 12.4897 19.7179 12.3912 19.7655 12.317C19.7891 12.2802 19.8096 12.2461 19.825 12.2163C19.8326 12.2015 19.8407 12.1844 19.8473 12.1664C19.8524 12.1526 19.8638 12.1198 19.8638 12.0795H19.4638ZM18.4576 13.3848L17.4068 14.7101L17.7203 14.9586L18.771 13.6333L18.4576 13.3848ZM17.7627 14.8161L17.733 14.4924L17.3347 14.529L17.3644 14.8526L17.7627 14.8161ZM17.7336 14.5195C17.7411 14.3508 17.7034 14.1831 17.6242 14.0341L17.271 14.2218C17.3165 14.3075 17.3384 14.4043 17.334 14.5018L17.7336 14.5195ZM17.6242 14.0341C17.545 13.8851 17.4273 13.7604 17.2832 13.6734L17.0765 14.0158C17.1581 14.0651 17.2255 14.1362 17.271 14.2218L17.6242 14.0341ZM17.2935 13.68C17.2373 13.6412 17.1694 13.6162 17.1072 13.5987C17.0421 13.5804 16.9685 13.5664 16.8916 13.5557C16.7378 13.5344 16.5581 13.5249 16.381 13.526C16.2039 13.5272 16.0239 13.5391 15.8696 13.5624C15.7924 13.5741 15.7186 13.5891 15.6532 13.6082C15.5905 13.6265 15.5231 13.6521 15.4672 13.6905L15.6942 14.0199C15.6989 14.0167 15.7195 14.0055 15.7653 13.9921C15.8085 13.9795 15.8637 13.9678 15.9294 13.9579C16.0605 13.9381 16.2208 13.9271 16.3836 13.926C16.5465 13.925 16.7063 13.9339 16.8367 13.9519C16.9019 13.961 16.9566 13.9719 16.999 13.9838C17.02 13.9897 17.0363 13.9954 17.0485 14.0005C17.0544 14.003 17.0589 14.0051 17.062 14.0068C17.0651 14.0084 17.0664 14.0093 17.0663 14.0092L17.2935 13.68ZM15.4672 13.6906L15.3023 13.8043L15.5294 14.1336L15.6943 14.0199L15.4672 13.6906ZM15.5772 13.8508L14.8558 12.866L14.5331 13.1023L15.2545 14.0871L15.5772 13.8508ZM14.8558 12.866L14.1347 11.8812L13.812 12.1175L14.5331 13.1023L14.8558 12.866ZM14.1323 12.1207L14.8631 11.1636L14.5452 10.9208L13.8144 11.878L14.1323 12.1207ZM14.8631 11.1636L15.594 10.2065L15.2761 9.96373L14.5452 10.9208L14.8631 11.1636ZM15.3298 10.2552L15.4672 10.3402L15.6777 10.0001L15.5403 9.91505L15.3298 10.2552ZM15.4673 10.3403C15.5233 10.3749 15.5916 10.3958 15.652 10.41C15.7163 10.4251 15.7899 10.4366 15.8673 10.4452C16.0222 10.4624 16.2049 10.4694 16.3848 10.4673C16.5646 10.4652 16.7466 10.4539 16.9001 10.4331C16.9768 10.4227 17.0496 10.4095 17.113 10.3928C17.1721 10.3772 17.2403 10.3543 17.2955 10.3169L17.0711 9.98581C17.0729 9.98456 17.0577 9.99373 17.0111 10.006C16.9687 10.0172 16.9132 10.0277 16.8464 10.0368C16.7132 10.0548 16.5481 10.0654 16.3801 10.0673C16.2121 10.0693 16.0462 10.0626 15.9114 10.0476C15.8438 10.0401 15.7871 10.0309 15.7434 10.0206C15.7217 10.0155 15.705 10.0106 15.6928 10.0062C15.68 10.0016 15.676 9.99905 15.6776 10L15.4673 10.3403ZM17.2954 10.317C17.3715 10.2654 17.4438 10.2085 17.5038 10.1351C17.5657 10.0594 17.6081 9.97427 17.636 9.87351C17.6881 9.68584 17.6925 9.43001 17.6853 9.05958L17.2854 9.06734C17.2928 9.45078 17.2842 9.64544 17.2506 9.76654C17.2357 9.82015 17.217 9.85397 17.1941 9.88194C17.1693 9.91227 17.133 9.94386 17.0711 9.98577L17.2954 10.317ZM17.6853 9.05956C17.6804 8.80884 17.6689 8.59783 17.6341 8.42703C17.5988 8.25403 17.5356 8.10042 17.411 7.98525C17.2872 7.8709 17.1281 7.81782 16.9504 7.79189C16.774 7.76614 16.5566 7.76422 16.2967 7.77066L16.3066 8.17054C16.5654 8.16412 16.7529 8.1673 16.8927 8.1877C17.0312 8.20793 17.0995 8.24205 17.1395 8.27904C17.1787 8.31523 17.2157 8.37712 17.2421 8.50686C17.269 8.63879 17.2805 8.81776 17.2854 9.06735L17.6853 9.05956ZM16.2967 7.77066C16.0767 7.77608 15.888 7.79095 15.7299 7.82424C15.5714 7.85761 15.4308 7.91205 15.3177 8.00557C15.083 8.19959 15.0354 8.50141 15.035 8.85209L15.435 8.85252C15.4354 8.51064 15.4898 8.38225 15.5725 8.31387C15.6181 8.27619 15.6901 8.24138 15.8123 8.21566C15.935 8.18984 16.0952 8.17575 16.3065 8.17054L16.2967 7.77066ZM15.035 8.8523V9.22318H15.435V8.8523H15.035ZM15.076 9.10187L14.0143 10.4934L14.3324 10.736L15.3941 9.3445L15.076 9.10187ZM14.0143 10.4934L12.9526 11.8852L13.2707 12.1278L14.3324 10.736L14.0143 10.4934ZM13.3117 12.0065V11.7157H12.9117V12.0065H13.3117ZM13.3117 11.715C13.3104 11.3595 13.2595 11.052 13.0092 10.8611C12.89 10.7702 12.7425 10.7197 12.5761 10.6906C12.4098 10.6614 12.2106 10.6515 11.977 10.6518L11.9777 11.0518C12.2032 11.0515 12.3751 11.0614 12.5071 11.0846C12.6392 11.1077 12.7174 11.1417 12.7666 11.1792C12.8533 11.2453 12.9105 11.3705 12.9117 11.7164L13.3117 11.715ZM11.9774 10.6518C11.7474 10.6518 11.5541 10.659 11.3946 10.6823C11.2355 10.7055 11.0935 10.7467 10.977 10.8264C10.7291 10.9959 10.6751 11.2822 10.6533 11.6071L11.0524 11.634C11.0744 11.3064 11.1271 11.2083 11.2027 11.1566C11.248 11.1257 11.3219 11.0971 11.4523 11.0781C11.5821 11.0592 11.7518 11.0518 11.9774 11.0518V10.6518ZM10.6532 11.6073L10.6308 11.9453L11.03 11.9718L11.0524 11.6338L10.6532 11.6073ZM10.9873 11.8346L9.93563 10.5033L9.62176 10.7513L10.6735 12.0825L10.9873 11.8346ZM9.93567 10.5034L8.88494 9.17244L8.57099 9.4203L9.62172 10.7513L9.93567 10.5034ZM8.92796 9.29637V8.89236H8.52796V9.29637H8.92796ZM8.92796 8.89236C8.92796 8.50811 8.89243 8.17931 8.64929 7.97838C8.53049 7.88021 8.38111 7.82876 8.21348 7.79999C8.04605 7.77124 7.84298 7.76238 7.60263 7.76244L7.60273 8.16244C7.83781 8.16238 8.01311 8.17144 8.14581 8.19422C8.27831 8.21696 8.35082 8.25064 8.39449 8.28672C8.47628 8.35431 8.52796 8.49059 8.52796 8.89236H8.92796ZM7.60268 7.76244C7.3452 7.76244 7.13049 7.76852 6.95783 7.79704C6.7839 7.82577 6.62737 7.881 6.5081 7.99923C6.38862 8.11768 6.33259 8.27351 6.30347 8.44665C6.27461 8.61824 6.26845 8.83145 6.26839 9.08665L6.66839 9.08675C6.66845 8.83088 6.67522 8.64802 6.69793 8.51299C6.72038 8.37951 6.75456 8.31815 6.78971 8.2833C6.82509 8.24823 6.88763 8.21406 7.02302 8.19169C7.15968 8.16912 7.34454 8.16244 7.60268 8.16244V7.76244ZM6.26839 9.0867C6.26839 9.45682 6.27821 9.71585 6.342 9.90352C6.37668 10.0055 6.42764 10.0895 6.49967 10.1615C6.56867 10.2304 6.6505 10.2817 6.73575 10.3276L6.92507 9.97519C6.85294 9.93644 6.81082 9.90691 6.78244 9.87854C6.75709 9.8532 6.73721 9.8233 6.72072 9.77479C6.68219 9.66143 6.66839 9.47268 6.66839 9.0867H6.26839ZM6.77653 10.344C7.28791 10.487 7.82626 10.4995 8.34359 10.3804L8.25381 9.9906C7.8017 10.0947 7.33126 10.0838 6.88429 9.95877L6.77653 10.344ZM8.36739 10.3733C8.41659 10.3553 8.46199 10.339 8.49535 10.3271C8.5121 10.3212 8.52543 10.3165 8.53456 10.3134C8.53922 10.3117 8.54212 10.3108 8.54358 10.3103C8.54443 10.31 8.54388 10.3102 8.54254 10.3106C8.54195 10.3108 8.54002 10.3114 8.53736 10.3121C8.53603 10.3124 8.53364 10.3131 8.5306 10.3138C8.52837 10.3143 8.52176 10.3158 8.51311 10.3169L8.45947 9.92054C8.4454 9.92244 8.43416 9.92563 8.43407 9.92565C8.43087 9.9265 8.42824 9.92729 8.42681 9.92772C8.42378 9.92863 8.42095 9.92955 8.41894 9.93021C8.41468 9.93161 8.4096 9.93333 8.40428 9.93517C8.39342 9.93891 8.37872 9.94407 8.36145 9.95021C8.32678 9.96253 8.28021 9.9793 8.23001 9.99766L8.36739 10.3733ZM8.50524 10.3178C8.44898 10.3232 8.40778 10.3029 8.39987 10.299C8.38538 10.2921 8.37499 10.2849 8.3704 10.2816C8.36069 10.2746 8.35398 10.2684 8.35218 10.2668C8.34945 10.2642 8.34753 10.2623 8.34677 10.2615C8.34588 10.2606 8.34535 10.26 8.3453 10.26C8.34523 10.2599 8.34586 10.2606 8.34739 10.2623C8.34885 10.264 8.35077 10.2662 8.3532 10.269C8.36319 10.2807 8.37841 10.2991 8.3987 10.3239C8.43899 10.3732 8.49618 10.4443 8.56493 10.5305C8.70228 10.7026 8.88417 10.9328 9.06574 11.1638C9.2473 11.3949 9.42823 11.6265 9.56363 11.8015C9.6314 11.8891 9.6874 11.962 9.72627 12.0135C9.74583 12.0393 9.76035 12.0589 9.76967 12.0718C9.77453 12.0785 9.77679 12.0818 9.77735 12.0826C9.77788 12.0834 9.77609 12.0808 9.77354 12.0764C9.77243 12.0744 9.76909 12.0686 9.76543 12.0605C9.76362 12.0564 9.76035 12.0489 9.75722 12.0389C9.75497 12.0318 9.74801 12.0091 9.74801 11.9791H10.148C10.148 11.9488 10.141 11.9259 10.1387 11.9185C10.1355 11.9083 10.132 11.9004 10.1301 11.896C10.1261 11.8871 10.1222 11.8803 10.1204 11.8771C10.1164 11.8703 10.1126 11.8644 10.1104 11.861C10.1055 11.8537 10.0996 11.8454 10.0939 11.8375C10.082 11.821 10.0654 11.7988 10.0454 11.7723C10.0051 11.719 9.94803 11.6447 9.87999 11.5567C9.74376 11.3806 9.56217 11.1482 9.38026 10.9167C9.19834 10.6852 9.01578 10.4542 8.8776 10.281C8.80858 10.1945 8.75023 10.122 8.70845 10.0708C8.6877 10.0454 8.67026 10.0244 8.65735 10.0092C8.65116 10.002 8.6445 9.99434 8.63842 9.98779C8.63581 9.98498 8.63048 9.9793 8.62394 9.97325C8.62121 9.97072 8.61374 9.96387 8.60343 9.95648C8.59856 9.95298 8.58791 9.94562 8.57321 9.93855C8.56509 9.93465 8.52373 9.91427 8.46735 9.91963L8.50524 10.3178ZM9.74801 11.9791C9.74801 11.9397 9.76028 11.9104 9.76094 11.9086C9.76423 11.9 9.76735 11.8937 9.76859 11.8913C9.77012 11.8882 9.77135 11.8861 9.77192 11.885C9.77255 11.8839 9.77297 11.8832 9.77305 11.8831C9.77319 11.8829 9.77281 11.8835 9.77166 11.8853C9.77057 11.887 9.76908 11.8892 9.76713 11.8922C9.75905 11.9043 9.74615 11.9229 9.7283 11.9481C9.69288 11.9982 9.64108 12.07 9.57651 12.1585C9.44754 12.3351 9.26929 12.5759 9.07292 12.838L9.39305 13.0779C9.59013 12.8148 9.7694 12.5726 9.89957 12.3943C9.96457 12.3053 10.0178 12.2316 10.0549 12.179C10.0734 12.1529 10.0887 12.1309 10.0997 12.1144C10.105 12.1064 10.1107 12.0978 10.1156 12.0897C10.1178 12.0861 10.1216 12.0795 10.1256 12.0718C10.1274 12.0681 10.131 12.0608 10.1346 12.0513C10.1356 12.0488 10.148 12.0188 10.148 11.9791H9.74801ZM9.07285 12.8381L8.35806 13.7935L8.67834 14.0331L9.39313 13.0778L9.07285 12.8381ZM8.63723 13.7526L8.50568 13.6552L8.26763 13.9766L8.39918 14.0741L8.63723 13.7526ZM8.5057 13.6552C8.44863 13.6129 8.37714 13.5884 8.31701 13.5723C8.25197 13.5549 8.17721 13.5417 8.09875 13.5317C7.94147 13.5116 7.75449 13.5026 7.57013 13.5036C7.38576 13.5046 7.19832 13.5157 7.04013 13.5376C6.96119 13.5485 6.88599 13.5626 6.82045 13.5807C6.75936 13.5975 6.68856 13.6226 6.63182 13.664L6.86773 13.9871C6.86507 13.989 6.87948 13.9793 6.92691 13.9662C6.96988 13.9544 7.02651 13.9433 7.09489 13.9338C7.23135 13.9149 7.40056 13.9046 7.57232 13.9036C7.7441 13.9027 7.91276 13.9112 8.04812 13.9285C8.11598 13.9372 8.1718 13.9476 8.21376 13.9588C8.26065 13.9713 8.2726 13.9803 8.26761 13.9766L8.5057 13.6552ZM6.62649 13.6681C6.49515 13.7709 6.39038 13.9041 6.32081 14.0562L6.68457 14.2225C6.7277 14.1282 6.79244 14.0461 6.87306 13.983L6.62649 13.6681ZM6.32081 14.0562C6.25125 14.2083 6.21884 14.375 6.22619 14.5422L6.62581 14.5247C6.62123 14.4205 6.64143 14.3169 6.68457 14.2225L6.32081 14.0562ZM6.22668 14.517L6.20109 14.8273L6.59974 14.8602L6.62532 14.5499L6.22668 14.517ZM6.55869 14.7215L6.28365 14.3654L5.9671 14.61L6.24214 14.966L6.55869 14.7215ZM6.28364 14.3654C6.13211 14.1693 5.65903 13.5603 5.23251 13.0119L4.91678 13.2575C5.34341 13.806 5.81606 14.4145 5.9671 14.61L6.28364 14.3654ZM5.22911 13.0077C4.95511 12.6745 4.70061 12.3254 4.46695 11.9619L4.13048 12.1782C4.37257 12.5548 4.63625 12.9166 4.92018 13.2618L5.22911 13.0077ZM4.49871 12.0701C4.49871 12.0934 4.49448 12.111 4.49267 12.118C4.49044 12.1266 4.48811 12.133 4.48687 12.1362C4.4855 12.1398 4.48437 12.1423 4.48382 12.1436C4.48322 12.1449 4.48286 12.1456 4.48286 12.1456C4.48284 12.1456 4.48302 12.1453 4.48346 12.1444C4.4839 12.1436 4.48451 12.1425 4.48532 12.1411C4.48697 12.1381 4.48918 12.1343 4.49207 12.1295C4.50398 12.1096 4.52302 12.0797 4.54948 12.0397C4.60202 11.9602 4.67894 11.8482 4.77496 11.7113C4.96674 11.4378 5.23183 11.0691 5.52381 10.6715L5.2014 10.4348C4.9082 10.8341 4.64134 11.2052 4.44747 11.4816C4.35067 11.6196 4.27134 11.7351 4.21583 11.819C4.18827 11.8607 4.16534 11.8965 4.14879 11.9242C4.14072 11.9377 4.13245 11.9521 4.12561 11.9657C4.1223 11.9722 4.11764 11.9819 4.11334 11.9931C4.11183 11.9971 4.09871 12.0289 4.09871 12.0701H4.49871ZM5.52383 10.6715L6.58748 9.22235L6.26501 8.98567L5.20137 10.4348L5.52383 10.6715ZM6.58508 8.98247L6.13949 8.40018L5.82183 8.64327L6.26741 9.22555L6.58508 8.98247ZM6.13971 8.40046C5.8945 8.07887 5.4189 7.45579 5.08235 7.01289L4.76387 7.2549C5.10068 7.69815 5.57666 8.32172 5.82162 8.64299L6.13971 8.40046ZM5.08238 7.01293L4.47041 6.20714L4.15186 6.44906L4.76383 7.25486L5.08238 7.01293ZM4.51079 6.31634L4.48935 5.95238L4.09004 5.9759L4.11148 6.33986L4.51079 6.31634ZM4.48936 5.9525C4.46838 5.59281 4.41779 5.28795 4.18312 5.10002C4.0685 5.00823 3.92717 4.95841 3.76853 4.9291C3.6104 4.89988 3.41976 4.88845 3.19477 4.88445L3.18766 5.28438C3.40751 5.2883 3.57128 5.29942 3.69586 5.32244C3.81994 5.34536 3.88963 5.37745 3.93309 5.41224C4.01458 5.4775 4.06838 5.60459 4.09003 5.97579L4.48936 5.9525Z" fill="#08979C" mask="url(#path-1-outside-1_223_31456)"/>
</svg>
