<svg width="25" height="24" viewBox="0 0 25 24" fill="none" xmlns="http://www.w3.org/2000/svg">
<path d="M18.4999 4.47991C16.9086 2.88861 14.7504 1.99463 12.4999 1.99463C10.2495 1.99463 8.09123 2.88861 6.49993 4.47991C4.90863 6.07121 4.01465 8.22947 4.01465 10.4799C4.01465 12.7303 4.90863 14.8886 6.49993 16.4799L11.7699 21.7599C11.8629 21.8536 11.9735 21.928 12.0954 21.9788C12.2172 22.0296 12.3479 22.0557 12.4799 22.0557C12.6119 22.0557 12.7426 22.0296 12.8645 21.9788C12.9864 21.928 13.097 21.8536 13.1899 21.7599L18.4999 16.4299C20.0846 14.8452 20.9748 12.696 20.9748 10.4549C20.9748 8.21386 20.0846 6.06459 18.4999 4.47991ZM17.0699 14.9999L12.4999 19.5899L7.92993 14.9999C7.02707 14.0962 6.41241 12.9452 6.16362 11.6922C5.91484 10.4392 6.04312 9.14066 6.53223 7.96059C7.02135 6.78052 7.84935 5.77196 8.91156 5.06239C9.97377 4.35281 11.2225 3.97409 12.4999 3.97409C13.7773 3.97409 15.0261 4.35281 16.0883 5.06239C17.1505 5.77196 17.9785 6.78052 18.4676 7.96059C18.9567 9.14066 19.085 10.4392 18.8362 11.6922C18.5875 12.9452 17.9728 14.0962 17.0699 14.9999ZM9.49993 7.40991C8.69264 8.21968 8.23932 9.31648 8.23932 10.4599C8.23932 11.6033 8.69264 12.7001 9.49993 13.5099C10.0997 14.1107 10.8635 14.521 11.6956 14.6893C12.5276 14.8576 13.3909 14.7765 14.177 14.4561C14.9631 14.1356 15.6371 13.5902 16.1144 12.8882C16.5917 12.1861 16.8511 11.3588 16.8599 10.5099C16.8644 9.94311 16.7553 9.38117 16.5388 8.8573C16.3224 8.33343 16.0032 7.85827 15.5999 7.45991C15.2036 7.05449 14.731 6.73145 14.2094 6.50938C13.6877 6.2873 13.1273 6.17059 12.5603 6.16594C11.9934 6.16129 11.4311 6.26881 10.9059 6.4823C10.3807 6.69579 9.90285 7.01104 9.49993 7.40991ZM14.1899 12.0899C13.811 12.4747 13.3101 12.7158 12.7731 12.7722C12.236 12.8285 11.696 12.6966 11.2454 12.3988C10.7949 12.1011 10.4617 11.6562 10.3029 11.14C10.1441 10.6238 10.1696 10.0685 10.3749 9.56907C10.5802 9.06958 10.9526 8.65693 11.4285 8.40165C11.9044 8.14637 12.4542 8.06432 12.9839 8.16953C13.5135 8.27474 13.9902 8.56067 14.3324 8.97844C14.6746 9.39621 14.8611 9.91988 14.8599 10.4599C14.8454 11.0772 14.5864 11.6634 14.1399 12.0899H14.1899Z" fill="#434343"/>
</svg>
