<svg width="25" height="24" viewBox="0 0 25 24" fill="none" xmlns="http://www.w3.org/2000/svg">
<path d="M12.5 2C10.5222 2 8.58879 2.58649 6.9443 3.6853C5.29981 4.78412 4.01809 6.3459 3.26121 8.17317C2.50433 10.0004 2.3063 12.0111 2.69215 13.9509C3.078 15.8907 4.03041 17.6725 5.42894 19.0711C6.82746 20.4696 8.60929 21.422 10.5491 21.8079C12.4889 22.1937 14.4996 21.9957 16.3268 21.2388C18.1541 20.4819 19.7159 19.2002 20.8147 17.5557C21.9135 15.9112 22.5 13.9778 22.5 12C22.5 10.6868 22.2413 9.38642 21.7388 8.17317C21.2363 6.95991 20.4997 5.85752 19.5711 4.92893C18.6425 4.00035 17.5401 3.26375 16.3268 2.7612C15.1136 2.25866 13.8132 2 12.5 2ZM13.5 19.93V19C13.5 18.7348 13.3946 18.4804 13.2071 18.2929C13.0196 18.1054 12.7652 18 12.5 18C12.2348 18 11.9804 18.1054 11.7929 18.2929C11.6054 18.4804 11.5 18.7348 11.5 19V19.93C9.73998 19.7068 8.10408 18.9049 6.84959 17.6504C5.5951 16.3959 4.7932 14.76 4.57 13H5.5C5.76522 13 6.01957 12.8946 6.20711 12.7071C6.39465 12.5196 6.5 12.2652 6.5 12C6.5 11.7348 6.39465 11.4804 6.20711 11.2929C6.01957 11.1054 5.76522 11 5.5 11H4.57C4.7932 9.23998 5.5951 7.60408 6.84959 6.34959C8.10408 5.0951 9.73998 4.29319 11.5 4.07V5C11.5 5.26522 11.6054 5.51957 11.7929 5.70711C11.9804 5.89464 12.2348 6 12.5 6C12.7652 6 13.0196 5.89464 13.2071 5.70711C13.3946 5.51957 13.5 5.26522 13.5 5V4.07C15.26 4.29319 16.8959 5.0951 18.1504 6.34959C19.4049 7.60408 20.2068 9.23998 20.43 11H19.5C19.2348 11 18.9804 11.1054 18.7929 11.2929C18.6054 11.4804 18.5 11.7348 18.5 12C18.5 12.2652 18.6054 12.5196 18.7929 12.7071C18.9804 12.8946 19.2348 13 19.5 13H20.43C20.2068 14.76 19.4049 16.3959 18.1504 17.6504C16.8959 18.9049 15.26 19.7068 13.5 19.93ZM15.64 7.55L10.64 9.67C10.4069 9.77099 10.221 9.95691 10.12 10.19L8 15.19C7.92125 15.3734 7.89916 15.5761 7.93658 15.7722C7.97401 15.9682 8.06923 16.1485 8.21 16.29C8.39463 16.4784 8.64623 16.5862 8.91 16.59C9.04837 16.5901 9.18503 16.5594 9.31 16.5L14.31 14.38C14.5431 14.279 14.729 14.0931 14.83 13.86L16.95 8.86C17.0273 8.67676 17.0482 8.47463 17.01 8.27946C16.9718 8.08429 16.8763 7.90493 16.7357 7.7643C16.5951 7.62368 16.4157 7.52818 16.2205 7.49001C16.0254 7.45183 15.8232 7.47272 15.64 7.55ZM13.15 12.65L10.87 13.65L11.87 11.37L14.15 10.37L13.15 12.65Z" fill="#434343"/>
</svg>
