<svg width="48" height="48" viewBox="0 0 48 48" fill="none" xmlns="http://www.w3.org/2000/svg">
<g filter="url(#filter0_ii_185_29681)">
<path fill-rule="evenodd" clip-rule="evenodd" d="M11.8008 4C9.59164 4 7.80078 5.79086 7.80078 8V40C7.80078 42.2091 9.59164 44 11.8008 44H36.2008C38.4099 44 40.2008 42.2091 40.2008 40V14L30.2008 4H11.8008Z" fill="#F6AD00"/>
</g>
<g filter="url(#filter1_dd_185_29681)">
<path d="M14.9407 32.987L18.5855 27.63C18.6322 27.5613 18.6933 27.5038 18.7647 27.4614C18.8361 27.419 18.9159 27.3928 18.9985 27.3846C19.0812 27.3765 19.1646 27.3866 19.2428 27.4143C19.3211 27.442 19.3923 27.4865 19.4515 27.5448L21.8602 29.9048L27.1452 21.621C27.1976 21.5388 27.2702 21.4715 27.3562 21.4255C27.4421 21.3796 27.5384 21.3566 27.6359 21.3588C27.7333 21.361 27.8285 21.3883 27.9123 21.438C27.9961 21.4878 28.0657 21.5583 28.1142 21.6427L34.6807 33.0228C34.7306 33.1089 34.7569 33.2067 34.7569 33.3062C34.757 33.4058 34.7308 33.5036 34.681 33.5898C34.6312 33.676 34.5596 33.7476 34.4734 33.7973C34.3871 33.847 34.2893 33.8731 34.1897 33.873H15.4095C15.3063 33.8732 15.205 33.8453 15.1166 33.7921C15.0281 33.739 14.9559 33.6627 14.9076 33.5715C14.8593 33.4803 14.8369 33.3777 14.8427 33.2747C14.8485 33.1717 14.8823 33.0722 14.9405 32.987H14.9407Z" fill="white"/>
<path d="M16.0322 20.8572C16.0322 21.615 16.3333 22.3418 16.8691 22.8776C17.4049 23.4135 18.1317 23.7145 18.8895 23.7145C19.6473 23.7145 20.374 23.4135 20.9099 22.8776C21.4457 22.3418 21.7467 21.615 21.7467 20.8572C21.7467 20.0995 21.4457 19.3727 20.9099 18.8369C20.374 18.301 19.6473 18 18.8895 18C18.1317 18 17.4049 18.301 16.8691 18.8369C16.3333 19.3727 16.0322 20.0995 16.0322 20.8572Z" fill="white"/>
</g>
<path d="M39.261 13.0625H31.1367L40.1992 22.125V14L39.261 13.0625Z" fill="url(#paint0_linear_185_29681)"/>
<path d="M32.1992 14L40.1992 14L30.1992 4L30.1992 12C30.1992 13.1046 31.0947 14 32.1992 14Z" fill="#FBDE99"/>
<defs>
<filter id="filter0_ii_185_29681" x="7.80078" y="3" width="32.4004" height="42" filterUnits="userSpaceOnUse" color-interpolation-filters="sRGB">
<feFlood flood-opacity="0" result="BackgroundImageFix"/>
<feBlend mode="normal" in="SourceGraphic" in2="BackgroundImageFix" result="shape"/>
<feColorMatrix in="SourceAlpha" type="matrix" values="0 0 0 0 0 0 0 0 0 0 0 0 0 0 0 0 0 0 127 0" result="hardAlpha"/>
<feOffset dy="-2"/>
<feGaussianBlur stdDeviation="0.5"/>
<feComposite in2="hardAlpha" operator="arithmetic" k2="-1" k3="1"/>
<feColorMatrix type="matrix" values="0 0 0 0 0 0 0 0 0 0 0 0 0 0 0 0 0 0 0.3 0"/>
<feBlend mode="normal" in2="shape" result="effect1_innerShadow_185_29681"/>
<feColorMatrix in="SourceAlpha" type="matrix" values="0 0 0 0 0 0 0 0 0 0 0 0 0 0 0 0 0 0 127 0" result="hardAlpha"/>
<feOffset dy="2"/>
<feGaussianBlur stdDeviation="0.5"/>
<feComposite in2="hardAlpha" operator="arithmetic" k2="-1" k3="1"/>
<feColorMatrix type="matrix" values="0 0 0 0 1 0 0 0 0 1 0 0 0 0 1 0 0 0 0.3 0"/>
<feBlend mode="normal" in2="effect1_innerShadow_185_29681" result="effect2_innerShadow_185_29681"/>
</filter>
<filter id="filter1_dd_185_29681" x="13.8418" y="17" width="28.916" height="26.873" filterUnits="userSpaceOnUse" color-interpolation-filters="sRGB">
<feFlood flood-opacity="0" result="BackgroundImageFix"/>
<feColorMatrix in="SourceAlpha" type="matrix" values="0 0 0 0 0 0 0 0 0 0 0 0 0 0 0 0 0 0 127 0" result="hardAlpha"/>
<feOffset dx="4" dy="6"/>
<feGaussianBlur stdDeviation="2"/>
<feColorMatrix type="matrix" values="0 0 0 0 0 0 0 0 0 0 0 0 0 0 0 0 0 0 0.1 0"/>
<feBlend mode="normal" in2="BackgroundImageFix" result="effect1_dropShadow_185_29681"/>
<feColorMatrix in="SourceAlpha" type="matrix" values="0 0 0 0 0 0 0 0 0 0 0 0 0 0 0 0 0 0 127 0" result="hardAlpha"/>
<feOffset/>
<feGaussianBlur stdDeviation="0.5"/>
<feColorMatrix type="matrix" values="0 0 0 0 0 0 0 0 0 0 0 0 0 0 0 0 0 0 0.4 0"/>
<feBlend mode="normal" in2="effect1_dropShadow_185_29681" result="effect2_dropShadow_185_29681"/>
<feBlend mode="normal" in="SourceGraphic" in2="effect2_dropShadow_185_29681" result="shape"/>
</filter>
<linearGradient id="paint0_linear_185_29681" x1="33.168" y1="11.0313" x2="42.2305" y2="20.0938" gradientUnits="userSpaceOnUse">
<stop stop-opacity="0.2"/>
<stop offset="1" stop-opacity="0"/>
</linearGradient>
</defs>
</svg>
