<svg width="48" height="48" viewBox="0 0 48 48" fill="none" xmlns="http://www.w3.org/2000/svg">
<g filter="url(#filter0_ii_185_29471)">
<path fill-rule="evenodd" clip-rule="evenodd" d="M11.8008 4C9.59164 4 7.80078 5.79086 7.80078 8V40C7.80078 42.2091 9.59164 44 11.8008 44H36.2008C38.4099 44 40.2008 42.2091 40.2008 40V14L30.2008 4H11.8008Z" fill="#CCCCCC"/>
</g>
<g filter="url(#filter1_dd_185_29471)">
<path d="M19 23.5C19 22.5 19.2 21.7 19.4 21.2C19.6 20.7 20 20.2 20.5 19.8C21 19.3 21.5 19 22.2 18.8C22.8 18.6 23.4 18.5 24.1 18.5C25.5 18.5 26.6 18.9 27.6 19.7C28.5 20.5 29 21.5 29 22.8C29 23.4 28.8 23.9 28.6 24.4C28.4 24.9 27.9 25.5 27.1 26.2C26.3 26.9 26 27.4 25.7 27.7C25.4 28 25.3 28.4 25.1 28.8C24.9 29.2 25 29.5 25 30.5H23C23 29.5 23.1 29 23.2 28.5C23.3 28 23.5 27.6 23.8 27.2C24.1 26.8 24.4 26.3 25.1 25.6C25.8 24.9 26.3 24.4 26.5 24.1C26.7 23.8 26.9 23.3 26.9 22.6C26.9 21.9 26.6 21.4 26.1 20.9C25.6 20.4 24.9 20.1 24 20.1C22 20.1 21 21.5 21 23.5H19ZM25 34.5H23V32.5H25V34.5Z" fill="white"/>
</g>
<path d="M39.261 13.0625H31.1367L40.1992 22.125V14L39.261 13.0625Z" fill="url(#paint0_linear_185_29471)"/>
<path d="M32.1992 14L40.1992 14L30.1992 4L30.1992 12C30.1992 13.1046 31.0947 14 32.1992 14Z" fill="#EAEAEA"/>
<defs>
<filter id="filter0_ii_185_29471" x="7.80078" y="3" width="32.4004" height="42" filterUnits="userSpaceOnUse" color-interpolation-filters="sRGB">
<feFlood flood-opacity="0" result="BackgroundImageFix"/>
<feBlend mode="normal" in="SourceGraphic" in2="BackgroundImageFix" result="shape"/>
<feColorMatrix in="SourceAlpha" type="matrix" values="0 0 0 0 0 0 0 0 0 0 0 0 0 0 0 0 0 0 127 0" result="hardAlpha"/>
<feOffset dy="-2"/>
<feGaussianBlur stdDeviation="0.5"/>
<feComposite in2="hardAlpha" operator="arithmetic" k2="-1" k3="1"/>
<feColorMatrix type="matrix" values="0 0 0 0 0 0 0 0 0 0 0 0 0 0 0 0 0 0 0.3 0"/>
<feBlend mode="normal" in2="shape" result="effect1_innerShadow_185_29471"/>
<feColorMatrix in="SourceAlpha" type="matrix" values="0 0 0 0 0 0 0 0 0 0 0 0 0 0 0 0 0 0 127 0" result="hardAlpha"/>
<feOffset dy="2"/>
<feGaussianBlur stdDeviation="0.5"/>
<feComposite in2="hardAlpha" operator="arithmetic" k2="-1" k3="1"/>
<feColorMatrix type="matrix" values="0 0 0 0 1 0 0 0 0 1 0 0 0 0 1 0 0 0 0.3 0"/>
<feBlend mode="normal" in2="effect1_innerShadow_185_29471" result="effect2_innerShadow_185_29471"/>
</filter>
<filter id="filter1_dd_185_29471" x="18" y="17.5" width="19" height="27" filterUnits="userSpaceOnUse" color-interpolation-filters="sRGB">
<feFlood flood-opacity="0" result="BackgroundImageFix"/>
<feColorMatrix in="SourceAlpha" type="matrix" values="0 0 0 0 0 0 0 0 0 0 0 0 0 0 0 0 0 0 127 0" result="hardAlpha"/>
<feOffset dx="4" dy="6"/>
<feGaussianBlur stdDeviation="2"/>
<feColorMatrix type="matrix" values="0 0 0 0 0 0 0 0 0 0 0 0 0 0 0 0 0 0 0.1 0"/>
<feBlend mode="normal" in2="BackgroundImageFix" result="effect1_dropShadow_185_29471"/>
<feColorMatrix in="SourceAlpha" type="matrix" values="0 0 0 0 0 0 0 0 0 0 0 0 0 0 0 0 0 0 127 0" result="hardAlpha"/>
<feOffset/>
<feGaussianBlur stdDeviation="0.5"/>
<feColorMatrix type="matrix" values="0 0 0 0 0 0 0 0 0 0 0 0 0 0 0 0 0 0 0.4 0"/>
<feBlend mode="normal" in2="effect1_dropShadow_185_29471" result="effect2_dropShadow_185_29471"/>
<feBlend mode="normal" in="SourceGraphic" in2="effect2_dropShadow_185_29471" result="shape"/>
</filter>
<linearGradient id="paint0_linear_185_29471" x1="33.168" y1="11.0313" x2="42.2305" y2="20.0938" gradientUnits="userSpaceOnUse">
<stop stop-opacity="0.2"/>
<stop offset="1" stop-opacity="0"/>
</linearGradient>
</defs>
</svg>
