<svg width="48" height="48" viewBox="0 0 48 48" fill="none" xmlns="http://www.w3.org/2000/svg">
<g filter="url(#filter0_ii_185_29556)">
<path fill-rule="evenodd" clip-rule="evenodd" d="M11.8008 4C9.59164 4 7.80078 5.79086 7.80078 8V40C7.80078 42.2091 9.59164 44 11.8008 44H36.2008C38.4099 44 40.2008 42.2091 40.2008 40V14L30.2008 4H11.8008Z" fill="#4876F9"/>
</g>
<g filter="url(#filter1_dd_185_29556)">
<path d="M20.9695 34L23.9815 22.9583H24.037L27.0305 34H28.712L32.5 20.75H30.8L27.899 31.866H27.825L24.8315 20.75H23.187L20.175 31.866H20.101L17.2 20.75H15.5L19.288 34H20.9695Z" fill="white"/>
</g>
<path d="M39.261 13.0625H31.1367L40.1992 22.125V14L39.261 13.0625Z" fill="url(#paint0_linear_185_29556)"/>
<path d="M32.1992 14L40.1992 14L30.1992 4L30.1992 12C30.1992 13.1046 31.0947 14 32.1992 14Z" fill="#B5C8FC"/>
<defs>
<filter id="filter0_ii_185_29556" x="7.80078" y="3" width="32.4004" height="42" filterUnits="userSpaceOnUse" color-interpolation-filters="sRGB">
<feFlood flood-opacity="0" result="BackgroundImageFix"/>
<feBlend mode="normal" in="SourceGraphic" in2="BackgroundImageFix" result="shape"/>
<feColorMatrix in="SourceAlpha" type="matrix" values="0 0 0 0 0 0 0 0 0 0 0 0 0 0 0 0 0 0 127 0" result="hardAlpha"/>
<feOffset dy="-2"/>
<feGaussianBlur stdDeviation="0.5"/>
<feComposite in2="hardAlpha" operator="arithmetic" k2="-1" k3="1"/>
<feColorMatrix type="matrix" values="0 0 0 0 0 0 0 0 0 0 0 0 0 0 0 0 0 0 0.3 0"/>
<feBlend mode="normal" in2="shape" result="effect1_innerShadow_185_29556"/>
<feColorMatrix in="SourceAlpha" type="matrix" values="0 0 0 0 0 0 0 0 0 0 0 0 0 0 0 0 0 0 127 0" result="hardAlpha"/>
<feOffset dy="2"/>
<feGaussianBlur stdDeviation="0.5"/>
<feComposite in2="hardAlpha" operator="arithmetic" k2="-1" k3="1"/>
<feColorMatrix type="matrix" values="0 0 0 0 1 0 0 0 0 1 0 0 0 0 1 0 0 0 0.3 0"/>
<feBlend mode="normal" in2="effect1_innerShadow_185_29556" result="effect2_innerShadow_185_29556"/>
</filter>
<filter id="filter1_dd_185_29556" x="14.5" y="19.75" width="26" height="24.25" filterUnits="userSpaceOnUse" color-interpolation-filters="sRGB">
<feFlood flood-opacity="0" result="BackgroundImageFix"/>
<feColorMatrix in="SourceAlpha" type="matrix" values="0 0 0 0 0 0 0 0 0 0 0 0 0 0 0 0 0 0 127 0" result="hardAlpha"/>
<feOffset dx="4" dy="6"/>
<feGaussianBlur stdDeviation="2"/>
<feColorMatrix type="matrix" values="0 0 0 0 0 0 0 0 0 0 0 0 0 0 0 0 0 0 0.1 0"/>
<feBlend mode="normal" in2="BackgroundImageFix" result="effect1_dropShadow_185_29556"/>
<feColorMatrix in="SourceAlpha" type="matrix" values="0 0 0 0 0 0 0 0 0 0 0 0 0 0 0 0 0 0 127 0" result="hardAlpha"/>
<feOffset/>
<feGaussianBlur stdDeviation="0.5"/>
<feColorMatrix type="matrix" values="0 0 0 0 0 0 0 0 0 0 0 0 0 0 0 0 0 0 0.4 0"/>
<feBlend mode="normal" in2="effect1_dropShadow_185_29556" result="effect2_dropShadow_185_29556"/>
<feBlend mode="normal" in="SourceGraphic" in2="effect2_dropShadow_185_29556" result="shape"/>
</filter>
<linearGradient id="paint0_linear_185_29556" x1="33.168" y1="11.0313" x2="42.2305" y2="20.0938" gradientUnits="userSpaceOnUse">
<stop stop-opacity="0.2"/>
<stop offset="1" stop-opacity="0"/>
</linearGradient>
</defs>
</svg>
