<svg width="48" height="48" viewBox="0 0 48 48" fill="none" xmlns="http://www.w3.org/2000/svg">
<g filter="url(#filter0_ii_185_29522)">
<path fill-rule="evenodd" clip-rule="evenodd" d="M11.8008 4C9.59164 4 7.80078 5.79086 7.80078 8V40C7.80078 42.2091 9.59164 44 11.8008 44H36.2008C38.4099 44 40.2008 42.2091 40.2008 40V14L30.2008 4H11.8008Z" fill="#576A95"/>
</g>
<g filter="url(#filter1_dd_185_29522)">
<path d="M26.75 28.9802V34.4122C26.7499 34.5906 26.7147 34.7672 26.6463 34.932C26.5778 35.0968 26.4776 35.2464 26.3512 35.3724C26.0959 35.6272 25.7499 35.7702 25.3893 35.7702H22.6108C22.2501 35.7702 21.9042 35.6273 21.6488 35.3727C21.5224 35.2466 21.4221 35.0969 21.3536 34.932C21.2852 34.7671 21.25 34.5904 21.25 34.4119V28.9802H26.75ZM25.3893 32.0922H22.6108V34.8197H25.3893V32.0922ZM26.7045 23.5482V26.2757H23.9717V23.5482H26.7045ZM24.0058 4.3999V7.1499H26.75V9.8999H24.0055V12.4462H26.75V15.1962H24.0058V17.9124H26.75V20.6287H24.0058V23.3447H21.25V20.6284H23.9943V17.9122H21.25V15.1962H23.9943V12.4462H21.25V9.69615H23.9943V7.1499H21.25V4.3999H24.0058Z" fill="white"/>
</g>
<path d="M39.261 13.0625H31.1367L40.1992 22.125V14L39.261 13.0625Z" fill="url(#paint0_linear_185_29522)"/>
<path d="M32.1992 14L40.1992 14L30.1992 4L30.1992 12C30.1992 13.1046 31.0947 14 32.1992 14Z" fill="#BBC3D4"/>
<defs>
<filter id="filter0_ii_185_29522" x="7.80078" y="3" width="32.4004" height="42" filterUnits="userSpaceOnUse" color-interpolation-filters="sRGB">
<feFlood flood-opacity="0" result="BackgroundImageFix"/>
<feBlend mode="normal" in="SourceGraphic" in2="BackgroundImageFix" result="shape"/>
<feColorMatrix in="SourceAlpha" type="matrix" values="0 0 0 0 0 0 0 0 0 0 0 0 0 0 0 0 0 0 127 0" result="hardAlpha"/>
<feOffset dy="-2"/>
<feGaussianBlur stdDeviation="0.5"/>
<feComposite in2="hardAlpha" operator="arithmetic" k2="-1" k3="1"/>
<feColorMatrix type="matrix" values="0 0 0 0 0 0 0 0 0 0 0 0 0 0 0 0 0 0 0.3 0"/>
<feBlend mode="normal" in2="shape" result="effect1_innerShadow_185_29522"/>
<feColorMatrix in="SourceAlpha" type="matrix" values="0 0 0 0 0 0 0 0 0 0 0 0 0 0 0 0 0 0 127 0" result="hardAlpha"/>
<feOffset dy="2"/>
<feGaussianBlur stdDeviation="0.5"/>
<feComposite in2="hardAlpha" operator="arithmetic" k2="-1" k3="1"/>
<feColorMatrix type="matrix" values="0 0 0 0 1 0 0 0 0 1 0 0 0 0 1 0 0 0 0.3 0"/>
<feBlend mode="normal" in2="effect1_innerShadow_185_29522" result="effect2_innerShadow_185_29522"/>
</filter>
<filter id="filter1_dd_185_29522" x="20.25" y="3.3999" width="14.5" height="42.3701" filterUnits="userSpaceOnUse" color-interpolation-filters="sRGB">
<feFlood flood-opacity="0" result="BackgroundImageFix"/>
<feColorMatrix in="SourceAlpha" type="matrix" values="0 0 0 0 0 0 0 0 0 0 0 0 0 0 0 0 0 0 127 0" result="hardAlpha"/>
<feOffset dx="4" dy="6"/>
<feGaussianBlur stdDeviation="2"/>
<feColorMatrix type="matrix" values="0 0 0 0 0 0 0 0 0 0 0 0 0 0 0 0 0 0 0.1 0"/>
<feBlend mode="normal" in2="BackgroundImageFix" result="effect1_dropShadow_185_29522"/>
<feColorMatrix in="SourceAlpha" type="matrix" values="0 0 0 0 0 0 0 0 0 0 0 0 0 0 0 0 0 0 127 0" result="hardAlpha"/>
<feOffset/>
<feGaussianBlur stdDeviation="0.5"/>
<feColorMatrix type="matrix" values="0 0 0 0 0 0 0 0 0 0 0 0 0 0 0 0 0 0 0.4 0"/>
<feBlend mode="normal" in2="effect1_dropShadow_185_29522" result="effect2_dropShadow_185_29522"/>
<feBlend mode="normal" in="SourceGraphic" in2="effect2_dropShadow_185_29522" result="shape"/>
</filter>
<linearGradient id="paint0_linear_185_29522" x1="33.168" y1="11.0313" x2="42.2305" y2="20.0938" gradientUnits="userSpaceOnUse">
<stop stop-opacity="0.2"/>
<stop offset="1" stop-opacity="0"/>
</linearGradient>
</defs>
</svg>
