<svg width="52" height="52" viewBox="0 0 52 52" fill="none" xmlns="http://www.w3.org/2000/svg">
<path d="M51.6788 26C51.6788 40.182 40.182 51.6788 26 51.6788C11.818 51.6788 0.321151 40.182 0.321151 26C0.321151 11.818 11.818 0.321151 26 0.321151C40.182 0.321151 51.6788 11.818 51.6788 26Z" fill="#F9FAFB" stroke="#E5E7EB" stroke-width="0.642301"/>
<mask id="path-2-inside-1_3749_245276" fill="white">
<path d="M26.2064 36.6913L27.9876 34.9752L27.1295 34.0854L26.272 34.9114L25.349 35.8011L26.2064 36.6913Z"/>
</mask>
<path d="M26.2064 36.6913L27.9876 34.9752L27.1295 34.0854L26.272 34.9114L25.349 35.8011L26.2064 36.6913Z" fill="#08979C"/>
<path d="M26.2064 36.6913L25.246 37.6162L26.1711 38.5768L27.1315 37.6515L26.2064 36.6913ZM27.9876 34.9752L28.9127 35.9354L29.8733 35.0098L28.9473 34.0496L27.9876 34.9752ZM27.1295 34.0854L28.0893 33.1599L27.1643 32.2007L26.2046 33.1251L27.1295 34.0854ZM26.272 34.9114L25.347 33.9511L25.3467 33.9514L26.272 34.9114ZM25.349 35.8011L24.4237 34.8411L23.4641 35.766L24.3886 36.726L25.349 35.8011ZM27.1315 37.6515L28.9127 35.9354L27.0625 34.015L25.2813 35.7311L27.1315 37.6515ZM28.9473 34.0496L28.0893 33.1599L26.1698 35.011L27.0278 35.9007L28.9473 34.0496ZM26.2046 33.1251L25.347 33.9511L27.1969 35.8718L28.0545 35.0458L26.2046 33.1251ZM25.3467 33.9514L24.4237 34.8411L26.2743 36.7611L27.1973 35.8714L25.3467 33.9514ZM24.3886 36.726L25.246 37.6162L27.1668 35.7664L26.3094 34.8761L24.3886 36.726Z" fill="#08979C" mask="url(#path-2-inside-1_3749_245276)"/>
<path d="M24.4857 33.9319C24.4807 33.9248 24.4758 33.9175 24.4712 33.9102L24.4584 33.89L24.4608 33.8885C24.4454 33.8638 24.4319 33.8371 24.4205 33.8088C24.3702 33.674 24.3728 33.5248 24.4279 33.3916L24.4392 33.3643C24.4487 33.346 24.4592 33.328 24.4707 33.3104L24.4707 33.3104L24.4726 33.3073C24.4835 33.2905 24.4923 33.2754 24.4988 33.2638C24.5173 33.2398 24.5374 33.2172 24.5591 33.1962L24.095 32.7176L24.5588 33.1964C24.664 33.0945 24.8047 33.0377 24.9512 33.038V33.038H24.9526H24.9696C25.1019 33.0409 25.2286 33.0902 25.3277 33.1765C25.3376 33.1851 25.3472 33.1941 25.3565 33.2034L25.3628 33.2099L25.7918 33.6551L24.4922 34.9077L24.9713 34.4459L24.5429 34.0014C24.5428 34.0013 24.5427 34.0012 24.5426 34.0011C24.5313 33.9893 24.5205 33.9771 24.5102 33.9644M24.4857 33.9319C24.4896 33.9393 24.4929 33.9458 24.4956 33.9512C24.4993 33.9588 24.5024 33.9653 24.5045 33.9699L24.5102 33.9644M24.4857 33.9319C24.4935 33.943 24.5016 33.9538 24.5102 33.9644M24.4857 33.9319C24.478 33.9174 24.4678 33.8994 24.4551 33.8796L24.4527 33.8811M24.5102 33.9644L23.9084 34.0081L24.4116 33.8164L24.4527 33.8811M24.4527 33.8811L23.9084 34.2305L23.9082 34.2306" fill="#08979C" stroke="#08979C" stroke-width="1.33333"/>
<path d="M24.3824 37.5409L24.7976 37.9718H24.3824V37.5409Z" fill="#08979C" stroke="#08979C" stroke-width="1.33333"/>
<path d="M30.5149 40.2003L28.0077 37.5991L28.8281 36.8087L31.3353 39.4098L30.8925 39.8367L30.8923 39.8369L30.5149 40.2003Z" fill="#08979C" stroke="#08979C" stroke-width="1.33333"/>
<mask id="path-7-inside-2_3749_245276" fill="white">
<path d="M13.824 31.7531V34.3144C13.824 35.2721 14.3903 36.0807 15.0605 36.0807H16.2969C16.9671 36.0807 17.5334 35.2721 17.5334 34.3144V31.7531H16.2969V34.8442H15.0605V31.7531H13.824Z"/>
</mask>
<path d="M13.824 31.7531V34.3144C13.824 35.2721 14.3903 36.0807 15.0605 36.0807H16.2969C16.9671 36.0807 17.5334 35.2721 17.5334 34.3144V31.7531H16.2969V34.8442H15.0605V31.7531H13.824Z" fill="#08979C"/>
<path d="M13.824 31.7531V30.4197H12.4906V31.7531H13.824ZM17.5334 31.7531H18.8667V30.4197H17.5334V31.7531ZM16.2969 31.7531V30.4197H14.9636V31.7531H16.2969ZM16.2969 34.8442V36.1776H17.6303V34.8442H16.2969ZM15.0605 34.8442H13.7271V36.1776H15.0605V34.8442ZM15.0605 31.7531H16.3938V30.4197H15.0605V31.7531ZM12.4906 31.7531V34.3144H15.1573V31.7531H12.4906ZM12.4906 34.3144C12.4906 35.0438 12.7037 35.7573 13.0987 36.3214C13.4849 36.8731 14.1558 37.4141 15.0605 37.4141V34.7474C15.2949 34.7474 15.3476 34.8841 15.2831 34.792C15.2274 34.7124 15.1573 34.5427 15.1573 34.3144H12.4906ZM15.0605 37.4141H16.2969V34.7474H15.0605V37.4141ZM16.2969 37.4141C17.2016 37.4141 17.8725 36.8731 18.2587 36.3214C18.6537 35.7573 18.8667 35.0438 18.8667 34.3144H16.2001C16.2001 34.5427 16.1299 34.7124 16.0742 34.792C16.0097 34.8841 16.0624 34.7474 16.2969 34.7474V37.4141ZM18.8667 34.3144V31.7531H16.2001V34.3144H18.8667ZM17.5334 30.4197H16.2969V33.0864H17.5334V30.4197ZM14.9636 31.7531V34.8442H17.6303V31.7531H14.9636ZM16.2969 33.5109H15.0605V36.1776H16.2969V33.5109ZM16.3938 34.8442V31.7531H13.7271V34.8442H16.3938ZM15.0605 30.4197H13.824V33.0864H15.0605V30.4197Z" fill="#08979C" mask="url(#path-7-inside-2_3749_245276)"/>
<mask id="path-9-inside-3_3749_245276" fill="white">
<path d="M31.6305 41.7668L33.4314 42.4042L32.8608 40.5811L31.6305 41.7668Z"/>
</mask>
<path d="M31.6305 41.7668L33.4314 42.4042L32.8608 40.5811L31.6305 41.7668Z" fill="#08979C"/>
<path d="M31.6305 41.7668L30.7052 40.8068L29.1519 42.3039L31.1856 43.0237L31.6305 41.7668ZM33.4314 42.4042L32.9865 43.6611L35.5003 44.5509L34.7038 42.006L33.4314 42.4042ZM32.8608 40.5811L34.1332 40.1828L33.4889 38.1239L31.9355 39.621L32.8608 40.5811ZM31.1856 43.0237L32.9865 43.6611L33.8763 41.1473L32.0754 40.5099L31.1856 43.0237ZM34.7038 42.006L34.1332 40.1828L31.5883 40.9793L32.1589 42.8025L34.7038 42.006ZM31.9355 39.621L30.7052 40.8068L32.5558 42.7268L33.786 41.5411L31.9355 39.621Z" fill="#08979C" mask="url(#path-9-inside-3_3749_245276)"/>
<path d="M40.4566 35.5955H40.5878L40.4566 35.7393V35.5955Z" fill="#08979C" stroke="#08979C" stroke-width="1.33333"/>
<path d="M19.3881 42.2146H11.9692C11.3031 42.2146 10.6738 42.0673 10.2329 41.7736C9.98042 41.6055 9.77636 41.3826 9.65781 41.075H21.6995C21.581 41.3826 21.3769 41.6055 21.1245 41.7736C20.6836 42.0673 20.0543 42.2146 19.3881 42.2146Z" fill="#08979C" stroke="#08979C" stroke-width="1.33333"/>
<path d="M34.9811 17.7229C34.9246 17.679 34.871 17.6319 34.8204 17.5819H37.341C37.2904 17.6319 37.2368 17.679 37.1803 17.7229L37.1802 17.723C36.8657 17.9675 36.4791 18.1013 36.0807 18.1033C35.6823 18.1012 35.2957 17.9675 34.9812 17.723L34.9811 17.7229Z" fill="#08979C" stroke="#08979C" stroke-width="1.33333"/>
<path d="M36.0797 20.673L36.079 20.673C34.9185 20.673 33.8053 20.212 32.9846 19.3913L32.9846 19.3913C32.1639 18.5706 31.7029 17.4575 31.7029 16.2969C31.7029 15.1364 32.1639 14.0232 32.9846 13.2025L32.9846 13.2025C33.8053 12.3818 34.9185 11.9208 36.079 11.9208C37.2396 11.9208 38.3527 12.3818 39.1734 13.2025L39.1734 13.2025C39.9942 14.0232 40.4551 15.1364 40.4551 16.2969V16.2976C40.4539 17.4576 39.9927 18.5698 39.1723 19.3901C39.1723 19.3902 39.1723 19.3902 39.1723 19.3902M36.0797 20.673L36.079 20.0064C37.0625 20.0053 38.0055 19.6143 38.7009 18.9188L39.1723 19.3902M36.0797 20.673C37.2397 20.6718 38.352 20.2106 39.1723 19.3902M36.0797 20.673L39.1723 19.3902M40.5747 17.2191L40.5743 17.2214L40.4853 17.6617L40.3903 18.1314L40.8054 18.3711L42.21 19.1821L41.6415 20.1666L40.2281 19.3506L39.8115 19.1101L39.4519 19.4296L39.1187 19.7258L39.1177 19.7267C38.6561 20.1386 38.1151 20.452 37.5279 20.6474L37.5277 20.6475L37.1048 20.7884L36.6489 20.9403V21.4209V23.0492H35.5093V21.4209V20.9403L35.0534 20.7884L34.6306 20.6475L34.6303 20.6474C34.0432 20.452 33.5022 20.1386 33.0405 19.7267L33.0395 19.7258L32.7063 19.4296L32.3467 19.1101L31.9301 19.3506L30.5167 20.1666L29.9469 19.1797L31.3528 18.368L31.7685 18.128L31.6728 17.6576L31.5838 17.2206C31.5838 17.2206 31.5838 17.2205 31.5838 17.2205C31.4598 16.611 31.4598 15.9828 31.5838 15.3734C31.5838 15.3734 31.5838 15.3733 31.5838 15.3733L31.6728 14.9362L31.7685 14.4659L31.3528 14.2259L29.9469 13.4142L30.5167 12.4273L31.9301 13.2433L32.3467 13.4838L32.7063 13.1642L33.0395 12.8681L33.0405 12.8672C33.5022 12.4553 34.0432 12.1419 34.6303 11.9465L34.6306 11.9464L35.0534 11.8055L35.5093 11.6536V11.173V9.54472H36.6489V11.173V11.6536L37.1048 11.8055L37.5276 11.9464C38.1151 12.1422 38.6564 12.4558 39.1184 12.868L39.3081 13.0371H39.3093L39.4532 13.1647L39.8128 13.4836L40.2289 13.2432L41.6417 12.4274L42.2114 13.4142L40.8012 14.2283L40.3853 14.4684L40.4812 14.9389L40.5702 15.3754L40.5702 15.3754L40.571 15.3791C40.6983 15.9858 40.6996 16.6121 40.5747 17.2191Z" fill="#08979C" stroke="#08979C" stroke-width="1.33333"/>
<path d="M10.4371 33.312L10.437 33.3121C9.86648 33.8825 9.54564 34.656 9.54472 35.4628V38.5052H21.8126L21.8126 35.4632L21.8126 35.4625M10.4371 33.312L21.3917 32.8406C22.0872 33.536 22.4783 34.479 22.4793 35.4625H21.8126M10.4371 33.312C10.8476 32.9014 11.3632 32.6202 11.9208 32.4944M10.4371 33.312L11.9208 32.4944M21.8126 35.4625C21.8116 34.6557 21.4908 33.8824 20.9204 33.3121L20.9203 33.312C20.5098 32.9014 19.9941 32.6202 19.4365 32.4944V34.3144C19.4365 36.2113 18.1442 37.9839 16.2969 37.9839H15.0604C13.2131 37.9839 11.9208 36.2113 11.9208 34.3144V32.4944M21.8126 35.4625L11.9208 32.4944" fill="#08979C" stroke="#08979C" stroke-width="1.33333"/>
<path d="M37.1805 14.8712C37.237 14.9151 37.2906 14.9622 37.3412 15.0121H34.8204C34.871 14.9622 34.9246 14.9151 34.9811 14.8712L34.9812 14.8711C35.2957 14.6266 35.6824 14.4928 36.0808 14.4908C36.4792 14.4928 36.8659 14.6266 37.1804 14.8711L37.1805 14.8712Z" fill="#08979C" stroke="#08979C" stroke-width="1.33333"/>
<path d="M42.0071 23.3438L42.2147 23.4637V33.0261H38.5537H37.8871V33.6928V37.972H33.5203L29.7892 34.1L29.7892 34.0999L28.7656 33.0379H29.2798H29.8496H29.9465H30.5163H31.7527H32.3226H32.4194H32.9892H34.2257H34.7955H34.8924H35.4622H36.6987H37.3653V32.3713V31.1348V30.565V30.4681V29.8983V28.6619V28.092V27.9952V27.4254V26.1889V25.6192H38.5534H39.22V24.9525V22.7251C39.517 22.5801 39.8035 22.4146 40.0774 22.2296L42.0071 23.3438ZM27.3766 31.5992L27.2138 31.4305C27.2135 31.4303 27.2133 31.43 27.213 31.4298C26.5037 30.6916 25.4782 30.3468 24.4668 30.5064L24.4668 30.5064C23.7756 30.6156 23.1508 30.9509 22.6816 31.4461C21.6446 30.4325 20.2441 29.8515 18.7705 29.85H18.7699H17.5817V29.2801V28.0436V27.4738V27.3769V26.8071V25.5707V25.0008V24.904V24.3342V23.0977V22.5279H18.1515H19.388H19.9578H20.0546H20.6245H21.8609H22.4307H22.5276H23.0974H24.3339H24.9037H25.0005H25.5704H26.8068H27.4735V21.8612V20.6248V20.0336L29.2428 23.098L29.5761 23.6753L30.1534 23.342L32.083 22.228C32.357 22.4134 32.6436 22.5794 32.9408 22.7247V24.9525V25.6192H33.6075H34.7955V26.1889V27.4254V27.9952V28.092V28.6619V29.8983V30.4681H34.2257H32.9892H32.4194H32.3226H31.7527H30.5163H29.9465H29.8496H29.2798H28.0433H27.3766V31.1348V31.5992ZM15.0119 29.85H12.6359V17.5802H27.5751L27.0139 17.904L26.4364 18.2373L26.7698 18.8148L27.4299 19.9581H26.8068H25.5704H25.0005H24.9037H24.3339H23.0974H22.5276H22.4307H21.8609H20.6245H20.0546H19.9578H19.388H18.1515H17.5817H17.4848H16.915H15.6785H15.0119V20.6248V21.8612V22.431V22.5279V23.0977V24.3342V24.904V25.0008V25.5707V26.8071V27.3769V27.4738V28.0436V29.2801V29.85ZM24.9521 29.9468H25.6188V29.2801V28.0436V27.3769H24.9521H23.7156H23.049V28.0436V29.2801V29.9468H23.7156H24.9521Z" fill="#08979C" stroke="#08979C" stroke-width="1.33333"/>
<mask id="path-18-inside-4_3749_245276" fill="white">
<path d="M42.5134 17.1569L42.8794 17.3678V16.9152H42.5295C42.5221 16.9955 42.5239 17.0766 42.5134 17.1569Z"/>
</mask>
<path d="M42.5134 17.1569L42.8794 17.3678V16.9152H42.5295C42.5221 16.9955 42.5239 17.0766 42.5134 17.1569Z" fill="#08979C"/>
<path d="M42.5134 17.1569L41.1914 16.9832L41.0752 17.8673L41.8479 18.3123L42.5134 17.1569ZM42.8794 17.3678L42.214 18.5232L44.2128 19.6744V17.3678H42.8794ZM42.8794 16.9152H44.2128V15.5818H42.8794V16.9152ZM42.5295 16.9152V15.5818H41.3124L41.2017 16.7939L42.5295 16.9152ZM41.8479 18.3123L42.214 18.5232L43.5449 16.2124L43.1788 16.0015L41.8479 18.3123ZM44.2128 17.3678V16.9152H41.5461V17.3678H44.2128ZM42.8794 15.5818H42.5295V18.2485H42.8794V15.5818ZM41.2017 16.7939C41.1976 16.8383 41.1953 16.8777 41.1938 16.9074C41.1924 16.9334 41.1911 16.9657 41.1906 16.9769C41.189 17.014 41.1886 17.0046 41.1914 16.9832L43.8353 17.3307C43.8487 17.2289 43.8527 17.1388 43.8547 17.0952C43.856 17.066 43.8562 17.058 43.857 17.0436C43.8575 17.0331 43.8577 17.0322 43.8573 17.0365L41.2017 16.7939Z" fill="#08979C" mask="url(#path-18-inside-4_3749_245276)"/>
</svg>
