<svg width="52" height="52" viewBox="0 0 52 52" fill="none" xmlns="http://www.w3.org/2000/svg">
<rect width="52" height="52" rx="26" fill="#E6F5F5"/>
<path d="M36.2433 17.7363C33.8834 17.7363 31.9904 19.6294 31.9904 21.9893C31.9904 24.3492 33.8834 26.2422 36.2433 26.2422C38.6032 26.2422 40.4963 24.3492 40.4963 21.9893C40.4963 19.6553 38.5773 17.7363 36.2433 17.7363ZM36.2433 24.5566C34.843 24.5566 33.7019 23.4156 33.7019 22.0152C33.7019 20.6149 34.843 19.4738 36.2433 19.4738C37.6437 19.4738 38.7847 20.6149 38.7847 22.0152C38.7847 23.4156 37.6437 24.5566 36.2433 24.5566Z" fill="#08979C"/>
<path d="M36.2435 19.7587C34.9987 19.7587 34.0133 20.77 34.0133 21.9889C34.0133 23.2077 35.0247 24.2191 36.2435 24.2191C37.4883 24.2191 38.4737 23.2077 38.4737 21.9889C38.4737 20.77 37.4883 19.7587 36.2435 19.7587ZM36.2435 23.2336C35.5693 23.2336 35.0247 22.6891 35.0247 22.0148C35.0247 21.3406 35.5693 20.796 36.2435 20.796C36.9178 20.796 37.4624 21.3406 37.4624 22.0148C37.4624 22.6631 36.9178 23.2336 36.2435 23.2336Z" fill="#08979C"/>
<path d="M24.0318 26.3977C19.3639 26.3977 15.5778 30.1839 15.5778 34.8518C15.5778 39.5196 19.3639 43.3058 24.0318 43.3058C28.6997 43.3058 32.4859 39.5196 32.4859 34.8518C32.4859 30.1839 28.7256 26.3977 24.0318 26.3977ZM24.0318 41.0756C20.6087 41.0756 17.8339 38.3008 17.8339 34.8777C17.8339 31.4546 20.6087 28.6798 24.0318 28.6798C27.4549 28.6798 30.2297 31.4546 30.2297 34.8777C30.2297 38.3008 27.4549 41.0756 24.0318 41.0756Z" fill="#08979C"/>
<path d="M24.0321 28.9648C20.7905 28.9648 18.1454 31.61 18.1454 34.8516C18.1454 38.0932 20.7905 40.7383 24.0321 40.7383C27.2737 40.7383 29.9188 38.0932 29.9188 34.8516C29.9448 31.61 27.2996 28.9648 24.0321 28.9648ZM24.0321 40.4271C20.972 40.4271 18.4825 37.9376 18.4825 34.8775C18.4825 31.8174 20.972 29.3279 24.0321 29.3279C27.0922 29.3279 29.5817 31.8174 29.5817 34.8775C29.6076 37.9376 27.1181 40.4271 24.0321 40.4271Z" fill="#08979C"/>
<path d="M24.0322 36.771C25.0778 36.771 25.9253 35.9234 25.9253 34.8779C25.9253 33.8324 25.0778 32.9848 24.0322 32.9848C22.9867 32.9848 22.1392 33.8324 22.1392 34.8779C22.1392 35.9234 22.9867 36.771 24.0322 36.771Z" fill="#08979C"/>
<path d="M24.0339 29.7169C21.1813 29.7169 18.8733 32.0249 18.8733 34.8775C18.8733 37.7301 21.1813 40.0381 24.0339 40.0381C26.8865 40.0381 29.1945 37.7301 29.1945 34.8775C29.1945 32.0249 26.8865 29.7169 24.0339 29.7169ZM26.0826 31.7915C26.3678 31.5063 26.8346 31.5063 27.1199 31.7915C27.4051 32.0768 27.4051 32.5436 27.1199 32.8288C26.8346 33.1141 26.3678 33.1141 26.0826 32.8288C25.7973 32.5436 25.7973 32.0768 26.0826 31.7915ZM24.0339 30.5208C24.4229 30.5208 24.76 30.858 24.76 31.2469C24.76 31.6359 24.4229 31.9731 24.0339 31.9731C23.6449 31.9731 23.3078 31.6359 23.3078 31.2469C23.3078 30.858 23.6449 30.5208 24.0339 30.5208ZM20.9738 31.7915C21.2591 31.5063 21.7259 31.5063 22.0111 31.7915C22.2964 32.0768 22.2964 32.5436 22.0111 32.8288C21.7259 33.1141 21.2591 33.1141 20.9738 32.8288C20.6886 32.5436 20.6886 32.0768 20.9738 31.7915ZM19.7031 34.8775C19.7031 34.4885 20.0403 34.1514 20.4293 34.1514C20.8182 34.1514 21.1554 34.4885 21.1554 34.8775C21.1554 35.2665 20.8182 35.6036 20.4293 35.6036C20.0403 35.6036 19.7031 35.2665 19.7031 34.8775ZM21.9852 37.9376C21.7 38.2228 21.2332 38.2228 20.9479 37.9376C20.6626 37.6523 20.6626 37.1855 20.9479 36.9003C21.2332 36.615 21.7 36.615 21.9852 36.9003C22.2705 37.2115 22.2705 37.6523 21.9852 37.9376ZM24.0339 39.2083C23.6449 39.2083 23.3078 38.8712 23.3078 38.4822C23.3078 38.0932 23.6449 37.7561 24.0339 37.7561C24.4229 37.7561 24.76 38.0932 24.76 38.4822C24.76 38.8712 24.4488 39.2083 24.0339 39.2083ZM24.0339 37.0559C22.8151 37.0559 21.8296 36.0704 21.8296 34.8516C21.8296 33.6328 22.8151 32.6473 24.0339 32.6473C25.2527 32.6473 26.2382 33.6328 26.2382 34.8516C26.2382 36.0704 25.2527 37.0559 24.0339 37.0559ZM27.1199 37.9376C26.8346 38.2228 26.3678 38.2228 26.0826 37.9376C25.7973 37.6523 25.7973 37.1855 26.0826 36.9003C26.3678 36.615 26.8346 36.615 27.1199 36.9003C27.4051 37.1855 27.4051 37.6523 27.1199 37.9376ZM27.6645 35.6036C27.2755 35.6036 26.9384 35.2665 26.9384 34.8775C26.9384 34.4885 27.2755 34.1514 27.6645 34.1514C28.0535 34.1514 28.3906 34.4885 28.3906 34.8775C28.3906 35.2665 28.0535 35.6036 27.6645 35.6036Z" fill="#08979C"/>
<path d="M37.8755 26.5793C37.3569 26.7867 36.7864 26.9164 36.1899 26.9423L33.0261 32.7513C33.1817 33.4514 33.2854 34.1516 33.2854 34.9037C33.2854 34.9296 33.2854 34.9815 33.2854 35.0074L37.8755 26.5793Z" fill="#08979C"/>
<path d="M17.2596 8.55646C14.1218 8.55646 11.5544 11.0979 11.5544 14.2616C11.5544 17.3995 14.0958 19.9668 17.2596 19.9668C20.3975 19.9668 22.9648 17.4254 22.9648 14.2616C22.9648 11.0979 20.4234 8.55646 17.2596 8.55646ZM17.2596 18.4627C14.9516 18.4627 13.0585 16.5697 13.0585 14.2616C13.0585 11.9536 14.9516 10.0606 17.2596 10.0606C19.5676 10.0606 21.4607 11.9536 21.4607 14.2616C21.4607 16.5697 19.5936 18.4627 17.2596 18.4627Z" fill="#08979C"/>
<path d="M17.2598 10.32C15.0814 10.32 13.318 12.0834 13.318 14.2618C13.318 16.4401 15.0814 18.2035 17.2598 18.2035C19.4381 18.2035 21.2015 16.4401 21.2015 14.2618C21.2015 12.0834 19.4381 10.32 17.2598 10.32ZM17.2598 17.9961C15.1851 17.9961 13.4995 16.3105 13.4995 14.2358C13.4995 12.1612 15.1851 10.5015 17.2598 10.5015C19.3344 10.5015 21.02 12.1872 21.02 14.2618C21.02 16.3364 19.3344 17.9961 17.2598 17.9961Z" fill="#08979C"/>
<path d="M17.2599 15.5836C17.9904 15.5836 18.5825 14.9915 18.5825 14.261C18.5825 13.5306 17.9904 12.9385 17.2599 12.9385C16.5295 12.9385 15.9374 13.5306 15.9374 14.261C15.9374 14.9915 16.5295 15.5836 17.2599 15.5836Z" fill="#08979C"/>
<path d="M17.2607 10.6832C15.2898 10.6832 13.7079 12.2911 13.7079 14.236C13.7079 16.181 15.3157 17.7888 17.2607 17.7888C19.2056 17.7888 20.8134 16.181 20.8134 14.236C20.8134 12.2911 19.2316 10.6832 17.2607 10.6832ZM17.2607 11.2278C17.5459 11.2278 17.7793 11.4612 17.7793 11.7465C17.7793 12.0317 17.5459 12.2651 17.2607 12.2651C16.9754 12.2651 16.742 12.0317 16.742 11.7465C16.742 11.4612 16.9754 11.2278 17.2607 11.2278ZM14.7711 14.7806C14.4859 14.7806 14.2525 14.5472 14.2525 14.2619C14.2525 13.9767 14.4859 13.7433 14.7711 13.7433C15.0564 13.7433 15.2898 13.9767 15.2898 14.2619C15.2898 14.5472 15.0564 14.7806 14.7711 14.7806ZM17.2607 17.2701C16.9754 17.2701 16.742 17.0367 16.742 16.7515C16.742 16.4662 16.9754 16.2328 17.2607 16.2328C17.5459 16.2328 17.7793 16.4662 17.7793 16.7515C17.7793 17.0367 17.5459 17.2701 17.2607 17.2701ZM17.2607 15.7401C16.4308 15.7401 15.7566 15.0659 15.7566 14.236C15.7566 13.4062 16.4308 12.7319 17.2607 12.7319C18.0905 12.7319 18.7648 13.4062 18.7648 14.236C18.7648 15.0659 18.0905 15.7401 17.2607 15.7401ZM19.7502 14.7806C19.4649 14.7806 19.2315 14.5472 19.2315 14.2619C19.2315 13.9767 19.4649 13.7433 19.7502 13.7433C20.0355 13.7433 20.2689 13.9767 20.2689 14.2619C20.2948 14.5472 20.0614 14.7806 19.7502 14.7806Z" fill="#08979C"/>
<path d="M22.8879 11.3052C23.2251 11.8498 23.4585 12.4462 23.6141 13.0945L33.5981 17.7624C34.0909 17.4512 34.6614 17.2178 35.2578 17.0882L22.8879 11.3052Z" fill="#08979C"/>
<path d="M12.306 18.0472L15.1327 32.7251C15.3142 31.8953 15.6254 31.1173 16.0144 30.4171L13.9398 19.5254C13.3174 19.1364 12.7469 18.6437 12.306 18.0472Z" fill="#08979C"/>
<path d="M17.2612 7C13.2416 7 10 10.2416 10 14.2612C10 14.339 10.0519 14.3908 10.1297 14.3908C10.2075 14.3908 10.2593 14.339 10.2593 14.2612C10.2593 10.3972 13.3972 7.25933 17.2612 7.25933C17.339 7.25933 17.3908 7.20746 17.3908 7.12966C17.3908 7.05187 17.339 7 17.2612 7Z" fill="#08979C"/>
<path d="M24.0836 44.6026H24.0576C18.6636 44.6026 14.3069 40.22 14.3069 34.852C14.3069 34.7742 14.2551 34.7223 14.1773 34.7223C14.0995 34.7223 14.0476 34.7742 14.0476 34.852C14.0476 40.4015 18.534 44.8879 24.0836 44.8879H24.1095C24.1873 44.8879 24.2392 44.836 24.2392 44.7582C24.2392 44.6804 24.1614 44.6026 24.0836 44.6026Z" fill="#08979C"/>
<path d="M36.1134 16.0506C36.0356 16.0506 35.9838 16.1025 35.9838 16.1803C35.9838 16.2581 36.0356 16.3099 36.1134 16.3099C39.2254 16.3099 41.7408 18.8254 41.7408 21.9373C41.7408 22.0151 41.7927 22.067 41.8705 22.067C41.9483 22.067 42.0001 22.0151 42.0001 21.9373C42.0001 18.6698 39.355 16.0506 36.1134 16.0506Z" fill="#08979C"/>
</svg>
