<svg width="52" height="52" viewBox="0 0 52 52" fill="none" xmlns="http://www.w3.org/2000/svg">
<rect x="0.5" y="0.5" width="51" height="51" rx="25.5" fill="#F9FAFB"/>
<rect x="0.5" y="0.5" width="51" height="51" rx="25.5" stroke="#E5E7EB"/>
<mask id="path-2-inside-1_3635_224372" fill="white">
<path d="M41.9722 20.1237C41.9707 19.9778 41.9029 19.8406 41.7881 19.7506C41.6732 19.6606 41.5238 19.6278 41.3817 19.6612L38.6718 20.2995H38.6719C37.8196 20.5248 37.0623 21.0186 36.5125 21.7078C35.9626 22.3969 35.6492 23.2448 35.6188 24.1259L35.6216 24.3818C35.465 24.0846 35.2964 23.7934 35.1155 23.5079L35.1124 23.503H35.1123C34.0118 21.7678 32.497 20.3335 30.7041 19.3295L31.5588 16.7811C31.8422 15.8548 31.8198 14.8619 31.4948 13.9492C31.1699 13.0366 30.5598 12.253 29.7547 11.7142L27.0417 10.0694C26.917 9.99397 26.7647 9.97916 26.6278 10.0292C26.4909 10.0794 26.3841 10.1889 26.3377 10.3272L25.3522 13.2636H25.3523C25.1072 14.078 25.0943 14.9446 25.3149 15.766C25.5355 16.5874 25.981 17.3309 26.6012 17.9129C26.3344 17.8709 26.0657 17.838 25.7951 17.814L22.4999 16.8222C20.4556 16.2071 17.9583 17.1861 16.9325 19.0046L15.1773 22.1157L15.1774 22.1156C15.1057 22.2426 15.0956 22.3954 15.15 22.5307C15.2044 22.6659 15.3174 22.7693 15.4571 22.8112L17.674 23.4785C17.1015 24.0792 16.609 24.7511 16.2086 25.4778C15.8228 25.6901 15.4777 25.969 15.1893 26.3017C14.2591 25.253 13.0692 24.886 11.9138 25.323V25.3229C11.2867 25.5717 10.7605 26.0226 10.4185 26.6041C10.0764 27.1857 9.93818 27.8647 10.0255 28.5337C10.2625 30.3815 11.7059 31.5615 12.9794 32.6026H12.9793C13.66 33.1035 14.2705 33.6931 14.7947 34.356C14.8842 34.486 15.032 34.5636 15.1898 34.5636C15.3477 34.5636 15.4954 34.486 15.585 34.356C15.662 34.245 15.7447 34.138 15.8326 34.0355C16.5368 35.6351 17.6623 37.0135 19.0887 38.0236C20.515 39.0337 22.1887 39.6378 23.9314 39.7713C25.6741 39.9048 27.4202 39.5626 28.9838 38.7815C30.5473 38.0004 31.8694 36.8095 32.8092 35.3358C33.749 33.8622 34.2712 32.161 34.3199 30.414C34.3688 28.6668 33.9424 26.9392 33.0864 25.4155L34.5545 24.4408V24.4409C35.9821 26.9266 36.4221 29.8587 35.7869 32.6538C35.1518 35.4491 33.488 37.903 31.1263 39.5277C28.7647 41.1525 25.8782 41.829 23.0405 41.4228C20.2028 41.0167 17.6219 39.5577 15.8109 37.3359C15.7014 37.2071 15.5321 37.1454 15.3654 37.1735C15.1986 37.2016 15.059 37.3152 14.9976 37.4728C14.9362 37.6304 14.9622 37.8085 15.066 37.942C16.8315 40.1122 19.2802 41.6202 22.0127 42.2196C24.7453 42.8194 27.6004 42.4754 30.1124 41.2439C32.6243 40.0124 34.6448 37.9662 35.8445 35.4387C37.0441 32.9114 37.3519 30.0522 36.7177 27.3272L38.9472 26.8028V26.8029C39.7997 26.5775 40.5569 26.0837 41.1068 25.3943C41.6566 24.7051 41.9698 23.857 42 22.9758L41.9722 20.1237ZM25.9658 18.7982C27.6504 18.9871 29.2712 19.551 30.7094 20.4485C29.7971 20.3452 28.8769 20.5569 28.1016 21.0487L28.0407 21.0889H28.0408C27.0699 20.7265 26.0466 20.524 25.0108 20.489L25.9658 18.7982ZM15.1898 33.3116C14.6938 32.7869 14.158 32.3014 13.587 31.8594C12.3984 30.8862 11.1663 29.8802 10.9779 28.4115C10.9167 27.9566 11.0089 27.4944 11.24 27.0978C11.471 26.7013 11.8279 26.3932 12.2538 26.2222C12.451 26.1464 12.6603 26.1072 12.8715 26.1065C13.5632 26.1065 14.2397 26.5389 14.7923 27.3555C14.8817 27.4874 15.0307 27.5664 15.1899 27.5664C15.3493 27.5664 15.4982 27.4874 15.5876 27.3555C16.3042 26.2966 17.2305 25.8838 18.1259 26.2221V26.2223C18.5518 26.3932 18.9085 26.7013 19.1396 27.0978C19.3708 27.4944 19.463 27.9566 19.4018 28.4115C19.2137 29.8797 17.9829 30.8861 16.793 31.8595C16.222 32.3015 15.686 32.787 15.1898 33.3116ZM20.0488 33.4127C19.9596 34.238 19.6856 34.8603 19.2773 35.1643C19.1333 35.272 18.6718 35.5758 18.1555 35.8985V35.8983C17.4765 35.1332 16.9385 34.2537 16.5668 33.3007C16.8286 33.0689 17.1107 32.8379 17.3995 32.6016C18.1023 32.0647 18.7489 31.4581 19.3294 30.7909C19.4591 30.8377 19.5992 30.8957 19.7507 30.9691C20.0601 31.744 20.1631 32.5859 20.0499 33.4125L20.0488 33.4127ZM21.6834 27.0155C21.5185 25.2837 20.7322 24.9416 19.822 24.5452L19.8219 24.545C19.3957 24.3725 18.9875 24.1584 18.6034 23.9056C18.6419 23.8682 18.6821 23.8319 18.7212 23.7952L18.796 23.8175C19.2122 23.9411 19.6443 24.003 20.0785 24.0014C21.7914 24.0014 23.5455 23.0853 24.363 21.6352L24.4704 21.445C24.5358 21.445 24.6008 21.4425 24.6658 21.4425C25.4616 21.4418 26.2536 21.5503 27.0198 21.7652L25.7812 22.5874C25.6597 22.668 25.5814 22.7994 25.5684 22.9447C25.5554 23.0899 25.6091 23.2332 25.7145 23.3341L27.7742 25.307H27.7741C28.293 25.7871 28.9374 26.1103 29.6325 26.239C29.6192 26.2625 29.6062 26.2858 29.5926 26.3089V26.3088C29.341 26.7679 29.0461 27.2021 28.712 27.6051C28.067 28.409 25.9567 29.2222 25.0975 29.2375C23.8303 29.2605 22.9619 29.254 22.4638 28.9698C22.1378 28.7845 21.8179 28.4189 21.6843 27.0154L21.6834 27.0155ZM24.6659 38.831V38.8307C24.3585 38.8303 24.0516 38.8137 23.7461 38.7808C23.6441 37.982 23.822 37.5706 24.3516 37.3161C25.215 36.9005 25.6898 35.6826 26.0715 34.7038C26.1739 34.4409 26.3015 34.1138 26.4106 33.8907H26.4105C26.5229 34.1308 26.6189 34.3782 26.6978 34.6314C26.7575 34.8244 26.7928 35.0239 26.8027 35.2257C26.7853 35.5305 26.9116 35.8259 27.1439 36.0241C27.4871 36.2689 27.9622 36.2041 29.129 35.9017C30.3441 35.5872 30.5699 35.6189 30.9398 36.1465H30.9399C30.1301 36.9949 29.1567 37.6701 28.0784 38.1313C27.0002 38.5926 25.8396 38.8303 24.6667 38.8301L24.6659 38.831Z"/>
</mask>
<path d="M41.9722 20.1237C41.9707 19.9778 41.9029 19.8406 41.7881 19.7506C41.6732 19.6606 41.5238 19.6278 41.3817 19.6612L38.6718 20.2995H38.6719C37.8196 20.5248 37.0623 21.0186 36.5125 21.7078C35.9626 22.3969 35.6492 23.2448 35.6188 24.1259L35.6216 24.3818C35.465 24.0846 35.2964 23.7934 35.1155 23.5079L35.1124 23.503H35.1123C34.0118 21.7678 32.497 20.3335 30.7041 19.3295L31.5588 16.7811C31.8422 15.8548 31.8198 14.8619 31.4948 13.9492C31.1699 13.0366 30.5598 12.253 29.7547 11.7142L27.0417 10.0694C26.917 9.99397 26.7647 9.97916 26.6278 10.0292C26.4909 10.0794 26.3841 10.1889 26.3377 10.3272L25.3522 13.2636H25.3523C25.1072 14.078 25.0943 14.9446 25.3149 15.766C25.5355 16.5874 25.981 17.3309 26.6012 17.9129C26.3344 17.8709 26.0657 17.838 25.7951 17.814L22.4999 16.8222C20.4556 16.2071 17.9583 17.1861 16.9325 19.0046L15.1773 22.1157L15.1774 22.1156C15.1057 22.2426 15.0956 22.3954 15.15 22.5307C15.2044 22.6659 15.3174 22.7693 15.4571 22.8112L17.674 23.4785C17.1015 24.0792 16.609 24.7511 16.2086 25.4778C15.8228 25.6901 15.4777 25.969 15.1893 26.3017C14.2591 25.253 13.0692 24.886 11.9138 25.323V25.3229C11.2867 25.5717 10.7605 26.0226 10.4185 26.6041C10.0764 27.1857 9.93818 27.8647 10.0255 28.5337C10.2625 30.3815 11.7059 31.5615 12.9794 32.6026H12.9793C13.66 33.1035 14.2705 33.6931 14.7947 34.356C14.8842 34.486 15.032 34.5636 15.1898 34.5636C15.3477 34.5636 15.4954 34.486 15.585 34.356C15.662 34.245 15.7447 34.138 15.8326 34.0355C16.5368 35.6351 17.6623 37.0135 19.0887 38.0236C20.515 39.0337 22.1887 39.6378 23.9314 39.7713C25.6741 39.9048 27.4202 39.5626 28.9838 38.7815C30.5473 38.0004 31.8694 36.8095 32.8092 35.3358C33.749 33.8622 34.2712 32.161 34.3199 30.414C34.3688 28.6668 33.9424 26.9392 33.0864 25.4155L34.5545 24.4408V24.4409C35.9821 26.9266 36.4221 29.8587 35.7869 32.6538C35.1518 35.4491 33.488 37.903 31.1263 39.5277C28.7647 41.1525 25.8782 41.829 23.0405 41.4228C20.2028 41.0167 17.6219 39.5577 15.8109 37.3359C15.7014 37.2071 15.5321 37.1454 15.3654 37.1735C15.1986 37.2016 15.059 37.3152 14.9976 37.4728C14.9362 37.6304 14.9622 37.8085 15.066 37.942C16.8315 40.1122 19.2802 41.6202 22.0127 42.2196C24.7453 42.8194 27.6004 42.4754 30.1124 41.2439C32.6243 40.0124 34.6448 37.9662 35.8445 35.4387C37.0441 32.9114 37.3519 30.0522 36.7177 27.3272L38.9472 26.8028V26.8029C39.7997 26.5775 40.5569 26.0837 41.1068 25.3943C41.6566 24.7051 41.9698 23.857 42 22.9758L41.9722 20.1237ZM25.9658 18.7982C27.6504 18.9871 29.2712 19.551 30.7094 20.4485C29.7971 20.3452 28.8769 20.5569 28.1016 21.0487L28.0407 21.0889H28.0408C27.0699 20.7265 26.0466 20.524 25.0108 20.489L25.9658 18.7982ZM15.1898 33.3116C14.6938 32.7869 14.158 32.3014 13.587 31.8594C12.3984 30.8862 11.1663 29.8802 10.9779 28.4115C10.9167 27.9566 11.0089 27.4944 11.24 27.0978C11.471 26.7013 11.8279 26.3932 12.2538 26.2222C12.451 26.1464 12.6603 26.1072 12.8715 26.1065C13.5632 26.1065 14.2397 26.5389 14.7923 27.3555C14.8817 27.4874 15.0307 27.5664 15.1899 27.5664C15.3493 27.5664 15.4982 27.4874 15.5876 27.3555C16.3042 26.2966 17.2305 25.8838 18.1259 26.2221V26.2223C18.5518 26.3932 18.9085 26.7013 19.1396 27.0978C19.3708 27.4944 19.463 27.9566 19.4018 28.4115C19.2137 29.8797 17.9829 30.8861 16.793 31.8595C16.222 32.3015 15.686 32.787 15.1898 33.3116ZM20.0488 33.4127C19.9596 34.238 19.6856 34.8603 19.2773 35.1643C19.1333 35.272 18.6718 35.5758 18.1555 35.8985V35.8983C17.4765 35.1332 16.9385 34.2537 16.5668 33.3007C16.8286 33.0689 17.1107 32.8379 17.3995 32.6016C18.1023 32.0647 18.7489 31.4581 19.3294 30.7909C19.4591 30.8377 19.5992 30.8957 19.7507 30.9691C20.0601 31.744 20.1631 32.5859 20.0499 33.4125L20.0488 33.4127ZM21.6834 27.0155C21.5185 25.2837 20.7322 24.9416 19.822 24.5452L19.8219 24.545C19.3957 24.3725 18.9875 24.1584 18.6034 23.9056C18.6419 23.8682 18.6821 23.8319 18.7212 23.7952L18.796 23.8175C19.2122 23.9411 19.6443 24.003 20.0785 24.0014C21.7914 24.0014 23.5455 23.0853 24.363 21.6352L24.4704 21.445C24.5358 21.445 24.6008 21.4425 24.6658 21.4425C25.4616 21.4418 26.2536 21.5503 27.0198 21.7652L25.7812 22.5874C25.6597 22.668 25.5814 22.7994 25.5684 22.9447C25.5554 23.0899 25.6091 23.2332 25.7145 23.3341L27.7742 25.307H27.7741C28.293 25.7871 28.9374 26.1103 29.6325 26.239C29.6192 26.2625 29.6062 26.2858 29.5926 26.3089V26.3088C29.341 26.7679 29.0461 27.2021 28.712 27.6051C28.067 28.409 25.9567 29.2222 25.0975 29.2375C23.8303 29.2605 22.9619 29.254 22.4638 28.9698C22.1378 28.7845 21.8179 28.4189 21.6843 27.0154L21.6834 27.0155ZM24.6659 38.831V38.8307C24.3585 38.8303 24.0516 38.8137 23.7461 38.7808C23.6441 37.982 23.822 37.5706 24.3516 37.3161C25.215 36.9005 25.6898 35.6826 26.0715 34.7038C26.1739 34.4409 26.3015 34.1138 26.4106 33.8907H26.4105C26.5229 34.1308 26.6189 34.3782 26.6978 34.6314C26.7575 34.8244 26.7928 35.0239 26.8027 35.2257C26.7853 35.5305 26.9116 35.8259 27.1439 36.0241C27.4871 36.2689 27.9622 36.2041 29.129 35.9017C30.3441 35.5872 30.5699 35.6189 30.9398 36.1465H30.9399C30.1301 36.9949 29.1567 37.6701 28.0784 38.1313C27.0002 38.5926 25.8396 38.8303 24.6667 38.8301L24.6659 38.831Z" fill="#08979C" stroke="#08979C" stroke-width="2.66667" mask="url(#path-2-inside-1_3635_224372)"/>
</svg>
