<svg width="82" height="82" viewBox="0 0 82 82" fill="none" xmlns="http://www.w3.org/2000/svg">
<circle cx="41" cy="41" r="41" fill="#E6F5F5"/>
<path d="M71.6912 29.9007C71.6884 29.6283 71.5618 29.3722 71.3475 29.2041C71.133 29.0362 70.854 28.9748 70.5888 29.0372L65.5295 30.2289H65.5297C63.9383 30.6495 62.5246 31.5714 61.4981 32.8581C60.4715 34.1447 59.8864 35.7276 59.8297 37.3727L59.8349 37.8504C59.5425 37.2956 59.2276 36.7518 58.89 36.2188L58.8841 36.2098H58.8839C56.8293 32.9701 54.0012 30.2924 50.6539 28.4179L52.2498 23.6601C52.7787 21.9307 52.737 20.0769 52.1303 18.3731C51.5236 16.6693 50.3845 15.2063 48.8815 14.2004L43.8164 11.1296C43.5835 10.9887 43.2993 10.9611 43.0436 11.0545C42.7881 11.1482 42.5887 11.3526 42.5019 11.6108L40.6621 17.0931H40.6623C40.2048 18.6135 40.1806 20.2315 40.5925 21.7649C41.0044 23.2984 41.8361 24.6865 42.994 25.7731C42.4959 25.6948 41.9941 25.6333 41.489 25.5885L35.337 23.7369C31.5204 22.5884 26.858 24.4163 24.9427 27.8113L21.6659 33.6197L21.6661 33.6195C21.5321 33.8566 21.5134 34.1418 21.6149 34.3945C21.7164 34.647 21.9275 34.8399 22.1883 34.9182L26.3272 36.1641C25.2583 37.2854 24.3389 38.5399 23.5913 39.8966C22.871 40.293 22.2268 40.8137 21.6883 41.4348C19.9517 39.4769 17.7302 38.7918 15.5731 39.6076V39.6074C14.4023 40.0719 13.4198 40.9137 12.7813 41.9994C12.1427 43.0852 11.8846 44.3528 12.0476 45.6019C12.49 49.0517 15.1848 51.2548 17.5625 53.1985H17.5623C18.833 54.1335 19.9729 55.2344 20.9516 56.472C21.1187 56.7146 21.3946 56.8595 21.6892 56.8595C21.9841 56.8595 22.2598 56.7146 22.4271 56.472C22.5708 56.2647 22.7252 56.0649 22.8892 55.8736C24.2041 58.86 26.3053 61.4335 28.9683 63.3193C31.6312 65.2051 34.756 66.3329 38.0095 66.5822C41.2631 66.8314 44.5231 66.1926 47.4423 64.7342C50.3612 63.2761 52.8296 61.0526 54.5842 58.3012C56.3388 55.55 57.3136 52.374 57.4046 49.1123C57.4959 45.8504 56.6999 42.625 55.1017 39.7803L57.8426 37.9606V37.9608C60.5079 42.6015 61.3293 48.0756 60.1434 53.2939C58.9577 58.5128 55.8514 63.0941 51.4422 66.1274C47.0332 69.1608 41.6441 70.4238 36.3462 69.6656C31.0483 68.9073 26.2299 66.1835 22.8488 62.0354C22.6444 61.7949 22.3284 61.6796 22.0171 61.7321C21.7057 61.7846 21.445 61.9967 21.3303 62.2909C21.2157 62.5852 21.2643 62.9178 21.4581 63.167C24.7542 67.2186 29.3259 70.034 34.4274 71.1531C39.5291 72.2729 44.8594 71.6307 49.5492 69.3315C54.239 67.0323 58.0112 63.2121 60.2509 58.4934C62.4906 53.775 63.0652 48.437 61.8813 43.3493L66.0437 42.3703V42.3705C67.6353 41.9497 69.0488 41.0278 70.0755 39.7408C71.1019 38.454 71.6866 36.8707 71.7431 35.2254L71.6912 29.9007ZM41.8077 27.426C44.9527 27.7786 47.9788 28.8315 50.6639 30.5071C48.9607 30.3141 47.2426 30.7095 45.7952 31.6276L45.6815 31.7027H45.6817C43.869 31.0262 41.9585 30.648 40.0247 30.5828L41.8077 27.426ZM21.6892 54.5221C20.7633 53.5424 19.7628 52.636 18.6968 51.811C16.4778 49.994 14.1774 48.1158 13.8256 45.3738C13.7114 44.5245 13.8835 43.6615 14.315 42.9211C14.7463 42.1808 15.4126 41.6056 16.2078 41.2865C16.5759 41.1448 16.9666 41.0717 17.361 41.0703C18.6524 41.0703 19.9154 41.8776 20.9471 43.4022C21.114 43.6484 21.3922 43.796 21.6894 43.796C21.9869 43.796 22.265 43.6484 22.4319 43.4022C23.7698 41.4253 25.4992 40.6546 27.1707 41.2863V41.2865C27.966 41.6056 28.6319 42.1808 29.0635 42.9211C29.495 43.6616 29.6671 44.5245 29.5529 45.3738C29.2017 48.1148 26.9038 49.9938 24.6823 51.811C23.6162 52.6363 22.6156 53.5426 21.6892 54.5221ZM30.7609 54.7108C30.5944 56.2517 30.0828 57.4134 29.3205 57.9811C29.0516 58.1821 28.19 58.7493 27.2262 59.3517V59.3515C25.9585 57.923 24.954 56.2809 24.26 54.5017C24.7488 54.069 25.2755 53.6377 25.8146 53.1965C27.1267 52.1943 28.334 51.0616 29.4177 49.8159C29.6599 49.9033 29.9215 50.0117 30.2043 50.1488C30.7819 51.5954 30.9742 53.1672 30.7629 54.7106L30.7609 54.7108ZM33.8126 42.7675C33.5046 39.5343 32.0368 38.8956 30.3374 38.1554L30.3372 38.155C29.5414 37.8331 28.7794 37.4333 28.0623 36.9614C28.1341 36.8916 28.2092 36.8238 28.2823 36.7552L28.4219 36.797C29.1989 37.0276 30.0056 37.1433 30.8164 37.1402C34.0143 37.1402 37.2892 35.4298 38.8154 32.7225L39.0158 32.3675C39.1379 32.3675 39.2592 32.3629 39.3807 32.3629C40.8663 32.3615 42.3451 32.5641 43.7754 32.9653L41.4631 34.5004C41.2363 34.6508 41.09 34.8962 41.0657 35.1674C41.0415 35.4385 41.1418 35.7061 41.3386 35.8944L45.1839 39.5778H45.1837C46.1525 40.4741 47.3556 41.0776 48.6533 41.3178C48.6284 41.3616 48.6042 41.4052 48.5788 41.4483V41.4481C48.1091 42.3053 47.5586 43.1158 46.9348 43.8682C45.7307 45.3692 41.7907 46.8873 40.1866 46.9159C37.8208 46.9589 36.1996 46.9466 35.2696 46.416C34.6609 46.0701 34.0637 45.3875 33.8142 42.7672L33.8126 42.7675ZM39.3807 64.8266V64.8262C38.807 64.8254 38.234 64.7943 37.6636 64.733C37.4731 63.2417 37.8053 62.4736 38.7941 61.9984C40.406 61.2224 41.2924 58.9487 42.005 57.1214C42.1962 56.6305 42.4345 56.0198 42.6382 55.6033H42.638C42.8479 56.0515 43.0271 56.5135 43.1744 56.9862C43.2858 57.3464 43.3516 57.719 43.3702 58.0956C43.3377 58.6648 43.5734 59.2163 44.0071 59.5863C44.6479 60.0432 45.5349 59.9223 47.7134 59.3578C49.9819 58.7705 50.4035 58.8298 51.0939 59.8148H51.0941C49.5823 61.3986 47.7651 62.6593 45.7518 63.5204C43.7388 64.3816 41.5721 64.8254 39.3823 64.825L39.3807 64.8266Z" fill="#08979C"/>
</svg>
