<svg width="52" height="52" viewBox="0 0 52 52" fill="none" xmlns="http://www.w3.org/2000/svg">
<rect x="0.5" y="0.500488" width="51" height="51" rx="25.5" fill="#F9FAFB"/>
<rect x="0.5" y="0.500488" width="51" height="51" rx="25.5" stroke="#E5E7EB"/>
<path d="M24.3925 25.5383H24.3958C24.475 25.5394 24.5473 25.5841 24.5836 25.6547L24.5837 25.6549C24.6202 25.7258 24.6144 25.812 24.5674 25.8782C24.5673 25.8783 24.5673 25.8785 24.5672 25.8786L20.7148 31.2721C20.7148 31.2721 20.7148 31.2722 20.7147 31.2722C20.6731 31.3304 20.6079 31.3622 20.5387 31.3622C20.4954 31.3622 20.4532 31.3496 20.4158 31.3227L20.4148 31.3221C20.3182 31.2531 20.2958 31.1192 20.3646 31.0225C20.3647 31.0224 20.3647 31.0223 20.3648 31.0222L23.2224 27.0218L23.9755 25.9676H22.68H18.5191C18.4377 25.9676 18.3633 25.9217 18.3267 25.8484L17.7302 26.1462L18.3269 25.849C18.2906 25.776 18.2986 25.6885 18.3476 25.6235C18.3476 25.6235 18.3476 25.6234 18.3476 25.6234L22.0508 20.7087C22.1229 20.6131 22.2573 20.5949 22.3515 20.666L22.3521 20.6665C22.4465 20.7375 22.4658 20.8721 22.3942 20.9672L19.7543 24.4704L18.9496 25.5383H20.2868H24.3925Z" fill="#08979C" stroke="#08979C" stroke-width="1.33333"/>
<path d="M40.861 22.0667H40.8546H40.3736H39.7069V21.4V19.8609C39.7069 19.7423 39.6107 19.6461 39.4921 19.6461C39.3735 19.6461 39.2773 19.7423 39.2773 19.8609V21.4V22.0667H38.6107H36.7952H36.1286V21.4V19.8609C36.1286 19.7423 36.0324 19.6461 35.9138 19.6461C35.7952 19.6461 35.699 19.7423 35.699 19.8609V21.4V22.0667H35.0323H34.5514C34.4917 22.0667 34.3569 22.1078 34.2329 22.3327L40.861 22.0667ZM40.861 22.0667C40.9235 22.0695 41.0534 22.1153 41.1731 22.3325C41.2929 22.5499 41.3458 22.8585 41.2664 23.1657L41.2664 23.1657C40.7982 24.9781 39.667 26.2306 38.4117 26.5673L37.9178 26.6998V27.2112V27.7177C37.9178 30.2656 35.8439 32.3397 33.2957 32.3397H30.8183H30.1517V33.0064V38.3561V39.0228H30.8183H31.5634C31.9255 39.0228 32.2189 39.3162 32.2189 39.6783C32.2189 40.0404 31.9255 40.3338 31.5634 40.3338H11.3222C10.96 40.3338 10.6667 40.0404 10.6667 39.6783C10.6667 39.3162 10.96 39.0228 11.3222 39.0228H12.0969H12.7636V38.3561V20.3612C12.7636 15.5677 16.6645 11.6672 21.4576 11.6672C26.2507 11.6672 30.1516 15.5677 30.1516 20.3612V31.2435V31.9102H30.8183H33.2957C35.608 31.9102 37.4882 30.03 37.4882 27.7177V27.2112V26.6998L36.9942 26.5673C35.739 26.2306 34.6078 24.978 34.1396 23.1657L40.861 22.0667ZM28.1738 39.0075L28.8405 39.0075V38.3409V20.361C28.8405 16.2896 25.5292 12.978 21.4575 12.978C17.3857 12.978 14.0745 16.2896 14.0745 20.361V38.341V39.0077L14.7411 39.0077L28.1738 39.0075Z" fill="#08979C" stroke="#08979C" stroke-width="1.33333"/>
</svg>
