<svg width="52" height="52" viewBox="0 0 52 52" fill="none" xmlns="http://www.w3.org/2000/svg">
<rect x="0.5" y="0.5" width="51" height="51" rx="25.5" fill="#E6E6E6"/>
<rect x="0.5" y="0.5" width="51" height="51" rx="25.5" stroke="#D1D5DB"/>
<path d="M26 27C25.7348 27 25.4804 27.1054 25.2929 27.2929C25.1054 27.4804 25 27.7348 25 28V31C25 31.2652 25.1054 31.5196 25.2929 31.7071C25.4804 31.8946 25.7348 32 26 32C26.2652 32 26.5196 31.8946 26.7071 31.7071C26.8946 31.5196 27 31.2652 27 31V28C27 27.7348 26.8946 27.4804 26.7071 27.2929C26.5196 27.1054 26.2652 27 26 27ZM31 23V21C31 19.6739 30.4732 18.4021 29.5355 17.4645C28.5979 16.5268 27.3261 16 26 16C24.6739 16 23.4021 16.5268 22.4645 17.4645C21.5268 18.4021 21 19.6739 21 21V23C20.2044 23 19.4413 23.3161 18.8787 23.8787C18.3161 24.4413 18 25.2044 18 26V33C18 33.7956 18.3161 34.5587 18.8787 35.1213C19.4413 35.6839 20.2044 36 21 36H31C31.7956 36 32.5587 35.6839 33.1213 35.1213C33.6839 34.5587 34 33.7956 34 33V26C34 25.2044 33.6839 24.4413 33.1213 23.8787C32.5587 23.3161 31.7956 23 31 23ZM23 21C23 20.2044 23.3161 19.4413 23.8787 18.8787C24.4413 18.3161 25.2044 18 26 18C26.7956 18 27.5587 18.3161 28.1213 18.8787C28.6839 19.4413 29 20.2044 29 21V23H23V21ZM32 33C32 33.2652 31.8946 33.5196 31.7071 33.7071C31.5196 33.8946 31.2652 34 31 34H21C20.7348 34 20.4804 33.8946 20.2929 33.7071C20.1054 33.5196 20 33.2652 20 33V26C20 25.7348 20.1054 25.4804 20.2929 25.2929C20.4804 25.1054 20.7348 25 21 25H31C31.2652 25 31.5196 25.1054 31.7071 25.2929C31.8946 25.4804 32 25.7348 32 26V33Z" fill="#9CA3AF"/>
</svg>
