<svg width="52" height="52" viewBox="0 0 52 52" fill="none" xmlns="http://www.w3.org/2000/svg">
<circle cx="26" cy="26" r="26" fill="#E6F5F5"/>
<path d="M21.6913 31.6799L22.4935 34.1122H44.0001L43.1856 31.6799H21.6913Z" fill="#08979C"/>
<path d="M18.6296 22.0993H40.2223V30.013H18.6296V22.0993Z" fill="#08979C"/>
<path d="M43.999 18H22.4924L21.6902 20.4322H43.1846L43.999 18Z" fill="#08979C"/>
<path d="M17.79 31.6796C17.5668 31.6814 17.3521 31.5936 17.1943 31.4358C17.0365 31.2778 16.9486 31.0632 16.9506 30.84V21.2597C16.9512 21.0385 17.0404 20.8266 17.198 20.6713C17.3556 20.516 17.5687 20.4301 17.79 20.4326H19.9259L20.7282 18.0005H8.00002L8.81491 20.4326H10.9507C11.17 20.4326 11.3803 20.5197 11.5355 20.6749C11.6906 20.8299 11.7778 21.0403 11.7778 21.2597V30.84C11.7803 31.0614 11.6943 31.2744 11.539 31.4321C11.3837 31.5898 11.1719 31.6788 10.9506 31.6795H8.8149L8 34.1116H20.7285L19.9262 31.6795L17.79 31.6796Z" fill="#08979C"/>
</svg>
