<svg width="52" height="52" viewBox="0 0 52 52" fill="none" xmlns="http://www.w3.org/2000/svg">
<rect x="0.5" y="0.500488" width="51" height="51" rx="25.5" fill="#F9FAFB"/>
<rect x="0.5" y="0.500488" width="51" height="51" rx="25.5" stroke="#E5E7EB"/>
<path d="M22.9758 32.4462L22.6133 31.3473H42.7059L43.0739 32.4462H22.9758Z" fill="#08979C" stroke="#08979C" stroke-width="1.33333"/>
<path d="M19.2965 21.7663H39.5559V28.3467H19.2965V21.7663Z" fill="#08979C" stroke="#08979C" stroke-width="1.33333"/>
<path d="M22.6123 18.7661L22.9748 17.6672H43.073L42.705 18.7661H22.6123Z" fill="#08979C" stroke="#08979C" stroke-width="1.33333"/>
<path d="M16.2839 29.8381C16.2813 30.2392 16.4397 30.6242 16.7227 30.9075L16.7229 30.9077L16.73 19.1971C16.4459 19.4771 16.2851 19.8591 16.2839 20.2582V20.2602V29.8381ZM16.2839 29.8381C16.2839 29.837 16.2839 29.8358 16.2839 29.8346L16.9506 29.8405H16.2839V29.8381ZM12.014 30.9004L12.014 30.9004C11.7338 31.1849 11.3517 31.3453 10.953 31.3467L10.9506 31.3467L9.29462 31.3467L8.92647 32.4455H19.8066L19.4441 31.3467L17.7923 31.3467H17.79L17.79 30.6801L12.014 30.9004ZM12.014 30.9004C12.2929 30.6173 12.4478 30.2349 12.4445 29.8373V20.2602C12.4445 19.8642 12.2872 19.4841 12.0069 19.204L12.014 30.9004ZM17.7932 18.7664H19.4438L19.8063 17.6676H8.92648L9.29463 18.7664H10.9507C11.3469 18.7664 11.7266 18.9238 12.0067 19.2038L17.7932 18.7664ZM17.7932 18.7664C17.3959 18.7631 17.0134 18.9178 16.7302 19.1969L17.7932 18.7664Z" fill="#08979C" stroke="#08979C" stroke-width="1.33333"/>
</svg>
