<svg width="52" height="52" viewBox="0 0 52 52" fill="none" xmlns="http://www.w3.org/2000/svg">
<circle cx="26" cy="26.0005" r="25.5" fill="#F9FAFB" stroke="#E5E7EB"/>
<path d="M17.3571 27.575C16.9334 27.575 16.5107 27.3886 16.1869 27.0293L17.3571 27.575ZM17.3571 27.575L17.3593 27.575M17.3571 27.575L17.3593 27.575M17.3593 27.575C17.7828 27.5744 18.205 27.3877 18.5283 27.0283C18.8542 26.666 19.0476 26.1608 19.0476 25.6211C19.0476 25.0813 18.8542 24.5762 18.5283 24.2138L18.9187 23.8627L18.5283 24.2138C18.2045 23.8538 17.7814 23.6672 17.3571 23.6672C16.9329 23.6672 16.5098 23.8538 16.186 24.2138C15.8601 24.5761 15.6667 25.0813 15.6667 25.6211C15.6667 26.1612 15.8605 26.6667 16.1868 27.0292L17.3593 27.575ZM32.9524 25.6211C32.9524 25.0813 33.1458 24.5762 33.4717 24.2138C33.7955 23.8538 34.2186 23.6672 34.6429 23.6672C35.0671 23.6672 35.4902 23.8538 35.814 24.2138C36.1399 24.5761 36.3333 25.0813 36.3333 25.6211C36.3333 26.1608 36.1399 26.666 35.814 27.0283C35.4902 27.3883 35.0671 27.575 34.6429 27.575C34.2186 27.575 33.7955 27.3883 33.4717 27.0283C33.1458 26.666 32.9524 26.1608 32.9524 25.6211ZM27.1711 27.0283C26.8473 27.3883 26.4242 27.575 26 27.575C25.5757 27.575 25.1527 27.3883 24.8289 27.0283C24.503 26.666 24.3095 26.1608 24.3095 25.6211C24.3095 25.0813 24.503 24.5761 24.8289 24.2138C25.1527 23.8538 25.5758 23.6672 26 23.6672C26.4243 23.6672 26.8473 23.8538 27.1711 24.2138C27.497 24.5762 27.6905 25.0813 27.6905 25.6211C27.6905 26.1608 27.497 26.666 27.1711 27.0283Z" fill="#9CA3AF" stroke="#9CA3AF" stroke-width="1.33333"/>
</svg>
