<svg width="52" height="52" viewBox="0 0 52 52" fill="none" xmlns="http://www.w3.org/2000/svg">
<rect x="0.5" y="0.500488" width="51" height="51" rx="25.5" fill="#F9FAFB"/>
<rect x="0.5" y="0.500488" width="51" height="51" rx="25.5" stroke="#E5E7EB"/>
<path d="M36.1127 20.7623L36.2858 20.7623C36.8265 20.7622 37.3667 20.7869 37.9049 20.8362V10.6672H35.8097V18.5719C35.8097 18.9004 35.6791 19.2152 35.447 19.4474L35.447 19.4474C35.2149 19.6795 34.9 19.81 34.5716 19.81H25.4287C25.1003 19.81 24.7854 19.6795 24.5533 19.4474L24.5533 19.4474C24.3211 19.2153 24.1906 18.9004 24.1906 18.5719V10.6672H22.0954V15.4894C22.8195 16.1507 23.2381 17.0899 23.2382 18.0811L23.2382 18.0812V20.9547V20.9554H22.5716C22.5726 21.4104 22.3918 21.847 22.0693 22.1679L36.1127 20.7623ZM36.1127 20.7623L36.1111 20.7632C34.4114 20.7793 32.6857 21.0308 31.3467 21.5294C30.6556 21.7868 30.0281 22.1245 29.563 22.5637C29.2072 22.8998 28.9343 23.3092 28.8202 23.7869M36.1127 20.7623L28.8202 23.7869M23.2382 24.1892C23.2395 23.5884 23.0126 23.0108 22.6057 22.572L22.5716 24.1885M23.2382 24.1892C23.2382 24.1895 23.2382 24.1898 23.2382 24.1901L22.5716 24.1885M23.2382 24.1892V24.1885H22.5716M23.2382 24.1892V24.3833C23.2382 24.383 23.2382 24.3827 23.2382 24.3824L22.5716 24.384V24.1885M28.8202 23.7869H28.7257L28.7701 24.4953L29.6817 39.0482M28.8202 23.7869L29.6817 39.0482M29.6817 39.0482H24.2858H23.6191V39.7148V40.8577V41.3339H23.0745C23.1811 40.998 23.237 40.6457 23.2382 40.2886V40.2863V37.9035V37.9028H22.5716L29.6817 39.0482ZM22.6057 36.2863C23.0126 35.8474 23.2394 35.2698 23.2382 34.669M23.2382 34.669V34.6697H22.5716L23.2382 34.6681C23.2382 34.6684 23.2382 34.6687 23.2382 34.669Z" fill="#08979C" stroke="#08979C" stroke-width="1.33333"/>
<path d="M20.3809 21.4354C20.483 21.2475 20.6108 21.0726 20.7619 20.9163V18.0812V18.0793C20.7629 17.7291 20.588 17.4018 20.2962 17.2079L20.2953 17.2073L17.8845 15.5999L17.5876 15.402V15.3215C17.4258 15.1098 17.3344 14.8483 17.3333 14.5746L17.3333 14.5721L17.3333 14.0959L20.3809 21.4354ZM20.3809 21.4354V21.3338H19.7143H12.9523V20.8576V18.7435L12.9572 18.7402L13.5116 18.3705L13.5116 18.3704L13.8388 18.1524L14.6867 17.5873L15.2417 17.2174L14.8716 16.6625L14.2373 15.7117L20.3809 21.4354ZM10.6667 24.2277C10.8178 24.0714 10.9455 23.8966 11.0476 23.7086V23.81H11.7143H19.7143H20.3809V23.708C20.483 23.896 20.6108 24.0708 20.7619 24.2271V24.3449C20.6108 24.5012 20.483 24.676 20.3809 24.864V24.7624H19.7143H11.7143H11.0476V24.8645C10.9455 24.6766 10.8178 24.5018 10.6667 24.3455V24.2277ZM20.3809 27.2385V27.1366C20.483 27.3245 20.6108 27.4994 20.7619 27.6556V27.7734C20.6108 27.9297 20.483 28.1045 20.3809 28.2925V28.1909H19.7143H11.7143H11.0476V28.2931C10.9455 28.1051 10.8178 27.9303 10.6667 27.774V27.6562C10.8178 27.5 10.9455 27.3251 11.0476 27.1372V27.2385H11.7143H19.7143H20.3809ZM20.3809 30.6671V30.5651C20.483 30.7531 20.6108 30.9279 20.7619 31.0842V31.202C20.6108 31.3582 20.483 31.5331 20.3809 31.7211V31.6195H19.7143H11.7143H11.0476V31.7216C10.9455 31.5337 10.8178 31.3588 10.6667 31.2026V31.0848C10.8178 30.9285 10.9455 30.7537 11.0476 30.5657V30.6671H11.7143H19.7143H20.3809ZM20.3809 34.0957V33.9937C20.483 34.1816 20.6108 34.3565 20.7619 34.5127V34.6305C20.6108 34.7868 20.483 34.9616 20.3809 35.1496V35.0481H19.7143H11.7143H11.0476V35.1502C10.9455 34.9622 10.8178 34.7874 10.6667 34.6311V34.5133C10.8178 34.3571 10.9455 34.1822 11.0476 33.9943V34.0957H11.7143H19.7143H20.3809ZM20.3809 37.5243V37.4222C20.483 37.6102 20.6108 37.785 20.7619 37.9413V40.2862C20.7619 40.564 20.6515 40.8304 20.4551 41.0268L20.4549 41.027C20.2586 41.2234 19.9922 41.3338 19.7143 41.3338H11.7143C11.4364 41.3338 11.17 41.2234 10.9736 41.027L10.9734 41.0268C10.777 40.8305 10.6667 40.564 10.6667 40.2862V37.9419C10.8178 37.7856 10.9455 37.6108 11.0476 37.4228V37.5243H11.7143H19.7143H20.3809ZM10.6667 37.9001C10.6667 37.901 10.6667 37.9018 10.6667 37.9027H10.6525L10.6667 37.9001ZM10.6667 34.6702V34.6697C10.6667 34.6698 10.6667 34.67 10.6667 34.6702ZM10.6667 31.2417V31.2411C10.6667 31.2413 10.6667 31.2415 10.6667 31.2417ZM10.6667 27.8131V27.8126C10.6667 27.8128 10.6667 27.8129 10.6667 27.8131ZM10.6667 24.3846V24.384C10.6667 24.3842 10.6667 24.3844 10.6667 24.3846Z" fill="#08979C" stroke="#08979C" stroke-width="1.33333"/>
<path d="M41.3393 24.2444C41.3394 24.2444 41.3391 24.2452 41.3383 24.2467C41.3389 24.2451 41.3393 24.2444 41.3393 24.2444ZM41.1651 24.1626C41.2412 24.2166 41.285 24.2581 41.3096 24.2861C41.285 24.314 41.2412 24.3556 41.1651 24.4096C40.9588 24.5559 40.617 24.715 40.1346 24.8597C39.1784 25.1466 37.8174 25.3337 36.2856 25.3337C34.7538 25.3337 33.3928 25.1466 32.4365 24.8597C31.9541 24.715 31.6123 24.5559 31.406 24.4096C31.3299 24.3556 31.2861 24.314 31.2615 24.2861C31.2861 24.2581 31.3299 24.2166 31.406 24.1626C31.6123 24.0162 31.9541 23.8571 32.4365 23.7124C33.3928 23.4256 34.7538 23.2384 36.2856 23.2384C37.8174 23.2384 39.1784 23.4256 40.1346 23.7124C40.617 23.8571 40.9588 24.0162 41.1651 24.1626ZM31.2318 24.2444C31.2319 24.2444 31.2323 24.2451 31.2328 24.2467C31.2321 24.2452 31.2318 24.2444 31.2318 24.2444ZM31.2318 24.3278C31.2318 24.3278 31.2321 24.327 31.2328 24.3254C31.2323 24.327 31.2319 24.3278 31.2318 24.3278ZM41.3383 24.3254C41.3391 24.327 41.3394 24.3278 41.3393 24.3278C41.3393 24.3278 41.3389 24.327 41.3383 24.3254Z" fill="#08979C" stroke="#08979C" stroke-width="1.33333"/>
<path d="M17.3335 11.6195H14.0954V10.6672H17.3335V11.6195Z" fill="#08979C" stroke="#08979C" stroke-width="1.33333"/>
<path d="M40.3237 40.3815L40.2642 41.3339H39.1413H32.3043L32.2448 40.3815H40.3237Z" fill="#08979C" stroke="#08979C" stroke-width="1.33333"/>
<mask id="path-7-inside-1_15_1814" fill="white">
<path d="M41.4637 32.8574H31.1055L31.1769 34.0003H41.3922L41.4637 32.8574Z"/>
</mask>
<path d="M41.4637 32.8574H31.1055L31.1769 34.0003H41.3922L41.4637 32.8574Z" fill="#08979C"/>
<path d="M41.4637 32.8574L42.7944 32.9407L42.8831 31.5241H41.4637V32.8574ZM31.1055 32.8574V31.5241H29.6862L29.7747 32.9406L31.1055 32.8574ZM31.1769 34.0003L29.8462 34.0834L29.9243 35.3336H31.1769V34.0003ZM41.3922 34.0003V35.3336H42.6447L42.7229 34.0835L41.3922 34.0003ZM41.4637 31.5241H31.1055V34.1908H41.4637V31.5241ZM29.7747 32.9406L29.8462 34.0834L32.5076 33.9171L32.4362 32.7743L29.7747 32.9406ZM31.1769 35.3336H41.3922V32.6669H31.1769V35.3336ZM42.7229 34.0835L42.7944 32.9407L40.133 32.7742L40.0615 33.917L42.7229 34.0835Z" fill="#08979C" mask="url(#path-7-inside-1_15_1814)"/>
<mask id="path-9-inside-2_15_1814" fill="white">
<path d="M41.6069 30.5718H30.9619L31.0339 31.7146H41.5351L41.6069 30.5718Z"/>
</mask>
<path d="M41.6069 30.5718H30.9619L31.0339 31.7146H41.5351L41.6069 30.5718Z" fill="#08979C"/>
<path d="M41.6069 30.5718L42.9376 30.6554L43.0267 29.2384H41.6069V30.5718ZM30.9619 30.5718V29.2384H29.5419L29.6312 30.6556L30.9619 30.5718ZM31.0339 31.7146L29.7032 31.7985L29.782 33.048H31.0339V31.7146ZM41.5351 31.7146V33.048H42.7873L42.8658 31.7983L41.5351 31.7146ZM41.6069 29.2384H30.9619V31.9051H41.6069V29.2384ZM29.6312 30.6556L29.7032 31.7985L32.3646 31.6308L32.2926 30.4879L29.6312 30.6556ZM31.0339 33.048H41.5351V30.3813H31.0339V33.048ZM42.8658 31.7983L42.9376 30.6554L40.2762 30.4881L40.2044 31.631L42.8658 31.7983Z" fill="#08979C" mask="url(#path-9-inside-2_15_1814)"/>
<path d="M36.2846 27.81C37.9952 27.81 39.7696 27.5707 41.1583 27.066L41.052 28.7624H31.5164L31.4098 27.066C32.7988 27.5707 34.574 27.81 36.2846 27.81Z" fill="#08979C" stroke="#08979C" stroke-width="1.33333"/>
<mask id="path-12-inside-3_15_1814" fill="white">
<path d="M41.1769 37.4292H31.3916L31.463 38.5721H41.1048L41.1769 37.4292Z"/>
</mask>
<path d="M41.1769 37.4292H31.3916L31.463 38.5721H41.1048L41.1769 37.4292Z" fill="#08979C"/>
<path d="M41.1769 37.4292L42.5076 37.5132L42.597 36.0959H41.1769V37.4292ZM31.3916 37.4292V36.0959H29.9723L30.0609 37.5124L31.3916 37.4292ZM31.463 38.5721L30.1323 38.6552L30.2104 39.9054H31.463V38.5721ZM41.1048 38.5721V39.9054H42.3566L42.4355 38.656L41.1048 38.5721ZM41.1769 36.0959H31.3916V38.7625H41.1769V36.0959ZM30.0609 37.5124L30.1323 38.6552L32.7938 38.4889L32.7223 37.346L30.0609 37.5124ZM31.463 39.9054H41.1048V37.2387H31.463V39.9054ZM42.4355 38.656L42.5076 37.5132L39.8462 37.3452L39.7741 38.4881L42.4355 38.656Z" fill="#08979C" mask="url(#path-12-inside-3_15_1814)"/>
<mask id="path-14-inside-4_15_1814" fill="white">
<path d="M41.3205 35.1436H31.249L31.3205 36.2864H41.249L41.3205 35.1436Z"/>
</mask>
<path d="M41.3205 35.1436H31.249L31.3205 36.2864H41.249L41.3205 35.1436Z" fill="#08979C"/>
<path d="M41.3205 35.1436L42.6512 35.2268L42.7398 33.8102H41.3205V35.1436ZM31.249 35.1436V33.8102H29.8298L29.9183 35.2267L31.249 35.1436ZM31.3205 36.2864L29.9897 36.3696L30.0679 37.6197H31.3205V36.2864ZM41.249 36.2864V37.6197H42.5015L42.5797 36.3697L41.249 36.2864ZM41.3205 33.8102H31.249V36.4769H41.3205V33.8102ZM29.9183 35.2267L29.9897 36.3696L32.6512 36.2032L32.5798 35.0604L29.9183 35.2267ZM31.3205 37.6197H41.249V34.9531H31.3205V37.6197ZM42.5797 36.3697L42.6512 35.2268L39.9898 35.0603L39.9182 36.2032L42.5797 36.3697Z" fill="#08979C" mask="url(#path-14-inside-4_15_1814)"/>
</svg>
