<svg width="52" height="52" viewBox="0 0 52 52" fill="none" xmlns="http://www.w3.org/2000/svg">
<circle cx="26" cy="26" r="26" fill="#E6F5F5"/>
<path d="M36.2854 21.4286C37.0499 21.4284 37.8135 21.4798 38.5711 21.5823V10.0001H35.1425V18.5715C35.1425 18.7231 35.0823 18.8684 34.9751 18.9756C34.868 19.0827 34.7226 19.143 34.5711 19.143H25.4282C25.2767 19.143 25.1313 19.0827 25.0242 18.9756C24.917 18.8684 24.8568 18.7231 24.8568 18.5715V10.0001H21.4282V15.8018C22.1474 16.3386 22.571 17.1834 22.5711 18.0808V20.955C22.5722 21.41 22.3913 21.8466 22.0688 22.1675C21.9617 22.2748 21.9015 22.42 21.9015 22.5716C21.9015 22.7231 21.9617 22.8684 22.0688 22.9756C22.3913 23.2966 22.5722 23.7331 22.5711 24.1881V24.3836C22.5722 24.8386 22.3913 25.2752 22.0688 25.5961C21.9617 25.7034 21.9015 25.8486 21.9015 26.0002C21.9015 26.1517 21.9617 26.2969 22.0688 26.4042C22.3913 26.7251 22.5722 27.1617 22.5711 27.6167V27.8122C22.5722 28.2672 22.3913 28.7037 22.0688 29.0247C21.9617 29.1319 21.9015 29.2772 21.9015 29.4287C21.9015 29.5803 21.9617 29.7255 22.0688 29.8328C22.3913 30.1537 22.5722 30.5903 22.5711 31.0453V31.2407C22.5722 31.6958 22.3913 32.1323 22.0688 32.4532C21.9617 32.5605 21.9015 32.7057 21.9015 32.8573C21.9015 33.0089 21.9617 33.1541 22.0688 33.2614C22.3913 33.5823 22.5722 34.0188 22.5711 34.4738V34.6693C22.5722 35.1243 22.3913 35.5609 22.0688 35.8818C21.9617 35.9891 21.9015 36.1343 21.9015 36.2859C21.9015 36.4374 21.9617 36.5827 22.0688 36.6899C22.3913 37.0109 22.5722 37.4474 22.5711 37.9024V40.2859C22.5689 40.9061 22.363 41.5085 21.9848 42.0002H30.534L30.4625 40.8573H24.2853V39.7144H30.3909L29.435 24.4532H29.4476C29.4476 24.432 29.4413 24.4115 29.4402 24.3903H29.4322C29.4281 24.3556 29.4281 24.3213 29.4281 24.2858C29.4281 22.4098 32.878 21.4287 36.2852 21.4287L36.2854 21.4286Z" fill="#08979C"/>
<path d="M10 37.9022V40.2856C10 40.7403 10.1806 41.1763 10.5022 41.4977C10.8236 41.8193 11.2596 41.9999 11.7143 41.9999H19.7143C20.1689 41.9999 20.605 41.8193 20.9264 41.4977C21.248 41.1763 21.4286 40.7403 21.4286 40.2856V37.9022C21.4287 37.7505 21.3684 37.6049 21.2612 37.4977C20.9396 37.1761 20.7589 36.74 20.7589 36.2854C20.7589 35.8306 20.9397 35.3946 21.2612 35.073C21.3688 34.9662 21.4292 34.8208 21.4286 34.6691V34.4736C21.4287 34.3219 21.3684 34.1764 21.2612 34.0691C20.9396 33.7476 20.7589 33.3115 20.7589 32.8569C20.7589 32.4021 20.9397 31.966 21.2612 31.6445C21.3688 31.5377 21.4292 31.3922 21.4286 31.2405V31.0451C21.4287 30.8934 21.3684 30.7478 21.2612 30.6406C20.9396 30.319 20.7589 29.883 20.7589 29.4283C20.7589 28.9735 20.9397 28.5375 21.2612 28.2159C21.3688 28.1092 21.4292 27.9637 21.4286 27.812V27.6165C21.4287 27.4649 21.3684 27.3193 21.2612 27.212C20.9396 26.8905 20.7589 26.4544 20.7589 25.9998C20.7589 25.545 20.9397 25.1089 21.2612 24.7874C21.3688 24.6806 21.4292 24.5351 21.4286 24.3835V24.188C21.4287 24.0363 21.3684 23.8907 21.2612 23.7835C20.9396 23.4619 20.7589 23.0259 20.7589 22.5712C20.7589 22.1165 20.9397 21.6804 21.2612 21.3589C21.3688 21.2521 21.4292 21.1066 21.4286 20.9549V18.0807C21.4302 17.5065 21.1434 16.9698 20.6651 16.6521L18.2543 15.0447V15.0446C18.0961 14.9391 18.0007 14.7617 18 14.5715V13.4286H13.4286V14.5715C13.4286 14.7626 13.3332 14.9409 13.1743 15.047L10.7635 16.6544C10.2858 16.9716 9.99919 17.5072 10 18.0807V20.955C9.99989 21.1066 10.0601 21.2522 10.1674 21.3595C10.4889 21.681 10.6696 22.1171 10.6696 22.5717C10.6696 23.0265 10.4889 23.4625 10.1674 23.7841C10.0598 23.8909 9.99942 24.0364 10 24.188V24.3835C9.99989 24.5352 10.0601 24.6808 10.1674 24.788C10.4889 25.1096 10.6696 25.5456 10.6696 26.0003C10.6696 26.455 10.4889 26.8911 10.1674 27.2126C10.0598 27.3194 9.99942 27.4649 10 27.6166V27.812C9.99989 27.9637 10.0601 28.1093 10.1674 28.2166C10.4889 28.5381 10.6696 28.9742 10.6696 29.4288C10.6696 29.8836 10.4889 30.3196 10.1674 30.6412C10.0598 30.748 9.99942 30.8934 10 31.0451V31.2406C9.99989 31.3923 10.0601 31.5378 10.1674 31.6451C10.4889 31.9666 10.6696 32.4027 10.6696 32.8573C10.6696 33.3121 10.4889 33.7482 10.1674 34.0697C10.0598 34.1765 9.99942 34.322 10 34.4736V34.6691C9.99989 34.8208 10.0601 34.9664 10.1674 35.0736C10.4889 35.3952 10.6696 35.8312 10.6696 36.2859C10.6696 36.7407 10.4889 37.1767 10.1674 37.4983C10.0598 37.605 9.99942 37.7505 10 37.9022L10 37.9022ZM19.7143 36.857H11.7143V35.7142H19.7143V36.857ZM19.7143 33.4285H11.7143V32.2856H19.7143V33.4285ZM19.7143 29.9999H11.7143V28.857H19.7143V29.9999ZM19.7143 26.5713H11.7143V25.4285H19.7143V26.5713ZM19.7143 21.9999V23.1428H11.7143V21.9999H19.7143ZM13.6827 16.0811L14.317 17.0319L13.469 17.5971L12.8354 16.6462L13.6827 16.0811ZM11.1427 18.3863C11.1421 18.0039 11.3333 17.6467 11.6519 17.4354L11.9536 17.2342L12.5873 18.1851L12.2856 18.3863V20.8571H11.1427V18.3863Z" fill="#08979C"/>
<path d="M42.0001 24.2857C42.0001 25.2325 39.4418 26 36.2858 26C33.1299 26 30.5715 25.2325 30.5715 24.2857C30.5715 23.3389 33.1299 22.5714 36.2858 22.5714C39.4418 22.5714 42.0001 23.3389 42.0001 24.2857Z" fill="#08979C"/>
<path d="M13.4284 10.5714V12.2857H17.9998V10.5714C17.9998 10.4199 17.9395 10.2745 17.8324 10.1674C17.7253 10.0602 17.5799 10 17.4283 10H13.9998C13.8482 10 13.7029 10.0602 13.5957 10.1674C13.4886 10.2745 13.4284 10.4199 13.4284 10.5714Z" fill="#08979C"/>
<path d="M39.1413 42H40.8905L41.0334 39.7143H31.5352L31.678 42H39.1413Z" fill="#08979C"/>
<path d="M41.4635 32.8571H31.1052L31.1767 34H41.392L41.4635 32.8571Z" fill="#08979C"/>
<path d="M41.6069 30.5714H30.9619L31.0339 31.7143H41.5351L41.6069 30.5714Z" fill="#08979C"/>
<path d="M41.8932 26C40.5852 26.7543 38.4275 27.1429 36.2847 27.1429C34.1419 27.1429 31.983 26.7543 30.6749 26L30.8904 29.4286H41.6784L41.8932 26Z" fill="#08979C"/>
<path d="M41.1771 37.4286H31.3918L31.4633 38.5714H41.105L41.1771 37.4286Z" fill="#08979C"/>
<path d="M41.3201 35.1429H31.2487L31.3201 36.2857H41.2486L41.3201 35.1429Z" fill="#08979C"/>
</svg>
